<?xml version="1.0" encoding="utf-8"?>
<!-- Generator: Adobe Illustrator 15.0.0, SVG Export Plug-In . SVG Version: 6.00 Build 0)  -->
<!DOCTYPE svg PUBLIC "-//W3C//DTD SVG 1.1//EN" "http://www.w3.org/Graphics/SVG/1.1/DTD/svg11.dtd" [
	<!ENTITY ns_flows "http://ns.adobe.com/Flows/1.0/">
	<!ENTITY ns_extend "http://ns.adobe.com/Extensibility/1.0/">
	<!ENTITY ns_ai "http://ns.adobe.com/AdobeIllustrator/10.0/">
	<!ENTITY ns_graphs "http://ns.adobe.com/Graphs/1.0/">
]>
<svg version="1.1" id="Layer_1" xmlns:x="&ns_extend;" xmlns:i="&ns_ai;" xmlns:graph="&ns_graphs;"
	 xmlns="http://www.w3.org/2000/svg" xmlns:xlink="http://www.w3.org/1999/xlink" xmlns:a="http://ns.adobe.com/AdobeSVGViewerExtensions/3.0/"
	 x="0px" y="0px" width="64px" height="64px" viewBox="0 0 64 64" enable-background="new 0 0 64 64" xml:space="preserve">
<path fill="#FED0AC" d="M23.087,6.308c13.12,13.015,12.685,12.602,20.391,20.246c1.346,2.906-14.655,18.918-17.199,17.054
	c-6.093-6.04-9.965-9.899-20.092-19.947C-0.812,14.274,15.623-0.574,23.087,6.308z"/>
<path fill="#FFE1BD" d="M23.087,6.308c5.331,5.957,5.417,15.652-2.115,20.146c-4.146,2.476-13.078,1.56-16.09-4.84
	C0.03,11.313,16.571-0.968,23.087,6.308z M22.19,7.191C17.163,1.338,2.375,10.743,5.755,20.598
	c2.146,6.269,10.685,7.01,14.576,4.775C24.466,22.993,28.673,14.734,22.19,7.191z"/>
<path fill="#FFE1BD" d="M29.39,25.704c-13.914,2.658-16.171,1.825-16.171,1.825s4.116,1.427,16.364-0.679
	c0.825-0.142,5.114,3.565,7.832,6.298l0.908-1.006C35.807,29.174,31.439,25.313,29.39,25.704z"/>
<path fill="#EBBB96" d="M31.214,23.051c-1.129,0.962-1.318-3.944,0.045-3.452C33.214,20.298,32.325,22.103,31.214,23.051z"/>
<path fill="#EBBB96" d="M22.716,32.61c0.561,0.919-3.051,0.625-2.52-0.341C20.957,30.886,22.165,31.706,22.716,32.61z"/>
<path fill="#EBBB96" d="M30.608,15.724c0.362,0.598-1.981,0.406-1.633-0.221C29.47,14.605,30.25,15.137,30.608,15.724z"/>
<radialGradient id="SVGID_1_" cx="386.6416" cy="-148.6504" r="17.8889" gradientTransform="matrix(0.6321 -0.6309 2.2289 2.225 124.3838 613.9767)" gradientUnits="userSpaceOnUse">
	<stop  offset="0.3818" style="stop-color:#BEC4C7"/>
	<stop  offset="0.5665" style="stop-color:#D5DBDE"/>
	<stop  offset="0.7515" style="stop-color:#E7EDF0"/>
	<a:midPointStop  offset="0.3818" style="stop-color:#BEC4C7"/>
	<a:midPointStop  offset="0.45" style="stop-color:#BEC4C7"/>
	<a:midPointStop  offset="0.7515" style="stop-color:#E7EDF0"/>
</radialGradient>
<path fill="url(#SVGID_1_)" d="M57.265,40.189c9.433,9.353-7.807,26.449-17.239,17.1C35.563,52.86,20.56,38.005,20.56,38.005
	l15.375-3.952l6.542-8.507C42.477,25.546,52.802,35.763,57.265,40.189z"/>
<path opacity="0.25" fill="#FFFFFF" d="M36.576,32.498c-0.532-0.516,0.489-1.571,1.03-1.07
	C54.136,47.088,53.086,48.176,36.576,32.498z"/>
<path opacity="0.25" fill="#FFFFFF" d="M39.958,48.244c-0.053,0.383-0.422,0.237-0.373-0.145c0.859-5.842,2.558-8.495,2.556-8.509
	C42.343,39.627,40.844,42.309,39.958,48.244z"/>
<path opacity="0.25" fill="#FFFFFF" d="M38.191,52.104c0.332,0.657-0.294,0.972-0.633,0.318
	C29.128,35.986,29.773,35.662,38.191,52.104z"/>
<path opacity="0.25" fill="#FFFFFF" d="M45.365,56.313c0.072,0.672-0.503,0.415-0.593-0.23c-0.568-9.659,0.392-14.738,0.458-14.782
	C45.485,41.246,44.845,46.226,45.365,56.313z"/>
<path opacity="0.25" fill="#FFFFFF" d="M55.033,51.77c0.184,0.582-0.23,1.043-0.442,0.446c-3.647-8.758-6.254-12.697-6.002-12.757
	C48.664,39.467,51.603,43.35,55.033,51.77z"/>
<path opacity="0.25" fill="#FFFFFF" d="M56.011,50.493c-0.054,0.442-0.511,0.513-0.464,0.062c0.624-6.973-0.341-10.416-0.107-10.402
	C55.438,40.168,56.64,43.633,56.011,50.493z"/>
<radialGradient id="SVGID_2_" cx="1.96" cy="-7.7432" r="15.2838" gradientTransform="matrix(0.9332 0 0 0.9315 29.9112 39.4779)" gradientUnits="userSpaceOnUse">
	<stop  offset="0" style="stop-color:#8A8F91"/>
	<stop  offset="0.2098" style="stop-color:#989D9F"/>
	<stop  offset="0.6072" style="stop-color:#BDC2C5"/>
	<stop  offset="1" style="stop-color:#E7EDF0"/>
	<a:midPointStop  offset="0" style="stop-color:#8A8F91"/>
	<a:midPointStop  offset="0.5636" style="stop-color:#8A8F91"/>
	<a:midPointStop  offset="1" style="stop-color:#E7EDF0"/>
</radialGradient>
<path fill="url(#SVGID_2_)" d="M20.03,37.411l-0.462,1.574l1.446-0.599l2.354,1.413l0.894-2.112l4.217,0.56l2.245-2.592l0.308,1.573
	l0.157-1.423l1.091,0.858l-0.398-1.24l3.849-0.303l0.269-0.675l1.012,0.675l0.49-2.32l1.546,0.288l-0.947-1.03l4.592-2.608
	l-1.538-0.778l1.45-0.373l-0.952-0.757l1.909,0.214l-1.042-1.093l1.395-1.594l-2.275-0.338c-2.822,1.254-3.171,3.914-5.354,6.917
	C32.629,36.671,26.533,33.095,20.03,37.411z"/>
<path fill="#612F2F" d="M8.757,11.407c-3.438-1.741-5.156,4.282,0.822,1.922C15.478,11,10.549,8.114,8.757,11.407z"/>
<path fill="#612F2F" d="M12.843,10.77c-3.684-1.145-4.37,5.08,1.132,1.756C19.4,9.25,14.059,7.224,12.843,10.77z"/>
<path fill="#612F2F" d="M7.376,17.313c3.811,0.576,3.627-5.673-1.364-1.566C1.088,19.8,6.662,20.998,7.376,17.313z"/>
<path fill="#8F3B3B" d="M7.75,13.577c-3.635-1.284-4.694,4.858,1.034,1.788C14.439,12.337,9.185,10.112,7.75,13.577z"/>
<path fill="#8F3B3B" d="M20.746,7.11c-0.984-3.72-6.667-1.133-0.896,1.86C25.54,11.928,24.423,6.343,20.746,7.11z"/>
<path fill="#733838" d="M9.744,8.679c-3.771-0.832-4.086,5.384,1.242,1.645C16.245,6.637,10.752,5.071,9.744,8.679z"/>
<path fill="#733838" d="M6.157,19.032c-2.715,2.735,2.383,6.318,2.058-0.174C7.896,12.453,3.64,16.255,6.157,19.032z"/>
<path fill="#612F2F" d="M17.019,6.706c-3.777-3.216-7.758,3.804,0.446,2.653C25.554,8.229,20.263,3.129,17.019,6.706z"/>
<path fill="#693333" d="M12.303,10.863c3.567,1.45,4.853-4.67-0.961-1.842C5.604,11.814,10.743,14.278,12.303,10.863z"/>
<path fill="#693333" d="M17.364,7.238c-3.592,1.395-0.313,6.721,1.961,0.68C21.575,1.955,16.144,3.688,17.364,7.238z"/>
<path fill="#8F3B3B" d="M13.784,8.631c2.413,3.005,6.555-1.658,0.064-2.063C7.443,6.169,10.735,10.823,13.784,8.631z"/>
<path fill="#733838" d="M17.426,5.171c-2.64-2.813-6.418,2.137,0.094,2.059C23.944,7.151,20.301,2.762,17.426,5.171z"/>
<path fill="#FFB545" d="M10.943,12.797c-0.976,0.373-1.229,4.334-0.098,4.606C12.036,16.912,11.886,13.048,10.943,12.797z"/>
<path fill="#FFB545" d="M14.373,17.72c0.53-0.864-2.018-3.83-3.12-3.329C10.634,15.474,13.438,18.121,14.373,17.72z"/>
<path fill="#FFB545" d="M19.532,14.293c0.53-0.864-2.017-3.83-3.12-3.328C15.794,12.047,18.599,14.694,19.532,14.293z"/>
<path fill="#F2A024" d="M8.56,17.786c-0.946,0.445-0.852,4.39,0.304,4.57C10.016,21.778,9.526,17.963,8.56,17.786z"/>
<path fill="#FFB036" d="M21.545,11.027c-0.72-0.637-4.603,1.164-4.439,2.261C18.021,14.046,21.658,11.953,21.545,11.027z"/>
<path fill="#FFB036" d="M24.843,11.249c0.168-0.963-3.429-2.762-4.289-1.927C20.384,10.514,24.104,11.935,24.843,11.249z"/>
<path fill="#FFB036" d="M16.176,17.43c0.918-0.495,0.572-4.409-0.603-4.523C14.456,13.549,15.195,17.312,16.176,17.43z"/>
<path fill="#ED9610" d="M9.972,24.555c0.37-0.974-2.456-3.707-3.419-3.032C6.128,22.737,9.149,25.103,9.972,24.555z"/>
<path fill="#FFB036" d="M5.747,19.566c0.865,0.562,4.371-1.517,3.967-2.572C8.624,16.33,5.43,18.672,5.747,19.566z"/>
<path fill="#FFB545" d="M16.782,14.344c0.455,0.833,4.652,0.234,4.87-0.881C21.058,12.453,16.99,13.411,16.782,14.344z"/>
<path fill="#F2A024" d="M14.262,13.394c0.913,0.381,4.102-2.425,3.583-3.393C16.701,9.563,13.848,12.567,14.262,13.394z"/>
<path fill="#FFB036" d="M8.152,21.3c0.911,0.382,4.101-2.423,3.582-3.394C10.592,17.471,7.739,20.474,8.152,21.3z"/>
<path fill="#FFB545" d="M16.648,11.053c0.152,0.941,4.249,1.56,4.813,0.534C21.234,10.433,17.144,10.199,16.648,11.053z"/>
<path fill="#FFB545" d="M15.194,9.203c0.15,0.942,4.249,1.561,4.81,0.536C19.779,8.584,15.688,8.353,15.194,9.203z"/>
<path fill="#ED9610" d="M11.351,15.628c-0.588,0.755,1.751,4.169,2.886,3.882C14.93,18.557,12.311,15.41,11.351,15.628z"/>
<path fill="#FFB036" d="M8.57,24.34c0.936,0.326,3.955-2.642,3.373-3.576C10.77,20.396,8.101,23.541,8.57,24.34z"/>
<path fill="#F2A024" d="M7.183,19.278c-0.872,0.571-0.125,4.407,1.062,4.417C9.298,22.961,8.177,19.308,7.183,19.278z"/>
<path fill="#FFB545" d="M20.492,7.236c-0.734,0.727,0.894,4.259,2.073,4.022C23.44,10.336,21.485,7.063,20.492,7.236z"/>
<path fill="#FFB545" d="M20.09,11.473c0.315,0.925,4.341,0.768,4.69-0.376C24.354,9.972,20.407,10.517,20.09,11.473z"/>
<path fill="#FFB545" d="M15.216,12.767c-0.624-0.723-4.678,0.632-4.662,1.75C11.356,15.381,15.205,13.706,15.216,12.767z"/>
<path fill="#FFB545" d="M14.327,16.854c-0.962-0.38-3.548,2.526-2.858,3.512C12.666,20.795,14.887,17.691,14.327,16.854z"/>
<path fill="#ED9610" d="M13.372,15.917c0.249-0.954,4.422-1.773,4.88-0.773C17.905,16.313,13.777,16.746,13.372,15.917z"/>
<path fill="#ED9610" d="M18.2,13.666c-0.812-0.534,0.348-4.413,1.54-4.478C20.718,9.877,19.201,13.59,18.2,13.666z"/>
<path fill="#F2A024" d="M15.076,11.39c-0.062-0.958,3.749-2.905,4.516-2.103C19.628,10.474,15.739,12.047,15.076,11.39z"/>
<path fill="#FFB545" d="M11.604,17.327c0.307-0.941,4.504-1.542,4.899-0.516C16.087,17.965,11.957,18.183,11.604,17.327z"/>
<path fill="#FFB036" d="M11.163,15.022c0.308-0.941,4.502-1.542,4.897-0.516C15.646,15.66,11.517,15.876,11.163,15.022z"/>
<path fill="#FFB545" d="M8.754,23.007c-0.557-0.77,1.887-4.162,3.003-3.848C12.411,20.134,9.701,23.25,8.754,23.007z"/>
<path fill="#F2A024" d="M10.316,19.342c-0.866-0.461-0.07-4.396,1.116-4.561C12.479,15.379,11.313,19.181,10.316,19.342z"/>
<path fill="#F2A024" d="M19.094,16.215c-0.955,0.421-3.834-2.26-3.204-3.254C17.083,12.477,19.604,15.372,19.094,16.215z"/>
<path fill="#ED9610" d="M22.794,8.524c1.021-0.023,2.34,3.644,1.351,4.339C22.89,12.852,21.976,9.127,22.794,8.524z"/>
<path fill="#F2A024" d="M21.669,11.648c-0.958,0.421-3.837-2.262-3.207-3.255C19.658,7.91,22.177,10.803,21.669,11.648z"/>
<path fill="#F2A024" d="M17.24,12.815c-0.134,0.964-4.216,2.224-4.796,1.288C12.649,12.912,16.732,12.043,17.24,12.815z"/>
<path fill="#F2A024" d="M15.687,12.697c0.651,0.697-1.382,4.303-2.539,4.116C12.376,15.926,14.708,12.563,15.687,12.697z"/>
<path fill="#FFB036" d="M15.063,12.192c-0.325,0.89-4.575,0.934-4.953-0.133C10.552,10.973,14.725,11.302,15.063,12.192z"/>
<path fill="#F2A024" d="M20.942,11.333c0.65,0.699-1.38,4.302-2.536,4.116C17.632,14.561,19.965,11.197,20.942,11.333z"/>
<path fill="#FFB545" d="M23.884,9.484c0.65,0.701-1.38,4.304-2.535,4.118C20.573,12.715,22.906,9.351,23.884,9.484z"/>
<path fill="#FFB036" d="M9.931,13.74c0.954,0.295,0.937,4.248-0.216,4.613C8.556,17.955,8.97,14.068,9.931,13.74z"/>
<path fill="#ED9610" d="M8.039,15.172c1.026-0.13,2.814,3.322,1.903,4.105C8.675,19.4,7.289,15.846,8.039,15.172z"/>
<path fill="#F2A024" d="M11.674,16.839c0.971,0.242,1.184,4.175,0.05,4.599C10.537,21.1,10.729,17.215,11.674,16.839z"/>
<path fill="#ED9610" d="M15.783,9.941c0.532,0.786-2.004,4.122-3.106,3.779C12.053,12.728,14.847,9.676,15.783,9.941z"/>
<path fill="#F2A024" d="M20.222,10.812c1.025-0.131,2.814,3.321,1.903,4.104C20.858,15.04,19.472,11.484,20.222,10.812z"/>
<path fill="#FFB545" d="M18.063,13.704c0.167-0.962-3.431-2.76-4.291-1.926C13.603,12.969,17.324,14.391,18.063,13.704z"/>
<path fill="#5E9C00" d="M14.853,18.705c-0.48,0.107-0.498,1.244-0.923,1.047c-0.691-0.324-0.861,0.844-1.253-0.087
	c-0.128-0.303-1.297,1.389-1.023,0.113c0.312-1.448-1.536-0.296-0.854-1.21c1.136-1.517,0.538-0.258,0.976-1.643
	c0.408-1.29,0.48,0.342,1.176-1.175c0.577-1.257,1.409,0.976,2.196-0.037c0.611-0.785,0.68,0.419-0.021,1.16
	C14.142,17.911,16.026,18.443,14.853,18.705z"/>
<path fill="#805034" d="M15.891,14.55c0.217-0.311,0.871-0.628,1.376-0.759c0.476-0.122,1.259-0.277,2.091-0.403
	c0.127-0.021,0.162,0.167,0.29,0.148c0.106-0.014,0.005-0.191,0.112-0.206c0.527-0.065,1.109-0.123,1.617-0.145
	c0.04-0.003,0.151,0.146,0.188,0.146c0.096-0.001,0.111-0.158,0.198-0.159c0.457-0.006,0.819,0.027,0.979,0.117
	c0.308,0.173,0.845,1.617,0.748,1.876c-0.209,0.545-0.929,1.178-1.348,1.412C21.018,17.202,14.537,16.495,15.891,14.55z"/>
<path fill="#996242" d="M16.163,18.176c1.05,0.539,5.936-1.401,6.189-1.736c0.245-0.316-0.076-1.983-0.693-2.277
	c-0.089-0.048-0.363,1.456-0.403,1.305c-0.215-0.861-0.195-1.315-0.4-1.319c-0.153-0.006-0.286,0.562-0.42,1.264
	c-0.023,0.119-0.086-1.404-0.238-1.402c-0.18,0.008-1.063,0.116-1.245,0.123c-0.176,0.01-0.008,0.802-0.103,1.374
	c-0.063,0.381-0.266-1.421-0.395-1.41c-0.113,0.01-0.242,2.496-0.269,2.353c-0.26-1.355-0.39-2.316-0.504-2.302
	c-0.77,0.086-1.512,0.233-1.711,0.359C15.125,15.048,15.753,17.907,16.163,18.176z"/>
<path fill="#805034" d="M17.714,15.805c-0.257-0.315-0.988-0.266-1.429-0.149c-0.413,0.115-1.07,0.353-1.747,0.65
	c-0.104,0.048-0.026,0.284-0.129,0.333c-0.084,0.041-0.113-0.221-0.196-0.179c-0.423,0.203-0.874,0.448-1.259,0.693
	c-0.031,0.02-0.026,0.257-0.056,0.276c-0.069,0.047-0.168-0.125-0.235-0.082c-0.336,0.237-0.578,0.472-0.645,0.662
	c-0.125,0.366,0.302,2.346,0.518,2.595c0.459,0.523,0.876,0.997,1.06,0.905C18.063,19.301,19.388,17.883,17.714,15.805z"/>
<path fill="#915D3F" d="M18.945,19.233c-1.495,1.448-4.977,2.53-5.35,2.276c-0.358-0.237-0.579-2.384-0.296-3.063
	c0.039-0.103,1.089,1.507,1.031,1.312c-0.331-1.124-0.601-1.644-0.458-1.761c0.111-0.087,0.53,0.507,1.024,1.252
	c0.083,0.128-0.732-1.688-0.618-1.762c0.132-0.09,0.832-0.44,0.971-0.526c0.136-0.084,0.462,0.931,0.854,1.553
	c0.26,0.407-0.613-1.806-0.514-1.862c0.094-0.05,1.588,2.787,1.528,2.606c-0.578-1.722-1.029-2.918-0.937-2.965
	c0.609-0.309,1.231-0.537,1.447-0.496C18.555,15.978,19.317,18.878,18.945,19.233z"/>
<path fill="#805034" d="M11.324,19.901c0.31-0.286,1.014-0.923,1.474-0.927c0.43-0.007,0.224-0.326,0.949-0.237
	c0.108,0.013,0.428,0.301,0.536,0.318c0.09,0.012,0.478-0.087,0.568-0.075c0.451,0.072,0.917,0.105,0.692,0.452
	c-0.337,0.51,0.512,0.008,0.544,0.02c0.076,0.019,0.253,0.329,0.325,0.353c0.365,0.118,0.427,0.713,0.514,0.857
	c0.168,0.282,0.075,1.118-0.12,1.38c-0.407,0.557-0.771,1.009-0.975,1.022C12.912,23.285,9.372,21.715,11.324,19.901z"/>
<path fill="#996242" d="M10.399,22.263c0.601,0.896,5.08,1.105,5.433,0.802c0.337-0.286,0.321-2.155-0.038-2.661
	c-0.055-0.073-0.431,1.766-0.443,1.585c-0.062-0.892-0.034-1.76-0.194-1.822c-0.12-0.047-0.195,1.092-0.617,1.84
	c-0.07,0.127,0.276-2.139,0.15-2.174c-0.147-0.044-0.472,0.136-0.622,0.097c-0.146-0.038-0.39,1.403-0.721,2.021
	c-0.219,0.406,0.022-2.482-0.089-2.506c-0.095-0.019-0.821,1.724-0.783,1.556c0.397-1.593,0.246-1.696,0.146-1.715
	c-0.656-0.112-1,0.502-1.212,0.588C10.489,20.249,10.19,21.848,10.399,22.263z"/>
<path fill="#805034" d="M23.038,23.264c-0.126,0.465-0.43,1.513-0.905,1.849c-0.441,0.317-0.011,0.44-0.828,0.888
	c-0.121,0.068-0.646,0.052-0.769,0.117c-0.104,0.052-0.439,0.418-0.543,0.471c-0.517,0.266-1.024,0.573-1.023,0.115
	c0.003-0.674-0.538,0.362-0.578,0.379c-0.091,0.037-0.487-0.1-0.579-0.067c-0.46,0.163-0.925-0.299-1.111-0.357
	c-0.368-0.118-0.835-0.896-0.808-1.259c0.047-0.77,0.12-1.416,0.322-1.574C19.103,21.531,23.844,20.313,23.038,23.264z"/>
<path fill="#915D3F" d="M22.405,20.589c-1.228-0.328-6.028,2.722-6.189,3.235c-0.155,0.484,1.121,2.065,1.838,2.234
	c0.106,0.027-0.745-1.81-0.612-1.666c0.666,0.711,1.225,1.472,1.434,1.408c0.159-0.045-0.53-1.067-0.597-2.007
	c-0.015-0.159,1.153,2.015,1.311,1.956c0.181-0.068,0.398-0.457,0.581-0.534c0.175-0.07-0.545-1.472-0.615-2.236
	c-0.049-0.502,1.651,2.128,1.783,2.067c0.112-0.052-0.309-2.059-0.236-1.887c0.663,1.64,0.892,1.62,1.007,1.563
	c0.76-0.379,0.701-1.149,0.863-1.374C23.672,22.366,22.904,20.792,22.405,20.589z"/>
<path fill="#805034" d="M8.066,24.424c-0.118-0.438-0.011-1.707,0.212-2.008c0.212-0.281,0.598-0.697,1.043-1.094
	c0.065-0.062,0.25,0.155,0.319,0.096c0.059-0.046,0.062-0.25,0.12-0.295c0.293-0.23,0.371-0.078,0.688-0.257
	c0.025-0.013,0.363-0.053,0.389-0.068c0.058-0.03,0.279-0.058,0.337-0.085c0.296-0.14,0.66,0.492,0.737,0.347
	c0.144-0.281,1.515,0.866,1.666,1.204c0.328,0.718,0.523,1.999,0.417,2.126C11.715,27.152,9.711,26.203,8.066,24.424z"/>
<path fill="#915D3F" d="M10.896,26.336c1.157,0.344,3.312-1.533,3.199-2.009c-0.106-0.452-1.896-1.966-2.563-2.146
	c-0.096-0.025,1.002,1.864,0.85,1.689c-0.881-0.972-1.248-1.522-1.391-1.47c-0.106,0.038,0.291,0.762,0.798,1.646
	c0.084,0.148-1.256-1.667-1.35-1.617c-0.114,0.056-0.608,0.44-0.723,0.508c-0.107,0.063,0.677,0.968,1.101,1.684
	c0.281,0.475-1.385-1.636-1.463-1.585c-0.067,0.044,1.967,3.077,1.825,2.91c-1.323-1.549-2.23-2.677-2.295-2.626
	c-0.436,0.331-0.808,0.72-0.829,0.931C7.96,25.152,10.397,26.13,10.896,26.336z"/>
<path fill="#805034" d="M23.245,10.159c0.376-0.096,1.474,0.004,1.734,0.19c0.241,0.176,0.602,0.497,0.943,0.865
	c0.053,0.055-0.135,0.204-0.083,0.262c0.039,0.048,0.214,0.052,0.253,0.099c0.199,0.242,0.067,0.306,0.224,0.568
	c0.012,0.021,0.044,0.298,0.057,0.318c0.027,0.047,0.051,0.229,0.074,0.278c0.119,0.243-0.426,0.535-0.3,0.601
	c0.244,0.121-0.749,1.233-1.039,1.355c-0.622,0.265-1.729,0.414-1.838,0.325C20.887,13.127,21.71,11.492,23.245,10.159z"/>
<path fill="#915D3F" d="M21.591,12.464c-0.297,0.945,1.323,2.729,1.733,2.64c0.392-0.083,1.7-1.538,1.854-2.081
	c0.021-0.079-1.61,0.804-1.461,0.681c0.842-0.713,1.317-1.012,1.272-1.128c-0.036-0.089-0.66,0.234-1.422,0.641
	c-0.128,0.068,1.44-1.015,1.396-1.094c-0.049-0.094-0.381-0.504-0.438-0.597c-0.055-0.09-0.837,0.545-1.455,0.889
	c-0.408,0.227,1.413-1.122,1.369-1.188c-0.038-0.056-2.657,1.586-2.514,1.475c1.34-1.073,2.313-1.808,2.268-1.862
	c-0.284-0.359-0.62-0.667-0.802-0.688C22.616,10.063,21.771,12.057,21.591,12.464z"/>
<path fill="#805034" d="M16.641,19.528c-0.342,0.147-0.789,0.732-1.02,1.206c-0.22,0.446-0.532,1.193-0.832,1.994
	c-0.047,0.121,0.125,0.196,0.083,0.319c-0.036,0.104-0.187-0.035-0.223,0.069c-0.177,0.509-0.354,1.074-0.482,1.574
	c-0.012,0.041,0.109,0.184,0.101,0.223c-0.021,0.093-0.176,0.076-0.197,0.16c-0.1,0.453-0.147,0.82-0.094,0.999
	c0.1,0.342,1.373,1.184,1.643,1.143c0.569-0.092,1.328-0.675,1.642-1.04C18.101,25.188,18.799,18.596,16.641,19.528z"/>
<path fill="#996242" d="M20.068,20.568c0.294,1.157-2.607,5.603-2.982,5.784c-0.356,0.178-1.89-0.496-2.044-1.171
	c-0.024-0.101,1.479-0.055,1.342-0.125c-0.782-0.396-1.222-0.474-1.184-0.679c0.028-0.152,0.601-0.165,1.305-0.149
	c0.119,0.002-1.333-0.385-1.296-0.534c0.044-0.177,0.335-1.031,0.38-1.211c0.049-0.172,0.772,0.162,1.343,0.189
	c0.378,0.017-1.309-0.565-1.271-0.691c0.033-0.111,2.448,0.289,2.316,0.231c-1.246-0.545-2.142-0.878-2.105-0.989
	c0.249-0.745,0.547-1.454,0.712-1.627C17.281,18.872,19.895,20.102,20.068,20.568z"/>
<path fill="#805034" d="M17.15,20.346c-0.214-0.284-0.042-1.004,0.134-1.428c0.167-0.398,0.479-1.026,0.845-1.667
	c0.058-0.098,0.237,0.002,0.298-0.097c0.048-0.08-0.161-0.134-0.114-0.212c0.243-0.398,0.527-0.821,0.798-1.179
	c0.021-0.03,0.217,0,0.236-0.027c0.053-0.065-0.073-0.181-0.025-0.242c0.255-0.31,0.491-0.527,0.658-0.575
	c0.325-0.089,1.874,0.521,2.039,0.758c0.35,0.504,0.663,0.961,0.554,1.134C19.958,21.021,18.556,22.198,17.15,20.346z"/>
<path fill="#915D3F" d="M19.747,21.889c1.453-1.343,2.968-4.684,2.825-5.078c-0.131-0.375-1.854-0.798-2.462-0.583
	c-0.091,0.03,1.042,1.22,0.895,1.146c-0.867-0.435-1.245-0.751-1.367-0.619c-0.089,0.102,0.322,0.573,0.846,1.13
	c0.09,0.097-1.254-0.884-1.337-0.775c-0.098,0.12-0.509,0.781-0.604,0.909c-0.095,0.126,0.683,0.544,1.121,0.993
	c0.287,0.294-1.373-0.78-1.438-0.686c-0.056,0.088,2.006,1.835,1.868,1.759c-1.312-0.732-2.213-1.294-2.268-1.207
	c-0.364,0.574-0.664,1.168-0.669,1.385C17.142,21.193,19.386,22.221,19.747,21.889z"/>
<path fill="#68AB00" d="M20.331,15.231c0.347-0.368-0.321-1.23,0.161-1.333c0.786-0.171,0.23-1.148,1.124-0.687
	c0.291,0.15,0.273-1.814,0.806-0.696c0.603,1.27,1.492-0.698,1.456,0.393c-0.057,1.817-0.305,0.517,0.155,1.814
	c0.427,1.211-0.616,0.031-0.299,1.587c0.262,1.284-1.792,0.112-1.855,1.341c-0.049,0.952-0.834,0.094-0.679-0.881
	C21.417,15.403,19.484,16.132,20.331,15.231z"/>
<path fill="#77B516" d="M15.188,20.648c0.168,0.439,1.287,0.116,1.146,0.59c-0.233,0.774,0.938,0.591,0.074,1.253
	c-0.283,0.217,1.527,0.851,0.239,0.966c-1.461,0.131-0.097,1.593-1.079,1.2c-1.637-0.654-0.322-0.45-1.738-0.46
	c-1.319-0.012,0.274-0.572-1.304-0.799c-1.31-0.185,0.779-1.671-0.316-2.138c-0.85-0.359,0.326-0.791,1.141-0.328
	C14.495,21.585,14.781,19.578,15.188,20.648z"/>
<path fill="#77B516" d="M22.879,21.386c-0.287,0.415,0.516,1.146,0.051,1.326c-0.76,0.291-0.047,1.151-1.013,0.845
	c-0.317-0.101,0.014,1.81-0.698,0.807c-0.808-1.143-1.384,0.914-1.522-0.153c-0.23-1.778,0.225-0.55-0.443-1.74
	c-0.619-1.111,0.612-0.13,0.047-1.59c-0.469-1.21,1.775-0.395,1.645-1.602c-0.104-0.937,0.82-0.222,0.82,0.748
	C21.765,21.393,23.583,20.375,22.879,21.386z"/>
<path fill="#805034" d="M11.026,22.555c-0.251,0.402-0.568,1.716-0.465,2.089c0.099,0.35,0.311,0.894,0.582,1.432
	c0.041,0.084,0.275-0.075,0.316,0.006c0.04,0.065-0.023,0.271,0.015,0.334c0.188,0.327,0.309,0.199,0.534,0.479
	c0.018,0.021,0.312,0.169,0.328,0.191c0.043,0.05,0.231,0.148,0.276,0.194c0.221,0.235,0.753-0.289,0.776-0.117
	c0.038,0.332,1.646-0.389,1.893-0.68c0.53-0.616,1.126-1.848,1.069-2.008C15.203,20.97,13.088,21.289,11.026,22.555z"/>
<path fill="#915D3F" d="M14.199,21.529c1.154,0.022,2.48,2.596,2.224,3.042c-0.245,0.421-2.35,1.375-3.006,1.344
	c-0.096-0.004,1.508-1.558,1.314-1.433c-1.11,0.701-1.621,1.139-1.731,1.04c-0.084-0.072,0.511-0.675,1.256-1.403
	c0.124-0.122-1.675,1.28-1.745,1.201c-0.082-0.096-0.404-0.642-0.482-0.743c-0.078-0.099,0.923-0.761,1.54-1.347
	c0.406-0.387-1.78,1.207-1.835,1.133c-0.047-0.068,2.774-2.475,2.596-2.352c-1.699,1.14-2.884,1.986-2.926,1.913
	c-0.285-0.469-0.49-0.981-0.443-1.2C11.166,21.789,13.681,21.58,14.199,21.529z"/>
<path fill="#805034" d="M23.577,13.925c-0.374,0.235-1.212,0.782-1.386,1.273c-0.161,0.459-0.378,0.134-0.562,0.939
	c-0.027,0.121,0.121,0.557,0.097,0.68c-0.021,0.102-0.255,0.483-0.274,0.584c-0.099,0.509-0.236,1.017,0.164,0.891
	c0.588-0.19-0.18,0.553-0.183,0.591c-0.009,0.088,0.21,0.379,0.208,0.464c-0.025,0.432,0.497,0.694,0.599,0.833
	c0.196,0.278,0.996,0.451,1.308,0.328c0.657-0.252,1.207-0.494,1.293-0.708C26.105,16.744,25.95,12.428,23.577,13.925z"/>
<path fill="#996242" d="M26.08,13.713c0.603,0.938-0.831,5.811-1.239,6.087c-0.384,0.266-2.092-0.364-2.428-0.919
	c-0.047-0.082,1.774,0.123,1.616,0.048c-0.797-0.359-1.604-0.614-1.601-0.807c0.001-0.146,1.07,0.147,1.909-0.058
	c0.143-0.032-2.059-0.409-2.048-0.557c0.014-0.17,0.297-0.459,0.315-0.635c0.017-0.168,1.429,0.046,2.114-0.106
	c0.456-0.099-2.284-0.794-2.264-0.921c0.018-0.107,1.877-0.311,1.71-0.325c-1.605-0.1-1.646-0.299-1.625-0.41
	c0.135-0.742,0.825-0.907,0.979-1.105C24.2,13.144,25.772,13.35,26.08,13.713z"/>
<path fill="#805034" d="M24.396,18.485c-0.344-0.197-1.509-0.385-1.856-0.263c-0.325,0.114-0.839,0.348-1.353,0.634
	c-0.078,0.042,0.047,0.243-0.031,0.288c-0.063,0.039-0.244,0-0.307,0.037c-0.313,0.197-0.204,0.295-0.479,0.52
	c-0.021,0.018-0.179,0.296-0.201,0.313c-0.048,0.041-0.154,0.222-0.199,0.264c-0.232,0.217,0.196,0.662,0.038,0.694
	c-0.303,0.059,0.214,1.459,0.458,1.661c0.517,0.435,1.582,0.879,1.733,0.818C25.481,22.146,25.373,20.256,24.396,18.485z"/>
<path fill="#915D3F" d="M25.057,21.28c-0.118,1.046-2.57,2.44-2.951,2.241c-0.361-0.189-1.05-2.024-0.966-2.617
	c0.013-0.088,1.287,1.245,1.189,1.08c-0.542-0.953-0.896-1.381-0.795-1.488c0.072-0.083,0.569,0.41,1.167,1.029
	c0.101,0.104-1.021-1.42-0.942-1.487c0.092-0.083,0.615-0.414,0.715-0.493c0.097-0.077,0.611,0.777,1.093,1.291
	c0.317,0.34-0.944-1.521-0.872-1.576c0.065-0.046,2.012,2.327,1.915,2.173c-0.892-1.452-1.561-2.459-1.489-2.504
	c0.45-0.294,0.932-0.519,1.125-0.491C25.081,18.554,25.056,20.814,25.057,21.28z"/>
<path fill="#FFE1BD" d="M24.655,8.429c-0.127,0.254-0.794,0.83-0.91,0.941c4.104,6.89,0.323,13.851-3.414,16.003
	c-3.341,1.917-10.095,1.632-13.302-2.449c-0.116,0.196-0.737,0.639-0.85,0.721c3.758,4.531,11.134,4.994,14.792,2.81
	C27.665,22.462,28.33,14.363,24.655,8.429z"/>
<path fill="#FFE1BD" d="M13.258,18.574c0.841,0.249,1.659,0.063,2.418,0.9c0.086,0.099,0.594-0.787,0.418-0.969
	c-0.766-0.779-1.488-0.619-2.376-0.91C13.57,17.923,13.417,18.25,13.258,18.574z"/>
<path fill="#FFE1BD" d="M18.075,17.899c0.494-0.532,0.573-1.164,1.59-1.486c0.117-0.039-0.557-0.625-0.779-0.547
	c-0.966,0.342-1.039,0.896-1.585,1.454C17.562,17.509,17.824,17.701,18.075,17.899z"/>
<path fill="#FFE1BD" d="M17.599,20.688c0.117,0.646,0.6,0.987,0.191,1.984c-0.046,0.111,0.898-0.197,0.981-0.417
	c0.358-0.96-0.061-1.265-0.166-1.966C18.271,20.428,17.934,20.563,17.599,20.688z"/>
<path fill="#FFE1BD" d="M14.924,25.723c1.071-0.36,1.676-1.062,3.266-0.89c0.183,0.022-0.23-1.044-0.583-1.071
	c-1.539-0.125-2.071,0.492-3.232,0.85C14.567,24.982,14.753,25.35,14.924,25.723z"/>
<path fill="#FFE1BD" d="M18.717,12.798c0.843,0.249,1.659,0.063,2.421,0.901c0.084,0.096,0.592-0.791,0.417-0.971
	c-0.766-0.779-1.487-0.617-2.377-0.91C19.03,12.146,18.877,12.473,18.717,12.798z"/>
<path fill="#FFE1BD" d="M23.546,10.983c-0.087,0.681,0.248,1.162-0.421,2.034c-0.076,0.1,0.879,0.072,1.021-0.123
	c0.615-0.85,0.324-1.277,0.438-2.006C24.239,10.925,23.889,10.961,23.546,10.983z"/>
<path fill="#FFE1BD" d="M11.81,22.066c-0.682,0.104-1.164,0.574-2.037,0.15c-0.102-0.051-0.073,0.896,0.124,0.982
	c0.853,0.378,1.279-0.033,2.01-0.123C11.87,22.741,11.834,22.401,11.81,22.066z"/>
<path fill="#FFE1BD" d="M23.601,15.944c-0.539,1.013-0.459,1.858-1.8,2.978c-0.153,0.127,0.977,0.396,1.266,0.143
	c1.264-1.106,1.194-1.852,1.803-2.933C24.439,16.076,24.017,16.017,23.601,15.944z"/>
</svg>
