<?xml version="1.0" encoding="utf-8"?>
<!-- Generator: Adobe Illustrator 15.0.0, SVG Export Plug-In . SVG Version: 6.00 Build 0)  -->
<!DOCTYPE svg PUBLIC "-//W3C//DTD SVG 1.1//EN" "http://www.w3.org/Graphics/SVG/1.1/DTD/svg11.dtd" [
	<!ENTITY ns_flows "http://ns.adobe.com/Flows/1.0/">
	<!ENTITY ns_extend "http://ns.adobe.com/Extensibility/1.0/">
	<!ENTITY ns_ai "http://ns.adobe.com/AdobeIllustrator/10.0/">
	<!ENTITY ns_graphs "http://ns.adobe.com/Graphs/1.0/">
]>
<svg version="1.1" id="Layer_1" xmlns:x="&ns_extend;" xmlns:i="&ns_ai;" xmlns:graph="&ns_graphs;"
	 xmlns="http://www.w3.org/2000/svg" xmlns:xlink="http://www.w3.org/1999/xlink" xmlns:a="http://ns.adobe.com/AdobeSVGViewerExtensions/3.0/"
	 x="0px" y="0px" width="64px" height="64px" viewBox="0 0 64 64" enable-background="new 0 0 64 64" xml:space="preserve">
<linearGradient id="SVGID_1_" gradientUnits="userSpaceOnUse" x1="25.7852" y1="56.1553" x2="38.2148" y2="56.1553">
	<stop  offset="0" style="stop-color:#91632E"/>
	<stop  offset="0.1992" style="stop-color:#8C5F2C"/>
	<stop  offset="0.4407" style="stop-color:#7D5425"/>
	<stop  offset="0.7042" style="stop-color:#65421B"/>
	<stop  offset="0.9816" style="stop-color:#43290C"/>
	<stop  offset="1" style="stop-color:#40270B"/>
	<a:midPointStop  offset="0" style="stop-color:#91632E"/>
	<a:midPointStop  offset="0.6667" style="stop-color:#91632E"/>
	<a:midPointStop  offset="1" style="stop-color:#40270B"/>
</linearGradient>
<path fill="url(#SVGID_1_)" d="M36.889,49.311h-9.775c0,0-1.328,7.052-1.328,10.64c0,4.066,12.43,4.066,12.43,0
	C38.215,57.801,36.889,49.311,36.889,49.311z"/>
<radialGradient id="SVGID_2_" cx="33.667" cy="35.918" r="23.6377" gradientTransform="matrix(1.0023 0 0 0.9836 -1.7447 7.613)" gradientUnits="userSpaceOnUse">
	<stop  offset="0" style="stop-color:#83B52D"/>
	<stop  offset="0.2551" style="stop-color:#72A127"/>
	<stop  offset="0.7765" style="stop-color:#466C17"/>
	<stop  offset="1" style="stop-color:#325410"/>
	<a:midPointStop  offset="0" style="stop-color:#83B52D"/>
	<a:midPointStop  offset="0.5455" style="stop-color:#83B52D"/>
	<a:midPointStop  offset="1" style="stop-color:#325410"/>
</radialGradient>
<path fill="url(#SVGID_2_)" d="M61,55.685c0,0-12.177-3.648-28.928-29c-1.654-2.503-7.959,17.875-29.072,29
	c0,0,6.26,1.492,17.16-1.172c1.127-0.273-1.784,3.621-1.784,3.621s7.91-3.122,10.804-2.936c2.462,0.158,8.586,4.213,8.586,4.213
	s2.03-5.111,3.006-4.689c3.556,1.547,9.789,2.855,9.789,2.855s-4.246-3.568-3.098-3.568C48.609,54.009,61,55.685,61,55.685z"/>
<radialGradient id="SVGID_3_" cx="33.667" cy="27.9165" r="24.1748" gradientTransform="matrix(1.0023 0 0 0.9836 -1.7447 7.613)" gradientUnits="userSpaceOnUse">
	<stop  offset="0" style="stop-color:#92C932"/>
	<stop  offset="0.2313" style="stop-color:#8EC531"/>
	<stop  offset="0.4674" style="stop-color:#83B92C"/>
	<stop  offset="0.7058" style="stop-color:#6FA425"/>
	<stop  offset="0.9444" style="stop-color:#54881C"/>
	<stop  offset="1" style="stop-color:#4D8019"/>
	<a:midPointStop  offset="0" style="stop-color:#92C932"/>
	<a:midPointStop  offset="0.703" style="stop-color:#92C932"/>
	<a:midPointStop  offset="1" style="stop-color:#4D8019"/>
</radialGradient>
<path fill="url(#SVGID_3_)" d="M61,49.341c0,0-12.177-4.022-28.928-31.95C30.418,14.632,24.113,37.082,3,49.341
	c0,0,6.26,1.643,17.16-1.291c1.127-0.304-1.784,3.988-1.784,3.988s7.91-3.438,10.804-3.234c2.462,0.178,8.288,4.183,8.288,4.183
	s0.987-5.06,1.962-4.593c3.557,1.705,11.131,3.031,11.131,3.031s-4.246-3.931-3.098-3.931C48.609,47.494,61,49.341,61,49.341z"/>
<radialGradient id="SVGID_4_" cx="33.6689" cy="23.5845" r="19.5372" gradientTransform="matrix(1.0023 0 0 0.9836 -1.7447 7.613)" gradientUnits="userSpaceOnUse">
	<stop  offset="0" style="stop-color:#83B52D"/>
	<stop  offset="0.2551" style="stop-color:#72A127"/>
	<stop  offset="0.7765" style="stop-color:#466C17"/>
	<stop  offset="1" style="stop-color:#325410"/>
	<a:midPointStop  offset="0" style="stop-color:#83B52D"/>
	<a:midPointStop  offset="0.5455" style="stop-color:#83B52D"/>
	<a:midPointStop  offset="1" style="stop-color:#325410"/>
</radialGradient>
<path fill="url(#SVGID_4_)" d="M9.349,41.862c0,0,9.638-3.336,22.724-26.491c1.293-2.288,6.089,16.327,22.582,26.491
	c0,0-4.458,1.48-12.975-0.951c-0.88-0.252,0.228,3.578,0.228,3.578s-5.315-3.242-7.575-3.072c-1.924,0.146-7.047,5.027-7.047,5.027
	s-2.163-5.857-2.926-5.471c-2.776,1.412-6.855,2.616-6.855,2.616s3.316-3.259,2.42-3.259C19.028,40.331,9.349,41.862,9.349,41.862z"
	/>
<radialGradient id="SVGID_5_" cx="33.6689" cy="17.373" r="19.6232" gradientTransform="matrix(1.0023 0 0 0.9836 -1.7447 7.613)" gradientUnits="userSpaceOnUse">
	<stop  offset="0" style="stop-color:#92C932"/>
	<stop  offset="0.2313" style="stop-color:#8EC531"/>
	<stop  offset="0.4674" style="stop-color:#83B92C"/>
	<stop  offset="0.7058" style="stop-color:#6FA425"/>
	<stop  offset="0.9444" style="stop-color:#54881C"/>
	<stop  offset="1" style="stop-color:#4D8019"/>
	<a:midPointStop  offset="0" style="stop-color:#92C932"/>
	<a:midPointStop  offset="0.703" style="stop-color:#92C932"/>
	<a:midPointStop  offset="1" style="stop-color:#4D8019"/>
</radialGradient>
<path fill="url(#SVGID_5_)" d="M9.349,35.548c0,0,9.638-3.336,22.724-26.494c1.293-2.287,6.089,16.33,22.582,26.494
	c0,0-4.89,1.363-13.403-1.068c-0.88-0.254,1.394,3.305,1.394,3.305s-4.873-2.64-7.133-2.469c-1.924,0.146-7.468,5.227-7.468,5.227
	s-1.085-6.168-1.846-5.779c-2.779,1.414-8.694,2.512-8.694,2.512s3.316-3.258,2.42-3.258C19.028,34.017,9.349,35.548,9.349,35.548z"
	/>
<radialGradient id="SVGID_6_" cx="34.1699" cy="14.1089" r="15.554" gradientTransform="matrix(1.0023 0 0 0.9836 -1.7447 7.613)" gradientUnits="userSpaceOnUse">
	<stop  offset="0" style="stop-color:#83B52D"/>
	<stop  offset="0.2551" style="stop-color:#72A127"/>
	<stop  offset="0.7765" style="stop-color:#466C17"/>
	<stop  offset="1" style="stop-color:#325410"/>
	<a:midPointStop  offset="0" style="stop-color:#83B52D"/>
	<a:midPointStop  offset="0.5455" style="stop-color:#83B52D"/>
	<a:midPointStop  offset="1" style="stop-color:#325410"/>
</radialGradient>
<path fill="url(#SVGID_6_)" d="M51.499,29.326c0,0-8.454-2.352-19.427-18.682c-1.083-1.61-4.735,11.516-18.564,18.682
	c0,0,4.1,0.961,11.24-0.753c0.736-0.179-1.17,2.332-1.17,2.332s5.519-1.829,7.415-1.708c1.611,0.102,5.607,3.277,5.607,3.277
	s0.843-3.705,1.481-3.431c2.329,0.996,6.577,1.5,6.577,1.5s-2.779-2.297-2.029-2.297C43.383,28.246,51.499,29.326,51.499,29.326z"/>
<radialGradient id="SVGID_7_" cx="34.1699" cy="9.0703" r="14.9771" gradientTransform="matrix(1.0023 0 0 0.9836 -1.7447 7.613)" gradientUnits="userSpaceOnUse">
	<stop  offset="0" style="stop-color:#92C932"/>
	<stop  offset="0.2313" style="stop-color:#8EC531"/>
	<stop  offset="0.4674" style="stop-color:#83B92C"/>
	<stop  offset="0.7058" style="stop-color:#6FA425"/>
	<stop  offset="0.9444" style="stop-color:#54881C"/>
	<stop  offset="1" style="stop-color:#4D8019"/>
	<a:midPointStop  offset="0" style="stop-color:#92C932"/>
	<a:midPointStop  offset="0.703" style="stop-color:#92C932"/>
	<a:midPointStop  offset="1" style="stop-color:#4D8019"/>
</radialGradient>
<path fill="url(#SVGID_7_)" d="M50.671,24.574c0,0-8.104-2.353-18.599-18.681c-1.035-1.613-4.51,11.514-17.737,18.681
	c0,0,3.92,0.96,10.751-0.757c0.703-0.175-1.467,3.496-1.467,3.496s5.851-2.976,7.66-2.856c1.544,0.103,4.238,2.856,4.238,2.856
	s1.03-3.566,1.641-3.292c2.227,0.994,6.973,1.771,6.973,1.771s-2.66-2.299-1.941-2.299C42.91,23.494,50.671,24.574,50.671,24.574z"
	/>
<radialGradient id="SVGID_8_" cx="33.668" cy="5.6318" r="10.7522" gradientTransform="matrix(1.0023 0 0 0.9836 -1.7447 7.613)" gradientUnits="userSpaceOnUse">
	<stop  offset="0" style="stop-color:#83B52D"/>
	<stop  offset="0.2551" style="stop-color:#72A127"/>
	<stop  offset="0.7765" style="stop-color:#466C17"/>
	<stop  offset="1" style="stop-color:#325410"/>
	<a:midPointStop  offset="0" style="stop-color:#83B52D"/>
	<a:midPointStop  offset="0.5455" style="stop-color:#83B52D"/>
	<a:midPointStop  offset="1" style="stop-color:#325410"/>
</radialGradient>
<path fill="url(#SVGID_8_)" d="M19.351,18.904c0,0,5.414-1.76,12.722-13.989c0.723-1.205,3.368,8.624,12.579,13.989
	c0,0-1.238,0.554-5.992-0.729c-0.492-0.132-0.714,1.908-0.714,1.908s-2.273-1.999-3.536-1.908c-1.074,0.074-4.199,3.318-4.199,3.318
	s-1.024-3.208-1.451-3.006c-1.551,0.749-5.158,2.362-5.158,2.362s2.156-2.752,1.655-2.752
	C24.756,18.097,19.351,18.904,19.351,18.904z"/>
<radialGradient id="SVGID_9_" cx="33.668" cy="1.249" r="9.9472" gradientTransform="matrix(1.0023 0 0 1.9672 -1.7447 6.3844)" gradientUnits="userSpaceOnUse">
	<stop  offset="0" style="stop-color:#92C932"/>
	<stop  offset="0.2313" style="stop-color:#8EC531"/>
	<stop  offset="0.4674" style="stop-color:#83B92C"/>
	<stop  offset="0.7058" style="stop-color:#6FA425"/>
	<stop  offset="0.9444" style="stop-color:#54881C"/>
	<stop  offset="1" style="stop-color:#4D8019"/>
	<a:midPointStop  offset="0" style="stop-color:#92C932"/>
	<a:midPointStop  offset="0.703" style="stop-color:#92C932"/>
	<a:midPointStop  offset="1" style="stop-color:#4D8019"/>
</radialGradient>
<path fill="url(#SVGID_9_)" d="M20.385,15.088c0,0,4.978-1.759,11.688-13.987c0.664-1.205,3.087,8.622,11.545,13.987
	c0,0-1.17,0.358-5.535-0.926c-0.45-0.133-0.624,2.11-0.624,2.11s-2.624-1.804-3.783-1.715c-0.984,0.08-2.947,2.128-2.947,2.128
	s-1.313-2.213-1.701-2.011c-1.426,0.747-4.458,1.328-4.458,1.328s1.699-1.72,1.239-1.72C25.349,14.281,20.385,15.088,20.385,15.088z
	"/>
</svg>
