<?xml version="1.0" encoding="utf-8"?>
<!-- Generator: Adobe Illustrator 15.0.0, SVG Export Plug-In . SVG Version: 6.00 Build 0)  -->
<!DOCTYPE svg PUBLIC "-//W3C//DTD SVG 1.1//EN" "http://www.w3.org/Graphics/SVG/1.1/DTD/svg11.dtd" [
	<!ENTITY ns_flows "http://ns.adobe.com/Flows/1.0/">
	<!ENTITY ns_extend "http://ns.adobe.com/Extensibility/1.0/">
	<!ENTITY ns_ai "http://ns.adobe.com/AdobeIllustrator/10.0/">
	<!ENTITY ns_graphs "http://ns.adobe.com/Graphs/1.0/">
]>
<svg version="1.1" id="Layer_1" xmlns:x="&ns_extend;" xmlns:i="&ns_ai;" xmlns:graph="&ns_graphs;"
	 xmlns="http://www.w3.org/2000/svg" xmlns:xlink="http://www.w3.org/1999/xlink" xmlns:a="http://ns.adobe.com/AdobeSVGViewerExtensions/3.0/"
	 x="0px" y="0px" width="64px" height="64px" viewBox="0 0 64 64" enable-background="new 0 0 64 64" xml:space="preserve">
<path fill="#1A1626" d="M64,49c0,1.579-1.066,13-5.333,13H5.333C1.066,62,0,50.579,0,49H64z"/>
<polygon fill="#B00505" points="57.6,11.083 6.4,11.083 1.066,51.167 62.934,51.167 "/>
<path fill="#E81C27" d="M60.434,51.167l-1.465-13.015C58.836,36.969,57.767,36,56.594,36h-22.46
	C34.134,36,28.888,58.344,60.434,51.167z"/>
<path fill="#E81C27" d="M9.6,16.499c-1.173,0-2.241,0.97-2.375,2.152L5.761,29.499h52.235l-1.221-10.848
	c-0.132-1.183-1.202-2.152-2.375-2.152H9.6z"/>
<path fill="#CFD8DD" d="M29.331,34.127c1.5-1.303,5.93-1.9,8.002,0.451v16.589H1.066l2.439-16.25c0,0,2.942-3.548,10.268-0.79
	c1.866-2.035,4.472-1.839,7.41-0.149C23.85,32.363,27.203,32.947,29.331,34.127z"/>
<path fill="#302C3B" d="M17.963,15.852v4.335c0,1.194,0,2.167,3.199,2.167c3.192,0,3.2-0.973,3.2-2.167v-4.335H17.963z"/>
<path fill="#FFFFFF" d="M21.162,13.686c-2.191,0-3.199,0.971-3.199,2.166c0,1.196,0,2.167,3.199,2.167c3.192,0,3.2-0.971,3.2-2.167
	C24.362,14.656,23.3,13.686,21.162,13.686z"/>
<polygon fill="#F9C802" points="21.162,14.769 19.563,15.852 21.162,16.936 22.763,15.852 "/>
<path fill="#302C3B" d="M16.896,22.354v4.332c0,1.195,0,2.168,3.2,2.168c3.191,0,3.2-0.973,3.2-2.168v-4.332H16.896z"/>
<path fill="#FFFFFF" d="M20.096,20.187c-2.191,0-3.2,0.971-3.2,2.167c0,1.194,0,2.166,3.2,2.166c3.191,0,3.2-0.972,3.2-2.166
	C23.296,21.157,22.233,20.187,20.096,20.187z"/>
<polygon fill="#F9C802" points="20.096,21.27 18.496,22.354 20.096,23.436 21.696,22.354 "/>
<path fill="#302C3B" d="M9.775,15.852v4.335c0,1.194,0,2.167,3.199,2.167c3.192,0,3.2-0.973,3.2-2.167v-4.335H9.775z"/>
<path fill="#FFFFFF" d="M12.975,13.686c-2.191,0-3.199,0.971-3.199,2.166c0,1.196,0,2.167,3.199,2.167c3.192,0,3.2-0.971,3.2-2.167
	C16.175,14.656,15.112,13.686,12.975,13.686z"/>
<polygon fill="#F9C802" points="12.975,14.769 11.375,15.852 12.975,16.936 14.575,15.852 "/>
<path fill="#302C3B" d="M8.708,22.354v4.332c0,1.195,0,2.168,3.2,2.168c3.191,0,3.2-0.973,3.2-2.168v-4.332H8.708z"/>
<path fill="#FFFFFF" d="M11.908,20.187c-2.191,0-3.2,0.971-3.2,2.167c0,1.194,0,2.166,3.2,2.166c3.191,0,3.2-0.972,3.2-2.166
	C15.108,21.157,14.046,20.187,11.908,20.187z"/>
<polygon fill="#F9C802" points="11.908,21.27 10.309,22.354 11.908,23.436 13.509,22.354 "/>
<path fill="#F2F5F7" d="M25.595,36.572c-0.688-0.894-5.087,0.412-5.058,1.729C21.422,39.378,25.595,37.679,25.595,36.572z"/>
<path fill="#F2F5F7" d="M27.063,36.596c0.048-1.135-4.133-3.041-4.952-2.02C22.096,35.98,26.356,37.438,27.063,36.596z"/>
<path fill="#E6E9EB" d="M24.86,33.244c-0.689-0.894-5.089,0.413-5.059,1.73C20.687,36.052,24.86,34.352,24.86,33.244z"/>
<path fill="#F2F5F7" d="M6.791,49.012c1.086,0.265,3.733-3.538,2.905-4.549C8.343,44.181,6.113,48.145,6.791,49.012z"/>
<path fill="#F2F5F7" d="M19.223,38.936c-0.393-1.064-4.975-1.16-5.335,0.104C14.411,40.335,18.896,39.992,19.223,38.936z"/>
<path fill="#E6E9EB" d="M21.762,37c-0.027-1.135-4.327-2.751-5.076-1.675C16.764,36.725,21.111,37.89,21.762,37z"/>
<path fill="#F2F5F7" d="M32.779,33.673c-0.493-1.005-4.533-0.523-4.677,0.774C28.742,35.666,32.637,34.76,32.779,33.673z"/>
<path fill="#F2F5F7" d="M26.623,42.11c0.617-0.945-2-4.77-3.22-4.321C22.678,38.981,25.589,42.463,26.623,42.11z"/>
<path fill="#E6E9EB" d="M25.963,41.96c1.041-0.407,1.092-5.065-0.16-5.417C24.532,37.089,24.918,41.638,25.963,41.96z"/>
<path fill="#E6E9EB" d="M7.309,37.099c0.896,0.676,4.793-1.782,4.413-3.041C10.587,33.263,7.014,36.035,7.309,37.099z"/>
<path fill="#E6E9EB" d="M28.363,45.698c1.039-0.42,1.043-5.074-0.207-5.415C26.889,40.842,27.316,45.388,28.363,45.698z"/>
<path fill="#E6E9EB" d="M28.908,43.783c1.11,0.113,3.232-4.012,2.28-4.901C29.811,38.781,28.121,43.014,28.908,43.783z"/>
<path fill="#E6E9EB" d="M28.302,39.787c1.112,0.115,3.233-4.011,2.28-4.901C29.205,34.787,27.516,39.02,28.302,39.787z"/>
<path fill="#E6E9EB" d="M32.058,38.233c0.836-0.493,0.251-4.483-0.864-4.614C30.178,34.265,31.122,38.104,32.058,38.233z"/>
<path fill="#F2F5F7" d="M26.927,40.76c1.104-0.19,2.066-4.741,0.914-5.338C26.484,35.696,25.968,40.233,26.927,40.76z"/>
<path fill="#F2F5F7" d="M14.646,40.041c-1.116-0.049-2.996,4.197-1.99,5.028C14.035,45.087,15.477,40.76,14.646,40.041z"/>
<path fill="#F2F5F7" d="M16.313,35.835c-1.117-0.048-2.997,4.197-1.99,5.029C15.7,40.881,17.141,36.556,16.313,35.835z"/>
<path fill="#F2F5F7" d="M17.089,32.839c-1.067-0.338-3.961,3.274-3.198,4.34C15.219,37.557,17.707,33.752,17.089,32.839z"/>
<path fill="#F2F5F7" d="M10.548,38.906c-0.958,0.588-0.216,5.182,1.076,5.312C12.782,43.458,11.63,39.043,10.548,38.906z"/>
<path fill="#F2F5F7" d="M9.403,38.997c1.117,0.017,2.879-4.281,1.85-5.084C9.874,33.937,8.555,38.301,9.403,38.997z"/>
<path fill="#F2F5F7" d="M6.152,40.754c1.081,0.296,3.831-3.429,3.03-4.465C7.838,35.966,5.501,39.867,6.152,40.754z"/>
<path fill="#F2F5F7" d="M25.947,47.49c1.116-0.051,2.624-4.447,1.55-5.187C26.122,42.409,25.06,46.847,25.947,47.49z"/>
<path fill="#F2F5F7" d="M28.406,46.325c0.563,0.888,4.104-0.458,4.067-1.774C31.753,43.483,28.398,45.218,28.406,46.325z"/>
<path fill="#E6E9EB" d="M23.472,45.823c0.358,1.076,4.937,1.325,5.337,0.072C28.326,44.583,23.832,44.778,23.472,45.823z"/>
<path fill="#F2F5F7" d="M27.254,44.538c0.697,0.888,5.087-0.459,5.044-1.776C31.404,41.695,27.244,43.43,27.254,44.538z"/>
<path fill="#F2F5F7" d="M20.774,48.55c0.697,0.89,5.086-0.456,5.043-1.772C24.924,45.707,20.766,47.443,20.774,48.55z"/>
<path fill="#F2F5F7" d="M9.728,39.001c0.694,0.887,5.084-0.457,5.042-1.774C13.876,36.158,9.717,37.894,9.728,39.001z"/>
<path fill="#F2F5F7" d="M5.307,35.479c0.694,0.887,5.084-0.457,5.042-1.774C9.455,32.637,5.296,34.371,5.307,35.479z"/>
<path fill="#F2F5F7" d="M6.213,42.871c0.695,0.889,5.084-0.458,5.041-1.775C10.361,40.029,6.202,41.765,6.213,42.871z"/>
<path fill="#F2F5F7" d="M12.249,46.131c0.576,0.973,5.099,0.221,5.229-1.089C16.729,43.863,12.381,45.031,12.249,46.131z"/>
<path fill="#E6E9EB" d="M16.567,45.343c0.265,1.104,4.803,1.763,5.311,0.549C21.513,44.542,17.019,44.335,16.567,45.343z"/>
<path fill="#E6E9EB" d="M16.568,49.008c0.265,1.104,4.803,1.763,5.311,0.549C21.514,48.206,17.02,48,16.568,49.008z"/>
<path fill="#E6E9EB" d="M17.637,47.182c0.265,1.104,4.802,1.763,5.311,0.549C22.581,46.381,18.088,46.174,17.637,47.182z"/>
<path fill="#E6E9EB" d="M27.826,48.991c0.265,1.104,4.802,1.763,5.311,0.548C32.771,48.189,28.277,47.983,27.826,48.991z"/>
<path fill="#E6E9EB" d="M19.968,44.996c0.69,0.896,5.091-0.402,5.063-1.719C24.148,42.198,19.971,43.89,19.968,44.996z"/>
<path fill="#E6E9EB" d="M19.089,42.337c0.266,1.104,4.802,1.762,5.312,0.549C24.032,41.535,19.54,41.329,19.089,42.337z"/>
<path fill="#E6E9EB" d="M13.63,43.698c0.265,1.104,4.804,1.761,5.311,0.55C18.574,42.897,14.081,42.691,13.63,43.698z"/>
<path fill="#E6E9EB" d="M13.209,41.012c0.265,1.104,4.801,1.763,5.311,0.552C18.152,40.21,13.659,40.005,13.209,41.012z"/>
<path fill="#E6E9EB" d="M9.594,35.717c0.265,1.104,4.8,1.761,5.31,0.551C14.536,34.915,10.044,34.711,9.594,35.717z"/>
<path fill="#E6E9EB" d="M14.129,43.723C13.267,43,9.246,45.234,9.553,46.515C10.644,47.373,14.362,44.805,14.129,43.723z"/>
<path fill="#E6E9EB" d="M14.547,37.795c-1.082-0.285-3.802,3.46-2.992,4.488C12.899,42.597,15.205,38.676,14.547,37.795z"/>
<path fill="#E6E9EB" d="M10.246,38.184c-1.082-0.285-3.803,3.461-2.993,4.49C8.599,42.985,10.904,39.064,10.246,38.184z"/>
<path fill="#E6E9EB" d="M11.357,44.494c-0.174-1.122-4.643-2.157-5.247-0.992C6.364,44.881,10.827,45.459,11.357,44.494z"/>
<path fill="#F2F5F7" d="M8.26,45.777c-0.395-1.063-4.978-1.16-5.338,0.104C3.448,47.177,7.932,46.833,8.26,45.777z"/>
<path fill="#F2F5F7" d="M7.092,48.939c-0.394-1.062-4.978-1.16-5.338,0.104C2.28,50.34,6.764,49.995,7.092,48.939z"/>
<path fill="#E6E9EB" d="M5.668,49.262c0.617-0.945-1.999-4.771-3.218-4.321C1.727,46.134,4.637,49.615,5.668,49.262z"/>
<path fill="#F2F5F7" d="M5.416,38.428c1.116-0.052,2.624-4.447,1.55-5.188C5.59,33.348,4.528,37.783,5.416,38.428z"/>
<path fill="#F2F5F7" d="M4.229,39.699c1.079-0.302,1.587-4.928,0.379-5.408C3.287,34.707,3.224,39.271,4.229,39.699z"/>
<path fill="#F2F5F7" d="M2.785,42.871c0.696,0.889,5.085-0.458,5.042-1.775C6.935,40.029,2.775,41.765,2.785,42.871z"/>
<path fill="#E6E9EB" d="M6.5,37.651c-1.082-0.286-3.802,3.461-2.992,4.49C4.854,42.454,7.158,38.533,6.5,37.651z"/>
<path fill="#E6E9EB" d="M8.214,44.771c-0.174-1.122-4.643-2.156-5.247-0.992C3.221,45.157,7.684,45.736,8.214,44.771z"/>
<path fill="#F2F5F7" d="M18.103,33.445c-0.298,1.096,3.351,3.908,4.377,3.103C22.806,35.185,18.979,32.787,18.103,33.445z"/>
<path fill="#F2F5F7" d="M10.51,33.234c0.011,1.136,4.285,2.821,5.05,1.756C15.502,33.588,11.173,32.355,10.51,33.234z"/>
<path fill="#F2F5F7" d="M31.651,39.15c-1.046,0.398-1.143,5.053,0.102,5.419C33.03,44.035,32.69,39.484,31.651,39.15z"/>
<path fill="#F2F5F7" d="M29.099,35.594c-0.601,0.958,2.084,4.732,3.295,4.264C33.097,38.649,30.126,35.223,29.099,35.594z"/>
<path fill="#F2F5F7" d="M24.592,33.588c-0.149,1.126,3.845,3.409,4.751,2.469C29.483,34.661,25.371,32.815,24.592,33.588z"/>
<path fill="#F2F5F7" d="M36.467,34.159c-0.493-1.005-4.533-0.523-4.677,0.774C32.43,36.151,36.324,35.246,36.467,34.159z"/>
<path fill="#F2F5F7" d="M30.311,42.597c0.617-0.946-2-4.771-3.22-4.322C26.365,39.468,29.276,42.948,30.311,42.597z"/>
<path fill="#E6E9EB" d="M33.265,49.968c1.038-0.419,1.043-5.073-0.207-5.415C31.79,45.112,32.218,49.657,33.265,49.968z"/>
<path fill="#E6E9EB" d="M32.596,44.268c1.11,0.113,3.232-4.011,2.28-4.9C33.498,39.268,31.809,43.499,32.596,44.268z"/>
<path fill="#E6E9EB" d="M31.989,40.271c1.112,0.116,3.233-4.009,2.28-4.9C32.893,35.271,31.203,39.505,31.989,40.271z"/>
<path fill="#E6E9EB" d="M35.745,38.719c0.836-0.494,0.251-4.482-0.864-4.613C33.865,34.749,34.81,38.59,35.745,38.719z"/>
<path fill="#F2F5F7" d="M34.645,49.765c1.104-0.19,2.066-4.74,0.914-5.338C34.202,44.701,33.686,49.238,34.645,49.765z"/>
<path fill="#F2F5F7" d="M30.808,49.689c1.116-0.05,2.624-4.447,1.55-5.186C30.982,44.609,29.92,49.046,30.808,49.689z"/>
<path fill="#F2F5F7" d="M32.094,46.81c0.563,0.888,4.104-0.458,4.067-1.774C35.44,43.969,32.086,45.704,32.094,46.81z"/>
<path fill="#E6E9EB" d="M27.159,46.31c0.358,1.075,4.937,1.323,5.337,0.071C32.014,45.069,27.52,45.265,27.159,46.31z"/>
<path fill="#F2F5F7" d="M30.941,45.023c0.697,0.888,5.087-0.458,5.044-1.776C35.092,42.181,30.932,43.916,30.941,45.023z"/>
<path fill="#F2F5F7" d="M25.189,49.725c0.698,0.889,5.087-0.457,5.044-1.773C29.34,46.882,25.182,48.618,25.189,49.725z"/>
<path fill="#F2F5F7" d="M21.534,48.681c0.003,1.138,4.267,2.849,5.038,1.789C26.525,49.066,22.203,47.808,21.534,48.681z"/>
<path fill="#F2F5F7" d="M35.339,39.635c-1.046,0.399-1.143,5.055,0.102,5.421C36.718,44.521,36.378,39.97,35.339,39.635z"/>
<path fill="#F2F5F7" d="M32.786,36.079c-0.601,0.957,2.084,4.732,3.295,4.264C36.784,39.135,33.813,35.709,32.786,36.079z"/>
<path fill="#F2F5F7" d="M17.363,32.951c-1.046,0.398-1.143,5.052,0.104,5.419C18.744,37.839,18.403,33.283,17.363,32.951z"/>
<radialGradient id="SVGID_1_" cx="19.7437" cy="42.2598" r="5.2525" gradientTransform="matrix(1 0 0 1.0156 0 -4.4025)" gradientUnits="userSpaceOnUse">
	<stop  offset="0" style="stop-color:#F5000D"/>
	<stop  offset="0.3313" style="stop-color:#E8050F"/>
	<stop  offset="0.9439" style="stop-color:#C51313"/>
	<stop  offset="1" style="stop-color:#C21413"/>
	<a:midPointStop  offset="0" style="stop-color:#F5000D"/>
	<a:midPointStop  offset="0.5697" style="stop-color:#F5000D"/>
	<a:midPointStop  offset="1" style="stop-color:#C21413"/>
</radialGradient>
<path fill="url(#SVGID_1_)" d="M20.549,37.614c-1.262,0-2.629,0.353-3.381,0.765c-1.107,0.609-1.715,2.235-1.714,3.179
	c0.001,0.944,1.203,1.45,2.31,2.058c0.751,0.413,1.525,0.962,2.785,0.962c1.262,0,2.107-0.412,2.859-0.825
	c1.107-0.609,1.319-1.256,1.318-2.198c-0.002-0.941,0.189-2.341-0.917-2.95C23.059,38.191,21.81,37.614,20.549,37.614z"/>
<path fill="#F59E01" d="M39.977,45.475c-2.033,0,12.864-14.254,15.446-11.72C58.002,36.281,41.486,45.475,39.977,45.475z"/>
<path fill="#92C932" d="M58.496,37.813c-2.175-2.551-18.703,9.375-16.719,9.546C43.254,47.483,60.666,40.367,58.496,37.813z"/>
<path fill="#92C932" d="M39.785,37.232C39.7,35.38,54.623,48.375,52.2,50.826C49.771,53.277,39.852,38.608,39.785,37.232z"/>
<path fill="#F59E01" d="M57.656,42.152c-0.598-1.024-14.752-7.912-15.832-4.97C40.737,40.121,58.456,43.532,57.656,42.152z"/>
<path fill="#F59E01" d="M40.081,50.263c-2.437-0.188,17.396-9.534,20.14-7.389C62.958,45.017,41.894,50.404,40.081,50.263z"/>
<path fill="#92C932" d="M55.516,49.826c-0.175,1.84-13.121-12.861-10.365-14.996C47.903,32.697,55.649,48.449,55.516,49.826z"/>
<path fill="#302C3B" d="M59.717,14.312C59.348,11.959,57.68,10,55.454,10H8.546c-2.225,0-3.967,1.948-4.265,4.312
	C3.842,17.826,0,47.555,0,49c0,2.256,0.557,4.333,3.2,4.333h57.6c2.224,0,3.2-1.986,3.2-4.333C64,47.014,60.8,21.193,59.717,14.312z
	 M27.733,14.333c0-1.19,0.96-2.167,2.134-2.167h25.6c1.173,0,2.244,0.969,2.375,2.152l1.467,13.027
	c0.133,1.185-0.719,2.153-1.892,2.153h-27.55c-1.174,0-2.134-0.975-2.134-2.166V14.333z M4.691,27.349L6.158,14.32
	c0.134-1.186,1.202-2.154,2.375-2.154h15.498c1.173,0,2.106,0.975,2.071,2.165l-0.378,13.002c-0.033,1.193-1.021,2.166-2.193,2.166
	H6.581C5.408,29.499,4.559,28.53,4.691,27.349z M36.267,47.917c0,1.191-0.96,2.167-2.133,2.167H4.267
	c-1.173,0-2.024-0.969-1.892-2.152l1.588-14.11c0.133-1.186,1.202-2.154,2.377-2.154h27.794c1.173,0,2.133,0.975,2.133,2.167V47.917
	z M59.733,50.084H41.629c-1.173,0-2.188-0.974-2.254-2.163L38.581,33.83c-0.066-1.19,0.84-2.163,2.013-2.163H57.66
	c1.173,0,2.244,0.969,2.377,2.152l1.588,14.112C61.756,49.115,60.906,50.084,59.733,50.084z"/>
<path fill="#F2F5F7" d="M21.379,46.489c0.848,0.747,4.92-1.388,4.643-2.677C24.951,42.928,21.173,45.402,21.379,46.489z"/>
<path fill="#F2F5F7" d="M22.157,47.44c0.617-0.947-2-4.77-3.219-4.322C18.215,44.312,21.125,47.793,22.157,47.44z"/>
<path fill="#F2F5F7" d="M13.342,44.267c0.697,0.888,5.085-0.458,5.045-1.775C17.492,41.426,13.332,43.16,13.342,44.267z"/>
<path fill="#F2F5F7" d="M7.689,49.13c0.835,0.756,4.938-1.322,4.68-2.609C11.309,45.62,7.498,48.042,7.689,49.13z"/>
<path fill="#F2F5F7" d="M14.683,43.785c-1.117-0.049-2.997,4.197-1.991,5.027C14.071,48.831,15.512,44.504,14.683,43.785z"/>
<path fill="#F2F5F7" d="M12.494,49.595c0.576,0.973,5.099,0.222,5.228-1.089C16.973,47.327,12.626,48.495,12.494,49.595z"/>
<path fill="#E6E9EB" d="M14.2,46.982c-0.862-0.722-4.884,1.511-4.576,2.791C10.715,50.633,14.434,48.063,14.2,46.982z"/>
<path fill="#E6E9EB" d="M12.143,48.334c-0.174-1.121-4.643-2.157-5.247-0.991C7.15,48.722,11.612,49.3,12.143,48.334z"/>
<path fill="#F2F5F7" d="M14.127,48.107c0.697,0.888,5.086-0.458,5.045-1.775C18.277,45.266,14.118,47,14.127,48.107z"/>
<path fill="#F2F5F7" d="M22.949,41.222c-0.261,1.105,3.483,3.793,4.478,2.95C27.708,42.801,23.806,40.533,22.949,41.222z"/>
<path fill="#CFD8DD" d="M53.859,23.895c-1.559,1.365-15.847-2.682-16.192-3.938C34.786,8.271,60.603,17.341,53.859,23.895z"/>
<path fill="#F2F5F7" d="M42.898,18.729c-0.317-0.425-2.342,0.195-2.328,0.82C40.977,20.06,42.898,19.254,42.898,18.729z"/>
<path fill="#E6E9EB" d="M41.392,20.392c-0.004-0.541-1.976-1.318-2.328-0.809C39.091,20.244,41.088,20.809,41.392,20.392z"/>
<path fill="#F2F5F7" d="M43.353,21.931c0.002-0.535-1.865-1.274-2.21-0.765C41.158,21.824,43.054,22.352,43.353,21.931z"/>
<path fill="#F2F5F7" d="M41.236,21.152c-0.006-0.538-1.978-1.316-2.329-0.808C38.934,21.007,40.932,21.571,41.236,21.152z"/>
<path fill="#F2F5F7" d="M40.249,17.072c-0.431-0.296-2.162,0.967-1.958,1.555C38.832,18.977,40.409,17.57,40.249,17.072z"/>
<path fill="#E6E9EB" d="M44.085,22.5c0.284-0.451-0.922-2.268-1.483-2.053C42.269,21.013,43.608,22.665,44.085,22.5z"/>
<path fill="#F2F5F7" d="M45.551,22.824c0.155-0.512-1.48-1.921-1.966-1.561C43.413,21.902,45.137,23.118,45.551,22.824z"/>
<path fill="#E6E9EB" d="M47.844,23.103c-0.059-0.533-2.104-1.143-2.407-0.611C45.527,23.147,47.579,23.543,47.844,23.103z"/>
<path fill="#F2F5F7" d="M48.746,23.623c0.205-0.495-1.284-2.069-1.803-1.759C46.711,22.48,48.305,23.871,48.746,23.623z"/>
<path fill="#F2F5F7" d="M47.64,21.953c-0.224-0.483-2.353-0.366-2.468,0.237C45.466,22.78,47.531,22.46,47.64,21.953z"/>
<path fill="#E6E9EB" d="M48.761,22.471c0.111-0.522-1.63-1.787-2.083-1.388C46.556,21.736,48.372,22.801,48.761,22.471z"/>
<path fill="#E6E9EB" d="M48.951,23.695c0.489-0.18,0.602-2.375,0.03-2.559C48.385,21.378,48.476,23.529,48.951,23.695z"/>
<path fill="#F2F5F7" d="M48.923,23.156c0.353,0.394,2.349-0.38,2.285-0.99C50.755,21.695,48.88,22.641,48.923,23.156z"/>
<path fill="#F2F5F7" d="M49.071,23.436c0.104,0.465,1.967,0.784,2.181,0.282C51.106,23.152,49.26,23.021,49.071,23.436z"/>
<path fill="#F2F5F7" d="M51.295,23.55c0.104,0.462,1.968,0.782,2.18,0.282C53.329,23.264,51.483,23.132,51.295,23.55z"/>
<path fill="#E6E9EB" d="M50.256,22.785c-0.116,0.46,1.394,1.635,1.807,1.294C52.188,23.507,50.609,22.507,50.256,22.785z"/>
<path fill="#E6E9EB" d="M54.635,22.751c-0.379-0.271-1.971,0.781-1.803,1.302C53.309,24.373,54.765,23.192,54.635,22.751z"/>
<path fill="#E6E9EB" d="M47.105,20.597c-0.406-0.333-2.266,0.738-2.115,1.334C45.508,22.327,47.223,21.102,47.105,20.597z"/>
<path fill="#F2F5F7" d="M46.533,20.533c-0.339-0.406-2.36,0.284-2.318,0.899C44.646,21.921,46.556,21.051,46.533,20.533z"/>
<path fill="#F2F5F7" d="M39.174,19.298c0.582,0.208,2.085-1.43,1.66-1.977C40.111,17.086,38.825,18.83,39.174,19.298z"/>
<path fill="#F2F5F7" d="M38.146,20.246c0.455-0.256,0.221-2.451-0.37-2.541C37.226,18.039,37.653,20.158,38.146,20.246z"/>
<path fill="#E6E9EB" d="M40.077,18.864c0.318,0.422,2.338-0.218,2.318-0.843C41.986,17.514,40.07,18.339,40.077,18.864z"/>
<path fill="#F2F5F7" d="M41.039,20.966c0.321,0.424,2.341-0.216,2.323-0.841C42.949,19.617,41.036,20.44,41.039,20.966z"/>
<path fill="#F2F5F7" d="M42.567,19.216c-0.261,0.465,1.032,2.208,1.582,1.968C44.453,20.599,43.034,19.021,42.567,19.216z"/>
<path fill="#E6E9EB" d="M42.775,18.015c-0.334,0.412,0.798,2.342,1.226,2.227C44.399,19.721,43.269,17.911,42.775,18.015z"/>
<path fill="#F2F5F7" d="M44.255,18.604c-0.465,0.243-0.3,2.429,0.291,2.532C45.11,20.82,44.75,18.705,44.255,18.604z"/>
<path fill="#F2F5F7" d="M39.654,18.779c-0.136,0.519,1.545,1.854,2.017,1.471C41.819,19.603,40.058,18.467,39.654,18.779z"/>
<path fill="#E6E9EB" d="M38.715,18.431c-0.515,0.161-0.561,2.035,0.051,2.182C39.394,20.397,39.226,18.564,38.715,18.431z"/>
<path fill="#E6E9EB" d="M42.745,18.072c-0.517-0.008-1.349,2.028-0.88,2.407C42.503,20.47,43.132,18.402,42.745,18.072z"/>
<path fill="#E6E9EB" d="M46.299,19.143c-0.445-0.269-2.135,1.088-1.904,1.659C44.955,21.113,46.48,19.625,46.299,19.143z"/>
<path fill="#F76F00" d="M37.393,18.463c-0.503,0.235-0.21-1.767,0-2.014c7.479-4.889,17.426,3.756,19.487,5.624
	C48.337,27.029,44.814,15.002,37.393,18.463z"/>
<linearGradient id="SVGID_2_" gradientUnits="userSpaceOnUse" x1="47.1367" y1="22.5317" x2="47.1367" y2="12.2749">
	<stop  offset="0" style="stop-color:#FF8226"/>
	<stop  offset="0.6424" style="stop-color:#FFA828"/>
	<stop  offset="1" style="stop-color:#FFB829"/>
	<a:midPointStop  offset="0" style="stop-color:#FF8226"/>
	<a:midPointStop  offset="0.4424" style="stop-color:#FF8226"/>
	<a:midPointStop  offset="1" style="stop-color:#FFB829"/>
</linearGradient>
<path fill="url(#SVGID_2_)" d="M37.393,16.449c3.15-5.084,9.856-5.084,13.464-2.353c3.32,2.513,3.962,6.108,6.023,7.977
	C48.757,24.955,44.872,13.187,37.393,16.449z"/>
<path opacity="0.2" fill="#FFFFFF" enable-background="new    " d="M53.859,17.52c-4.295,2.619-1.788,4.739-3.119,5.452
	C53,22.161,50.237,20.938,53.859,17.52z"/>
<path opacity="0.2" fill="#FFFFFF" enable-background="new    " d="M51.869,14.971c-5.448,2.249-3.057,5.22-4.229,6.47
	C49.387,20.011,47.685,18.105,51.869,14.971z"/>
<path opacity="0.2" fill="#FFFFFF" enable-background="new    " d="M49.027,13.052c-5.447,3.395-2.963,5.295-4.137,6.546
	C46.638,18.167,44.918,16.995,49.027,13.052z"/>
<path opacity="0.2" fill="#FFFFFF" enable-background="new    " d="M45.642,12.29c-4.948,4.099-2.174,4.696-3.347,5.949
	C44.043,16.808,42.137,16.679,45.642,12.29z"/>
<path opacity="0.2" fill="#FFFFFF" enable-background="new    " d="M42.376,12.661c-4.054,3.696-2.12,2.567-2.85,5.193
	C41.285,14.638,39.249,16.357,42.376,12.661z"/>
<path fill="#CFD8DD" d="M45.626,28.456c-1.561,1.363-15.85-2.683-16.195-3.942C26.553,12.828,52.37,21.901,45.626,28.456z"/>
<path fill="#F2F5F7" d="M34.665,23.287c-0.318-0.424-2.345,0.195-2.33,0.821C32.742,24.619,34.665,23.813,34.665,23.287z"/>
<path fill="#E6E9EB" d="M33.158,24.949c-0.006-0.538-1.979-1.316-2.328-0.808C30.854,24.806,32.853,25.368,33.158,24.949z"/>
<path fill="#F2F5F7" d="M35.117,26.49c0.004-0.537-1.864-1.275-2.207-0.766C32.923,26.386,34.819,26.911,35.117,26.49z"/>
<path fill="#F2F5F7" d="M33.002,25.712c-0.004-0.538-1.978-1.316-2.33-0.809C30.698,25.568,32.696,26.131,33.002,25.712z"/>
<path fill="#F2F5F7" d="M32.013,21.631c-0.429-0.296-2.159,0.968-1.956,1.556C30.598,23.535,32.174,22.129,32.013,21.631z"/>
<path fill="#E6E9EB" d="M35.852,27.058c0.282-0.448-0.922-2.265-1.483-2.053C34.033,25.572,35.375,27.226,35.852,27.058z"/>
<path fill="#F2F5F7" d="M37.317,27.383c0.153-0.511-1.481-1.919-1.967-1.56C35.179,26.463,36.903,27.677,37.317,27.383z"/>
<path fill="#E6E9EB" d="M39.608,27.662c-0.056-0.533-2.104-1.145-2.407-0.611C37.295,27.706,39.344,28.104,39.608,27.662z"/>
<path fill="#F2F5F7" d="M40.512,28.181c0.206-0.493-1.283-2.066-1.802-1.759C38.477,27.04,40.071,28.43,40.512,28.181z"/>
<path fill="#F2F5F7" d="M39.404,26.513c-0.223-0.484-2.351-0.366-2.466,0.239C37.232,27.341,39.296,27.019,39.404,26.513z"/>
<path fill="#E6E9EB" d="M40.525,27.03c0.114-0.522-1.629-1.788-2.084-1.386C38.32,26.295,40.139,27.358,40.525,27.03z"/>
<path fill="#E6E9EB" d="M40.718,28.256c0.489-0.179,0.603-2.376,0.03-2.56C40.15,25.937,40.24,28.089,40.718,28.256z"/>
<path fill="#F2F5F7" d="M40.689,27.716c0.353,0.393,2.349-0.378,2.284-0.99C42.521,26.255,40.646,27.2,40.689,27.716z"/>
<path fill="#F2F5F7" d="M40.836,27.996c0.104,0.465,1.969,0.783,2.183,0.283C42.873,27.711,41.025,27.581,40.836,27.996z"/>
<path fill="#F2F5F7" d="M43.06,28.109c0.104,0.464,1.969,0.783,2.183,0.283C45.096,27.823,43.249,27.693,43.06,28.109z"/>
<path fill="#E6E9EB" d="M42.022,27.346c-0.116,0.46,1.392,1.635,1.807,1.294C43.956,28.065,42.377,27.066,42.022,27.346z"/>
<path fill="#E6E9EB" d="M46.4,27.312c-0.376-0.271-1.969,0.781-1.803,1.3C45.075,28.932,46.531,27.752,46.4,27.312z"/>
<path fill="#E6E9EB" d="M38.872,25.157c-0.407-0.335-2.268,0.736-2.115,1.335C37.271,26.888,38.99,25.66,38.872,25.157z"/>
<path fill="#F2F5F7" d="M38.3,25.093c-0.339-0.406-2.362,0.284-2.32,0.9C36.414,26.481,38.323,25.61,38.3,25.093z"/>
<path fill="#F2F5F7" d="M30.941,23.858c0.58,0.206,2.084-1.431,1.656-1.978C31.875,21.645,30.592,23.39,30.941,23.858z"/>
<path fill="#F2F5F7" d="M29.913,24.806c0.454-0.257,0.22-2.451-0.371-2.54C28.989,22.6,29.417,24.717,29.913,24.806z"/>
<path fill="#E6E9EB" d="M31.841,23.423c0.321,0.422,2.341-0.217,2.32-0.843C33.751,22.073,31.835,22.897,31.841,23.423z"/>
<path fill="#F2F5F7" d="M32.805,25.526c0.321,0.422,2.341-0.218,2.324-0.843C34.716,24.177,32.802,25,32.805,25.526z"/>
<path fill="#F2F5F7" d="M34.332,23.773c-0.26,0.466,1.032,2.211,1.584,1.969C36.22,25.158,34.8,23.582,34.332,23.773z"/>
<path fill="#E6E9EB" d="M34.542,22.577c-0.336,0.408,0.798,2.34,1.225,2.223C36.165,24.28,35.036,22.47,34.542,22.577z"/>
<path fill="#F2F5F7" d="M36.021,23.166c-0.464,0.241-0.301,2.427,0.289,2.53C36.877,25.38,36.517,23.265,36.021,23.166z"/>
<path fill="#F2F5F7" d="M31.421,23.338c-0.139,0.521,1.542,1.855,2.015,1.472C33.586,24.163,31.824,23.024,31.421,23.338z"/>
<path fill="#E6E9EB" d="M30.48,22.99c-0.515,0.161-0.563,2.035,0.049,2.183C31.159,24.956,30.992,23.123,30.48,22.99z"/>
<path fill="#E6E9EB" d="M34.509,22.632c-0.514-0.008-1.349,2.026-0.876,2.409C34.27,25.029,34.896,22.961,34.509,22.632z"/>
<path fill="#E6E9EB" d="M38.065,23.701c-0.446-0.268-2.137,1.09-1.906,1.659C36.721,25.672,38.246,24.184,38.065,23.701z"/>
<path fill="#D14531" d="M29.156,23.021c-0.501,0.234-0.208-1.767,0-2.014c7.482-4.888,17.429,3.757,19.49,5.627
	C40.104,31.588,36.579,19.562,29.156,23.021z"/>
<linearGradient id="SVGID_3_" gradientUnits="userSpaceOnUse" x1="38.9014" y1="27.0933" x2="38.9014" y2="16.834">
	<stop  offset="0" style="stop-color:#DE5050"/>
	<stop  offset="0.4981" style="stop-color:#E66454"/>
	<stop  offset="1" style="stop-color:#ED7458"/>
	<a:midPointStop  offset="0" style="stop-color:#DE5050"/>
	<a:midPointStop  offset="0.4424" style="stop-color:#DE5050"/>
	<a:midPointStop  offset="1" style="stop-color:#ED7458"/>
</linearGradient>
<path fill="url(#SVGID_3_)" d="M29.156,21.009c3.151-5.084,9.859-5.084,13.468-2.354c3.319,2.514,3.961,6.109,6.022,7.979
	C40.523,29.517,36.639,17.746,29.156,21.009z"/>
<path opacity="0.2" fill="#FFFFFF" enable-background="new    " d="M45.626,22.078c-4.295,2.619-1.786,4.74-3.118,5.451
	C44.767,26.721,42.003,25.497,45.626,22.078z"/>
<path opacity="0.2" fill="#FFFFFF" enable-background="new    " d="M43.637,19.529c-5.45,2.249-3.058,5.221-4.232,6.471
	C41.152,24.57,39.449,22.664,43.637,19.529z"/>
<path opacity="0.2" fill="#FFFFFF" enable-background="new    " d="M40.793,17.61c-5.446,3.394-2.963,5.295-4.136,6.546
	C38.404,22.727,36.683,21.553,40.793,17.61z"/>
<path opacity="0.2" fill="#FFFFFF" enable-background="new    " d="M37.407,16.848c-4.95,4.1-2.174,4.697-3.347,5.951
	C35.81,21.366,33.903,21.238,37.407,16.848z"/>
<path opacity="0.2" fill="#FFFFFF" enable-background="new    " d="M34.143,17.222c-4.054,3.696-2.12,2.565-2.85,5.193
	C33.049,19.197,31.016,20.918,34.143,17.222z"/>
</svg>
