<?xml version="1.0" encoding="utf-8"?>
<!-- Generator: Adobe Illustrator 15.0.0, SVG Export Plug-In . SVG Version: 6.00 Build 0)  -->
<!DOCTYPE svg PUBLIC "-//W3C//DTD SVG 1.1//EN" "http://www.w3.org/Graphics/SVG/1.1/DTD/svg11.dtd" [
	<!ENTITY ns_flows "http://ns.adobe.com/Flows/1.0/">
	<!ENTITY ns_extend "http://ns.adobe.com/Extensibility/1.0/">
	<!ENTITY ns_ai "http://ns.adobe.com/AdobeIllustrator/10.0/">
	<!ENTITY ns_graphs "http://ns.adobe.com/Graphs/1.0/">
]>
<svg version="1.1" id="Layer_1" xmlns:x="&ns_extend;" xmlns:i="&ns_ai;" xmlns:graph="&ns_graphs;"
	 xmlns="http://www.w3.org/2000/svg" xmlns:xlink="http://www.w3.org/1999/xlink" xmlns:a="http://ns.adobe.com/AdobeSVGViewerExtensions/3.0/"
	 x="0px" y="0px" width="64px" height="64px" viewBox="0 0 64 64" enable-background="new 0 0 64 64" xml:space="preserve">
<path fill="#75D6FF" d="M60,17H45.05c0,0.414-0.336,0.75-0.75,0.75s-0.75-0.336-0.75-0.75H4c-1.1,0-2,0.899-2,2v26c0,1.1,0.9,2,2,2
	h39.55c0-0.414,0.336-0.75,0.75-0.75s0.75,0.336,0.75,0.75H60c1.1,0,2-0.9,2-2V19C62,17.899,61.1,17,60,17z M44.3,45.022
	c-0.414,0-0.75-0.336-0.75-0.75s0.336-0.75,0.75-0.75s0.75,0.336,0.75,0.75S44.714,45.022,44.3,45.022z M44.3,42.296
	c-0.414,0-0.75-0.336-0.75-0.75s0.336-0.75,0.75-0.75s0.75,0.336,0.75,0.75S44.714,42.296,44.3,42.296z M44.3,39.568
	c-0.414,0-0.75-0.336-0.75-0.75s0.336-0.75,0.75-0.75s0.75,0.336,0.75,0.75S44.714,39.568,44.3,39.568z M44.3,36.841
	c-0.414,0-0.75-0.336-0.75-0.75s0.336-0.75,0.75-0.75s0.75,0.336,0.75,0.75S44.714,36.841,44.3,36.841z M44.3,34.113
	c-0.414,0-0.75-0.336-0.75-0.75s0.336-0.75,0.75-0.75s0.75,0.336,0.75,0.75S44.714,34.113,44.3,34.113z M44.3,31.387
	c-0.414,0-0.75-0.336-0.75-0.75s0.336-0.75,0.75-0.75s0.75,0.336,0.75,0.75S44.714,31.387,44.3,31.387z M44.3,28.659
	c-0.414,0-0.75-0.336-0.75-0.75s0.336-0.75,0.75-0.75s0.75,0.336,0.75,0.75S44.714,28.659,44.3,28.659z M44.3,25.932
	c-0.414,0-0.75-0.336-0.75-0.75s0.336-0.75,0.75-0.75s0.75,0.336,0.75,0.75S44.714,25.932,44.3,25.932z M44.3,23.204
	c-0.414,0-0.75-0.336-0.75-0.75s0.336-0.75,0.75-0.75s0.75,0.336,0.75,0.75S44.714,23.204,44.3,23.204z M44.3,20.478
	c-0.414,0-0.75-0.336-0.75-0.75s0.336-0.75,0.75-0.75s0.75,0.336,0.75,0.75S44.714,20.478,44.3,20.478z"/>
<path fill="#018BC9" d="M59,20v24H48.543V20H59 M60,19H47.543v26H60V19L60,19z"/>
<path fill="#018BC9" d="M40.057,20v24H5V20H40.057 M41.057,19H4v26h37.057V19L41.057,19z"/>
<path id="Shape_2_" fill="#018BC9" d="M33.057,33.25c2.067,0,3.75,1.683,3.75,3.75s-1.683,3.75-3.75,3.75s-3.75-1.683-3.75-3.75
	S30.989,33.25,33.057,33.25z M33.057,32c-2.761,0-5,2.239-5,5c0,2.763,2.239,5,5,5s5-2.237,5-5C38.057,34.239,35.817,32,33.057,32z"
	/>
<path id="Combined-Shape_2_" fill="#018BC9" d="M34.058,37.501c-0.169,0-0.252-0.082-0.252-0.25V36.75
	c0-0.167,0.083-0.249,0.252-0.249h1.623c0.169,0,0.252,0.082,0.252,0.249V37c0,1.589-1.289,2.875-2.876,2.875
	c-0.772,0-1.497-0.307-2.032-0.841c-0.119-0.12-0.119-0.235-0.002-0.354l0.532-0.53c0.118-0.118,0.234-0.118,0.353,0
	c0.305,0.303,0.713,0.476,1.149,0.476c0.723,0,1.335-0.471,1.548-1.124H34.058z"/>
<path fill="#018BC9" d="M14.873,22.262v0.596c0,0.107-0.061,0.168-0.168,0.168h-1.021v3.83c0,0.109-0.061,0.17-0.168,0.17h-0.633
	c-0.108,0-0.168-0.061-0.168-0.17v-3.83h-1.021c-0.108,0-0.167-0.061-0.167-0.168v-0.596c0-0.105,0.059-0.166,0.167-0.166h1.989
	h1.021C14.813,22.096,14.873,22.156,14.873,22.262z"/>
<path fill="#018BC9" d="M15.587,22.096h0.633c0.109,0,0.169,0.061,0.169,0.166v4.594c0,0.109-0.06,0.17-0.169,0.17h-0.633
	c-0.107,0-0.166-0.061-0.166-0.17v-4.594C15.421,22.156,15.479,22.096,15.587,22.096z"/>
<path fill="#018BC9" d="M17.078,24.561c0-1.441,1.076-2.561,2.569-2.561c1.101,0,2.04,0.676,2.343,1.668
	c0.03,0.113-0.029,0.188-0.145,0.188h-0.685c-0.094,0-0.15-0.045-0.189-0.131c-0.221-0.48-0.731-0.781-1.324-0.781
	c-0.966,0-1.6,0.67-1.6,1.617c0,0.945,0.634,1.617,1.6,1.617c0.593,0,1.104-0.303,1.324-0.783c0.039-0.086,0.096-0.131,0.189-0.131
	h0.685c0.115,0,0.177,0.068,0.146,0.174c-0.292,0.99-1.237,1.682-2.345,1.682C18.154,27.119,17.078,26,17.078,24.561z"/>
<path fill="#018BC9" d="M26.203,27.025h-0.741c-0.086,0-0.154-0.031-0.202-0.104l-1.685-2.213v2.146c0,0.109-0.061,0.17-0.169,0.17
	h-0.634c-0.106,0-0.166-0.061-0.166-0.17v-4.594c0-0.105,0.06-0.166,0.166-0.166h0.634c0.108,0,0.169,0.061,0.169,0.166v2.012
	l1.612-2.076c0.056-0.07,0.116-0.102,0.202-0.102h0.742c0.134,0,0.187,0.092,0.103,0.203l-1.672,2.195l1.742,2.328
	C26.384,26.934,26.338,27.025,26.203,27.025z"/>
<path fill="#018BC9" d="M29.86,26.262v0.594c0,0.109-0.058,0.17-0.167,0.17h-2.438h-0.149c-0.106,0-0.168-0.061-0.168-0.17v-4.594
	c0-0.105,0.062-0.166,0.168-0.166h0.801h1.752c0.106,0,0.168,0.061,0.168,0.166v0.596c0,0.107-0.062,0.168-0.168,0.168h-1.752v1.053
	h1.576c0.107,0,0.167,0.061,0.167,0.168v0.574c0,0.107-0.06,0.166-0.167,0.166h-1.576v1.107h1.786
	C29.803,26.094,29.86,26.154,29.86,26.262z"/>
<path fill="#018BC9" d="M33.528,22.262v0.596c0,0.107-0.06,0.168-0.168,0.168H32.34v3.83c0,0.109-0.061,0.17-0.168,0.17h-0.634
	c-0.107,0-0.166-0.061-0.166-0.17v-3.83h-1.021c-0.107,0-0.168-0.061-0.168-0.168v-0.596c0-0.105,0.061-0.166,0.168-0.166h1.989
	h1.021C33.469,22.096,33.528,22.156,33.528,22.262z"/>
<path fill="#018BC9" d="M53.365,22.541h0.263c0.048,0,0.088,0.016,0.123,0.052l0.962,0.953c0.188,0.186,0.409,0.346,0.616,0.346
	c0.25,0,0.386-0.149,0.386-0.368c0-0.212-0.092-0.359-0.301-0.395c-0.064-0.01-0.097-0.044-0.097-0.104v-0.384
	c0-0.064,0.035-0.101,0.104-0.097c0.596,0.049,0.86,0.502,0.86,0.966c0,0.48-0.3,0.962-0.952,0.962c-0.337,0-0.67-0.212-0.923-0.467
	l-0.581-0.596v1.01c0,0.063-0.037,0.101-0.101,0.101h-0.359c-0.064,0-0.101-0.037-0.101-0.101v-1.778
	C53.265,22.577,53.301,22.541,53.365,22.541z"/>
<path fill="#018BC9" d="M54.177,26.781c-0.635,0-0.97-0.498-0.97-1.057c0-0.526,0.298-1.001,0.865-1.052
	c0.068-0.005,0.104,0.034,0.104,0.099v0.385c0,0.061-0.033,0.09-0.095,0.104c-0.189,0.038-0.308,0.204-0.308,0.465
	c0,0.306,0.163,0.476,0.402,0.476s0.403-0.17,0.403-0.476V25.51c0-0.065,0.035-0.101,0.1-0.101h0.216
	c0.048,0,0.085,0.015,0.124,0.043l0.658,0.495v-1.062c0-0.063,0.037-0.101,0.102-0.101h0.345c0.063,0,0.101,0.037,0.101,0.101v1.659
	c0,0.064-0.037,0.101-0.101,0.101h-0.313c-0.049,0-0.085-0.016-0.126-0.044L55.024,26.1C54.91,26.488,54.615,26.781,54.177,26.781z"
	/>
<path fill="#018BC9" d="M54.204,31.795c-0.641,0-0.976-0.502-0.976-1.063c0-0.529,0.3-1.007,0.869-1.059
	c0.069-0.004,0.106,0.035,0.106,0.1v0.387c0,0.061-0.034,0.091-0.096,0.104c-0.191,0.038-0.31,0.205-0.31,0.468
	c0,0.307,0.164,0.478,0.405,0.478c0.239,0,0.403-0.171,0.403-0.478v-0.218c0-0.064,0.037-0.101,0.102-0.101h0.218
	c0.047,0,0.084,0.015,0.125,0.044l0.662,0.498v-1.067c0-0.065,0.035-0.102,0.1-0.102h0.347c0.064,0,0.102,0.036,0.102,0.102v1.668
	c0,0.065-0.037,0.102-0.102,0.102h-0.314c-0.047,0-0.085-0.016-0.124-0.044l-0.666-0.505C54.941,31.499,54.645,31.795,54.204,31.795
	z"/>
<path fill="#018BC9" d="M54.233,34.374h-0.341c-0.064,0-0.102-0.036-0.102-0.102v-0.218h-0.404c-0.064,0-0.101-0.036-0.101-0.102
	v-0.388c0-0.065,0.036-0.102,0.101-0.102h0.404v-1.338c0-0.065,0.037-0.102,0.102-0.102h0.376c0.046,0,0.082,0.009,0.126,0.029
	l1.795,0.921c0.049,0.024,0.072,0.062,0.072,0.118v0.415c0,0.077-0.049,0.108-0.12,0.072l-1.809-0.925v0.809h0.605
	c0.064,0,0.102,0.036,0.102,0.102v0.388c0,0.065-0.037,0.102-0.102,0.102h-0.605v0.218C54.333,34.338,54.298,34.374,54.233,34.374z"
	/>
<path fill="#018BC9" d="M53.33,37.656h0.263c0.049,0,0.088,0.016,0.125,0.052l0.967,0.959c0.19,0.187,0.411,0.348,0.621,0.348
	c0.251,0,0.386-0.149,0.386-0.37c0-0.214-0.092-0.362-0.301-0.396c-0.064-0.011-0.099-0.045-0.099-0.105v-0.386
	c0-0.064,0.037-0.101,0.106-0.097c0.598,0.049,0.863,0.505,0.863,0.972c0,0.483-0.301,0.968-0.956,0.968
	c-0.341,0-0.676-0.213-0.93-0.471l-0.585-0.599v1.016c0,0.064-0.035,0.101-0.1,0.101H53.33c-0.066,0-0.102-0.036-0.102-0.101v-1.789
	C53.229,37.692,53.264,37.656,53.33,37.656z"/>
<path fill="#018BC9" d="M56.204,40.598v0.415c0,0.064-0.036,0.101-0.101,0.101H53.33c-0.066,0-0.102-0.036-0.102-0.101V40.63
	c0-0.065,0.035-0.101,0.102-0.101h2.285L55.3,39.954c-0.04-0.069-0.008-0.121,0.068-0.121h0.372c0.053,0,0.093,0.021,0.12,0.068
	l0.312,0.57C56.197,40.512,56.204,40.55,56.204,40.598z"/>
<path fill="#018BC9" d="M51.679,22.762c0.03-0.002,0.048,0.017,0.048,0.046v0.176c0,0.027-0.016,0.042-0.045,0.047
	c-0.094,0.018-0.141,0.095-0.141,0.226c0,0.137,0.059,0.201,0.138,0.201c0.096,0,0.139-0.108,0.184-0.238
	c0.07-0.195,0.147-0.434,0.436-0.434c0.261,0,0.396,0.215,0.396,0.441c0,0.224-0.123,0.435-0.39,0.457
	c-0.032,0.002-0.049-0.017-0.049-0.046v-0.176c0-0.026,0.015-0.042,0.044-0.047c0.091-0.017,0.135-0.083,0.135-0.188
	c0-0.11-0.058-0.175-0.136-0.175c-0.1,0-0.144,0.094-0.19,0.219c-0.069,0.197-0.143,0.454-0.429,0.454
	c-0.26,0-0.397-0.216-0.397-0.469C51.281,23.005,51.407,22.785,51.679,22.762z"/>
<path fill="#018BC9" d="M51.518,24.705h-0.165c-0.029,0-0.045-0.017-0.045-0.046v-0.673v-0.041c0-0.029,0.016-0.047,0.045-0.047
	h1.268c0.029,0,0.047,0.018,0.047,0.047v0.221v0.483c0,0.03-0.018,0.046-0.047,0.046h-0.163c-0.029,0-0.047-0.016-0.047-0.046
	v-0.483h-0.291v0.436c0,0.029-0.016,0.046-0.047,0.046h-0.157c-0.029,0-0.047-0.017-0.047-0.046v-0.436h-0.305v0.493
	C51.563,24.688,51.547,24.705,51.518,24.705z"/>
<path fill="#018BC9" d="M51.986,24.823c0.397,0,0.707,0.297,0.707,0.709c0,0.303-0.187,0.563-0.46,0.646
	c-0.032,0.009-0.053-0.009-0.053-0.04V25.95c0-0.026,0.014-0.042,0.037-0.053c0.133-0.061,0.216-0.202,0.216-0.365
	c0-0.267-0.186-0.441-0.447-0.441c-0.261,0-0.445,0.175-0.445,0.441c0,0.163,0.083,0.305,0.215,0.365
	c0.023,0.011,0.036,0.026,0.036,0.053v0.188c0,0.031-0.019,0.049-0.048,0.04c-0.273-0.081-0.463-0.341-0.463-0.646
	C51.281,25.12,51.589,24.823,51.986,24.823z"/>
<path fill="#018BC9" d="M51.353,26.283h0.186c0.029,0,0.045,0.017,0.045,0.046v0.185c0,0.029-0.016,0.047-0.045,0.047h-0.186
	c-0.029,0-0.045-0.018-0.045-0.047v-0.185C51.308,26.3,51.323,26.283,51.353,26.283z"/>
<path fill="#018BC9" d="M51.288,30.962v-0.208c0-0.023,0.008-0.042,0.026-0.058l0.448-0.364v-0.167h-0.429
	c-0.029,0-0.046-0.017-0.046-0.047v-0.175c0-0.03,0.017-0.048,0.046-0.048h1.274c0.031,0,0.047,0.018,0.047,0.048v0.222v0.249
	c0,0.252-0.202,0.455-0.453,0.455c-0.171,0-0.322-0.104-0.396-0.256l-0.461,0.375C51.316,31.013,51.288,31,51.288,30.962z
	 M51.999,30.165v0.249c0,0.103,0.09,0.187,0.203,0.187c0.112,0,0.201-0.084,0.201-0.187v-0.249H51.999z"/>
<path fill="#018BC9" d="M51.972,31.004c0.4,0,0.711,0.316,0.711,0.71c0,0.395-0.311,0.711-0.711,0.711s-0.71-0.316-0.71-0.711
	C51.262,31.32,51.571,31.004,51.972,31.004z M51.972,32.156c0.263,0,0.449-0.193,0.449-0.442c0-0.248-0.187-0.441-0.449-0.441
	c-0.264,0-0.448,0.193-0.448,0.441C51.523,31.963,51.708,32.156,51.972,32.156z"/>
<path fill="#018BC9" d="M52.603,34.147l-1.276-0.362c-0.026-0.008-0.038-0.026-0.038-0.052v-0.217c0-0.025,0.012-0.044,0.038-0.052
	l0.588-0.166l-0.588-0.168c-0.026-0.007-0.038-0.025-0.038-0.051v-0.217c0-0.026,0.012-0.045,0.038-0.052l1.276-0.362
	c0.034-0.01,0.053,0.006,0.053,0.038v0.185c0,0.028-0.015,0.045-0.041,0.051l-0.983,0.264l0.696,0.194l0.275-0.078
	c0.034-0.01,0.053,0.005,0.053,0.039v0.155c0,0.027-0.015,0.044-0.041,0.05l-0.983,0.263l0.983,0.264
	c0.026,0.006,0.041,0.023,0.041,0.051v0.185C52.655,34.142,52.637,34.157,52.603,34.147z"/>
<path fill="#018BC9" d="M51.661,37.31c0.031-0.002,0.049,0.017,0.049,0.047v0.176c0,0.028-0.015,0.043-0.046,0.048
	c-0.093,0.017-0.141,0.095-0.141,0.228c0,0.137,0.059,0.201,0.138,0.201c0.097,0,0.14-0.109,0.187-0.239
	c0.069-0.196,0.147-0.437,0.438-0.437c0.262,0,0.397,0.217,0.397,0.444c0,0.226-0.124,0.438-0.393,0.459
	c-0.032,0.003-0.049-0.016-0.049-0.046v-0.176c0-0.028,0.015-0.043,0.044-0.048c0.092-0.017,0.136-0.084,0.136-0.189
	c0-0.111-0.058-0.176-0.136-0.176c-0.101,0-0.146,0.094-0.192,0.22c-0.07,0.199-0.143,0.457-0.432,0.457
	c-0.262,0-0.399-0.217-0.399-0.471S51.388,37.333,51.661,37.31z"/>
<path fill="#018BC9" d="M51.5,39.265h-0.166c-0.029,0-0.046-0.017-0.046-0.047v-0.676V38.5c0-0.029,0.017-0.047,0.046-0.047h1.274
	c0.031,0,0.047,0.018,0.047,0.047v0.223v0.485c0,0.03-0.016,0.047-0.047,0.047h-0.164c-0.029,0-0.047-0.017-0.047-0.047v-0.485
	h-0.293v0.438c0,0.029-0.016,0.046-0.045,0.046h-0.16c-0.029,0-0.047-0.017-0.047-0.046v-0.438h-0.308v0.495
	C51.545,39.248,51.529,39.265,51.5,39.265z"/>
<path fill="#018BC9" d="M51.288,40.544v-0.196c0-0.025,0.012-0.044,0.038-0.053l0.207-0.064v-0.525l-0.207-0.065
	c-0.026-0.008-0.038-0.027-0.038-0.053v-0.195c0-0.034,0.02-0.05,0.052-0.039l1.277,0.435c0.025,0.008,0.038,0.028,0.038,0.054
	v0.253c0,0.026-0.013,0.046-0.038,0.054l-1.277,0.436C51.308,40.594,51.288,40.578,51.288,40.544z M51.786,40.149l0.57-0.183
	l-0.57-0.182V40.149z"/>
<path fill="#018BC9" d="M52.608,41.459h-0.164c-0.029,0-0.047-0.017-0.047-0.046V41.13h-1.063c-0.029,0-0.046-0.017-0.046-0.047
	v-0.176c0-0.029,0.017-0.046,0.046-0.046h1.063v-0.283c0-0.03,0.018-0.047,0.047-0.047h0.164c0.031,0,0.047,0.017,0.047,0.047v0.552
	v0.283C52.655,41.442,52.64,41.459,52.608,41.459z"/>
<path fill="#018BC9" d="M10.58,37.329c0,1.078-0.847,1.645-1.793,1.645c-0.894,0-1.699-0.506-1.786-1.467
	c-0.008-0.117,0.059-0.178,0.168-0.178h0.653c0.102,0,0.152,0.057,0.176,0.16c0.063,0.322,0.346,0.523,0.789,0.523
	c0.518,0,0.807-0.277,0.807-0.684c0-0.404-0.289-0.684-0.807-0.684H8.421c-0.109,0-0.17-0.061-0.17-0.17V36.11
	c0-0.082,0.024-0.145,0.073-0.213l0.841-1.115H7.362c-0.108,0-0.17-0.063-0.17-0.172v-0.584c0-0.109,0.062-0.17,0.17-0.17h2.815
	c0.11,0,0.171,0.061,0.171,0.17v0.531c0,0.08-0.025,0.143-0.073,0.211l-0.854,1.123C10.082,36.085,10.58,36.585,10.58,37.329z"/>
<path fill="#018BC9" d="M12.129,33.856h0.7c0.109,0,0.171,0.061,0.171,0.17v4.68c0,0.111-0.062,0.172-0.171,0.172h-0.646
	c-0.108,0-0.17-0.061-0.17-0.172v-3.857l-0.971,0.533c-0.116,0.068-0.204,0.014-0.204-0.117V34.64c0-0.09,0.036-0.158,0.117-0.205
	l0.96-0.525C11.984,33.868,12.048,33.856,12.129,33.856z"/>
<path fill="#018BC9" d="M9.021,30.901v1.926c0,0.045-0.024,0.07-0.069,0.07H8.686c-0.045,0-0.07-0.025-0.07-0.07v-1.316
	l-0.435,1.002C8.166,32.55,8.139,32.565,8.1,32.565H7.922c-0.04,0-0.066-0.016-0.082-0.053l-0.434-1.002v1.316
	c0,0.045-0.025,0.07-0.07,0.07H7.07c-0.045,0-0.07-0.025-0.07-0.07v-1.926c0-0.045,0.025-0.07,0.07-0.07h0.266h0.069
	c0.039,0,0.066,0.018,0.081,0.055l0.524,1.209l0.524-1.209c0.015-0.037,0.042-0.055,0.081-0.055h0.202h0.133
	C8.996,30.831,9.021,30.856,9.021,30.901z"/>
<path fill="#018BC9" d="M11.047,32.897h-0.296c-0.039,0-0.067-0.02-0.079-0.059l-0.1-0.313H9.78l-0.1,0.313
	c-0.012,0.039-0.04,0.059-0.079,0.059H9.307c-0.052,0-0.075-0.029-0.059-0.08l0.656-1.928c0.012-0.037,0.042-0.059,0.081-0.059
	h0.382c0.039,0,0.069,0.021,0.081,0.059l0.656,1.928C11.122,32.868,11.098,32.897,11.047,32.897z M10.451,32.146l-0.274-0.863
	l-0.275,0.863H10.451z"/>
<path fill="#018BC9" d="M12.94,32.897h-0.313c-0.036,0-0.064-0.012-0.087-0.043l-0.55-0.674h-0.253v0.646
	c0,0.045-0.025,0.07-0.07,0.07h-0.266c-0.044,0-0.069-0.025-0.069-0.07v-1.926c0-0.045,0.025-0.07,0.069-0.07h0.336h0.376
	c0.38,0,0.686,0.307,0.686,0.686c0,0.256-0.156,0.486-0.385,0.596l0.566,0.697C13.019,32.854,12.999,32.897,12.94,32.897z
	 M11.738,31.823h0.376c0.154,0,0.28-0.135,0.28-0.307c0-0.17-0.126-0.305-0.28-0.305h-0.376V31.823z"/>
<path fill="#018BC9" d="M7.001,41.887v-0.189c0-0.035,0.01-0.063,0.037-0.09l0.686-0.691c0.135-0.137,0.248-0.295,0.248-0.445
	c0-0.18-0.107-0.275-0.264-0.275c-0.154,0-0.26,0.064-0.285,0.215c-0.006,0.047-0.031,0.07-0.074,0.07H7.073
	c-0.047,0-0.072-0.025-0.07-0.074c0.035-0.43,0.361-0.619,0.695-0.619c0.346,0,0.693,0.215,0.693,0.684
	c0,0.244-0.152,0.484-0.336,0.666l-0.43,0.418h0.727c0.047,0,0.072,0.025,0.072,0.072v0.26c0,0.045-0.025,0.072-0.072,0.072H7.073
	C7.026,41.959,7.001,41.932,7.001,41.887z"/>
<path fill="#018BC9" d="M8.601,40.893c0-0.656,0.309-1.105,0.852-1.105s0.854,0.449,0.854,1.105c0,0.658-0.311,1.107-0.854,1.107
	S8.601,41.551,8.601,40.893z M9.886,40.893c0-0.449-0.148-0.697-0.434-0.697s-0.434,0.248-0.434,0.697
	c0,0.451,0.148,0.699,0.434,0.699S9.886,41.344,9.886,40.893z"/>
<path fill="#018BC9" d="M10.993,39.828h0.299c0.045,0,0.072,0.025,0.072,0.072v1.986c0,0.045-0.027,0.072-0.072,0.072h-0.275
	c-0.045,0-0.072-0.027-0.072-0.072V40.25l-0.41,0.225c-0.051,0.029-0.088,0.006-0.088-0.049V40.16c0-0.037,0.016-0.066,0.049-0.086
	l0.408-0.225C10.933,39.832,10.96,39.828,10.993,39.828z"/>
<path fill="#018BC9" d="M11.694,39.828h1.232c0.047,0,0.074,0.025,0.074,0.072v0.236c0,0.033-0.008,0.059-0.018,0.09l-0.682,1.678
	c-0.016,0.037-0.043,0.055-0.084,0.055h-0.293c-0.053,0-0.076-0.033-0.055-0.084l0.668-1.646h-0.844
	c-0.045,0-0.072-0.025-0.072-0.072V39.9C11.622,39.854,11.649,39.828,11.694,39.828z"/>
</svg>
