<?xml version="1.0" encoding="utf-8"?>
<!-- Generator: Adobe Illustrator 15.0.0, SVG Export Plug-In . SVG Version: 6.00 Build 0)  -->
<!DOCTYPE svg PUBLIC "-//W3C//DTD SVG 1.1//EN" "http://www.w3.org/Graphics/SVG/1.1/DTD/svg11.dtd" [
	<!ENTITY ns_flows "http://ns.adobe.com/Flows/1.0/">
	<!ENTITY ns_extend "http://ns.adobe.com/Extensibility/1.0/">
	<!ENTITY ns_ai "http://ns.adobe.com/AdobeIllustrator/10.0/">
	<!ENTITY ns_graphs "http://ns.adobe.com/Graphs/1.0/">
]>
<svg version="1.1" id="Layer_1" xmlns:x="&ns_extend;" xmlns:i="&ns_ai;" xmlns:graph="&ns_graphs;"
	 xmlns="http://www.w3.org/2000/svg" xmlns:xlink="http://www.w3.org/1999/xlink" xmlns:a="http://ns.adobe.com/AdobeSVGViewerExtensions/3.0/"
	 x="0px" y="0px" width="64px" height="64px" viewBox="0 0 64 64" enable-background="new 0 0 64 64" xml:space="preserve">
<path fill="#E8000D" d="M64,39.404H53.688v3.101c1.312,0.734,0,1.65,0,1.65v7.395H64v-7.395c0,0-1.267-1.016,0-1.65V39.404z"/>
<path fill="#E6EBEF" d="M64,37.281c0,0-7.937,0-9.23,0c-0.752,0-1.081,0.367-1.081,1.201c0,0.227,0,0.564,0,0.922H64V37.281z"/>
<rect x="53.688" y="42.505" fill="#E6EBEF" width="10.312" height="1.65"/>
<polygon fill="#990000" points="7.705,56.717 0.867,59.064 1.166,58.041 8.019,54.948 "/>
<path fill="#E8000D" d="M9.666,60.002c-1.449-1.572-1.779-3.707-1.779-3.707s-4.294,1.324-7.439,2.582
	C-0.016,59.063,0,60.002,0,60.002H9.666z"/>
<path fill="#302C3B" d="M25.66,48.331h-1.047c0,0,0-3.16,0-4.129c0-0.291,1.047-0.291,1.047,0
	C25.66,45.171,25.66,48.331,25.66,48.331z"/>
<path fill="#E8000D" d="M33.159,44.829c0,0,0-2.537,0-3.734c0-0.403,3.007,0.074,3.007-0.343c0-0.623,0-1.52,0-1.879
	c0-0.438-1.5-0.514-1.5-0.77c0-0.938,0-4.104,0-4.104c4.69,0,7.219,3.172,8.395,4.381C41.885,43.888,33.159,44.829,33.159,44.829z"
	/>
<path fill="#E6EBEF" d="M33.159,44.829c0,0,8.226-3.039,9.901-6.448c0,0,5.023,5.507,9.013,8.452
	C49.22,50.087,33.159,44.829,33.159,44.829z"/>
<path fill="#C21413" d="M39.162,40.656c-2.247,0.687-3.661,1.153-3.661,0.757c0-0.499,0-2.673,0-3.522
	c0-0.547,1.104,0.047,3.661,1.512C39.431,39.557,39.456,40.566,39.162,40.656z"/>
<path fill="#C21413" d="M13.912,47.849c4.756-1.869,6.299-4.115,8.933-4.115c0.202,1.59,1.688,2.066,3.513,2.066
	c2.566,0,7.873-1.537,10.069-1.537c6.018,0,17.156,1.215,21.509,7.357C53.342,62.117,39.309,53.819,13.912,47.849z"/>
<polygon fill="#302C3B" points="22.513,44.778 21.468,44.778 21.787,43.188 22.832,43.188 "/>
<path fill="#E8000D" d="M24.336,43.136v-1.934c0-0.815-2.732-0.148-2.73,0.539v1.379C21.605,43.409,24.336,43.808,24.336,43.136z"/>
<path fill="#E8000D" d="M1.934,56.643c-0.205,0.182-1.202,1.844-0.867,1.686c16.723-7.88,23.861-2.248,23.861-2.248v3.461h32.004
	c0-4.864-10.798-15.558-41.742-11.011C11.28,49.544,5.155,53.782,1.934,56.643z"/>
<path fill="#CFD8DD" d="M32.47,60.002c-4.729,0-8.189,0-8.189,0s0-5.063,0-6.675c0-1.031,1.165-0.25,8.189,4.065
	C33.043,57.746,33.145,60.002,32.47,60.002z"/>
<linearGradient id="SVGID_1_" gradientUnits="userSpaceOnUse" x1="39.4092" y1="52.249" x2="48.2522" y2="61.092">
	<stop  offset="0" style="stop-color:#C40000"/>
	<stop  offset="0.2617" style="stop-color:#CE0002"/>
	<stop  offset="0.7096" style="stop-color:#EA0009"/>
	<stop  offset="1" style="stop-color:#FF000E"/>
	<a:midPointStop  offset="0" style="stop-color:#C40000"/>
	<a:midPointStop  offset="0.5879" style="stop-color:#C40000"/>
	<a:midPointStop  offset="1" style="stop-color:#FF000E"/>
</linearGradient>
<path fill="url(#SVGID_1_)" d="M49.803,59.541h-10.24v-7.446c5.631,0.705,10.24,3.409,10.24,3.409V59.541z"/>
<radialGradient id="SVGID_2_" cx="-25.5869" cy="96.1924" r="6.5066" gradientTransform="matrix(1.1526 0 0 1.1527 45.4398 -56.3783)" gradientUnits="userSpaceOnUse">
	<stop  offset="0" style="stop-color:#5B666E"/>
	<stop  offset="0.3" style="stop-color:#525A64"/>
	<stop  offset="0.8392" style="stop-color:#3C3B49"/>
	<stop  offset="1" style="stop-color:#343040"/>
	<a:midPointStop  offset="0" style="stop-color:#5B666E"/>
	<a:midPointStop  offset="0.5765" style="stop-color:#5B666E"/>
	<a:midPointStop  offset="1" style="stop-color:#343040"/>
</radialGradient>
<circle fill="url(#SVGID_2_)" cx="15.948" cy="54.499" r="7.5"/>
<circle fill="#302C3B" cx="15.948" cy="54.499" r="4.688"/>
<path fill="#CFD8DD" d="M20.119,54.032c-0.018-0.158-0.029-0.318-0.065-0.469h-1.841l1.299-1.301
	c-0.084-0.137-0.182-0.258-0.279-0.383l-1.684,1.684h-0.663v-0.664l1.683-1.684c-0.124-0.098-0.247-0.195-0.383-0.279l-1.3,1.301
	v-1.844c-0.151-0.035-0.312-0.047-0.47-0.064v2.377l-0.469,0.467l-0.468-0.469v-2.375c-0.158,0.018-0.317,0.029-0.47,0.064v1.842
	l-1.299-1.299c-0.135,0.084-0.259,0.182-0.382,0.279l1.681,1.684v0.664h-0.663l-1.683-1.682c-0.098,0.123-0.195,0.246-0.28,0.381
	l1.3,1.301h-1.842c-0.034,0.15-0.048,0.311-0.064,0.469h2.375l0.469,0.467l-0.469,0.469h-2.376c0.018,0.159,0.03,0.319,0.065,0.47
	h1.842l-1.3,1.301c0.084,0.137,0.181,0.258,0.28,0.383l1.683-1.684h0.663v0.664l-1.681,1.684c0.123,0.098,0.247,0.195,0.382,0.279
	l1.299-1.299v1.842c0.152,0.035,0.312,0.047,0.47,0.064v-2.375l0.468-0.469l0.469,0.467v2.377c0.158-0.018,0.318-0.029,0.47-0.064
	v-1.844l1.3,1.303c0.137-0.086,0.259-0.184,0.383-0.281l-1.683-1.684v-0.664h0.663l1.684,1.684c0.098-0.123,0.195-0.246,0.281-0.383
	l-1.301-1.301h1.842c0.035-0.15,0.047-0.311,0.064-0.47h-2.376l-0.469-0.469l0.469-0.467H20.119z"/>
<circle fill="#99A8AE" cx="15.947" cy="54.501" r="1.875"/>
<circle fill="#B3C2C6" cx="15.949" cy="54.501" r="1.406"/>
<path fill="#B3C2C6" d="M15.947,50.282c-2.33,0-4.219,1.887-4.219,4.217c0,2.333,1.889,4.22,4.219,4.22
	c2.332,0,4.22-1.887,4.22-4.22C20.167,52.169,18.279,50.282,15.947,50.282z M15.947,58.25c-2.071,0-3.749-1.68-3.749-3.751
	c0-2.068,1.678-3.748,3.749-3.748c2.072,0,3.75,1.68,3.75,3.748C19.697,56.57,18.02,58.25,15.947,58.25z"/>
<radialGradient id="SVGID_3_" cx="6.9121" cy="96.1924" r="6.5063" gradientTransform="matrix(1.1526 0 0 1.1527 45.4398 -56.3783)" gradientUnits="userSpaceOnUse">
	<stop  offset="0" style="stop-color:#5B666E"/>
	<stop  offset="0.3" style="stop-color:#525A64"/>
	<stop  offset="0.8392" style="stop-color:#3C3B49"/>
	<stop  offset="1" style="stop-color:#343040"/>
	<a:midPointStop  offset="0" style="stop-color:#5B666E"/>
	<a:midPointStop  offset="0.5765" style="stop-color:#5B666E"/>
	<a:midPointStop  offset="1" style="stop-color:#343040"/>
</radialGradient>
<circle fill="url(#SVGID_3_)" cx="53.406" cy="54.499" r="7.5"/>
<circle fill="#302C3B" cx="53.406" cy="54.499" r="4.688"/>
<path fill="#CFD8DD" d="M57.577,54.032c-0.017-0.158-0.029-0.318-0.064-0.469H55.67l1.3-1.301c-0.083-0.137-0.181-0.258-0.279-0.383
	l-1.684,1.684h-0.663v-0.664l1.683-1.684c-0.124-0.098-0.247-0.195-0.382-0.279l-1.301,1.301v-1.844
	c-0.151-0.035-0.311-0.047-0.469-0.064v2.377l-0.469,0.467l-0.469-0.469v-2.375c-0.158,0.018-0.317,0.029-0.469,0.064v1.842
	l-1.3-1.299c-0.135,0.084-0.258,0.182-0.382,0.279l1.682,1.684v0.664h-0.663l-1.683-1.682c-0.098,0.123-0.196,0.246-0.28,0.381
	l1.3,1.301H49.3c-0.034,0.15-0.048,0.311-0.064,0.469h2.376l0.468,0.467l-0.468,0.469h-2.377c0.018,0.159,0.03,0.319,0.065,0.47
	h1.843l-1.3,1.301c0.083,0.137,0.181,0.258,0.279,0.383l1.684-1.684h0.663v0.664l-1.682,1.684c0.124,0.098,0.247,0.195,0.382,0.279
	l1.3-1.299v1.842c0.151,0.035,0.311,0.047,0.469,0.064v-2.375l0.469-0.469l0.469,0.467v2.377c0.158-0.018,0.317-0.029,0.469-0.064
	v-1.844l1.301,1.303c0.136-0.086,0.258-0.184,0.383-0.281l-1.684-1.684v-0.664h0.663l1.684,1.684
	c0.099-0.123,0.196-0.246,0.28-0.383l-1.301-1.301h1.844c0.034-0.15,0.047-0.311,0.064-0.47h-2.377l-0.468-0.469l0.468-0.467H57.577
	z"/>
<circle fill="#99A8AE" cx="53.406" cy="54.501" r="1.874"/>
<circle fill="#B3C2C6" cx="53.407" cy="54.501" r="1.406"/>
<path fill="#B3C2C6" d="M53.405,50.282c-2.331,0-4.218,1.887-4.218,4.217c0,2.333,1.887,4.22,4.218,4.22
	c2.333,0,4.22-1.887,4.22-4.22C57.625,52.169,55.738,50.282,53.405,50.282z M53.405,58.25c-2.07,0-3.749-1.68-3.749-3.751
	c0-2.068,1.679-3.748,3.749-3.748c2.072,0,3.751,1.68,3.751,3.748C57.156,56.57,55.478,58.25,53.405,58.25z"/>
</svg>
