<?xml version="1.0" encoding="utf-8"?>
<!-- Generator: Adobe Illustrator 15.0.0, SVG Export Plug-In . SVG Version: 6.00 Build 0)  -->
<!DOCTYPE svg PUBLIC "-//W3C//DTD SVG 1.1//EN" "http://www.w3.org/Graphics/SVG/1.1/DTD/svg11.dtd" [
	<!ENTITY ns_flows "http://ns.adobe.com/Flows/1.0/">
	<!ENTITY ns_extend "http://ns.adobe.com/Extensibility/1.0/">
	<!ENTITY ns_ai "http://ns.adobe.com/AdobeIllustrator/10.0/">
	<!ENTITY ns_graphs "http://ns.adobe.com/Graphs/1.0/">
]>
<svg version="1.1" id="Layer_1" xmlns:x="&ns_extend;" xmlns:i="&ns_ai;" xmlns:graph="&ns_graphs;"
	 xmlns="http://www.w3.org/2000/svg" xmlns:xlink="http://www.w3.org/1999/xlink" xmlns:a="http://ns.adobe.com/AdobeSVGViewerExtensions/3.0/"
	 x="0px" y="0px" width="64px" height="64px" viewBox="0 0 64 64" enable-background="new 0 0 64 64" xml:space="preserve">
<linearGradient id="SVGID_1_" gradientUnits="userSpaceOnUse" x1="6.1699" y1="26.4307" x2="62" y2="26.4307">
	<stop  offset="0" style="stop-color:#1F1C26"/>
	<stop  offset="0.1492" style="stop-color:#2C2B36"/>
	<stop  offset="0.3276" style="stop-color:#373743"/>
	<stop  offset="0.5" style="stop-color:#3A3B47"/>
	<stop  offset="0.6724" style="stop-color:#373743"/>
	<stop  offset="0.8508" style="stop-color:#2C2B36"/>
	<stop  offset="1" style="stop-color:#1F1C26"/>
	<a:midPointStop  offset="0" style="stop-color:#1F1C26"/>
	<a:midPointStop  offset="0.3" style="stop-color:#1F1C26"/>
	<a:midPointStop  offset="0.5" style="stop-color:#3A3B47"/>
	<a:midPointStop  offset="0.7" style="stop-color:#3A3B47"/>
	<a:midPointStop  offset="1" style="stop-color:#1F1C26"/>
</linearGradient>
<path fill="url(#SVGID_1_)" d="M62,45.967c-4.652-1.466-9.304-1.831-13.956-1.647c-7.729-6.711-13.959,1.647-13.959,1.647
	c-4.653,0.732-9.305,1.465-13.957,1.648L6.17,36.199V6.896c4.653,1.464,9.305,1.829,13.958,1.646c0,0,7.851,8.121,13.957-1.646
	c4.653-0.734,9.302-1.649,13.957-1.649L62,16.662v9.768c-4.403,4.786,0,9.77,0,9.77V45.967z"/>
<linearGradient id="SVGID_2_" gradientUnits="userSpaceOnUse" x1="6.0044" y1="12.6025" x2="61.6673" y2="12.6025">
	<stop  offset="0" style="stop-color:#CFD8DD"/>
	<stop  offset="0.1378" style="stop-color:#DDE5EA"/>
	<stop  offset="0.3219" style="stop-color:#EAF1F6"/>
	<stop  offset="0.5" style="stop-color:#EEF5FA"/>
	<stop  offset="0.6781" style="stop-color:#EAF1F6"/>
	<stop  offset="0.8622" style="stop-color:#DDE5EA"/>
	<stop  offset="1" style="stop-color:#CFD8DD"/>
	<a:midPointStop  offset="0" style="stop-color:#CFD8DD"/>
	<a:midPointStop  offset="0.3" style="stop-color:#CFD8DD"/>
	<a:midPointStop  offset="0.5" style="stop-color:#EEF5FA"/>
	<a:midPointStop  offset="0.7" style="stop-color:#EEF5FA"/>
	<a:midPointStop  offset="1" style="stop-color:#CFD8DD"/>
</linearGradient>
<path fill="url(#SVGID_2_)" d="M34.085,16.662c-4.653,0.732-9.305,1.465-13.957,1.647c0-3.254,0-6.511,0-9.769
	c4.652-0.182,9.304-0.915,13.957-1.646C34.085,10.149,34.085,13.407,34.085,16.662z"/>
<linearGradient id="SVGID_3_" gradientUnits="userSpaceOnUse" x1="6.0015" y1="10.9541" x2="61.6682" y2="10.9541">
	<stop  offset="0" style="stop-color:#CFD8DD"/>
	<stop  offset="0.1378" style="stop-color:#DDE5EA"/>
	<stop  offset="0.3219" style="stop-color:#EAF1F6"/>
	<stop  offset="0.5" style="stop-color:#EEF5FA"/>
	<stop  offset="0.6781" style="stop-color:#EAF1F6"/>
	<stop  offset="0.8622" style="stop-color:#DDE5EA"/>
	<stop  offset="1" style="stop-color:#CFD8DD"/>
	<a:midPointStop  offset="0" style="stop-color:#CFD8DD"/>
	<a:midPointStop  offset="0.3" style="stop-color:#CFD8DD"/>
	<a:midPointStop  offset="0.5" style="stop-color:#EEF5FA"/>
	<a:midPointStop  offset="0.7" style="stop-color:#EEF5FA"/>
	<a:midPointStop  offset="1" style="stop-color:#CFD8DD"/>
</linearGradient>
<path fill="url(#SVGID_3_)" d="M62,16.662c-4.653-1.465-9.304-1.831-13.958-1.647c0-3.258,0-6.516,0-9.769
	c4.828,0,9.305,0.184,13.958,1.649C62,10.149,62,13.407,62,16.662z"/>
<linearGradient id="SVGID_4_" gradientUnits="userSpaceOnUse" x1="6.0034" y1="22.3921" x2="61.6702" y2="22.3921">
	<stop  offset="0" style="stop-color:#CFD8DD"/>
	<stop  offset="0.1378" style="stop-color:#DDE5EA"/>
	<stop  offset="0.3219" style="stop-color:#EAF1F6"/>
	<stop  offset="0.5" style="stop-color:#EEF5FA"/>
	<stop  offset="0.6781" style="stop-color:#EAF1F6"/>
	<stop  offset="0.8622" style="stop-color:#DDE5EA"/>
	<stop  offset="1" style="stop-color:#CFD8DD"/>
	<a:midPointStop  offset="0" style="stop-color:#CFD8DD"/>
	<a:midPointStop  offset="0.3" style="stop-color:#CFD8DD"/>
	<a:midPointStop  offset="0.5" style="stop-color:#EEF5FA"/>
	<a:midPointStop  offset="0.7" style="stop-color:#EEF5FA"/>
	<a:midPointStop  offset="1" style="stop-color:#CFD8DD"/>
</linearGradient>
<path fill="url(#SVGID_4_)" d="M20.128,28.078c-4.653,0.185-9.305-0.183-13.958-1.648c0-3.255,0-6.512,0-9.768
	c4.653,1.465,9.305,1.831,13.958,1.647C20.128,21.568,20.128,24.823,20.128,28.078z"/>
<linearGradient id="SVGID_5_" gradientUnits="userSpaceOnUse" x1="6.0044" y1="20.7222" x2="61.6673" y2="20.7222">
	<stop  offset="0" style="stop-color:#CFD8DD"/>
	<stop  offset="0.1378" style="stop-color:#DDE5EA"/>
	<stop  offset="0.3219" style="stop-color:#EAF1F6"/>
	<stop  offset="0.5" style="stop-color:#EEF5FA"/>
	<stop  offset="0.6781" style="stop-color:#EAF1F6"/>
	<stop  offset="0.8622" style="stop-color:#DDE5EA"/>
	<stop  offset="1" style="stop-color:#CFD8DD"/>
	<a:midPointStop  offset="0" style="stop-color:#CFD8DD"/>
	<a:midPointStop  offset="0.3" style="stop-color:#CFD8DD"/>
	<a:midPointStop  offset="0.5" style="stop-color:#EEF5FA"/>
	<a:midPointStop  offset="0.7" style="stop-color:#EEF5FA"/>
	<a:midPointStop  offset="1" style="stop-color:#CFD8DD"/>
</linearGradient>
<path fill="url(#SVGID_5_)" d="M48.042,24.783c-4.652,0.182-9.304,0.916-13.957,1.646c0-3.255,0-6.512,0-9.768
	c4.653-0.732,9.305-1.465,13.957-1.647C48.042,18.271,48.042,21.525,48.042,24.783z"/>
<linearGradient id="SVGID_6_" gradientUnits="userSpaceOnUse" x1="6.0044" y1="32.1387" x2="61.6673" y2="32.1387">
	<stop  offset="0" style="stop-color:#CFD8DD"/>
	<stop  offset="0.1378" style="stop-color:#DDE5EA"/>
	<stop  offset="0.3219" style="stop-color:#EAF1F6"/>
	<stop  offset="0.5" style="stop-color:#EEF5FA"/>
	<stop  offset="0.6781" style="stop-color:#EAF1F6"/>
	<stop  offset="0.8622" style="stop-color:#DDE5EA"/>
	<stop  offset="1" style="stop-color:#CFD8DD"/>
	<a:midPointStop  offset="0" style="stop-color:#CFD8DD"/>
	<a:midPointStop  offset="0.3" style="stop-color:#CFD8DD"/>
	<a:midPointStop  offset="0.5" style="stop-color:#EEF5FA"/>
	<a:midPointStop  offset="0.7" style="stop-color:#EEF5FA"/>
	<a:midPointStop  offset="1" style="stop-color:#CFD8DD"/>
</linearGradient>
<path fill="url(#SVGID_6_)" d="M34.085,36.199c-4.653,0.732-9.305,1.465-13.957,1.648c0-3.256,0-6.512,0-9.77
	c4.652-0.183,9.304-0.915,13.957-1.648C34.085,29.687,34.085,32.943,34.085,36.199z"/>
<linearGradient id="SVGID_7_" gradientUnits="userSpaceOnUse" x1="6.0015" y1="30.4692" x2="61.6682" y2="30.4692">
	<stop  offset="0" style="stop-color:#CFD8DD"/>
	<stop  offset="0.1378" style="stop-color:#DDE5EA"/>
	<stop  offset="0.3219" style="stop-color:#EAF1F6"/>
	<stop  offset="0.5" style="stop-color:#EEF5FA"/>
	<stop  offset="0.6781" style="stop-color:#EAF1F6"/>
	<stop  offset="0.8622" style="stop-color:#DDE5EA"/>
	<stop  offset="1" style="stop-color:#CFD8DD"/>
	<a:midPointStop  offset="0" style="stop-color:#CFD8DD"/>
	<a:midPointStop  offset="0.3" style="stop-color:#CFD8DD"/>
	<a:midPointStop  offset="0.5" style="stop-color:#EEF5FA"/>
	<a:midPointStop  offset="0.7" style="stop-color:#EEF5FA"/>
	<a:midPointStop  offset="1" style="stop-color:#CFD8DD"/>
</linearGradient>
<path fill="url(#SVGID_7_)" d="M62,36.199c-4.653-1.466-9.304-1.832-13.958-1.648c0-3.258,0-6.515,0-9.768
	C52.696,24.6,57.347,24.965,62,26.43C62,29.687,62,32.943,62,36.199z"/>
<linearGradient id="SVGID_8_" gradientUnits="userSpaceOnUse" x1="6.0034" y1="41.9297" x2="61.6702" y2="41.9297">
	<stop  offset="0" style="stop-color:#CFD8DD"/>
	<stop  offset="0.1378" style="stop-color:#DDE5EA"/>
	<stop  offset="0.3219" style="stop-color:#EAF1F6"/>
	<stop  offset="0.5" style="stop-color:#EEF5FA"/>
	<stop  offset="0.6781" style="stop-color:#EAF1F6"/>
	<stop  offset="0.8622" style="stop-color:#DDE5EA"/>
	<stop  offset="1" style="stop-color:#CFD8DD"/>
	<a:midPointStop  offset="0" style="stop-color:#CFD8DD"/>
	<a:midPointStop  offset="0.3" style="stop-color:#CFD8DD"/>
	<a:midPointStop  offset="0.5" style="stop-color:#EEF5FA"/>
	<a:midPointStop  offset="0.7" style="stop-color:#EEF5FA"/>
	<a:midPointStop  offset="1" style="stop-color:#CFD8DD"/>
</linearGradient>
<path fill="url(#SVGID_8_)" d="M20.128,47.615c-4.653,0.184-9.305-0.184-13.958-1.648c0-3.254,0-6.513,0-9.768
	c4.653,1.465,9.305,1.831,13.958,1.648C20.128,41.104,20.128,44.359,20.128,47.615z"/>
<linearGradient id="SVGID_9_" gradientUnits="userSpaceOnUse" x1="6.0044" y1="40.2588" x2="61.6673" y2="40.2588">
	<stop  offset="0" style="stop-color:#CFD8DD"/>
	<stop  offset="0.1378" style="stop-color:#DDE5EA"/>
	<stop  offset="0.3219" style="stop-color:#EAF1F6"/>
	<stop  offset="0.5" style="stop-color:#EEF5FA"/>
	<stop  offset="0.6781" style="stop-color:#EAF1F6"/>
	<stop  offset="0.8622" style="stop-color:#DDE5EA"/>
	<stop  offset="1" style="stop-color:#CFD8DD"/>
	<a:midPointStop  offset="0" style="stop-color:#CFD8DD"/>
	<a:midPointStop  offset="0.3" style="stop-color:#CFD8DD"/>
	<a:midPointStop  offset="0.5" style="stop-color:#EEF5FA"/>
	<a:midPointStop  offset="0.7" style="stop-color:#EEF5FA"/>
	<a:midPointStop  offset="1" style="stop-color:#CFD8DD"/>
</linearGradient>
<path fill="url(#SVGID_9_)" d="M48.042,44.319c-4.652,0.182-9.304,0.915-13.957,1.647c0-3.254,0-6.513,0-9.768
	c4.653-0.733,9.305-1.466,13.957-1.648C48.042,37.807,48.042,41.063,48.042,44.319z"/>
<linearGradient id="SVGID_10_" gradientUnits="userSpaceOnUse" x1="3.5" y1="35.3496" x2="6.5" y2="35.3496">
	<stop  offset="0" style="stop-color:#9CA4A6"/>
	<stop  offset="0.0763" style="stop-color:#B6BEC0"/>
	<stop  offset="0.1689" style="stop-color:#CED6D8"/>
	<stop  offset="0.2669" style="stop-color:#DFE7E9"/>
	<stop  offset="0.3726" style="stop-color:#EAF1F4"/>
	<stop  offset="0.5" style="stop-color:#EDF4F7"/>
	<stop  offset="1" style="stop-color:#9CA4A6"/>
	<a:midPointStop  offset="0" style="stop-color:#9CA4A6"/>
	<a:midPointStop  offset="0.2561" style="stop-color:#9CA4A6"/>
	<a:midPointStop  offset="0.5" style="stop-color:#EDF4F7"/>
	<a:midPointStop  offset="0.5" style="stop-color:#EDF4F7"/>
	<a:midPointStop  offset="1" style="stop-color:#9CA4A6"/>
</linearGradient>
<path fill="url(#SVGID_10_)" d="M3.5,7.051c0,0.859,0,52.131,0,56.207c0,0.988,3,0.99,3,0.002c0-3.836,0-55.328,0-56.207
	C6.5,6.582,3.5,6.58,3.5,7.051z"/>
<radialGradient id="SVGID_11_" cx="4.25" cy="2" r="3.8459" gradientUnits="userSpaceOnUse">
	<stop  offset="0" style="stop-color:#EDF4F7"/>
	<stop  offset="0.1913" style="stop-color:#E7EEF1"/>
	<stop  offset="0.4574" style="stop-color:#D5DCDF"/>
	<stop  offset="0.766" style="stop-color:#B7BFC1"/>
	<stop  offset="1" style="stop-color:#9CA4A6"/>
	<a:midPointStop  offset="0" style="stop-color:#EDF4F7"/>
	<a:midPointStop  offset="0.6364" style="stop-color:#EDF4F7"/>
	<a:midPointStop  offset="1" style="stop-color:#9CA4A6"/>
</radialGradient>
<circle fill="url(#SVGID_11_)" cx="5" cy="3" r="3"/>
<linearGradient id="SVGID_12_" gradientUnits="userSpaceOnUse" x1="3.958" y1="6.5176" x2="6.042" y2="6.5176">
	<stop  offset="0" style="stop-color:#9CA4A6"/>
	<stop  offset="0.0218" style="stop-color:#A2AAAC"/>
	<stop  offset="0.1264" style="stop-color:#BAC2C4"/>
	<stop  offset="0.2369" style="stop-color:#CBD3D5"/>
	<stop  offset="0.3562" style="stop-color:#D5DDE0"/>
	<stop  offset="0.5" style="stop-color:#D8E0E3"/>
	<stop  offset="1" style="stop-color:#9CA4A6"/>
	<a:midPointStop  offset="0" style="stop-color:#9CA4A6"/>
	<a:midPointStop  offset="0.2561" style="stop-color:#9CA4A6"/>
	<a:midPointStop  offset="0.5" style="stop-color:#D8E0E3"/>
	<a:midPointStop  offset="0.5" style="stop-color:#D8E0E3"/>
	<a:midPointStop  offset="1" style="stop-color:#9CA4A6"/>
</linearGradient>
<path fill="url(#SVGID_12_)" d="M3.958,5.822v1.156c0,0.311,2.084,0.313,2.084,0V5.822H3.958z"/>
</svg>
