<?xml version="1.0" encoding="utf-8"?>
<!-- Generator: Adobe Illustrator 15.0.0, SVG Export Plug-In . SVG Version: 6.00 Build 0)  -->
<!DOCTYPE svg PUBLIC "-//W3C//DTD SVG 1.1//EN" "http://www.w3.org/Graphics/SVG/1.1/DTD/svg11.dtd" [
	<!ENTITY ns_flows "http://ns.adobe.com/Flows/1.0/">
	<!ENTITY ns_extend "http://ns.adobe.com/Extensibility/1.0/">
	<!ENTITY ns_ai "http://ns.adobe.com/AdobeIllustrator/10.0/">
	<!ENTITY ns_graphs "http://ns.adobe.com/Graphs/1.0/">
]>
<svg version="1.1" id="Layer_1" xmlns:x="&ns_extend;" xmlns:i="&ns_ai;" xmlns:graph="&ns_graphs;"
	 xmlns="http://www.w3.org/2000/svg" xmlns:xlink="http://www.w3.org/1999/xlink" xmlns:a="http://ns.adobe.com/AdobeSVGViewerExtensions/3.0/"
	 x="0px" y="0px" width="64px" height="64px" viewBox="0 0 64 64" enable-background="new 0 0 64 64" xml:space="preserve">
<polygon fill="#CFD8DD" points="2,49 2,62 4,62 4,51 21,51 21,49 "/>
<path fill="#FF000E" d="M2.75,47.963c-0.412,0-0.75,0.338-0.75,0.75v1.25h19v-2H2.75z"/>
<path fill="#FF000E" d="M4.902,47.664v0.232c0,0.043-0.023,0.065-0.066,0.065H3.885H3.826c-0.043,0-0.066-0.022-0.066-0.065v-1.793
	c0-0.043,0.023-0.066,0.066-0.066h0.313h0.685c0.043,0,0.065,0.023,0.065,0.066v0.231c0,0.041-0.022,0.063-0.065,0.063H4.139v0.412
	h0.615c0.043,0,0.064,0.023,0.064,0.064V47.1c0,0.043-0.021,0.066-0.064,0.066H4.139V47.6h0.697
	C4.879,47.6,4.902,47.623,4.902,47.664z"/>
<path fill="#FF000E" d="M7.059,46.104v1.793c0,0.043-0.022,0.066-0.065,0.066H6.746c-0.043,0-0.066-0.023-0.066-0.066V46.67
	l-0.404,0.936c-0.014,0.035-0.039,0.05-0.075,0.05H6.033c-0.037,0-0.063-0.015-0.076-0.05L5.553,46.67v1.227
	c0,0.043-0.023,0.066-0.064,0.066h-0.25c-0.041,0-0.064-0.023-0.064-0.066v-1.793c0-0.043,0.023-0.065,0.064-0.065h0.248h0.064
	c0.036,0,0.063,0.017,0.075,0.049l0.489,1.129l0.488-1.129c0.015-0.032,0.039-0.049,0.076-0.049h0.188H6.99
	C7.035,46.037,7.059,46.061,7.059,46.104z"/>
<path fill="#FF000E" d="M8.561,47.664v0.232c0,0.043-0.022,0.065-0.063,0.065H7.543H7.484c-0.041,0-0.064-0.022-0.064-0.065v-1.793
	c0-0.043,0.023-0.066,0.064-0.066h0.313h0.686c0.041,0,0.064,0.023,0.064,0.066v0.231c0,0.041-0.023,0.063-0.064,0.063H7.797v0.412
	h0.616c0.042,0,0.065,0.023,0.065,0.064V47.1c0,0.043-0.023,0.066-0.065,0.066H7.797V47.6h0.699
	C8.537,47.6,8.561,47.623,8.561,47.664z"/>
<path fill="#FF000E" d="M10.332,47.963h-0.291c-0.034,0-0.061-0.01-0.082-0.039l-0.514-0.629H9.211v0.602
	c0,0.043-0.023,0.066-0.064,0.066H8.898c-0.043,0-0.065-0.023-0.065-0.066v-1.793c0-0.043,0.022-0.065,0.065-0.065h0.313h0.352
	c0.354,0,0.64,0.285,0.64,0.639c0,0.24-0.146,0.453-0.359,0.558l0.529,0.647C10.404,47.924,10.387,47.963,10.332,47.963z
	 M9.211,46.961h0.352c0.144,0,0.262-0.125,0.262-0.285s-0.118-0.283-0.262-0.283H9.211V46.961z"/>
<path fill="#FF000E" d="M12.327,46.996v0.268v0.633c0,0.043-0.022,0.066-0.065,0.066h-0.227c-0.042,0-0.064-0.023-0.064-0.066
	v-0.178C11.834,47.904,11.618,48,11.354,48c-0.547,0-0.959-0.438-0.959-1s0.42-1,1-1c0.429,0,0.793,0.262,0.91,0.611
	c0.016,0.043-0.008,0.072-0.054,0.072h-0.269c-0.035,0-0.059-0.017-0.076-0.048c-0.088-0.153-0.285-0.268-0.512-0.268
	c-0.375,0-0.623,0.262-0.623,0.631c0,0.392,0.261,0.651,0.623,0.651c0.252,0,0.494-0.116,0.555-0.389h-0.471
	c-0.043,0-0.066-0.022-0.066-0.063v-0.203c0-0.043,0.023-0.065,0.066-0.065h0.783C12.305,46.93,12.327,46.953,12.327,46.996z"/>
<path fill="#FF000E" d="M13.788,47.664v0.232c0,0.043-0.022,0.065-0.065,0.065H12.77h-0.058c-0.042,0-0.065-0.022-0.065-0.065
	v-1.793c0-0.043,0.023-0.066,0.065-0.066h0.313h0.685c0.041,0,0.063,0.023,0.063,0.066v0.231c0,0.041-0.022,0.063-0.063,0.063
	h-0.685v0.412h0.615c0.041,0,0.064,0.023,0.064,0.064V47.1c0,0.043-0.023,0.066-0.064,0.066h-0.615V47.6h0.697
	C13.766,47.6,13.788,47.623,13.788,47.664z"/>
<path fill="#FF000E" d="M15.164,46.037h0.247c0.042,0,0.065,0.023,0.065,0.066v1.793c0,0.043-0.023,0.065-0.065,0.065H15.24
	c-0.035,0-0.063-0.014-0.081-0.041l-0.722-1.147v1.123c0,0.043-0.023,0.065-0.064,0.065h-0.248c-0.041,0-0.064-0.022-0.064-0.065
	v-1.793c0-0.043,0.023-0.066,0.064-0.066h0.172c0.034,0,0.063,0.014,0.08,0.043l0.721,1.146v-1.123
	C15.098,46.061,15.121,46.037,15.164,46.037z"/>
<path fill="#FF000E" d="M15.748,47c0-0.563,0.42-1,1.003-1c0.431,0,0.798,0.266,0.915,0.652c0.012,0.043-0.012,0.072-0.057,0.072
	h-0.269c-0.034,0-0.058-0.019-0.073-0.052c-0.086-0.188-0.285-0.305-0.518-0.305c-0.377,0-0.624,0.262-0.624,0.631
	c0,0.371,0.247,0.631,0.624,0.631c0.23,0,0.432-0.116,0.518-0.305c0.017-0.033,0.039-0.052,0.073-0.052h0.269
	c0.045,0,0.07,0.027,0.058,0.068C17.553,47.73,17.184,48,16.751,48C16.168,48,15.748,47.563,15.748,47z"/>
<path fill="#FF000E" d="M19.227,46.115l-0.584,0.992v0.789c0,0.043-0.023,0.065-0.065,0.065h-0.248
	c-0.041,0-0.063-0.022-0.063-0.065v-0.789l-0.584-0.992c-0.027-0.045-0.008-0.078,0.043-0.078h0.287
	c0.036,0,0.061,0.016,0.076,0.047l0.366,0.658l0.364-0.658c0.019-0.031,0.041-0.047,0.078-0.047h0.287
	C19.232,46.037,19.254,46.07,19.227,46.115z"/>
<path fill="#E6EBEF" d="M16.73,52H8.27c-0.213,0-0.386,0.173-0.386,0.385v7.975h9.231v-7.975C17.115,52.173,16.941,52,16.73,52z"/>
<rect x="7.884" y="56.757" fill="#EA8800" width="9.231" height="1.538"/>
<rect x="15.814" y="55.984" fill="#6E8189" width="1.059" height="0.388"/>
<path fill="#B3C2C6" d="M17.5,57.359c0,0.5-0.77,0.5-0.77,0v-1.558c0-0.502,0.77-0.502,0.77,0V57.359z"/>
<rect x="8.126" y="55.984" fill="#6E8189" width="1.06" height="0.388"/>
<path fill="#B3C2C6" d="M7.5,57.359c0,0.5,0.77,0.5,0.77,0v-1.558c0-0.502-0.77-0.502-0.77,0V57.359z"/>
<path fill="#FFFFFF" d="M9.807,54.355c-0.211,0-0.418,0.17-0.457,0.377l-0.623,2.401c-0.039,0.208-0.072,0.552-0.072,0.763v2.642
	c0,0.212,7.691,0.212,7.691,0v-2.642c0-0.211-0.033-0.555-0.074-0.763l-0.621-2.401c-0.041-0.207-0.246-0.377-0.459-0.377H9.807z"/>
<path fill="#302C3B" d="M10.063,54.691c-0.168,0-0.334,0.136-0.367,0.303L9.098,57.21c-0.033,0.167,0.078,0.304,0.248,0.304h6.309
	c0.169,0,0.279-0.137,0.246-0.304l-0.596-2.216c-0.033-0.167-0.199-0.303-0.367-0.303H10.063z"/>
<rect x="8.854" y="58.346" fill="#E6EBEF" width="2.006" height="1.154"/>
<path fill="#EA8800" d="M8.652,58.346c0.1,0,0.199,0,0.199,0V59.5c0,0-0.129,0-0.199,0C8.551,59.5,8.551,58.346,8.652,58.346z"/>
<rect x="9.053" y="58.577" fill="#B3C2C6" width="1.606" height="0.69"/>
<rect x="14.139" y="58.346" fill="#E6EBEF" width="2.008" height="1.154"/>
<path fill="#EA8800" d="M16.348,59.5c-0.101,0-0.201,0-0.201,0v-1.154c0,0,0.131,0,0.201,0C16.447,58.346,16.447,59.5,16.348,59.5z"
	/>
<rect x="14.34" y="58.577" fill="#B3C2C6" width="1.605" height="0.69"/>
<rect x="10.859" y="58.346" fill="#302C3B" width="3.279" height="1.154"/>
<path fill="#302C3B" d="M14.667,60.313v1.447c0,0.32,1.614,0.32,1.614,0v-1.447H14.667z"/>
<path fill="#302C3B" d="M8.717,60.313v1.447c0,0.32,1.615,0.32,1.615,0v-1.447H8.717z"/>
<path fill="#6E8189" d="M16.491,59.835H8.508c-0.318,0-0.318,1.241,0,1.241h7.983C16.811,61.076,16.811,59.835,16.491,59.835z"/>
<path fill="#FF000E" d="M15.393,52.961H9.605c-0.244,0-0.244,0.77,0,0.77h5.787C15.639,53.73,15.639,52.961,15.393,52.961z"/>
<rect x="12.115" y="52.77" fill="#99A8AE" width="0.77" height="1.153"/>
<rect x="21" y="5" fill="#E6EBEF" width="40" height="57"/>
<rect id="Rectangle-path_27_" x="20" y="9" fill="#CFD8DD" width="1" height="1"/>
<rect id="Rectangle-path_26_" x="20" y="20" fill="#CFD8DD" width="1" height="1"/>
<path id="Shape_36_" fill="#FF000E" d="M20,21.857C20,22.486,19.484,23,18.857,23H5.143C4.514,23,4,22.486,4,21.857V8.143
	C4,7.514,4.514,7,5.143,7h13.715C19.484,7,20,7.514,20,8.143V21.857z"/>
<rect id="Rectangle-path_25_" x="7.5" y="13.5" fill="#FFFFFF" width="9" height="3"/>
<rect id="Rectangle-path_24_" x="10.5" y="10.5" fill="#FFFFFF" width="3" height="9"/>
<rect id="Rectangle-path_37_" x="21" y="9" fill="#4ECEE6" width="40" height="9"/>
<rect id="Rectangle-path_29_" x="21" y="22" fill="#4ECEE6" width="40" height="9"/>
<rect id="Rectangle-path_28_" x="21" y="35" fill="#4ECEE6" width="40" height="9"/>
<path fill="#F8F9FA" d="M52.5,51h-23c-0.275,0-0.5,0.225-0.5,0.5V62h24V51.5C53,51.225,52.775,51,52.5,51z"/>
<rect x="30" y="57.007" fill="#4ECEE6" width="4.5" height="4.993"/>
<rect x="35" y="57.007" fill="#4ECEE6" width="5.75" height="4.993"/>
<rect x="30" y="52" fill="#4ECEE6" width="4.5" height="4.507"/>
<rect x="47.5" y="52" fill="#4ECEE6" width="4.5" height="4.507"/>
<rect x="47.5" y="57.007" fill="#4ECEE6" width="4.5" height="4.993"/>
<rect x="41.25" y="57.007" fill="#4ECEE6" width="5.75" height="4.993"/>
<rect x="35" y="51.507" fill="#4ECEE6" width="5.75" height="4.993"/>
<rect x="41.25" y="51.507" fill="#4ECEE6" width="5.75" height="4.993"/>
<linearGradient id="SVGID_1_" gradientUnits="userSpaceOnUse" x1="23.5215" y1="59.3857" x2="26.5859" y2="59.3857">
	<stop  offset="0" style="stop-color:#8A653C"/>
	<stop  offset="0.2032" style="stop-color:#835F38"/>
	<stop  offset="0.5012" style="stop-color:#6F502D"/>
	<stop  offset="0.856" style="stop-color:#4F361B"/>
	<stop  offset="1" style="stop-color:#402A12"/>
	<a:midPointStop  offset="0" style="stop-color:#8A653C"/>
	<a:midPointStop  offset="0.6242" style="stop-color:#8A653C"/>
	<a:midPointStop  offset="1" style="stop-color:#402A12"/>
</linearGradient>
<path fill="url(#SVGID_1_)" d="M23.521,59.334c0-0.178,3.064-0.178,3.064,0C26.586,59.648,23.521,59.648,23.521,59.334z"/>
<path id="Shape_11_" fill="#CFD8DD" d="M23.455,59.292c0.1,0.854,0.3,2.708,0.3,2.708h2.599c0,0,0.197-1.854,0.297-2.708
	C25.607,59.596,24.5,59.596,23.455,59.292z"/>
<path fill="#57602E" d="M25.237,57.404c-0.146,0.443-0.064,1.506,0.136,1.898c0.059,0.118-0.45,0.107-0.463-0.02
	c-0.097-0.926,0.032-1.555-0.174-1.792C24.652,57.396,25.331,57.109,25.237,57.404z"/>
<linearGradient id="SVGID_2_" gradientUnits="userSpaceOnUse" x1="25.0537" y1="58.5947" x2="25.0537" y2="54.1279">
	<stop  offset="0" style="stop-color:#4A8500"/>
	<stop  offset="1" style="stop-color:#80C900"/>
	<a:midPointStop  offset="0" style="stop-color:#4A8500"/>
	<a:midPointStop  offset="0.5" style="stop-color:#4A8500"/>
	<a:midPointStop  offset="1" style="stop-color:#80C900"/>
</linearGradient>
<path fill="url(#SVGID_2_)" d="M27.548,56.248c0.121-0.113-0.601-0.186-0.203-0.353c0.079-0.032,0.288-0.407,0.046-0.455
	c-0.408-0.078-0.066-0.204-0.251-0.464c-0.113-0.159-0.766,0.039-0.517-0.359c0.041-0.066-0.221-0.316-0.39-0.235
	c-0.434,0.213-0.21-0.196-0.471-0.199c-0.086-0.002-0.327,0.428-0.402,0.074c-0.018-0.071-0.247-0.129-0.337-0.129
	s-0.278,0.074-0.336,0.129c-0.318,0.308-0.316-0.076-0.404-0.074c-0.26,0.003-0.174,0.234-0.469,0.199
	c-0.194-0.022-0.387,0.162-0.393,0.235c-0.045,0.532-0.309,0.019-0.541,0.347c-0.184,0.26,0.337,0.399-0.186,0.49
	c-0.244,0.041,0.056,0.32,0.006,0.441c-0.063,0.157-0.342,0.288-0.121,0.425c0.667,0.411-0.225,0.25,0.054,0.526
	c0.141,0.138-0.185,0.37,0.071,0.475c0.53,0.216-0.439,0.333,0.432,0.399c0.087,0.007,0.15,0.277,0.175,0.348
	c0.118,0.362,0.172-0.122,0.685,0.118c0.077,0.037,0.174,0.649,0.495,0.302c0.126-0.134,0.278-0.119,0.452-0.119
	c0.176,0,0.424,0.273,0.581,0.045c0.171-0.245,0.554-0.144,0.525-0.228c-0.065-0.194,0.426,0.041,0.623-0.198
	c0.05-0.059-0.09-0.395,0.237-0.268c0.329,0.127,0.122-0.281,0.438-0.458c0.202-0.114-0.236-0.412,0.153-0.479
	C27.811,56.729,27.344,56.438,27.548,56.248z"/>
<linearGradient id="SVGID_3_" gradientUnits="userSpaceOnUse" x1="-641.2109" y1="59.3857" x2="-638.1465" y2="59.3857" gradientTransform="matrix(-1 0 0 1 -582.7324 0)">
	<stop  offset="0" style="stop-color:#8A653C"/>
	<stop  offset="0.2032" style="stop-color:#835F38"/>
	<stop  offset="0.5012" style="stop-color:#6F502D"/>
	<stop  offset="0.856" style="stop-color:#4F361B"/>
	<stop  offset="1" style="stop-color:#402A12"/>
	<a:midPointStop  offset="0" style="stop-color:#8A653C"/>
	<a:midPointStop  offset="0.6242" style="stop-color:#8A653C"/>
	<a:midPointStop  offset="1" style="stop-color:#402A12"/>
</linearGradient>
<path fill="url(#SVGID_3_)" d="M58.479,59.334c0-0.178-3.064-0.178-3.064,0C55.414,59.648,58.479,59.648,58.479,59.334z"/>
<path id="Shape_7_" fill="#CFD8DD" d="M58.545,59.292c-0.1,0.854-0.3,2.708-0.3,2.708h-2.599c0,0-0.197-1.854-0.297-2.708
	C56.393,59.596,57.501,59.596,58.545,59.292z"/>
<path fill="#57602E" d="M56.763,57.404c0.146,0.443,0.064,1.506-0.135,1.898c-0.06,0.118,0.449,0.107,0.463-0.02
	c0.096-0.926-0.033-1.555,0.173-1.792C57.348,57.396,56.669,57.109,56.763,57.404z"/>
<linearGradient id="SVGID_4_" gradientUnits="userSpaceOnUse" x1="-639.6787" y1="58.5947" x2="-639.6787" y2="54.1279" gradientTransform="matrix(-1 0 0 1 -582.7324 0)">
	<stop  offset="0" style="stop-color:#4A8500"/>
	<stop  offset="1" style="stop-color:#80C900"/>
	<a:midPointStop  offset="0" style="stop-color:#4A8500"/>
	<a:midPointStop  offset="0.5" style="stop-color:#4A8500"/>
	<a:midPointStop  offset="1" style="stop-color:#80C900"/>
</linearGradient>
<path fill="url(#SVGID_4_)" d="M54.453,56.248c-0.12-0.113,0.6-0.186,0.202-0.353c-0.079-0.032-0.288-0.407-0.046-0.455
	c0.408-0.078,0.067-0.204,0.251-0.464c0.113-0.159,0.767,0.039,0.517-0.359c-0.041-0.066,0.221-0.316,0.39-0.235
	c0.435,0.213,0.21-0.196,0.471-0.199c0.086-0.002,0.327,0.428,0.402,0.074c0.018-0.071,0.247-0.129,0.338-0.129
	c0.089,0,0.277,0.074,0.336,0.129c0.317,0.308,0.315-0.076,0.403-0.074c0.26,0.003,0.176,0.234,0.469,0.199
	c0.194-0.022,0.387,0.162,0.393,0.235c0.045,0.532,0.31,0.019,0.542,0.347c0.183,0.26-0.338,0.399,0.185,0.49
	c0.244,0.041-0.055,0.32-0.006,0.441c0.063,0.157,0.342,0.288,0.121,0.425c-0.667,0.411,0.225,0.25-0.054,0.526
	c-0.141,0.138,0.185,0.37-0.071,0.475c-0.53,0.216,0.44,0.333-0.432,0.399c-0.087,0.007-0.15,0.277-0.174,0.348
	c-0.119,0.362-0.173-0.122-0.686,0.118c-0.076,0.037-0.174,0.649-0.494,0.302c-0.127-0.134-0.279-0.119-0.453-0.119
	c-0.176,0-0.424,0.273-0.581,0.045c-0.171-0.245-0.553-0.144-0.525-0.228c0.066-0.194-0.425,0.041-0.622-0.198
	c-0.051-0.059,0.09-0.395-0.238-0.268c-0.329,0.127-0.122-0.281-0.438-0.458c-0.202-0.114,0.238-0.412-0.153-0.479
	C54.189,56.729,54.656,56.438,54.453,56.248z"/>
<path fill="#CFD8DD" d="M20.25,4.75h41.5v0.5C61.75,5.662,61.412,6,61,6H21c-0.412,0-0.75-0.338-0.75-0.75V4.75z"/>
<path fill="#CFD8DD" d="M20.512,48.75h40.977v0.5c0,0.412-0.076,0.75-0.488,0.75H21c-0.412,0-0.488-0.338-0.488-0.75V48.75z"/>
<rect x="20" y="2" fill="#FF000E" width="42" height="3"/>
<rect id="Rectangle-path_17_" x="20" y="47" fill="#B3C2C6" width="42" height="2"/>
<linearGradient id="SVGID_5_" gradientUnits="userSpaceOnUse" x1="41" y1="55.7305" x2="41" y2="51.7305">
	<stop  offset="0" style="stop-color:#302C3B;stop-opacity:0"/>
	<stop  offset="0.9" style="stop-color:#302C3B;stop-opacity:0.54"/>
	<stop  offset="1" style="stop-color:#302C3B;stop-opacity:0.6"/>
	<a:midPointStop  offset="0" style="stop-color:#302C3B;stop-opacity:0"/>
	<a:midPointStop  offset="0.7576" style="stop-color:#302C3B;stop-opacity:0"/>
	<a:midPointStop  offset="1" style="stop-color:#302C3B;stop-opacity:0.6"/>
</linearGradient>
<rect x="29" y="51.73" fill="url(#SVGID_5_)" width="24" height="4"/>
<linearGradient id="Rectangle-path_1_" gradientUnits="userSpaceOnUse" x1="41" y1="52" x2="41" y2="50">
	<stop  offset="0" style="stop-color:#C20000"/>
	<stop  offset="0.4165" style="stop-color:#DD0000"/>
	<stop  offset="1" style="stop-color:#FF0000"/>
	<a:midPointStop  offset="0" style="stop-color:#C20000"/>
	<a:midPointStop  offset="0.4727" style="stop-color:#C20000"/>
	<a:midPointStop  offset="1" style="stop-color:#FF0000"/>
</linearGradient>
<path id="Rectangle-path_19_" fill="url(#Rectangle-path_1_)" d="M28,50.75c0-0.412,0.338-0.75,0.75-0.75h24.5
	c0.412,0,0.75,0.338,0.75,0.75v0.5c0,0.412-0.338,0.75-0.75,0.75h-24.5C28.338,52,28,51.662,28,51.25V50.75z"/>
</svg>
