<?xml version="1.0" encoding="utf-8"?>
<!-- Generator: Adobe Illustrator 15.0.0, SVG Export Plug-In . SVG Version: 6.00 Build 0)  -->
<!DOCTYPE svg PUBLIC "-//W3C//DTD SVG 1.1//EN" "http://www.w3.org/Graphics/SVG/1.1/DTD/svg11.dtd" [
	<!ENTITY ns_flows "http://ns.adobe.com/Flows/1.0/">
	<!ENTITY ns_extend "http://ns.adobe.com/Extensibility/1.0/">
	<!ENTITY ns_ai "http://ns.adobe.com/AdobeIllustrator/10.0/">
	<!ENTITY ns_graphs "http://ns.adobe.com/Graphs/1.0/">
]>
<svg version="1.1" id="Layer_1" xmlns:x="&ns_extend;" xmlns:i="&ns_ai;" xmlns:graph="&ns_graphs;"
	 xmlns="http://www.w3.org/2000/svg" xmlns:xlink="http://www.w3.org/1999/xlink" xmlns:a="http://ns.adobe.com/AdobeSVGViewerExtensions/3.0/"
	 x="0px" y="0px" width="64px" height="64px" viewBox="0 0 64 64" enable-background="new 0 0 64 64" xml:space="preserve">
<rect x="9" y="31" fill="#E8C892" width="46" height="30"/>
<rect x="11" y="3" fill="#E8C892" width="42" height="30"/>
<path fill="#D6A57C" d="M55,54H9c-0.275,0-0.5,0.225-0.5,0.5v6h47v-6C55.5,54.225,55.275,54,55,54z"/>
<rect x="43.75" y="7" fill="#9E6C49" width="6" height="8"/>
<rect x="34.25" y="7" fill="#9E6C49" width="6" height="8"/>
<rect x="23.75" y="7" fill="#9E6C49" width="6" height="8"/>
<rect x="14.25" y="7" fill="#9E6C49" width="6" height="8"/>
<rect x="43.75" y="19" fill="#9E6C49" width="6" height="8"/>
<rect x="34.25" y="19" fill="#9E6C49" width="6" height="8"/>
<rect x="23.75" y="19" fill="#9E6C49" width="6" height="8"/>
<rect x="14.25" y="19" fill="#9E6C49" width="6" height="8"/>
<rect x="44.75" y="34.5" fill="#9E6C49" width="6" height="8"/>
<rect x="34.25" y="34.5" fill="#9E6C49" width="6" height="8"/>
<rect x="23.75" y="34.5" fill="#9E6C49" width="6" height="8"/>
<rect x="13.25" y="34.5" fill="#9E6C49" width="6" height="8"/>
<path fill="#F66257" d="M61,28.5c0,0.275-0.225,0.5-0.5,0.5h-5c-0.275,0-0.5-0.225-0.5-0.5v-22C55,6.225,55.225,6,55.5,6h5
	C60.775,6,61,6.225,61,6.5V28.5z"/>
<rect x="52.998" y="27" fill="#6E8189" width="2" height="1"/>
<rect x="52.998" y="7" fill="#6E8189" width="2" height="1"/>
<path fill="#FFFFFF" d="M59.047,7.599v2.698c0,0.063-0.035,0.099-0.098,0.099h-0.373c-0.063,0-0.098-0.035-0.098-0.099V9.18h-0.961
	v1.117c0,0.063-0.035,0.099-0.1,0.099h-0.371c-0.064,0-0.098-0.035-0.098-0.099V7.599c0-0.063,0.033-0.099,0.098-0.099h0.371
	c0.064,0,0.1,0.036,0.1,0.099v1.035h0.961V7.599c0-0.063,0.035-0.099,0.098-0.099h0.373C59.012,7.5,59.047,7.536,59.047,7.599z"/>
<path fill="#FFFFFF" d="M56.496,13.225c0-0.846,0.668-1.504,1.502-1.504c0.836,0,1.504,0.658,1.504,1.504s-0.668,1.504-1.504,1.504
	C57.164,14.729,56.496,14.07,56.496,13.225z M58.934,13.225c0-0.557-0.41-0.949-0.936-0.949s-0.934,0.393-0.934,0.949
	c0,0.556,0.408,0.949,0.934,0.949S58.934,13.78,58.934,13.225z"/>
<path fill="#FFFFFF" d="M58.98,16.151v0.35c0,0.063-0.035,0.098-0.098,0.098h-0.6v2.251c0,0.063-0.035,0.099-0.098,0.099h-0.373
	c-0.063,0-0.098-0.035-0.098-0.099v-2.251h-0.6c-0.063,0-0.098-0.035-0.098-0.098v-0.35c0-0.063,0.035-0.099,0.098-0.099h1.168h0.6
	C58.945,16.053,58.98,16.088,58.98,16.151z"/>
<path fill="#FFFFFF" d="M58.924,22.777v0.349c0,0.063-0.035,0.099-0.1,0.099h-1.432h-0.088c-0.063,0-0.098-0.035-0.098-0.099v-2.698
	c0-0.063,0.035-0.099,0.098-0.099h0.471h1.029c0.063,0,0.098,0.035,0.098,0.099v0.35c0,0.063-0.035,0.098-0.098,0.098h-1.029v0.619
	h0.926c0.063,0,0.098,0.035,0.098,0.099v0.337c0,0.063-0.035,0.099-0.098,0.099h-0.926v0.65h1.049
	C58.889,22.679,58.924,22.714,58.924,22.777z"/>
<path fill="#FFFFFF" d="M58.93,27.053v0.35c0,0.063-0.035,0.098-0.098,0.098h-1.258h-0.191c-0.063,0-0.098-0.034-0.098-0.098v-2.699
	c0-0.063,0.035-0.098,0.098-0.098h0.373c0.063,0,0.098,0.035,0.098,0.098v2.252h0.979C58.895,26.955,58.93,26.989,58.93,27.053z"/>
<rect x="44.965" y="7.5" fill="#1A1626" width="3.57" height="7"/>
<rect x="35.465" y="7.5" fill="#1A1626" width="3.57" height="7"/>
<rect x="24.965" y="7.5" fill="#1A1626" width="3.571" height="7"/>
<rect x="15.465" y="7.5" fill="#1A1626" width="3.57" height="7"/>
<rect x="44.965" y="19.5" fill="#1A1626" width="3.57" height="7"/>
<rect x="35.465" y="19.5" fill="#1A1626" width="3.57" height="7"/>
<rect x="24.965" y="19.5" fill="#1A1626" width="3.571" height="7"/>
<rect x="15.465" y="19.5" fill="#1A1626" width="3.57" height="7"/>
<rect x="45.965" y="35" fill="#1A1626" width="3.57" height="7"/>
<rect x="35.465" y="35" fill="#1A1626" width="3.57" height="7"/>
<rect x="24.965" y="35" fill="#1A1626" width="3.571" height="7"/>
<rect x="14.465" y="35" fill="#1A1626" width="3.57" height="7"/>
<path fill="#5F4047" d="M44.25,14.5h1.652c0-1.324-0.482-4.169-0.482-4.169s0.828-2.165,0.828-2.831H44.25V14.5z"/>
<path fill="#5F4047" d="M49.25,14.5h-1.652c0-1.324,0.482-4.169,0.482-4.169S47.252,8.166,47.252,7.5h1.998V14.5z"/>
<path fill="#5F4047" d="M34.75,14.5h1.652c0-1.324-0.482-4.169-0.482-4.169s0.828-2.165,0.828-2.831H34.75V14.5z"/>
<path fill="#5F4047" d="M39.75,14.5h-1.652c0-1.324,0.482-4.169,0.482-4.169S37.752,8.166,37.752,7.5h1.998V14.5z"/>
<path fill="#5F4047" d="M24.25,14.5h1.652c0-1.324-0.482-4.169-0.482-4.169s0.828-2.165,0.828-2.831H24.25V14.5z"/>
<path fill="#5F4047" d="M29.25,14.5h-1.652c0-1.324,0.482-4.169,0.482-4.169S27.252,8.166,27.252,7.5h1.999V14.5z"/>
<path fill="#5F4047" d="M14.75,14.5h1.652c0-1.324-0.482-4.169-0.482-4.169s0.828-2.165,0.828-2.831H14.75V14.5z"/>
<path fill="#5F4047" d="M19.75,14.5h-1.652c0-1.324,0.482-4.169,0.482-4.169S17.752,8.166,17.752,7.5h1.998V14.5z"/>
<path fill="#5F4047" d="M44.25,26.5h1.652c0-1.324-0.482-4.169-0.482-4.169s0.828-2.165,0.828-2.831H44.25V26.5z"/>
<path fill="#5F4047" d="M49.25,26.5h-1.652c0-1.324,0.482-4.169,0.482-4.169s-0.828-2.165-0.828-2.831h1.998V26.5z"/>
<path fill="#5F4047" d="M34.75,26.5h1.652c0-1.324-0.482-4.169-0.482-4.169s0.828-2.165,0.828-2.831H34.75V26.5z"/>
<path fill="#5F4047" d="M39.75,26.5h-1.652c0-1.324,0.482-4.169,0.482-4.169s-0.828-2.165-0.828-2.831h1.998V26.5z"/>
<path fill="#5F4047" d="M24.25,26.5h1.652c0-1.324-0.482-4.169-0.482-4.169s0.828-2.165,0.828-2.831H24.25V26.5z"/>
<path fill="#5F4047" d="M29.25,26.5h-1.652c0-1.324,0.482-4.169,0.482-4.169s-0.829-2.165-0.829-2.831h1.999V26.5z"/>
<path fill="#5F4047" d="M14.75,26.5h1.652c0-1.324-0.482-4.169-0.482-4.169s0.828-2.165,0.828-2.831H14.75V26.5z"/>
<path fill="#5F4047" d="M19.75,26.5h-1.652c0-1.324,0.482-4.169,0.482-4.169s-0.828-2.165-0.828-2.831h1.998V26.5z"/>
<path fill="#5F4047" d="M45.25,42h1.652c0-1.324-0.482-4.169-0.482-4.169s0.828-2.165,0.828-2.831H45.25V42z"/>
<path fill="#5F4047" d="M50.25,42h-1.652c0-1.324,0.482-4.169,0.482-4.169S48.252,35.666,48.252,35h1.998V42z"/>
<path fill="#5F4047" d="M34.75,42h1.652c0-1.324-0.482-4.169-0.482-4.169s0.828-2.165,0.828-2.831H34.75V42z"/>
<path fill="#5F4047" d="M39.75,42h-1.652c0-1.324,0.482-4.169,0.482-4.169S37.752,35.666,37.752,35h1.998V42z"/>
<path fill="#5F4047" d="M24.25,42h1.652c0-1.324-0.482-4.169-0.482-4.169s0.828-2.165,0.828-2.831H24.25V42z"/>
<path fill="#5F4047" d="M29.25,42h-1.652c0-1.324,0.482-4.169,0.482-4.169S27.252,35.666,27.252,35h1.999V42z"/>
<path fill="#5F4047" d="M13.75,42h1.652c0-1.324-0.482-4.169-0.482-4.169s0.828-2.165,0.828-2.831H13.75V42z"/>
<path fill="#5F4047" d="M18.75,42h-1.652c0-1.324,0.482-4.169,0.482-4.169S16.752,35.666,16.752,35h1.998V42z"/>
<polygon fill="#9E6C49" points="43.938,9.275 43.938,9.775 46.5,9.775 46.5,14.795 47,14.795 47,9.775 49.563,9.775 49.563,9.275 
	"/>
<polygon fill="#9E6C49" points="34.438,9.775 37,9.775 37,14.795 37.5,14.795 37.5,9.775 40.063,9.775 40.063,9.275 34.438,9.275 
	"/>
<polygon fill="#9E6C49" points="23.938,9.775 26.5,9.775 26.5,14.795 27,14.795 27,9.775 29.563,9.775 29.563,9.275 23.938,9.275 
	"/>
<polygon fill="#9E6C49" points="14.438,9.775 17,9.775 17,14.795 17.5,14.795 17.5,9.775 20.063,9.775 20.063,9.275 14.438,9.275 
	"/>
<polygon fill="#9E6C49" points="43.938,21.775 46.5,21.775 46.5,26.795 47,26.795 47,21.775 49.563,21.775 49.563,21.275 
	43.938,21.275 "/>
<polygon fill="#9E6C49" points="34.438,21.775 37,21.775 37,26.795 37.5,26.795 37.5,21.775 40.063,21.775 40.063,21.275 
	34.438,21.275 "/>
<polygon fill="#9E6C49" points="23.938,21.775 26.5,21.775 26.5,26.795 27,26.795 27,21.775 29.563,21.775 29.563,21.275 
	23.938,21.275 "/>
<polygon fill="#9E6C49" points="14.438,21.775 17,21.775 17,26.795 17.5,26.795 17.5,21.775 20.063,21.775 20.063,21.275 
	14.438,21.275 "/>
<polygon fill="#9E6C49" points="44.938,37.275 47.5,37.275 47.5,42.295 48,42.295 48,37.275 50.563,37.275 50.563,36.775 
	44.938,36.775 "/>
<polygon fill="#9E6C49" points="34.438,37.275 37,37.275 37,42.295 37.5,42.295 37.5,37.275 40.063,37.275 40.063,36.775 
	34.438,36.775 "/>
<polygon fill="#9E6C49" points="23.938,37.275 26.5,37.275 26.5,42.295 27,42.295 27,37.275 29.563,37.275 29.563,36.775 
	23.938,36.775 "/>
<polygon fill="#9E6C49" points="13.438,37.275 16,37.275 16,42.295 16.5,42.295 16.5,37.275 19.063,37.275 19.063,36.775 
	13.438,36.775 "/>
<path fill="#F0DBAF" d="M10,3v1c0,0.55,0.45,1,1,1h42c0.549,0,1-0.45,1-1V3H10z"/>
<path fill="#FFF1D4" d="M9,2.5C9,2.225,9.225,2,9.5,2h45C54.775,2,55,2.225,55,2.5l0,0C55,2.775,54.775,3,54.5,3h-45
	C9.225,3,9,2.775,9,2.5L9,2.5z"/>
<path fill="#F0DBAF" d="M8,30.5v1c0,0.55,0.45,1,1,1h46c0.549,0,1-0.45,1-1v-1H8z"/>
<path fill="#FFF1D4" d="M7,30c0-0.275,0.225-0.5,0.5-0.5h49c0.275,0,0.5,0.225,0.5,0.5l0,0c0,0.275-0.225,0.5-0.5,0.5h-49
	C7.225,30.5,7,30.275,7,30L7,30z"/>
<path fill="#F0DBAF" d="M43.5,45.999h-23c-0.275,0-0.5,0.225-0.5,0.5v14h24v-14C44,46.224,43.775,45.999,43.5,45.999z"/>
<rect x="21" y="46.999" fill="#302C3B" width="22" height="13"/>
<rect x="31.75" y="48.999" fill="#F0DBAF" width="0.5" height="11"/>
<rect x="38" y="45.999" fill="#F0DBAF" width="0.5" height="14"/>
<rect x="25.5" y="45.999" fill="#F0DBAF" width="0.5" height="14"/>
<rect x="21" y="48.999" fill="#F0DBAF" width="22" height="0.5"/>
<rect x="33.32" y="53.104" fill="#FFFFFF" width="0.18" height="2.791"/>
<rect x="30.5" y="53.104" fill="#FFFFFF" width="0.178" height="2.791"/>
<rect x="2" y="59.999" fill="#7AB51D" width="60" height="2.001"/>
<polygon fill="#CFD8DD" points="42.5,62 21.5,62 26,59.999 38,59.999 "/>
<path fill="#92C932" d="M15.245,37.041c-0.102,0.361-0.432,1.426-0.432,1.426s0.107-1,0.158-1.354
	c-0.486,0.122-1.203,0.604-1.777,1.206c-0.041,0.462-0.065,0.925-0.073,1.386c-0.032-0.407-0.054-0.817-0.064-1.23
	c-2.042,2.756-1.61,5.536-1.506,6.618c0.629-3.629,2.31-6.271,4.645-7.259c0.192-0.305,0.367-0.489,0.367-0.489
	C16.557,37.352,16.196,36.887,15.245,37.041z"/>
<path fill="#7AB51D" d="M15.033,40.286c-0.174-0.106-0.794-0.539-0.794-0.539s0.807,0.213,1.005,0.295
	c0.204-0.237,0.987-1.112,1.299-1.563c0.053-0.076-0.683-0.343-0.683-0.343s0.851,0.005,0.86-0.033
	c0.01-0.042,0.006-0.421-0.007-0.468c-2.606,0.798-4.487,3.563-5.163,7.458C11.767,44.734,14.836,40.518,15.033,40.286z"/>
<path fill="#70A61B" d="M16.713,37.635c-3.089,0.748-4.54,3.972-5.19,7.235c-0.045,0.276,0.044,0.334,0.086,0.112
	C12.228,42.076,13.354,38.916,16.713,37.635z"/>
<path fill="#92C932" d="M2.471,41.104c0.349,0.185,1.416,0.703,1.416,0.703s-0.749-0.672-1.03-0.897
	c0.683-0.349,1.875-0.632,2.963-0.692c0.335,0.318,0.649,0.652,0.944,1c-0.209-0.344-0.436-0.679-0.676-1.004
	c0.956-0.004,1.938,0.169,2.835,0.493c0.267,0.409,1.025,1.573,1.025,1.573s-0.345-0.976-0.512-1.356
	c0.111,0.044,1.992,0.89,2.606,3.007c-3.02-2.218-6.744-2.719-10.272-1.352c-0.428-0.058-0.76-0.042-0.76-0.042
	C1.021,42.537,1.652,41.527,2.471,41.104z"/>
<path fill="#7AB51D" d="M8.252,43.73c0.199-0.179,0.889-0.709,0.889-0.709s-1.092,0.453-1.346,0.624
	c-0.631-0.119-0.879-0.138-1.521-0.183c0.247-0.315,0.861-1.234,0.861-1.234s-1.093,0.88-1.41,1.198
	c-0.408-0.022-3.326,0.028-3.993-0.035c-0.113-0.011,0.351-0.675,0.351-0.675s-0.769,0.567-0.805,0.547
	C1.24,43.241,1.012,42.946,1,42.897c3.75-1.762,7.802-1.349,11.042,1.032C11.552,43.851,10.073,44.404,8.252,43.73z"/>
<path fill="#70A61B" d="M1,42.897c4.321-2.239,8.12-1.082,10.94,0.835c0.228,0.173,0.149,0.298-0.039,0.167
	C9.34,42.227,5.989,40.821,1,42.897z"/>
<path fill="#92C932" d="M3.466,48.586c0.374-0.131,1.477-0.565,1.477-0.565s-1.004,0.098-1.361,0.151
	c0.202-0.736,0.795-1.803,1.485-2.643c0.461-0.031,0.921-0.038,1.378-0.02c-0.396-0.077-0.797-0.137-1.201-0.18
	c0.642-0.706,1.432-1.309,2.278-1.749c0.484,0.08,1.859,0.308,1.859,0.308s-0.957-0.404-1.353-0.538
	c0.107-0.052,2.409-1.073,3.991,0.114c-3.683,0.721-6.566,3.118-7.931,6.631c-0.331,0.274-0.543,0.529-0.543,0.529
	C3.553,50.618,3.197,49.762,3.466,48.586z"/>
<path fill="#7AB51D" d="M10.667,45.212c-0.146,0.091-2.418,1.731-2.883,2.173c-0.069-0.394-0.337-1.465-0.337-1.465
	s-0.083,1.396-0.062,1.844c-0.292,0.285-0.423,0.429-0.686,0.715c-0.077-0.272-0.4-1.253-0.4-1.253s0.077,1.253,0.124,1.562
	c-1.121,1.838-2.574,2.113-2.618,2.09c1.221-3.941,4.261-6.639,8.213-7.412C11.631,43.771,10.749,45.163,10.667,45.212z"/>
<path fill="#70A61B" d="M3.807,50.877c1.251-4.684,4.672-6.691,7.998-7.47c0.281-0.051,0.322,0.091,0.098,0.141
	C8.934,44.3,5.629,45.813,3.807,50.877z"/>
<linearGradient id="SVGID_1_" gradientUnits="userSpaceOnUse" x1="14.4766" y1="52.2109" x2="12.4635" y2="52.7255">
	<stop  offset="0" style="stop-color:#735628"/>
	<stop  offset="0.3925" style="stop-color:#8F6F40"/>
	<stop  offset="0.7419" style="stop-color:#A07F4F"/>
	<stop  offset="1" style="stop-color:#A68554"/>
	<a:midPointStop  offset="0" style="stop-color:#735628"/>
	<a:midPointStop  offset="0.3576" style="stop-color:#735628"/>
	<a:midPointStop  offset="1" style="stop-color:#A68554"/>
</linearGradient>
<path fill="url(#SVGID_1_)" d="M17.041,60.414c0,0.782-2.704,0.782-2.704,0c0-3.079-3.166-11.385-3.166-15.661
	c0-1.497,2.003-1.497,2.003,0C13.174,49.029,17.041,57.335,17.041,60.414z"/>
<path fill="#92C932" d="M19.414,49.211c-0.346-0.164-1.363-0.696-1.363-0.696s0.966,0.195,1.308,0.284
	c-0.093-0.734-0.522-1.827-1.078-2.71c-0.446-0.077-0.895-0.129-1.344-0.157c0.398-0.034,0.798-0.052,1.2-0.054
	c-2.867-2.985-5.317-2.985-6.356-2.489c3.496,1.07,5.976,3.683,6.813,7.222c0.285,0.3,0.456,0.567,0.456,0.567
	C19.043,51.17,19.536,50.246,19.414,49.211z"/>
<path fill="#7AB51D" d="M12.854,45.218c0.131,0.103,0.997,0.827,1.194,1.009c0.037-0.259,0.088-1.104,0.088-1.104
	s0.236,1.113,0.236,1.41c0.448,0.423,1.683,1.944,1.898,2.249c0.113-0.257,0.567-1.174,0.567-1.174s-0.251,1.205-0.341,1.499
	c0.22,0.313,1.029,1.52,1.451,2.003c0.072,0.082,0.37-1.015,0.37-1.015s-0.049,1.277-0.013,1.293
	c0.04,0.018,0.408,0.024,0.455,0.007c-0.636-3.94-3.226-6.858-6.979-8.007C12.117,43.726,12.783,45.162,12.854,45.218z"/>
<path fill="#70A61B" d="M18.759,51.396c-0.562-4.662-3.621-6.952-6.761-8.04c-0.268-0.077-0.327,0.056-0.114,0.126
	C14.678,44.51,17.692,46.308,18.759,51.396z"/>
<path fill="#92C932" d="M21.429,42.157c-0.361,0.127-1.458,0.469-1.458,0.469s0.822-0.543,1.125-0.722
	c-0.587-0.453-1.669-0.921-2.69-1.152c-0.37,0.26-0.724,0.539-1.061,0.835c0.256-0.305,0.525-0.6,0.808-0.883
	c-0.905-0.155-1.863-0.141-2.767,0.036c-0.321,0.361-1.234,1.389-1.234,1.389s0.49-0.907,0.712-1.256
	c-0.112,0.025-2.438,0.939-2.971,2.551c3.23-1.707,6.84-1.609,9.953,0.299c0.415,0.011,0.726,0.08,0.726,0.08
	C22.563,43.802,22.267,42.813,21.429,42.157z"/>
<path fill="#7AB51D" d="M17.433,43.881c-0.18-0.352-0.608-1.355-0.608-1.355s0.888,1.042,1.135,1.406
	c0.391,0.042,0.576,0.074,0.944,0.137c-0.102-0.261-0.435-1.228-0.435-1.228s0.681,1.027,0.827,1.298
	c0.379,0.066,1.809,0.349,2.45,0.393c0.109,0.007-0.46-0.977-0.46-0.977s0.875,0.937,0.912,0.922
	c0.04-0.016,0.306-0.271,0.325-0.316c-3.255-2.333-7.162-2.568-10.628-0.736C12.981,44.16,16.818,43.822,17.433,43.881z"/>
<path fill="#70A61B" d="M22.522,44.16c-3.717-2.895-7.507-2.357-10.499-0.914c-0.244,0.134-0.191,0.27,0.009,0.17
	C14.737,42.174,18.146,41.32,22.522,44.16z"/>
<path fill="#92C932" d="M8.896,52.65c0.197-0.341,0.75-1.387,0.75-1.387s-0.698,0.725-0.934,0.996
	c-0.33-0.689-0.577-1.883-0.603-2.966c0.33-0.323,0.675-0.626,1.033-0.907c-0.35,0.197-0.694,0.412-1.029,0.641
	c0.026-0.951,0.23-1.92,0.583-2.803c0.42-0.252,1.614-0.969,1.614-0.969s-0.991,0.313-1.379,0.467
	c0.047-0.109,0.976-2.391,3.104-2.498c-2.323,2.933-2.942,6.618-1.678,10.168c-0.072,0.423-0.066,0.754-0.066,0.754
	C10.293,54.137,9.221,53.387,8.896,52.65z"/>
<path fill="#7AB51D" d="M12.153,45.427c-0.052,0.164-0.372,1.288-0.436,1.56c-0.173-0.203-0.685-0.906-0.685-0.906
	s0.421,1.1,0.585,1.357c-0.138,0.623-0.326,2.65-0.336,3.037c-0.237-0.156-1.125-0.692-1.125-0.692s0.878,0.901,1.116,1.104
	c-0.009,0.398-0.015,1.908-0.099,2.568c-0.015,0.112-0.871-0.666-0.871-0.666s0.75,1.078,0.728,1.113
	c-0.023,0.037-0.327,0.255-0.376,0.266C9,50.386,9.542,46.372,12.035,43.225C11.941,43.71,12.183,45.338,12.153,45.427z"/>
<path fill="#70A61B" d="M10.654,54.168c-2.116-4.364-0.835-8.104,1.18-10.847c0.181-0.221,0.304-0.14,0.166,0.043
	C10.239,45.857,8.722,49.146,10.654,54.168z"/>
<path fill="#92C932" d="M48.754,37.041c0.104,0.361,0.432,1.426,0.432,1.426s-0.107-1-0.158-1.354
	c0.486,0.122,1.203,0.604,1.777,1.206c0.041,0.462,0.064,0.925,0.074,1.386c0.031-0.407,0.053-0.817,0.064-1.23
	c2.041,2.756,1.609,5.536,1.506,6.618c-0.629-3.629-2.311-6.271-4.645-7.259c-0.193-0.305-0.367-0.489-0.367-0.489
	C47.443,37.352,47.803,36.887,48.754,37.041z"/>
<path fill="#7AB51D" d="M48.967,40.286c0.174-0.106,0.793-0.539,0.793-0.539s-0.807,0.213-1.004,0.295
	c-0.203-0.237-0.988-1.112-1.299-1.563c-0.053-0.076,0.684-0.343,0.684-0.343s-0.852,0.005-0.861-0.033
	c-0.01-0.042-0.006-0.421,0.008-0.468c2.605,0.798,4.486,3.563,5.162,7.458C52.232,44.734,49.164,40.518,48.967,40.286z"/>
<path fill="#70A61B" d="M47.287,37.635c3.088,0.748,4.539,3.972,5.189,7.235c0.045,0.276-0.045,0.334-0.086,0.112
	C51.771,42.076,50.646,38.916,47.287,37.635z"/>
<path fill="#92C932" d="M61.529,41.104c-0.35,0.185-1.416,0.703-1.416,0.703s0.748-0.672,1.029-0.897
	c-0.684-0.349-1.875-0.632-2.963-0.692c-0.336,0.318-0.65,0.652-0.945,1c0.211-0.344,0.436-0.679,0.678-1.004
	c-0.957-0.004-1.939,0.169-2.836,0.493c-0.266,0.409-1.025,1.573-1.025,1.573s0.346-0.976,0.514-1.356
	c-0.111,0.044-1.992,0.89-2.607,3.007c3.02-2.218,6.744-2.719,10.271-1.352c0.428-0.058,0.76-0.042,0.76-0.042
	C62.979,42.537,62.348,41.527,61.529,41.104z"/>
<path fill="#7AB51D" d="M55.748,43.73c-0.199-0.179-0.891-0.709-0.891-0.709s1.094,0.453,1.348,0.624
	c0.631-0.119,0.879-0.138,1.52-0.183c-0.246-0.315-0.859-1.234-0.859-1.234s1.092,0.88,1.41,1.198
	c0.408-0.022,3.326,0.028,3.992-0.035c0.113-0.011-0.352-0.675-0.352-0.675s0.77,0.567,0.805,0.547
	c0.039-0.022,0.268-0.317,0.279-0.366c-3.75-1.762-7.803-1.349-11.043,1.032C52.447,43.851,53.928,44.404,55.748,43.73z"/>
<path fill="#70A61B" d="M63,42.897c-4.322-2.239-8.119-1.082-10.939,0.835c-0.229,0.173-0.15,0.298,0.037,0.167
	C54.66,42.227,58.012,40.821,63,42.897z"/>
<path fill="#92C932" d="M60.533,48.586c-0.373-0.131-1.477-0.565-1.477-0.565s1.004,0.098,1.361,0.151
	c-0.203-0.736-0.797-1.803-1.486-2.643c-0.461-0.031-0.922-0.038-1.377-0.02c0.395-0.077,0.797-0.137,1.201-0.18
	c-0.643-0.706-1.434-1.309-2.279-1.749c-0.482,0.08-1.859,0.308-1.859,0.308s0.957-0.404,1.354-0.538
	c-0.107-0.052-2.408-1.073-3.99,0.114c3.682,0.721,6.566,3.118,7.93,6.631c0.332,0.274,0.545,0.529,0.545,0.529
	C60.447,50.618,60.803,49.762,60.533,48.586z"/>
<path fill="#7AB51D" d="M53.332,45.212c0.146,0.091,2.418,1.731,2.883,2.173c0.068-0.394,0.338-1.465,0.338-1.465
	s0.082,1.396,0.061,1.844c0.293,0.285,0.424,0.429,0.686,0.715c0.078-0.272,0.4-1.253,0.4-1.253s-0.076,1.253-0.125,1.562
	c1.121,1.838,2.574,2.113,2.619,2.09c-1.221-3.941-4.262-6.639-8.213-7.412C52.369,43.771,53.25,45.163,53.332,45.212z"/>
<path fill="#70A61B" d="M60.193,50.877c-1.252-4.684-4.672-6.691-7.998-7.47c-0.281-0.051-0.322,0.091-0.098,0.141
	C55.066,44.3,58.371,45.813,60.193,50.877z"/>
<linearGradient id="SVGID_2_" gradientUnits="userSpaceOnUse" x1="-526.3047" y1="52.2109" x2="-528.3185" y2="52.7257" gradientTransform="matrix(-1 0 0 1 -476.7813 0)">
	<stop  offset="0" style="stop-color:#735628"/>
	<stop  offset="0.3925" style="stop-color:#8F6F40"/>
	<stop  offset="0.7419" style="stop-color:#A07F4F"/>
	<stop  offset="1" style="stop-color:#A68554"/>
	<a:midPointStop  offset="0" style="stop-color:#735628"/>
	<a:midPointStop  offset="0.3576" style="stop-color:#735628"/>
	<a:midPointStop  offset="1" style="stop-color:#A68554"/>
</linearGradient>
<path fill="url(#SVGID_2_)" d="M46.959,60.414c0,0.782,2.705,0.782,2.705,0c0-3.079,3.164-11.385,3.164-15.661
	c0-1.497-2.002-1.497-2.002,0C50.826,49.029,46.959,57.335,46.959,60.414z"/>
<path fill="#92C932" d="M44.586,49.211c0.346-0.164,1.363-0.696,1.363-0.696s-0.967,0.195-1.309,0.284
	c0.094-0.734,0.521-1.827,1.078-2.71c0.447-0.077,0.895-0.129,1.344-0.157c-0.398-0.034-0.797-0.052-1.199-0.054
	c2.867-2.985,5.316-2.985,6.355-2.489c-3.496,1.07-5.975,3.683-6.813,7.222c-0.285,0.3-0.455,0.567-0.455,0.567
	C44.957,51.17,44.465,50.246,44.586,49.211z"/>
<path fill="#7AB51D" d="M51.146,45.218c-0.131,0.103-0.998,0.827-1.195,1.009c-0.035-0.259-0.088-1.104-0.088-1.104
	s-0.234,1.113-0.234,1.41c-0.449,0.423-1.684,1.944-1.898,2.249c-0.113-0.257-0.568-1.174-0.568-1.174s0.252,1.205,0.342,1.499
	c-0.221,0.313-1.029,1.52-1.451,2.003c-0.072,0.082-0.369-1.015-0.369-1.015s0.049,1.277,0.012,1.293
	c-0.039,0.018-0.408,0.024-0.455,0.007c0.637-3.94,3.227-6.858,6.979-8.007C51.883,43.726,51.217,45.162,51.146,45.218z"/>
<path fill="#70A61B" d="M45.24,51.396c0.563-4.662,3.621-6.952,6.762-8.04c0.268-0.077,0.326,0.056,0.113,0.126
	C49.322,44.51,46.309,46.308,45.24,51.396z"/>
<path fill="#92C932" d="M42.57,42.157c0.361,0.127,1.459,0.469,1.459,0.469s-0.822-0.543-1.125-0.722
	c0.586-0.453,1.668-0.921,2.689-1.152c0.371,0.26,0.725,0.539,1.061,0.835c-0.256-0.305-0.525-0.6-0.809-0.883
	c0.906-0.155,1.863-0.141,2.768,0.036c0.32,0.361,1.234,1.389,1.234,1.389s-0.49-0.907-0.713-1.256
	c0.113,0.025,2.438,0.939,2.971,2.551c-3.229-1.707-6.84-1.609-9.951,0.299c-0.416,0.011-0.727,0.08-0.727,0.08
	C41.438,43.802,41.732,42.813,42.57,42.157z"/>
<path fill="#7AB51D" d="M46.566,43.881c0.182-0.352,0.609-1.355,0.609-1.355s-0.889,1.042-1.135,1.406
	c-0.391,0.042-0.576,0.074-0.945,0.137c0.104-0.261,0.436-1.228,0.436-1.228s-0.68,1.027-0.826,1.298
	c-0.379,0.066-1.809,0.349-2.451,0.393c-0.109,0.007,0.461-0.977,0.461-0.977s-0.875,0.937-0.912,0.922
	c-0.039-0.016-0.305-0.271-0.324-0.316c3.254-2.333,7.162-2.568,10.627-0.736C51.018,44.16,47.182,43.822,46.566,43.881z"/>
<path fill="#70A61B" d="M41.479,44.16c3.717-2.895,7.506-2.357,10.498-0.914c0.244,0.134,0.191,0.27-0.008,0.17
	C49.264,42.174,45.854,41.32,41.479,44.16z"/>
<path fill="#92C932" d="M55.104,52.65c-0.197-0.341-0.75-1.387-0.75-1.387s0.697,0.725,0.934,0.996
	c0.328-0.689,0.576-1.883,0.602-2.966c-0.328-0.323-0.674-0.626-1.031-0.907c0.35,0.197,0.693,0.412,1.029,0.641
	c-0.027-0.951-0.23-1.92-0.584-2.803c-0.42-0.252-1.613-0.969-1.613-0.969s0.99,0.313,1.379,0.467
	c-0.047-0.109-0.977-2.391-3.104-2.498c2.324,2.933,2.941,6.618,1.678,10.168c0.072,0.423,0.066,0.754,0.066,0.754
	C53.707,54.137,54.779,53.387,55.104,52.65z"/>
<path fill="#7AB51D" d="M51.848,45.427c0.051,0.164,0.371,1.288,0.436,1.56c0.174-0.203,0.684-0.906,0.684-0.906
	s-0.42,1.1-0.584,1.357c0.139,0.623,0.326,2.65,0.336,3.037c0.236-0.156,1.125-0.692,1.125-0.692s-0.879,0.901-1.117,1.104
	c0.01,0.398,0.016,1.908,0.1,2.568c0.014,0.112,0.871-0.666,0.871-0.666s-0.75,1.078-0.729,1.113
	c0.023,0.037,0.328,0.255,0.377,0.266c1.654-3.782,1.113-7.796-1.381-10.943C52.059,43.71,51.816,45.338,51.848,45.427z"/>
<path fill="#70A61B" d="M53.346,54.168c2.115-4.364,0.836-8.104-1.18-10.847c-0.182-0.221-0.305-0.14-0.166,0.043
	C53.76,45.857,55.277,49.146,53.346,54.168z"/>
</svg>
