<?xml version="1.0" encoding="utf-8"?>
<!-- Generator: Adobe Illustrator 15.0.0, SVG Export Plug-In . SVG Version: 6.00 Build 0)  -->
<!DOCTYPE svg PUBLIC "-//W3C//DTD SVG 1.1//EN" "http://www.w3.org/Graphics/SVG/1.1/DTD/svg11.dtd" [
	<!ENTITY ns_flows "http://ns.adobe.com/Flows/1.0/">
	<!ENTITY ns_extend "http://ns.adobe.com/Extensibility/1.0/">
	<!ENTITY ns_ai "http://ns.adobe.com/AdobeIllustrator/10.0/">
	<!ENTITY ns_graphs "http://ns.adobe.com/Graphs/1.0/">
]>
<svg version="1.1" id="Layer_1" xmlns:x="&ns_extend;" xmlns:i="&ns_ai;" xmlns:graph="&ns_graphs;"
	 xmlns="http://www.w3.org/2000/svg" xmlns:xlink="http://www.w3.org/1999/xlink" xmlns:a="http://ns.adobe.com/AdobeSVGViewerExtensions/3.0/"
	 x="0px" y="0px" width="64px" height="64px" viewBox="0 0 64 64" enable-background="new 0 0 64 64" xml:space="preserve">
<path fill="#E84D88" d="M60,45.5c0,0.275-0.225,0.5-0.5,0.5h-5c-0.275,0-0.5-0.225-0.5-0.5v-22c0-0.275,0.225-0.5,0.5-0.5h5
	c0.275,0,0.5,0.225,0.5,0.5V45.5z"/>
<rect x="51.999" y="44" fill="#6E8189" width="2" height="1"/>
<rect x="51.999" y="24" fill="#6E8189" width="2" height="1"/>
<path fill="#FFFFFF" d="M58.048,24.599v2.698c0,0.063-0.035,0.099-0.098,0.099h-0.373c-0.063,0-0.098-0.035-0.098-0.099V26.18
	h-0.961v1.117c0,0.063-0.035,0.099-0.1,0.099h-0.371c-0.064,0-0.098-0.035-0.098-0.099v-2.698c0-0.063,0.033-0.099,0.098-0.099
	h0.371c0.064,0,0.1,0.036,0.1,0.099v1.035h0.961v-1.035c0-0.063,0.035-0.099,0.098-0.099h0.373
	C58.013,24.5,58.048,24.536,58.048,24.599z"/>
<path fill="#FFFFFF" d="M55.497,30.225c0-0.846,0.668-1.504,1.502-1.504c0.836,0,1.504,0.658,1.504,1.504s-0.668,1.504-1.504,1.504
	C56.165,31.729,55.497,31.07,55.497,30.225z M57.935,30.225c0-0.557-0.41-0.949-0.936-0.949s-0.934,0.393-0.934,0.949
	c0,0.556,0.408,0.949,0.934,0.949S57.935,30.78,57.935,30.225z"/>
<path fill="#FFFFFF" d="M57.981,33.151v0.35c0,0.063-0.035,0.098-0.098,0.098h-0.6v2.251c0,0.063-0.035,0.099-0.098,0.099h-0.373
	c-0.063,0-0.098-0.035-0.098-0.099v-2.251h-0.6c-0.063,0-0.098-0.035-0.098-0.098v-0.35c0-0.063,0.035-0.099,0.098-0.099h1.168h0.6
	C57.946,33.053,57.981,33.088,57.981,33.151z"/>
<path fill="#FFFFFF" d="M57.925,39.777v0.349c0,0.063-0.035,0.099-0.1,0.099h-1.432h-0.088c-0.063,0-0.098-0.035-0.098-0.099v-2.698
	c0-0.063,0.035-0.099,0.098-0.099h0.471h1.029c0.063,0,0.098,0.035,0.098,0.099v0.35c0,0.063-0.035,0.098-0.098,0.098h-1.029v0.619
	h0.926c0.063,0,0.098,0.035,0.098,0.099v0.337c0,0.063-0.035,0.099-0.098,0.099h-0.926v0.65h1.049
	C57.89,39.679,57.925,39.714,57.925,39.777z"/>
<path fill="#FFFFFF" d="M57.931,44.053v0.35c0,0.063-0.035,0.098-0.098,0.098h-1.258h-0.191c-0.063,0-0.098-0.034-0.098-0.098
	v-2.699c0-0.063,0.035-0.098,0.098-0.098h0.373c0.063,0,0.098,0.035,0.098,0.098v2.252h0.979
	C57.896,43.955,57.931,43.989,57.931,44.053z"/>
<rect x="7" y="20" fill="#F6BEC1" width="46" height="42"/>
<rect x="42.75" y="38.5" fill="#FF8FA8" width="6" height="8"/>
<rect x="32.25" y="38.5" fill="#FF8FA8" width="6" height="8"/>
<rect x="21.75" y="38.5" fill="#FF8FA8" width="6" height="8"/>
<rect x="11.25" y="38.5" fill="#FF8FA8" width="6" height="8"/>
<rect x="43.965" y="39" fill="#302C3B" width="3.57" height="7"/>
<rect x="33.465" y="39" fill="#302C3B" width="3.57" height="7"/>
<rect x="22.965" y="39" fill="#302C3B" width="3.57" height="7"/>
<rect x="12.465" y="39" fill="#302C3B" width="3.57" height="7"/>
<path fill="#A81D51" d="M43.25,46h1.652c0-1.324-0.482-4.169-0.482-4.169s0.828-2.165,0.828-2.831H43.25V46z"/>
<path fill="#A81D51" d="M48.25,46h-1.652c0-1.324,0.482-4.169,0.482-4.169S46.252,39.666,46.252,39h1.998V46z"/>
<path fill="#A81D51" d="M32.75,46h1.652c0-1.324-0.482-4.169-0.482-4.169s0.828-2.165,0.828-2.831H32.75V46z"/>
<path fill="#A81D51" d="M37.75,46h-1.652c0-1.324,0.482-4.169,0.482-4.169S35.752,39.666,35.752,39h1.998V46z"/>
<path fill="#A81D51" d="M22.25,46h1.652c0-1.324-0.482-4.169-0.482-4.169s0.828-2.165,0.828-2.831H22.25V46z"/>
<path fill="#A81D51" d="M27.25,46h-1.652c0-1.324,0.482-4.169,0.482-4.169S25.252,39.666,25.252,39h1.998V46z"/>
<path fill="#A81D51" d="M11.75,46h1.652c0-1.324-0.482-4.169-0.482-4.169s0.828-2.165,0.828-2.831H11.75V46z"/>
<path fill="#A81D51" d="M16.75,46h-1.652c0-1.324,0.482-4.169,0.482-4.169S14.752,39.666,14.752,39h1.998V46z"/>
<polygon fill="#FF8FA8" points="42.938,41.275 45.5,41.275 45.5,46.295 46,46.295 46,41.275 48.563,41.275 48.563,40.775 
	42.938,40.775 "/>
<polygon fill="#FF8FA8" points="32.438,41.275 35,41.275 35,46.295 35.5,46.295 35.5,41.275 38.063,41.275 38.063,40.775 
	32.438,40.775 "/>
<polygon fill="#FF8FA8" points="21.938,41.275 24.5,41.275 24.5,46.295 25,46.295 25,41.275 27.563,41.275 27.563,40.775 
	21.938,40.775 "/>
<polygon fill="#FF8FA8" points="11.438,41.275 14,41.275 14,46.295 14.5,46.295 14.5,41.275 17.063,41.275 17.063,40.775 
	11.438,40.775 "/>
<path fill="#FF8FA8" d="M5,19v1c0,0.55,0.45,1,1,1h48c0.55,0,1-0.45,1-1v-1H5z"/>
<path fill="#D93070" d="M54,62V51c0-0.55-0.45-1-1-1H7c-0.55,0-1,0.45-1,1v11H54z"/>
<path fill="#E84D88" d="M4,18.5C4,18.225,4.225,18,4.5,18h51c0.275,0,0.5,0.225,0.5,0.5l0,0c0,0.275-0.225,0.5-0.5,0.5h-51
	C4.225,19,4,18.775,4,18.5L4,18.5z"/>
<rect x="24" y="52" fill="#FF8FA8" width="12" height="10"/>
<rect x="25" y="53" fill="#302C3B" width="4.75" height="9"/>
<rect x="30.25" y="53" fill="#302C3B" width="4.75" height="9"/>
<rect x="31.32" y="56.104" fill="#FFFFFF" width="0.18" height="2.791"/>
<rect x="28.5" y="56.104" fill="#FFFFFF" width="0.178" height="2.791"/>
<path fill="#D93070" d="M38.455,15.008c0,0.716-0.585,1.301-1.301,1.301H22.846c-0.716,0-1.301-0.585-1.301-1.301V3.301
	C21.545,2.585,22.13,2,22.846,2h14.309c0.716,0,1.301,0.585,1.301,1.301V15.008z"/>
<path fill="#FFDEDF" d="M37.154,14.356c0,0.358-0.293,0.651-0.651,0.651H23.495c-0.356,0-0.649-0.293-0.649-0.651V3.951
	c0-0.357,0.293-0.65,0.649-0.65h13.008c0.358,0,0.651,0.293,0.651,0.65V14.356z"/>
<rect x="24.375" y="15.398" fill="#D93070" width="0.846" height="2.602"/>
<rect x="34.779" y="15.398" fill="#D93070" width="0.846" height="2.602"/>
<path fill="#FB367D" d="M30,6.613c-1.208-2.02-4.553-1.231-4.553,1.306c0,1.703,1.541,2.842,4.553,5.354
	c3.009-2.513,4.553-3.651,4.553-5.354C34.553,5.382,31.208,4.594,30,6.613z"/>
<rect x="11.25" y="25.5" fill="#FF8FA8" width="6" height="8"/>
<rect x="21.75" y="25.5" fill="#FF8FA8" width="6" height="8"/>
<rect x="32.25" y="25.5" fill="#FF8FA8" width="6" height="8"/>
<rect x="42.75" y="25.5" fill="#FF8FA8" width="6" height="8"/>
<rect x="12.465" y="26" fill="#302C3B" width="3.57" height="7"/>
<rect x="22.965" y="26" fill="#302C3B" width="3.57" height="7"/>
<rect x="33.465" y="26" fill="#302C3B" width="3.57" height="7"/>
<rect x="43.965" y="26" fill="#302C3B" width="3.57" height="7"/>
<path fill="#A81D51" d="M16.75,33h-1.652c0-1.324,0.482-4.169,0.482-4.169S14.752,26.666,14.752,26h1.998V33z"/>
<path fill="#A81D51" d="M11.75,33h1.652c0-1.324-0.482-4.169-0.482-4.169s0.828-2.165,0.828-2.831H11.75V33z"/>
<path fill="#A81D51" d="M27.25,33h-1.652c0-1.324,0.482-4.169,0.482-4.169S25.252,26.666,25.252,26h1.998V33z"/>
<path fill="#A81D51" d="M22.25,33h1.652c0-1.324-0.482-4.169-0.482-4.169s0.828-2.165,0.828-2.831H22.25V33z"/>
<path fill="#A81D51" d="M37.75,33h-1.652c0-1.324,0.482-4.169,0.482-4.169S35.752,26.666,35.752,26h1.998V33z"/>
<path fill="#A81D51" d="M32.75,33h1.652c0-1.324-0.482-4.169-0.482-4.169s0.828-2.165,0.828-2.831H32.75V33z"/>
<path fill="#A81D51" d="M48.25,33h-1.652c0-1.324,0.482-4.169,0.482-4.169S46.252,26.666,46.252,26h1.998V33z"/>
<path fill="#A81D51" d="M43.25,33h1.652c0-1.324-0.482-4.169-0.482-4.169s0.828-2.165,0.828-2.831H43.25V33z"/>
<polygon fill="#FF8FA8" points="17.063,28.275 14.5,28.275 14.5,33.295 14,33.295 14,28.275 11.438,28.275 11.438,27.775 
	17.063,27.775 "/>
<polygon fill="#FF8FA8" points="27.563,28.275 25,28.275 25,33.295 24.5,33.295 24.5,28.275 21.938,28.275 21.938,27.775 
	27.563,27.775 "/>
<polygon fill="#FF8FA8" points="38.063,28.275 35.5,28.275 35.5,33.295 35,33.295 35,28.275 32.438,28.275 32.438,27.775 
	38.063,27.775 "/>
<polygon fill="#FF8FA8" points="48.563,28.275 46,28.275 46,33.295 45.5,33.295 45.5,28.275 42.938,28.275 42.938,27.775 
	48.563,27.775 "/>
<rect x="6" y="53.5" fill="#FB367D" width="3" height="1"/>
<rect x="13" y="52.396" fill="#FB367D" width="3" height="1"/>
<rect x="15" y="57.052" fill="#FB367D" width="3" height="1"/>
<rect x="18.167" y="50" fill="#FB367D" width="3" height="1"/>
<rect x="35.999" y="54.313" fill="#FB367D" width="3" height="1"/>
<rect x="42.938" y="52.396" fill="#FB367D" width="3" height="1"/>
<rect x="45.751" y="55.896" fill="#FB367D" width="3" height="1"/>
<rect x="40" y="58.999" fill="#FB367D" width="3" height="1"/>
<rect x="51" y="59.999" fill="#FB367D" width="3" height="1"/>
<rect x="50.5" y="52.396" fill="#FB367D" width="3" height="1"/>
<rect x="8.75" y="59.372" fill="#FB367D" width="3" height="1"/>
<linearGradient id="SVGID_1_" gradientUnits="userSpaceOnUse" x1="30.0005" y1="56" x2="30.0005" y2="52">
	<stop  offset="0" style="stop-color:#302C3B;stop-opacity:0"/>
	<stop  offset="0.9" style="stop-color:#302C3B;stop-opacity:0.54"/>
	<stop  offset="1" style="stop-color:#302C3B;stop-opacity:0.6"/>
	<a:midPointStop  offset="0" style="stop-color:#302C3B;stop-opacity:0"/>
	<a:midPointStop  offset="0.7576" style="stop-color:#302C3B;stop-opacity:0"/>
	<a:midPointStop  offset="1" style="stop-color:#302C3B;stop-opacity:0.6"/>
</linearGradient>
<rect x="23" y="52" fill="url(#SVGID_1_)" width="14" height="4"/>
<linearGradient id="SVGID_2_" gradientUnits="userSpaceOnUse" x1="30.0005" y1="52.8662" x2="30.0005" y2="49">
	<stop  offset="0" style="stop-color:#E6256A"/>
	<stop  offset="0.0683" style="stop-color:#E93173"/>
	<stop  offset="0.3482" style="stop-color:#F65B93"/>
	<stop  offset="0.4909" style="stop-color:#FB6CA0"/>
	<a:midPointStop  offset="0" style="stop-color:#E6256A"/>
	<a:midPointStop  offset="0.4444" style="stop-color:#E6256A"/>
	<a:midPointStop  offset="0.4909" style="stop-color:#FB6CA0"/>
</linearGradient>
<path fill="url(#SVGID_2_)" d="M36.545,49H23.456c0,0-1.508,2.789-0.56,3.572c0.167,0.138,0.356,0.294,0.729,0.294
	c0.373,0,0.563-0.156,0.73-0.294c0.156-0.127,0.279-0.229,0.542-0.229c0.263,0,0.386,0.102,0.541,0.229
	c0.168,0.138,0.358,0.294,0.73,0.294c0.373,0,0.563-0.156,0.73-0.294c0.155-0.127,0.277-0.229,0.54-0.229
	c0.265,0,0.388,0.102,0.545,0.229c0.166,0.138,0.357,0.294,0.73,0.294s0.563-0.156,0.73-0.294c0.156-0.127,0.278-0.229,0.542-0.229
	s0.388,0.102,0.543,0.229c0.168,0.138,0.358,0.294,0.731,0.294s0.564-0.156,0.732-0.294c0.155-0.127,0.278-0.229,0.543-0.229
	c0.264,0,0.387,0.102,0.543,0.229c0.168,0.138,0.359,0.294,0.73,0.294c0.374,0,0.564-0.156,0.732-0.294
	c0.156-0.127,0.279-0.229,0.544-0.229s0.396,0.106,0.546,0.23c0.168,0.136,0.359,0.292,0.734,0.292c0.374,0,0.565-0.156,0.734-0.294
	C38.059,51.792,36.545,49,36.545,49z"/>
<path fill="#F6BEC1" d="M23.456,49c-0.387,0.821-0.726,1.683-0.787,2.559c-0.028,0.435,0.063,0.889,0.51,1.106
	c0.191,0.113,0.439,0.128,0.663,0.081c0.224-0.049,0.365-0.208,0.585-0.372c0.246-0.168,0.604-0.191,0.883-0.045
	c0.256,0.156,0.383,0.326,0.597,0.379c0.203,0.06,0.457,0.045,0.636-0.047c0.195-0.082,0.315-0.307,0.648-0.412
	c0.299-0.096,0.681,0.021,0.861,0.201c0.189,0.164,0.354,0.266,0.578,0.277c0.239,0.017,0.422-0.034,0.6-0.172
	c0.149-0.125,0.42-0.379,0.775-0.35c0.123-0.004,0.342,0.049,0.452,0.13c0.122,0.08,0.21,0.167,0.298,0.23
	c0.174,0.135,0.369,0.18,0.612,0.161c0.206-0.018,0.38-0.127,0.568-0.29c0.187-0.187,0.579-0.282,0.87-0.181
	c0.323,0.114,0.442,0.332,0.64,0.409c0.171,0.091,0.458,0.099,0.638,0.038c0.213-0.058,0.337-0.229,0.601-0.384
	c0.28-0.14,0.644-0.111,0.882,0.062c0.217,0.163,0.361,0.317,0.587,0.364c0.226,0.045,0.478,0.029,0.663-0.083
	c0.453-0.226,0.539-0.666,0.515-1.104c-0.06-0.876-0.399-1.737-0.786-2.559c0.436,0.807,0.829,1.646,0.945,2.551
	c0.02,0.228,0.016,0.459-0.061,0.689c-0.073,0.239-0.275,0.434-0.498,0.567c-0.244,0.15-0.557,0.182-0.835,0.129
	c-0.3-0.057-0.511-0.265-0.685-0.387c-0.161-0.117-0.419-0.119-0.584-0.032c-0.168,0.093-0.35,0.321-0.643,0.412
	c-0.308,0.09-0.592,0.077-0.879-0.048c-0.271-0.125-0.424-0.344-0.602-0.388c-0.208-0.051-0.396-0.019-0.561,0.132
	c-0.171,0.152-0.428,0.345-0.757,0.367c-0.274,0.032-0.625-0.046-0.839-0.22c-0.227-0.173-0.336-0.299-0.561-0.29
	c-0.203-0.015-0.332,0.104-0.549,0.277c-0.202,0.172-0.557,0.267-0.838,0.232c-0.311-0.012-0.591-0.2-0.758-0.354
	c-0.166-0.158-0.354-0.196-0.562-0.149c-0.179,0.036-0.328,0.252-0.594,0.383c-0.273,0.131-0.589,0.146-0.876,0.062
	c-0.298-0.085-0.483-0.312-0.65-0.411c-0.158-0.093-0.424-0.093-0.582,0.02c-0.175,0.118-0.379,0.332-0.679,0.39
	c-0.28,0.057-0.598,0.027-0.837-0.123c-0.225-0.136-0.425-0.332-0.495-0.569c-0.076-0.23-0.079-0.462-0.059-0.689
	C22.629,50.646,23.021,49.807,23.456,49z"/>
</svg>
