<?xml version="1.0" encoding="utf-8"?>
<!-- Generator: Adobe Illustrator 15.0.0, SVG Export Plug-In . SVG Version: 6.00 Build 0)  -->
<!DOCTYPE svg PUBLIC "-//W3C//DTD SVG 1.1//EN" "http://www.w3.org/Graphics/SVG/1.1/DTD/svg11.dtd" [
	<!ENTITY ns_flows "http://ns.adobe.com/Flows/1.0/">
	<!ENTITY ns_extend "http://ns.adobe.com/Extensibility/1.0/">
	<!ENTITY ns_ai "http://ns.adobe.com/AdobeIllustrator/10.0/">
	<!ENTITY ns_graphs "http://ns.adobe.com/Graphs/1.0/">
]>
<svg version="1.1" id="Layer_1" xmlns:x="&ns_extend;" xmlns:i="&ns_ai;" xmlns:graph="&ns_graphs;"
	 xmlns="http://www.w3.org/2000/svg" xmlns:xlink="http://www.w3.org/1999/xlink" xmlns:a="http://ns.adobe.com/AdobeSVGViewerExtensions/3.0/"
	 x="0px" y="0px" width="64px" height="64px" viewBox="0 0 64 64" enable-background="new 0 0 64 64" xml:space="preserve">
<rect x="13" y="2" fill="#C1BCAF" width="38" height="7"/>
<polygon fill="#98907D" points="60,3 51,2 51,9 60,9 "/>
<polygon fill="#98907D" points="13,2 4,3 4,9 13,9 "/>
<polygon fill="#C1BCAF" points="62,5 52,4 52,62 62,61 "/>
<polygon fill="#C1BCAF" points="12,4 2,5 2,61 12,62 "/>
<polygon fill="#E6EBEF" points="18,23 18,60 32,60 46,60 46,23 "/>
<rect x="23.023" y="52.125" fill="#302C3B" width="4.241" height="7.875"/>
<rect x="41.306" y="52.125" fill="#302C3B" width="4.241" height="7.875"/>
<rect x="18.453" y="52.125" fill="#302C3B" width="4.241" height="7.875"/>
<rect x="27.594" y="52.125" fill="#302C3B" width="4.241" height="7.875"/>
<rect x="36.735" y="52.125" fill="#302C3B" width="4.241" height="7.875"/>
<rect x="32.165" y="52.125" fill="#302C3B" width="4.241" height="7.875"/>
<rect x="18.453" y="39.656" fill="#302C3B" width="4.241" height="11.813"/>
<rect x="23.023" y="39.656" fill="#302C3B" width="8.812" height="11.813"/>
<rect x="32.165" y="39.656" fill="#302C3B" width="8.812" height="11.813"/>
<rect x="41.306" y="39.656" fill="#302C3B" width="4.241" height="11.813"/>
<rect x="23.023" y="31.453" fill="#302C3B" width="8.812" height="7.874"/>
<rect x="18.453" y="31.453" fill="#302C3B" width="4.241" height="7.874"/>
<rect x="41.306" y="31.453" fill="#302C3B" width="4.241" height="7.874"/>
<rect x="32.165" y="31.453" fill="#302C3B" width="8.812" height="7.874"/>
<rect x="18.453" y="23.25" fill="#302C3B" width="4.241" height="7.873"/>
<rect x="32.165" y="23.25" fill="#302C3B" width="8.812" height="7.873"/>
<rect x="41.306" y="23.25" fill="#302C3B" width="4.241" height="7.873"/>
<rect x="23.023" y="23.25" fill="#302C3B" width="8.812" height="7.873"/>
<rect x="26.38" y="55.406" fill="#E6EBEF" width="0.164" height="1.313"/>
<rect x="28.314" y="55.406" fill="#E6EBEF" width="0.165" height="1.313"/>
<rect x="35.521" y="55.406" fill="#E6EBEF" width="0.165" height="1.313"/>
<rect x="37.456" y="55.406" fill="#E6EBEF" width="0.164" height="1.313"/>
<polygon fill="#98907D" points="18,60 12,62 12,20 18,23 "/>
<polygon fill="#7F7358" points="32,20 12,20 18,23 32,23 46,23 52,20 "/>
<polygon fill="#98907D" points="46,60 52,62 52,20 46,23 "/>
<polygon fill="#DBD6C7" points="46,60 32,60 18,60 12,62 32,62 52,62 "/>
<polygon fill="#B3C2C6" points="32,44.5 18,44.5 18,47.5 32,47.5 46,47.5 46,44.5 "/>
<polygon fill="#99A8AE" points="16.251,47.5 18,47.5 18,44.5 16.251,44.75 "/>
<polygon fill="#99A8AE" points="46,44.5 46,47.5 47.749,47.5 47.749,44.75 "/>
<polygon fill="#E6EBEF" points="32,44.953 17.751,44.953 17.751,47.047 32,47.047 46.249,47.047 46.249,44.953 "/>
<polygon fill="#CFD8DD" points="16,47.047 17.751,47.047 17.751,44.953 16,45.203 "/>
<polygon fill="#CFD8DD" points="46.249,44.953 46.249,47.047 48,47.047 48,45.203 "/>
<rect x="12" y="4" fill="#DBD6C7" width="40" height="16"/>
<path fill="#E81C27" d="M47,8c0-0.551-0.45-1-1-1H18c-0.55,0-1,0.449-1,1v8c0,0.549,0.45,1,1,1h28c0.55,0,1-0.451,1-1V8z"/>
<path fill="#FFFFFF" d="M22.141,13.478c-0.01-0.15,0.076-0.23,0.217-0.232h0.842c0.135,0,0.205,0.076,0.23,0.215
	c0.078,0.447,0.451,0.676,1.08,0.676c0.654,0,0.961-0.281,0.961-0.658c0-0.465-0.521-0.666-1.139-0.887
	c-0.939-0.328-2.084-0.701-2.084-2.086c0-1.248,1.033-1.893,2.117-1.891c1.074-0.002,2.084,0.588,2.191,1.867
	c0.01,0.15-0.076,0.23-0.221,0.23h-0.838c-0.135-0.002-0.207-0.07-0.229-0.209c-0.078-0.432-0.4-0.643-0.902-0.641
	c-0.529,0-0.84,0.268-0.84,0.643c0,0.48,0.451,0.689,1.049,0.914c0.949,0.34,2.176,0.684,2.174,2.059
	c0,1.248-1.029,1.906-2.24,1.904C23.301,15.384,22.248,14.783,22.141,13.478z"/>
<path fill="#FFFFFF" d="M32.668,15.255h-0.936c-0.121,0.002-0.211-0.055-0.25-0.184l-0.313-0.982l-2.5,0.002l-0.314,0.98
	c-0.037,0.129-0.127,0.184-0.25,0.184h-0.932c-0.16,0-0.236-0.09-0.184-0.248l2.072-6.084c0.035-0.119,0.131-0.184,0.254-0.184
	h1.205c0.123,0,0.221,0.064,0.256,0.184l2.074,6.084C32.904,15.166,32.826,15.255,32.668,15.255z M30.789,12.888l-0.871-2.725
	l-0.865,2.725H30.789z"/>
<path fill="#FFFFFF" d="M37.271,14.251v0.785c0,0.143-0.078,0.219-0.221,0.219h-2.828h-0.432c-0.141,0-0.219-0.076-0.219-0.219V8.96
	c0-0.141,0.078-0.221,0.219-0.221h0.838c0.145,0,0.223,0.08,0.223,0.221v5.066l2.199,0.002
	C37.193,14.029,37.271,14.105,37.271,14.251z"/>
<path fill="#FFFFFF" d="M41.859,14.251v0.785c0,0.143-0.078,0.221-0.221,0.221h-3.227h-0.195c-0.145,0-0.221-0.08-0.221-0.221V8.96
	c0-0.141,0.076-0.221,0.221-0.221h1.059h2.314c0.143,0,0.223,0.08,0.223,0.221v0.785c0,0.145-0.078,0.223-0.221,0.223L39.275,9.97
	v1.393h2.084c0.141,0,0.221,0.078,0.221,0.219v0.762c0,0.141-0.08,0.223-0.221,0.223h-2.084v1.461h2.363
	C41.781,14.027,41.859,14.107,41.859,14.251z"/>
<linearGradient id="SVGID_1_" gradientUnits="userSpaceOnUse" x1="4.6533" y1="57.9092" x2="9.4482" y2="57.9092">
	<stop  offset="0" style="stop-color:#8A653C"/>
	<stop  offset="0.2032" style="stop-color:#835F38"/>
	<stop  offset="0.5012" style="stop-color:#6F502D"/>
	<stop  offset="0.856" style="stop-color:#4F361B"/>
	<stop  offset="1" style="stop-color:#402A12"/>
	<a:midPointStop  offset="0" style="stop-color:#8A653C"/>
	<a:midPointStop  offset="0.6242" style="stop-color:#8A653C"/>
	<a:midPointStop  offset="1" style="stop-color:#402A12"/>
</linearGradient>
<path fill="url(#SVGID_1_)" d="M4.653,57.83c0-0.279,4.795-0.279,4.795,0C9.448,58.32,4.653,58.32,4.653,57.83z"/>
<path id="Shape_6_" fill="#CFD8DD" d="M4.551,57.764c0.156,1.338,0.313,2.674,0.47,4.002c1.337,0.313,2.729,0.313,4.065,0
	c0.155-1.33,0.31-2.664,0.465-4.002C7.917,58.238,6.184,58.238,4.551,57.764z"/>
<path fill="#57602E" d="M7.338,54.811c-0.228,0.693-0.1,2.355,0.213,2.971c0.091,0.184-0.703,0.168-0.724-0.031
	c-0.15-1.449,0.05-2.434-0.272-2.803C6.424,54.799,7.487,54.35,7.338,54.811z"/>
<linearGradient id="SVGID_2_" gradientUnits="userSpaceOnUse" x1="7.0508" y1="56.6738" x2="7.0508" y2="49.6836">
	<stop  offset="0" style="stop-color:#4A8500"/>
	<stop  offset="1" style="stop-color:#80C900"/>
	<a:midPointStop  offset="0" style="stop-color:#4A8500"/>
	<a:midPointStop  offset="0.5" style="stop-color:#4A8500"/>
	<a:midPointStop  offset="1" style="stop-color:#80C900"/>
</linearGradient>
<path fill="url(#SVGID_2_)" d="M10.952,53.002c0.189-0.178-0.937-0.291-0.316-0.551c0.124-0.053,0.451-0.639,0.071-0.713
	c-0.638-0.123-0.104-0.318-0.393-0.727c-0.176-0.248-1.196,0.061-0.807-0.563c0.063-0.102-0.347-0.496-0.61-0.367
	c-0.68,0.332-0.329-0.309-0.736-0.314c-0.135-0.002-0.512,0.672-0.631,0.119c-0.025-0.113-0.388-0.203-0.526-0.203
	s-0.437,0.117-0.526,0.203c-0.498,0.48-0.495-0.121-0.631-0.119c-0.407,0.006-0.273,0.369-0.736,0.314
	c-0.303-0.035-0.601,0.252-0.61,0.367c-0.071,0.832-0.485,0.029-0.847,0.543c-0.288,0.406,0.524,0.625-0.291,0.768
	c-0.382,0.064,0.086,0.502,0.01,0.691c-0.098,0.244-0.536,0.449-0.19,0.662c1.042,0.646-0.353,0.391,0.084,0.824
	c0.219,0.215-0.288,0.58,0.11,0.742c0.83,0.336-0.687,0.523,0.676,0.625c0.137,0.012,0.236,0.434,0.273,0.545
	c0.186,0.566,0.271-0.191,1.072,0.184c0.119,0.057,0.272,1.018,0.773,0.475c0.197-0.211,0.435-0.188,0.708-0.188
	c0.274,0,0.662,0.426,0.91,0.068c0.267-0.383,0.865-0.225,0.821-0.355c-0.103-0.303,0.666,0.064,0.975-0.309
	c0.078-0.094-0.142-0.617,0.371-0.42c0.517,0.199,0.19-0.438,0.686-0.717c0.316-0.178-0.371-0.643,0.238-0.748
	C11.363,53.754,10.635,53.299,10.952,53.002z"/>
<linearGradient id="SVGID_3_" gradientUnits="userSpaceOnUse" x1="-642.0791" y1="57.9092" x2="-637.2842" y2="57.9092" gradientTransform="matrix(-1 0 0 1 -582.7324 0)">
	<stop  offset="0" style="stop-color:#8A653C"/>
	<stop  offset="0.2032" style="stop-color:#835F38"/>
	<stop  offset="0.5012" style="stop-color:#6F502D"/>
	<stop  offset="0.856" style="stop-color:#4F361B"/>
	<stop  offset="1" style="stop-color:#402A12"/>
	<a:midPointStop  offset="0" style="stop-color:#8A653C"/>
	<a:midPointStop  offset="0.6242" style="stop-color:#8A653C"/>
	<a:midPointStop  offset="1" style="stop-color:#402A12"/>
</linearGradient>
<path fill="url(#SVGID_3_)" d="M59.347,57.83c0-0.279-4.795-0.279-4.795,0C54.552,58.32,59.347,58.32,59.347,57.83z"/>
<path id="Shape_1_" fill="#CFD8DD" d="M59.449,57.764c-0.156,1.338-0.313,2.674-0.47,4.002c-1.337,0.313-2.729,0.313-4.065,0
	c-0.155-1.33-0.31-2.664-0.465-4.002C56.083,58.238,57.816,58.238,59.449,57.764z"/>
<path fill="#57602E" d="M56.662,54.811c0.228,0.693,0.1,2.355-0.213,2.971c-0.091,0.184,0.703,0.168,0.724-0.031
	c0.15-1.449-0.05-2.434,0.272-2.803C57.576,54.799,56.513,54.35,56.662,54.811z"/>
<linearGradient id="SVGID_4_" gradientUnits="userSpaceOnUse" x1="-639.6816" y1="56.6738" x2="-639.6816" y2="49.6836" gradientTransform="matrix(-1 0 0 1 -582.7324 0)">
	<stop  offset="0" style="stop-color:#4A8500"/>
	<stop  offset="1" style="stop-color:#80C900"/>
	<a:midPointStop  offset="0" style="stop-color:#4A8500"/>
	<a:midPointStop  offset="0.5" style="stop-color:#4A8500"/>
	<a:midPointStop  offset="1" style="stop-color:#80C900"/>
</linearGradient>
<path fill="url(#SVGID_4_)" d="M53.048,53.002c-0.189-0.178,0.937-0.291,0.316-0.551c-0.124-0.053-0.451-0.639-0.071-0.713
	c0.638-0.123,0.104-0.318,0.393-0.727c0.176-0.248,1.196,0.061,0.807-0.563c-0.063-0.102,0.347-0.496,0.61-0.367
	c0.68,0.332,0.329-0.309,0.736-0.314c0.135-0.002,0.512,0.672,0.631,0.119c0.025-0.113,0.388-0.203,0.526-0.203
	s0.437,0.117,0.526,0.203c0.498,0.48,0.495-0.121,0.631-0.119c0.407,0.006,0.273,0.369,0.736,0.314
	c0.303-0.035,0.601,0.252,0.61,0.367c0.071,0.832,0.485,0.029,0.847,0.543c0.288,0.406-0.524,0.625,0.291,0.768
	c0.382,0.064-0.086,0.502-0.01,0.691c0.098,0.244,0.536,0.449,0.19,0.662c-1.042,0.646,0.353,0.391-0.084,0.824
	c-0.219,0.215,0.288,0.58-0.11,0.742c-0.83,0.336,0.687,0.523-0.676,0.625c-0.137,0.012-0.236,0.434-0.273,0.545
	c-0.186,0.566-0.271-0.191-1.072,0.184c-0.119,0.057-0.272,1.018-0.773,0.475c-0.197-0.211-0.435-0.188-0.708-0.188
	c-0.274,0-0.662,0.426-0.91,0.068c-0.267-0.383-0.865-0.225-0.821-0.355c0.103-0.303-0.666,0.064-0.975-0.309
	c-0.078-0.094,0.142-0.617-0.371-0.42c-0.517,0.199-0.19-0.438-0.686-0.717c-0.316-0.178,0.371-0.643-0.238-0.748
	C52.637,53.754,53.365,53.299,53.048,53.002z"/>
</svg>
