<?xml version="1.0" encoding="utf-8"?>
<!-- Generator: Adobe Illustrator 15.0.0, SVG Export Plug-In . SVG Version: 6.00 Build 0)  -->
<!DOCTYPE svg PUBLIC "-//W3C//DTD SVG 1.1//EN" "http://www.w3.org/Graphics/SVG/1.1/DTD/svg11.dtd" [
	<!ENTITY ns_flows "http://ns.adobe.com/Flows/1.0/">
	<!ENTITY ns_extend "http://ns.adobe.com/Extensibility/1.0/">
	<!ENTITY ns_ai "http://ns.adobe.com/AdobeIllustrator/10.0/">
	<!ENTITY ns_graphs "http://ns.adobe.com/Graphs/1.0/">
]>
<svg version="1.1" id="Layer_1" xmlns:x="&ns_extend;" xmlns:i="&ns_ai;" xmlns:graph="&ns_graphs;"
	 xmlns="http://www.w3.org/2000/svg" xmlns:xlink="http://www.w3.org/1999/xlink" xmlns:a="http://ns.adobe.com/AdobeSVGViewerExtensions/3.0/"
	 x="0px" y="0px" width="64px" height="64px" viewBox="0 0 64 64" enable-background="new 0 0 64 64" xml:space="preserve">
<rect x="5" y="27" fill="#EADCB8" width="54" height="35"/>
<rect x="5" y="59" fill="#BAAF92" width="54" height="3"/>
<path fill="#FF3640" d="M62,28v-2c0-0.551-0.45-1-1-1H3c-0.55,0-1,0.449-1,1v2H62z"/>
<path fill="#FFE12C" d="M2,31v2c0,0.549,0.45,1,1,1h58c0.55,0,1-0.451,1-1v-2H2z"/>
<rect x="2" y="28" fill="#F59E01" width="60" height="3"/>
<path fill="#FF3640" d="M57,20c0,1.1-0.9,2-2,2H27c-1.1,0-2-0.9-2-2V4c0-1.1,0.9-2,2-2h28c1.1,0,2,0.9,2,2V20z"/>
<path fill="#FFE12C" d="M55,19c0,0.549-0.45,1-1,1H28c-0.55,0-1-0.451-1-1V5c0-0.551,0.45-1,1-1h26c0.55,0,1,0.449,1,1V19z"/>
<path fill="#FF3640" d="M29.707,16.631v-0.836c0-0.152,0.051-0.277,0.165-0.393l3.034-3.064c0.593-0.604,1.101-1.301,1.101-1.965
	c0-0.793-0.475-1.225-1.171-1.225c-0.676,0-1.146,0.291-1.255,0.955c-0.034,0.205-0.142,0.311-0.333,0.311h-1.223
	c-0.205,0-0.318-0.115-0.305-0.334c0.152-1.895,1.598-2.732,3.073-2.732c1.53,0,3.063,0.949,3.063,3.025
	c0,1.076-0.674,2.137-1.487,2.939l-1.896,1.852h3.215c0.205,0,0.317,0.115,0.317,0.318v1.146c0,0.205-0.112,0.318-0.317,0.318
	h-5.664C29.82,16.949,29.707,16.836,29.707,16.631z"/>
<path fill="#FF3640" d="M43.99,13.951v1.078c0,0.205-0.114,0.318-0.319,0.318h-0.69v1.281c0,0.205-0.112,0.318-0.317,0.318H41.43
	c-0.205,0-0.318-0.113-0.318-0.318v-1.281h-4.235c-0.205,0-0.317-0.113-0.317-0.318v-1.191c0-0.143,0.024-0.26,0.09-0.396
	l2.918-5.684c0.076-0.154,0.193-0.229,0.373-0.229h1.314c0.242,0,0.344,0.154,0.229,0.383l-2.932,5.721h2.561v-1.914
	c0-0.205,0.115-0.32,0.32-0.32h1.23c0.205,0,0.318,0.115,0.318,0.32v1.914h0.689C43.876,13.633,43.99,13.746,43.99,13.951z"/>
<path fill="#FF3640" d="M51.848,7.85v8.781c0,0.205-0.113,0.318-0.32,0.318h-1.211c-0.205,0-0.317-0.113-0.317-0.318v-3.639H46.87
	v3.639c0,0.205-0.114,0.318-0.32,0.318h-1.211c-0.205,0-0.317-0.113-0.317-0.318V7.85c0-0.205,0.112-0.318,0.317-0.318h1.211
	c0.206,0,0.32,0.113,0.32,0.318v3.367h3.129V7.85c0-0.205,0.112-0.318,0.317-0.318h1.211C51.732,7.529,51.848,7.645,51.848,7.85z"/>
<rect x="29" y="21" fill="#FF3640" width="2" height="5"/>
<rect x="51" y="21" fill="#FF3640" width="2" height="5"/>
<rect x="22" y="40" fill="#BAAF92" width="20" height="22"/>
<rect x="9" y="42" fill="#BAAF92" width="9" height="10"/>
<rect x="10" y="43" fill="#302C3B" width="7" height="8"/>
<rect x="45.934" y="42" fill="#BAAF92" width="9" height="10"/>
<rect x="46.934" y="43" fill="#302C3B" width="7" height="8"/>
<rect x="23" y="41" fill="#302C3B" width="8.25" height="18"/>
<rect x="32.75" y="41" fill="#302C3B" width="8.25" height="18"/>
<rect x="22.5" y="49" fill="#BAAF92" width="19" height="2"/>
<path fill="#E6EBEF" d="M32.604,48.5c-0.138,0-0.138,0.5,0,0.5h1c0.139,0,0.25,0.111,0.25,0.25v1.5c0,0.139-0.111,0.25-0.25,0.25h-1
	c-0.138,0-0.138,0.5,0,0.5h1.392c0.136,0,0.358-0.064,0.358-0.33v-2.342c0-0.264-0.224-0.328-0.358-0.328H32.604z"/>
<path fill="#E6EBEF" d="M31.396,51.5c0.138,0,0.138-0.5,0-0.5h-1c-0.139,0-0.25-0.111-0.25-0.25v-1.5c0-0.139,0.111-0.25,0.25-0.25
	h1c0.138,0,0.138-0.5,0-0.5h-1.392c-0.136,0-0.358,0.064-0.358,0.328v2.342c0,0.266,0.224,0.33,0.358,0.33H31.396z"/>
<rect x="31.875" y="40" fill="#302C3B" width="0.25" height="19"/>
<linearGradient id="SVGID_1_" gradientUnits="userSpaceOnUse" x1="32.0005" y1="44" x2="32.0005" y2="40">
	<stop  offset="0" style="stop-color:#302C3B;stop-opacity:0"/>
	<stop  offset="0.9" style="stop-color:#302C3B;stop-opacity:0.54"/>
	<stop  offset="1" style="stop-color:#302C3B;stop-opacity:0.6"/>
	<a:midPointStop  offset="0" style="stop-color:#302C3B;stop-opacity:0"/>
	<a:midPointStop  offset="0.7576" style="stop-color:#302C3B;stop-opacity:0"/>
	<a:midPointStop  offset="1" style="stop-color:#302C3B;stop-opacity:0.6"/>
</linearGradient>
<rect x="21" y="40" fill="url(#SVGID_1_)" width="22" height="4"/>
<linearGradient id="SVGID_2_" gradientUnits="userSpaceOnUse" x1="32.0005" y1="38" x2="32.0005" y2="34">
	<stop  offset="0" style="stop-color:#302C3B;stop-opacity:0"/>
	<stop  offset="0.9" style="stop-color:#302C3B;stop-opacity:0.36"/>
	<stop  offset="1" style="stop-color:#302C3B;stop-opacity:0.4"/>
	<a:midPointStop  offset="0" style="stop-color:#302C3B;stop-opacity:0"/>
	<a:midPointStop  offset="0.7576" style="stop-color:#302C3B;stop-opacity:0"/>
	<a:midPointStop  offset="1" style="stop-color:#302C3B;stop-opacity:0.4"/>
</linearGradient>
<rect x="5" y="34" fill="url(#SVGID_2_)" width="54" height="4"/>
<linearGradient id="SVGID_3_" gradientUnits="userSpaceOnUse" x1="32.0005" y1="41" x2="32.0005" y2="37">
	<stop  offset="0" style="stop-color:#FF3640"/>
	<stop  offset="1" style="stop-color:#F59E01"/>
	<a:midPointStop  offset="0" style="stop-color:#FF3640"/>
	<a:midPointStop  offset="0.5" style="stop-color:#FF3640"/>
	<a:midPointStop  offset="1" style="stop-color:#F59E01"/>
</linearGradient>
<path fill="url(#SVGID_3_)" d="M42,37H22c-0.55,0-1,0.449-1,1v2c0,0.549,0.45,1,1,1h20c0.55,0,1-0.451,1-1v-2
	C43,37.449,42.55,37,42,37z"/>
</svg>
