<?xml version="1.0" encoding="utf-8"?>
<!-- Generator: Adobe Illustrator 15.0.0, SVG Export Plug-In . SVG Version: 6.00 Build 0)  -->
<!DOCTYPE svg PUBLIC "-//W3C//DTD SVG 1.1//EN" "http://www.w3.org/Graphics/SVG/1.1/DTD/svg11.dtd" [
	<!ENTITY ns_flows "http://ns.adobe.com/Flows/1.0/">
	<!ENTITY ns_extend "http://ns.adobe.com/Extensibility/1.0/">
	<!ENTITY ns_ai "http://ns.adobe.com/AdobeIllustrator/10.0/">
	<!ENTITY ns_graphs "http://ns.adobe.com/Graphs/1.0/">
]>
<svg version="1.1" id="Layer_1" xmlns:x="&ns_extend;" xmlns:i="&ns_ai;" xmlns:graph="&ns_graphs;"
	 xmlns="http://www.w3.org/2000/svg" xmlns:xlink="http://www.w3.org/1999/xlink" xmlns:a="http://ns.adobe.com/AdobeSVGViewerExtensions/3.0/"
	 x="0px" y="0px" width="64px" height="64px" viewBox="0 0 64 64" enable-background="new 0 0 64 64" xml:space="preserve">
<path fill="#225E1E" d="M38.961,31.849c3.018-5.368-0.925-14.664,5.957-19.893C36.729,9.059,29.993,23.662,38.961,31.849z"/>
<path fill="#297124" d="M41.685,32.104c4.245-4.152,1.735-15.145,9.647-17.893C44.222,8.749,35.166,21.32,41.685,32.104z"/>
<path fill="#225E1E" d="M42.112,35.228c4.708-3.442,5.827-15.234,13.997-16.708C49.731,11.986,36.965,23.519,42.112,35.228z"/>
<path fill="#297124" d="M42.531,37.959c5.389-1.704,9.245-13.888,17.435-12.547C55.563,17.024,40.646,25.041,42.531,37.959z"/>
<path fill="#225E1E" d="M41.504,40.332c5.591-0.173,13.688-11.313,21.351-7.761C60.358,23.221,42.41,27.277,41.504,40.332z"/>
<path fill="#297124" d="M40.546,42.26c5.587,0.265,15.022-8.299,22.454-4.157C61.072,28.579,42.235,29.307,40.546,42.26z"/>
<path fill="#225E1E" d="M39.44,42.612c5.141,2.51,17.247-2.989,22.901,3.894C63.511,36.823,45.059,31.188,39.44,42.612z"/>
<path fill="#297124" d="M36.575,44.12c4.897,3.077,17.706-0.301,22.736,7.184C61.313,41.8,43.156,33.386,36.575,44.12z"/>
<path fill="#225E1E" d="M32.638,45.382c4.583,3.65,17.319,1.896,21.625,9.945C57.138,46.12,40.181,35.501,32.638,45.382z"/>
<path fill="#297124" d="M27.104,45.201c3.898,4.569,16.337,4.741,19.236,13.571C50.685,50.344,36.146,37.117,27.104,45.201z"/>
<path fill="#225E1E" d="M23.369,45.6c3.163,5.253,12.208,4.737,13.756,14.001C42.658,52.13,33.478,39.372,23.369,45.6z"/>
<path fill="#297124" d="M18.112,44.11c2.445,5.73,11.458,6.748,11.784,16.169C36.339,53.825,28.919,39.658,18.112,44.11z"/>
<path fill="#CF000C" d="M14.941,37.917C11.32,34.064,9.186,40.073,1,38.337C7.669,44.541,10.229,38.383,14.941,37.917z"/>
<path fill="#E81C27" d="M23.942,39.235c-4.836-5.146-7.688,2.882-18.623,0.561C14.229,48.082,17.647,39.856,23.942,39.235z"/>
<linearGradient id="SVGID_1_" gradientUnits="userSpaceOnUse" x1="37.6982" y1="10.3164" x2="42.4877" y2="13.0039">
	<stop  offset="0" style="stop-color:#BD915F"/>
	<stop  offset="0.4293" style="stop-color:#A97B47"/>
	<stop  offset="1" style="stop-color:#91612A"/>
	<a:midPointStop  offset="0" style="stop-color:#BD915F"/>
	<a:midPointStop  offset="0.4676" style="stop-color:#BD915F"/>
	<a:midPointStop  offset="1" style="stop-color:#91612A"/>
</linearGradient>
<path fill="url(#SVGID_1_)" d="M41.81,9.1c-1.455-0.723-2.003-2.911-2.132-3.029c-0.169-0.156-0.71,2.365,0.406,4.377
	c-3.153,3.276-5.267,5.071-7.277,9.284c0,0,0.448,3.359,5.27,2.223c1.423-8.412,9.274-12.307,6.969-20.452
	C44.411-0.734,46.024,4.975,41.81,9.1z"/>
<radialGradient id="SVGID_2_" cx="37.6748" cy="27.2534" r="24.4155" gradientTransform="matrix(1.1346 -0.1423 0.0259 0.1943 -10.6267 39.3043)" gradientUnits="userSpaceOnUse">
	<stop  offset="0" style="stop-color:#FFAA00"/>
	<stop  offset="0.1336" style="stop-color:#FDA003"/>
	<stop  offset="0.3633" style="stop-color:#F9840A"/>
	<stop  offset="0.6612" style="stop-color:#F25717"/>
	<stop  offset="1" style="stop-color:#E81C27"/>
	<a:midPointStop  offset="0" style="stop-color:#FFAA00"/>
	<a:midPointStop  offset="0.5879" style="stop-color:#FFAA00"/>
	<a:midPointStop  offset="1" style="stop-color:#E81C27"/>
</radialGradient>
<path fill="url(#SVGID_2_)" d="M33.764,42.708l-1.076-8.078c-17.39-0.801-15.896,10.027-30.427,8.279
	C10.551,49.874,20.178,39.579,33.764,42.708z"/>
<radialGradient id="SVGID_3_" cx="19.9312" cy="31.7192" r="23.7744" gradientTransform="matrix(1 0 0 0.6465 -1.4473 13.2961)" gradientUnits="userSpaceOnUse">
	<stop  offset="0" style="stop-color:#92C932"/>
	<stop  offset="0.3629" style="stop-color:#90C731"/>
	<stop  offset="0.5729" style="stop-color:#87C02F"/>
	<stop  offset="0.7439" style="stop-color:#79B42B"/>
	<stop  offset="0.8931" style="stop-color:#66A325"/>
	<stop  offset="1" style="stop-color:#529320"/>
	<a:midPointStop  offset="0" style="stop-color:#92C932"/>
	<a:midPointStop  offset="0.8061" style="stop-color:#92C932"/>
	<a:midPointStop  offset="1" style="stop-color:#529320"/>
</radialGradient>
<path fill="url(#SVGID_3_)" d="M43.048,30.258c-2.4-0.789-1.227-5.067-4.141-6.55c-0.442-0.225-0.302-2.031-0.79-1.988
	c-1.621,0.148-4.308-0.688-5.11-2.308c-0.126-0.254-1.788,3.013-2.07,2.987c-6.175-0.577-10.29,1.857-8.815,6.33
	c-2.596-1.926-7.332-0.763-8.346-0.068c-3.139-3.568-10.667-0.496-7.271,6.562c0,0,18.145,0.609,28.419-1.807
	c-3.87,8.65-23.844,11.972-24.852,13.32c-3.199,1.703-0.443,4.813,1.171,4.252c13.859-4.828,17.714-4.014,24.577-6.109
	c5.712-1.745,7.991-4.672,9.092-8.389C42.477,35.45,42.737,32.29,43.048,30.258z"/>
<path fill="#302C3B" d="M11.104,29.079c0.813,0.441-2.255,4.403-3.111,3.911C5.617,31.633,7.938,27.355,11.104,29.079z"/>
<linearGradient id="SVGID_4_" gradientUnits="userSpaceOnUse" x1="5.8223" y1="40.8438" x2="35.9912" y2="40.8438">
	<stop  offset="0" style="stop-color:#FF4747"/>
	<stop  offset="0.2381" style="stop-color:#EB3939"/>
	<stop  offset="0.7245" style="stop-color:#B61716"/>
	<stop  offset="1" style="stop-color:#960100"/>
	<a:midPointStop  offset="0" style="stop-color:#FF4747"/>
	<a:midPointStop  offset="0.5455" style="stop-color:#FF4747"/>
	<a:midPointStop  offset="1" style="stop-color:#960100"/>
</linearGradient>
<path fill="url(#SVGID_4_)" d="M35.098,32.428c-9.854,2.253-23.858,1.593-29.142,1.396c-0.392-0.015,0.163,1.337,0.549,1.399
	c5.322,0.877,24.711-0.543,27.935-1.422c-6.252,9.805-21.056,9.504-25.33,13.074c-0.296,0.246-1.104,1.51-0.433,2.398
	c4.82-5.229,21.719-4.268,27.267-15.94C36.158,32.879,35.608,32.312,35.098,32.428z"/>
<path fill="#FFFFFF" d="M29.846,27.554c0,4.102-6.341,4.102-6.341,0C23.505,23.453,29.846,23.453,29.846,27.554z"/>
<path fill="#302C3B" d="M28.091,27.552c0,3.038-4.698,3.038-4.698,0C23.393,24.51,28.091,24.51,28.091,27.552z"/>
<path fill="#6E8189" d="M27.354,26.823c0,1.007-1.557,1.007-1.557,0C25.797,25.814,27.354,25.814,27.354,26.823z"/>
<path fill="#297124" d="M25.028,17.922c0,0-6.56,4.756-4.332,7.917c2.231,3.156,11.707-4.585,18.762-0.641
	c0,0-1.499-2.743-3.685-2.957c0,0,0.805-0.826,2.852-1.264c0,0-2.578-2.361-6.179,0.798c0,0,0.011-1.814,1.334-2.967
	c0,0-3.283,0.479-5.182,2.964c0,0-0.965-0.323-0.127-2.774c0,0-2.11,1.167-3.433,3.206C25.039,22.204,24.171,20.957,25.028,17.922z"
	/>
<path fill="#297124" d="M13.206,32.792c-0.515-0.184-0.536-1.153,0.568-2.069c1.104-0.918,3.223-1.888,6.893,0.131
	c3.663,2.025,6.084,3.585,8.427,1.093c2.343-2.482,4.077-2.22,5.346-1.841c0,0-2.478-0.136-3.873,1.676
	c-1.401,1.808-4.158,3.72-7.066,2.224c-2.911-1.5-6.117-3.125-7.603-2.729C14.414,31.677,14.196,33.148,13.206,32.792z"/>
<path fill="#F0D6B6" d="M32.153,35.624c-12.842,2.407-25.297,0.83-25.297,0.83l-0.238-1.609c0,0,16.021,0.982,25.504-0.879
	C32.6,33.873,32.414,35.575,32.153,35.624z"/>
<path fill="#F0D6B6" d="M9.229,45.735c6.845-3.695,14.855-2.457,23.075-10.092c0.303-0.28,1.169,1.137,0.851,1.402
	c-8.443,7.055-15.583,6.379-23.249,10.213C9.474,47.475,8.995,45.861,9.229,45.735z"/>
<linearGradient id="SVGID_5_" gradientUnits="userSpaceOnUse" x1="7.5684" y1="37.4785" x2="12.0557" y2="37.4785">
	<stop  offset="0" style="stop-color:#FFEDD9"/>
	<stop  offset="0.255" style="stop-color:#FBE8D3"/>
	<stop  offset="0.6" style="stop-color:#EED9C2"/>
	<stop  offset="0.9951" style="stop-color:#D9C0A5"/>
	<stop  offset="1" style="stop-color:#D9C0A5"/>
	<a:midPointStop  offset="0" style="stop-color:#FFEDD9"/>
	<a:midPointStop  offset="0.6424" style="stop-color:#FFEDD9"/>
	<a:midPointStop  offset="1" style="stop-color:#D9C0A5"/>
</linearGradient>
<path fill="url(#SVGID_5_)" d="M7.568,34.896c0,0,2.244,8.291,2.702,4.761c0.383-2.929,1.609-2.875,1.785-4.602
	C9.018,33.737,7.568,34.896,7.568,34.896z"/>
<linearGradient id="SVGID_6_" gradientUnits="userSpaceOnUse" x1="21.2676" y1="36.7949" x2="24.7109" y2="36.7949">
	<stop  offset="0" style="stop-color:#FFEDD9"/>
	<stop  offset="0.255" style="stop-color:#FBE8D3"/>
	<stop  offset="0.6" style="stop-color:#EED9C2"/>
	<stop  offset="0.9951" style="stop-color:#D9C0A5"/>
	<stop  offset="1" style="stop-color:#D9C0A5"/>
	<a:midPointStop  offset="0" style="stop-color:#FFEDD9"/>
	<a:midPointStop  offset="0.6424" style="stop-color:#FFEDD9"/>
	<a:midPointStop  offset="1" style="stop-color:#D9C0A5"/>
</linearGradient>
<path fill="url(#SVGID_6_)" d="M21.268,35.022c0,0,1.67,6.208,2.034,3.416c0.302-2.315,1.271-2.221,1.409-3.586
	C22.309,33.812,21.268,35.022,21.268,35.022z"/>
<linearGradient id="SVGID_7_" gradientUnits="userSpaceOnUse" x1="31.2227" y1="35.6592" x2="34.7285" y2="35.6592">
	<stop  offset="0" style="stop-color:#FFEDD9"/>
	<stop  offset="0.255" style="stop-color:#FBE8D3"/>
	<stop  offset="0.6" style="stop-color:#EED9C2"/>
	<stop  offset="0.9951" style="stop-color:#D9C0A5"/>
	<stop  offset="1" style="stop-color:#D9C0A5"/>
	<a:midPointStop  offset="0" style="stop-color:#FFEDD9"/>
	<a:midPointStop  offset="0.6424" style="stop-color:#FFEDD9"/>
	<a:midPointStop  offset="1" style="stop-color:#D9C0A5"/>
</linearGradient>
<path fill="url(#SVGID_7_)" d="M31.223,34.119c0,0,2.87,6.044,2.753,3.232c-0.098-2.33,0.842-2.591,0.746-3.96
	C32.176,32.751,31.223,34.119,31.223,34.119z"/>
<linearGradient id="SVGID_8_" gradientUnits="userSpaceOnUse" x1="11.1338" y1="43.8818" x2="14.9414" y2="43.8818">
	<stop  offset="0" style="stop-color:#FFEDD9"/>
	<stop  offset="0.255" style="stop-color:#FBE8D3"/>
	<stop  offset="0.6" style="stop-color:#EED9C2"/>
	<stop  offset="0.9951" style="stop-color:#D9C0A5"/>
	<stop  offset="1" style="stop-color:#D9C0A5"/>
	<a:midPointStop  offset="0" style="stop-color:#FFEDD9"/>
	<a:midPointStop  offset="0.6424" style="stop-color:#FFEDD9"/>
	<a:midPointStop  offset="1" style="stop-color:#D9C0A5"/>
</linearGradient>
<path fill="url(#SVGID_8_)" d="M11.134,46.681c0,0-0.018-7.787,1.181-5.024c0.994,2.29,2.082,2.226,2.627,3.587
	C12.785,46.979,11.134,46.681,11.134,46.681z"/>
<path fill="#225E1E" d="M11.492,50.561c0.383,6.794,9.014,5.952,11.08,10.817c1.154-6.093-6.597-6.658-5.631-12.217
	C13.902,47.845,11.415,49.201,11.492,50.561z"/>
<path fill="#297124" d="M15.756,48.636C16.14,55.431,26.114,58.136,28.18,63c1.154-6.093-7.938-10.205-6.974-15.763
	C18.168,45.92,15.681,47.276,15.756,48.636z"/>
<path fill="#225E1E" d="M20.572,47.769c0.384,6.795,7.708,5.387,9.773,10.252c1.154-6.094-5.288-6.094-4.322-11.652
	C22.984,45.053,20.497,46.409,20.572,47.769z"/>
</svg>
