<?xml version="1.0" encoding="utf-8"?>
<!-- Generator: Adobe Illustrator 15.0.0, SVG Export Plug-In . SVG Version: 6.00 Build 0)  -->
<!DOCTYPE svg PUBLIC "-//W3C//DTD SVG 1.1//EN" "http://www.w3.org/Graphics/SVG/1.1/DTD/svg11.dtd" [
	<!ENTITY ns_flows "http://ns.adobe.com/Flows/1.0/">
	<!ENTITY ns_extend "http://ns.adobe.com/Extensibility/1.0/">
	<!ENTITY ns_ai "http://ns.adobe.com/AdobeIllustrator/10.0/">
	<!ENTITY ns_graphs "http://ns.adobe.com/Graphs/1.0/">
]>
<svg version="1.1" id="Layer_1" xmlns:x="&ns_extend;" xmlns:i="&ns_ai;" xmlns:graph="&ns_graphs;"
	 xmlns="http://www.w3.org/2000/svg" xmlns:xlink="http://www.w3.org/1999/xlink" xmlns:a="http://ns.adobe.com/AdobeSVGViewerExtensions/3.0/"
	 x="0px" y="0px" width="64px" height="64px" viewBox="0 0 64 64" enable-background="new 0 0 64 64" xml:space="preserve">
<path fill="#C97186" d="M39.285,3.844H24.719c-1.625,0.648,7.283,11.999,7.283,11.999S40.91,4.492,39.285,3.844z"/>
<path fill="#E0ADB0" d="M37.127,2H26.875c-1.623,0.648-1.313,1.999-1.313,1.999h12.877C38.439,3.999,38.752,2.648,37.127,2z"/>
<linearGradient id="SVGID_1_" gradientUnits="userSpaceOnUse" x1="32.0005" y1="62" x2="32.0005" y2="6.5449">
	<stop  offset="0" style="stop-color:#FF6688"/>
	<stop  offset="1" style="stop-color:#FF809C"/>
	<a:midPointStop  offset="0" style="stop-color:#FF6688"/>
	<a:midPointStop  offset="0.5" style="stop-color:#FF6688"/>
	<a:midPointStop  offset="1" style="stop-color:#FF809C"/>
</linearGradient>
<path fill="url(#SVGID_1_)" d="M50.578,27.53c3.502-2.379,9.242-7.584,8.324-8.363c-2.021-1.717-6.719-10.492-7.391-10.66
	c-10.887-2.282-14.1-4.508-19.51,6.267C27.297,3.753,23.379,6.225,12.49,8.507c-0.668,0.167-5.369,8.943-7.393,10.66
	c-0.916,0.779,4.826,5.984,8.326,8.363c0.184,0.125,1.096-0.988,2.34-1.835c2.617,8.59,4.359,13.563-5.102,30.999
	C9.984,57.942,18.152,62,32.002,62s22.018-4.058,21.34-5.306c-9.463-17.437-7.721-22.409-5.104-30.999
	C49.484,26.542,50.395,27.655,50.578,27.53z"/>
<path fill="#F26182" d="M18.922,29.54c-0.853-4.099-6.195-17.994-6.025-16.626c2.391,19.398,10.945,19.49-2.234,43.78
	C19.975,45.844,20.417,36.722,18.922,29.54z"/>
<path fill="#F26182" d="M51.107,12.914c0.168-1.368-5.176,12.526-6.025,16.626c-1.489,7.183-1.028,16.334,8.26,27.154
	C40.16,32.404,48.717,32.313,51.107,12.914z"/>
<path fill="#E0ADB0" d="M31.018,16.982h2.35c0-3.71,6.227-10.769,7.055-11.057C41.248,5.638,33.859,6.831,31.018,16.982z"/>
<path fill="#FDE0DA" d="M37.127,2c1.625,1.44,1.367,4.435,1.072,4.82c1.766-0.208,1.758,2.875,6.883,3.896
	c-0.379-0.913-0.262-3.986-1.191-4.25C39.227,5.14,39.551,2,37.127,2z"/>
<path fill="#F6BEC1" d="M23.58,5.926c0.828,0.288,7.057,5.197,7.057,11.057V62h3.223V16.982C33.859,8.79,22.754,5.638,23.58,5.926z"
	/>
<path fill="#FFFFFF" d="M33.023,19.675c0,0.958-1.551,0.958-1.551,0C31.473,18.716,33.023,18.716,33.023,19.675z"/>
<path fill="#FFFFFF" d="M33.023,27.494c0,0.959-1.551,0.959-1.551,0S33.023,26.535,33.023,27.494z"/>
<path fill="#FFFFFF" d="M33.023,35.313c0,0.959-1.551,0.959-1.551,0C31.473,34.355,33.023,34.355,33.023,35.313z"/>
<path fill="#FFFFFF" d="M33.023,43.134c0,0.958-1.551,0.958-1.551,0C31.473,42.175,33.023,42.175,33.023,43.134z"/>
<path fill="#FFFFFF" d="M33.023,50.953c0,0.959-1.551,0.959-1.551,0C31.473,49.995,33.023,49.995,33.023,50.953z"/>
<path fill="#FDE0DA" d="M26.875,2c-1.623,1.44-1.344,4.435-1.047,4.82c-1.766-0.208-1.781,2.875-6.906,3.896
	c0.377-0.913,0.262-3.986,1.191-4.25C24.777,5.14,24.451,2,26.875,2z"/>
</svg>
