<?xml version="1.0" encoding="utf-8"?>
<!-- Generator: Adobe Illustrator 15.0.0, SVG Export Plug-In . SVG Version: 6.00 Build 0)  -->
<!DOCTYPE svg PUBLIC "-//W3C//DTD SVG 1.1//EN" "http://www.w3.org/Graphics/SVG/1.1/DTD/svg11.dtd" [
	<!ENTITY ns_flows "http://ns.adobe.com/Flows/1.0/">
	<!ENTITY ns_extend "http://ns.adobe.com/Extensibility/1.0/">
	<!ENTITY ns_ai "http://ns.adobe.com/AdobeIllustrator/10.0/">
	<!ENTITY ns_graphs "http://ns.adobe.com/Graphs/1.0/">
]>
<svg version="1.1" id="Layer_1" xmlns:x="&ns_extend;" xmlns:i="&ns_ai;" xmlns:graph="&ns_graphs;"
	 xmlns="http://www.w3.org/2000/svg" xmlns:xlink="http://www.w3.org/1999/xlink" xmlns:a="http://ns.adobe.com/AdobeSVGViewerExtensions/3.0/"
	 x="0px" y="0px" width="64px" height="64px" viewBox="0 0 64 64" enable-background="new 0 0 64 64" xml:space="preserve">
<linearGradient id="SVGID_1_" gradientUnits="userSpaceOnUse" x1="35.6113" y1="61.2314" x2="34.1731" y2="20.0466">
	<stop  offset="0.4303" style="stop-color:#AD1531"/>
	<stop  offset="0.5515" style="stop-color:#B11935"/>
	<stop  offset="0.6748" style="stop-color:#BC2540"/>
	<stop  offset="0.7992" style="stop-color:#CF3A52"/>
	<stop  offset="0.9235" style="stop-color:#EA566C"/>
	<stop  offset="0.9273" style="stop-color:#EB576D"/>
	<a:midPointStop  offset="0.4303" style="stop-color:#AD1531"/>
	<a:midPointStop  offset="0.7037" style="stop-color:#AD1531"/>
	<a:midPointStop  offset="0.9273" style="stop-color:#EB576D"/>
</linearGradient>
<path fill="url(#SVGID_1_)" d="M62,53.49C62,56.201,20.764,62,13.264,62c-6.055,0-5.906-24.154-3.172-40.445
	c0.305-0.508,7.005-1.531,45.666-1.439C59.946,22.295,62,37.559,62,53.49z"/>
<linearGradient id="SVGID_2_" gradientUnits="userSpaceOnUse" x1="2" y1="41.7148" x2="16.5098" y2="41.7148">
	<stop  offset="0.4303" style="stop-color:#AD1531"/>
	<stop  offset="0.5936" style="stop-color:#A91430"/>
	<stop  offset="0.7597" style="stop-color:#9D132C"/>
	<stop  offset="0.9266" style="stop-color:#881026"/>
	<stop  offset="1" style="stop-color:#7D0F23"/>
	<a:midPointStop  offset="0.4303" style="stop-color:#AD1531"/>
	<a:midPointStop  offset="0.7037" style="stop-color:#AD1531"/>
	<a:midPointStop  offset="1" style="stop-color:#7D0F23"/>
</linearGradient>
<path fill="url(#SVGID_2_)" d="M16.51,60.514C16.51,63.973,2,60.686,2,57.848c0-18.803,4.02-33.834,6.72-36.242
	c0.796-0.336,2.329-0.086,2.329-0.086C15.034,29.053,16.51,46.676,16.51,60.514z"/>
<path fill="#CFD8DD" d="M11.049,21.52c-0.124,0.486-2.329,0.086-2.329,0.086c4.794-2.222,47.038-1.49,47.038-1.49
	S11.271,20.641,11.049,21.52z"/>
<path fill="#6E8189" d="M9.396,31.014c0.922-5.256,1.652-9.495,1.652-9.495L8.72,21.605c0,0-1.198,7.074-1.893,10.955L9.396,31.014z
	"/>
<path fill="#CFD8DD" d="M10.77,39.568l-0.658-5.625c-0.207-1.793-3.459-1.958-3.823-0.199l-1.136,5.533
	C4.513,42.393,11.142,42.734,10.77,39.568z M6.179,39.963l0.485-3.094l2.801,0.145l0.227,3.129
	C9.589,40.387,6.252,40.215,6.179,39.963z"/>
<polygon fill="#6E8189" points="9.205,35.414 6.357,35.207 8.686,30.923 9.396,31.014 "/>
<polygon fill="#CFD8DD" points="8.5,35.316 6.357,35.207 6.544,30.811 8.686,30.923 "/>
<polygon fill="#BFC7CC" points="8.442,30.421 7.39,30.381 7.457,29.838 8.509,29.88 "/>
<polygon fill="#CFD8DD" points="9.108,30.923 7.925,30.884 7.992,30.341 9.175,30.382 "/>
<polygon fill="#BFC7CC" points="8.619,29.468 7.566,29.428 7.634,28.885 8.686,28.927 "/>
<polygon fill="#CFD8DD" points="9.285,29.97 8.102,29.931 8.169,29.388 9.352,29.429 "/>
<polygon fill="#BFC7CC" points="8.786,28.468 7.733,28.428 7.801,27.885 8.853,27.927 "/>
<polygon fill="#CFD8DD" points="9.452,28.97 8.269,28.931 8.336,28.388 9.519,28.429 "/>
<polygon fill="#BFC7CC" points="8.978,27.516 7.925,27.476 7.992,26.933 9.044,26.976 "/>
<polygon fill="#CFD8DD" points="9.644,28.018 8.46,27.979 8.527,27.437 9.71,27.478 "/>
<polygon fill="#BFC7CC" points="9.154,26.539 8.102,26.499 8.169,25.956 9.221,25.998 "/>
<polygon fill="#CFD8DD" points="9.82,27.041 8.637,27.002 8.704,26.459 9.887,26.5 "/>
<polygon fill="#BFC7CC" points="9.321,25.546 8.269,25.506 8.336,24.963 9.388,25.006 "/>
<polygon fill="#CFD8DD" points="9.987,26.048 8.804,26.01 8.871,25.467 10.054,25.508 "/>
<polygon fill="#BFC7CC" points="9.479,24.587 8.426,24.547 8.493,24.004 9.545,24.046 "/>
<polygon fill="#CFD8DD" points="10.145,25.089 8.961,25.05 9.028,24.507 10.211,24.548 "/>
<polygon fill="#BFC7CC" points="9.657,23.601 8.604,23.561 8.672,23.018 9.724,23.06 "/>
<polygon fill="#CFD8DD" points="10.323,24.103 9.14,24.064 9.207,23.521 10.39,23.562 "/>
<polygon fill="#BFC7CC" points="9.884,22.632 8.831,22.592 8.898,22.049 9.95,22.091 "/>
<polygon fill="#CFD8DD" points="10.55,23.134 9.366,23.095 9.434,22.552 10.616,22.593 "/>
<polygon fill="#CFD8DD" points="10.668,22.084 9.479,22.102 9.546,21.559 10.729,21.532 "/>
</svg>
