<?xml version="1.0" encoding="utf-8"?>
<!-- Generator: Adobe Illustrator 15.0.0, SVG Export Plug-In . SVG Version: 6.00 Build 0)  -->
<!DOCTYPE svg PUBLIC "-//W3C//DTD SVG 1.1//EN" "http://www.w3.org/Graphics/SVG/1.1/DTD/svg11.dtd" [
	<!ENTITY ns_flows "http://ns.adobe.com/Flows/1.0/">
	<!ENTITY ns_extend "http://ns.adobe.com/Extensibility/1.0/">
	<!ENTITY ns_ai "http://ns.adobe.com/AdobeIllustrator/10.0/">
	<!ENTITY ns_graphs "http://ns.adobe.com/Graphs/1.0/">
]>
<svg version="1.1" id="Layer_1" xmlns:x="&ns_extend;" xmlns:i="&ns_ai;" xmlns:graph="&ns_graphs;"
	 xmlns="http://www.w3.org/2000/svg" xmlns:xlink="http://www.w3.org/1999/xlink" xmlns:a="http://ns.adobe.com/AdobeSVGViewerExtensions/3.0/"
	 x="0px" y="0px" width="64px" height="64px" viewBox="0 0 64 64" enable-background="new 0 0 64 64" xml:space="preserve">
<radialGradient id="SVGID_1_" cx="1333.4121" cy="-190.2134" r="30.3518" gradientTransform="matrix(-0.5725 0.7296 0.617 0.5533 928.9183 -843.237)" gradientUnits="userSpaceOnUse">
	<stop  offset="0.4364" style="stop-color:#B88A6F"/>
	<stop  offset="0.6578" style="stop-color:#B6886D"/>
	<stop  offset="0.7563" style="stop-color:#AF8166"/>
	<stop  offset="0.8301" style="stop-color:#A2755A"/>
	<stop  offset="0.8917" style="stop-color:#906348"/>
	<stop  offset="0.903" style="stop-color:#8C5F44"/>
	<a:midPointStop  offset="0.4364" style="stop-color:#B88A6F"/>
	<a:midPointStop  offset="0.844" style="stop-color:#B88A6F"/>
	<a:midPointStop  offset="0.903" style="stop-color:#8C5F44"/>
</radialGradient>
<path fill="url(#SVGID_1_)" d="M35.918,20.698c3.848,3.585,1.096,7.811,2.977,7.887c0.487,0.018,1.713-1.764,1.713-1.764
	c2.125-2.819,5.096-6.667,9.508-12.289c2.221-2.83,6.25,0.782,4.027,3.612c0.557-0.71,1.127-1.435,1.711-2.179
	c2.216-2.826,6.264,0.762,4.024,3.611c-0.598,0.762-1.162,1.485-1.708,2.181c2.215-2.823,6.241,0.788,4.026,3.61
	c-0.473,0.604-1.562,1.989-2.843,3.625c2.326-2.709,5.616,0.342,3.497,3.247c-2.412,3.302-7.387,9.958-10.066,13.36
	c-3.842,4.882-10.063,6.956-15.164,2.208c-11.09-10.328-1.719-16.245-5.24-26.776C31.942,19.726,33.997,18.912,35.918,20.698z"/>
<path fill="#70513D" d="M39.391,28.375c1.929,1.87,2.335,8.097-0.835,11.781c2.482-3.685,1.51-9.89-0.43-11.584L39.391,28.375z"/>
<path fill="#70513D" d="M31.928,21.2c3.454,10.328-5.929,16.462,5.382,26.994c6.469,5.731,12.866,1.51,15.844-2.273
	c2.725-3.459,7.688-10.104,10.077-13.373c1.765-2.417,0.245-5.241-2.033-5.11l1.368-1.747c1.952-2.485-0.204-5.555-2.575-5.463
	l0.257-0.33c2.664-3.352-2.117-7.588-4.765-4.258l-0.242,0.31c-0.339-2.557-3.566-4.196-5.493-1.742
	c-4.252,5.417-7.275,9.326-9.517,12.295c-0.513,0.747-1.108,1.522-1.36,1.572c-0.873,0.164,1.061-4.314-2.645-7.767
	C33.674,18.049,31.365,19.523,31.928,21.2z M35.607,21.084c3.763,3.504,0.618,7.898,3.269,8.007
	c0.496,0.017,1.206-0.646,2.119-1.974c2.223-2.948,5.21-6.876,9.491-12.263c1.807-2.272,5.117,0.662,3.298,2.951l-9.2,11.728
	l0.738,0.646l9.189-11.713v0.002l1.71-2.182c1.757-2.236,5.16,0.577,3.288,2.965l-1.192,1.522l0,0l-9.708,12.373l0.739,0.644
	l9.192-11.71c1.808-2.275,5.116,0.659,3.285,2.965l-2.844,3.623l0.002,0.002l-6.346,8.089l0.739,0.645l6.34-8.081
	c1.888-2.184,4.51,0.197,2.752,2.605c-2.386,3.265-7.338,9.896-10.054,13.347c-3.253,4.133-9.007,7-14.488,2.145
	c-10.903-10.154-1.435-15.618-5.096-26.557C32.595,20.15,33.984,19.646,35.607,21.084z"/>
<radialGradient id="SVGID_2_" cx="1538.8193" cy="-13.9727" r="30.3518" gradientTransform="matrix(0.5725 0.7296 -0.617 0.5533 -873.7682 -1090.6166)" gradientUnits="userSpaceOnUse">
	<stop  offset="0.4364" style="stop-color:#B88A6F"/>
	<stop  offset="0.6578" style="stop-color:#B6886D"/>
	<stop  offset="0.7563" style="stop-color:#AF8166"/>
	<stop  offset="0.8301" style="stop-color:#A2755A"/>
	<stop  offset="0.8917" style="stop-color:#906348"/>
	<stop  offset="0.903" style="stop-color:#8C5F44"/>
	<a:midPointStop  offset="0.4364" style="stop-color:#B88A6F"/>
	<a:midPointStop  offset="0.844" style="stop-color:#B88A6F"/>
	<a:midPointStop  offset="0.903" style="stop-color:#8C5F44"/>
</radialGradient>
<path fill="url(#SVGID_2_)" d="M28.082,20.698c-3.848,3.585-1.096,7.811-2.977,7.887c-0.487,0.018-1.713-1.764-1.713-1.764
	c-2.125-2.819-5.096-6.667-9.508-12.289c-2.221-2.83-6.25,0.782-4.027,3.612c-0.557-0.71-1.127-1.435-1.711-2.179
	c-2.216-2.826-6.264,0.762-4.024,3.611c0.598,0.762,1.162,1.485,1.708,2.181c-2.214-2.823-6.241,0.788-4.026,3.61
	c0.473,0.604,1.563,1.989,2.843,3.625c-2.326-2.709-5.616,0.342-3.497,3.247c2.412,3.302,7.387,9.958,10.066,13.36
	c3.842,4.882,10.063,6.956,15.164,2.208c11.09-10.328,1.719-16.245,5.24-26.776C32.058,19.726,30.003,18.912,28.082,20.698z"/>
<path fill="#70513D" d="M24.609,28.375c-1.929,1.87-2.335,8.097,0.835,11.781c-2.482-3.685-1.51-9.89,0.43-11.584L24.609,28.375z"/>
<path fill="#70513D" d="M27.774,20.309c-3.705,3.453-1.771,7.931-2.645,7.767c-0.252-0.05-0.848-0.825-1.36-1.572
	c-2.241-2.97-5.265-6.878-9.517-12.295c-1.927-2.454-5.154-0.814-5.493,1.742l-0.242-0.31c-2.647-3.33-7.429,0.907-4.765,4.258
	l0.257,0.33c-2.371-0.092-4.527,2.978-2.575,5.463l1.369,1.747c-2.279-0.131-3.799,2.692-2.034,5.11
	c2.39,3.269,7.353,9.914,10.077,13.373c2.978,3.783,9.375,8.005,15.844,2.273c11.311-10.532,1.928-16.666,5.382-26.994
	C32.635,19.523,30.326,18.049,27.774,20.309z M31.168,20.862c-3.661,10.939,5.808,16.403-5.096,26.557
	c-5.481,4.855-11.235,1.988-14.488-2.145C8.868,41.824,3.916,35.192,1.53,31.928c-1.758-2.408,0.864-4.789,2.752-2.605l6.34,8.081
	l0.739-0.645L5.016,28.67l0.002-0.002l-2.844-3.623c-1.831-2.306,1.478-5.24,3.285-2.965l9.192,11.71l0.739-0.644L5.683,20.774l0,0
	L4.49,19.252c-1.872-2.389,1.531-5.201,3.288-2.965l1.71,2.182v-0.002l9.189,11.713l0.738-0.646l-9.2-11.728
	c-1.819-2.289,1.491-5.223,3.298-2.951c4.281,5.387,7.269,9.315,9.491,12.263c0.913,1.328,1.623,1.991,2.119,1.974
	c2.65-0.109-0.494-4.503,3.269-8.007C30.016,19.646,31.405,20.15,31.168,20.862z"/>
</svg>
