<?xml version="1.0" encoding="utf-8"?>
<!-- Generator: Adobe Illustrator 15.0.0, SVG Export Plug-In . SVG Version: 6.00 Build 0)  -->
<!DOCTYPE svg PUBLIC "-//W3C//DTD SVG 1.1//EN" "http://www.w3.org/Graphics/SVG/1.1/DTD/svg11.dtd" [
	<!ENTITY ns_flows "http://ns.adobe.com/Flows/1.0/">
	<!ENTITY ns_extend "http://ns.adobe.com/Extensibility/1.0/">
	<!ENTITY ns_ai "http://ns.adobe.com/AdobeIllustrator/10.0/">
	<!ENTITY ns_graphs "http://ns.adobe.com/Graphs/1.0/">
]>
<svg version="1.1" id="Layer_1" xmlns:x="&ns_extend;" xmlns:i="&ns_ai;" xmlns:graph="&ns_graphs;"
	 xmlns="http://www.w3.org/2000/svg" xmlns:xlink="http://www.w3.org/1999/xlink" xmlns:a="http://ns.adobe.com/AdobeSVGViewerExtensions/3.0/"
	 x="0px" y="0px" width="64px" height="64px" viewBox="0 0 64 64" enable-background="new 0 0 64 64" xml:space="preserve">
<path fill="#EDB54E" d="M33.045,31.726c1.269-1.635,2.631-2.087,2.631-2.087L35.13,40.084c0,0-4.029,2.893-7.596,4.174l0.662-7.174
	C28.196,37.084,30.961,34.415,33.045,31.726z"/>
<path fill="#473834" d="M49.977,29.691c9.389-3.755,8.449-12.673,8.449-12.673H32.143c0,0-0.939,8.918,8.447,12.673
	c0,0,1.879,0.47,4.693,0.47C48.102,30.161,49.977,29.691,49.977,29.691z"/>
<linearGradient id="SVGID_1_" gradientUnits="userSpaceOnUse" x1="168.418" y1="30.1592" x2="168.418" y2="2.0702" gradientTransform="matrix(1 0 0 1 -113.9844 0)">
	<stop  offset="0.05" style="stop-color:#473834"/>
	<stop  offset="0.2266" style="stop-color:#594640"/>
	<stop  offset="0.5197" style="stop-color:#715950"/>
	<stop  offset="0.7" style="stop-color:#7A6056"/>
	<a:midPointStop  offset="0.05" style="stop-color:#473834"/>
	<a:midPointStop  offset="0.4" style="stop-color:#473834"/>
	<a:midPointStop  offset="0.7" style="stop-color:#7A6056"/>
</linearGradient>
<path fill="url(#SVGID_1_)" d="M54.775,17.971c0.959,4.043,0.453,8.046-4.799,11.721c5.635-0.938,8.913-6.258,8.913-10.339
	L54.775,17.971z"/>
<linearGradient id="SVGID_2_" gradientUnits="userSpaceOnUse" x1="1630.6953" y1="30.1592" x2="1630.6953" y2="2.0702" gradientTransform="matrix(-1 0 0 1 1666.8301 0)">
	<stop  offset="0.05" style="stop-color:#473834"/>
	<stop  offset="0.2266" style="stop-color:#594640"/>
	<stop  offset="0.5197" style="stop-color:#715950"/>
	<stop  offset="0.7" style="stop-color:#7A6056"/>
	<a:midPointStop  offset="0.05" style="stop-color:#473834"/>
	<a:midPointStop  offset="0.4" style="stop-color:#473834"/>
	<a:midPointStop  offset="0.7" style="stop-color:#7A6056"/>
</linearGradient>
<path fill="url(#SVGID_2_)" d="M35.795,17.971c-0.961,4.043-0.453,8.046,4.797,11.721c-5.633-0.938-8.913-6.258-8.913-10.339
	L35.795,17.971z"/>
<path fill="#473834" d="M23.408,29.691c9.389-3.755,8.449-12.673,8.449-12.673H5.574c0,0-0.939,8.918,8.447,12.673
	c0,0,1.879,0.47,4.693,0.47C21.533,30.161,23.408,29.691,23.408,29.691z"/>
<linearGradient id="SVGID_3_" gradientUnits="userSpaceOnUse" x1="27.8647" y1="30.1592" x2="27.8647" y2="2.0702">
	<stop  offset="0.05" style="stop-color:#473834"/>
	<stop  offset="0.2266" style="stop-color:#594640"/>
	<stop  offset="0.5197" style="stop-color:#715950"/>
	<stop  offset="0.7" style="stop-color:#7A6056"/>
	<a:midPointStop  offset="0.05" style="stop-color:#473834"/>
	<a:midPointStop  offset="0.4" style="stop-color:#473834"/>
	<a:midPointStop  offset="0.7" style="stop-color:#7A6056"/>
</linearGradient>
<path fill="url(#SVGID_3_)" d="M28.207,17.971c0.959,4.043,0.453,8.046-4.799,11.721c5.635-0.938,8.913-6.258,8.913-10.339
	L28.207,17.971z"/>
<linearGradient id="SVGID_4_" gradientUnits="userSpaceOnUse" x1="1771.248" y1="30.1592" x2="1771.248" y2="2.0702" gradientTransform="matrix(-1 0 0 1 1780.8145 0)">
	<stop  offset="0.05" style="stop-color:#473834"/>
	<stop  offset="0.2266" style="stop-color:#594640"/>
	<stop  offset="0.5197" style="stop-color:#715950"/>
	<stop  offset="0.7" style="stop-color:#7A6056"/>
	<a:midPointStop  offset="0.05" style="stop-color:#473834"/>
	<a:midPointStop  offset="0.4" style="stop-color:#473834"/>
	<a:midPointStop  offset="0.7" style="stop-color:#7A6056"/>
</linearGradient>
<path fill="url(#SVGID_4_)" d="M9.227,17.971c-0.961,4.043-0.453,8.046,4.797,11.721C8.391,28.753,5.11,23.434,5.11,19.353
	L9.227,17.971z"/>
<path fill="#D63E93" d="M54.911,29.634l-3.593-1.316l-12.071,0.011l-3.571,1.311c0,0-0.891,7.854-0.545,10.445
	c0.56,4.193,1.226,3.635,1.274,6.873c0.037,2.408-2.263,14.928-2.263,14.928l19.343-1.402c1.774-0.412,2.922-0.945,2.922-1.635
	c0-3.016-2.301-9.461-2.265-11.848c0.049-3.23,0.715-2.711,1.276-6.916C55.765,37.492,54.911,29.634,54.911,29.634z"/>
<path fill="#8E3ED6" d="M9.089,29.634l3.593-1.316l12.071,0.011l3.571,1.311c0,0,0.891,7.854,0.545,10.445
	c-0.56,4.193-1.226,3.635-1.274,6.873c-0.037,2.408,2.263,14.928,2.263,14.928l-19.343-1.402c-1.774-0.412-2.922-0.945-2.922-1.635
	c0-3.016,2.301-9.461,2.265-11.848c-0.049-3.23-0.715-2.711-1.276-6.916C8.235,37.492,9.089,29.634,9.089,29.634z"/>
<path fill="#F5BB51" d="M49.732,27.759c0-1.315,0-4.203,0-4.203h-8.917c0,0,0,2.909,0,4.218l-1.568,0.554
	c0,3.939,5.153,6.305,6.026,6.305c0.878,0,6.045-2.368,6.045-6.315L49.732,27.759z"/>
<path fill="#FFC940" d="M45.285,3.408c-6.813,0-10.092,5.547-9.684,12.68c0.086,1.433,0.484,3.501,0.977,5.272
	c1.021,3.684,6.41,7.393,8.707,7.393c2.295,0,7.684-3.709,8.707-7.393c0.492-1.771,0.891-3.84,0.975-5.272
	C55.375,8.955,52.098,3.408,45.285,3.408z"/>
<path fill="#D47706" d="M45.285,22.963c1.596-0.702,1.607-0.028,4.072,0.137c-0.924,1.051-1.605,2.4-4.072,2.4
	c-2.83,0-3.309-1.533-4.076-2.4C43.676,22.935,43.688,22.261,45.285,22.963z"/>
<path fill="#FFFFFF" d="M48.617,23.361c-1.607,1.674-5.078,1.652-6.666,0.001C44.428,23.628,46.141,23.628,48.617,23.361z"/>
<path fill="#966F42" d="M38.047,13.714c1.479-0.882,4.133-0.99,5.184-0.389c0.223,0.121,0.162,0.759-0.029,0.679
	c-1.498-0.623-3.781-0.654-5.188,0.066C37.826,14.166,37.822,13.843,38.047,13.714z"/>
<path fill="#966F42" d="M52.521,13.714c-1.479-0.882-4.133-0.99-5.186-0.389c-0.223,0.121-0.162,0.759,0.031,0.679
	c1.498-0.623,3.777-0.655,5.186,0.066C52.742,14.166,52.746,13.843,52.521,13.714z"/>
<path fill="#F0A429" d="M43.752,20.699c0.164-0.113,0.543,0.062,1.533,0.062c0.988,0,1.367-0.175,1.531-0.062
	c0.193,0.137-0.115,0.754-1.531,0.754S43.557,20.837,43.752,20.699z"/>
<path id="Path_518_" fill="#FFFFFF" d="M43.77,16.39c0.057,0.45-0.248,0.985-1.096,1.386c-0.539,0.255-1.658,0.555-3.129-0.066
	c-0.658-0.277-1.301-1.143-1.244-1.621C39.1,14.584,43.023,14.364,43.77,16.39z"/>
<linearGradient id="Oval_1_" gradientUnits="userSpaceOnUse" x1="-404.8169" y1="479.54" x2="-404.8169" y2="480.0088" gradientTransform="matrix(6.5701 0 0 -6.5701 2700.7961 3168.5281)">
	<stop  offset="0" style="stop-color:#A6694A"/>
	<stop  offset="1" style="stop-color:#4F2A1E"/>
	<a:midPointStop  offset="0" style="stop-color:#A6694A"/>
	<a:midPointStop  offset="0.5" style="stop-color:#A6694A"/>
	<a:midPointStop  offset="1" style="stop-color:#4F2A1E"/>
</linearGradient>
<circle id="Oval_50_" fill="url(#Oval_1_)" cx="41.105" cy="16.359" r="1.542"/>
<path id="Path_509_" fill="#1A1626" d="M40.336,16.331c0,1.066,1.543,1.066,1.543,0C41.879,15.341,40.336,15.341,40.336,16.331z"/>
<path id="Path_507_" fill="#AB968C" d="M40.102,15.899c0,0.447,0.646,0.447,0.646,0C40.748,15.485,40.102,15.485,40.102,15.899z"/>
<path id="Path_502_" fill="#45332C" d="M43.777,16.449c-0.627-2.012-4.895-1.715-5.477-0.361
	C38.516,14.354,43.242,13.897,43.777,16.449z"/>
<path id="Path_501_" fill="#FFFFFF" d="M46.801,16.39c-0.059,0.45,0.248,0.985,1.094,1.386c0.539,0.255,1.658,0.555,3.129-0.066
	c0.66-0.277,1.303-1.143,1.244-1.621C51.471,14.584,47.547,14.364,46.801,16.39z"/>
<linearGradient id="Oval_2_" gradientUnits="userSpaceOnUse" x1="-406.249" y1="479.54" x2="-406.249" y2="480.0088" gradientTransform="matrix(6.5701 0 0 -6.5701 2718.5266 3168.5281)">
	<stop  offset="0" style="stop-color:#A6694A"/>
	<stop  offset="1" style="stop-color:#4F2A1E"/>
	<a:midPointStop  offset="0" style="stop-color:#A6694A"/>
	<a:midPointStop  offset="0.5" style="stop-color:#A6694A"/>
	<a:midPointStop  offset="1" style="stop-color:#4F2A1E"/>
</linearGradient>
<circle id="Oval_49_" fill="url(#Oval_2_)" cx="49.428" cy="16.359" r="1.542"/>
<path id="Path_500_" fill="#1A1626" d="M48.658,16.331c0,1.066,1.541,1.066,1.541,0C50.199,15.341,48.658,15.341,48.658,16.331z"/>
<path id="Path_499_" fill="#AB968C" d="M48.424,15.899c0,0.447,0.646,0.447,0.646,0C49.07,15.485,48.424,15.485,48.424,15.899z"/>
<path id="Path_498_" fill="#45332C" d="M46.793,16.449c0.625-2.011,4.891-1.723,5.475-0.361
	C52.053,14.354,47.326,13.897,46.793,16.449z"/>
<linearGradient id="SVGID_5_" gradientUnits="userSpaceOnUse" x1="159.2686" y1="30.1592" x2="159.2686" y2="2.0699" gradientTransform="matrix(1 0 0 1 -113.9844 0)">
	<stop  offset="0.05" style="stop-color:#473834"/>
	<stop  offset="0.2266" style="stop-color:#594640"/>
	<stop  offset="0.5197" style="stop-color:#715950"/>
	<stop  offset="0.7" style="stop-color:#7A6056"/>
	<a:midPointStop  offset="0.05" style="stop-color:#473834"/>
	<a:midPointStop  offset="0.4" style="stop-color:#473834"/>
	<a:midPointStop  offset="0.7" style="stop-color:#7A6056"/>
</linearGradient>
<path fill="url(#SVGID_5_)" d="M52.951,4.404c0.777-1.11-5.811-3.455-12.031-1.871c-6.213,1.423-9.241,10.731-9.241,16.819
	c0.537,0.441,3.485-0.658,4.116-1.382c0.258-1.065,0.662-2.162,1.041-3.298c4.666-2.701,9.947-3.338,13.611-6.571
	c-0.469,1.408,2.016,3.185,3.285,6.571c0.412,1.099,0.781,2.199,1.043,3.298c1.035,0.953,2.677,1.403,4.114,1.382
	C58.89,14.204,55.441,3.686,52.951,4.404z"/>
<path fill="#473834" d="M32.322,18.427c4.299-5.723,18.221-5.335,20.629-14.022C48.277,11.695,33.498,12.926,32.322,18.427z"/>
<path fill="#F5BB51" d="M30.955,31.726c-1.269-1.635-2.631-2.087-2.631-2.087l0.546,10.445c0,0,3.635,2.893,7.201,4.174l-0.995-7.08
	C35.076,37.178,33.039,34.415,30.955,31.726z"/>
<path fill="#F5BB51" d="M23.185,27.774c0-1.309,0-4.218,0-4.218h-8.917c0,0,0,2.888,0,4.203l-1.586,0.558
	c0,3.948,5.167,6.315,6.045,6.315c0.873,0,6.026-2.366,6.026-6.305L23.185,27.774z"/>
<path fill="#FFC940" d="M18.717,3.408c-6.813,0-10.092,5.547-9.684,12.68c0.086,1.433,0.484,3.501,0.977,5.272
	c1.021,3.684,6.41,7.393,8.707,7.393c2.295,0,7.684-3.709,8.707-7.393c0.492-1.771,0.891-3.84,0.975-5.272
	C28.807,8.955,25.529,3.408,18.717,3.408z"/>
<path fill="#D47706" d="M18.715,22.963c-1.596-0.702-1.607-0.028-4.072,0.137c0.924,1.051,1.605,2.4,4.072,2.4
	c2.83,0,3.309-1.533,4.076-2.4C20.324,22.935,20.313,22.261,18.715,22.963z"/>
<path fill="#FFFFFF" d="M15.383,23.361c1.607,1.674,5.078,1.652,6.666,0.001C19.572,23.628,17.859,23.628,15.383,23.361z"/>
<path fill="#966F42" d="M25.953,13.714c-1.479-0.882-4.133-0.99-5.184-0.389c-0.223,0.121-0.162,0.759,0.029,0.679
	c1.498-0.623,3.781-0.654,5.188,0.066C26.174,14.166,26.178,13.843,25.953,13.714z"/>
<path fill="#966F42" d="M11.479,13.714c1.479-0.882,4.133-0.99,5.186-0.389c0.223,0.121,0.162,0.759-0.031,0.679
	c-1.498-0.623-3.777-0.655-5.186,0.066C11.258,14.166,11.254,13.843,11.479,13.714z"/>
<path fill="#F0A429" d="M20.248,20.699c-0.164-0.113-0.543,0.062-1.533,0.062c-0.988,0-1.367-0.175-1.531-0.062
	c-0.193,0.137,0.115,0.754,1.531,0.754S20.443,20.837,20.248,20.699z"/>
<path id="Path_497_" fill="#FFFFFF" d="M17.201,16.39c0.057,0.45-0.248,0.985-1.096,1.386c-0.539,0.255-1.658,0.555-3.129-0.066
	c-0.658-0.277-1.301-1.143-1.244-1.621C12.531,14.584,16.455,14.364,17.201,16.39z"/>
<linearGradient id="Oval_3_" gradientUnits="userSpaceOnUse" x1="-426.21" y1="479.54" x2="-426.21" y2="480.0088" gradientTransform="matrix(6.5701 0 0 -6.5701 2814.7805 3168.5281)">
	<stop  offset="0" style="stop-color:#A6694A"/>
	<stop  offset="1" style="stop-color:#4F2A1E"/>
	<a:midPointStop  offset="0" style="stop-color:#A6694A"/>
	<a:midPointStop  offset="0.5" style="stop-color:#A6694A"/>
	<a:midPointStop  offset="1" style="stop-color:#4F2A1E"/>
</linearGradient>
<circle id="Oval_44_" fill="url(#Oval_3_)" cx="14.537" cy="16.359" r="1.542"/>
<path id="Path_496_" fill="#1A1626" d="M13.768,16.331c0,1.066,1.543,1.066,1.543,0C15.311,15.341,13.768,15.341,13.768,16.331z"/>
<path id="Path_495_" fill="#AB968C" d="M13.533,15.899c0,0.447,0.646,0.447,0.646,0C14.18,15.485,13.533,15.485,13.533,15.899z"/>
<path id="Path_494_" fill="#45332C" d="M17.209,16.449c-0.627-2.012-4.895-1.715-5.477-0.361
	C11.947,14.354,16.674,13.897,17.209,16.449z"/>
<path id="Path_493_" fill="#FFFFFF" d="M20.232,16.39c-0.059,0.45,0.248,0.985,1.094,1.386c0.539,0.255,1.658,0.555,3.129-0.066
	c0.66-0.277,1.303-1.143,1.244-1.621C24.902,14.584,20.979,14.364,20.232,16.39z"/>
<linearGradient id="Oval_4_" gradientUnits="userSpaceOnUse" x1="-427.6421" y1="479.54" x2="-427.6421" y2="480.0088" gradientTransform="matrix(6.5701 0 0 -6.5701 2832.511 3168.5281)">
	<stop  offset="0" style="stop-color:#A6694A"/>
	<stop  offset="1" style="stop-color:#4F2A1E"/>
	<a:midPointStop  offset="0" style="stop-color:#A6694A"/>
	<a:midPointStop  offset="0.5" style="stop-color:#A6694A"/>
	<a:midPointStop  offset="1" style="stop-color:#4F2A1E"/>
</linearGradient>
<circle id="Oval_43_" fill="url(#Oval_4_)" cx="22.859" cy="16.359" r="1.542"/>
<path id="Path_492_" fill="#1A1626" d="M22.09,16.331c0,1.066,1.541,1.066,1.541,0C23.631,15.341,22.09,15.341,22.09,16.331z"/>
<path id="Path_491_" fill="#AB968C" d="M21.855,15.899c0,0.447,0.646,0.447,0.646,0C22.502,15.485,21.855,15.485,21.855,15.899z"/>
<path id="Path_490_" fill="#45332C" d="M20.225,16.449c0.625-2.011,4.891-1.723,5.475-0.361
	C25.484,14.354,20.758,13.897,20.225,16.449z"/>
<linearGradient id="SVGID_6_" gradientUnits="userSpaceOnUse" x1="18.7158" y1="30.1592" x2="18.7158" y2="2.0699">
	<stop  offset="0.05" style="stop-color:#473834"/>
	<stop  offset="0.2266" style="stop-color:#594640"/>
	<stop  offset="0.5197" style="stop-color:#715950"/>
	<stop  offset="0.7" style="stop-color:#7A6056"/>
	<a:midPointStop  offset="0.05" style="stop-color:#473834"/>
	<a:midPointStop  offset="0.4" style="stop-color:#473834"/>
	<a:midPointStop  offset="0.7" style="stop-color:#7A6056"/>
</linearGradient>
<path fill="url(#SVGID_6_)" d="M26.383,4.404c0.777-1.11-5.811-3.455-12.031-1.871C8.139,3.956,5.11,13.265,5.11,19.353
	c0.537,0.441,3.485-0.658,4.116-1.382c0.258-1.065,0.662-2.162,1.041-3.298c4.666-2.701,9.947-3.338,13.611-6.571
	c-0.469,1.408,2.016,3.185,3.285,6.571c0.412,1.099,0.781,2.199,1.043,3.298c1.035,0.953,2.677,1.403,4.114,1.382
	C32.321,14.204,28.873,3.686,26.383,4.404z"/>
<path fill="#473834" d="M5.754,18.427c4.299-5.723,18.221-5.335,20.629-14.022C21.709,11.695,6.93,12.926,5.754,18.427z"/>
<path fill="#FFAD9E" d="M51.814,55.146c-0.85-1.091-4.963-2.425-4.963-2.425l-7.791,0.013c0,0-4.09,1.33-4.938,2.414
	C32.73,56.932,32.221,62,32.221,62s16.168-0.115,21.273-1.52C53.494,60.48,53.205,56.932,51.814,55.146z"/>
<path fill="#F7928A" d="M39.061,52.734c0,3.241,7.791,3.229,7.791-0.013l-0.781-0.274h-6.195L39.061,52.734z"/>
<path fill="#F5BB51" d="M39.617,52.538c0,2.538,6.68,2.538,6.68,0c0-0.862,0-2.808,0-2.808h-6.68
	C39.617,49.73,39.617,51.676,39.617,52.538z"/>
<path fill="#F7928A" d="M36.088,61.932l-0.299,0.008C35.789,58.258,36.088,58.251,36.088,61.932z"/>
<path fill="#F7928A" d="M50.123,61.084l-0.292,0.035C49.831,58.271,50.123,58.236,50.123,61.084z"/>
<path fill="#FF9ED2" d="M12.186,55.146c0.85-1.091,4.963-2.425,4.963-2.425l7.791,0.013c0,0,4.09,1.33,4.938,2.414
	C31.27,56.932,31.779,62,31.779,62s-16.168-0.115-21.273-1.52C10.506,60.48,10.795,56.932,12.186,55.146z"/>
<path fill="#FF82C5" d="M27.912,61.932l0.299,0.008C28.211,58.258,27.912,58.251,27.912,61.932z"/>
<path fill="#FF82C5" d="M13.877,61.084l0.292,0.035C14.169,58.271,13.877,58.236,13.877,61.084z"/>
<path fill="#FF82C5" d="M17.146,52.734c0,3.241,7.793,3.229,7.793-0.013l-0.781-0.274h-6.195L17.146,52.734z"/>
<path fill="#F5BB51" d="M17.705,52.538c0,2.538,6.678,2.538,6.678,0c0-0.862,0-2.808,0-2.808h-6.678
	C17.705,49.73,17.705,51.676,17.705,52.538z"/>
<path fill="#473834" d="M28.691,42.627c6.455,4.266,0.781,8.15,2.619,9.988C27.74,55.098,19,50.822,28.691,42.627z"/>
<path fill="#473834" d="M13.393,42.627c-6.455,4.266-0.779,8.15-2.617,9.988C14.346,55.098,23.086,50.822,13.393,42.627z"/>
<linearGradient id="SVGID_7_" gradientUnits="userSpaceOnUse" x1="21.042" y1="45.2949" x2="21.042" y2="31.6543">
	<stop  offset="0" style="stop-color:#473834"/>
	<stop  offset="0.2717" style="stop-color:#594640"/>
	<stop  offset="0.7226" style="stop-color:#715950"/>
	<stop  offset="1" style="stop-color:#7A6056"/>
	<a:midPointStop  offset="0" style="stop-color:#473834"/>
	<a:midPointStop  offset="0.4" style="stop-color:#473834"/>
	<a:midPointStop  offset="1" style="stop-color:#7A6056"/>
</linearGradient>
<path fill="url(#SVGID_7_)" d="M21.043,31.654c-6.787,0.004-11.082,5.974-8.439,13.641H29.48
	C32.123,37.628,27.828,31.658,21.043,31.654z"/>
<path id="Path_585_" fill="#FFC940" d="M12.484,42.108c1.066,0.13,1.834,3.729,1.166,4.679c-0.096,0.134-0.645,0.346-1.051-0.493
	c-0.227-0.464-0.877-0.852-1.078-1.81C11.264,43.258,11.426,41.979,12.484,42.108z"/>
<path id="Path_584_" fill="#F0A429" d="M12.514,42.799c0.277,0.088,0.582,0.516,0.746,1.226c-0.973-0.211-0.729,1.422,0.115,1.452
	c-0.008,0.165-0.018,0.334-0.039,0.512c-0.406-0.596-0.82-0.357-1.229-1.244C11.738,43.945,11.826,42.581,12.514,42.799z"/>
<path id="Path_583_" fill="#FFC940" d="M29.6,42.108c-1.064,0.13-1.834,3.729-1.164,4.679c0.094,0.134,0.643,0.346,1.051-0.493
	c0.225-0.464,0.875-0.852,1.076-1.81C30.822,43.258,30.66,41.979,29.6,42.108z"/>
<path id="Path_582_" fill="#F0A429" d="M28.826,44.021c0.164-0.708,0.467-1.135,0.744-1.223c0.689-0.219,0.777,1.146,0.408,1.945
	c-0.41,0.887-0.822,0.648-1.23,1.244c-0.02-0.178-0.031-0.348-0.037-0.512C29.545,45.436,29.785,43.824,28.826,44.021z"/>
<path fill="#FFC940" d="M21.043,32.858c-5.822,0-8.627,4.405-8.275,10.529c0.07,1.232,0.834,4.047,1.557,5.489
	c1.273,2.545,4.6,4.442,6.719,4.442c2.117,0,5.447-1.897,6.719-4.442c0.723-1.442,1.486-4.257,1.557-5.489
	C29.67,37.263,26.865,32.858,21.043,32.858z"/>
<path id="Path_581_" fill="#F0A429" d="M22.4,46.828c-0.145-0.1-0.482,0.055-1.357,0.055c-0.877,0-1.215-0.154-1.359-0.055
	c-0.17,0.122,0.104,0.669,1.359,0.669C22.297,47.497,22.572,46.95,22.4,46.828z"/>
<path id="Path_580_" fill="#F0A429" d="M21.043,48.78c-1.313-0.386-3.258,0.184-3.258,0.184c0.74,0.808,1.283,1.853,3.258,1.853
	c2.262,0,2.646-1.188,3.258-1.853C24.301,48.964,22.354,48.393,21.043,48.78z"/>
<path id="Path_579_" fill="#FFFFFF" d="M18.273,49.1c1.375,1.155,4.154,1.162,5.539,0C22.346,49.162,19.75,49.164,18.273,49.1z"/>
<path id="Path_578_" fill="#FFFFFF" d="M19.787,43.832c0.047,0.374-0.205,0.816-0.908,1.148c-0.445,0.211-1.373,0.459-2.592-0.055
	c-0.545-0.23-1.078-0.947-1.029-1.344C15.918,42.336,19.168,42.154,19.787,43.832z"/>
<linearGradient id="Oval_5_" gradientUnits="userSpaceOnUse" x1="-425.7466" y1="475.4023" x2="-425.7466" y2="475.791" gradientTransform="matrix(6.5701 0 0 -6.5701 2814.7805 3168.5281)">
	<stop  offset="0" style="stop-color:#A6694A"/>
	<stop  offset="1" style="stop-color:#4F2A1E"/>
	<a:midPointStop  offset="0" style="stop-color:#A6694A"/>
	<a:midPointStop  offset="0.5" style="stop-color:#A6694A"/>
	<a:midPointStop  offset="1" style="stop-color:#4F2A1E"/>
</linearGradient>
<circle id="Oval_112_" fill="url(#Oval_5_)" cx="17.582" cy="43.807" r="1.277"/>
<path id="Path_577_" fill="#1A1626" d="M16.943,43.783c0,0.885,1.277,0.885,1.277,0C18.221,42.963,16.943,42.963,16.943,43.783z"/>
<path id="Path_576_" fill="#AB968C" d="M16.75,43.426c0,0.371,0.535,0.371,0.535,0C17.285,43.082,16.75,43.082,16.75,43.426z"/>
<path id="Path_575_" fill="#F0A429" d="M19.793,43.881c-0.518-1.666-4.055-1.421-4.535-0.299
	C15.436,42.146,19.352,41.768,19.793,43.881z"/>
<path id="Path_574_" fill="#FFFFFF" d="M22.299,43.832c-0.049,0.374,0.205,0.816,0.906,1.148c0.445,0.211,1.373,0.459,2.594-0.055
	c0.545-0.23,1.078-0.947,1.029-1.344C26.168,42.336,22.916,42.154,22.299,43.832z"/>
<linearGradient id="Oval_6_" gradientUnits="userSpaceOnUse" x1="-427.396" y1="475.4023" x2="-427.396" y2="475.791" gradientTransform="matrix(6.5701 0 0 -6.5701 2832.511 3168.5281)">
	<stop  offset="0" style="stop-color:#A6694A"/>
	<stop  offset="1" style="stop-color:#4F2A1E"/>
	<a:midPointStop  offset="0" style="stop-color:#A6694A"/>
	<a:midPointStop  offset="0.5" style="stop-color:#A6694A"/>
	<a:midPointStop  offset="1" style="stop-color:#4F2A1E"/>
</linearGradient>
<circle id="Oval_111_" fill="url(#Oval_6_)" cx="24.475" cy="43.807" r="1.277"/>
<path id="Path_573_" fill="#1A1626" d="M23.838,43.783c0,0.885,1.277,0.885,1.277,0C25.115,42.963,23.838,42.963,23.838,43.783z"/>
<path id="Path_572_" fill="#AB968C" d="M23.643,43.426c0,0.371,0.535,0.371,0.535,0C24.178,43.082,23.643,43.082,23.643,43.426z"/>
<path id="Path_555_" fill="#F0A429" d="M22.293,43.881c0.518-1.666,4.051-1.427,4.535-0.299
	C26.648,42.146,22.734,41.768,22.293,43.881z"/>
<path id="Path_554_" fill="#F0A429" d="M26.91,41.842c-1.098-0.693-3.311-0.895-4.178-0.539c-0.186,0.066-0.125,0.647,0.029,0.605
	c1.195-0.357,3.051-0.224,4.078,0.355C26.979,42.34,27.078,41.939,26.91,41.842z"/>
<path id="Path_553_" fill="#F0A429" d="M15.174,41.842c1.1-0.693,3.311-0.895,4.178-0.539c0.186,0.066,0.125,0.647-0.029,0.605
	c-1.195-0.357-3.049-0.224-4.08,0.355C15.105,42.34,15.006,41.939,15.174,41.842z"/>
<linearGradient id="SVGID_8_" gradientUnits="userSpaceOnUse" x1="21.0425" y1="44.834" x2="21.0425" y2="31.8555">
	<stop  offset="0" style="stop-color:#473834"/>
	<stop  offset="0.2717" style="stop-color:#594640"/>
	<stop  offset="0.7226" style="stop-color:#715950"/>
	<stop  offset="1" style="stop-color:#7A6056"/>
	<a:midPointStop  offset="0" style="stop-color:#473834"/>
	<a:midPointStop  offset="0.4" style="stop-color:#473834"/>
	<a:midPointStop  offset="1" style="stop-color:#7A6056"/>
</linearGradient>
<path fill="url(#SVGID_8_)" d="M21.041,31.855c-3.414-0.001-6.467,1.895-7.131,4.452c-1.719,1.684-1.979,5.509-0.896,8.527
	c0.141-2.896,1.746-4.354,1.646-7.541c9.592,0,13.893,3.127,14.406,7.541C31.244,38.754,27.814,31.855,21.041,31.855z"/>
<path fill="#473834" d="M29.066,44.834c-1.795-7.715-15.166-7.5-15.166-7.5C13.973,37.326,28.234,35.027,29.066,44.834z"/>
<path fill="#473834" d="M13.014,44.834c-0.123-3.426,1.689-4.967,1.494-8.503C15.258,39.691,13.643,41.358,13.014,44.834z"/>
<path fill="#CFD8DD" d="M29.217,42.217c0.766-11.574-17.117-11.574-16.352,0C13.533,32.496,28.549,32.496,29.217,42.217z"/>
<path fill="#FFFFFF" d="M29.217,41.842c0.766-11.574-17.117-11.574-16.352,0C13.533,32.122,28.549,32.122,29.217,41.842z"/>
<path fill="#473834" d="M50.605,42.627c6.455,4.266,0.781,8.15,2.619,9.988C49.654,55.098,40.914,50.822,50.605,42.627z"/>
<path fill="#473834" d="M35.307,42.627c-6.455,4.266-0.779,8.15-2.617,9.988C36.26,55.098,45,50.822,35.307,42.627z"/>
<linearGradient id="SVGID_9_" gradientUnits="userSpaceOnUse" x1="42.9561" y1="45.2949" x2="42.9561" y2="31.6543">
	<stop  offset="0" style="stop-color:#473834"/>
	<stop  offset="0.2717" style="stop-color:#594640"/>
	<stop  offset="0.7226" style="stop-color:#715950"/>
	<stop  offset="1" style="stop-color:#7A6056"/>
	<a:midPointStop  offset="0" style="stop-color:#473834"/>
	<a:midPointStop  offset="0.4" style="stop-color:#473834"/>
	<a:midPointStop  offset="1" style="stop-color:#7A6056"/>
</linearGradient>
<path fill="url(#SVGID_9_)" d="M42.957,31.654c-6.787,0.004-11.082,5.974-8.439,13.641h16.877
	C54.037,37.628,49.742,31.658,42.957,31.654z"/>
<path id="Path_552_" fill="#FFC940" d="M34.398,42.108c1.066,0.13,1.834,3.729,1.166,4.679c-0.096,0.134-0.645,0.346-1.051-0.493
	c-0.227-0.464-0.877-0.852-1.078-1.81C33.178,43.258,33.34,41.979,34.398,42.108z"/>
<path id="Path_551_" fill="#F0A429" d="M34.428,42.799c0.277,0.088,0.582,0.516,0.746,1.226c-0.973-0.211-0.729,1.422,0.115,1.452
	c-0.008,0.165-0.018,0.334-0.039,0.512c-0.406-0.596-0.82-0.357-1.229-1.244C33.652,43.945,33.74,42.581,34.428,42.799z"/>
<path id="Path_550_" fill="#FFC940" d="M51.514,42.108c-1.064,0.13-1.834,3.729-1.164,4.679c0.094,0.134,0.643,0.346,1.051-0.493
	c0.225-0.464,0.875-0.852,1.076-1.81C52.736,43.258,52.574,41.979,51.514,42.108z"/>
<path id="Path_549_" fill="#F0A429" d="M50.74,44.021c0.164-0.708,0.467-1.135,0.744-1.223c0.689-0.219,0.777,1.146,0.408,1.945
	c-0.41,0.887-0.822,0.648-1.23,1.244c-0.02-0.178-0.031-0.348-0.037-0.512C51.459,45.436,51.699,43.824,50.74,44.021z"/>
<path fill="#FFC940" d="M42.957,32.858c-5.822,0-8.627,4.405-8.275,10.529c0.07,1.232,0.834,4.047,1.557,5.489
	c1.273,2.545,4.6,4.442,6.719,4.442c2.117,0,5.447-1.897,6.719-4.442c0.723-1.442,1.486-4.257,1.557-5.489
	C51.584,37.263,48.779,32.858,42.957,32.858z"/>
<path id="Path_548_" fill="#F0A429" d="M44.314,46.828c-0.145-0.1-0.482,0.055-1.357,0.055c-0.877,0-1.215-0.154-1.359-0.055
	c-0.17,0.122,0.104,0.669,1.359,0.669C44.211,47.497,44.486,46.95,44.314,46.828z"/>
<path id="Path_530_" fill="#F0A429" d="M42.957,48.78c-1.313-0.386-3.258,0.184-3.258,0.184c0.74,0.808,1.283,1.853,3.258,1.853
	c2.262,0,2.646-1.188,3.258-1.853C46.215,48.964,44.268,48.393,42.957,48.78z"/>
<path id="Path_529_" fill="#FFFFFF" d="M40.188,49.1c1.375,1.155,4.154,1.162,5.539,0C44.26,49.162,41.664,49.164,40.188,49.1z"/>
<path id="Path_528_" fill="#FFFFFF" d="M41.701,43.832c0.047,0.374-0.205,0.816-0.908,1.148c-0.445,0.211-1.373,0.459-2.592-0.055
	c-0.545-0.23-1.078-0.947-1.029-1.344C37.832,42.336,41.082,42.154,41.701,43.832z"/>
<linearGradient id="Oval_7_" gradientUnits="userSpaceOnUse" x1="-422.4111" y1="475.4023" x2="-422.4111" y2="475.791" gradientTransform="matrix(6.5701 0 0 -6.5701 2814.7805 3168.5281)">
	<stop  offset="0" style="stop-color:#A6694A"/>
	<stop  offset="1" style="stop-color:#4F2A1E"/>
	<a:midPointStop  offset="0" style="stop-color:#A6694A"/>
	<a:midPointStop  offset="0.5" style="stop-color:#A6694A"/>
	<a:midPointStop  offset="1" style="stop-color:#4F2A1E"/>
</linearGradient>
<circle id="Oval_70_" fill="url(#Oval_7_)" cx="39.496" cy="43.807" r="1.277"/>
<path id="Path_527_" fill="#1A1626" d="M38.857,43.783c0,0.885,1.277,0.885,1.277,0C40.135,42.963,38.857,42.963,38.857,43.783z"/>
<path id="Path_526_" fill="#AB968C" d="M38.664,43.426c0,0.371,0.535,0.371,0.535,0C39.199,43.082,38.664,43.082,38.664,43.426z"/>
<path id="Path_525_" fill="#F0A429" d="M41.707,43.881c-0.518-1.666-4.055-1.421-4.535-0.299
	C37.35,42.146,41.266,41.768,41.707,43.881z"/>
<path id="Path_524_" fill="#FFFFFF" d="M44.213,43.832c-0.049,0.374,0.205,0.816,0.906,1.148c0.445,0.211,1.373,0.459,2.594-0.055
	c0.545-0.23,1.078-0.947,1.029-1.344C48.082,42.336,44.83,42.154,44.213,43.832z"/>
<linearGradient id="Oval_8_" gradientUnits="userSpaceOnUse" x1="-424.061" y1="475.4023" x2="-424.061" y2="475.791" gradientTransform="matrix(6.5701 0 0 -6.5701 2832.511 3168.5281)">
	<stop  offset="0" style="stop-color:#A6694A"/>
	<stop  offset="1" style="stop-color:#4F2A1E"/>
	<a:midPointStop  offset="0" style="stop-color:#A6694A"/>
	<a:midPointStop  offset="0.5" style="stop-color:#A6694A"/>
	<a:midPointStop  offset="1" style="stop-color:#4F2A1E"/>
</linearGradient>
<circle id="Oval_69_" fill="url(#Oval_8_)" cx="46.389" cy="43.807" r="1.277"/>
<path id="Path_523_" fill="#1A1626" d="M45.752,43.783c0,0.885,1.277,0.885,1.277,0C47.029,42.963,45.752,42.963,45.752,43.783z"/>
<path id="Path_522_" fill="#AB968C" d="M45.557,43.426c0,0.371,0.535,0.371,0.535,0C46.092,43.082,45.557,43.082,45.557,43.426z"/>
<path id="Path_521_" fill="#F0A429" d="M44.207,43.881c0.518-1.666,4.051-1.427,4.535-0.299
	C48.563,42.146,44.648,41.768,44.207,43.881z"/>
<path id="Path_520_" fill="#F0A429" d="M48.824,41.842c-1.098-0.693-3.311-0.895-4.178-0.539c-0.186,0.066-0.125,0.647,0.029,0.605
	c1.195-0.357,3.051-0.224,4.078,0.355C48.893,42.34,48.992,41.939,48.824,41.842z"/>
<path id="Path_519_" fill="#F0A429" d="M37.088,41.842c1.1-0.693,3.311-0.895,4.178-0.539c0.186,0.066,0.125,0.647-0.029,0.605
	c-1.195-0.357-3.049-0.224-4.08,0.355C37.02,42.34,36.92,41.939,37.088,41.842z"/>
<linearGradient id="SVGID_10_" gradientUnits="userSpaceOnUse" x1="42.957" y1="44.834" x2="42.957" y2="31.8555">
	<stop  offset="0" style="stop-color:#473834"/>
	<stop  offset="0.2717" style="stop-color:#594640"/>
	<stop  offset="0.7226" style="stop-color:#715950"/>
	<stop  offset="1" style="stop-color:#7A6056"/>
	<a:midPointStop  offset="0" style="stop-color:#473834"/>
	<a:midPointStop  offset="0.4" style="stop-color:#473834"/>
	<a:midPointStop  offset="1" style="stop-color:#7A6056"/>
</linearGradient>
<path fill="url(#SVGID_10_)" d="M42.955,31.855c-3.414-0.001-6.467,1.895-7.131,4.452c-1.719,1.684-1.979,5.509-0.896,8.527
	c0.141-2.896,1.746-4.354,1.646-7.541c9.592,0,13.893,3.127,14.406,7.541C53.158,38.754,49.729,31.855,42.955,31.855z"/>
<path fill="#473834" d="M50.98,44.834c-1.795-7.715-15.166-7.5-15.166-7.5C35.887,37.326,50.148,35.027,50.98,44.834z"/>
<path fill="#473834" d="M34.928,44.834c-0.123-3.426,1.689-4.967,1.494-8.503C37.172,39.691,35.557,41.358,34.928,44.834z"/>
<path fill="#CFD8DD" d="M51.131,42.217c0.766-11.574-17.117-11.574-16.352,0C35.447,32.496,50.463,32.496,51.131,42.217z"/>
<path fill="#FFFFFF" d="M51.131,41.842c0.766-11.574-17.117-11.574-16.352,0C35.447,32.122,50.463,32.122,51.131,41.842z"/>
<path fill="#F5BB51" d="M49.938,53.971c0,0-0.313-0.121-1.094-0.48c1-0.97,2.191,0.084,3.293-1.404
	c1.996-2.695,3.066-11.253,3.066-11.253s0.5-4.468-0.292-11.199c0,0,1.386,0.422,2.628,2.089C58.89,33.537,59,40.24,59,43.92
	c0,3.445-2.734,7.883-4.056,10.121c-0.628,1.063-1.52,2.762-1.759,3.019c-2.085,2.206-4.224,2.019-4.797,1.45
	C46.099,58.268,50.905,55.154,49.938,53.971z"/>
<path fill="#F0A429" d="M50.555,56.686c0,0-1.209,1.523-2.166,1.824C49.507,58.436,50.555,56.686,50.555,56.686z"/>
<path fill="#F0A429" d="M51.866,56.734c0,0-1.505,1.84-2.462,2.141C50.522,58.8,51.866,56.734,51.866,56.734z"/>
<path fill="#F0A429" d="M52.595,56.978c0,0-1.047,1.46-2.005,1.761C51.709,58.664,52.595,56.978,52.595,56.978z"/>
<path fill="#F5BB51" d="M14.063,53.971c0,0,0.313-0.121,1.094-0.48c-1-0.97-2.191,0.084-3.293-1.404
	c-1.996-2.695-3.066-11.253-3.066-11.253s-0.5-4.468,0.292-11.199c0,0-1.386,0.422-2.628,2.089C5.11,33.537,5,40.24,5,43.92
	c0,3.445,2.734,7.883,4.056,10.121c0.628,1.063,1.52,2.762,1.759,3.019c2.085,2.206,4.224,2.019,4.797,1.45
	C17.901,58.268,13.095,55.154,14.063,53.971z"/>
<path fill="#F0A429" d="M13.445,56.686c0,0,1.209,1.523,2.166,1.824C14.493,58.436,13.445,56.686,13.445,56.686z"/>
<path fill="#F0A429" d="M12.134,56.734c0,0,1.505,1.84,2.462,2.141C13.478,58.8,12.134,56.734,12.134,56.734z"/>
<path fill="#F0A429" d="M11.405,56.978c0,0,1.047,1.46,2.005,1.761C12.291,58.664,11.405,56.978,11.405,56.978z"/>
</svg>
