<?xml version="1.0" encoding="utf-8"?>
<!-- Generator: Adobe Illustrator 15.0.0, SVG Export Plug-In . SVG Version: 6.00 Build 0)  -->
<!DOCTYPE svg PUBLIC "-//W3C//DTD SVG 1.1//EN" "http://www.w3.org/Graphics/SVG/1.1/DTD/svg11.dtd" [
	<!ENTITY ns_flows "http://ns.adobe.com/Flows/1.0/">
	<!ENTITY ns_extend "http://ns.adobe.com/Extensibility/1.0/">
	<!ENTITY ns_ai "http://ns.adobe.com/AdobeIllustrator/10.0/">
	<!ENTITY ns_graphs "http://ns.adobe.com/Graphs/1.0/">
]>
<svg version="1.1" id="Layer_1" xmlns:x="&ns_extend;" xmlns:i="&ns_ai;" xmlns:graph="&ns_graphs;"
	 xmlns="http://www.w3.org/2000/svg" xmlns:xlink="http://www.w3.org/1999/xlink" xmlns:a="http://ns.adobe.com/AdobeSVGViewerExtensions/3.0/"
	 x="0px" y="0px" width="64px" height="64px" viewBox="0 0 64 64" enable-background="new 0 0 64 64" xml:space="preserve">
<path fill="#473834" d="M36.682,29.691c9.389-3.755,8.449-12.673,8.449-12.673H18.847c0,0-0.939,8.918,8.447,12.673
	c0,0,1.879,0.47,4.693,0.47C34.807,30.161,36.682,29.691,36.682,29.691z"/>
<linearGradient id="SVGID_1_" gradientUnits="userSpaceOnUse" x1="41.1387" y1="30.1592" x2="41.1387" y2="2.0702">
	<stop  offset="0.05" style="stop-color:#473834"/>
	<stop  offset="0.2266" style="stop-color:#594640"/>
	<stop  offset="0.5197" style="stop-color:#715950"/>
	<stop  offset="0.7" style="stop-color:#7A6056"/>
	<a:midPointStop  offset="0.05" style="stop-color:#473834"/>
	<a:midPointStop  offset="0.4" style="stop-color:#473834"/>
	<a:midPointStop  offset="0.7" style="stop-color:#7A6056"/>
</linearGradient>
<path fill="url(#SVGID_1_)" d="M41.48,17.971c0.959,4.043,0.453,8.046-4.799,11.721c5.635-0.938,8.914-6.258,8.914-10.339
	L41.48,17.971z"/>
<linearGradient id="SVGID_2_" gradientUnits="userSpaceOnUse" x1="1757.9736" y1="30.1592" x2="1757.9736" y2="2.0702" gradientTransform="matrix(-1 0 0 1 1780.8145 0)">
	<stop  offset="0.05" style="stop-color:#473834"/>
	<stop  offset="0.2266" style="stop-color:#594640"/>
	<stop  offset="0.5197" style="stop-color:#715950"/>
	<stop  offset="0.7" style="stop-color:#7A6056"/>
	<a:midPointStop  offset="0.05" style="stop-color:#473834"/>
	<a:midPointStop  offset="0.4" style="stop-color:#473834"/>
	<a:midPointStop  offset="0.7" style="stop-color:#7A6056"/>
</linearGradient>
<path fill="url(#SVGID_2_)" d="M22.5,17.971c-0.961,4.043-0.453,8.046,4.797,11.721c-5.633-0.938-8.912-6.258-8.912-10.339
	L22.5,17.971z"/>
<path fill="#8E3ED6" d="M40.869,51.001c0.049-3.23,0.715-6.712,1.275-10.917c0.346-2.592-0.508-10.45-0.508-10.45l-3.592-1.316
	h-12.09l-3.592,1.316c0,0-0.854,7.858-0.508,10.45c0.561,4.205,1.227,7.687,1.275,10.917C23.167,53.386,31.781,62,31.781,62h0.441
	C32.222,62,40.832,53.386,40.869,51.001z"/>
<path fill="#F5BB51" d="M36.459,27.775c0-1.309,0-4.218,0-4.218h-8.918c0,0,0,2.888,0,4.203l-1.586,0.558
	c0,3.948,5.168,6.315,6.045,6.315c0.873,0,6.028-2.365,6.028-6.305L36.459,27.775z"/>
<path fill="#FFC940" d="M31.99,3.408c-6.813,0-10.092,5.547-9.684,12.68c0.086,1.433,0.484,3.501,0.977,5.272
	c1.021,3.684,6.41,7.393,8.707,7.393c2.295,0,7.684-3.709,8.708-7.393c0.492-1.771,0.891-3.84,0.975-5.272
	C42.08,8.955,38.803,3.408,31.99,3.408z"/>
<path fill="#D47706" d="M31.988,22.963c-1.596-0.702-1.607-0.028-4.072,0.137c0.924,1.051,1.605,2.4,4.072,2.4
	c2.831,0,3.309-1.533,4.077-2.4C33.598,22.935,33.586,22.261,31.988,22.963z"/>
<path fill="#FFFFFF" d="M28.656,23.361c1.607,1.674,5.079,1.652,6.667,0.001C32.845,23.628,31.132,23.628,28.656,23.361z"/>
<path fill="#966F42" d="M39.227,13.714c-1.479-0.882-4.133-0.99-5.184-0.389c-0.223,0.121-0.162,0.759,0.029,0.679
	c1.498-0.623,3.781-0.654,5.188,0.066C39.447,14.166,39.451,13.843,39.227,13.714z"/>
<path fill="#966F42" d="M24.751,13.714c1.479-0.882,4.133-0.99,5.186-0.389c0.223,0.121,0.162,0.759-0.031,0.679
	c-1.498-0.623-3.777-0.655-5.186,0.066C24.531,14.166,24.527,13.843,24.751,13.714z"/>
<path fill="#F0A429" d="M33.521,20.699c-0.164-0.113-0.543,0.062-1.534,0.062c-0.988,0-1.367-0.175-1.531-0.062
	c-0.193,0.137,0.115,0.754,1.531,0.754C33.404,21.453,33.717,20.837,33.521,20.699z"/>
<path id="Path_1675_" fill="#FFFFFF" d="M30.474,16.39c0.057,0.45-0.248,0.985-1.096,1.386c-0.539,0.255-1.658,0.555-3.129-0.066
	c-0.658-0.277-1.301-1.143-1.244-1.621C25.804,14.584,29.728,14.364,30.474,16.39z"/>
<linearGradient id="Oval_1_" gradientUnits="userSpaceOnUse" x1="-424.1899" y1="479.54" x2="-424.1899" y2="480.0088" gradientTransform="matrix(6.5701 0 0 -6.5701 2814.7805 3168.5281)">
	<stop  offset="0" style="stop-color:#A6694A"/>
	<stop  offset="1" style="stop-color:#4F2A1E"/>
	<a:midPointStop  offset="0" style="stop-color:#A6694A"/>
	<a:midPointStop  offset="0.5" style="stop-color:#A6694A"/>
	<a:midPointStop  offset="1" style="stop-color:#4F2A1E"/>
</linearGradient>
<circle id="Oval_222_" fill="url(#Oval_1_)" cx="27.81" cy="16.359" r="1.542"/>
<path id="Path_1674_" fill="#1A1626" d="M27.041,16.331c0,1.066,1.543,1.066,1.543,0C28.583,15.341,27.041,15.341,27.041,16.331z"/>
<path id="Path_1673_" fill="#AB968C" d="M26.806,15.899c0,0.447,0.646,0.447,0.646,0C27.453,15.485,26.806,15.485,26.806,15.899z"/>
<path id="Path_1672_" fill="#45332C" d="M30.482,16.449c-0.627-2.012-4.895-1.715-5.477-0.361
	C25.22,14.354,29.947,13.897,30.482,16.449z"/>
<path id="Path_1671_" fill="#FFFFFF" d="M33.506,16.39c-0.059,0.45,0.248,0.985,1.094,1.386c0.539,0.255,1.658,0.555,3.129-0.066
	c0.66-0.277,1.303-1.143,1.244-1.621C38.176,14.584,34.252,14.364,33.506,16.39z"/>
<linearGradient id="Oval_2_" gradientUnits="userSpaceOnUse" x1="-425.6216" y1="479.54" x2="-425.6216" y2="480.0088" gradientTransform="matrix(6.5701 0 0 -6.5701 2832.511 3168.5281)">
	<stop  offset="0" style="stop-color:#A6694A"/>
	<stop  offset="1" style="stop-color:#4F2A1E"/>
	<a:midPointStop  offset="0" style="stop-color:#A6694A"/>
	<a:midPointStop  offset="0.5" style="stop-color:#A6694A"/>
	<a:midPointStop  offset="1" style="stop-color:#4F2A1E"/>
</linearGradient>
<circle id="Oval_221_" fill="url(#Oval_2_)" cx="36.133" cy="16.359" r="1.542"/>
<path id="Path_1670_" fill="#1A1626" d="M35.363,16.331c0,1.066,1.541,1.066,1.541,0C36.904,15.341,35.363,15.341,35.363,16.331z"/>
<path id="Path_1669_" fill="#AB968C" d="M35.129,15.899c0,0.447,0.646,0.447,0.646,0C35.775,15.485,35.129,15.485,35.129,15.899z"/>
<path id="Path_1668_" fill="#45332C" d="M33.498,16.449c0.625-2.011,4.891-1.723,5.475-0.361
	C38.758,14.354,34.031,13.897,33.498,16.449z"/>
<linearGradient id="SVGID_3_" gradientUnits="userSpaceOnUse" x1="31.9902" y1="30.1592" x2="31.9902" y2="2.0699">
	<stop  offset="0.05" style="stop-color:#473834"/>
	<stop  offset="0.2266" style="stop-color:#594640"/>
	<stop  offset="0.5197" style="stop-color:#715950"/>
	<stop  offset="0.7" style="stop-color:#7A6056"/>
	<a:midPointStop  offset="0.05" style="stop-color:#473834"/>
	<a:midPointStop  offset="0.4" style="stop-color:#473834"/>
	<a:midPointStop  offset="0.7" style="stop-color:#7A6056"/>
</linearGradient>
<path fill="url(#SVGID_3_)" d="M39.656,4.404c0.777-1.11-5.811-3.455-12.032-1.871c-6.213,1.423-9.24,10.731-9.24,16.819
	c0.537,0.441,3.484-0.658,4.115-1.382c0.258-1.065,0.662-2.162,1.041-3.298c4.666-2.701,9.948-3.338,13.612-6.571
	c-0.469,1.408,2.016,3.185,3.285,6.571c0.412,1.099,0.781,2.199,1.043,3.298c1.035,0.953,2.678,1.403,4.115,1.382
	C45.596,14.204,42.146,3.686,39.656,4.404z"/>
<path fill="#473834" d="M19.027,18.427c4.299-5.723,18.221-5.335,20.629-14.022C34.982,11.695,20.203,12.926,19.027,18.427z"/>
<path fill="#F5BB51" d="M21.931,40.066l0.432-10.433c0,0-1.387,0.413-2.629,2.044c-1.35,1.772-1.65,8.328-1.65,11.927
	C18.083,46.452,21.931,40.066,21.931,40.066z"/>
<path fill="#F5BB51" d="M42.068,40.066l-0.432-10.433c0,0,1.387,0.413,2.629,2.044c1.35,1.772,1.65,8.328,1.65,11.927
	C45.916,46.452,42.068,40.066,42.068,40.066z"/>
<path fill="#FF9ED2" d="M24.941,52.723l-7.793,0.012c0,0-4.088,1.33-4.936,2.414c-0.899,1.152-1.43,3.823-1.693,5.465
	C14.851,61.635,23.3,61.994,31.781,62c0-0.002-0.486-5.069-1.877-6.854C29.054,54.057,24.941,52.723,24.941,52.723z"/>
<path fill="#FF82C5" d="M17.148,52.734c0,3.242,7.793,3.229,7.793-0.012l-0.781-0.275h-6.195L17.148,52.734z"/>
<path fill="#F5BB51" d="M17.707,52.539c0,2.537,6.678,2.537,6.678,0c0-0.863,0-2.809,0-2.809h-6.678
	C17.707,49.73,17.707,51.676,17.707,52.539z"/>
<path fill="#FF82C5" d="M14.17,61.234l-0.284-0.044C13.886,58.884,14.17,58.654,14.17,61.234z"/>
<path fill="#FF82C5" d="M28.212,61.965h-0.301C27.912,58.285,28.212,58.285,28.212,61.965z"/>
<path fill="#FFAD9E" d="M46.854,52.723l-7.791,0.012c0,0-4.09,1.33-4.938,2.414c-1.392,1.783-1.902,6.846-1.903,6.852
	c8.52-0.012,16.989-0.346,21.265-1.383c-0.259-1.643-0.778-4.324-1.671-5.471C50.967,54.057,46.854,52.723,46.854,52.723z"/>
<path fill="#F7928A" d="M39.063,52.734c0,3.242,7.791,3.229,7.791-0.012l-0.781-0.275h-6.195L39.063,52.734z"/>
<path fill="#F5BB51" d="M39.619,52.539c0,2.537,6.68,2.537,6.68,0c0-0.863,0-2.809,0-2.809h-6.68
	C39.619,49.73,39.619,51.676,39.619,52.539z"/>
<path fill="#F7928A" d="M36.09,61.959l-0.299,0.006C35.791,58.285,36.09,58.279,36.09,61.959z"/>
<path fill="#F7928A" d="M50.118,61.182l-0.284,0.025C49.834,58.941,50.118,58.775,50.118,61.182z"/>
<path fill="#473834" d="M28.693,42.627c6.456,4.266,0.781,8.15,2.619,9.988C27.742,55.098,19.001,50.822,28.693,42.627z"/>
<path fill="#473834" d="M13.394,42.627c-6.455,4.266-0.779,8.15-2.617,9.988C14.347,55.098,23.087,50.822,13.394,42.627z"/>
<path fill="#473834" d="M50.605,42.627c6.455,4.266,0.781,8.15,2.619,9.988C49.654,55.098,40.914,50.822,50.605,42.627z"/>
<path fill="#473834" d="M35.307,42.627c-6.456,4.266-0.779,8.15-2.618,9.988C36.26,55.098,45,50.822,35.307,42.627z"/>
<path fill="#F5BB51" d="M15.992,53.227c0,0-1.078,2,0.141,1.781c0.609-1.402,1.316-1.012,1.592-2.47
	c0.268-1.812-0.873-2.921-0.873-2.921c-0.992,0.735-3.139,2.375-3.406,2.83c-0.424,0.721-2.011,2.826-1.324,3.502
	C12.759,57.289,13.226,53.93,15.992,53.227z"/>
<path fill="#F0A429" d="M13.398,53.318c0,0-1.078,1.648-1.277,2.631C12.079,54.828,13.398,53.318,13.398,53.318z"/>
<path fill="#F5BB51" d="M48.008,53.227c0,0,1.078,2-0.141,1.781c-0.609-1.402-1.316-1.012-1.592-2.47
	c-0.268-1.812,0.873-2.921,0.873-2.921c0.992,0.735,3.139,2.375,3.406,2.83c0.424,0.721,2.011,2.826,1.324,3.502
	C51.24,57.289,50.773,53.93,48.008,53.227z"/>
<path fill="#F0A429" d="M50.602,53.318c0,0,1.078,1.648,1.277,2.631C51.921,54.828,50.602,53.318,50.602,53.318z"/>
<linearGradient id="SVGID_4_" gradientUnits="userSpaceOnUse" x1="42.9561" y1="45.2949" x2="42.9561" y2="31.6548">
	<stop  offset="0" style="stop-color:#473834"/>
	<stop  offset="0.2717" style="stop-color:#594640"/>
	<stop  offset="0.7226" style="stop-color:#715950"/>
	<stop  offset="1" style="stop-color:#7A6056"/>
	<a:midPointStop  offset="0" style="stop-color:#473834"/>
	<a:midPointStop  offset="0.4" style="stop-color:#473834"/>
	<a:midPointStop  offset="1" style="stop-color:#7A6056"/>
</linearGradient>
<path fill="url(#SVGID_4_)" d="M42.957,31.654c-6.787,0.004-11.083,5.974-8.439,13.641h16.877
	C54.037,37.628,49.742,31.658,42.957,31.654z"/>
<path id="Path_1156_" fill="#FFC940" d="M34.398,42.108c1.066,0.13,1.834,3.729,1.166,4.679c-0.096,0.134-0.645,0.346-1.051-0.493
	c-0.227-0.464-0.877-0.852-1.078-1.81C33.178,43.258,33.34,41.979,34.398,42.108z"/>
<path id="Path_1083_" fill="#F0A429" d="M34.428,42.799c0.277,0.088,0.582,0.516,0.746,1.226c-0.973-0.211-0.729,1.422,0.115,1.452
	c-0.008,0.165-0.018,0.334-0.039,0.512c-0.406-0.596-0.82-0.357-1.229-1.244C33.652,43.945,33.74,42.581,34.428,42.799z"/>
<path id="Path_869_" fill="#FFC940" d="M51.514,42.108c-1.064,0.13-1.834,3.729-1.164,4.679c0.094,0.134,0.643,0.346,1.051-0.493
	c0.225-0.464,0.875-0.852,1.076-1.81C52.736,43.258,52.574,41.979,51.514,42.108z"/>
<path id="Path_868_" fill="#F0A429" d="M50.74,44.021c0.164-0.708,0.467-1.135,0.744-1.223c0.689-0.219,0.777,1.146,0.408,1.945
	c-0.41,0.887-0.822,0.648-1.23,1.244c-0.02-0.178-0.031-0.348-0.037-0.512C51.459,45.436,51.699,43.824,50.74,44.021z"/>
<path fill="#FFC940" d="M42.957,32.858c-5.822,0-8.627,4.404-8.275,10.528c0.07,1.232,0.834,4.047,1.557,5.489
	c1.273,2.545,4.6,4.442,6.719,4.442c2.117,0,5.447-1.897,6.719-4.442c0.723-1.442,1.486-4.257,1.557-5.489
	C51.584,37.263,48.779,32.858,42.957,32.858z"/>
<path id="Path_867_" fill="#F0A429" d="M44.314,46.828c-0.145-0.1-0.482,0.055-1.357,0.055c-0.877,0-1.215-0.154-1.359-0.055
	c-0.17,0.122,0.104,0.669,1.359,0.669C44.211,47.497,44.486,46.95,44.314,46.828z"/>
<path id="Path_866_" fill="#F0A429" d="M42.957,48.78c-1.313-0.386-3.258,0.184-3.258,0.184c0.74,0.808,1.283,1.853,3.258,1.853
	c2.262,0,2.646-1.188,3.258-1.853C46.215,48.964,44.268,48.393,42.957,48.78z"/>
<path id="Path_865_" fill="#FFFFFF" d="M40.188,49.1c1.375,1.155,4.154,1.162,5.539,0C44.26,49.162,41.664,49.164,40.188,49.1z"/>
<path id="Path_864_" fill="#FFFFFF" d="M41.701,43.832c0.047,0.374-0.205,0.816-0.908,1.148c-0.445,0.211-1.373,0.459-2.592-0.055
	c-0.545-0.23-1.078-0.947-1.029-1.344C37.832,42.336,41.082,42.154,41.701,43.832z"/>
<linearGradient id="Oval_3_" gradientUnits="userSpaceOnUse" x1="-422.4111" y1="475.4023" x2="-422.4111" y2="475.791" gradientTransform="matrix(6.5701 0 0 -6.5701 2814.7805 3168.5281)">
	<stop  offset="0" style="stop-color:#A6694A"/>
	<stop  offset="1" style="stop-color:#4F2A1E"/>
	<a:midPointStop  offset="0" style="stop-color:#A6694A"/>
	<a:midPointStop  offset="0.5" style="stop-color:#A6694A"/>
	<a:midPointStop  offset="1" style="stop-color:#4F2A1E"/>
</linearGradient>
<circle id="Oval_100_" fill="url(#Oval_3_)" cx="39.496" cy="43.807" r="1.277"/>
<path id="Path_863_" fill="#1A1626" d="M38.857,43.783c0,0.885,1.277,0.885,1.277,0C40.135,42.963,38.857,42.963,38.857,43.783z"/>
<path id="Path_862_" fill="#AB968C" d="M38.664,43.426c0,0.371,0.535,0.371,0.535,0C39.199,43.082,38.664,43.082,38.664,43.426z"/>
<path id="Path_861_" fill="#F0A429" d="M41.707,43.881c-0.518-1.666-4.055-1.421-4.535-0.299
	C37.35,42.146,41.266,41.768,41.707,43.881z"/>
<path id="Path_860_" fill="#FFFFFF" d="M44.213,43.832c-0.049,0.374,0.205,0.816,0.906,1.148c0.445,0.211,1.373,0.459,2.594-0.055
	c0.545-0.23,1.078-0.947,1.029-1.344C48.082,42.336,44.83,42.154,44.213,43.832z"/>
<linearGradient id="Oval_4_" gradientUnits="userSpaceOnUse" x1="-424.061" y1="475.4023" x2="-424.061" y2="475.791" gradientTransform="matrix(6.5701 0 0 -6.5701 2832.511 3168.5281)">
	<stop  offset="0" style="stop-color:#A6694A"/>
	<stop  offset="1" style="stop-color:#4F2A1E"/>
	<a:midPointStop  offset="0" style="stop-color:#A6694A"/>
	<a:midPointStop  offset="0.5" style="stop-color:#A6694A"/>
	<a:midPointStop  offset="1" style="stop-color:#4F2A1E"/>
</linearGradient>
<circle id="Oval_99_" fill="url(#Oval_4_)" cx="46.389" cy="43.807" r="1.277"/>
<path id="Path_859_" fill="#1A1626" d="M45.752,43.783c0,0.885,1.277,0.885,1.277,0C47.029,42.963,45.752,42.963,45.752,43.783z"/>
<path id="Path_858_" fill="#AB968C" d="M45.557,43.426c0,0.371,0.535,0.371,0.535,0C46.092,43.082,45.557,43.082,45.557,43.426z"/>
<path id="Path_857_" fill="#F0A429" d="M44.207,43.881c0.518-1.666,4.051-1.427,4.535-0.299
	C48.563,42.146,44.648,41.768,44.207,43.881z"/>
<path id="Path_856_" fill="#F0A429" d="M48.824,41.842c-1.098-0.693-3.311-0.895-4.178-0.539c-0.186,0.066-0.125,0.647,0.029,0.605
	c1.195-0.357,3.051-0.224,4.078,0.355C48.893,42.34,48.992,41.939,48.824,41.842z"/>
<path id="Path_855_" fill="#F0A429" d="M37.088,41.842c1.1-0.693,3.311-0.895,4.178-0.539c0.186,0.066,0.125,0.647-0.029,0.605
	c-1.195-0.357-3.049-0.224-4.08,0.355C37.02,42.34,36.92,41.939,37.088,41.842z"/>
<linearGradient id="SVGID_5_" gradientUnits="userSpaceOnUse" x1="42.957" y1="44.834" x2="42.957" y2="31.856">
	<stop  offset="0" style="stop-color:#473834"/>
	<stop  offset="0.2717" style="stop-color:#594640"/>
	<stop  offset="0.7226" style="stop-color:#715950"/>
	<stop  offset="1" style="stop-color:#7A6056"/>
	<a:midPointStop  offset="0" style="stop-color:#473834"/>
	<a:midPointStop  offset="0.4" style="stop-color:#473834"/>
	<a:midPointStop  offset="1" style="stop-color:#7A6056"/>
</linearGradient>
<path fill="url(#SVGID_5_)" d="M42.955,31.855c-3.414-0.001-6.467,1.895-7.131,4.451c-1.719,1.684-1.979,5.509-0.896,8.527
	c0.141-2.896,1.746-4.354,1.646-7.541c9.592,0,13.893,3.127,14.406,7.541C53.158,38.754,49.729,31.855,42.955,31.855z"/>
<path fill="#473834" d="M50.98,44.834c-1.795-7.715-15.166-7.5-15.166-7.5C35.887,37.326,50.148,35.027,50.98,44.834z"/>
<path fill="#473834" d="M34.928,44.834c-0.123-3.426,1.689-4.967,1.494-8.503C37.172,39.691,35.557,41.358,34.928,44.834z"/>
<path fill="#CFD8DD" d="M51.131,42.217c0.766-11.574-17.117-11.574-16.352,0C35.447,32.496,50.463,32.496,51.131,42.217z"/>
<path fill="#FFFFFF" d="M51.131,41.842c0.766-11.573-17.117-11.573-16.352,0C35.447,32.122,50.463,32.122,51.131,41.842z"/>
<linearGradient id="SVGID_6_" gradientUnits="userSpaceOnUse" x1="21.0435" y1="45.2949" x2="21.0435" y2="31.6548">
	<stop  offset="0" style="stop-color:#473834"/>
	<stop  offset="0.2717" style="stop-color:#594640"/>
	<stop  offset="0.7226" style="stop-color:#715950"/>
	<stop  offset="1" style="stop-color:#7A6056"/>
	<a:midPointStop  offset="0" style="stop-color:#473834"/>
	<a:midPointStop  offset="0.4" style="stop-color:#473834"/>
	<a:midPointStop  offset="1" style="stop-color:#7A6056"/>
</linearGradient>
<path fill="url(#SVGID_6_)" d="M21.044,31.654c-6.787,0.004-11.082,5.974-8.439,13.641h16.877
	C32.125,37.628,27.83,31.658,21.044,31.654z"/>
<path id="Path_1173_" fill="#FFC940" d="M12.486,42.108c1.066,0.13,1.834,3.729,1.166,4.679c-0.096,0.134-0.645,0.346-1.051-0.493
	c-0.227-0.464-0.877-0.852-1.078-1.81C11.265,43.258,11.427,41.979,12.486,42.108z"/>
<path id="Path_1172_" fill="#F0A429" d="M12.515,42.799c0.277,0.088,0.582,0.516,0.746,1.226c-0.973-0.211-0.729,1.422,0.115,1.452
	c-0.008,0.165-0.018,0.334-0.039,0.512c-0.406-0.596-0.82-0.357-1.229-1.244C11.74,43.945,11.828,42.581,12.515,42.799z"/>
<path id="Path_1171_" fill="#FFC940" d="M29.601,42.108c-1.064,0.13-1.834,3.729-1.164,4.679c0.094,0.134,0.643,0.346,1.051-0.493
	c0.225-0.464,0.875-0.852,1.076-1.81C30.824,43.258,30.662,41.979,29.601,42.108z"/>
<path id="Path_1170_" fill="#F0A429" d="M28.828,44.021c0.164-0.708,0.467-1.135,0.744-1.223c0.689-0.219,0.777,1.146,0.408,1.945
	c-0.41,0.887-0.822,0.648-1.23,1.244c-0.02-0.178-0.031-0.348-0.037-0.512C29.546,45.436,29.787,43.824,28.828,44.021z"/>
<path fill="#FFC940" d="M21.044,32.858c-5.822,0-8.627,4.404-8.275,10.528c0.07,1.232,0.834,4.047,1.557,5.489
	c1.273,2.545,4.6,4.442,6.719,4.442c2.117,0,5.447-1.897,6.719-4.442c0.723-1.442,1.486-4.257,1.557-5.489
	C29.671,37.263,26.867,32.858,21.044,32.858z"/>
<path id="Path_1169_" fill="#F0A429" d="M22.402,46.828c-0.145-0.1-0.482,0.055-1.357,0.055c-0.877,0-1.215-0.154-1.359-0.055
	c-0.17,0.122,0.104,0.669,1.359,0.669C22.298,47.497,22.574,46.95,22.402,46.828z"/>
<path id="Path_1168_" fill="#F0A429" d="M21.044,48.78c-1.313-0.386-3.258,0.184-3.258,0.184c0.74,0.808,1.283,1.853,3.258,1.853
	c2.262,0,2.646-1.188,3.258-1.853C24.302,48.964,22.355,48.393,21.044,48.78z"/>
<path id="Path_1167_" fill="#FFFFFF" d="M18.275,49.1c1.375,1.155,4.154,1.162,5.539,0C22.347,49.162,19.751,49.164,18.275,49.1z"/>
<path id="Path_1166_" fill="#FFFFFF" d="M19.789,43.832c0.047,0.374-0.205,0.816-0.908,1.148c-0.445,0.211-1.373,0.459-2.592-0.055
	c-0.545-0.23-1.078-0.947-1.029-1.344C15.919,42.336,19.169,42.154,19.789,43.832z"/>
<linearGradient id="Oval_5_" gradientUnits="userSpaceOnUse" x1="-425.7466" y1="475.4023" x2="-425.7466" y2="475.791" gradientTransform="matrix(6.5701 0 0 -6.5701 2814.7805 3168.5281)">
	<stop  offset="0" style="stop-color:#A6694A"/>
	<stop  offset="1" style="stop-color:#4F2A1E"/>
	<a:midPointStop  offset="0" style="stop-color:#A6694A"/>
	<a:midPointStop  offset="0.5" style="stop-color:#A6694A"/>
	<a:midPointStop  offset="1" style="stop-color:#4F2A1E"/>
</linearGradient>
<circle id="Oval_110_" fill="url(#Oval_5_)" cx="17.583" cy="43.807" r="1.277"/>
<path id="Path_1165_" fill="#1A1626" d="M16.945,43.783c0,0.885,1.277,0.885,1.277,0C18.222,42.963,16.945,42.963,16.945,43.783z"/>
<path id="Path_1164_" fill="#AB968C" d="M16.751,43.426c0,0.371,0.535,0.371,0.535,0C17.287,43.082,16.751,43.082,16.751,43.426z"/>
<path id="Path_1163_" fill="#F0A429" d="M19.794,43.881c-0.518-1.666-4.055-1.421-4.535-0.299
	C15.437,42.146,19.353,41.768,19.794,43.881z"/>
<path id="Path_1162_" fill="#FFFFFF" d="M22.3,43.832c-0.049,0.374,0.205,0.816,0.906,1.148c0.445,0.211,1.373,0.459,2.594-0.055
	c0.545-0.23,1.078-0.947,1.029-1.344C26.169,42.336,22.917,42.154,22.3,43.832z"/>
<linearGradient id="Oval_6_" gradientUnits="userSpaceOnUse" x1="-427.396" y1="475.4023" x2="-427.396" y2="475.791" gradientTransform="matrix(6.5701 0 0 -6.5701 2832.511 3168.5281)">
	<stop  offset="0" style="stop-color:#A6694A"/>
	<stop  offset="1" style="stop-color:#4F2A1E"/>
	<a:midPointStop  offset="0" style="stop-color:#A6694A"/>
	<a:midPointStop  offset="0.5" style="stop-color:#A6694A"/>
	<a:midPointStop  offset="1" style="stop-color:#4F2A1E"/>
</linearGradient>
<circle id="Oval_109_" fill="url(#Oval_6_)" cx="24.476" cy="43.807" r="1.277"/>
<path id="Path_1161_" fill="#1A1626" d="M23.839,43.783c0,0.885,1.277,0.885,1.277,0C25.117,42.963,23.839,42.963,23.839,43.783z"/>
<path id="Path_1160_" fill="#AB968C" d="M23.644,43.426c0,0.371,0.535,0.371,0.535,0C24.179,43.082,23.644,43.082,23.644,43.426z"/>
<path id="Path_1159_" fill="#F0A429" d="M22.294,43.881c0.518-1.666,4.051-1.427,4.535-0.299
	C26.65,42.146,22.736,41.768,22.294,43.881z"/>
<path id="Path_1158_" fill="#F0A429" d="M26.912,41.842c-1.098-0.693-3.311-0.895-4.178-0.539c-0.186,0.066-0.125,0.647,0.029,0.605
	c1.195-0.357,3.051-0.224,4.078,0.355C26.98,42.34,27.08,41.939,26.912,41.842z"/>
<path id="Path_1157_" fill="#F0A429" d="M15.175,41.842c1.1-0.693,3.311-0.895,4.178-0.539c0.186,0.066,0.125,0.647-0.029,0.605
	c-1.195-0.357-3.049-0.224-4.08,0.355C15.107,42.34,15.007,41.939,15.175,41.842z"/>
<linearGradient id="SVGID_7_" gradientUnits="userSpaceOnUse" x1="21.0439" y1="44.834" x2="21.0439" y2="31.856">
	<stop  offset="0" style="stop-color:#473834"/>
	<stop  offset="0.2717" style="stop-color:#594640"/>
	<stop  offset="0.7226" style="stop-color:#715950"/>
	<stop  offset="1" style="stop-color:#7A6056"/>
	<a:midPointStop  offset="0" style="stop-color:#473834"/>
	<a:midPointStop  offset="0.4" style="stop-color:#473834"/>
	<a:midPointStop  offset="1" style="stop-color:#7A6056"/>
</linearGradient>
<path fill="url(#SVGID_7_)" d="M21.042,31.855c-3.414-0.001-6.467,1.895-7.131,4.451c-1.719,1.684-1.979,5.509-0.896,8.527
	c0.141-2.896,1.746-4.354,1.646-7.541c9.592,0,13.893,3.127,14.406,7.541C31.246,38.754,27.816,31.855,21.042,31.855z"/>
<path fill="#473834" d="M29.068,44.834c-1.795-7.715-15.166-7.5-15.166-7.5C13.974,37.326,28.236,35.027,29.068,44.834z"/>
<path fill="#473834" d="M13.015,44.834c-0.123-3.426,1.689-4.967,1.494-8.503C15.259,39.691,13.644,41.358,13.015,44.834z"/>
<path fill="#CFD8DD" d="M29.218,42.217c0.766-11.574-17.117-11.574-16.352,0C13.535,32.496,28.55,32.496,29.218,42.217z"/>
<path fill="#FFFFFF" d="M29.218,41.842c0.766-11.573-17.117-11.573-16.352,0C13.535,32.122,28.55,32.122,29.218,41.842z"/>
</svg>
