<?xml version="1.0" encoding="utf-8"?>
<!-- Generator: Adobe Illustrator 15.0.0, SVG Export Plug-In . SVG Version: 6.00 Build 0)  -->
<!DOCTYPE svg PUBLIC "-//W3C//DTD SVG 1.1//EN" "http://www.w3.org/Graphics/SVG/1.1/DTD/svg11.dtd" [
	<!ENTITY ns_flows "http://ns.adobe.com/Flows/1.0/">
	<!ENTITY ns_extend "http://ns.adobe.com/Extensibility/1.0/">
	<!ENTITY ns_ai "http://ns.adobe.com/AdobeIllustrator/10.0/">
	<!ENTITY ns_graphs "http://ns.adobe.com/Graphs/1.0/">
]>
<svg version="1.1" id="Layer_1" xmlns:x="&ns_extend;" xmlns:i="&ns_ai;" xmlns:graph="&ns_graphs;"
	 xmlns="http://www.w3.org/2000/svg" xmlns:xlink="http://www.w3.org/1999/xlink" xmlns:a="http://ns.adobe.com/AdobeSVGViewerExtensions/3.0/"
	 x="0px" y="0px" width="64px" height="64px" viewBox="0 0 64 64" enable-background="new 0 0 64 64" xml:space="preserve">
<path fill="#3A8FB0" d="M58.171,31.724c-1.271-1.646-7.426-3.657-7.426-3.657l-11.658,0.019c0,0-6.119,2.006-7.387,3.642
	c-2.084,2.688-2.85,5.357-2.85,5.357l4.934,3L33.786,58h22.266L56.05,45.084l4.932-4.93C60.981,40.154,60.251,34.414,58.171,31.724z
	"/>
<path fill="#007EB0" d="M39.087,28.085c0,4.888,11.658,4.868,11.658-0.019l-1.17-0.413h-9.27L39.087,28.085z"/>
<path fill="#F5BB51" d="M39.921,27.79c0,3.826,9.992,3.826,9.992,0c0-1.302,0-4.233,0-4.233h-9.992
	C39.921,23.557,39.921,26.488,39.921,27.79z"/>
<path fill="#302C3B" d="M33.786,58v3.525c16.512-0.48,22.266-0.464,22.266-2.287c0-1,0-1.238,0-1.238H33.786z"/>
<path fill="#3AB0A2" d="M5.829,31.724c1.271-1.646,7.426-3.657,7.426-3.657l11.658,0.019c0,0,6.119,2.006,7.387,3.642
	c2.084,2.688,1.85,5.916,1.85,5.916l-3.934,2.441L30.214,58H7.948L7.95,45.084l-4.932-4.93C3.019,40.154,3.749,34.414,5.829,31.724z
	"/>
<path fill="#2B998D" d="M24.913,28.085c0,4.888-11.658,4.868-11.658-0.019l1.17-0.413h9.27L24.913,28.085z"/>
<path fill="#F5BB51" d="M24.079,27.79c0,3.826-9.992,3.826-9.992,0c0-1.302,0-4.233,0-4.233h9.992
	C24.079,23.557,24.079,26.488,24.079,27.79z"/>
<path fill="#302C3B" d="M30.214,58v3.525c-16.512-0.48-22.266-0.464-22.266-2.287c0-1,0-1.238,0-1.238H30.214z"/>
<path fill="#F5BB51" d="M28.462,41.33c1.027-2.819,5.584-3.688,5.584-3.688s-0.26,3.695-0.26,7.625
	C31.253,44.949,28.462,41.33,28.462,41.33z"/>
<path id="Path_978_" fill="#FFC940" d="M55.073,13.998c-1.572,0.191-2.707,5.455-1.721,6.844c0.141,0.194,0.951,0.504,1.551-0.723
	c0.332-0.678,1.293-1.244,1.59-2.646C56.874,15.68,56.638,13.809,55.073,13.998z"/>
<path id="Path_977_" fill="#FFC940" d="M34.765,13.998c1.572,0.191,2.707,5.455,1.717,6.844c-0.137,0.194-0.947,0.504-1.549-0.723
	c-0.332-0.678-1.293-1.244-1.59-2.646C32.962,15.68,33.2,13.809,34.765,13.998z"/>
<path id="Path_976_" fill="#F0A429" d="M55.028,15.008c-0.408,0.129-0.855,0.754-1.1,1.792c1.434-0.308,1.076,2.08-0.17,2.125
	c0.012,0.24,0.027,0.487,0.057,0.747c0.602-0.872,1.211-0.521,1.814-1.818C56.175,16.684,56.046,14.688,55.028,15.008z"/>
<path id="Path_975_" fill="#F0A429" d="M35.907,16.797c-0.242-1.036-0.689-1.661-1.1-1.789c-1.016-0.319-1.146,1.676-0.602,2.846
	c0.604,1.297,1.215,0.946,1.816,1.818c0.029-0.26,0.045-0.508,0.055-0.748C34.845,18.865,34.491,16.507,35.907,16.797z"/>
<path id="Path_974_" fill="#FFC940" d="M44.917,3.878c-6.809,0-10.09,5.152-9.68,12.317c0.082,1.441,0.975,6.144,1.818,7.83
	c0.865,1.727,3.752,4.387,5.521,4.938c1.117,0.348,3.566,0.348,4.682,0c1.77-0.551,4.66-3.211,5.521-4.938
	c0.846-1.687,1.738-6.388,1.82-7.83C55.011,9.03,51.731,3.878,44.917,3.878z"/>
<path id="Path_935_" fill="#966F42" d="M52.317,13.473c-1.557-0.824-4.537-0.865-5.648-0.29c-0.238,0.11-0.08,0.893,0.119,0.818
	c1.547-0.612,4.045-0.626,5.492,0.052C52.474,14.142,52.554,13.588,52.317,13.473z"/>
<path id="Path_934_" fill="#966F42" d="M37.517,13.473c1.561-0.824,4.539-0.865,5.65-0.29c0.238,0.11,0.08,0.893-0.119,0.818
	c-1.551-0.612-4.043-0.626-5.494,0.052C37.362,14.142,37.282,13.588,37.517,13.473z"/>
<path id="Path_933_" fill="#F0A429" d="M46.757,20.628c-0.193-0.136-0.65,0.073-1.84,0.073c-1.186,0-1.643-0.209-1.836-0.073
	c-0.234,0.164,0.137,0.905,1.836,0.905C46.62,21.533,46.989,20.792,46.757,20.628z"/>
<path id="Path_932_" fill="#F0A429" d="M44.917,23.436c-1.529-0.45-3.801,0.213-3.801,0.213c0.863,0.942,1.498,2.164,3.801,2.164
	c2.641,0,3.09-1.388,3.803-2.164C48.72,23.648,46.448,22.982,44.917,23.436z"/>
<path id="Path_931_" fill="#FFFFFF" d="M41.687,23.809c1.605,1.348,4.848,1.356,6.463,0C46.44,23.882,43.411,23.883,41.687,23.809z"
	/>
<path id="Path_930_" fill="#FFFFFF" d="M43.403,16.283c0.057,0.451-0.248,0.986-1.096,1.387c-0.537,0.255-1.658,0.555-3.129-0.066
	c-0.66-0.277-1.301-1.144-1.244-1.622C38.731,14.478,42.657,14.258,43.403,16.283z"/>
<linearGradient id="Oval_1_" gradientUnits="userSpaceOnUse" x1="-437.8213" y1="479.5557" x2="-437.8213" y2="480.0254" gradientTransform="matrix(6.5701 0 0 -6.5701 2917.2688 3168.5281)">
	<stop  offset="0" style="stop-color:#A6694A"/>
	<stop  offset="1" style="stop-color:#4F2A1E"/>
	<a:midPointStop  offset="0" style="stop-color:#A6694A"/>
	<a:midPointStop  offset="0.5" style="stop-color:#A6694A"/>
	<a:midPointStop  offset="1" style="stop-color:#4F2A1E"/>
</linearGradient>
<circle id="Oval_120_" fill="url(#Oval_1_)" cx="40.739" cy="16.254" r="1.542"/>
<path id="Path_929_" fill="#1A1626" d="M39.97,16.226c0,1.066,1.541,1.066,1.541,0C41.511,15.235,39.97,15.235,39.97,16.226z"/>
<path id="Path_928_" fill="#AB968C" d="M39.735,15.793c0,0.447,0.646,0.447,0.646,0C40.382,15.379,39.735,15.379,39.735,15.793z"/>
<path id="Path_927_" fill="#F0A429" d="M43.411,16.344c-0.629-2.013-4.896-1.716-5.477-0.362
	C38.149,14.248,42.878,13.791,43.411,16.344z"/>
<path id="Path_926_" fill="#FFFFFF" d="M46.433,16.283c-0.057,0.451,0.248,0.986,1.096,1.387c0.539,0.255,1.658,0.555,3.131-0.066
	c0.658-0.277,1.301-1.144,1.242-1.622C51.106,14.478,47.181,14.258,46.433,16.283z"/>
<linearGradient id="Oval_2_" gradientUnits="userSpaceOnUse" x1="-439.2534" y1="479.5557" x2="-439.2534" y2="480.0254" gradientTransform="matrix(6.5701 0 0 -6.5701 2934.9993 3168.5281)">
	<stop  offset="0" style="stop-color:#A6694A"/>
	<stop  offset="1" style="stop-color:#4F2A1E"/>
	<a:midPointStop  offset="0" style="stop-color:#A6694A"/>
	<a:midPointStop  offset="0.5" style="stop-color:#A6694A"/>
	<a:midPointStop  offset="1" style="stop-color:#4F2A1E"/>
</linearGradient>
<circle id="Oval_119_" fill="url(#Oval_2_)" cx="49.062" cy="16.254" r="1.542"/>
<path id="Path_925_" fill="#1A1626" d="M48.29,16.226c0,1.066,1.543,1.066,1.543,0C49.833,15.235,48.29,15.235,48.29,16.226z"/>
<path id="Path_924_" fill="#AB968C" d="M48.056,15.793c0,0.447,0.648,0.447,0.648,0C48.704,15.379,48.056,15.379,48.056,15.793z"/>
<path id="Path_923_" fill="#F0A429" d="M46.427,16.344c0.625-2.012,4.891-1.724,5.475-0.362
	C51.685,14.248,46.96,13.791,46.427,16.344z"/>
<path fill="#7A6056" d="M53.618,5.585C52.126,3.567,49.397,2,44.917,2c-4.479,0-7.207,1.567-8.697,3.585
	C34.11,8.441,55.728,8.441,53.618,5.585z"/>
<linearGradient id="SVGID_1_" gradientUnits="userSpaceOnUse" x1="-57.5732" y1="17.958" x2="-57.5732" y2="4.7305" gradientTransform="matrix(1 0 0 1 102.4922 0)">
	<stop  offset="0.5" style="stop-color:#473834"/>
	<stop  offset="0.6387" style="stop-color:#503F3A"/>
	<stop  offset="0.8641" style="stop-color:#68524A"/>
	<stop  offset="1" style="stop-color:#7A6056"/>
	<a:midPointStop  offset="0.5" style="stop-color:#473834"/>
	<a:midPointStop  offset="0.6" style="stop-color:#473834"/>
	<a:midPointStop  offset="1" style="stop-color:#7A6056"/>
</linearGradient>
<path fill="url(#SVGID_1_)" d="M53.618,5.585c-1.492-2.018-4.221,0.17-8.701,0.17c-4.479,0-7.207-2.188-8.697-0.17
	c-2.109,2.856-1.393,12.373-0.455,12.373c0.15,0,0.17-3.33,0.455-5.633c0.23-1.875,0.678-3.692,1.188-3.99
	c1.564-0.907,4.58,0.391,7.51,0.391c2.934,0,5.949-1.298,7.512-0.391c0.512,0.298,0.957,2.115,1.189,3.99
	c0.283,2.303,0.303,5.633,0.455,5.633C55.011,17.958,55.728,8.441,53.618,5.585z"/>
<path id="Path_922_" fill="#FFC940" d="M29.237,13.998c-1.572,0.191-2.707,5.455-1.721,6.844c0.141,0.194,0.951,0.504,1.551-0.723
	c0.332-0.678,1.293-1.244,1.59-2.646C31.038,15.68,30.802,13.809,29.237,13.998z"/>
<path id="Path_921_" fill="#FFC940" d="M8.929,13.998c1.572,0.191,2.707,5.455,1.717,6.844c-0.137,0.194-0.947,0.504-1.549-0.723
	c-0.332-0.678-1.293-1.244-1.59-2.646C7.126,15.68,7.364,13.809,8.929,13.998z"/>
<path id="Path_920_" fill="#F0A429" d="M29.192,15.008c-0.408,0.129-0.855,0.754-1.1,1.792c1.434-0.308,1.076,2.08-0.17,2.125
	c0.012,0.24,0.027,0.487,0.057,0.747c0.602-0.872,1.211-0.521,1.814-1.818C30.339,16.684,30.21,14.688,29.192,15.008z"/>
<path id="Path_919_" fill="#F0A429" d="M10.071,16.797c-0.242-1.036-0.689-1.661-1.1-1.789c-1.016-0.319-1.146,1.676-0.602,2.846
	c0.604,1.297,1.215,0.946,1.816,1.818c0.029-0.26,0.045-0.508,0.055-0.748C9.009,18.865,8.655,16.507,10.071,16.797z"/>
<path id="Path_904_" fill="#FFC940" d="M19.081,3.878c-6.809,0-10.09,5.152-9.68,12.317c0.082,1.441,0.975,6.144,1.818,7.83
	c0.865,1.727,3.752,4.387,5.521,4.938c1.117,0.348,3.566,0.348,4.682,0c1.77-0.551,4.66-3.211,5.521-4.938
	c0.846-1.687,1.738-6.388,1.82-7.83C29.175,9.03,25.896,3.878,19.081,3.878z"/>
<path id="Path_903_" fill="#966F42" d="M26.481,13.473c-1.557-0.824-4.537-0.865-5.648-0.29c-0.238,0.11-0.08,0.893,0.119,0.818
	c1.547-0.612,4.045-0.626,5.492,0.052C26.638,14.142,26.718,13.588,26.481,13.473z"/>
<path id="Path_902_" fill="#966F42" d="M11.681,13.473c1.561-0.824,4.539-0.865,5.65-0.29c0.238,0.11,0.08,0.893-0.119,0.818
	c-1.551-0.612-4.043-0.626-5.494,0.052C11.526,14.142,11.446,13.588,11.681,13.473z"/>
<path id="Path_901_" fill="#F0A429" d="M20.921,20.628c-0.193-0.136-0.65,0.073-1.84,0.073c-1.186,0-1.643-0.209-1.836-0.073
	c-0.234,0.164,0.137,0.905,1.836,0.905C20.784,21.533,21.153,20.792,20.921,20.628z"/>
<path id="Path_900_" fill="#F0A429" d="M19.081,23.436c-1.529-0.45-3.801,0.213-3.801,0.213c0.863,0.942,1.498,2.164,3.801,2.164
	c2.641,0,3.09-1.388,3.803-2.164C22.884,23.648,20.612,22.982,19.081,23.436z"/>
<path id="Path_899_" fill="#FFFFFF" d="M15.851,23.809c1.605,1.348,4.848,1.356,6.463,0C20.604,23.882,17.575,23.883,15.851,23.809z
	"/>
<path id="Path_898_" fill="#FFFFFF" d="M17.567,16.283c0.057,0.451-0.248,0.986-1.096,1.387c-0.537,0.255-1.658,0.555-3.129-0.066
	c-0.66-0.277-1.301-1.144-1.244-1.622C12.896,14.478,16.821,14.258,17.567,16.283z"/>
<linearGradient id="Oval_3_" gradientUnits="userSpaceOnUse" x1="-453.9097" y1="479.5557" x2="-453.9097" y2="480.0254" gradientTransform="matrix(6.5701 0 0 -6.5701 2997.136 3168.5281)">
	<stop  offset="0" style="stop-color:#A6694A"/>
	<stop  offset="1" style="stop-color:#4F2A1E"/>
	<a:midPointStop  offset="0" style="stop-color:#A6694A"/>
	<a:midPointStop  offset="0.5" style="stop-color:#A6694A"/>
	<a:midPointStop  offset="1" style="stop-color:#4F2A1E"/>
</linearGradient>
<circle id="Oval_102_" fill="url(#Oval_3_)" cx="14.903" cy="16.254" r="1.542"/>
<path id="Path_897_" fill="#1A1626" d="M14.134,16.226c0,1.066,1.541,1.066,1.541,0C15.675,15.235,14.134,15.235,14.134,16.226z"/>
<path id="Path_896_" fill="#AB968C" d="M13.899,15.793c0,0.447,0.646,0.447,0.646,0C14.546,15.379,13.899,15.379,13.899,15.793z"/>
<path id="Path_895_" fill="#F0A429" d="M17.575,16.344c-0.629-2.013-4.896-1.716-5.477-0.362
	C12.313,14.248,17.042,13.791,17.575,16.344z"/>
<path id="Path_894_" fill="#FFFFFF" d="M20.597,16.283c-0.057,0.451,0.248,0.986,1.096,1.387c0.539,0.255,1.658,0.555,3.131-0.066
	c0.658-0.277,1.301-1.144,1.242-1.622C25.271,14.478,21.345,14.258,20.597,16.283z"/>
<linearGradient id="Oval_4_" gradientUnits="userSpaceOnUse" x1="-455.3418" y1="479.5557" x2="-455.3418" y2="480.0254" gradientTransform="matrix(6.5701 0 0 -6.5701 3014.8665 3168.5281)">
	<stop  offset="0" style="stop-color:#A6694A"/>
	<stop  offset="1" style="stop-color:#4F2A1E"/>
	<a:midPointStop  offset="0" style="stop-color:#A6694A"/>
	<a:midPointStop  offset="0.5" style="stop-color:#A6694A"/>
	<a:midPointStop  offset="1" style="stop-color:#4F2A1E"/>
</linearGradient>
<circle id="Oval_101_" fill="url(#Oval_4_)" cx="23.226" cy="16.254" r="1.542"/>
<path id="Path_893_" fill="#1A1626" d="M22.454,16.226c0,1.066,1.543,1.066,1.543,0C23.997,15.235,22.454,15.235,22.454,16.226z"/>
<path id="Path_892_" fill="#AB968C" d="M22.22,15.793c0,0.447,0.648,0.447,0.648,0C22.868,15.379,22.22,15.379,22.22,15.793z"/>
<path id="Path_891_" fill="#F0A429" d="M20.591,16.344c0.625-2.012,4.891-1.724,5.475-0.362
	C25.849,14.248,21.124,13.791,20.591,16.344z"/>
<path fill="#7A6056" d="M27.782,5.585C26.29,3.567,23.562,2,19.081,2c-4.479,0-7.207,1.567-8.697,3.585
	C8.274,8.441,29.892,8.441,27.782,5.585z"/>
<linearGradient id="SVGID_2_" gradientUnits="userSpaceOnUse" x1="-163.2783" y1="17.958" x2="-163.2783" y2="4.7305" gradientTransform="matrix(1 0 0 1 182.3613 0)">
	<stop  offset="0.5" style="stop-color:#473834"/>
	<stop  offset="0.6387" style="stop-color:#503F3A"/>
	<stop  offset="0.8641" style="stop-color:#68524A"/>
	<stop  offset="1" style="stop-color:#7A6056"/>
	<a:midPointStop  offset="0.5" style="stop-color:#473834"/>
	<a:midPointStop  offset="0.6" style="stop-color:#473834"/>
	<a:midPointStop  offset="1" style="stop-color:#7A6056"/>
</linearGradient>
<path fill="url(#SVGID_2_)" d="M27.782,5.585c-1.492-2.018-4.221,0.17-8.701,0.17c-4.479,0-7.207-2.188-8.697-0.17
	C8.274,8.441,8.991,17.958,9.929,17.958c0.15,0,0.17-3.33,0.455-5.633c0.23-1.875,0.678-3.692,1.188-3.99
	c1.564-0.907,4.58,0.391,7.51,0.391c2.934,0,5.949-1.298,7.512-0.391c0.512,0.298,0.957,2.115,1.189,3.99
	c0.283,2.303,0.303,5.633,0.455,5.633C29.175,17.958,29.892,8.441,27.782,5.585z"/>
<path fill="#FF9ED2" d="M24.938,52.721l-7.793,0.012c0,0-4.088,1.332-4.936,2.416c-0.899,1.15-1.43,3.822-1.693,5.464
	c4.332,1.022,12.781,1.38,21.262,1.388c0-0.003-0.486-5.07-1.877-6.854C29.052,54.055,24.938,52.721,24.938,52.721z"/>
<path fill="#FF82C5" d="M17.146,52.732c0,3.242,7.793,3.23,7.793-0.012l-0.781-0.273h-6.195L17.146,52.732z"/>
<path fill="#F5BB51" d="M17.704,52.537c0,2.539,6.678,2.539,6.678,0c0-0.863,0-2.807,0-2.807h-6.678
	C17.704,49.73,17.704,51.674,17.704,52.537z"/>
<path fill="#FF82C5" d="M14.168,61.234l-0.284-0.045C13.884,58.883,14.168,58.653,14.168,61.234z"/>
<path fill="#FF82C5" d="M28.21,61.965h-0.301C27.909,58.283,28.21,58.283,28.21,61.965z"/>
<path fill="#FFAD9E" d="M46.851,52.721l-7.791,0.012c0,0-4.09,1.332-4.938,2.416c-1.392,1.781-1.901,6.846-1.902,6.851
	c8.52-0.011,16.988-0.347,21.265-1.382c-0.259-1.643-0.778-4.326-1.671-5.471C50.964,54.055,46.851,52.721,46.851,52.721z"/>
<path fill="#F7928A" d="M39.06,52.732c0,3.242,7.791,3.23,7.791-0.012l-0.781-0.273h-6.195L39.06,52.732z"/>
<path fill="#F5BB51" d="M39.616,52.537c0,2.539,6.68,2.539,6.68,0c0-0.863,0-2.807,0-2.807h-6.68
	C39.616,49.73,39.616,51.674,39.616,52.537z"/>
<path fill="#F7928A" d="M36.087,61.959l-0.299,0.006C35.788,58.283,36.087,58.277,36.087,61.959z"/>
<path fill="#F7928A" d="M50.115,61.18l-0.284,0.027C49.831,58.94,50.115,58.773,50.115,61.18z"/>
<path fill="#473834" d="M28.69,42.626c6.455,4.266,0.781,8.151,2.619,9.989C27.739,55.098,18.999,50.82,28.69,42.626z"/>
<path fill="#473834" d="M13.392,42.626c-6.455,4.266-0.779,8.151-2.617,9.989C14.345,55.098,23.085,50.82,13.392,42.626z"/>
<linearGradient id="SVGID_3_" gradientUnits="userSpaceOnUse" x1="21.041" y1="45.2939" x2="21.041" y2="31.6548">
	<stop  offset="0" style="stop-color:#473834"/>
	<stop  offset="0.2717" style="stop-color:#594640"/>
	<stop  offset="0.7226" style="stop-color:#715950"/>
	<stop  offset="1" style="stop-color:#7A6056"/>
	<a:midPointStop  offset="0" style="stop-color:#473834"/>
	<a:midPointStop  offset="0.4" style="stop-color:#473834"/>
	<a:midPointStop  offset="1" style="stop-color:#7A6056"/>
</linearGradient>
<path fill="url(#SVGID_3_)" d="M21.042,31.654c-6.787,0.004-11.082,5.973-8.439,13.64h16.877
	C32.122,37.627,27.827,31.658,21.042,31.654z"/>
<path id="Path_995_" fill="#FFC940" d="M12.483,42.107c1.066,0.13,1.834,3.729,1.166,4.68c-0.096,0.133-0.645,0.345-1.051-0.494
	c-0.227-0.464-0.877-0.852-1.078-1.809C11.263,43.257,11.425,41.979,12.483,42.107z"/>
<path id="Path_994_" fill="#F0A429" d="M12.513,42.798c0.277,0.087,0.582,0.516,0.746,1.226c-0.973-0.211-0.729,1.422,0.115,1.453
	c-0.008,0.164-0.018,0.333-0.039,0.51c-0.406-0.596-0.82-0.355-1.229-1.243C11.737,43.943,11.825,42.58,12.513,42.798z"/>
<path id="Path_993_" fill="#FFC940" d="M29.599,42.107c-1.064,0.13-1.834,3.729-1.164,4.68c0.094,0.133,0.643,0.345,1.051-0.494
	c0.225-0.464,0.875-0.852,1.076-1.809C30.821,43.257,30.659,41.978,29.599,42.107z"/>
<path id="Path_992_" fill="#F0A429" d="M28.825,44.021c0.164-0.709,0.467-1.137,0.744-1.224c0.689-0.219,0.777,1.146,0.408,1.945
	c-0.41,0.888-0.822,0.647-1.23,1.243c-0.02-0.178-0.031-0.347-0.037-0.512C29.544,45.436,29.784,43.822,28.825,44.021z"/>
<path fill="#FFC940" d="M21.042,32.857c-5.822,0-8.627,4.404-8.275,10.529c0.07,1.231,0.834,4.047,1.557,5.488
	c1.273,2.545,4.6,4.443,6.719,4.443c2.117,0,5.447-1.898,6.719-4.443c0.723-1.441,1.486-4.257,1.557-5.488
	C29.669,37.262,26.864,32.857,21.042,32.857z"/>
<path id="Path_991_" fill="#F0A429" d="M22.399,46.828c-0.145-0.102-0.482,0.054-1.357,0.054c-0.877,0-1.215-0.155-1.359-0.054
	c-0.17,0.121,0.104,0.668,1.359,0.668C22.296,47.496,22.571,46.949,22.399,46.828z"/>
<path id="Path_990_" fill="#F0A429" d="M21.042,48.779c-1.313-0.387-3.258,0.184-3.258,0.184c0.74,0.807,1.283,1.854,3.258,1.854
	c2.262,0,2.646-1.189,3.258-1.854C24.3,48.963,22.353,48.392,21.042,48.779z"/>
<path id="Path_989_" fill="#FFFFFF" d="M18.272,49.1c1.375,1.154,4.154,1.162,5.539,0C22.345,49.162,19.749,49.162,18.272,49.1z"/>
<path id="Path_988_" fill="#FFFFFF" d="M19.786,43.831c0.047,0.374-0.205,0.816-0.908,1.147c-0.445,0.213-1.373,0.461-2.592-0.053
	c-0.545-0.23-1.078-0.949-1.029-1.346C15.917,42.336,19.167,42.152,19.786,43.831z"/>
<linearGradient id="Oval_5_" gradientUnits="userSpaceOnUse" x1="-425.7466" y1="475.4023" x2="-425.7466" y2="475.791" gradientTransform="matrix(6.5701 0 0 -6.5701 2814.7805 3168.5281)">
	<stop  offset="0" style="stop-color:#A6694A"/>
	<stop  offset="1" style="stop-color:#4F2A1E"/>
	<a:midPointStop  offset="0" style="stop-color:#A6694A"/>
	<a:midPointStop  offset="0.5" style="stop-color:#A6694A"/>
	<a:midPointStop  offset="1" style="stop-color:#4F2A1E"/>
</linearGradient>
<circle id="Oval_124_" fill="url(#Oval_5_)" cx="17.581" cy="43.807" r="1.277"/>
<path id="Path_987_" fill="#1A1626" d="M16.942,43.783c0,0.883,1.277,0.883,1.277,0C18.22,42.963,16.942,42.963,16.942,43.783z"/>
<path id="Path_986_" fill="#AB968C" d="M16.749,43.426c0,0.369,0.535,0.369,0.535,0C17.284,43.082,16.749,43.082,16.749,43.426z"/>
<path id="Path_985_" fill="#F0A429" d="M19.792,43.881c-0.518-1.668-4.055-1.422-4.535-0.301
	C15.435,42.146,19.351,41.767,19.792,43.881z"/>
<path id="Path_984_" fill="#FFFFFF" d="M22.298,43.831c-0.049,0.374,0.205,0.816,0.906,1.147c0.445,0.213,1.373,0.461,2.594-0.053
	c0.545-0.23,1.078-0.949,1.029-1.346C26.167,42.336,22.915,42.152,22.298,43.831z"/>
<linearGradient id="Oval_6_" gradientUnits="userSpaceOnUse" x1="-427.396" y1="475.4023" x2="-427.396" y2="475.791" gradientTransform="matrix(6.5701 0 0 -6.5701 2832.511 3168.5281)">
	<stop  offset="0" style="stop-color:#A6694A"/>
	<stop  offset="1" style="stop-color:#4F2A1E"/>
	<a:midPointStop  offset="0" style="stop-color:#A6694A"/>
	<a:midPointStop  offset="0.5" style="stop-color:#A6694A"/>
	<a:midPointStop  offset="1" style="stop-color:#4F2A1E"/>
</linearGradient>
<circle id="Oval_123_" fill="url(#Oval_6_)" cx="24.474" cy="43.807" r="1.277"/>
<path id="Path_983_" fill="#1A1626" d="M23.837,43.783c0,0.883,1.277,0.883,1.277,0C25.114,42.963,23.837,42.963,23.837,43.783z"/>
<path id="Path_982_" fill="#AB968C" d="M23.642,43.426c0,0.369,0.535,0.369,0.535,0C24.177,43.082,23.642,43.082,23.642,43.426z"/>
<path id="Path_981_" fill="#F0A429" d="M22.292,43.881c0.518-1.667,4.051-1.428,4.535-0.301
	C26.647,42.146,22.733,41.767,22.292,43.881z"/>
<path id="Path_980_" fill="#F0A429" d="M26.909,41.841c-1.098-0.693-3.311-0.895-4.178-0.54c-0.186,0.068-0.125,0.648,0.029,0.605
	c1.195-0.357,3.051-0.223,4.078,0.356C26.978,42.338,27.077,41.938,26.909,41.841z"/>
<path id="Path_979_" fill="#F0A429" d="M15.173,41.841c1.1-0.693,3.311-0.895,4.178-0.54c0.186,0.068,0.125,0.648-0.029,0.605
	c-1.195-0.357-3.049-0.223-4.08,0.356C15.104,42.338,15.005,41.938,15.173,41.841z"/>
<linearGradient id="SVGID_4_" gradientUnits="userSpaceOnUse" x1="21.0415" y1="44.832" x2="21.0415" y2="31.855">
	<stop  offset="0" style="stop-color:#473834"/>
	<stop  offset="0.2717" style="stop-color:#594640"/>
	<stop  offset="0.7226" style="stop-color:#715950"/>
	<stop  offset="1" style="stop-color:#7A6056"/>
	<a:midPointStop  offset="0" style="stop-color:#473834"/>
	<a:midPointStop  offset="0.4" style="stop-color:#473834"/>
	<a:midPointStop  offset="1" style="stop-color:#7A6056"/>
</linearGradient>
<path fill="url(#SVGID_4_)" d="M21.04,31.854c-3.414-0.001-6.467,1.895-7.131,4.451c-1.719,1.685-1.979,5.509-0.896,8.526
	c0.141-2.896,1.746-4.354,1.646-7.541c9.592,0,13.893,3.129,14.406,7.541C31.243,38.753,27.813,31.854,21.04,31.854z"/>
<path fill="#473834" d="M29.065,44.832c-1.795-7.715-15.166-7.5-15.166-7.5C13.972,37.325,28.233,35.026,29.065,44.832z"/>
<path fill="#473834" d="M13.013,44.832c-0.123-3.424,1.689-4.967,1.494-8.502C15.257,39.689,13.642,41.357,13.013,44.832z"/>
<path fill="#CFD8DD" d="M29.216,42.215c0.766-11.572-17.117-11.572-16.352,0C13.532,32.496,28.548,32.496,29.216,42.215z"/>
<path fill="#FFFFFF" d="M29.216,41.841c0.766-11.573-17.117-11.573-16.352,0C13.532,32.121,28.548,32.121,29.216,41.841z"/>
<path fill="#473834" d="M50.603,42.626c6.455,4.266,0.781,8.151,2.619,9.989C49.651,55.098,40.911,50.82,50.603,42.626z"/>
<path fill="#473834" d="M35.304,42.626c-6.455,4.266-0.779,8.151-2.617,9.989C36.257,55.098,44.997,50.82,35.304,42.626z"/>
<linearGradient id="SVGID_5_" gradientUnits="userSpaceOnUse" x1="42.9531" y1="45.2939" x2="42.9531" y2="31.6548">
	<stop  offset="0" style="stop-color:#473834"/>
	<stop  offset="0.2717" style="stop-color:#594640"/>
	<stop  offset="0.7226" style="stop-color:#715950"/>
	<stop  offset="1" style="stop-color:#7A6056"/>
	<a:midPointStop  offset="0" style="stop-color:#473834"/>
	<a:midPointStop  offset="0.4" style="stop-color:#473834"/>
	<a:midPointStop  offset="1" style="stop-color:#7A6056"/>
</linearGradient>
<path fill="url(#SVGID_5_)" d="M42.954,31.654c-6.787,0.004-11.082,5.973-8.439,13.64h16.877
	C54.034,37.627,49.739,31.658,42.954,31.654z"/>
<path id="Path_623_" fill="#FFC940" d="M34.396,42.107c1.066,0.13,1.834,3.729,1.166,4.68c-0.096,0.133-0.645,0.345-1.051-0.494
	c-0.227-0.464-0.877-0.852-1.078-1.809C33.175,43.257,33.337,41.979,34.396,42.107z"/>
<path id="Path_622_" fill="#F0A429" d="M34.425,42.798c0.277,0.087,0.582,0.516,0.746,1.226c-0.973-0.211-0.729,1.422,0.115,1.453
	c-0.008,0.164-0.018,0.333-0.039,0.51c-0.406-0.596-0.82-0.355-1.229-1.243C33.649,43.943,33.737,42.58,34.425,42.798z"/>
<path id="Path_621_" fill="#FFC940" d="M51.511,42.107c-1.064,0.13-1.834,3.729-1.164,4.68c0.094,0.133,0.643,0.345,1.051-0.494
	c0.225-0.464,0.875-0.852,1.076-1.809C52.733,43.257,52.571,41.978,51.511,42.107z"/>
<path id="Path_620_" fill="#F0A429" d="M50.737,44.021c0.164-0.709,0.467-1.137,0.744-1.224c0.689-0.219,0.777,1.146,0.408,1.945
	c-0.41,0.888-0.822,0.647-1.23,1.243c-0.02-0.178-0.031-0.347-0.037-0.512C51.456,45.436,51.696,43.822,50.737,44.021z"/>
<path fill="#FFC940" d="M42.954,32.857c-5.822,0-8.627,4.404-8.275,10.529c0.07,1.231,0.834,4.047,1.557,5.488
	c1.273,2.545,4.6,4.443,6.719,4.443c2.117,0,5.447-1.898,6.719-4.443c0.723-1.441,1.486-4.257,1.557-5.488
	C51.581,37.262,48.776,32.857,42.954,32.857z"/>
<path id="Path_619_" fill="#F0A429" d="M44.312,46.828c-0.145-0.102-0.482,0.054-1.357,0.054c-0.877,0-1.215-0.155-1.359-0.054
	c-0.17,0.121,0.104,0.668,1.359,0.668C44.208,47.496,44.483,46.949,44.312,46.828z"/>
<path id="Path_618_" fill="#F0A429" d="M42.954,48.779c-1.313-0.387-3.258,0.184-3.258,0.184c0.74,0.807,1.283,1.854,3.258,1.854
	c2.262,0,2.646-1.189,3.258-1.854C46.212,48.963,44.265,48.392,42.954,48.779z"/>
<path id="Path_617_" fill="#FFFFFF" d="M40.185,49.1c1.375,1.154,4.154,1.162,5.539,0C44.257,49.162,41.661,49.162,40.185,49.1z"/>
<path id="Path_616_" fill="#FFFFFF" d="M41.698,43.831c0.047,0.374-0.205,0.816-0.908,1.147c-0.445,0.213-1.373,0.461-2.592-0.053
	c-0.545-0.23-1.078-0.949-1.029-1.346C37.829,42.336,41.079,42.152,41.698,43.831z"/>
<linearGradient id="Oval_7_" gradientUnits="userSpaceOnUse" x1="-422.4116" y1="475.4023" x2="-422.4116" y2="475.791" gradientTransform="matrix(6.5701 0 0 -6.5701 2814.7805 3168.5281)">
	<stop  offset="0" style="stop-color:#A6694A"/>
	<stop  offset="1" style="stop-color:#4F2A1E"/>
	<a:midPointStop  offset="0" style="stop-color:#A6694A"/>
	<a:midPointStop  offset="0.5" style="stop-color:#A6694A"/>
	<a:midPointStop  offset="1" style="stop-color:#4F2A1E"/>
</linearGradient>
<circle id="Oval_80_" fill="url(#Oval_7_)" cx="39.493" cy="43.807" r="1.277"/>
<path id="Path_615_" fill="#1A1626" d="M38.854,43.783c0,0.883,1.277,0.883,1.277,0C40.132,42.963,38.854,42.963,38.854,43.783z"/>
<path id="Path_614_" fill="#AB968C" d="M38.661,43.426c0,0.369,0.535,0.369,0.535,0C39.196,43.082,38.661,43.082,38.661,43.426z"/>
<path id="Path_613_" fill="#F0A429" d="M41.704,43.881c-0.518-1.668-4.055-1.422-4.535-0.301
	C37.347,42.146,41.263,41.767,41.704,43.881z"/>
<path id="Path_612_" fill="#FFFFFF" d="M44.21,43.831c-0.049,0.374,0.205,0.816,0.906,1.147c0.445,0.213,1.373,0.461,2.594-0.053
	c0.545-0.23,1.078-0.949,1.029-1.346C48.079,42.336,44.827,42.152,44.21,43.831z"/>
<linearGradient id="Oval_8_" gradientUnits="userSpaceOnUse" x1="-424.061" y1="475.4023" x2="-424.061" y2="475.791" gradientTransform="matrix(6.5701 0 0 -6.5701 2832.511 3168.5281)">
	<stop  offset="0" style="stop-color:#A6694A"/>
	<stop  offset="1" style="stop-color:#4F2A1E"/>
	<a:midPointStop  offset="0" style="stop-color:#A6694A"/>
	<a:midPointStop  offset="0.5" style="stop-color:#A6694A"/>
	<a:midPointStop  offset="1" style="stop-color:#4F2A1E"/>
</linearGradient>
<circle id="Oval_79_" fill="url(#Oval_8_)" cx="46.386" cy="43.807" r="1.277"/>
<path id="Path_611_" fill="#1A1626" d="M45.749,43.783c0,0.883,1.277,0.883,1.277,0C47.026,42.963,45.749,42.963,45.749,43.783z"/>
<path id="Path_610_" fill="#AB968C" d="M45.554,43.426c0,0.369,0.535,0.369,0.535,0C46.089,43.082,45.554,43.082,45.554,43.426z"/>
<path id="Path_609_" fill="#F0A429" d="M44.204,43.881c0.518-1.667,4.051-1.428,4.535-0.301
	C48.56,42.146,44.646,41.767,44.204,43.881z"/>
<path id="Path_608_" fill="#F0A429" d="M48.821,41.841c-1.098-0.693-3.311-0.895-4.178-0.54c-0.186,0.068-0.125,0.648,0.029,0.605
	c1.195-0.357,3.051-0.223,4.078,0.356C48.89,42.338,48.989,41.938,48.821,41.841z"/>
<path id="Path_607_" fill="#F0A429" d="M37.085,41.841c1.1-0.693,3.311-0.895,4.178-0.54c0.186,0.068,0.125,0.648-0.029,0.605
	c-1.195-0.357-3.049-0.223-4.08,0.356C37.017,42.338,36.917,41.938,37.085,41.841z"/>
<linearGradient id="SVGID_6_" gradientUnits="userSpaceOnUse" x1="42.9541" y1="44.832" x2="42.9541" y2="31.855">
	<stop  offset="0" style="stop-color:#473834"/>
	<stop  offset="0.2717" style="stop-color:#594640"/>
	<stop  offset="0.7226" style="stop-color:#715950"/>
	<stop  offset="1" style="stop-color:#7A6056"/>
	<a:midPointStop  offset="0" style="stop-color:#473834"/>
	<a:midPointStop  offset="0.4" style="stop-color:#473834"/>
	<a:midPointStop  offset="1" style="stop-color:#7A6056"/>
</linearGradient>
<path fill="url(#SVGID_6_)" d="M42.952,31.854c-3.414-0.001-6.467,1.895-7.131,4.451c-1.719,1.685-1.979,5.509-0.896,8.526
	c0.141-2.896,1.746-4.354,1.646-7.541c9.592,0,13.893,3.129,14.406,7.541C53.155,38.753,49.726,31.854,42.952,31.854z"/>
<path fill="#473834" d="M50.978,44.832c-1.795-7.715-15.166-7.5-15.166-7.5C35.884,37.325,50.146,35.026,50.978,44.832z"/>
<path fill="#473834" d="M34.925,44.832c-0.123-3.424,1.689-4.967,1.494-8.502C37.169,39.689,35.554,41.357,34.925,44.832z"/>
<path fill="#CFD8DD" d="M51.128,42.215c0.766-11.572-17.117-11.572-16.352,0C35.444,32.496,50.46,32.496,51.128,42.215z"/>
<path fill="#FFFFFF" d="M51.128,41.841c0.766-11.573-17.117-11.573-16.352,0C35.444,32.121,50.46,32.121,51.128,41.841z"/>
<path fill="#F5BB51" d="M49.919,53.97c0,0-0.313-0.122-1.094-0.481c1-0.969,2.191,0.085,3.293-1.402
	c1.934-2.611,3.066-4.16,3.934-6.66c0,0-0.357-1.323-0.08-3.33c2.521-0.514,4.875-1.807,4.875-1.807s0.135,5.006,0.135,5.111
	c0,3.313-4.775,6.47-6.055,8.639c-0.629,1.064-1.52,2.764-1.76,3.02c-2.084,2.206-4.223,2.02-4.797,1.449
	C46.081,58.266,50.888,55.152,49.919,53.97z"/>
<path fill="#F0A429" d="M50.536,56.685c0,0-1.209,1.523-2.166,1.823C49.489,58.434,50.536,56.685,50.536,56.685z"/>
<path fill="#F0A429" d="M51.849,56.732c0,0-1.506,1.84-2.463,2.141C50.505,58.799,51.849,56.732,51.849,56.732z"/>
<path fill="#F0A429" d="M52.577,56.977c0,0-1.047,1.461-2.006,1.762C51.69,58.664,52.577,56.977,52.577,56.977z"/>
<path fill="#F5BB51" d="M14.081,53.97c0,0,0.313-0.122,1.094-0.481c-1-0.969-2.191,0.085-3.293-1.402
	c-1.934-2.611-3.066-4.16-3.934-6.66c0,0,0.357-1.323,0.08-3.33c-2.521-0.514-4.875-1.807-4.875-1.807S3.019,45.295,3.019,45.4
	c0,3.313,4.775,6.47,6.055,8.639c0.629,1.064,1.52,2.764,1.76,3.02c2.084,2.206,4.223,2.02,4.797,1.449
	C17.919,58.266,13.112,55.152,14.081,53.97z"/>
<path fill="#F0A429" d="M13.464,56.685c0,0,1.209,1.523,2.166,1.823C14.511,58.434,13.464,56.685,13.464,56.685z"/>
<path fill="#F0A429" d="M12.151,56.732c0,0,1.506,1.84,2.463,2.141C13.495,58.799,12.151,56.732,12.151,56.732z"/>
<path fill="#F0A429" d="M11.423,56.977c0,0,1.047,1.461,2.006,1.762C12.31,58.664,11.423,56.977,11.423,56.977z"/>
</svg>
