<?xml version="1.0" encoding="utf-8"?>
<!-- Generator: Adobe Illustrator 15.0.0, SVG Export Plug-In . SVG Version: 6.00 Build 0)  -->
<!DOCTYPE svg PUBLIC "-//W3C//DTD SVG 1.1//EN" "http://www.w3.org/Graphics/SVG/1.1/DTD/svg11.dtd" [
	<!ENTITY ns_flows "http://ns.adobe.com/Flows/1.0/">
	<!ENTITY ns_extend "http://ns.adobe.com/Extensibility/1.0/">
	<!ENTITY ns_ai "http://ns.adobe.com/AdobeIllustrator/10.0/">
	<!ENTITY ns_graphs "http://ns.adobe.com/Graphs/1.0/">
]>
<svg version="1.1" id="Layer_1" xmlns:x="&ns_extend;" xmlns:i="&ns_ai;" xmlns:graph="&ns_graphs;"
	 xmlns="http://www.w3.org/2000/svg" xmlns:xlink="http://www.w3.org/1999/xlink" xmlns:a="http://ns.adobe.com/AdobeSVGViewerExtensions/3.0/"
	 x="0px" y="0px" width="64px" height="64px" viewBox="0 0 64 64" enable-background="new 0 0 64 64" xml:space="preserve">
<path fill="#3AB0A2" d="M45.255,31.723c-1.271-1.646-7.428-3.657-7.428-3.657H26.172c0,0-6.156,2.012-7.428,3.657
	c-2.08,2.691-2.809,8.431-2.809,8.431l4.93,4.93V59h22.268V45.084l4.93-4.93C48.063,40.154,47.335,34.414,45.255,31.723z"/>
<path fill="#2B998D" d="M26.168,28.085c0,4.888,11.659,4.869,11.659-0.019l-1.168-0.413h-9.27L26.168,28.085z"/>
<path fill="#F5BB51" d="M27.002,27.79c0,3.826,9.995,3.826,9.995,0c0-1.302,0-4.233,0-4.233h-9.995
	C27.002,23.556,27.002,26.488,27.002,27.79z"/>
<polygon fill="#302C3B" points="20.868,58 31.781,62 32.222,62 43.134,58 "/>
<path id="Path_1155_" fill="#FFC940" d="M42.155,13.999c-1.572,0.191-2.707,5.455-1.721,6.844c0.141,0.194,0.951,0.504,1.551-0.723
	c0.332-0.678,1.293-1.245,1.59-2.646C43.956,15.68,43.72,13.809,42.155,13.999z"/>
<path id="Path_1154_" fill="#FFC940" d="M21.846,13.999c1.572,0.191,2.707,5.455,1.717,6.844c-0.137,0.194-0.947,0.504-1.549-0.723
	c-0.332-0.678-1.293-1.245-1.59-2.646C20.043,15.68,20.282,13.809,21.846,13.999z"/>
<path id="Path_1104_" fill="#F0A429" d="M42.11,15.008c-0.408,0.129-0.855,0.754-1.1,1.792c1.434-0.308,1.076,2.08-0.17,2.125
	c0.012,0.24,0.027,0.488,0.057,0.748c0.602-0.872,1.211-0.521,1.814-1.819C43.257,16.684,43.128,14.688,42.11,15.008z"/>
<path id="Path_1103_" fill="#F0A429" d="M22.989,16.797c-0.242-1.036-0.689-1.661-1.1-1.789c-1.016-0.32-1.146,1.675-0.602,2.845
	c0.604,1.297,1.215,0.947,1.816,1.819c0.029-0.26,0.045-0.508,0.055-0.749C21.926,18.866,21.573,16.507,22.989,16.797z"/>
<path id="Path_1102_" fill="#FFC940" d="M31.999,3.878c-6.809,0-10.09,5.153-9.68,12.318c0.082,1.441,0.975,6.143,1.818,7.83
	c0.865,1.727,3.752,4.387,5.521,4.938c1.117,0.347,3.567,0.347,4.682,0c1.77-0.551,4.66-3.211,5.521-4.938
	c0.846-1.687,1.738-6.387,1.82-7.83C42.093,9.031,38.813,3.878,31.999,3.878z"/>
<path id="Path_1101_" fill="#966F42" d="M39.399,13.473c-1.557-0.825-4.537-0.865-5.648-0.29c-0.238,0.11-0.08,0.893,0.119,0.818
	c1.547-0.612,4.045-0.625,5.492,0.052C39.556,14.142,39.636,13.588,39.399,13.473z"/>
<path id="Path_1100_" fill="#966F42" d="M24.598,13.473c1.561-0.825,4.539-0.865,5.65-0.29c0.238,0.11,0.08,0.893-0.119,0.818
	c-1.551-0.612-4.043-0.625-5.494,0.052C24.444,14.142,24.364,13.588,24.598,13.473z"/>
<path id="Path_1094_" fill="#F0A429" d="M33.839,20.628c-0.193-0.136-0.65,0.073-1.84,0.073c-1.186,0-1.643-0.209-1.836-0.073
	c-0.234,0.164,0.137,0.905,1.836,0.905C33.702,21.534,34.071,20.792,33.839,20.628z"/>
<path id="Path_1093_" fill="#F0A429" d="M31.999,23.436c-1.529-0.45-3.801,0.213-3.801,0.213c0.863,0.942,1.498,2.164,3.801,2.164
	c2.641,0,3.09-1.387,3.803-2.164C35.802,23.649,33.53,22.982,31.999,23.436z"/>
<path id="Path_1092_" fill="#FFFFFF" d="M28.768,23.809c1.605,1.348,4.848,1.357,6.463,0C33.522,23.882,30.493,23.883,28.768,23.809
	z"/>
<path id="Path_1091_" fill="#FFFFFF" d="M30.485,16.284c0.057,0.451-0.248,0.986-1.096,1.386c-0.537,0.255-1.658,0.555-3.129-0.066
	c-0.66-0.278-1.301-1.144-1.244-1.623C25.813,14.478,29.739,14.258,30.485,16.284z"/>
<linearGradient id="Oval_1_" gradientUnits="userSpaceOnUse" x1="-439.7876" y1="479.5557" x2="-439.7876" y2="480.0254" gradientTransform="matrix(6.5701 0 0 -6.5701 2917.2688 3168.5281)">
	<stop  offset="0" style="stop-color:#A6694A"/>
	<stop  offset="1" style="stop-color:#4F2A1E"/>
	<a:midPointStop  offset="0" style="stop-color:#A6694A"/>
	<a:midPointStop  offset="0.5" style="stop-color:#A6694A"/>
	<a:midPointStop  offset="1" style="stop-color:#4F2A1E"/>
</linearGradient>
<circle id="Oval_142_" fill="url(#Oval_1_)" cx="27.821" cy="16.254" r="1.542"/>
<path id="Path_1090_" fill="#1A1626" d="M27.051,16.226c0,1.067,1.541,1.067,1.541,0C28.592,15.235,27.051,15.235,27.051,16.226z"/>
<path id="Path_1089_" fill="#AB968C" d="M26.817,15.793c0,0.447,0.646,0.447,0.646,0C27.463,15.379,26.817,15.379,26.817,15.793z"/>
<path id="Path_1088_" fill="#F0A429" d="M30.493,16.344c-0.629-2.013-4.896-1.715-5.477-0.362
	C25.231,14.249,29.959,13.792,30.493,16.344z"/>
<path id="Path_1087_" fill="#FFFFFF" d="M33.515,16.284c-0.057,0.451,0.248,0.986,1.096,1.386c0.539,0.255,1.658,0.555,3.131-0.066
	c0.658-0.278,1.301-1.144,1.242-1.623C38.188,14.478,34.263,14.258,33.515,16.284z"/>
<linearGradient id="Oval_2_" gradientUnits="userSpaceOnUse" x1="-441.2192" y1="479.5557" x2="-441.2192" y2="480.0254" gradientTransform="matrix(6.5701 0 0 -6.5701 2934.9993 3168.5281)">
	<stop  offset="0" style="stop-color:#A6694A"/>
	<stop  offset="1" style="stop-color:#4F2A1E"/>
	<a:midPointStop  offset="0" style="stop-color:#A6694A"/>
	<a:midPointStop  offset="0.5" style="stop-color:#A6694A"/>
	<a:midPointStop  offset="1" style="stop-color:#4F2A1E"/>
</linearGradient>
<circle id="Oval_141_" fill="url(#Oval_2_)" cx="36.144" cy="16.254" r="1.542"/>
<path id="Path_1086_" fill="#1A1626" d="M35.372,16.226c0,1.067,1.543,1.067,1.543,0C36.915,15.235,35.372,15.235,35.372,16.226z"/>
<path id="Path_1085_" fill="#AB968C" d="M35.138,15.793c0,0.447,0.648,0.447,0.648,0C35.786,15.379,35.138,15.379,35.138,15.793z"/>
<path id="Path_1084_" fill="#F0A429" d="M33.509,16.344c0.625-2.012,4.891-1.724,5.475-0.362
	C38.767,14.249,34.042,13.792,33.509,16.344z"/>
<path fill="#7A6056" d="M40.7,5.585C39.208,3.567,36.479,2,31.999,2c-4.479,0-7.207,1.567-8.697,3.585
	C21.192,8.441,42.81,8.441,40.7,5.585z"/>
<linearGradient id="SVGID_1_" gradientUnits="userSpaceOnUse" x1="-70.4917" y1="17.958" x2="-70.4917" y2="4.7305" gradientTransform="matrix(1 0 0 1 102.4922 0)">
	<stop  offset="0.5" style="stop-color:#473834"/>
	<stop  offset="0.6387" style="stop-color:#503F3A"/>
	<stop  offset="0.8641" style="stop-color:#68524A"/>
	<stop  offset="1" style="stop-color:#7A6056"/>
	<a:midPointStop  offset="0.5" style="stop-color:#473834"/>
	<a:midPointStop  offset="0.6" style="stop-color:#473834"/>
	<a:midPointStop  offset="1" style="stop-color:#7A6056"/>
</linearGradient>
<path fill="url(#SVGID_1_)" d="M40.7,5.585c-1.492-2.018-4.221,0.17-8.702,0.17c-4.479,0-7.207-2.188-8.697-0.17
	c-2.109,2.856-1.393,12.373-0.455,12.373c0.15,0,0.17-3.33,0.455-5.632c0.23-1.875,0.678-3.693,1.188-3.99
	c1.564-0.907,4.58,0.39,7.51,0.39c2.934,0,5.95-1.297,7.512-0.39c0.512,0.297,0.957,2.115,1.189,3.99
	c0.283,2.303,0.303,5.632,0.455,5.632C42.093,17.958,42.81,8.441,40.7,5.585z"/>
<path fill="#FF9ED2" d="M24.941,52.722l-7.793,0.012c0,0-4.088,1.331-4.936,2.415c-0.899,1.151-1.43,3.822-1.693,5.465
	C14.851,61.635,23.3,61.993,31.781,62c0-0.002-0.486-5.07-1.877-6.854C29.054,54.056,24.941,52.722,24.941,52.722z"/>
<path fill="#FF82C5" d="M17.148,52.733c0,3.242,7.793,3.229,7.793-0.012l-0.781-0.274h-6.195L17.148,52.733z"/>
<path fill="#F5BB51" d="M17.707,52.538c0,2.538,6.678,2.538,6.678,0c0-0.863,0-2.808,0-2.808h-6.678
	C17.707,49.73,17.707,51.675,17.707,52.538z"/>
<path fill="#FF82C5" d="M14.17,61.234l-0.284-0.045C13.886,58.883,14.17,58.654,14.17,61.234z"/>
<path fill="#FF82C5" d="M28.212,61.965h-0.301C27.912,58.284,28.212,58.284,28.212,61.965z"/>
<path fill="#FFAD9E" d="M46.854,52.722l-7.791,0.012c0,0-4.09,1.331-4.938,2.415c-1.392,1.782-1.902,6.846-1.903,6.852
	c8.52-0.012,16.989-0.347,21.265-1.383c-0.259-1.643-0.778-4.325-1.671-5.471C50.967,54.056,46.854,52.722,46.854,52.722z"/>
<path fill="#F7928A" d="M39.063,52.733c0,3.242,7.791,3.229,7.791-0.012l-0.781-0.274h-6.195L39.063,52.733z"/>
<path fill="#F5BB51" d="M39.619,52.538c0,2.538,6.68,2.538,6.68,0c0-0.863,0-2.808,0-2.808h-6.68
	C39.619,49.73,39.619,51.675,39.619,52.538z"/>
<path fill="#F7928A" d="M36.09,61.959l-0.299,0.006C35.791,58.284,36.09,58.278,36.09,61.959z"/>
<path fill="#F7928A" d="M50.118,61.181l-0.284,0.026C49.834,58.941,50.118,58.774,50.118,61.181z"/>
<path fill="#473834" d="M28.693,42.627c6.456,4.266,0.781,8.15,2.619,9.988C27.742,55.098,19.001,50.821,28.693,42.627z"/>
<path fill="#473834" d="M13.394,42.627c-6.455,4.266-0.779,8.15-2.617,9.988C14.347,55.098,23.087,50.821,13.394,42.627z"/>
<path fill="#473834" d="M50.605,42.627c6.455,4.266,0.781,8.15,2.619,9.988C49.654,55.098,40.914,50.821,50.605,42.627z"/>
<path fill="#473834" d="M35.307,42.627c-6.456,4.266-0.779,8.15-2.618,9.988C36.26,55.098,45,50.821,35.307,42.627z"/>
<path fill="#F5BB51" d="M15.992,53.226c0,0-1.078,2,0.141,1.781c0.609-1.401,1.316-1.011,1.592-2.47
	c0.268-1.812-0.873-2.921-0.873-2.921c-0.992,0.735-3.139,2.376-3.406,2.831c-0.424,0.721-2.011,2.825-1.324,3.502
	C12.759,57.288,13.226,53.929,15.992,53.226z"/>
<path fill="#F0A429" d="M13.398,53.318c0,0-1.078,1.647-1.277,2.631C12.079,54.828,13.398,53.318,13.398,53.318z"/>
<path fill="#F5BB51" d="M48.008,53.226c0,0,1.078,2-0.141,1.781c-0.609-1.401-1.316-1.011-1.592-2.47
	c-0.268-1.812,0.873-2.921,0.873-2.921c0.992,0.735,3.139,2.376,3.406,2.831c0.424,0.721,2.011,2.825,1.324,3.502
	C51.24,57.288,50.773,53.929,48.008,53.226z"/>
<path fill="#F0A429" d="M50.602,53.318c0,0,1.078,1.647,1.277,2.631C51.921,54.828,50.602,53.318,50.602,53.318z"/>
<linearGradient id="SVGID_2_" gradientUnits="userSpaceOnUse" x1="42.9561" y1="45.2949" x2="42.9561" y2="31.6548">
	<stop  offset="0" style="stop-color:#473834"/>
	<stop  offset="0.2717" style="stop-color:#594640"/>
	<stop  offset="0.7226" style="stop-color:#715950"/>
	<stop  offset="1" style="stop-color:#7A6056"/>
	<a:midPointStop  offset="0" style="stop-color:#473834"/>
	<a:midPointStop  offset="0.4" style="stop-color:#473834"/>
	<a:midPointStop  offset="1" style="stop-color:#7A6056"/>
</linearGradient>
<path fill="url(#SVGID_2_)" d="M42.957,31.654c-6.787,0.004-11.083,5.973-8.439,13.641h16.877
	C54.037,37.627,49.742,31.658,42.957,31.654z"/>
<path id="Path_1435_" fill="#FFC940" d="M34.398,42.107c1.066,0.131,1.834,3.73,1.166,4.68c-0.096,0.133-0.645,0.346-1.051-0.494
	c-0.227-0.463-0.877-0.852-1.078-1.809C33.178,43.258,33.34,41.979,34.398,42.107z"/>
<path id="Path_1434_" fill="#F0A429" d="M34.428,42.799c0.277,0.087,0.582,0.516,0.746,1.225c-0.973-0.211-0.729,1.422,0.115,1.453
	c-0.008,0.164-0.018,0.334-0.039,0.511c-0.406-0.596-0.82-0.356-1.229-1.243C33.652,43.944,33.74,42.58,34.428,42.799z"/>
<path id="Path_1433_" fill="#FFC940" d="M51.514,42.107c-1.064,0.131-1.834,3.73-1.164,4.68c0.094,0.133,0.643,0.346,1.051-0.494
	c0.225-0.463,0.875-0.852,1.076-1.809C52.736,43.258,52.574,41.979,51.514,42.107z"/>
<path id="Path_1432_" fill="#F0A429" d="M50.74,44.021c0.164-0.709,0.467-1.136,0.744-1.223c0.689-0.219,0.777,1.146,0.408,1.945
	c-0.41,0.887-0.822,0.647-1.23,1.243c-0.02-0.178-0.031-0.347-0.037-0.512C51.459,45.436,51.699,43.823,50.74,44.021z"/>
<path fill="#FFC940" d="M42.957,32.857c-5.822,0-8.627,4.404-8.275,10.529c0.07,1.232,0.834,4.047,1.557,5.488
	c1.273,2.545,4.6,4.443,6.719,4.443c2.117,0,5.447-1.898,6.719-4.443c0.723-1.441,1.486-4.256,1.557-5.488
	C51.584,37.262,48.779,32.857,42.957,32.857z"/>
<path id="Path_1431_" fill="#F0A429" d="M44.314,46.828c-0.145-0.101-0.482,0.055-1.357,0.055c-0.877,0-1.215-0.155-1.359-0.055
	c-0.17,0.121,0.104,0.668,1.359,0.668C44.211,47.496,44.486,46.949,44.314,46.828z"/>
<path id="Path_1430_" fill="#F0A429" d="M42.957,48.779c-1.313-0.386-3.258,0.184-3.258,0.184c0.74,0.808,1.283,1.854,3.258,1.854
	c2.262,0,2.646-1.188,3.258-1.854C46.215,48.963,44.268,48.393,42.957,48.779z"/>
<path id="Path_1429_" fill="#FFFFFF" d="M40.188,49.1c1.375,1.154,4.154,1.162,5.539,0C44.26,49.162,41.664,49.163,40.188,49.1z"/>
<path id="Path_1428_" fill="#FFFFFF" d="M41.701,43.832c0.047,0.373-0.205,0.816-0.908,1.147c-0.445,0.212-1.373,0.46-2.592-0.054
	c-0.545-0.23-1.078-0.948-1.029-1.345C37.832,42.336,41.082,42.153,41.701,43.832z"/>
<linearGradient id="Oval_3_" gradientUnits="userSpaceOnUse" x1="-422.4111" y1="475.4023" x2="-422.4111" y2="475.791" gradientTransform="matrix(6.5701 0 0 -6.5701 2814.7805 3168.5281)">
	<stop  offset="0" style="stop-color:#A6694A"/>
	<stop  offset="1" style="stop-color:#4F2A1E"/>
	<a:midPointStop  offset="0" style="stop-color:#A6694A"/>
	<a:midPointStop  offset="0.5" style="stop-color:#A6694A"/>
	<a:midPointStop  offset="1" style="stop-color:#4F2A1E"/>
</linearGradient>
<circle id="Oval_178_" fill="url(#Oval_3_)" cx="39.496" cy="43.807" r="1.277"/>
<path id="Path_1427_" fill="#1A1626" d="M38.857,43.783c0,0.884,1.277,0.884,1.277,0C40.135,42.963,38.857,42.963,38.857,43.783z"/>
<path id="Path_1426_" fill="#AB968C" d="M38.664,43.426c0,0.37,0.535,0.37,0.535,0C39.199,43.082,38.664,43.082,38.664,43.426z"/>
<path id="Path_1425_" fill="#F0A429" d="M41.707,43.881c-0.518-1.667-4.055-1.422-4.535-0.3
	C37.35,42.146,41.266,41.768,41.707,43.881z"/>
<path id="Path_1424_" fill="#FFFFFF" d="M44.213,43.832c-0.049,0.373,0.205,0.816,0.906,1.147c0.445,0.212,1.373,0.46,2.594-0.054
	c0.545-0.23,1.078-0.948,1.029-1.345C48.082,42.336,44.83,42.153,44.213,43.832z"/>
<linearGradient id="Oval_4_" gradientUnits="userSpaceOnUse" x1="-424.061" y1="475.4023" x2="-424.061" y2="475.791" gradientTransform="matrix(6.5701 0 0 -6.5701 2832.511 3168.5281)">
	<stop  offset="0" style="stop-color:#A6694A"/>
	<stop  offset="1" style="stop-color:#4F2A1E"/>
	<a:midPointStop  offset="0" style="stop-color:#A6694A"/>
	<a:midPointStop  offset="0.5" style="stop-color:#A6694A"/>
	<a:midPointStop  offset="1" style="stop-color:#4F2A1E"/>
</linearGradient>
<circle id="Oval_177_" fill="url(#Oval_4_)" cx="46.389" cy="43.807" r="1.277"/>
<path id="Path_1423_" fill="#1A1626" d="M45.752,43.783c0,0.884,1.277,0.884,1.277,0C47.029,42.963,45.752,42.963,45.752,43.783z"/>
<path id="Path_1422_" fill="#AB968C" d="M45.557,43.426c0,0.37,0.535,0.37,0.535,0C46.092,43.082,45.557,43.082,45.557,43.426z"/>
<path id="Path_1421_" fill="#F0A429" d="M44.207,43.881c0.518-1.666,4.051-1.428,4.535-0.3
	C48.563,42.146,44.648,41.768,44.207,43.881z"/>
<path id="Path_1420_" fill="#F0A429" d="M48.824,41.842c-1.098-0.693-3.311-0.895-4.178-0.54c-0.186,0.067-0.125,0.647,0.029,0.605
	c1.195-0.357,3.051-0.224,4.078,0.356C48.893,42.339,48.992,41.938,48.824,41.842z"/>
<path id="Path_1419_" fill="#F0A429" d="M37.088,41.842c1.1-0.693,3.311-0.895,4.178-0.54c0.186,0.067,0.125,0.647-0.029,0.605
	c-1.195-0.357-3.049-0.224-4.08,0.356C37.02,42.339,36.92,41.938,37.088,41.842z"/>
<linearGradient id="SVGID_3_" gradientUnits="userSpaceOnUse" x1="42.957" y1="44.833" x2="42.957" y2="31.856">
	<stop  offset="0" style="stop-color:#473834"/>
	<stop  offset="0.2717" style="stop-color:#594640"/>
	<stop  offset="0.7226" style="stop-color:#715950"/>
	<stop  offset="1" style="stop-color:#7A6056"/>
	<a:midPointStop  offset="0" style="stop-color:#473834"/>
	<a:midPointStop  offset="0.4" style="stop-color:#473834"/>
	<a:midPointStop  offset="1" style="stop-color:#7A6056"/>
</linearGradient>
<path fill="url(#SVGID_3_)" d="M42.955,31.855c-3.414-0.002-6.467,1.895-7.131,4.451c-1.719,1.684-1.979,5.508-0.896,8.526
	c0.141-2.896,1.746-4.354,1.646-7.541c9.592,0,13.893,3.128,14.406,7.541C53.158,38.754,49.729,31.855,42.955,31.855z"/>
<path fill="#473834" d="M50.98,44.833c-1.795-7.715-15.166-7.5-15.166-7.5C35.887,37.326,50.148,35.027,50.98,44.833z"/>
<path fill="#473834" d="M34.928,44.833c-0.123-3.425,1.689-4.967,1.494-8.503C37.172,39.69,35.557,41.357,34.928,44.833z"/>
<path fill="#CFD8DD" d="M51.131,42.216c0.766-11.573-17.117-11.573-16.352,0C35.447,32.496,50.463,32.496,51.131,42.216z"/>
<path fill="#FFFFFF" d="M51.131,41.842c0.766-11.574-17.117-11.574-16.352,0C35.447,32.121,50.463,32.121,51.131,41.842z"/>
<linearGradient id="SVGID_4_" gradientUnits="userSpaceOnUse" x1="21.0435" y1="45.2949" x2="21.0435" y2="31.6548">
	<stop  offset="0" style="stop-color:#473834"/>
	<stop  offset="0.2717" style="stop-color:#594640"/>
	<stop  offset="0.7226" style="stop-color:#715950"/>
	<stop  offset="1" style="stop-color:#7A6056"/>
	<a:midPointStop  offset="0" style="stop-color:#473834"/>
	<a:midPointStop  offset="0.4" style="stop-color:#473834"/>
	<a:midPointStop  offset="1" style="stop-color:#7A6056"/>
</linearGradient>
<path fill="url(#SVGID_4_)" d="M21.044,31.654c-6.787,0.004-11.082,5.973-8.439,13.641h16.877
	C32.125,37.627,27.83,31.658,21.044,31.654z"/>
<path id="Path_1418_" fill="#FFC940" d="M12.486,42.107c1.066,0.131,1.834,3.73,1.166,4.68c-0.096,0.133-0.645,0.346-1.051-0.494
	c-0.227-0.463-0.877-0.852-1.078-1.809C11.265,43.258,11.427,41.979,12.486,42.107z"/>
<path id="Path_1417_" fill="#F0A429" d="M12.515,42.799c0.277,0.087,0.582,0.516,0.746,1.225c-0.973-0.211-0.729,1.422,0.115,1.453
	c-0.008,0.164-0.018,0.334-0.039,0.511c-0.406-0.596-0.82-0.356-1.229-1.243C11.74,43.944,11.828,42.58,12.515,42.799z"/>
<path id="Path_1416_" fill="#FFC940" d="M29.601,42.107c-1.064,0.131-1.834,3.73-1.164,4.68c0.094,0.133,0.643,0.346,1.051-0.494
	c0.225-0.463,0.875-0.852,1.076-1.809C30.824,43.258,30.662,41.979,29.601,42.107z"/>
<path id="Path_1415_" fill="#F0A429" d="M28.828,44.021c0.164-0.709,0.467-1.136,0.744-1.223c0.689-0.219,0.777,1.146,0.408,1.945
	c-0.41,0.887-0.822,0.647-1.23,1.243c-0.02-0.178-0.031-0.347-0.037-0.512C29.546,45.436,29.787,43.823,28.828,44.021z"/>
<path fill="#FFC940" d="M21.044,32.857c-5.822,0-8.627,4.404-8.275,10.529c0.07,1.232,0.834,4.047,1.557,5.488
	c1.273,2.545,4.6,4.443,6.719,4.443c2.117,0,5.447-1.898,6.719-4.443c0.723-1.441,1.486-4.256,1.557-5.488
	C29.671,37.262,26.867,32.857,21.044,32.857z"/>
<path id="Path_1414_" fill="#F0A429" d="M22.402,46.828c-0.145-0.101-0.482,0.055-1.357,0.055c-0.877,0-1.215-0.155-1.359-0.055
	c-0.17,0.121,0.104,0.668,1.359,0.668C22.298,47.496,22.574,46.949,22.402,46.828z"/>
<path id="Path_1413_" fill="#F0A429" d="M21.044,48.779c-1.313-0.386-3.258,0.184-3.258,0.184c0.74,0.808,1.283,1.854,3.258,1.854
	c2.262,0,2.646-1.188,3.258-1.854C24.302,48.963,22.355,48.393,21.044,48.779z"/>
<path id="Path_1412_" fill="#FFFFFF" d="M18.275,49.1c1.375,1.154,4.154,1.162,5.539,0C22.347,49.162,19.751,49.163,18.275,49.1z"/>
<path id="Path_1411_" fill="#FFFFFF" d="M19.789,43.832c0.047,0.373-0.205,0.816-0.908,1.147c-0.445,0.212-1.373,0.46-2.592-0.054
	c-0.545-0.23-1.078-0.948-1.029-1.345C15.919,42.336,19.169,42.153,19.789,43.832z"/>
<linearGradient id="Oval_5_" gradientUnits="userSpaceOnUse" x1="-425.7466" y1="475.4023" x2="-425.7466" y2="475.791" gradientTransform="matrix(6.5701 0 0 -6.5701 2814.7805 3168.5281)">
	<stop  offset="0" style="stop-color:#A6694A"/>
	<stop  offset="1" style="stop-color:#4F2A1E"/>
	<a:midPointStop  offset="0" style="stop-color:#A6694A"/>
	<a:midPointStop  offset="0.5" style="stop-color:#A6694A"/>
	<a:midPointStop  offset="1" style="stop-color:#4F2A1E"/>
</linearGradient>
<circle id="Oval_176_" fill="url(#Oval_5_)" cx="17.583" cy="43.807" r="1.277"/>
<path id="Path_1410_" fill="#1A1626" d="M16.945,43.783c0,0.884,1.277,0.884,1.277,0C18.222,42.963,16.945,42.963,16.945,43.783z"/>
<path id="Path_1409_" fill="#AB968C" d="M16.751,43.426c0,0.37,0.535,0.37,0.535,0C17.287,43.082,16.751,43.082,16.751,43.426z"/>
<path id="Path_1408_" fill="#F0A429" d="M19.794,43.881c-0.518-1.667-4.055-1.422-4.535-0.3
	C15.437,42.146,19.353,41.768,19.794,43.881z"/>
<path id="Path_1407_" fill="#FFFFFF" d="M22.3,43.832c-0.049,0.373,0.205,0.816,0.906,1.147c0.445,0.212,1.373,0.46,2.594-0.054
	c0.545-0.23,1.078-0.948,1.029-1.345C26.169,42.336,22.917,42.153,22.3,43.832z"/>
<linearGradient id="Oval_6_" gradientUnits="userSpaceOnUse" x1="-427.396" y1="475.4023" x2="-427.396" y2="475.791" gradientTransform="matrix(6.5701 0 0 -6.5701 2832.511 3168.5281)">
	<stop  offset="0" style="stop-color:#A6694A"/>
	<stop  offset="1" style="stop-color:#4F2A1E"/>
	<a:midPointStop  offset="0" style="stop-color:#A6694A"/>
	<a:midPointStop  offset="0.5" style="stop-color:#A6694A"/>
	<a:midPointStop  offset="1" style="stop-color:#4F2A1E"/>
</linearGradient>
<circle id="Oval_175_" fill="url(#Oval_6_)" cx="24.476" cy="43.807" r="1.277"/>
<path id="Path_1406_" fill="#1A1626" d="M23.839,43.783c0,0.884,1.277,0.884,1.277,0C25.117,42.963,23.839,42.963,23.839,43.783z"/>
<path id="Path_1405_" fill="#AB968C" d="M23.644,43.426c0,0.37,0.535,0.37,0.535,0C24.179,43.082,23.644,43.082,23.644,43.426z"/>
<path id="Path_1404_" fill="#F0A429" d="M22.294,43.881c0.518-1.666,4.051-1.428,4.535-0.3
	C26.65,42.146,22.736,41.768,22.294,43.881z"/>
<path id="Path_1403_" fill="#F0A429" d="M26.912,41.842c-1.098-0.693-3.311-0.895-4.178-0.54c-0.186,0.067-0.125,0.647,0.029,0.605
	c1.195-0.357,3.051-0.224,4.078,0.356C26.98,42.339,27.08,41.938,26.912,41.842z"/>
<path id="Path_1402_" fill="#F0A429" d="M15.175,41.842c1.1-0.693,3.311-0.895,4.178-0.54c0.186,0.067,0.125,0.647-0.029,0.605
	c-1.195-0.357-3.049-0.224-4.08,0.356C15.107,42.339,15.007,41.938,15.175,41.842z"/>
<linearGradient id="SVGID_5_" gradientUnits="userSpaceOnUse" x1="21.0439" y1="44.833" x2="21.0439" y2="31.856">
	<stop  offset="0" style="stop-color:#473834"/>
	<stop  offset="0.2717" style="stop-color:#594640"/>
	<stop  offset="0.7226" style="stop-color:#715950"/>
	<stop  offset="1" style="stop-color:#7A6056"/>
	<a:midPointStop  offset="0" style="stop-color:#473834"/>
	<a:midPointStop  offset="0.4" style="stop-color:#473834"/>
	<a:midPointStop  offset="1" style="stop-color:#7A6056"/>
</linearGradient>
<path fill="url(#SVGID_5_)" d="M21.042,31.855c-3.414-0.002-6.467,1.895-7.131,4.451c-1.719,1.684-1.979,5.508-0.896,8.526
	c0.141-2.896,1.746-4.354,1.646-7.541c9.592,0,13.893,3.128,14.406,7.541C31.246,38.754,27.816,31.855,21.042,31.855z"/>
<path fill="#473834" d="M29.068,44.833c-1.795-7.715-15.166-7.5-15.166-7.5C13.974,37.326,28.236,35.027,29.068,44.833z"/>
<path fill="#473834" d="M13.015,44.833c-0.123-3.425,1.689-4.967,1.494-8.503C15.259,39.69,13.644,41.357,13.015,44.833z"/>
<path fill="#CFD8DD" d="M29.218,42.216c0.766-11.573-17.117-11.573-16.352,0C13.535,32.496,28.55,32.496,29.218,42.216z"/>
<path fill="#FFFFFF" d="M29.218,41.842c0.766-11.574-17.117-11.574-16.352,0C13.535,32.121,28.55,32.121,29.218,41.842z"/>
</svg>
