<?xml version="1.0" encoding="utf-8"?>
<!-- Generator: Adobe Illustrator 15.0.0, SVG Export Plug-In . SVG Version: 6.00 Build 0)  -->
<!DOCTYPE svg PUBLIC "-//W3C//DTD SVG 1.1//EN" "http://www.w3.org/Graphics/SVG/1.1/DTD/svg11.dtd" [
	<!ENTITY ns_flows "http://ns.adobe.com/Flows/1.0/">
	<!ENTITY ns_extend "http://ns.adobe.com/Extensibility/1.0/">
	<!ENTITY ns_ai "http://ns.adobe.com/AdobeIllustrator/10.0/">
	<!ENTITY ns_graphs "http://ns.adobe.com/Graphs/1.0/">
]>
<svg version="1.1" id="Layer_1" xmlns:x="&ns_extend;" xmlns:i="&ns_ai;" xmlns:graph="&ns_graphs;"
	 xmlns="http://www.w3.org/2000/svg" xmlns:xlink="http://www.w3.org/1999/xlink" xmlns:a="http://ns.adobe.com/AdobeSVGViewerExtensions/3.0/"
	 x="0px" y="0px" width="64px" height="64px" viewBox="0 0 64 64" enable-background="new 0 0 64 64" xml:space="preserve">
<path id="Path_43_" fill="#FFC940" d="M29.464,43.102c-1.85,0.226-3.183,6.413-2.021,8.045c0.163,0.229,1.116,0.594,1.821-0.849
	c0.392-0.798,1.52-1.464,1.868-3.11C31.58,45.079,31.301,42.881,29.464,43.102z"/>
<path id="Path_42_" fill="#FFC940" d="M5.592,43.102c1.848,0.226,3.183,6.413,2.019,8.045c-0.162,0.229-1.114,0.594-1.82-0.849
	c-0.391-0.798-1.521-1.464-1.869-3.11C3.473,45.079,3.753,42.879,5.592,43.102z"/>
<path id="Path_41_" fill="#F0A429" d="M29.412,44.289c-0.48,0.151-1.007,0.886-1.292,2.107c1.686-0.363,1.264,2.444-0.201,2.497
	c0.014,0.281,0.032,0.573,0.066,0.878c0.706-1.024,1.423-0.613,2.134-2.139C30.759,46.26,30.606,43.914,29.412,44.289z"/>
<path id="Path_40_" fill="#F0A429" d="M6.935,46.392c-0.285-1.217-0.811-1.952-1.293-2.103c-1.193-0.375-1.347,1.971-0.706,3.344
	c0.709,1.525,1.426,1.114,2.133,2.139c0.035-0.306,0.055-0.597,0.066-0.88C5.686,48.822,5.27,46.05,6.935,46.392z"/>
<path id="Path_39_" fill="#FFC940" d="M17.527,31.206c-8.007,0-11.864,6.057-11.382,14.479c0.099,1.693,1.148,7.221,2.14,9.204
	c1.016,2.029,4.409,5.156,6.49,5.804c1.314,0.408,4.19,0.408,5.504,0c2.079-0.647,5.475-3.774,6.488-5.804
	c0.994-1.983,2.044-7.509,2.14-9.204C29.391,37.263,25.534,31.206,17.527,31.206z"/>
<path id="Path_38_" fill="#966F42" d="M26.225,42.485c-1.831-0.971-5.335-1.017-6.64-0.342c-0.279,0.132-0.096,1.05,0.14,0.963
	c1.819-0.72,4.754-0.737,6.457,0.06C26.408,43.271,26.503,42.619,26.225,42.485z"/>
<path id="Path_37_" fill="#966F42" d="M8.828,42.485c1.831-0.971,5.333-1.017,6.641-0.342c0.279,0.132,0.095,1.05-0.141,0.963
	c-1.822-0.72-4.752-0.737-6.456,0.06C8.645,43.271,8.551,42.619,8.828,42.485z"/>
<path id="Path_36_" fill="#F0A429" d="M19.688,50.896c-0.229-0.161-0.766,0.085-2.16,0.085c-1.396,0-1.932-0.246-2.161-0.085
	c-0.273,0.191,0.163,1.063,2.161,1.063C19.526,51.959,19.963,51.088,19.688,50.896z"/>
<path id="Path_35_" fill="#F0A429" d="M17.527,54.195c-1.802-0.529-4.469,0.25-4.469,0.25c1.016,1.109,1.76,2.545,4.469,2.545
	c3.102,0,3.63-1.632,4.47-2.545C21.997,54.445,19.326,53.662,17.527,54.195z"/>
<path id="Path_34_" fill="#FFFFFF" d="M13.729,54.633c1.888,1.585,5.698,1.596,7.598,0C19.314,54.72,15.754,54.721,13.729,54.633z"
	/>
<path id="Path_33_" fill="#FFFFFF" d="M15.746,45.789c0.067,0.531-0.293,1.158-1.289,1.63c-0.632,0.299-1.947,0.651-3.677-0.078
	c-0.775-0.326-1.53-1.345-1.463-1.907C10.255,43.666,14.869,43.407,15.746,45.789z"/>
<linearGradient id="Oval_1_" gradientUnits="userSpaceOnUse" x1="-426.5029" y1="475.0244" x2="-426.5029" y2="475.5762" gradientTransform="matrix(6.5701 0 0 -6.5701 2814.7805 3168.5281)">
	<stop  offset="0" style="stop-color:#A6694A"/>
	<stop  offset="1" style="stop-color:#4F2A1E"/>
	<a:midPointStop  offset="0" style="stop-color:#A6694A"/>
	<a:midPointStop  offset="0.5" style="stop-color:#A6694A"/>
	<a:midPointStop  offset="1" style="stop-color:#4F2A1E"/>
</linearGradient>
<circle id="Oval_6_" fill="url(#Oval_1_)" cx="12.614" cy="45.753" r="1.813"/>
<path id="Path_32_" fill="#1A1626" d="M11.71,45.72c0,1.255,1.813,1.255,1.813,0C13.522,44.557,11.71,44.557,11.71,45.72z"/>
<path id="Path_31_" fill="#AB968C" d="M11.435,45.213c0,0.524,0.759,0.524,0.759,0C12.193,44.725,11.435,44.725,11.435,45.213z"/>
<path id="Path_30_" fill="#F0A429" d="M15.754,45.859c-0.736-2.365-5.753-2.017-6.437-0.426
	C9.571,43.398,15.127,42.859,15.754,45.859z"/>
<path id="Path_29_" fill="#FFFFFF" d="M19.309,45.789c-0.069,0.531,0.291,1.158,1.287,1.63c0.633,0.299,1.948,0.651,3.679-0.078
	c0.774-0.326,1.529-1.345,1.461-1.907C24.799,43.666,20.186,43.407,19.309,45.789z"/>
<linearGradient id="Oval_2_" gradientUnits="userSpaceOnUse" x1="-427.7124" y1="475.0244" x2="-427.7124" y2="475.5762" gradientTransform="matrix(6.5701 0 0 -6.5701 2832.511 3168.5281)">
	<stop  offset="0" style="stop-color:#A6694A"/>
	<stop  offset="1" style="stop-color:#4F2A1E"/>
	<a:midPointStop  offset="0" style="stop-color:#A6694A"/>
	<a:midPointStop  offset="0.5" style="stop-color:#A6694A"/>
	<a:midPointStop  offset="1" style="stop-color:#4F2A1E"/>
</linearGradient>
<circle id="Oval_5_" fill="url(#Oval_2_)" cx="22.397" cy="45.753" r="1.813"/>
<path id="Path_28_" fill="#1A1626" d="M21.493,45.72c0,1.255,1.813,1.255,1.813,0C23.306,44.557,21.493,44.557,21.493,45.72z"/>
<path id="Path_27_" fill="#AB968C" d="M21.217,45.213c0,0.524,0.759,0.524,0.759,0C21.976,44.725,21.217,44.725,21.217,45.213z"/>
<path id="Path_26_" fill="#F0A429" d="M19.3,45.859c0.735-2.365,5.749-2.025,6.436-0.426C25.481,43.398,19.926,42.859,19.3,45.859z"
	/>
<path fill="#7A6056" d="M27.752,33.213C26,30.842,22.793,29,17.527,29s-8.472,1.842-10.226,4.213
	C4.822,36.57,30.232,36.57,27.752,33.213z"/>
<linearGradient id="SVGID_1_" gradientUnits="userSpaceOnUse" x1="17.5273" y1="47.7559" x2="17.5273" y2="32.209">
	<stop  offset="0.5" style="stop-color:#473834"/>
	<stop  offset="0.6387" style="stop-color:#503F3A"/>
	<stop  offset="0.8641" style="stop-color:#68524A"/>
	<stop  offset="1" style="stop-color:#7A6056"/>
	<a:midPointStop  offset="0.5" style="stop-color:#473834"/>
	<a:midPointStop  offset="0.6" style="stop-color:#473834"/>
	<a:midPointStop  offset="1" style="stop-color:#7A6056"/>
</linearGradient>
<path fill="url(#SVGID_1_)" d="M27.752,33.213c-1.752-2.371-4.959,0.201-10.225,0.201s-8.472-2.572-10.226-0.201
	C4.822,36.57,5.665,47.756,6.768,47.756c0.176,0,0.201-3.912,0.534-6.619c0.272-2.203,0.796-4.341,1.397-4.689
	c1.838-1.066,5.382,0.457,8.828,0.457c3.444,0,6.989-1.523,8.828-0.457c0.601,0.349,1.124,2.486,1.396,4.689
	c0.335,2.707,0.358,6.619,0.534,6.619C29.39,47.756,30.232,36.57,27.752,33.213z"/>
<path id="Path_44_" fill="#FFC940" d="M58.409,43.102c-1.848,0.226-3.182,6.413-2.02,8.045c0.162,0.229,1.114,0.594,1.82-0.849
	c0.391-0.798,1.521-1.464,1.869-3.11C60.527,45.079,60.248,42.881,58.409,43.102z"/>
<path id="Path_17_" fill="#FFC940" d="M34.537,43.102c1.85,0.226,3.183,6.413,2.021,8.045c-0.163,0.229-1.116,0.594-1.821-0.849
	c-0.392-0.798-1.52-1.464-1.868-3.11C32.42,45.079,32.7,42.879,34.537,43.102z"/>
<path id="Path_16_" fill="#F0A429" d="M58.359,44.289c-0.482,0.151-1.009,0.886-1.294,2.107c1.686-0.363,1.265,2.444-0.2,2.497
	c0.013,0.281,0.032,0.573,0.067,0.878c0.706-1.024,1.423-0.613,2.132-2.139C59.705,46.26,59.553,43.914,58.359,44.289z"/>
<path id="Path_15_" fill="#F0A429" d="M35.88,46.392c-0.285-1.217-0.811-1.952-1.291-2.103c-1.194-0.375-1.348,1.971-0.708,3.344
	c0.711,1.525,1.428,1.114,2.135,2.139c0.034-0.306,0.053-0.597,0.065-0.88C34.631,48.822,34.217,46.05,35.88,46.392z"/>
<path id="Path_14_" fill="#FFC940" d="M46.473,31.206c-8.005,0-11.862,6.057-11.38,14.479c0.097,1.693,1.147,7.221,2.14,9.204
	c1.016,2.029,4.409,5.156,6.488,5.804c1.314,0.408,4.19,0.408,5.504,0c2.081-0.647,5.477-3.774,6.49-5.804
	c0.993-1.983,2.042-7.509,2.14-9.204C58.338,37.263,54.481,31.206,46.473,31.206z"/>
<path id="Path_13_" fill="#966F42" d="M55.172,42.485c-1.831-0.971-5.335-1.017-6.641-0.342c-0.28,0.132-0.095,1.05,0.141,0.963
	c1.818-0.72,4.753-0.737,6.455,0.06C55.355,43.271,55.45,42.619,55.172,42.485z"/>
<path id="Path_12_" fill="#966F42" d="M37.775,42.485c1.831-0.971,5.333-1.017,6.64-0.342c0.278,0.132,0.096,1.05-0.14,0.963
	c-1.822-0.72-4.753-0.737-6.458,0.06C37.592,43.271,37.498,42.619,37.775,42.485z"/>
<path id="Path_11_" fill="#F0A429" d="M48.634,50.896c-0.229-0.161-0.765,0.085-2.161,0.085c-1.394,0-1.93-0.246-2.16-0.085
	c-0.274,0.191,0.162,1.063,2.16,1.063C48.472,51.959,48.908,51.088,48.634,50.896z"/>
<path id="Path_10_" fill="#F0A429" d="M46.473,54.195c-1.8-0.529-4.469,0.25-4.469,0.25c1.017,1.109,1.762,2.545,4.469,2.545
	c3.104,0,3.632-1.632,4.47-2.545C50.942,54.445,48.272,53.662,46.473,54.195z"/>
<path id="Path_9_" fill="#FFFFFF" d="M42.675,54.633c1.888,1.585,5.699,1.596,7.598,0C48.262,54.72,44.701,54.721,42.675,54.633z"/>
<path id="Path_8_" fill="#FFFFFF" d="M44.691,45.789c0.069,0.531-0.291,1.158-1.287,1.63c-0.633,0.299-1.948,0.651-3.679-0.078
	c-0.773-0.326-1.529-1.345-1.461-1.907C39.202,43.666,43.814,43.407,44.691,45.789z"/>
<linearGradient id="Oval_3_" gradientUnits="userSpaceOnUse" x1="-422.0967" y1="475.0244" x2="-422.0967" y2="475.5762" gradientTransform="matrix(6.5701 0 0 -6.5701 2814.7805 3168.5281)">
	<stop  offset="0" style="stop-color:#A6694A"/>
	<stop  offset="1" style="stop-color:#4F2A1E"/>
	<a:midPointStop  offset="0" style="stop-color:#A6694A"/>
	<a:midPointStop  offset="0.5" style="stop-color:#A6694A"/>
	<a:midPointStop  offset="1" style="stop-color:#4F2A1E"/>
</linearGradient>
<circle id="Oval_20_" fill="url(#Oval_3_)" cx="41.562" cy="45.753" r="1.813"/>
<path id="Path_7_" fill="#1A1626" d="M40.656,45.72c0,1.255,1.813,1.255,1.813,0C42.469,44.557,40.656,44.557,40.656,45.72z"/>
<path id="Path_6_" fill="#AB968C" d="M40.38,45.213c0,0.524,0.761,0.524,0.761,0C41.141,44.725,40.38,44.725,40.38,45.213z"/>
<path id="Path_5_" fill="#F0A429" d="M44.701,45.859c-0.736-2.365-5.753-2.017-6.437-0.426
	C38.518,43.398,44.074,42.859,44.701,45.859z"/>
<path id="Path_4_" fill="#FFFFFF" d="M48.254,45.789c-0.067,0.531,0.293,1.158,1.289,1.63c0.632,0.299,1.947,0.651,3.677-0.078
	c0.776-0.326,1.53-1.345,1.463-1.907C53.746,43.666,49.131,43.407,48.254,45.789z"/>
<linearGradient id="Oval_4_" gradientUnits="userSpaceOnUse" x1="-423.3066" y1="475.0244" x2="-423.3066" y2="475.5762" gradientTransform="matrix(6.5701 0 0 -6.5701 2832.511 3168.5281)">
	<stop  offset="0" style="stop-color:#A6694A"/>
	<stop  offset="1" style="stop-color:#4F2A1E"/>
	<a:midPointStop  offset="0" style="stop-color:#A6694A"/>
	<a:midPointStop  offset="0.5" style="stop-color:#A6694A"/>
	<a:midPointStop  offset="1" style="stop-color:#4F2A1E"/>
</linearGradient>
<circle id="Oval_19_" fill="url(#Oval_4_)" cx="51.344" cy="45.753" r="1.813"/>
<path id="Path_3_" fill="#1A1626" d="M50.438,45.72c0,1.255,1.813,1.255,1.813,0C52.251,44.557,50.438,44.557,50.438,45.72z"/>
<path id="Path_2_" fill="#AB968C" d="M50.162,45.213c0,0.524,0.761,0.524,0.761,0C50.923,44.725,50.162,44.725,50.162,45.213z"/>
<path id="Path_1_" fill="#F0A429" d="M48.247,45.859c0.735-2.365,5.749-2.025,6.436-0.426
	C54.428,43.398,48.873,42.859,48.247,45.859z"/>
<path fill="#7A6056" d="M56.699,33.213C54.946,30.842,51.739,29,46.473,29c-5.265,0-8.472,1.842-10.224,4.213
	C33.769,36.57,59.179,36.57,56.699,33.213z"/>
<linearGradient id="SVGID_2_" gradientUnits="userSpaceOnUse" x1="46.4746" y1="47.7559" x2="46.4746" y2="32.209">
	<stop  offset="0.5" style="stop-color:#473834"/>
	<stop  offset="0.6387" style="stop-color:#503F3A"/>
	<stop  offset="0.8641" style="stop-color:#68524A"/>
	<stop  offset="1" style="stop-color:#7A6056"/>
	<a:midPointStop  offset="0.5" style="stop-color:#473834"/>
	<a:midPointStop  offset="0.6" style="stop-color:#473834"/>
	<a:midPointStop  offset="1" style="stop-color:#7A6056"/>
</linearGradient>
<path fill="url(#SVGID_2_)" d="M56.699,33.213c-1.753-2.371-4.96,0.201-10.227,0.201c-5.265,0-8.472-2.572-10.224-0.201
	c-2.48,3.357-1.638,14.543-0.534,14.543c0.176,0,0.2-3.912,0.534-6.619c0.271-2.203,0.796-4.341,1.396-4.689
	c1.839-1.066,5.383,0.457,8.827,0.457c3.446,0,6.991-1.523,8.829-0.457c0.602,0.349,1.124,2.486,1.397,4.689
	c0.333,2.707,0.358,6.619,0.534,6.619C58.337,47.756,59.179,36.57,56.699,33.213z"/>
<linearGradient id="SVGID_3_" gradientUnits="userSpaceOnUse" x1="-96.8574" y1="-214.9829" x2="-102.1217" y2="-186.8978" gradientTransform="matrix(1 0 0 1 130.9756 214.9409)">
	<stop  offset="0" style="stop-color:#FF666B"/>
	<stop  offset="0.1751" style="stop-color:#FB5B5F"/>
	<stop  offset="0.4917" style="stop-color:#F03D3F"/>
	<stop  offset="0.9112" style="stop-color:#DF0C0C"/>
	<stop  offset="1" style="stop-color:#DB0100"/>
	<a:midPointStop  offset="0" style="stop-color:#FF666B"/>
	<a:midPointStop  offset="0.5758" style="stop-color:#FF666B"/>
	<a:midPointStop  offset="1" style="stop-color:#DB0100"/>
</linearGradient>
<path fill="url(#SVGID_3_)" d="M31.999,6.864c-4.196-6.818-15.804-4.157-15.807,4.41c0,5.148,4.319,8.785,12.746,15.594
	c2.858,2.309,3.265,2.31,6.125,0c8.421-6.811,12.742-10.443,12.744-15.597C47.808,2.708,36.195,0.046,31.999,6.864z"/>
</svg>
