<?xml version="1.0" encoding="utf-8"?>
<!-- Generator: Adobe Illustrator 15.0.0, SVG Export Plug-In . SVG Version: 6.00 Build 0)  -->
<!DOCTYPE svg PUBLIC "-//W3C//DTD SVG 1.1//EN" "http://www.w3.org/Graphics/SVG/1.1/DTD/svg11.dtd" [
	<!ENTITY ns_flows "http://ns.adobe.com/Flows/1.0/">
	<!ENTITY ns_extend "http://ns.adobe.com/Extensibility/1.0/">
	<!ENTITY ns_ai "http://ns.adobe.com/AdobeIllustrator/10.0/">
	<!ENTITY ns_graphs "http://ns.adobe.com/Graphs/1.0/">
]>
<svg version="1.1" id="Layer_1" xmlns:x="&ns_extend;" xmlns:i="&ns_ai;" xmlns:graph="&ns_graphs;"
	 xmlns="http://www.w3.org/2000/svg" xmlns:xlink="http://www.w3.org/1999/xlink" xmlns:a="http://ns.adobe.com/AdobeSVGViewerExtensions/3.0/"
	 x="0px" y="0px" width="64px" height="64px" viewBox="0 0 64 64" enable-background="new 0 0 64 64" xml:space="preserve">
<path id="Path_86_" fill="#FFC940" d="M60.544,42c-1.848,0.223-3.184,6.41-2.021,8.044c0.163,0.228,1.115,0.593,1.821-0.851
	c0.392-0.797,1.521-1.462,1.869-3.107C62.66,43.975,62.381,41.777,60.544,42z"/>
<path id="Path_85_" fill="#FFC940" d="M36.671,42c1.85,0.223,3.184,6.41,2.021,8.044c-0.162,0.228-1.116,0.593-1.82-0.851
	c-0.392-0.797-1.521-1.462-1.869-3.107C34.554,43.975,34.833,41.777,36.671,42z"/>
<path id="Path_84_" fill="#F0A429" d="M60.494,43.187c-0.483,0.151-1.009,0.886-1.294,2.107c1.686-0.362,1.265,2.443-0.2,2.495
	c0.013,0.283,0.031,0.574,0.066,0.88c0.706-1.025,1.423-0.614,2.132-2.138C61.84,45.156,61.688,42.812,60.494,43.187z"/>
<path id="Path_83_" fill="#F0A429" d="M38.015,45.289c-0.285-1.219-0.811-1.953-1.292-2.103c-1.193-0.376-1.348,1.97-0.708,3.345
	c0.71,1.523,1.427,1.112,2.136,2.138c0.033-0.307,0.052-0.599,0.064-0.88C36.765,47.721,36.35,44.947,38.015,45.289z"/>
<path id="Path_82_" fill="#FFC940" d="M48.606,30.102c-8.004,0-11.862,6.058-11.379,14.48c0.096,1.695,1.147,7.221,2.139,9.203
	c1.015,2.029,4.409,5.156,6.488,5.805c1.314,0.408,4.191,0.408,5.504,0c2.081-0.648,5.477-3.775,6.489-5.805
	c0.994-1.982,2.044-7.508,2.14-9.203C60.471,36.16,56.614,30.102,48.606,30.102z"/>
<path id="Path_81_" fill="#966F42" d="M57.307,41.381c-1.832-0.969-5.336-1.016-6.642-0.342c-0.279,0.132-0.094,1.051,0.142,0.963
	c1.818-0.719,4.752-0.735,6.454,0.063C57.489,42.168,57.583,41.517,57.307,41.381z"/>
<path id="Path_80_" fill="#966F42" d="M39.908,41.381c1.831-0.969,5.333-1.016,6.64-0.342c0.279,0.132,0.096,1.051-0.14,0.963
	c-1.82-0.719-4.752-0.735-6.456,0.063C39.725,42.168,39.631,41.517,39.908,41.381z"/>
<path id="Path_79_" fill="#F0A429" d="M50.767,49.793c-0.227-0.16-0.765,0.086-2.16,0.086c-1.394,0-1.93-0.246-2.16-0.086
	c-0.273,0.192,0.162,1.063,2.16,1.063C50.606,50.856,51.042,49.985,50.767,49.793z"/>
<path id="Path_78_" fill="#F0A429" d="M48.606,53.092c-1.8-0.529-4.469,0.252-4.469,0.252c1.017,1.107,1.763,2.543,4.469,2.543
	c3.104,0,3.631-1.631,4.471-2.543C53.077,53.344,50.406,52.561,48.606,53.092z"/>
<path id="Path_77_" fill="#FFFFFF" d="M44.809,53.531c1.888,1.584,5.7,1.594,7.598,0C50.396,53.617,46.835,53.617,44.809,53.531z"/>
<path id="Path_76_" fill="#FFFFFF" d="M46.825,44.687c0.068,0.53-0.292,1.157-1.288,1.628c-0.631,0.301-1.947,0.652-3.677-0.077
	c-0.775-0.327-1.531-1.345-1.463-1.907C41.335,42.563,45.948,42.305,46.825,44.687z"/>
<linearGradient id="Oval_1_" gradientUnits="userSpaceOnUse" x1="-421.772" y1="475.1924" x2="-421.772" y2="475.7441" gradientTransform="matrix(6.5701 0 0 -6.5701 2814.7805 3168.5281)">
	<stop  offset="0" style="stop-color:#A6694A"/>
	<stop  offset="1" style="stop-color:#4F2A1E"/>
	<a:midPointStop  offset="0" style="stop-color:#A6694A"/>
	<a:midPointStop  offset="0.5" style="stop-color:#A6694A"/>
	<a:midPointStop  offset="1" style="stop-color:#4F2A1E"/>
</linearGradient>
<circle id="Oval_12_" fill="url(#Oval_1_)" cx="43.696" cy="44.65" r="1.813"/>
<path id="Path_75_" fill="#1A1626" d="M42.79,44.617c0,1.254,1.813,1.254,1.813,0C44.603,43.453,42.79,43.453,42.79,44.617z"/>
<path id="Path_74_" fill="#AB968C" d="M42.515,44.11c0,0.524,0.761,0.524,0.761,0C43.275,43.623,42.515,43.623,42.515,44.11z"/>
<path id="Path_73_" fill="#F0A429" d="M46.835,44.756c-0.737-2.365-5.754-2.016-6.438-0.426
	C40.652,42.294,46.208,41.756,46.835,44.756z"/>
<path id="Path_72_" fill="#FFFFFF" d="M50.388,44.687c-0.066,0.53,0.294,1.157,1.289,1.628c0.632,0.301,1.948,0.652,3.678-0.077
	c0.774-0.327,1.529-1.345,1.462-1.907C55.879,42.563,51.265,42.305,50.388,44.687z"/>
<linearGradient id="Oval_2_" gradientUnits="userSpaceOnUse" x1="-422.9819" y1="475.1924" x2="-422.9819" y2="475.7441" gradientTransform="matrix(6.5701 0 0 -6.5701 2832.511 3168.5281)">
	<stop  offset="0" style="stop-color:#A6694A"/>
	<stop  offset="1" style="stop-color:#4F2A1E"/>
	<a:midPointStop  offset="0" style="stop-color:#A6694A"/>
	<a:midPointStop  offset="0.5" style="stop-color:#A6694A"/>
	<a:midPointStop  offset="1" style="stop-color:#4F2A1E"/>
</linearGradient>
<circle id="Oval_11_" fill="url(#Oval_2_)" cx="53.478" cy="44.65" r="1.813"/>
<path id="Path_71_" fill="#1A1626" d="M52.573,44.617c0,1.254,1.813,1.254,1.813,0C54.386,43.453,52.573,43.453,52.573,44.617z"/>
<path id="Path_70_" fill="#AB968C" d="M52.296,44.11c0,0.524,0.761,0.524,0.761,0C53.057,43.623,52.296,43.623,52.296,44.11z"/>
<path id="Path_69_" fill="#F0A429" d="M50.381,44.756c0.735-2.364,5.748-2.024,6.436-0.426
	C56.563,42.294,51.006,41.756,50.381,44.756z"/>
<path fill="#7A6056" d="M58.833,32.11c-1.754-2.373-4.96-4.214-10.227-4.214c-5.265,0-8.471,1.841-10.223,4.214
	C35.902,35.468,61.313,35.468,58.833,32.11z"/>
<linearGradient id="SVGID_1_" gradientUnits="userSpaceOnUse" x1="48.6074" y1="46.6543" x2="48.6074" y2="31.1055">
	<stop  offset="0.5" style="stop-color:#473834"/>
	<stop  offset="0.6387" style="stop-color:#503F3A"/>
	<stop  offset="0.8641" style="stop-color:#68524A"/>
	<stop  offset="1" style="stop-color:#7A6056"/>
	<a:midPointStop  offset="0.5" style="stop-color:#473834"/>
	<a:midPointStop  offset="0.6" style="stop-color:#473834"/>
	<a:midPointStop  offset="1" style="stop-color:#7A6056"/>
</linearGradient>
<path fill="url(#SVGID_1_)" d="M58.833,32.11c-1.754-2.373-4.96,0.2-10.227,0.2c-5.265,0-8.471-2.573-10.223-0.2
	c-2.481,3.357-1.638,14.544-0.536,14.544c0.178,0,0.2-3.914,0.536-6.621c0.271-2.204,0.795-4.34,1.396-4.689
	c1.84-1.066,5.383,0.459,8.827,0.459c3.445,0,6.991-1.525,8.829-0.459c0.602,0.35,1.125,2.485,1.397,4.689
	c0.334,2.707,0.358,6.621,0.533,6.621C60.471,46.654,61.313,35.468,58.833,32.11z"/>
<path fill="#473834" d="M23.669,60.447C34.704,56.033,33.6,45.551,33.6,45.551H2.704c0,0-1.104,10.482,9.93,14.896
	c0,0,2.208,0.553,5.519,0.553S23.669,60.447,23.669,60.447z"/>
<path fill="#FFC940" d="M18.152,29.552c-8.007,0-11.862,6.52-11.382,14.904c0.101,1.685,0.569,4.114,1.146,6.198
	c1.202,4.33,7.537,8.689,10.235,8.689c2.697,0,9.033-4.359,10.235-8.689c0.579-2.084,1.048-4.514,1.146-6.198
	C30.015,36.072,26.16,29.552,18.152,29.552z"/>
<path fill="#D47706" d="M18.152,52.537c-1.877-0.824-1.892-0.033-4.79,0.162c1.088,1.234,1.89,2.822,4.788,2.822
	c3.327,0,3.89-1.803,4.791-2.822C20.042,52.504,20.029,51.713,18.152,52.537z"/>
<path fill="#FFFFFF" d="M14.233,53.006c1.892,1.969,5.969,1.943,7.838,0.002C19.158,53.32,17.146,53.32,14.233,53.006z"/>
<path fill="#966F42" d="M26.66,41.666c-1.739-1.037-4.86-1.164-6.094-0.457c-0.263,0.143-0.191,0.891,0.033,0.797
	c1.761-0.732,4.444-0.769,6.099,0.08C26.919,42.197,26.923,41.816,26.66,41.666z"/>
<path fill="#966F42" d="M9.644,41.666c1.74-1.037,4.858-1.164,6.096-0.457c0.263,0.143,0.192,0.891-0.035,0.797
	c-1.763-0.732-4.441-0.77-6.098,0.08C9.386,42.197,9.381,41.816,9.644,41.666z"/>
<path fill="#F0A429" d="M19.952,49.877c-0.191-0.133-0.638,0.073-1.8,0.073c-1.163,0-1.61-0.206-1.8-0.073
	c-0.229,0.16,0.133,0.887,1.8,0.887C19.816,50.764,20.182,50.039,19.952,49.877z"/>
<path id="Path_68_" fill="#FFFFFF" d="M16.371,44.813c0.068,0.529-0.292,1.156-1.288,1.627c-0.633,0.301-1.947,0.652-3.677-0.077
	c-0.775-0.327-1.531-1.344-1.463-1.906C10.881,42.689,15.494,42.43,16.371,44.813z"/>
<linearGradient id="Oval_3_" gradientUnits="userSpaceOnUse" x1="-426.4077" y1="475.1738" x2="-426.4077" y2="475.7246" gradientTransform="matrix(6.5701 0 0 -6.5701 2814.7805 3168.5281)">
	<stop  offset="0" style="stop-color:#A6694A"/>
	<stop  offset="1" style="stop-color:#4F2A1E"/>
	<a:midPointStop  offset="0" style="stop-color:#A6694A"/>
	<a:midPointStop  offset="0.5" style="stop-color:#A6694A"/>
	<a:midPointStop  offset="1" style="stop-color:#4F2A1E"/>
</linearGradient>
<circle id="Oval_10_" fill="url(#Oval_3_)" cx="13.239" cy="44.776" r="1.812"/>
<path id="Path_67_" fill="#1A1626" d="M12.335,44.742c0,1.254,1.813,1.254,1.813,0C14.147,43.579,12.335,43.579,12.335,44.742z"/>
<path id="Path_66_" fill="#AB968C" d="M12.061,44.235c0,0.526,0.758,0.526,0.758,0C12.818,43.748,12.061,43.748,12.061,44.235z"/>
<path id="Path_65_" fill="#45332C" d="M16.379,44.881c-0.735-2.364-5.752-2.016-6.436-0.425
	C10.196,42.42,15.752,41.881,16.379,44.881z"/>
<path id="Path_64_" fill="#FFFFFF" d="M19.934,44.813c-0.069,0.529,0.291,1.156,1.287,1.627c0.634,0.301,1.948,0.652,3.68-0.077
	c0.774-0.327,1.528-1.344,1.46-1.906C25.425,42.689,20.811,42.43,19.934,44.813z"/>
<linearGradient id="Oval_4_" gradientUnits="userSpaceOnUse" x1="-427.6172" y1="475.1738" x2="-427.6172" y2="475.7246" gradientTransform="matrix(6.5701 0 0 -6.5701 2832.511 3168.5281)">
	<stop  offset="0" style="stop-color:#A6694A"/>
	<stop  offset="1" style="stop-color:#4F2A1E"/>
	<a:midPointStop  offset="0" style="stop-color:#A6694A"/>
	<a:midPointStop  offset="0.5" style="stop-color:#A6694A"/>
	<a:midPointStop  offset="1" style="stop-color:#4F2A1E"/>
</linearGradient>
<circle id="Oval_9_" fill="url(#Oval_4_)" cx="23.022" cy="44.776" r="1.812"/>
<path id="Path_63_" fill="#1A1626" d="M22.119,44.742c0,1.254,1.813,1.254,1.813,0C23.932,43.579,22.119,43.579,22.119,44.742z"/>
<path id="Path_62_" fill="#AB968C" d="M21.842,44.235c0,0.526,0.761,0.526,0.761,0C22.603,43.748,21.842,43.748,21.842,44.235z"/>
<path id="Path_61_" fill="#45332C" d="M19.925,44.881c0.735-2.363,5.75-2.024,6.436-0.425C26.106,42.42,20.552,41.881,19.925,44.881
	z"/>
<linearGradient id="SVGID_2_" gradientUnits="userSpaceOnUse" x1="18.1519" y1="60.4473" x2="18.1519" y2="27.8965">
	<stop  offset="0.05" style="stop-color:#473834"/>
	<stop  offset="0.2266" style="stop-color:#594640"/>
	<stop  offset="0.5197" style="stop-color:#715950"/>
	<stop  offset="0.7" style="stop-color:#7A6056"/>
	<a:midPointStop  offset="0.05" style="stop-color:#473834"/>
	<a:midPointStop  offset="0.4" style="stop-color:#473834"/>
	<a:midPointStop  offset="0.7" style="stop-color:#7A6056"/>
</linearGradient>
<path fill="url(#SVGID_2_)" d="M27.162,30.723c0.915-1.305-6.829-4.063-14.142-2.2C5.719,30.196,1.6,41.139,1.6,48.295
	c0,4.797,3.863,11.049,11.034,12.152c-7.9-5.531-6.625-11.018-4.413-17.653c5.485-3.177,11.691-3.923,16-7.726
	c-0.552,1.656,2.369,3.744,3.862,7.726c2.267,6.046,3.434,12.16-4.414,17.653c6.621-1.104,11.035-7.355,11.035-12.152
	C34.704,42.242,30.092,29.877,27.162,30.723z"/>
<path fill="#473834" d="M2.917,47.206c5.052-6.728,21.416-6.271,24.245-16.483C21.669,39.294,4.296,40.74,2.917,47.206z"/>
<linearGradient id="SVGID_3_" gradientUnits="userSpaceOnUse" x1="-94.7231" y1="-214.9829" x2="-99.9875" y2="-186.8978" gradientTransform="matrix(1 0 0 1 130.9756 214.9409)">
	<stop  offset="0" style="stop-color:#FF666B"/>
	<stop  offset="0.1751" style="stop-color:#FB5B5F"/>
	<stop  offset="0.4917" style="stop-color:#F03D3F"/>
	<stop  offset="0.9112" style="stop-color:#DF0C0C"/>
	<stop  offset="1" style="stop-color:#DB0100"/>
	<a:midPointStop  offset="0" style="stop-color:#FF666B"/>
	<a:midPointStop  offset="0.5758" style="stop-color:#FF666B"/>
	<a:midPointStop  offset="1" style="stop-color:#DB0100"/>
</linearGradient>
<path fill="url(#SVGID_3_)" d="M34.132,6.864c-4.195-6.819-15.803-4.157-15.807,4.41c0,5.148,4.32,8.785,12.746,15.594
	c2.859,2.309,3.266,2.31,6.125,0c8.422-6.811,12.742-10.444,12.744-15.597C49.94,2.708,38.329,0.045,34.132,6.864z"/>
</svg>
