<?xml version="1.0" encoding="utf-8"?>
<!-- Generator: Adobe Illustrator 15.0.0, SVG Export Plug-In . SVG Version: 6.00 Build 0)  -->
<!DOCTYPE svg PUBLIC "-//W3C//DTD SVG 1.1//EN" "http://www.w3.org/Graphics/SVG/1.1/DTD/svg11.dtd" [
	<!ENTITY ns_flows "http://ns.adobe.com/Flows/1.0/">
	<!ENTITY ns_extend "http://ns.adobe.com/Extensibility/1.0/">
	<!ENTITY ns_ai "http://ns.adobe.com/AdobeIllustrator/10.0/">
	<!ENTITY ns_graphs "http://ns.adobe.com/Graphs/1.0/">
]>
<svg version="1.1" id="Layer_1" xmlns:x="&ns_extend;" xmlns:i="&ns_ai;" xmlns:graph="&ns_graphs;"
	 xmlns="http://www.w3.org/2000/svg" xmlns:xlink="http://www.w3.org/1999/xlink" xmlns:a="http://ns.adobe.com/AdobeSVGViewerExtensions/3.0/"
	 x="0px" y="0px" width="64px" height="64px" viewBox="0 0 64 64" enable-background="new 0 0 64 64" xml:space="preserve">
<path fill="#EDB54E" d="M33.045,31.726c1.269-1.635,2.631-2.087,2.631-2.087L35.13,40.084c0,0-4.029,2.893-7.596,4.174l0.662-7.174
	C28.196,37.084,30.961,34.416,33.045,31.726z"/>
<path fill="#473834" d="M49.977,29.691c9.389-3.755,8.449-12.673,8.449-12.673H32.143c0,0-0.939,8.918,8.447,12.673
	c0,0,1.879,0.47,4.693,0.47C48.102,30.161,49.977,29.691,49.977,29.691z"/>
<linearGradient id="SVGID_1_" gradientUnits="userSpaceOnUse" x1="168.418" y1="30.1592" x2="168.418" y2="2.0702" gradientTransform="matrix(1 0 0 1 -113.9844 0)">
	<stop  offset="0.05" style="stop-color:#473834"/>
	<stop  offset="0.2266" style="stop-color:#594640"/>
	<stop  offset="0.5197" style="stop-color:#715950"/>
	<stop  offset="0.7" style="stop-color:#7A6056"/>
	<a:midPointStop  offset="0.05" style="stop-color:#473834"/>
	<a:midPointStop  offset="0.4" style="stop-color:#473834"/>
	<a:midPointStop  offset="0.7" style="stop-color:#7A6056"/>
</linearGradient>
<path fill="url(#SVGID_1_)" d="M54.775,17.971c0.959,4.043,0.453,8.046-4.799,11.721c5.635-0.938,8.913-6.258,8.913-10.339
	L54.775,17.971z"/>
<linearGradient id="SVGID_2_" gradientUnits="userSpaceOnUse" x1="1630.6953" y1="30.1592" x2="1630.6953" y2="2.0702" gradientTransform="matrix(-1 0 0 1 1666.8301 0)">
	<stop  offset="0.05" style="stop-color:#473834"/>
	<stop  offset="0.2266" style="stop-color:#594640"/>
	<stop  offset="0.5197" style="stop-color:#715950"/>
	<stop  offset="0.7" style="stop-color:#7A6056"/>
	<a:midPointStop  offset="0.05" style="stop-color:#473834"/>
	<a:midPointStop  offset="0.4" style="stop-color:#473834"/>
	<a:midPointStop  offset="0.7" style="stop-color:#7A6056"/>
</linearGradient>
<path fill="url(#SVGID_2_)" d="M35.795,17.971c-0.961,4.043-0.453,8.046,4.797,11.721c-5.633-0.938-8.913-6.258-8.913-10.339
	L35.795,17.971z"/>
<path fill="#473834" d="M23.408,29.691c9.389-3.755,8.449-12.673,8.449-12.673H5.574c0,0-0.939,8.918,8.447,12.673
	c0,0,1.879,0.47,4.693,0.47C21.533,30.161,23.408,29.691,23.408,29.691z"/>
<linearGradient id="SVGID_3_" gradientUnits="userSpaceOnUse" x1="27.8647" y1="30.1592" x2="27.8647" y2="2.0702">
	<stop  offset="0.05" style="stop-color:#473834"/>
	<stop  offset="0.2266" style="stop-color:#594640"/>
	<stop  offset="0.5197" style="stop-color:#715950"/>
	<stop  offset="0.7" style="stop-color:#7A6056"/>
	<a:midPointStop  offset="0.05" style="stop-color:#473834"/>
	<a:midPointStop  offset="0.4" style="stop-color:#473834"/>
	<a:midPointStop  offset="0.7" style="stop-color:#7A6056"/>
</linearGradient>
<path fill="url(#SVGID_3_)" d="M28.207,17.971c0.959,4.043,0.453,8.046-4.799,11.721c5.635-0.938,8.913-6.258,8.913-10.339
	L28.207,17.971z"/>
<linearGradient id="SVGID_4_" gradientUnits="userSpaceOnUse" x1="1771.248" y1="30.1592" x2="1771.248" y2="2.0702" gradientTransform="matrix(-1 0 0 1 1780.8145 0)">
	<stop  offset="0.05" style="stop-color:#473834"/>
	<stop  offset="0.2266" style="stop-color:#594640"/>
	<stop  offset="0.5197" style="stop-color:#715950"/>
	<stop  offset="0.7" style="stop-color:#7A6056"/>
	<a:midPointStop  offset="0.05" style="stop-color:#473834"/>
	<a:midPointStop  offset="0.4" style="stop-color:#473834"/>
	<a:midPointStop  offset="0.7" style="stop-color:#7A6056"/>
</linearGradient>
<path fill="url(#SVGID_4_)" d="M9.227,17.971c-0.961,4.043-0.453,8.046,4.797,11.721C8.391,28.753,5.11,23.434,5.11,19.353
	L9.227,17.971z"/>
<path fill="#D63E93" d="M54.911,29.634l-3.593-1.316l-12.071,0.011l-3.571,1.311c0,0-0.891,7.854-0.545,10.445
	c0.56,4.193,1.226,3.635,1.274,6.873c0.037,2.408-2.263,14.928-2.263,14.928l19.343-1.402c1.774-0.412,2.922-0.945,2.922-1.635
	c0-3.016-2.301-9.461-2.265-11.848c0.049-3.23,0.715-2.711,1.276-6.916C55.765,37.492,54.911,29.634,54.911,29.634z"/>
<path fill="#8E3ED6" d="M9.089,29.634l3.593-1.316l12.071,0.011l3.571,1.311c0,0,0.891,7.854,0.545,10.445
	c-0.56,4.193-1.226,3.635-1.274,6.873c-0.037,2.408,2.263,14.928,2.263,14.928l-19.343-1.402c-1.774-0.412-2.922-0.945-2.922-1.635
	c0-3.016,2.301-9.461,2.265-11.848c-0.049-3.23-0.715-2.711-1.276-6.916C8.235,37.492,9.089,29.634,9.089,29.634z"/>
<path fill="#F5BB51" d="M49.732,27.76c0-1.315,0-4.203,0-4.203h-8.917c0,0,0,2.909,0,4.218l-1.568,0.554
	c0,3.939,5.153,6.305,6.026,6.305c0.878,0,6.045-2.368,6.045-6.315L49.732,27.76z"/>
<path fill="#FFC940" d="M45.285,3.408c-6.813,0-10.092,5.547-9.684,12.68c0.086,1.433,0.484,3.501,0.977,5.272
	c1.021,3.684,6.41,7.393,8.707,7.393c2.295,0,7.684-3.709,8.707-7.393c0.492-1.771,0.891-3.84,0.975-5.272
	C55.375,8.955,52.098,3.408,45.285,3.408z"/>
<path fill="#D47706" d="M45.285,22.963c1.596-0.702,1.607-0.028,4.072,0.137c-0.924,1.051-1.605,2.4-4.072,2.4
	c-2.83,0-3.309-1.533-4.076-2.4C43.676,22.935,43.688,22.261,45.285,22.963z"/>
<path fill="#FFFFFF" d="M48.617,23.361c-1.607,1.674-5.078,1.652-6.666,0.001C44.428,23.628,46.141,23.628,48.617,23.361z"/>
<path fill="#966F42" d="M38.047,13.714c1.479-0.882,4.133-0.99,5.184-0.389c0.223,0.121,0.162,0.759-0.029,0.679
	c-1.498-0.623-3.781-0.654-5.188,0.066C37.826,14.166,37.822,13.843,38.047,13.714z"/>
<path fill="#966F42" d="M52.521,13.714c-1.479-0.882-4.133-0.99-5.186-0.389c-0.223,0.121-0.162,0.759,0.031,0.679
	c1.498-0.623,3.777-0.655,5.186,0.066C52.742,14.166,52.746,13.843,52.521,13.714z"/>
<path fill="#F0A429" d="M43.752,20.699c0.164-0.113,0.543,0.062,1.533,0.062c0.988,0,1.367-0.175,1.531-0.062
	c0.193,0.137-0.115,0.754-1.531,0.754S43.557,20.837,43.752,20.699z"/>
<path id="Path_488_" fill="#FFFFFF" d="M43.77,16.39c0.057,0.45-0.248,0.985-1.096,1.386c-0.539,0.255-1.658,0.555-3.129-0.066
	c-0.658-0.277-1.301-1.143-1.244-1.621C39.1,14.584,43.023,14.364,43.77,16.39z"/>
<linearGradient id="Oval_1_" gradientUnits="userSpaceOnUse" x1="-404.8169" y1="479.54" x2="-404.8169" y2="480.0088" gradientTransform="matrix(6.5701 0 0 -6.5701 2700.7961 3168.5281)">
	<stop  offset="0" style="stop-color:#A6694A"/>
	<stop  offset="1" style="stop-color:#4F2A1E"/>
	<a:midPointStop  offset="0" style="stop-color:#A6694A"/>
	<a:midPointStop  offset="0.5" style="stop-color:#A6694A"/>
	<a:midPointStop  offset="1" style="stop-color:#4F2A1E"/>
</linearGradient>
<circle id="Oval_122_" fill="url(#Oval_1_)" cx="41.105" cy="16.359" r="1.542"/>
<path id="Path_487_" fill="#1A1626" d="M40.336,16.331c0,1.066,1.543,1.066,1.543,0C41.879,15.341,40.336,15.341,40.336,16.331z"/>
<path id="Path_486_" fill="#AB968C" d="M40.102,15.899c0,0.447,0.646,0.447,0.646,0C40.748,15.485,40.102,15.485,40.102,15.899z"/>
<path id="Path_485_" fill="#45332C" d="M43.777,16.449c-0.627-2.012-4.895-1.715-5.477-0.361
	C38.516,14.354,43.242,13.897,43.777,16.449z"/>
<path id="Path_462_" fill="#FFFFFF" d="M46.801,16.39c-0.059,0.45,0.248,0.985,1.094,1.386c0.539,0.255,1.658,0.555,3.129-0.066
	c0.66-0.277,1.303-1.143,1.244-1.621C51.471,14.584,47.547,14.364,46.801,16.39z"/>
<linearGradient id="Oval_2_" gradientUnits="userSpaceOnUse" x1="-406.249" y1="479.54" x2="-406.249" y2="480.0088" gradientTransform="matrix(6.5701 0 0 -6.5701 2718.5266 3168.5281)">
	<stop  offset="0" style="stop-color:#A6694A"/>
	<stop  offset="1" style="stop-color:#4F2A1E"/>
	<a:midPointStop  offset="0" style="stop-color:#A6694A"/>
	<a:midPointStop  offset="0.5" style="stop-color:#A6694A"/>
	<a:midPointStop  offset="1" style="stop-color:#4F2A1E"/>
</linearGradient>
<circle id="Oval_121_" fill="url(#Oval_2_)" cx="49.428" cy="16.359" r="1.542"/>
<path id="Path_461_" fill="#1A1626" d="M48.658,16.331c0,1.066,1.541,1.066,1.541,0C50.199,15.341,48.658,15.341,48.658,16.331z"/>
<path id="Path_460_" fill="#AB968C" d="M48.424,15.899c0,0.447,0.646,0.447,0.646,0C49.07,15.485,48.424,15.485,48.424,15.899z"/>
<path id="Path_459_" fill="#45332C" d="M46.793,16.449c0.625-2.011,4.891-1.723,5.475-0.361
	C52.053,14.354,47.326,13.897,46.793,16.449z"/>
<linearGradient id="SVGID_5_" gradientUnits="userSpaceOnUse" x1="159.2686" y1="30.1592" x2="159.2686" y2="2.0699" gradientTransform="matrix(1 0 0 1 -113.9844 0)">
	<stop  offset="0.05" style="stop-color:#473834"/>
	<stop  offset="0.2266" style="stop-color:#594640"/>
	<stop  offset="0.5197" style="stop-color:#715950"/>
	<stop  offset="0.7" style="stop-color:#7A6056"/>
	<a:midPointStop  offset="0.05" style="stop-color:#473834"/>
	<a:midPointStop  offset="0.4" style="stop-color:#473834"/>
	<a:midPointStop  offset="0.7" style="stop-color:#7A6056"/>
</linearGradient>
<path fill="url(#SVGID_5_)" d="M52.951,4.404c0.777-1.11-5.811-3.455-12.031-1.871c-6.213,1.423-9.241,10.731-9.241,16.819
	c0.537,0.441,3.485-0.658,4.116-1.382c0.258-1.065,0.662-2.162,1.041-3.298c4.666-2.701,9.947-3.338,13.611-6.571
	c-0.469,1.408,2.016,3.185,3.285,6.571c0.412,1.099,0.781,2.199,1.043,3.298c1.035,0.953,2.677,1.403,4.114,1.382
	C58.89,14.204,55.441,3.686,52.951,4.404z"/>
<path fill="#473834" d="M32.322,18.427c4.299-5.723,18.221-5.335,20.629-14.022C48.277,11.695,33.498,12.926,32.322,18.427z"/>
<path fill="#F5BB51" d="M30.955,31.726c-1.269-1.635-2.631-2.087-2.631-2.087l0.546,10.445c0,0,3.635,2.893,7.201,4.174l-0.995-7.08
	C35.076,37.178,33.039,34.416,30.955,31.726z"/>
<path fill="#F5BB51" d="M23.185,27.774c0-1.309,0-4.218,0-4.218h-8.917c0,0,0,2.888,0,4.203l-1.586,0.558
	c0,3.948,5.167,6.315,6.045,6.315c0.873,0,6.026-2.366,6.026-6.305L23.185,27.774z"/>
<path fill="#FFC940" d="M18.717,3.408c-6.813,0-10.092,5.547-9.684,12.68c0.086,1.433,0.484,3.501,0.977,5.272
	c1.021,3.684,6.41,7.393,8.707,7.393c2.295,0,7.684-3.709,8.707-7.393c0.492-1.771,0.891-3.84,0.975-5.272
	C28.807,8.955,25.529,3.408,18.717,3.408z"/>
<path fill="#D47706" d="M18.715,22.963c-1.596-0.702-1.607-0.028-4.072,0.137c0.924,1.051,1.605,2.4,4.072,2.4
	c2.83,0,3.309-1.533,4.076-2.4C20.324,22.935,20.313,22.261,18.715,22.963z"/>
<path fill="#FFFFFF" d="M15.383,23.361c1.607,1.674,5.078,1.652,6.666,0.001C19.572,23.628,17.859,23.628,15.383,23.361z"/>
<path fill="#966F42" d="M25.953,13.714c-1.479-0.882-4.133-0.99-5.184-0.389c-0.223,0.121-0.162,0.759,0.029,0.679
	c1.498-0.623,3.781-0.654,5.188,0.066C26.174,14.166,26.178,13.843,25.953,13.714z"/>
<path fill="#966F42" d="M11.479,13.714c1.479-0.882,4.133-0.99,5.186-0.389c0.223,0.121,0.162,0.759-0.031,0.679
	c-1.498-0.623-3.777-0.655-5.186,0.066C11.258,14.166,11.254,13.843,11.479,13.714z"/>
<path fill="#F0A429" d="M20.248,20.699c-0.164-0.113-0.543,0.062-1.533,0.062c-0.988,0-1.367-0.175-1.531-0.062
	c-0.193,0.137,0.115,0.754,1.531,0.754S20.443,20.837,20.248,20.699z"/>
<path id="Path_458_" fill="#FFFFFF" d="M17.201,16.39c0.057,0.45-0.248,0.985-1.096,1.386c-0.539,0.255-1.658,0.555-3.129-0.066
	c-0.658-0.277-1.301-1.143-1.244-1.621C12.531,14.584,16.455,14.364,17.201,16.39z"/>
<linearGradient id="Oval_3_" gradientUnits="userSpaceOnUse" x1="-426.21" y1="479.54" x2="-426.21" y2="480.0088" gradientTransform="matrix(6.5701 0 0 -6.5701 2814.7805 3168.5281)">
	<stop  offset="0" style="stop-color:#A6694A"/>
	<stop  offset="1" style="stop-color:#4F2A1E"/>
	<a:midPointStop  offset="0" style="stop-color:#A6694A"/>
	<a:midPointStop  offset="0.5" style="stop-color:#A6694A"/>
	<a:midPointStop  offset="1" style="stop-color:#4F2A1E"/>
</linearGradient>
<circle id="Oval_108_" fill="url(#Oval_3_)" cx="14.537" cy="16.359" r="1.542"/>
<path id="Path_457_" fill="#1A1626" d="M13.768,16.331c0,1.066,1.543,1.066,1.543,0C15.311,15.341,13.768,15.341,13.768,16.331z"/>
<path id="Path_456_" fill="#AB968C" d="M13.533,15.899c0,0.447,0.646,0.447,0.646,0C14.18,15.485,13.533,15.485,13.533,15.899z"/>
<path id="Path_455_" fill="#45332C" d="M17.209,16.449c-0.627-2.012-4.895-1.715-5.477-0.361
	C11.947,14.354,16.674,13.897,17.209,16.449z"/>
<path id="Path_454_" fill="#FFFFFF" d="M20.232,16.39c-0.059,0.45,0.248,0.985,1.094,1.386c0.539,0.255,1.658,0.555,3.129-0.066
	c0.66-0.277,1.303-1.143,1.244-1.621C24.902,14.584,20.979,14.364,20.232,16.39z"/>
<linearGradient id="Oval_4_" gradientUnits="userSpaceOnUse" x1="-427.6421" y1="479.54" x2="-427.6421" y2="480.0088" gradientTransform="matrix(6.5701 0 0 -6.5701 2832.511 3168.5281)">
	<stop  offset="0" style="stop-color:#A6694A"/>
	<stop  offset="1" style="stop-color:#4F2A1E"/>
	<a:midPointStop  offset="0" style="stop-color:#A6694A"/>
	<a:midPointStop  offset="0.5" style="stop-color:#A6694A"/>
	<a:midPointStop  offset="1" style="stop-color:#4F2A1E"/>
</linearGradient>
<circle id="Oval_107_" fill="url(#Oval_4_)" cx="22.859" cy="16.359" r="1.542"/>
<path id="Path_453_" fill="#1A1626" d="M22.09,16.331c0,1.066,1.541,1.066,1.541,0C23.631,15.341,22.09,15.341,22.09,16.331z"/>
<path id="Path_452_" fill="#AB968C" d="M21.855,15.899c0,0.447,0.646,0.447,0.646,0C22.502,15.485,21.855,15.485,21.855,15.899z"/>
<path id="Path_451_" fill="#45332C" d="M20.225,16.449c0.625-2.011,4.891-1.723,5.475-0.361
	C25.484,14.354,20.758,13.897,20.225,16.449z"/>
<linearGradient id="SVGID_6_" gradientUnits="userSpaceOnUse" x1="18.7158" y1="30.1592" x2="18.7158" y2="2.0699">
	<stop  offset="0.05" style="stop-color:#473834"/>
	<stop  offset="0.2266" style="stop-color:#594640"/>
	<stop  offset="0.5197" style="stop-color:#715950"/>
	<stop  offset="0.7" style="stop-color:#7A6056"/>
	<a:midPointStop  offset="0.05" style="stop-color:#473834"/>
	<a:midPointStop  offset="0.4" style="stop-color:#473834"/>
	<a:midPointStop  offset="0.7" style="stop-color:#7A6056"/>
</linearGradient>
<path fill="url(#SVGID_6_)" d="M26.383,4.404c0.777-1.11-5.811-3.455-12.031-1.871C8.139,3.956,5.11,13.265,5.11,19.353
	c0.537,0.441,3.485-0.658,4.116-1.382c0.258-1.065,0.662-2.162,1.041-3.298c4.666-2.701,9.947-3.338,13.611-6.571
	c-0.469,1.408,2.016,3.185,3.285,6.571c0.412,1.099,0.781,2.199,1.043,3.298c1.035,0.953,2.677,1.403,4.114,1.382
	C32.321,14.204,28.873,3.686,26.383,4.404z"/>
<path fill="#473834" d="M5.754,18.427c4.299-5.723,18.221-5.335,20.629-14.022C21.709,11.695,6.93,12.926,5.754,18.427z"/>
<path fill="#8FBFFF" d="M51.814,55.146c-0.85-1.09-4.963-2.424-4.963-2.424l-7.791,0.012c0,0-4.09,1.33-4.938,2.414
	C32.73,56.932,32.221,62,32.221,62s16.168-0.115,21.273-1.52C53.494,60.48,53.205,56.932,51.814,55.146z"/>
<path fill="#73B0FF" d="M39.061,52.734c0,3.242,7.791,3.229,7.791-0.012l-0.781-0.275h-6.195L39.061,52.734z"/>
<path fill="#F5BB51" d="M39.617,52.539c0,2.537,6.68,2.537,6.68,0c0-0.863,0-2.809,0-2.809h-6.68
	C39.617,49.73,39.617,51.676,39.617,52.539z"/>
<path fill="#73B0FF" d="M36.088,61.932l-0.299,0.008C35.789,58.258,36.088,58.252,36.088,61.932z"/>
<path fill="#73B0FF" d="M50.123,61.084l-0.292,0.035C49.831,58.271,50.123,58.236,50.123,61.084z"/>
<path fill="#8FEAFF" d="M12.186,55.146c0.85-1.09,4.963-2.424,4.963-2.424l7.791,0.012c0,0,4.09,1.33,4.938,2.414
	C31.27,56.932,31.779,62,31.779,62s-16.168-0.115-21.273-1.52C10.506,60.48,10.795,56.932,12.186,55.146z"/>
<path fill="#67DBF5" d="M27.912,61.932l0.299,0.008C28.211,58.258,27.912,58.252,27.912,61.932z"/>
<path fill="#67DBF5" d="M13.877,61.084l0.292,0.035C14.169,58.271,13.877,58.236,13.877,61.084z"/>
<path id="Path_450_" fill="#FFC940" d="M34.398,42.109c1.066,0.129,1.834,3.729,1.166,4.678c-0.096,0.135-0.645,0.346-1.051-0.492
	c-0.227-0.465-0.877-0.852-1.078-1.811C33.178,43.258,33.34,41.979,34.398,42.109z"/>
<path id="Path_449_" fill="#F0A429" d="M34.428,42.799c0.277,0.088,0.582,0.516,0.746,1.227c-0.973-0.211-0.729,1.422,0.115,1.451
	c-0.008,0.166-0.018,0.334-0.039,0.512c-0.406-0.596-0.82-0.357-1.229-1.244C33.652,43.945,33.74,42.582,34.428,42.799z"/>
<path id="Path_448_" fill="#FFC940" d="M51.514,42.109c-1.064,0.129-1.834,3.729-1.164,4.678c0.094,0.135,0.643,0.346,1.051-0.492
	c0.225-0.465,0.875-0.852,1.076-1.811C52.736,43.258,52.574,41.979,51.514,42.109z"/>
<path id="Path_447_" fill="#F0A429" d="M50.74,44.021c0.164-0.707,0.467-1.135,0.744-1.223c0.689-0.219,0.777,1.146,0.408,1.945
	c-0.41,0.887-0.822,0.648-1.23,1.244c-0.02-0.178-0.031-0.348-0.037-0.512C51.459,45.436,51.699,43.824,50.74,44.021z"/>
<path fill="#FFC940" d="M42.957,32.859c-5.822,0-8.627,4.405-8.275,10.528c0.07,1.232,0.834,4.047,1.557,5.49
	c1.273,2.545,4.6,4.441,6.719,4.441c2.117,0,5.447-1.896,6.719-4.441c0.723-1.443,1.486-4.258,1.557-5.49
	C51.584,37.264,48.779,32.859,42.957,32.859z"/>
<path id="Path_446_" fill="#F0A429" d="M44.314,46.828c-0.145-0.1-0.482,0.055-1.357,0.055c-0.877,0-1.215-0.154-1.359-0.055
	c-0.17,0.123,0.104,0.67,1.359,0.67C44.211,47.498,44.486,46.951,44.314,46.828z"/>
<path id="Path_445_" fill="#F0A429" d="M42.957,48.781c-1.313-0.387-3.258,0.184-3.258,0.184c0.74,0.807,1.283,1.852,3.258,1.852
	c2.262,0,2.646-1.188,3.258-1.852C46.215,48.965,44.268,48.393,42.957,48.781z"/>
<path id="Path_444_" fill="#FFFFFF" d="M40.188,49.1c1.375,1.156,4.154,1.162,5.539,0C44.26,49.162,41.664,49.164,40.188,49.1z"/>
<path id="Path_349_" fill="#FFFFFF" d="M41.701,43.832c0.047,0.375-0.205,0.816-0.908,1.148c-0.445,0.211-1.373,0.459-2.592-0.055
	c-0.545-0.23-1.078-0.947-1.029-1.344C37.832,42.336,41.082,42.154,41.701,43.832z"/>
<linearGradient id="Oval_5_" gradientUnits="userSpaceOnUse" x1="-422.4111" y1="475.4023" x2="-422.4111" y2="475.791" gradientTransform="matrix(6.5701 0 0 -6.5701 2814.7805 3168.5281)">
	<stop  offset="0" style="stop-color:#A6694A"/>
	<stop  offset="1" style="stop-color:#4F2A1E"/>
	<a:midPointStop  offset="0" style="stop-color:#A6694A"/>
	<a:midPointStop  offset="0.5" style="stop-color:#A6694A"/>
	<a:midPointStop  offset="1" style="stop-color:#4F2A1E"/>
</linearGradient>
<circle id="Oval_104_" fill="url(#Oval_5_)" cx="39.496" cy="43.807" r="1.277"/>
<path id="Path_348_" fill="#1A1626" d="M38.857,43.783c0,0.885,1.277,0.885,1.277,0C40.135,42.963,38.857,42.963,38.857,43.783z"/>
<path id="Path_347_" fill="#AB968C" d="M38.664,43.426c0,0.371,0.535,0.371,0.535,0C39.199,43.082,38.664,43.082,38.664,43.426z"/>
<path id="Path_346_" fill="#F0A429" d="M41.707,43.881c-0.518-1.666-4.055-1.42-4.535-0.299
	C37.35,42.146,41.266,41.768,41.707,43.881z"/>
<path id="Path_345_" fill="#FFFFFF" d="M44.213,43.832c-0.049,0.375,0.205,0.816,0.906,1.148c0.445,0.211,1.373,0.459,2.594-0.055
	c0.545-0.23,1.078-0.947,1.029-1.344C48.082,42.336,44.83,42.154,44.213,43.832z"/>
<linearGradient id="Oval_6_" gradientUnits="userSpaceOnUse" x1="-424.061" y1="475.4023" x2="-424.061" y2="475.791" gradientTransform="matrix(6.5701 0 0 -6.5701 2832.511 3168.5281)">
	<stop  offset="0" style="stop-color:#A6694A"/>
	<stop  offset="1" style="stop-color:#4F2A1E"/>
	<a:midPointStop  offset="0" style="stop-color:#A6694A"/>
	<a:midPointStop  offset="0.5" style="stop-color:#A6694A"/>
	<a:midPointStop  offset="1" style="stop-color:#4F2A1E"/>
</linearGradient>
<circle id="Oval_103_" fill="url(#Oval_6_)" cx="46.389" cy="43.807" r="1.277"/>
<path id="Path_344_" fill="#1A1626" d="M45.752,43.783c0,0.885,1.277,0.885,1.277,0C47.029,42.963,45.752,42.963,45.752,43.783z"/>
<path id="Path_343_" fill="#AB968C" d="M45.557,43.426c0,0.371,0.535,0.371,0.535,0C46.092,43.082,45.557,43.082,45.557,43.426z"/>
<path id="Path_342_" fill="#F0A429" d="M44.207,43.881c0.518-1.666,4.051-1.426,4.535-0.299
	C48.563,42.146,44.648,41.768,44.207,43.881z"/>
<path id="Path_341_" fill="#F0A429" d="M48.824,41.842c-1.098-0.693-3.311-0.895-4.178-0.539c-0.186,0.066-0.125,0.648,0.029,0.605
	c1.195-0.357,3.051-0.223,4.078,0.355C48.893,42.34,48.992,41.939,48.824,41.842z"/>
<path id="Path_340_" fill="#F0A429" d="M37.088,41.842c1.1-0.693,3.311-0.895,4.178-0.539c0.186,0.066,0.125,0.648-0.029,0.605
	c-1.195-0.357-3.049-0.223-4.08,0.355C37.02,42.34,36.92,41.939,37.088,41.842z"/>
<linearGradient id="SVGID_7_" gradientUnits="userSpaceOnUse" x1="42.9561" y1="45.4199" x2="42.9561" y2="31.6543">
	<stop  offset="0" style="stop-color:#473834"/>
	<stop  offset="0.2717" style="stop-color:#594640"/>
	<stop  offset="0.7226" style="stop-color:#715950"/>
	<stop  offset="1" style="stop-color:#7A6056"/>
	<a:midPointStop  offset="0" style="stop-color:#473834"/>
	<a:midPointStop  offset="0.4" style="stop-color:#473834"/>
	<a:midPointStop  offset="1" style="stop-color:#7A6056"/>
</linearGradient>
<path fill="url(#SVGID_7_)" d="M42.947,32.457c-0.525,0-1.012,0.033-1.48,0.084c0.195-0.205,0.438-0.363,0.773-0.424
	c-0.689-0.188-1.467-0.102-2.072,0.346c-0.127-0.217-0.18-0.494-0.053-0.809c-0.846,0.514-1.006,1.133-1.006,1.133
	c-0.242-0.391-0.254-0.902-0.254-0.902s-0.912,0.643-0.779,1.584c-0.814-0.355-1.498,0.059-1.498,0.059s0.4,0.172,0.592,0.529
	c-4.555,3.307-2.996,10.658-2.131,11.363c0,0,0.256-5.492,2.574-7.131c-0.125,1.037-0.402,1.768-0.402,1.768
	s2.275-0.359,4.279-1.639c-0.232,1.146-0.859,1.965-0.859,1.965s4.137-0.576,5.365-2.523c0,0,0.811,1.705,2.816,2.934
	c0,0,0.125-1.279-0.15-2.184c1.967,1.934,2.197,6.803,2.197,6.803C52.01,44.381,54.262,32.457,42.947,32.457z"/>
<path fill="#473834" d="M48.525,37.75l0.203,1.133c0,0,1.676,2.193,2.131,6.529C51.07,40.727,48.525,37.75,48.525,37.75z"/>
<path fill="#473834" d="M48.299,37.328c0,0,1.229,1.529,0.514,3.465C48.904,39.277,48.299,37.328,48.299,37.328z"/>
<path fill="#473834" d="M46.27,36.789c0.273,3.928-5.686,3.596-5.639,3.594C40.631,40.383,45.75,39.402,46.27,36.789z"/>
<path fill="#473834" d="M42.682,37.141c-1.119,3.166-5.229,2.893-5.471,2.916C37.211,40.057,40.885,38.994,42.682,37.141z"/>
<path fill="#473834" d="M37.955,37.879c-2.676,3.135-2.916,7.541-2.916,7.541S34.332,40.688,37.955,37.879z"/>
<path fill="#67DBF5" d="M17.146,52.734c0,3.242,7.793,3.229,7.793-0.012l-0.781-0.275h-6.195L17.146,52.734z"/>
<path fill="#F5BB51" d="M17.705,52.539c0,2.537,6.678,2.537,6.678,0c0-0.863,0-2.809,0-2.809h-6.678
	C17.705,49.73,17.705,51.676,17.705,52.539z"/>
<path id="Path_324_" fill="#FFC940" d="M12.484,42.109c1.066,0.129,1.834,3.729,1.166,4.678c-0.096,0.135-0.645,0.346-1.051-0.492
	c-0.227-0.465-0.877-0.852-1.078-1.811C11.264,43.258,11.426,41.979,12.484,42.109z"/>
<path id="Path_323_" fill="#F0A429" d="M12.514,42.799c0.277,0.088,0.582,0.516,0.746,1.227c-0.973-0.211-0.729,1.422,0.115,1.451
	c-0.008,0.166-0.018,0.334-0.039,0.512c-0.406-0.596-0.82-0.357-1.229-1.244C11.738,43.945,11.826,42.582,12.514,42.799z"/>
<path id="Path_322_" fill="#FFC940" d="M29.6,42.109c-1.064,0.129-1.834,3.729-1.164,4.678c0.094,0.135,0.643,0.346,1.051-0.492
	c0.225-0.465,0.875-0.852,1.076-1.811C30.822,43.258,30.66,41.979,29.6,42.109z"/>
<path id="Path_321_" fill="#F0A429" d="M28.826,44.021c0.164-0.707,0.467-1.135,0.744-1.223c0.689-0.219,0.777,1.146,0.408,1.945
	c-0.41,0.887-0.822,0.648-1.23,1.244c-0.02-0.178-0.031-0.348-0.037-0.512C29.545,45.436,29.785,43.824,28.826,44.021z"/>
<path fill="#FFC940" d="M21.043,32.859c-5.822,0-8.627,4.405-8.275,10.528c0.07,1.232,0.834,4.047,1.557,5.49
	c1.273,2.545,4.6,4.441,6.719,4.441c2.117,0,5.447-1.896,6.719-4.441c0.723-1.443,1.486-4.258,1.557-5.49
	C29.67,37.264,26.865,32.859,21.043,32.859z"/>
<path id="Path_320_" fill="#F0A429" d="M22.4,46.828c-0.145-0.1-0.482,0.055-1.357,0.055c-0.877,0-1.215-0.154-1.359-0.055
	c-0.17,0.123,0.104,0.67,1.359,0.67C22.297,47.498,22.572,46.951,22.4,46.828z"/>
<path id="Path_319_" fill="#F0A429" d="M21.043,48.781c-1.313-0.387-3.258,0.184-3.258,0.184c0.74,0.807,1.283,1.852,3.258,1.852
	c2.262,0,2.646-1.188,3.258-1.852C24.301,48.965,22.354,48.393,21.043,48.781z"/>
<path id="Path_318_" fill="#FFFFFF" d="M18.273,49.1c1.375,1.156,4.154,1.162,5.539,0C22.346,49.162,19.75,49.164,18.273,49.1z"/>
<path id="Path_317_" fill="#FFFFFF" d="M19.787,43.832c0.047,0.375-0.205,0.816-0.908,1.148c-0.445,0.211-1.373,0.459-2.592-0.055
	c-0.545-0.23-1.078-0.947-1.029-1.344C15.918,42.336,19.168,42.154,19.787,43.832z"/>
<linearGradient id="Oval_7_" gradientUnits="userSpaceOnUse" x1="-425.7466" y1="475.4023" x2="-425.7466" y2="475.791" gradientTransform="matrix(6.5701 0 0 -6.5701 2814.7805 3168.5281)">
	<stop  offset="0" style="stop-color:#A6694A"/>
	<stop  offset="1" style="stop-color:#4F2A1E"/>
	<a:midPointStop  offset="0" style="stop-color:#A6694A"/>
	<a:midPointStop  offset="0.5" style="stop-color:#A6694A"/>
	<a:midPointStop  offset="1" style="stop-color:#4F2A1E"/>
</linearGradient>
<circle id="Oval_46_" fill="url(#Oval_7_)" cx="17.582" cy="43.807" r="1.277"/>
<path id="Path_316_" fill="#1A1626" d="M16.943,43.783c0,0.885,1.277,0.885,1.277,0C18.221,42.963,16.943,42.963,16.943,43.783z"/>
<path id="Path_315_" fill="#AB968C" d="M16.75,43.426c0,0.371,0.535,0.371,0.535,0C17.285,43.082,16.75,43.082,16.75,43.426z"/>
<path id="Path_314_" fill="#F0A429" d="M19.793,43.881c-0.518-1.666-4.055-1.42-4.535-0.299
	C15.436,42.146,19.352,41.768,19.793,43.881z"/>
<path id="Path_313_" fill="#FFFFFF" d="M22.299,43.832c-0.049,0.375,0.205,0.816,0.906,1.148c0.445,0.211,1.373,0.459,2.594-0.055
	c0.545-0.23,1.078-0.947,1.029-1.344C26.168,42.336,22.916,42.154,22.299,43.832z"/>
<linearGradient id="Oval_8_" gradientUnits="userSpaceOnUse" x1="-427.396" y1="475.4023" x2="-427.396" y2="475.791" gradientTransform="matrix(6.5701 0 0 -6.5701 2832.511 3168.5281)">
	<stop  offset="0" style="stop-color:#A6694A"/>
	<stop  offset="1" style="stop-color:#4F2A1E"/>
	<a:midPointStop  offset="0" style="stop-color:#A6694A"/>
	<a:midPointStop  offset="0.5" style="stop-color:#A6694A"/>
	<a:midPointStop  offset="1" style="stop-color:#4F2A1E"/>
</linearGradient>
<circle id="Oval_45_" fill="url(#Oval_8_)" cx="24.475" cy="43.807" r="1.277"/>
<path id="Path_312_" fill="#1A1626" d="M23.838,43.783c0,0.885,1.277,0.885,1.277,0C25.115,42.963,23.838,42.963,23.838,43.783z"/>
<path id="Path_311_" fill="#AB968C" d="M23.643,43.426c0,0.371,0.535,0.371,0.535,0C24.178,43.082,23.643,43.082,23.643,43.426z"/>
<path id="Path_310_" fill="#F0A429" d="M22.293,43.881c0.518-1.666,4.051-1.426,4.535-0.299
	C26.648,42.146,22.734,41.768,22.293,43.881z"/>
<path id="Path_309_" fill="#F0A429" d="M26.91,41.842c-1.098-0.693-3.311-0.895-4.178-0.539c-0.186,0.066-0.125,0.648,0.029,0.605
	c1.195-0.357,3.051-0.223,4.078,0.355C26.979,42.34,27.078,41.939,26.91,41.842z"/>
<path id="Path_298_" fill="#F0A429" d="M15.174,41.842c1.1-0.693,3.311-0.895,4.178-0.539c0.186,0.066,0.125,0.648-0.029,0.605
	c-1.195-0.357-3.049-0.223-4.08,0.355C15.105,42.34,15.006,41.939,15.174,41.842z"/>
<linearGradient id="SVGID_8_" gradientUnits="userSpaceOnUse" x1="21.0425" y1="45.4199" x2="21.0425" y2="31.6543">
	<stop  offset="0" style="stop-color:#473834"/>
	<stop  offset="0.2717" style="stop-color:#594640"/>
	<stop  offset="0.7226" style="stop-color:#715950"/>
	<stop  offset="1" style="stop-color:#7A6056"/>
	<a:midPointStop  offset="0" style="stop-color:#473834"/>
	<a:midPointStop  offset="0.4" style="stop-color:#473834"/>
	<a:midPointStop  offset="1" style="stop-color:#7A6056"/>
</linearGradient>
<path fill="url(#SVGID_8_)" d="M21.033,32.457c-0.525,0-1.012,0.033-1.48,0.084c0.195-0.205,0.438-0.363,0.773-0.424
	c-0.689-0.188-1.467-0.102-2.072,0.346c-0.127-0.217-0.18-0.494-0.053-0.809c-0.846,0.514-1.006,1.133-1.006,1.133
	c-0.242-0.391-0.254-0.902-0.254-0.902s-0.912,0.643-0.779,1.584c-0.814-0.355-1.498,0.059-1.498,0.059s0.4,0.172,0.592,0.529
	c-4.555,3.307-2.996,10.658-2.131,11.363c0,0,0.256-5.492,2.574-7.131c-0.125,1.037-0.402,1.768-0.402,1.768
	s2.275-0.359,4.279-1.639c-0.232,1.146-0.859,1.965-0.859,1.965s4.137-0.576,5.365-2.523c0,0,0.811,1.705,2.816,2.934
	c0,0,0.125-1.279-0.15-2.184c1.967,1.934,2.197,6.803,2.197,6.803C30.096,44.381,32.348,32.457,21.033,32.457z"/>
<path fill="#473834" d="M26.611,37.75l0.203,1.133c0,0,1.676,2.193,2.131,6.529C29.156,40.727,26.611,37.75,26.611,37.75z"/>
<path fill="#473834" d="M26.385,37.328c0,0,1.229,1.529,0.514,3.465C26.99,39.277,26.385,37.328,26.385,37.328z"/>
<path fill="#473834" d="M24.355,36.789c0.273,3.928-5.686,3.596-5.639,3.594C18.717,40.383,23.836,39.402,24.355,36.789z"/>
<path fill="#473834" d="M20.768,37.141c-1.119,3.166-5.229,2.893-5.471,2.916C15.297,40.057,18.971,38.994,20.768,37.141z"/>
<path fill="#473834" d="M16.041,37.879c-2.676,3.135-2.916,7.541-2.916,7.541S12.418,40.688,16.041,37.879z"/>
<path fill="#F5BB51" d="M49.938,53.971c0,0-0.313-0.121-1.094-0.48c1-0.969,2.191,0.084,3.293-1.404
	c1.996-2.695,3.066-11.252,3.066-11.252s0.5-4.469-0.292-11.2c0,0,1.386,0.422,2.628,2.09C58.89,33.537,59,40.24,59,43.92
	c0,3.445-2.734,7.883-4.056,10.121c-0.628,1.063-1.52,2.762-1.759,3.02c-2.085,2.205-4.224,2.018-4.797,1.449
	C46.099,58.268,50.905,55.154,49.938,53.971z"/>
<path fill="#F0A429" d="M50.555,56.686c0,0-1.209,1.523-2.166,1.824C49.507,58.436,50.555,56.686,50.555,56.686z"/>
<path fill="#F0A429" d="M51.866,56.734c0,0-1.505,1.84-2.462,2.141C50.522,58.801,51.866,56.734,51.866,56.734z"/>
<path fill="#F0A429" d="M52.595,56.979c0,0-1.047,1.459-2.005,1.76C51.709,58.664,52.595,56.979,52.595,56.979z"/>
<path fill="#F5BB51" d="M14.063,53.971c0,0,0.313-0.121,1.094-0.48c-1-0.969-2.191,0.084-3.293-1.404
	c-1.996-2.695-3.066-11.252-3.066-11.252s-0.5-4.469,0.292-11.2c0,0-1.386,0.422-2.628,2.09C5.11,33.537,5,40.24,5,43.92
	c0,3.445,2.734,7.883,4.056,10.121c0.628,1.063,1.52,2.762,1.759,3.02c2.085,2.205,4.224,2.018,4.797,1.449
	C17.901,58.268,13.095,55.154,14.063,53.971z"/>
<path fill="#F0A429" d="M13.445,56.686c0,0,1.209,1.523,2.166,1.824C14.493,58.436,13.445,56.686,13.445,56.686z"/>
<path fill="#F0A429" d="M12.134,56.734c0,0,1.505,1.84,2.462,2.141C13.478,58.801,12.134,56.734,12.134,56.734z"/>
<path fill="#F0A429" d="M11.405,56.979c0,0,1.047,1.459,2.005,1.76C12.291,58.664,11.405,56.979,11.405,56.979z"/>
</svg>
