<?xml version="1.0" encoding="utf-8"?>
<!-- Generator: Adobe Illustrator 15.0.0, SVG Export Plug-In . SVG Version: 6.00 Build 0)  -->
<!DOCTYPE svg PUBLIC "-//W3C//DTD SVG 1.1//EN" "http://www.w3.org/Graphics/SVG/1.1/DTD/svg11.dtd" [
	<!ENTITY ns_flows "http://ns.adobe.com/Flows/1.0/">
	<!ENTITY ns_extend "http://ns.adobe.com/Extensibility/1.0/">
	<!ENTITY ns_ai "http://ns.adobe.com/AdobeIllustrator/10.0/">
	<!ENTITY ns_graphs "http://ns.adobe.com/Graphs/1.0/">
]>
<svg version="1.1" id="Layer_1" xmlns:x="&ns_extend;" xmlns:i="&ns_ai;" xmlns:graph="&ns_graphs;"
	 xmlns="http://www.w3.org/2000/svg" xmlns:xlink="http://www.w3.org/1999/xlink" xmlns:a="http://ns.adobe.com/AdobeSVGViewerExtensions/3.0/"
	 x="0px" y="0px" width="64px" height="64px" viewBox="0 0 64 64" enable-background="new 0 0 64 64" xml:space="preserve">
<path fill="#F5BB51" d="M32.793,40.084c-1.027-2.82-4.934-3-4.934-3l-0.988,6.961C30.438,42.764,32.793,40.084,32.793,40.084z"/>
<path fill="#3AB0A2" d="M57.189,31.723c-1.271-1.645-7.426-3.656-7.426-3.656l-11.658,0.019c0,0-6.119,2.006-7.387,3.642
	c-2.084,2.688-2.85,5.357-2.85,5.357l4.934,3L32.805,58H55.07l-0.002-12.916L60,40.154C60,40.154,59.27,34.414,57.189,31.723z"/>
<path fill="#2B998D" d="M38.105,28.085c0,4.888,11.658,4.868,11.658-0.019l-1.17-0.413h-9.27L38.105,28.085z"/>
<path fill="#F5BB51" d="M38.939,27.79c0,3.825,9.992,3.825,9.992,0c0-1.302,0-4.233,0-4.233h-9.992
	C38.939,23.557,38.939,26.488,38.939,27.79z"/>
<path fill="#302C3B" d="M32.805,58v3.525c16.512-0.48,22.266-0.465,22.266-2.287c0-1,0-1.238,0-1.238H32.805z"/>
<path id="Path_700_" fill="#FFC940" d="M54.092,13.999c-1.574,0.19-2.709,5.455-1.721,6.844c0.139,0.193,0.949,0.504,1.549-0.723
	c0.334-0.679,1.293-1.245,1.59-2.646C55.891,15.68,55.654,13.809,54.092,13.999z"/>
<path id="Path_386_" fill="#FFC940" d="M33.781,13.999c1.574,0.19,2.709,5.455,1.719,6.844c-0.139,0.193-0.949,0.504-1.551-0.723
	c-0.33-0.679-1.291-1.245-1.59-2.646C31.979,15.68,32.217,13.809,33.781,13.999z"/>
<path id="Path_385_" fill="#F0A429" d="M54.047,15.009c-0.408,0.129-0.855,0.754-1.1,1.791c1.434-0.308,1.076,2.08-0.172,2.125
	c0.012,0.24,0.027,0.488,0.059,0.748c0.6-0.872,1.209-0.521,1.814-1.819C55.193,16.684,55.063,14.688,54.047,15.009z"/>
<path id="Path_384_" fill="#F0A429" d="M34.924,16.798c-0.242-1.036-0.689-1.661-1.1-1.789c-1.016-0.32-1.145,1.675-0.6,2.845
	c0.602,1.298,1.213,0.947,1.814,1.819c0.029-0.261,0.045-0.508,0.055-0.749C33.861,18.866,33.508,16.507,34.924,16.798z"/>
<path id="Path_383_" fill="#FFC940" d="M43.936,3.878c-6.811,0-10.092,5.153-9.682,12.318c0.084,1.441,0.977,6.143,1.818,7.829
	c0.867,1.727,3.752,4.387,5.521,4.938c1.119,0.347,3.566,0.347,4.682,0c1.77-0.552,4.66-3.212,5.521-4.938
	c0.846-1.687,1.738-6.387,1.82-7.829C54.029,9.031,50.748,3.878,43.936,3.878z"/>
<path id="Path_382_" fill="#966F42" d="M51.336,13.474c-1.557-0.825-4.539-0.865-5.65-0.29c-0.238,0.11-0.08,0.893,0.119,0.817
	c1.549-0.611,4.045-0.625,5.494,0.053C51.49,14.142,51.57,13.588,51.336,13.474z"/>
<path id="Path_381_" fill="#966F42" d="M36.535,13.474c1.559-0.825,4.537-0.865,5.65-0.29c0.236,0.11,0.08,0.893-0.121,0.817
	c-1.549-0.611-4.043-0.625-5.492,0.053C36.379,14.142,36.301,13.588,36.535,13.474z"/>
<path id="Path_380_" fill="#F0A429" d="M45.775,20.629c-0.195-0.136-0.652,0.073-1.84,0.073c-1.186,0-1.643-0.209-1.838-0.073
	c-0.232,0.164,0.139,0.905,1.838,0.905C45.637,21.534,46.008,20.793,45.775,20.629z"/>
<path id="Path_379_" fill="#F0A429" d="M43.936,23.436c-1.531-0.45-3.801,0.214-3.801,0.214c0.863,0.942,1.498,2.163,3.801,2.163
	c2.641,0,3.09-1.387,3.803-2.163C47.738,23.649,45.465,22.982,43.936,23.436z"/>
<path id="Path_247_" fill="#FFFFFF" d="M40.705,23.809c1.605,1.348,4.848,1.357,6.463,0C45.457,23.882,42.428,23.883,40.705,23.809z
	"/>
<path id="Path_246_" fill="#FFFFFF" d="M42.42,16.284c0.059,0.451-0.248,0.985-1.096,1.386c-0.537,0.255-1.656,0.555-3.127-0.065
	c-0.66-0.278-1.303-1.145-1.246-1.623C37.75,14.479,41.674,14.259,42.42,16.284z"/>
<linearGradient id="Oval_1_" gradientUnits="userSpaceOnUse" x1="-437.9707" y1="479.5557" x2="-437.9707" y2="480.0254" gradientTransform="matrix(6.5701 0 0 -6.5701 2917.2688 3168.5281)">
	<stop  offset="0" style="stop-color:#A6694A"/>
	<stop  offset="1" style="stop-color:#4F2A1E"/>
	<a:midPointStop  offset="0" style="stop-color:#A6694A"/>
	<a:midPointStop  offset="0.5" style="stop-color:#A6694A"/>
	<a:midPointStop  offset="1" style="stop-color:#4F2A1E"/>
</linearGradient>
<circle id="Oval_52_" fill="url(#Oval_1_)" cx="39.758" cy="16.254" r="1.542"/>
<path id="Path_245_" fill="#1A1626" d="M38.986,16.226c0,1.067,1.541,1.067,1.541,0C40.527,15.235,38.986,15.235,38.986,16.226z"/>
<path id="Path_244_" fill="#AB968C" d="M38.752,15.794c0,0.447,0.648,0.447,0.648,0C39.4,15.38,38.752,15.38,38.752,15.794z"/>
<path id="Path_243_" fill="#F0A429" d="M42.428,16.344c-0.627-2.013-4.895-1.715-5.477-0.362
	C37.168,14.249,41.895,13.792,42.428,16.344z"/>
<path id="Path_242_" fill="#FFFFFF" d="M45.451,16.284c-0.059,0.451,0.248,0.985,1.094,1.386c0.541,0.255,1.658,0.555,3.131-0.065
	c0.66-0.278,1.303-1.145,1.242-1.623C50.123,14.479,46.197,14.259,45.451,16.284z"/>
<linearGradient id="Oval_2_" gradientUnits="userSpaceOnUse" x1="-439.4028" y1="479.5557" x2="-439.4028" y2="480.0254" gradientTransform="matrix(6.5701 0 0 -6.5701 2934.9993 3168.5281)">
	<stop  offset="0" style="stop-color:#A6694A"/>
	<stop  offset="1" style="stop-color:#4F2A1E"/>
	<a:midPointStop  offset="0" style="stop-color:#A6694A"/>
	<a:midPointStop  offset="0.5" style="stop-color:#A6694A"/>
	<a:midPointStop  offset="1" style="stop-color:#4F2A1E"/>
</linearGradient>
<circle id="Oval_51_" fill="url(#Oval_2_)" cx="48.078" cy="16.254" r="1.542"/>
<path id="Path_241_" fill="#1A1626" d="M47.309,16.226c0,1.067,1.543,1.067,1.543,0C48.852,15.235,47.309,15.235,47.309,16.226z"/>
<path id="Path_240_" fill="#AB968C" d="M47.074,15.794c0,0.447,0.646,0.447,0.646,0C47.721,15.38,47.074,15.38,47.074,15.794z"/>
<path id="Path_239_" fill="#F0A429" d="M45.445,16.344c0.625-2.012,4.891-1.724,5.473-0.362
	C50.703,14.249,45.979,13.792,45.445,16.344z"/>
<path fill="#7A6056" d="M52.635,5.585C51.145,3.567,48.416,2,43.936,2s-7.207,1.567-8.699,3.585
	C33.127,8.441,54.746,8.441,52.635,5.585z"/>
<linearGradient id="SVGID_1_" gradientUnits="userSpaceOnUse" x1="-58.5562" y1="17.958" x2="-58.5562" y2="4.7305" gradientTransform="matrix(1 0 0 1 102.4922 0)">
	<stop  offset="0.5" style="stop-color:#473834"/>
	<stop  offset="0.6387" style="stop-color:#503F3A"/>
	<stop  offset="0.8641" style="stop-color:#68524A"/>
	<stop  offset="1" style="stop-color:#7A6056"/>
	<a:midPointStop  offset="0.5" style="stop-color:#473834"/>
	<a:midPointStop  offset="0.6" style="stop-color:#473834"/>
	<a:midPointStop  offset="1" style="stop-color:#7A6056"/>
</linearGradient>
<path fill="url(#SVGID_1_)" d="M52.635,5.585c-1.49-2.018-4.219,0.171-8.699,0.171s-7.207-2.188-8.699-0.171
	c-2.109,2.856-1.393,12.373-0.453,12.373c0.148,0,0.17-3.329,0.453-5.632c0.23-1.875,0.678-3.693,1.189-3.99
	c1.564-0.907,4.58,0.39,7.51,0.39c2.932,0,5.947-1.297,7.512-0.39c0.512,0.297,0.955,2.115,1.188,3.99
	c0.283,2.303,0.305,5.632,0.455,5.632C54.029,17.958,54.746,8.441,52.635,5.585z"/>
<path fill="#473834" d="M22.408,29.691c9.389-3.755,8.449-12.673,8.449-12.673H4.574c0,0-0.939,8.918,8.447,12.673
	c0,0,1.879,0.47,4.693,0.47C20.533,30.161,22.408,29.691,22.408,29.691z"/>
<linearGradient id="SVGID_2_" gradientUnits="userSpaceOnUse" x1="26.8643" y1="30.1592" x2="26.8643" y2="2.0702">
	<stop  offset="0.05" style="stop-color:#473834"/>
	<stop  offset="0.2266" style="stop-color:#594640"/>
	<stop  offset="0.5197" style="stop-color:#715950"/>
	<stop  offset="0.7" style="stop-color:#7A6056"/>
	<a:midPointStop  offset="0.05" style="stop-color:#473834"/>
	<a:midPointStop  offset="0.4" style="stop-color:#473834"/>
	<a:midPointStop  offset="0.7" style="stop-color:#7A6056"/>
</linearGradient>
<path fill="url(#SVGID_2_)" d="M27.207,17.971c0.959,4.043,0.453,8.046-4.799,11.721c5.635-0.938,8.912-6.258,8.912-10.339
	L27.207,17.971z"/>
<linearGradient id="SVGID_3_" gradientUnits="userSpaceOnUse" x1="1772.248" y1="30.1592" x2="1772.248" y2="2.0702" gradientTransform="matrix(-1 0 0 1 1780.8145 0)">
	<stop  offset="0.05" style="stop-color:#473834"/>
	<stop  offset="0.2266" style="stop-color:#594640"/>
	<stop  offset="0.5197" style="stop-color:#715950"/>
	<stop  offset="0.7" style="stop-color:#7A6056"/>
	<a:midPointStop  offset="0.05" style="stop-color:#473834"/>
	<a:midPointStop  offset="0.4" style="stop-color:#473834"/>
	<a:midPointStop  offset="0.7" style="stop-color:#7A6056"/>
</linearGradient>
<path fill="url(#SVGID_3_)" d="M8.227,17.971c-0.961,4.043-0.453,8.046,4.797,11.721c-5.633-0.938-8.914-6.258-8.914-10.339
	L8.227,17.971z"/>
<path fill="#F5BB51" d="M29.955,31.727c-1.27-1.636-2.631-2.088-2.631-2.088l0.545,10.445c0,0,1.367,2.68,4.934,3.961v-6.961
	C32.803,37.084,32.039,34.414,29.955,31.727z"/>
<path fill="#8E3ED6" d="M8.088,29.634l3.594-1.316l12.07,0.011l3.572,1.311c0,0,0.891,7.854,0.545,10.445
	c-0.561,4.193-1.227,3.635-1.275,6.871c-0.037,2.41,2.08,14.021,2.08,14.021c-9.904,0.127-21.082,0.35-21.082-2.238
	c0-3.793,1.301-9.354,1.266-11.738c-0.049-3.23-0.715-2.711-1.277-6.916C7.234,37.492,8.088,29.634,8.088,29.634z"/>
<path fill="#F5BB51" d="M22.184,27.774c0-1.309,0-4.218,0-4.218h-8.916c0,0,0,2.888,0,4.203l-1.586,0.558
	c0,3.948,5.166,6.315,6.045,6.315c0.873,0,6.025-2.365,6.025-6.305L22.184,27.774z"/>
<path fill="#FFC940" d="M17.717,3.408c-6.813,0-10.092,5.547-9.684,12.68c0.086,1.433,0.484,3.501,0.977,5.272
	c1.021,3.684,6.41,7.393,8.707,7.393c2.295,0,7.684-3.709,8.707-7.393c0.492-1.771,0.891-3.84,0.975-5.272
	C27.807,8.955,24.529,3.408,17.717,3.408z"/>
<path fill="#D47706" d="M17.715,22.963c-1.596-0.702-1.607-0.028-4.072,0.137c0.924,1.051,1.605,2.4,4.072,2.4
	c2.83,0,3.309-1.533,4.076-2.4C19.324,22.935,19.313,22.261,17.715,22.963z"/>
<path fill="#FFFFFF" d="M14.383,23.361c1.607,1.674,5.078,1.652,6.666,0.001C18.572,23.628,16.859,23.628,14.383,23.361z"/>
<path fill="#966F42" d="M24.953,13.714c-1.479-0.882-4.133-0.99-5.184-0.389c-0.223,0.121-0.162,0.759,0.029,0.679
	c1.498-0.623,3.781-0.654,5.188,0.066C25.174,14.166,25.178,13.843,24.953,13.714z"/>
<path fill="#966F42" d="M10.479,13.714c1.479-0.882,4.133-0.99,5.186-0.389c0.223,0.121,0.162,0.759-0.031,0.679
	c-1.498-0.623-3.777-0.655-5.186,0.066C10.258,14.166,10.254,13.843,10.479,13.714z"/>
<path fill="#F0A429" d="M19.248,20.699c-0.164-0.113-0.543,0.062-1.533,0.062c-0.988,0-1.367-0.175-1.531-0.062
	c-0.193,0.137,0.115,0.754,1.531,0.754S19.443,20.837,19.248,20.699z"/>
<path id="Path_238_" fill="#FFFFFF" d="M16.201,16.39c0.057,0.45-0.248,0.985-1.096,1.386c-0.539,0.255-1.658,0.555-3.129-0.066
	c-0.658-0.277-1.301-1.143-1.244-1.621C11.531,14.584,15.455,14.364,16.201,16.39z"/>
<linearGradient id="Oval_3_" gradientUnits="userSpaceOnUse" x1="-426.3618" y1="479.54" x2="-426.3618" y2="480.0088" gradientTransform="matrix(6.5701 0 0 -6.5701 2814.7805 3168.5281)">
	<stop  offset="0" style="stop-color:#A6694A"/>
	<stop  offset="1" style="stop-color:#4F2A1E"/>
	<a:midPointStop  offset="0" style="stop-color:#A6694A"/>
	<a:midPointStop  offset="0.5" style="stop-color:#A6694A"/>
	<a:midPointStop  offset="1" style="stop-color:#4F2A1E"/>
</linearGradient>
<circle id="Oval_32_" fill="url(#Oval_3_)" cx="13.537" cy="16.359" r="1.542"/>
<path id="Path_237_" fill="#1A1626" d="M12.768,16.331c0,1.066,1.543,1.066,1.543,0C14.311,15.341,12.768,15.341,12.768,16.331z"/>
<path id="Path_236_" fill="#AB968C" d="M12.533,15.899c0,0.447,0.646,0.447,0.646,0C13.18,15.485,12.533,15.485,12.533,15.899z"/>
<path id="Path_235_" fill="#45332C" d="M16.209,16.449c-0.627-2.012-4.895-1.715-5.477-0.361
	C10.947,14.354,15.674,13.897,16.209,16.449z"/>
<path id="Path_234_" fill="#FFFFFF" d="M19.232,16.39c-0.059,0.45,0.248,0.985,1.094,1.386c0.539,0.255,1.658,0.555,3.129-0.066
	c0.66-0.277,1.303-1.143,1.244-1.621C23.902,14.584,19.979,14.364,19.232,16.39z"/>
<linearGradient id="Oval_4_" gradientUnits="userSpaceOnUse" x1="-427.7944" y1="479.54" x2="-427.7944" y2="480.0088" gradientTransform="matrix(6.5701 0 0 -6.5701 2832.511 3168.5281)">
	<stop  offset="0" style="stop-color:#A6694A"/>
	<stop  offset="1" style="stop-color:#4F2A1E"/>
	<a:midPointStop  offset="0" style="stop-color:#A6694A"/>
	<a:midPointStop  offset="0.5" style="stop-color:#A6694A"/>
	<a:midPointStop  offset="1" style="stop-color:#4F2A1E"/>
</linearGradient>
<circle id="Oval_31_" fill="url(#Oval_4_)" cx="21.859" cy="16.359" r="1.542"/>
<path id="Path_233_" fill="#1A1626" d="M21.09,16.331c0,1.066,1.541,1.066,1.541,0C22.631,15.341,21.09,15.341,21.09,16.331z"/>
<path id="Path_232_" fill="#AB968C" d="M20.855,15.899c0,0.447,0.646,0.447,0.646,0C21.502,15.485,20.855,15.485,20.855,15.899z"/>
<path id="Path_231_" fill="#45332C" d="M19.225,16.449c0.625-2.011,4.891-1.723,5.475-0.361
	C24.484,14.354,19.758,13.897,19.225,16.449z"/>
<linearGradient id="SVGID_4_" gradientUnits="userSpaceOnUse" x1="17.7148" y1="30.1592" x2="17.7148" y2="2.0699">
	<stop  offset="0.05" style="stop-color:#473834"/>
	<stop  offset="0.2266" style="stop-color:#594640"/>
	<stop  offset="0.5197" style="stop-color:#715950"/>
	<stop  offset="0.7" style="stop-color:#7A6056"/>
	<a:midPointStop  offset="0.05" style="stop-color:#473834"/>
	<a:midPointStop  offset="0.4" style="stop-color:#473834"/>
	<a:midPointStop  offset="0.7" style="stop-color:#7A6056"/>
</linearGradient>
<path fill="url(#SVGID_4_)" d="M25.383,4.404c0.777-1.11-5.811-3.455-12.031-1.871C7.139,3.956,4.109,13.265,4.109,19.353
	c0.537,0.441,3.486-0.658,4.117-1.382c0.258-1.065,0.662-2.162,1.041-3.298c4.666-2.701,9.947-3.338,13.611-6.571
	c-0.469,1.408,2.016,3.185,3.285,6.571c0.412,1.099,0.781,2.199,1.043,3.298c1.035,0.953,2.676,1.403,4.113,1.382
	C31.32,14.204,27.873,3.686,25.383,4.404z"/>
<path fill="#473834" d="M4.754,18.427c4.299-5.723,18.221-5.335,20.629-14.022C20.709,11.695,5.93,12.926,4.754,18.427z"/>
<path fill="#8FEAFF" d="M24.996,52.721l-7.793,0.012c0,0-4.088,1.332-4.936,2.416c-0.899,1.15-1.43,3.666-1.693,5.309
	c4.332,1.021,12.781,1.535,21.262,1.543c0-0.004-0.486-5.07-1.877-6.854C29.109,54.055,24.996,52.721,24.996,52.721z"/>
<path fill="#67DBF5" d="M17.203,52.732c0,3.242,7.793,3.23,7.793-0.012l-0.781-0.273H18.02L17.203,52.732z"/>
<path fill="#F5BB51" d="M17.762,52.537c0,2.539,6.678,2.539,6.678,0c0-0.863,0-2.807,0-2.807h-6.678
	C17.762,49.73,17.762,51.674,17.762,52.537z"/>
<path fill="#67DBF5" d="M14.226,61.088l-0.284-0.043C13.941,58.738,14.226,58.508,14.226,61.088z"/>
<path fill="#67DBF5" d="M28.268,61.965h-0.301C27.967,58.283,28.268,58.283,28.268,61.965z"/>
<path fill="#8FBFFF" d="M46.908,52.721l-7.791,0.012c0,0-4.09,1.332-4.938,2.416c-1.392,1.781-1.901,6.846-1.902,6.85
	c8.52-0.01,16.988-0.533,21.265-1.57c-0.259-1.643-0.778-4.137-1.671-5.281C51.021,54.055,46.908,52.721,46.908,52.721z"/>
<path fill="#73B0FF" d="M39.117,52.732c0,3.242,7.791,3.23,7.791-0.012l-0.781-0.273h-6.195L39.117,52.732z"/>
<path fill="#F5BB51" d="M39.674,52.537c0,2.539,6.68,2.539,6.68,0c0-0.863,0-2.807,0-2.807h-6.68
	C39.674,49.73,39.674,51.674,39.674,52.537z"/>
<path fill="#73B0FF" d="M36.145,61.959l-0.299,0.006C35.846,58.283,36.145,58.277,36.145,61.959z"/>
<path fill="#73B0FF" d="M50.173,61.035l-0.284,0.025C49.889,58.795,50.173,58.629,50.173,61.035z"/>
<path fill="#F5BB51" d="M49.938,53.971c0,0-0.313-0.123-1.094-0.482c1-0.969,2.191,0.086,3.293-1.402
	c1.934-2.611,2.066-4.16,2.932-6.66c0,0-0.355-1.322-0.078-3.33c2.521-0.514,4.873-1.807,4.873-1.807S60,45.295,60,45.4
	c0,3.313-3.775,6.471-5.057,8.639c-0.627,1.064-1.52,2.764-1.758,3.02c-2.086,2.207-4.225,2.02-4.797,1.449
	C46.098,58.266,50.904,55.152,49.938,53.971z"/>
<path fill="#F0A429" d="M50.555,56.686c0,0-1.209,1.523-2.166,1.822C49.506,58.434,50.555,56.686,50.555,56.686z"/>
<path fill="#F0A429" d="M51.865,56.732c0,0-1.504,1.84-2.461,2.141C50.521,58.799,51.865,56.732,51.865,56.732z"/>
<path fill="#F0A429" d="M52.594,56.977c0,0-1.047,1.461-2.004,1.762C51.709,58.664,52.594,56.977,52.594,56.977z"/>
<path fill="#F5BB51" d="M14.063,53.971c0,0,0.313-0.123,1.094-0.482c-1-0.969-2.191,0.086-3.293-1.402
	c-1.996-2.697-2.113-4.615-3.066-7.254c-0.59-1.631-1.5-8.469-0.709-15.198c0,0-1.385,0.422-2.627,2.089
	C4.109,33.535,4,40.238,4,43.92c0,3.443,3.734,7.881,5.055,10.119c0.629,1.064,1.52,2.764,1.76,3.02
	c2.084,2.207,4.223,2.02,4.797,1.449C17.9,58.266,13.094,55.152,14.063,53.971z"/>
<path fill="#F0A429" d="M13.445,56.686c0,0,1.209,1.523,2.166,1.822C14.492,58.434,13.445,56.686,13.445,56.686z"/>
<path fill="#F0A429" d="M12.133,56.732c0,0,1.506,1.84,2.463,2.141C13.477,58.799,12.133,56.732,12.133,56.732z"/>
<path fill="#F0A429" d="M11.404,56.977c0,0,1.047,1.461,2.006,1.762C12.291,58.664,11.404,56.977,11.404,56.977z"/>
<path id="Path_103_" fill="#FFC940" d="M34.453,42.107c1.066,0.129,1.834,3.729,1.166,4.68c-0.096,0.133-0.645,0.344-1.051-0.494
	c-0.227-0.465-0.877-0.852-1.078-1.809C33.232,43.256,33.395,41.979,34.453,42.107z"/>
<path id="Path_102_" fill="#F0A429" d="M34.482,42.797c0.277,0.088,0.582,0.516,0.746,1.227c-0.973-0.211-0.729,1.422,0.115,1.453
	c-0.008,0.164-0.018,0.332-0.039,0.51c-0.406-0.596-0.82-0.355-1.229-1.244C33.707,43.943,33.795,42.58,34.482,42.797z"/>
<path id="Path_101_" fill="#FFC940" d="M51.568,42.107c-1.064,0.129-1.834,3.729-1.164,4.68c0.094,0.133,0.643,0.344,1.051-0.494
	c0.225-0.465,0.875-0.852,1.076-1.809C52.791,43.256,52.629,41.977,51.568,42.107z"/>
<path id="Path_100_" fill="#F0A429" d="M50.795,44.021c0.164-0.709,0.467-1.137,0.744-1.225c0.689-0.219,0.777,1.146,0.408,1.945
	c-0.41,0.889-0.822,0.648-1.23,1.244c-0.02-0.178-0.031-0.348-0.037-0.512C51.514,45.436,51.754,43.822,50.795,44.021z"/>
<path fill="#FFC940" d="M43.012,32.857c-5.822,0-8.627,4.404-8.275,10.529c0.07,1.23,0.834,4.047,1.557,5.488
	c1.273,2.545,4.6,4.443,6.719,4.443c2.117,0,5.447-1.898,6.719-4.443c0.723-1.441,1.486-4.258,1.557-5.488
	C51.639,37.262,48.834,32.857,43.012,32.857z"/>
<path id="Path_99_" fill="#F0A429" d="M44.369,46.828c-0.145-0.102-0.482,0.053-1.357,0.053c-0.877,0-1.215-0.154-1.359-0.053
	c-0.17,0.121,0.104,0.668,1.359,0.668C44.266,47.496,44.541,46.949,44.369,46.828z"/>
<path id="Path_98_" fill="#F0A429" d="M43.012,48.779c-1.313-0.387-3.258,0.184-3.258,0.184c0.74,0.807,1.283,1.854,3.258,1.854
	c2.262,0,2.646-1.189,3.258-1.854C46.27,48.963,44.322,48.391,43.012,48.779z"/>
<path id="Path_97_" fill="#FFFFFF" d="M40.242,49.1c1.375,1.154,4.154,1.162,5.539,0C44.314,49.162,41.719,49.162,40.242,49.1z"/>
<path id="Path_96_" fill="#FFFFFF" d="M41.756,43.83c0.047,0.375-0.205,0.816-0.908,1.148c-0.445,0.213-1.373,0.461-2.592-0.053
	c-0.545-0.23-1.078-0.949-1.029-1.346C37.887,42.336,41.137,42.152,41.756,43.83z"/>
<linearGradient id="Oval_5_" gradientUnits="userSpaceOnUse" x1="-422.4028" y1="475.4023" x2="-422.4028" y2="475.791" gradientTransform="matrix(6.5701 0 0 -6.5701 2814.7805 3168.5281)">
	<stop  offset="0" style="stop-color:#A6694A"/>
	<stop  offset="1" style="stop-color:#4F2A1E"/>
	<a:midPointStop  offset="0" style="stop-color:#A6694A"/>
	<a:midPointStop  offset="0.5" style="stop-color:#A6694A"/>
	<a:midPointStop  offset="1" style="stop-color:#4F2A1E"/>
</linearGradient>
<circle id="Oval_14_" fill="url(#Oval_5_)" cx="39.551" cy="43.807" r="1.277"/>
<path id="Path_95_" fill="#1A1626" d="M38.912,43.783c0,0.883,1.277,0.883,1.277,0C40.189,42.963,38.912,42.963,38.912,43.783z"/>
<path id="Path_94_" fill="#AB968C" d="M38.719,43.426c0,0.369,0.535,0.369,0.535,0C39.254,43.082,38.719,43.082,38.719,43.426z"/>
<path id="Path_93_" fill="#F0A429" d="M41.762,43.881c-0.518-1.668-4.055-1.422-4.535-0.301
	C37.404,42.146,41.32,41.766,41.762,43.881z"/>
<path id="Path_92_" fill="#FFFFFF" d="M44.268,43.83c-0.049,0.375,0.205,0.816,0.906,1.148c0.445,0.213,1.373,0.461,2.594-0.053
	c0.545-0.23,1.078-0.949,1.029-1.346C48.137,42.336,44.885,42.152,44.268,43.83z"/>
<linearGradient id="Oval_6_" gradientUnits="userSpaceOnUse" x1="-424.0522" y1="475.4023" x2="-424.0522" y2="475.791" gradientTransform="matrix(6.5701 0 0 -6.5701 2832.511 3168.5281)">
	<stop  offset="0" style="stop-color:#A6694A"/>
	<stop  offset="1" style="stop-color:#4F2A1E"/>
	<a:midPointStop  offset="0" style="stop-color:#A6694A"/>
	<a:midPointStop  offset="0.5" style="stop-color:#A6694A"/>
	<a:midPointStop  offset="1" style="stop-color:#4F2A1E"/>
</linearGradient>
<circle id="Oval_13_" fill="url(#Oval_6_)" cx="46.443" cy="43.807" r="1.277"/>
<path id="Path_91_" fill="#1A1626" d="M45.807,43.783c0,0.883,1.277,0.883,1.277,0C47.084,42.963,45.807,42.963,45.807,43.783z"/>
<path id="Path_90_" fill="#AB968C" d="M45.611,43.426c0,0.369,0.535,0.369,0.535,0C46.146,43.082,45.611,43.082,45.611,43.426z"/>
<path id="Path_89_" fill="#F0A429" d="M44.262,43.881c0.518-1.668,4.051-1.428,4.535-0.301
	C48.617,42.146,44.703,41.766,44.262,43.881z"/>
<path id="Path_88_" fill="#F0A429" d="M48.879,41.84c-1.098-0.693-3.311-0.895-4.178-0.539c-0.186,0.068-0.125,0.648,0.029,0.605
	c1.195-0.357,3.051-0.223,4.078,0.355C48.947,42.338,49.047,41.938,48.879,41.84z"/>
<path id="Path_87_" fill="#F0A429" d="M37.143,41.84c1.1-0.693,3.311-0.895,4.178-0.539c0.186,0.068,0.125,0.648-0.029,0.605
	c-1.195-0.357-3.049-0.223-4.08,0.357C37.074,42.338,36.975,41.938,37.143,41.84z"/>
<linearGradient id="SVGID_5_" gradientUnits="userSpaceOnUse" x1="43.0107" y1="45.4199" x2="43.0107" y2="31.6548">
	<stop  offset="0" style="stop-color:#473834"/>
	<stop  offset="0.2717" style="stop-color:#594640"/>
	<stop  offset="0.7226" style="stop-color:#715950"/>
	<stop  offset="1" style="stop-color:#7A6056"/>
	<a:midPointStop  offset="0" style="stop-color:#473834"/>
	<a:midPointStop  offset="0.4" style="stop-color:#473834"/>
	<a:midPointStop  offset="1" style="stop-color:#7A6056"/>
</linearGradient>
<path fill="url(#SVGID_5_)" d="M43.002,32.455c-0.525,0-1.012,0.035-1.48,0.084c0.195-0.205,0.438-0.361,0.773-0.424
	c-0.689-0.188-1.467-0.102-2.072,0.346c-0.127-0.215-0.18-0.494-0.053-0.807c-0.846,0.512-1.006,1.131-1.006,1.131
	c-0.242-0.391-0.254-0.902-0.254-0.902s-0.912,0.643-0.779,1.584c-0.814-0.354-1.498,0.059-1.498,0.059s0.4,0.172,0.592,0.529
	c-4.555,3.307-2.996,10.658-2.131,11.365c0,0,0.256-5.494,2.574-7.133c-0.125,1.037-0.402,1.768-0.402,1.768
	s2.275-0.359,4.279-1.637c-0.232,1.145-0.859,1.963-0.859,1.963s4.137-0.576,5.365-2.523c0,0,0.811,1.705,2.816,2.934
	c0,0,0.125-1.279-0.15-2.184c1.967,1.936,2.197,6.803,2.197,6.803C52.064,44.381,54.316,32.455,43.002,32.455z"/>
<path fill="#473834" d="M48.58,37.748l0.203,1.133c0,0,1.676,2.193,2.131,6.529C51.125,40.725,48.58,37.748,48.58,37.748z"/>
<path fill="#473834" d="M48.354,37.326c0,0,1.229,1.529,0.514,3.465C48.959,39.275,48.354,37.326,48.354,37.326z"/>
<path fill="#473834" d="M46.324,36.787c0.273,3.928-5.686,3.598-5.639,3.594C40.686,40.381,45.805,39.402,46.324,36.787z"/>
<path fill="#473834" d="M42.736,37.139c-1.119,3.168-5.229,2.895-5.471,2.916C37.266,40.055,40.939,38.992,42.736,37.139z"/>
<path fill="#473834" d="M38.01,37.879c-2.676,3.133-2.916,7.541-2.916,7.541S34.387,40.688,38.01,37.879z"/>
<path id="Path_973_" fill="#FFC940" d="M12.541,42.107c1.066,0.129,1.834,3.729,1.166,4.68c-0.096,0.133-0.645,0.344-1.051-0.494
	c-0.227-0.465-0.877-0.852-1.078-1.809C11.32,43.256,11.482,41.979,12.541,42.107z"/>
<path id="Path_972_" fill="#F0A429" d="M12.57,42.797c0.277,0.088,0.582,0.516,0.746,1.227c-0.973-0.211-0.729,1.422,0.115,1.453
	c-0.008,0.164-0.018,0.332-0.039,0.51c-0.406-0.596-0.82-0.355-1.229-1.244C11.795,43.943,11.883,42.58,12.57,42.797z"/>
<path id="Path_971_" fill="#FFC940" d="M29.656,42.107c-1.064,0.129-1.834,3.729-1.164,4.68c0.094,0.133,0.643,0.344,1.051-0.494
	c0.225-0.465,0.875-0.852,1.076-1.809C30.879,43.256,30.717,41.977,29.656,42.107z"/>
<path id="Path_918_" fill="#F0A429" d="M28.883,44.021c0.164-0.709,0.467-1.137,0.744-1.225c0.689-0.219,0.777,1.146,0.408,1.945
	c-0.41,0.889-0.822,0.648-1.23,1.244c-0.02-0.178-0.031-0.348-0.037-0.512C29.602,45.436,29.842,43.822,28.883,44.021z"/>
<path fill="#FFC940" d="M21.1,32.857c-5.822,0-8.627,4.404-8.275,10.529c0.07,1.23,0.834,4.047,1.557,5.488
	c1.273,2.545,4.6,4.443,6.719,4.443c2.117,0,5.447-1.898,6.719-4.443c0.723-1.441,1.486-4.258,1.557-5.488
	C29.727,37.262,26.922,32.857,21.1,32.857z"/>
<path id="Path_917_" fill="#F0A429" d="M22.457,46.828c-0.145-0.102-0.482,0.053-1.357,0.053c-0.877,0-1.215-0.154-1.359-0.053
	c-0.17,0.121,0.104,0.668,1.359,0.668C22.354,47.496,22.629,46.949,22.457,46.828z"/>
<path id="Path_916_" fill="#F0A429" d="M21.1,48.779c-1.313-0.387-3.258,0.184-3.258,0.184c0.74,0.807,1.283,1.854,3.258,1.854
	c2.262,0,2.646-1.189,3.258-1.854C24.357,48.963,22.41,48.391,21.1,48.779z"/>
<path id="Path_915_" fill="#FFFFFF" d="M18.33,49.1c1.375,1.154,4.154,1.162,5.539,0C22.402,49.162,19.807,49.162,18.33,49.1z"/>
<path id="Path_914_" fill="#FFFFFF" d="M19.844,43.83c0.047,0.375-0.205,0.816-0.908,1.148c-0.445,0.213-1.373,0.461-2.592-0.053
	c-0.545-0.23-1.078-0.949-1.029-1.346C15.975,42.336,19.225,42.152,19.844,43.83z"/>
<linearGradient id="Oval_7_" gradientUnits="userSpaceOnUse" x1="-425.7378" y1="475.4023" x2="-425.7378" y2="475.791" gradientTransform="matrix(6.5701 0 0 -6.5701 2814.7805 3168.5281)">
	<stop  offset="0" style="stop-color:#A6694A"/>
	<stop  offset="1" style="stop-color:#4F2A1E"/>
	<a:midPointStop  offset="0" style="stop-color:#A6694A"/>
	<a:midPointStop  offset="0.5" style="stop-color:#A6694A"/>
	<a:midPointStop  offset="1" style="stop-color:#4F2A1E"/>
</linearGradient>
<circle id="Oval_126_" fill="url(#Oval_7_)" cx="17.639" cy="43.807" r="1.277"/>
<path id="Path_913_" fill="#1A1626" d="M17,43.783c0,0.883,1.277,0.883,1.277,0C18.277,42.963,17,42.963,17,43.783z"/>
<path id="Path_912_" fill="#AB968C" d="M16.807,43.426c0,0.369,0.535,0.369,0.535,0C17.342,43.082,16.807,43.082,16.807,43.426z"/>
<path id="Path_911_" fill="#F0A429" d="M19.85,43.881c-0.518-1.668-4.055-1.422-4.535-0.301
	C15.492,42.146,19.408,41.766,19.85,43.881z"/>
<path id="Path_910_" fill="#FFFFFF" d="M22.355,43.83c-0.049,0.375,0.205,0.816,0.906,1.148c0.445,0.213,1.373,0.461,2.594-0.053
	c0.545-0.23,1.078-0.949,1.029-1.346C26.225,42.336,22.973,42.152,22.355,43.83z"/>
<linearGradient id="Oval_8_" gradientUnits="userSpaceOnUse" x1="-427.3872" y1="475.4023" x2="-427.3872" y2="475.791" gradientTransform="matrix(6.5701 0 0 -6.5701 2832.511 3168.5281)">
	<stop  offset="0" style="stop-color:#A6694A"/>
	<stop  offset="1" style="stop-color:#4F2A1E"/>
	<a:midPointStop  offset="0" style="stop-color:#A6694A"/>
	<a:midPointStop  offset="0.5" style="stop-color:#A6694A"/>
	<a:midPointStop  offset="1" style="stop-color:#4F2A1E"/>
</linearGradient>
<circle id="Oval_125_" fill="url(#Oval_8_)" cx="24.531" cy="43.807" r="1.277"/>
<path id="Path_909_" fill="#1A1626" d="M23.895,43.783c0,0.883,1.277,0.883,1.277,0C25.172,42.963,23.895,42.963,23.895,43.783z"/>
<path id="Path_908_" fill="#AB968C" d="M23.699,43.426c0,0.369,0.535,0.369,0.535,0C24.234,43.082,23.699,43.082,23.699,43.426z"/>
<path id="Path_907_" fill="#F0A429" d="M22.35,43.881c0.518-1.668,4.051-1.428,4.535-0.301
	C26.705,42.146,22.791,41.766,22.35,43.881z"/>
<path id="Path_906_" fill="#F0A429" d="M26.967,41.84c-1.098-0.693-3.311-0.895-4.178-0.539c-0.186,0.068-0.125,0.648,0.029,0.605
	c1.195-0.357,3.051-0.223,4.078,0.355C27.035,42.338,27.135,41.938,26.967,41.84z"/>
<path id="Path_905_" fill="#F0A429" d="M15.23,41.84c1.1-0.693,3.311-0.895,4.178-0.539c0.186,0.068,0.125,0.648-0.029,0.605
	c-1.195-0.357-3.049-0.223-4.08,0.357C15.162,42.338,15.063,41.938,15.23,41.84z"/>
<linearGradient id="SVGID_6_" gradientUnits="userSpaceOnUse" x1="21.0991" y1="45.4199" x2="21.0991" y2="31.6548">
	<stop  offset="0" style="stop-color:#473834"/>
	<stop  offset="0.2717" style="stop-color:#594640"/>
	<stop  offset="0.7226" style="stop-color:#715950"/>
	<stop  offset="1" style="stop-color:#7A6056"/>
	<a:midPointStop  offset="0" style="stop-color:#473834"/>
	<a:midPointStop  offset="0.4" style="stop-color:#473834"/>
	<a:midPointStop  offset="1" style="stop-color:#7A6056"/>
</linearGradient>
<path fill="url(#SVGID_6_)" d="M21.09,32.455c-0.525,0-1.012,0.035-1.48,0.084c0.195-0.205,0.438-0.361,0.773-0.424
	c-0.689-0.188-1.467-0.102-2.072,0.346c-0.127-0.215-0.18-0.494-0.053-0.807c-0.846,0.512-1.006,1.131-1.006,1.131
	c-0.242-0.391-0.254-0.902-0.254-0.902s-0.912,0.643-0.779,1.584c-0.814-0.354-1.498,0.059-1.498,0.059s0.4,0.172,0.592,0.529
	c-4.555,3.307-2.996,10.658-2.131,11.365c0,0,0.256-5.494,2.574-7.133c-0.125,1.037-0.402,1.768-0.402,1.768
	s2.275-0.359,4.279-1.637c-0.232,1.145-0.859,1.963-0.859,1.963s4.137-0.576,5.365-2.523c0,0,0.811,1.705,2.816,2.934
	c0,0,0.125-1.279-0.15-2.184c1.967,1.936,2.197,6.803,2.197,6.803C30.152,44.381,32.404,32.455,21.09,32.455z"/>
<path fill="#473834" d="M26.668,37.748l0.203,1.133c0,0,1.676,2.193,2.131,6.529C29.213,40.725,26.668,37.748,26.668,37.748z"/>
<path fill="#473834" d="M26.441,37.326c0,0,1.229,1.529,0.514,3.465C27.047,39.275,26.441,37.326,26.441,37.326z"/>
<path fill="#473834" d="M24.412,36.787c0.273,3.928-5.686,3.598-5.639,3.594C18.773,40.381,23.893,39.402,24.412,36.787z"/>
<path fill="#473834" d="M20.824,37.139c-1.119,3.168-5.229,2.895-5.471,2.916C15.354,40.055,19.027,38.992,20.824,37.139z"/>
<path fill="#473834" d="M16.098,37.879c-2.676,3.133-2.916,7.541-2.916,7.541S12.475,40.688,16.098,37.879z"/>
</svg>
