<?xml version="1.0" encoding="utf-8"?>
<!-- Generator: Adobe Illustrator 15.0.0, SVG Export Plug-In . SVG Version: 6.00 Build 0)  -->
<!DOCTYPE svg PUBLIC "-//W3C//DTD SVG 1.1//EN" "http://www.w3.org/Graphics/SVG/1.1/DTD/svg11.dtd" [
	<!ENTITY ns_flows "http://ns.adobe.com/Flows/1.0/">
	<!ENTITY ns_extend "http://ns.adobe.com/Extensibility/1.0/">
	<!ENTITY ns_ai "http://ns.adobe.com/AdobeIllustrator/10.0/">
	<!ENTITY ns_graphs "http://ns.adobe.com/Graphs/1.0/">
]>
<svg version="1.1" id="Layer_1" xmlns:x="&ns_extend;" xmlns:i="&ns_ai;" xmlns:graph="&ns_graphs;"
	 xmlns="http://www.w3.org/2000/svg" xmlns:xlink="http://www.w3.org/1999/xlink" xmlns:a="http://ns.adobe.com/AdobeSVGViewerExtensions/3.0/"
	 x="0px" y="0px" width="64px" height="64px" viewBox="0 0 64 64" enable-background="new 0 0 64 64" xml:space="preserve">
<path fill="#473834" d="M22.068,60.447C33.104,56.033,32,45.551,32,45.551H1.104c0,0-1.104,10.482,9.929,14.896
	c0,0,2.208,0.553,5.519,0.553S22.068,60.447,22.068,60.447z"/>
<path fill="#FFC940" d="M16.552,29.552c-8.006,0-11.862,6.52-11.381,14.904c0.1,1.685,0.568,4.114,1.146,6.198
	c1.202,4.33,7.538,8.689,10.235,8.689c2.698,0,9.033-4.359,10.235-8.689c0.579-2.084,1.048-4.514,1.146-6.198
	C28.415,36.072,24.561,29.552,16.552,29.552z"/>
<path fill="#D47706" d="M16.552,52.537c-1.877-0.824-1.892-0.033-4.789,0.162c1.087,1.234,1.89,2.822,4.787,2.822
	c3.327,0,3.89-1.803,4.792-2.822C18.441,52.504,18.429,51.713,16.552,52.537z"/>
<path fill="#FFFFFF" d="M12.634,53.006c1.892,1.969,5.969,1.943,7.837,0.002C17.559,53.32,15.546,53.32,12.634,53.006z"/>
<path fill="#966F42" d="M25.061,41.666c-1.739-1.037-4.86-1.164-6.094-0.457C18.704,41.352,18.775,42.1,19,42.006
	c1.761-0.732,4.443-0.769,6.098,0.08C25.318,42.197,25.323,41.816,25.061,41.666z"/>
<path fill="#966F42" d="M8.044,41.666c1.739-1.037,4.858-1.164,6.096-0.457c0.263,0.143,0.191,0.891-0.035,0.797
	c-1.763-0.732-4.442-0.77-6.099,0.08C7.785,42.197,7.781,41.816,8.044,41.666z"/>
<path fill="#F0A429" d="M18.353,49.877c-0.192-0.133-0.638,0.073-1.801,0.073c-1.162,0-1.61-0.206-1.8-0.073
	c-0.229,0.16,0.134,0.887,1.8,0.887C18.217,50.764,18.581,50.039,18.353,49.877z"/>
<path id="Path_25_" fill="#FFFFFF" d="M14.771,44.813c0.069,0.529-0.291,1.156-1.287,1.627c-0.634,0.301-1.948,0.652-3.677-0.077
	c-0.775-0.327-1.531-1.344-1.463-1.906C9.281,42.689,13.894,42.43,14.771,44.813z"/>
<linearGradient id="Oval_5_" gradientUnits="userSpaceOnUse" x1="-426.6509" y1="475.1738" x2="-426.6509" y2="475.7246" gradientTransform="matrix(6.5701 0 0 -6.5701 2814.7805 3168.5281)">
	<stop  offset="0" style="stop-color:#A6694A"/>
	<stop  offset="1" style="stop-color:#4F2A1E"/>
	<a:midPointStop  offset="0" style="stop-color:#A6694A"/>
	<a:midPointStop  offset="0.5" style="stop-color:#A6694A"/>
	<a:midPointStop  offset="1" style="stop-color:#4F2A1E"/>
</linearGradient>
<circle id="Oval_4_" fill="url(#Oval_5_)" cx="11.64" cy="44.776" r="1.812"/>
<path id="Path_24_" fill="#1A1626" d="M10.735,44.742c0,1.254,1.813,1.254,1.813,0C12.548,43.579,10.735,43.579,10.735,44.742z"/>
<path id="Path_23_" fill="#AB968C" d="M10.46,44.235c0,0.526,0.759,0.526,0.759,0C11.219,43.748,10.46,43.748,10.46,44.235z"/>
<path id="Path_22_" fill="#45332C" d="M14.779,44.881c-0.735-2.364-5.752-2.016-6.436-0.425
	C8.596,42.42,14.152,41.881,14.779,44.881z"/>
<path id="Path_21_" fill="#FFFFFF" d="M18.333,44.813c-0.068,0.529,0.292,1.156,1.288,1.627c0.633,0.301,1.947,0.652,3.679-0.077
	c0.775-0.327,1.529-1.344,1.461-1.906C23.825,42.689,19.21,42.43,18.333,44.813z"/>
<linearGradient id="Oval_6_" gradientUnits="userSpaceOnUse" x1="-427.8608" y1="475.1738" x2="-427.8608" y2="475.7246" gradientTransform="matrix(6.5701 0 0 -6.5701 2832.511 3168.5281)">
	<stop  offset="0" style="stop-color:#A6694A"/>
	<stop  offset="1" style="stop-color:#4F2A1E"/>
	<a:midPointStop  offset="0" style="stop-color:#A6694A"/>
	<a:midPointStop  offset="0.5" style="stop-color:#A6694A"/>
	<a:midPointStop  offset="1" style="stop-color:#4F2A1E"/>
</linearGradient>
<circle id="Oval_3_" fill="url(#Oval_6_)" cx="21.423" cy="44.776" r="1.812"/>
<path id="Path_20_" fill="#1A1626" d="M20.519,44.742c0,1.254,1.813,1.254,1.813,0C22.331,43.579,20.519,43.579,20.519,44.742z"/>
<path id="Path_19_" fill="#AB968C" d="M20.241,44.235c0,0.526,0.761,0.526,0.761,0C21.002,43.748,20.241,43.748,20.241,44.235z"/>
<path id="Path_18_" fill="#45332C" d="M18.325,44.881c0.735-2.363,5.75-2.024,6.436-0.425C24.506,42.42,18.952,41.881,18.325,44.881
	z"/>
<linearGradient id="SVGID_1_" gradientUnits="userSpaceOnUse" x1="16.5522" y1="60.4473" x2="16.5522" y2="27.8965">
	<stop  offset="0.05" style="stop-color:#473834"/>
	<stop  offset="0.2266" style="stop-color:#594640"/>
	<stop  offset="0.5197" style="stop-color:#715950"/>
	<stop  offset="0.7" style="stop-color:#7A6056"/>
	<a:midPointStop  offset="0.05" style="stop-color:#473834"/>
	<a:midPointStop  offset="0.4" style="stop-color:#473834"/>
	<a:midPointStop  offset="0.7" style="stop-color:#7A6056"/>
</linearGradient>
<path fill="url(#SVGID_1_)" d="M25.563,30.723c0.915-1.305-6.829-4.063-14.142-2.2C4.119,30.196,0,41.139,0,48.295
	c0,4.797,3.862,11.049,11.033,12.152C3.134,54.916,4.408,49.43,6.621,42.794c5.485-3.177,11.691-3.923,16-7.726
	c-0.553,1.656,2.368,3.744,3.862,7.726c2.267,6.046,3.434,12.16-4.415,17.653c6.621-1.104,11.036-7.355,11.036-12.152
	C33.104,42.242,28.491,29.877,25.563,30.723z"/>
<path fill="#473834" d="M1.316,47.206c5.053-6.728,21.417-6.271,24.246-16.483C20.068,39.294,2.696,40.74,1.316,47.206z"/>
<path fill="#473834" d="M52.965,60.447C64,56.033,62.897,45.551,62.897,45.551H32c0,0-1.103,10.482,9.932,14.896
	c0,0,2.206,0.553,5.517,0.553S52.965,60.447,52.965,60.447z"/>
<path fill="#FFC940" d="M47.448,29.552c-8.007,0-11.863,6.52-11.382,14.904c0.101,1.685,0.569,4.114,1.148,6.198
	c1.2,4.33,7.535,8.689,10.233,8.689c2.697,0,9.033-4.359,10.235-8.689c0.579-2.084,1.048-4.514,1.147-6.198
	C59.311,36.072,55.456,29.552,47.448,29.552z"/>
<path fill="#D47706" d="M47.448,52.537c-1.877-0.824-1.892-0.033-4.788,0.162c1.088,1.234,1.888,2.822,4.786,2.822
	c3.329,0,3.892-1.803,4.791-2.822C49.338,52.504,49.325,51.713,47.448,52.537z"/>
<path fill="#FFFFFF" d="M43.529,53.006c1.892,1.969,5.971,1.943,7.837,0.002C48.456,53.32,46.441,53.32,43.529,53.006z"/>
<path fill="#966F42" d="M55.956,41.666c-1.739-1.037-4.86-1.164-6.094-0.457c-0.263,0.143-0.191,0.891,0.035,0.797
	c1.761-0.732,4.444-0.769,6.097,0.08C56.215,42.197,56.221,41.816,55.956,41.666z"/>
<path fill="#966F42" d="M38.939,41.666c1.739-1.037,4.86-1.164,6.096-0.457c0.263,0.143,0.192,0.891-0.035,0.797
	c-1.761-0.732-4.441-0.77-6.096,0.08C38.682,42.197,38.677,41.816,38.939,41.666z"/>
<path fill="#F0A429" d="M49.248,49.877c-0.189-0.133-0.638,0.073-1.8,0.073c-1.163,0-1.608-0.206-1.801-0.073
	c-0.229,0.16,0.136,0.887,1.801,0.887C49.112,50.764,49.478,50.039,49.248,49.877z"/>
<path id="Path_52_" fill="#FFFFFF" d="M45.667,44.813c0.068,0.529-0.292,1.156-1.288,1.627c-0.631,0.301-1.947,0.652-3.677-0.077
	c-0.775-0.327-1.531-1.344-1.463-1.906C40.177,42.689,44.79,42.43,45.667,44.813z"/>
<linearGradient id="Oval_7_" gradientUnits="userSpaceOnUse" x1="-421.9482" y1="475.1738" x2="-421.9482" y2="475.7246" gradientTransform="matrix(6.5701 0 0 -6.5701 2814.7805 3168.5281)">
	<stop  offset="0" style="stop-color:#A6694A"/>
	<stop  offset="1" style="stop-color:#4F2A1E"/>
	<a:midPointStop  offset="0" style="stop-color:#A6694A"/>
	<a:midPointStop  offset="0.5" style="stop-color:#A6694A"/>
	<a:midPointStop  offset="1" style="stop-color:#4F2A1E"/>
</linearGradient>
<circle id="Oval_2_" fill="url(#Oval_7_)" cx="42.537" cy="44.776" r="1.812"/>
<path id="Path_51_" fill="#1A1626" d="M41.631,44.742c0,1.254,1.813,1.254,1.813,0C43.443,43.579,41.631,43.579,41.631,44.742z"/>
<path id="Path_50_" fill="#AB968C" d="M41.356,44.235c0,0.526,0.76,0.526,0.76,0C42.116,43.748,41.356,43.748,41.356,44.235z"/>
<path id="Path_49_" fill="#45332C" d="M45.677,44.881c-0.737-2.364-5.754-2.016-6.438-0.425
	C39.494,42.42,45.05,41.881,45.677,44.881z"/>
<path id="Path_48_" fill="#FFFFFF" d="M49.229,44.813c-0.067,0.529,0.293,1.156,1.289,1.627c0.632,0.301,1.948,0.652,3.678-0.077
	c0.774-0.327,1.528-1.344,1.462-1.906C54.721,42.689,50.106,42.43,49.229,44.813z"/>
<linearGradient id="Oval_8_" gradientUnits="userSpaceOnUse" x1="-423.1582" y1="475.1738" x2="-423.1582" y2="475.7246" gradientTransform="matrix(6.5701 0 0 -6.5701 2832.511 3168.5281)">
	<stop  offset="0" style="stop-color:#A6694A"/>
	<stop  offset="1" style="stop-color:#4F2A1E"/>
	<a:midPointStop  offset="0" style="stop-color:#A6694A"/>
	<a:midPointStop  offset="0.5" style="stop-color:#A6694A"/>
	<a:midPointStop  offset="1" style="stop-color:#4F2A1E"/>
</linearGradient>
<circle id="Oval_1_" fill="url(#Oval_8_)" cx="52.318" cy="44.776" r="1.812"/>
<path id="Path_47_" fill="#1A1626" d="M51.415,44.742c0,1.254,1.813,1.254,1.813,0C53.228,43.579,51.415,43.579,51.415,44.742z"/>
<path id="Path_46_" fill="#AB968C" d="M51.138,44.235c0,0.526,0.76,0.526,0.76,0C51.897,43.748,51.138,43.748,51.138,44.235z"/>
<path id="Path_45_" fill="#45332C" d="M49.223,44.881c0.735-2.363,5.748-2.024,6.436-0.425
	C55.404,42.42,49.848,41.881,49.223,44.881z"/>
<linearGradient id="SVGID_2_" gradientUnits="userSpaceOnUse" x1="47.4482" y1="60.4473" x2="47.4482" y2="27.8965">
	<stop  offset="0.05" style="stop-color:#473834"/>
	<stop  offset="0.2266" style="stop-color:#594640"/>
	<stop  offset="0.5197" style="stop-color:#715950"/>
	<stop  offset="0.7" style="stop-color:#7A6056"/>
	<a:midPointStop  offset="0.05" style="stop-color:#473834"/>
	<a:midPointStop  offset="0.4" style="stop-color:#473834"/>
	<a:midPointStop  offset="0.7" style="stop-color:#7A6056"/>
</linearGradient>
<path fill="url(#SVGID_2_)" d="M56.46,30.723c0.915-1.305-6.831-4.063-14.142-2.2c-7.304,1.673-11.421,12.616-11.421,19.772
	c0,4.797,3.861,11.049,11.034,12.152c-7.902-5.531-6.625-11.018-4.413-17.653c5.483-3.177,11.691-3.923,16-7.726
	c-0.552,1.656,2.367,3.744,3.86,7.726c2.269,6.046,3.436,12.16-4.414,17.653C59.588,59.344,64,53.092,64,48.295
	C64,42.242,59.388,29.877,56.46,30.723z"/>
<path fill="#473834" d="M32.213,47.206c5.052-6.728,21.416-6.271,24.247-16.483C50.967,39.294,33.594,40.74,32.213,47.206z"/>
<linearGradient id="SVGID_3_" gradientUnits="userSpaceOnUse" x1="-96.8574" y1="-214.9829" x2="-102.1217" y2="-186.8978" gradientTransform="matrix(1 0 0 1 130.9756 214.9409)">
	<stop  offset="0" style="stop-color:#FF666B"/>
	<stop  offset="0.1751" style="stop-color:#FB5B5F"/>
	<stop  offset="0.4917" style="stop-color:#F03D3F"/>
	<stop  offset="0.9112" style="stop-color:#DF0C0C"/>
	<stop  offset="1" style="stop-color:#DB0100"/>
	<a:midPointStop  offset="0" style="stop-color:#FF666B"/>
	<a:midPointStop  offset="0.5758" style="stop-color:#FF666B"/>
	<a:midPointStop  offset="1" style="stop-color:#DB0100"/>
</linearGradient>
<path fill="url(#SVGID_3_)" d="M31.999,6.864c-4.196-6.819-15.804-4.157-15.807,4.41c0,5.148,4.319,8.785,12.746,15.594
	c2.858,2.309,3.265,2.31,6.125,0c8.421-6.811,12.742-10.444,12.744-15.597C47.808,2.708,36.195,0.045,31.999,6.864z"/>
</svg>
