<?xml version="1.0" encoding="utf-8"?>
<!-- Generator: Adobe Illustrator 15.0.0, SVG Export Plug-In . SVG Version: 6.00 Build 0)  -->
<!DOCTYPE svg PUBLIC "-//W3C//DTD SVG 1.1//EN" "http://www.w3.org/Graphics/SVG/1.1/DTD/svg11.dtd" [
	<!ENTITY ns_flows "http://ns.adobe.com/Flows/1.0/">
	<!ENTITY ns_extend "http://ns.adobe.com/Extensibility/1.0/">
	<!ENTITY ns_ai "http://ns.adobe.com/AdobeIllustrator/10.0/">
	<!ENTITY ns_graphs "http://ns.adobe.com/Graphs/1.0/">
]>
<svg version="1.1" id="Layer_1" xmlns:x="&ns_extend;" xmlns:i="&ns_ai;" xmlns:graph="&ns_graphs;"
	 xmlns="http://www.w3.org/2000/svg" xmlns:xlink="http://www.w3.org/1999/xlink" xmlns:a="http://ns.adobe.com/AdobeSVGViewerExtensions/3.0/"
	 x="0px" y="0px" width="64px" height="64px" viewBox="0 0 64 64" enable-background="new 0 0 64 64" xml:space="preserve">
<path fill="#3A8FB0" d="M58.171,31.724c-1.271-1.646-7.426-3.657-7.426-3.657l-11.658,0.019c0,0-6.119,2.006-7.387,3.642
	c-2.084,2.688-2.85,5.357-2.85,5.357l4.934,3L33.786,58h22.266L56.05,45.084l4.932-4.93C60.981,40.154,60.251,34.414,58.171,31.724z
	"/>
<path fill="#007EB0" d="M39.087,28.085c0,4.888,11.658,4.868,11.658-0.019l-1.17-0.413h-9.27L39.087,28.085z"/>
<path fill="#F5BB51" d="M39.921,27.79c0,3.826,9.992,3.826,9.992,0c0-1.302,0-4.233,0-4.233h-9.992
	C39.921,23.557,39.921,26.488,39.921,27.79z"/>
<path fill="#302C3B" d="M33.786,58v3.525c16.512-0.48,22.266-0.464,22.266-2.287c0-1,0-1.238,0-1.238H33.786z"/>
<path fill="#3AB0A2" d="M5.829,31.724c1.271-1.646,7.426-3.657,7.426-3.657l11.658,0.019c0,0,6.119,2.006,7.387,3.642
	c2.084,2.688,1.85,5.916,1.85,5.916l-3.934,2.441L30.214,58H7.948L7.95,45.084l-4.932-4.93C3.019,40.154,3.749,34.414,5.829,31.724z
	"/>
<path fill="#2B998D" d="M24.913,28.085c0,4.888-11.658,4.868-11.658-0.019l1.17-0.413h9.27L24.913,28.085z"/>
<path fill="#F5BB51" d="M24.079,27.79c0,3.826-9.992,3.826-9.992,0c0-1.302,0-4.233,0-4.233h9.992
	C24.079,23.557,24.079,26.488,24.079,27.79z"/>
<path fill="#302C3B" d="M30.214,58v3.525c-16.512-0.48-22.266-0.464-22.266-2.287c0-1,0-1.238,0-1.238H30.214z"/>
<path fill="#F5BB51" d="M28.462,41.33c1.027-2.819,5.584-3.688,5.584-3.688s-0.26,3.695-0.26,7.625
	C31.253,44.949,28.462,41.33,28.462,41.33z"/>
<path id="Path_1153_" fill="#FFC940" d="M55.073,13.998c-1.572,0.191-2.707,5.455-1.721,6.844c0.141,0.194,0.951,0.504,1.551-0.723
	c0.332-0.678,1.293-1.244,1.59-2.646C56.874,15.68,56.638,13.809,55.073,13.998z"/>
<path id="Path_1152_" fill="#FFC940" d="M34.765,13.998c1.572,0.191,2.707,5.455,1.717,6.844c-0.137,0.194-0.947,0.504-1.549-0.723
	c-0.332-0.678-1.293-1.244-1.59-2.646C32.962,15.68,33.2,13.809,34.765,13.998z"/>
<path id="Path_1151_" fill="#F0A429" d="M55.028,15.008c-0.408,0.129-0.855,0.754-1.1,1.792c1.434-0.308,1.076,2.08-0.17,2.125
	c0.012,0.24,0.027,0.487,0.057,0.747c0.602-0.872,1.211-0.521,1.814-1.818C56.175,16.684,56.046,14.688,55.028,15.008z"/>
<path id="Path_1150_" fill="#F0A429" d="M35.907,16.797c-0.242-1.036-0.689-1.661-1.1-1.789c-1.016-0.319-1.146,1.676-0.602,2.846
	c0.604,1.297,1.215,0.946,1.816,1.818c0.029-0.26,0.045-0.508,0.055-0.748C34.845,18.865,34.491,16.507,35.907,16.797z"/>
<path id="Path_1149_" fill="#FFC940" d="M44.917,3.878c-6.809,0-10.09,5.152-9.68,12.317c0.082,1.441,0.975,6.144,1.818,7.83
	c0.865,1.727,3.752,4.387,5.521,4.938c1.117,0.348,3.566,0.348,4.682,0c1.77-0.551,4.66-3.211,5.521-4.938
	c0.846-1.687,1.738-6.388,1.82-7.83C55.011,9.03,51.731,3.878,44.917,3.878z"/>
<path id="Path_1135_" fill="#966F42" d="M52.317,13.473c-1.557-0.824-4.537-0.865-5.648-0.29c-0.238,0.11-0.08,0.893,0.119,0.818
	c1.547-0.612,4.045-0.626,5.492,0.052C52.474,14.142,52.554,13.588,52.317,13.473z"/>
<path id="Path_1134_" fill="#966F42" d="M37.517,13.473c1.561-0.824,4.539-0.865,5.65-0.29c0.238,0.11,0.08,0.893-0.119,0.818
	c-1.551-0.612-4.043-0.626-5.494,0.052C37.362,14.142,37.282,13.588,37.517,13.473z"/>
<path id="Path_1133_" fill="#F0A429" d="M46.757,20.628c-0.193-0.136-0.65,0.073-1.84,0.073c-1.186,0-1.643-0.209-1.836-0.073
	c-0.234,0.164,0.137,0.905,1.836,0.905C46.62,21.533,46.989,20.792,46.757,20.628z"/>
<path id="Path_1132_" fill="#F0A429" d="M44.917,23.436c-1.529-0.45-3.801,0.213-3.801,0.213c0.863,0.942,1.498,2.164,3.801,2.164
	c2.641,0,3.09-1.388,3.803-2.164C48.72,23.648,46.448,22.982,44.917,23.436z"/>
<path id="Path_1131_" fill="#FFFFFF" d="M41.687,23.809c1.605,1.348,4.848,1.356,6.463,0C46.44,23.882,43.411,23.883,41.687,23.809z
	"/>
<path id="Path_1130_" fill="#FFFFFF" d="M43.403,16.283c0.057,0.451-0.248,0.986-1.096,1.387c-0.537,0.255-1.658,0.555-3.129-0.066
	c-0.66-0.277-1.301-1.144-1.244-1.622C38.731,14.478,42.657,14.258,43.403,16.283z"/>
<linearGradient id="Oval_1_" gradientUnits="userSpaceOnUse" x1="-437.8213" y1="479.5557" x2="-437.8213" y2="480.0254" gradientTransform="matrix(6.5701 0 0 -6.5701 2917.2688 3168.5281)">
	<stop  offset="0" style="stop-color:#A6694A"/>
	<stop  offset="1" style="stop-color:#4F2A1E"/>
	<a:midPointStop  offset="0" style="stop-color:#A6694A"/>
	<a:midPointStop  offset="0.5" style="stop-color:#A6694A"/>
	<a:midPointStop  offset="1" style="stop-color:#4F2A1E"/>
</linearGradient>
<circle id="Oval_148_" fill="url(#Oval_1_)" cx="40.739" cy="16.254" r="1.542"/>
<path id="Path_1129_" fill="#1A1626" d="M39.97,16.226c0,1.066,1.541,1.066,1.541,0C41.511,15.235,39.97,15.235,39.97,16.226z"/>
<path id="Path_1128_" fill="#AB968C" d="M39.735,15.793c0,0.447,0.646,0.447,0.646,0C40.382,15.379,39.735,15.379,39.735,15.793z"/>
<path id="Path_1127_" fill="#F0A429" d="M43.411,16.344c-0.629-2.013-4.896-1.716-5.477-0.362
	C38.149,14.248,42.878,13.791,43.411,16.344z"/>
<path id="Path_1126_" fill="#FFFFFF" d="M46.433,16.283c-0.057,0.451,0.248,0.986,1.096,1.387c0.539,0.255,1.658,0.555,3.131-0.066
	c0.658-0.277,1.301-1.144,1.242-1.622C51.106,14.478,47.181,14.258,46.433,16.283z"/>
<linearGradient id="Oval_2_" gradientUnits="userSpaceOnUse" x1="-439.2534" y1="479.5557" x2="-439.2534" y2="480.0254" gradientTransform="matrix(6.5701 0 0 -6.5701 2934.9993 3168.5281)">
	<stop  offset="0" style="stop-color:#A6694A"/>
	<stop  offset="1" style="stop-color:#4F2A1E"/>
	<a:midPointStop  offset="0" style="stop-color:#A6694A"/>
	<a:midPointStop  offset="0.5" style="stop-color:#A6694A"/>
	<a:midPointStop  offset="1" style="stop-color:#4F2A1E"/>
</linearGradient>
<circle id="Oval_147_" fill="url(#Oval_2_)" cx="49.062" cy="16.254" r="1.542"/>
<path id="Path_1125_" fill="#1A1626" d="M48.29,16.226c0,1.066,1.543,1.066,1.543,0C49.833,15.235,48.29,15.235,48.29,16.226z"/>
<path id="Path_1124_" fill="#AB968C" d="M48.056,15.793c0,0.447,0.648,0.447,0.648,0C48.704,15.379,48.056,15.379,48.056,15.793z"/>
<path id="Path_1123_" fill="#F0A429" d="M46.427,16.344c0.625-2.012,4.891-1.724,5.475-0.362
	C51.685,14.248,46.96,13.791,46.427,16.344z"/>
<path fill="#7A6056" d="M53.618,5.585C52.126,3.567,49.397,2,44.917,2c-4.479,0-7.207,1.567-8.697,3.585
	C34.11,8.441,55.728,8.441,53.618,5.585z"/>
<linearGradient id="SVGID_1_" gradientUnits="userSpaceOnUse" x1="-57.5732" y1="17.958" x2="-57.5732" y2="4.7305" gradientTransform="matrix(1 0 0 1 102.4922 0)">
	<stop  offset="0.5" style="stop-color:#473834"/>
	<stop  offset="0.6387" style="stop-color:#503F3A"/>
	<stop  offset="0.8641" style="stop-color:#68524A"/>
	<stop  offset="1" style="stop-color:#7A6056"/>
	<a:midPointStop  offset="0.5" style="stop-color:#473834"/>
	<a:midPointStop  offset="0.6" style="stop-color:#473834"/>
	<a:midPointStop  offset="1" style="stop-color:#7A6056"/>
</linearGradient>
<path fill="url(#SVGID_1_)" d="M53.618,5.585c-1.492-2.018-4.221,0.17-8.701,0.17c-4.479,0-7.207-2.188-8.697-0.17
	c-2.109,2.856-1.393,12.373-0.455,12.373c0.15,0,0.17-3.33,0.455-5.633c0.23-1.875,0.678-3.692,1.188-3.99
	c1.564-0.907,4.58,0.391,7.51,0.391c2.934,0,5.949-1.298,7.512-0.391c0.512,0.298,0.957,2.115,1.189,3.99
	c0.283,2.303,0.303,5.633,0.455,5.633C55.011,17.958,55.728,8.441,53.618,5.585z"/>
<path id="Path_1122_" fill="#FFC940" d="M29.237,13.998c-1.572,0.191-2.707,5.455-1.721,6.844c0.141,0.194,0.951,0.504,1.551-0.723
	c0.332-0.678,1.293-1.244,1.59-2.646C31.038,15.68,30.802,13.809,29.237,13.998z"/>
<path id="Path_1121_" fill="#FFC940" d="M8.929,13.998c1.572,0.191,2.707,5.455,1.717,6.844c-0.137,0.194-0.947,0.504-1.549-0.723
	c-0.332-0.678-1.293-1.244-1.59-2.646C7.126,15.68,7.364,13.809,8.929,13.998z"/>
<path id="Path_1120_" fill="#F0A429" d="M29.192,15.008c-0.408,0.129-0.855,0.754-1.1,1.792c1.434-0.308,1.076,2.08-0.17,2.125
	c0.012,0.24,0.027,0.487,0.057,0.747c0.602-0.872,1.211-0.521,1.814-1.818C30.339,16.684,30.21,14.688,29.192,15.008z"/>
<path id="Path_1119_" fill="#F0A429" d="M10.071,16.797c-0.242-1.036-0.689-1.661-1.1-1.789c-1.016-0.319-1.146,1.676-0.602,2.846
	c0.604,1.297,1.215,0.946,1.816,1.818c0.029-0.26,0.045-0.508,0.055-0.748C9.009,18.865,8.655,16.507,10.071,16.797z"/>
<path id="Path_1118_" fill="#FFC940" d="M19.081,3.878c-6.809,0-10.09,5.152-9.68,12.317c0.082,1.441,0.975,6.144,1.818,7.83
	c0.865,1.727,3.752,4.387,5.521,4.938c1.117,0.348,3.566,0.348,4.682,0c1.77-0.551,4.66-3.211,5.521-4.938
	c0.846-1.687,1.738-6.388,1.82-7.83C29.175,9.03,25.896,3.878,19.081,3.878z"/>
<path id="Path_1117_" fill="#966F42" d="M26.481,13.473c-1.557-0.824-4.537-0.865-5.648-0.29c-0.238,0.11-0.08,0.893,0.119,0.818
	c1.547-0.612,4.045-0.626,5.492,0.052C26.638,14.142,26.718,13.588,26.481,13.473z"/>
<path id="Path_1116_" fill="#966F42" d="M11.681,13.473c1.561-0.824,4.539-0.865,5.65-0.29c0.238,0.11,0.08,0.893-0.119,0.818
	c-1.551-0.612-4.043-0.626-5.494,0.052C11.526,14.142,11.446,13.588,11.681,13.473z"/>
<path id="Path_1115_" fill="#F0A429" d="M20.921,20.628c-0.193-0.136-0.65,0.073-1.84,0.073c-1.186,0-1.643-0.209-1.836-0.073
	c-0.234,0.164,0.137,0.905,1.836,0.905C20.784,21.533,21.153,20.792,20.921,20.628z"/>
<path id="Path_1114_" fill="#F0A429" d="M19.081,23.436c-1.529-0.45-3.801,0.213-3.801,0.213c0.863,0.942,1.498,2.164,3.801,2.164
	c2.641,0,3.09-1.388,3.803-2.164C22.884,23.648,20.612,22.982,19.081,23.436z"/>
<path id="Path_1113_" fill="#FFFFFF" d="M15.851,23.809c1.605,1.348,4.848,1.356,6.463,0C20.604,23.882,17.575,23.883,15.851,23.809
	z"/>
<path id="Path_1112_" fill="#FFFFFF" d="M17.567,16.283c0.057,0.451-0.248,0.986-1.096,1.387c-0.537,0.255-1.658,0.555-3.129-0.066
	c-0.66-0.277-1.301-1.144-1.244-1.622C12.896,14.478,16.821,14.258,17.567,16.283z"/>
<linearGradient id="Oval_3_" gradientUnits="userSpaceOnUse" x1="-453.9097" y1="479.5557" x2="-453.9097" y2="480.0254" gradientTransform="matrix(6.5701 0 0 -6.5701 2997.136 3168.5281)">
	<stop  offset="0" style="stop-color:#A6694A"/>
	<stop  offset="1" style="stop-color:#4F2A1E"/>
	<a:midPointStop  offset="0" style="stop-color:#A6694A"/>
	<a:midPointStop  offset="0.5" style="stop-color:#A6694A"/>
	<a:midPointStop  offset="1" style="stop-color:#4F2A1E"/>
</linearGradient>
<circle id="Oval_144_" fill="url(#Oval_3_)" cx="14.903" cy="16.254" r="1.542"/>
<path id="Path_1111_" fill="#1A1626" d="M14.134,16.226c0,1.066,1.541,1.066,1.541,0C15.675,15.235,14.134,15.235,14.134,16.226z"/>
<path id="Path_1110_" fill="#AB968C" d="M13.899,15.793c0,0.447,0.646,0.447,0.646,0C14.546,15.379,13.899,15.379,13.899,15.793z"/>
<path id="Path_1109_" fill="#F0A429" d="M17.575,16.344c-0.629-2.013-4.896-1.716-5.477-0.362
	C12.313,14.248,17.042,13.791,17.575,16.344z"/>
<path id="Path_1108_" fill="#FFFFFF" d="M20.597,16.283c-0.057,0.451,0.248,0.986,1.096,1.387c0.539,0.255,1.658,0.555,3.131-0.066
	c0.658-0.277,1.301-1.144,1.242-1.622C25.271,14.478,21.345,14.258,20.597,16.283z"/>
<linearGradient id="Oval_4_" gradientUnits="userSpaceOnUse" x1="-455.3418" y1="479.5557" x2="-455.3418" y2="480.0254" gradientTransform="matrix(6.5701 0 0 -6.5701 3014.8665 3168.5281)">
	<stop  offset="0" style="stop-color:#A6694A"/>
	<stop  offset="1" style="stop-color:#4F2A1E"/>
	<a:midPointStop  offset="0" style="stop-color:#A6694A"/>
	<a:midPointStop  offset="0.5" style="stop-color:#A6694A"/>
	<a:midPointStop  offset="1" style="stop-color:#4F2A1E"/>
</linearGradient>
<circle id="Oval_143_" fill="url(#Oval_4_)" cx="23.226" cy="16.254" r="1.542"/>
<path id="Path_1107_" fill="#1A1626" d="M22.454,16.226c0,1.066,1.543,1.066,1.543,0C23.997,15.235,22.454,15.235,22.454,16.226z"/>
<path id="Path_1106_" fill="#AB968C" d="M22.22,15.793c0,0.447,0.648,0.447,0.648,0C22.868,15.379,22.22,15.379,22.22,15.793z"/>
<path id="Path_1105_" fill="#F0A429" d="M20.591,16.344c0.625-2.012,4.891-1.724,5.475-0.362
	C25.849,14.248,21.124,13.791,20.591,16.344z"/>
<path fill="#7A6056" d="M27.782,5.585C26.29,3.567,23.562,2,19.081,2c-4.479,0-7.207,1.567-8.697,3.585
	C8.274,8.441,29.892,8.441,27.782,5.585z"/>
<linearGradient id="SVGID_2_" gradientUnits="userSpaceOnUse" x1="-163.2783" y1="17.958" x2="-163.2783" y2="4.7305" gradientTransform="matrix(1 0 0 1 182.3613 0)">
	<stop  offset="0.5" style="stop-color:#473834"/>
	<stop  offset="0.6387" style="stop-color:#503F3A"/>
	<stop  offset="0.8641" style="stop-color:#68524A"/>
	<stop  offset="1" style="stop-color:#7A6056"/>
	<a:midPointStop  offset="0.5" style="stop-color:#473834"/>
	<a:midPointStop  offset="0.6" style="stop-color:#473834"/>
	<a:midPointStop  offset="1" style="stop-color:#7A6056"/>
</linearGradient>
<path fill="url(#SVGID_2_)" d="M27.782,5.585c-1.492-2.018-4.221,0.17-8.701,0.17c-4.479,0-7.207-2.188-8.697-0.17
	C8.274,8.441,8.991,17.958,9.929,17.958c0.15,0,0.17-3.33,0.455-5.633c0.23-1.875,0.678-3.692,1.188-3.99
	c1.564-0.907,4.58,0.391,7.51,0.391c2.934,0,5.949-1.298,7.512-0.391c0.512,0.298,0.957,2.115,1.189,3.99
	c0.283,2.303,0.303,5.633,0.455,5.633C29.175,17.958,29.892,8.441,27.782,5.585z"/>
<path fill="#FF9ED2" d="M25.089,52.721l-7.793,0.012c0,0-4.088,1.332-4.936,2.416c-0.899,1.15-1.43,3.822-1.693,5.464
	c4.332,1.022,12.781,1.38,21.262,1.388c0-0.003-0.486-5.07-1.877-6.854C29.202,54.055,25.089,52.721,25.089,52.721z"/>
<path fill="#FF82C5" d="M17.296,52.732c0,3.242,7.793,3.23,7.793-0.012l-0.781-0.273h-6.195L17.296,52.732z"/>
<path fill="#F5BB51" d="M17.854,52.537c0,2.539,6.678,2.539,6.678,0c0-0.863,0-2.807,0-2.807h-6.678
	C17.854,49.73,17.854,51.674,17.854,52.537z"/>
<path fill="#FF82C5" d="M14.318,61.234l-0.284-0.045C14.034,58.883,14.318,58.653,14.318,61.234z"/>
<path fill="#FF82C5" d="M28.36,61.965H28.06C28.06,58.283,28.36,58.283,28.36,61.965z"/>
<path fill="#8FEAFF" d="M47.001,52.721l-7.791,0.012c0,0-4.09,1.332-4.938,2.416c-1.392,1.781-1.901,6.846-1.902,6.851
	c8.52-0.011,16.988-0.347,21.265-1.382c-0.259-1.643-0.778-4.326-1.671-5.471C51.114,54.055,47.001,52.721,47.001,52.721z"/>
<path fill="#67DBF5" d="M39.21,52.732c0,3.242,7.791,3.23,7.791-0.012l-0.781-0.273h-6.195L39.21,52.732z"/>
<path fill="#F5BB51" d="M39.767,52.537c0,2.539,6.68,2.539,6.68,0c0-0.863,0-2.807,0-2.807h-6.68
	C39.767,49.73,39.767,51.674,39.767,52.537z"/>
<path fill="#67DBF5" d="M36.237,61.959l-0.299,0.006C35.938,58.283,36.237,58.277,36.237,61.959z"/>
<path fill="#67DBF5" d="M50.266,61.18l-0.284,0.027C49.981,58.94,50.266,58.773,50.266,61.18z"/>
<path id="Path_1082_" fill="#FFC940" d="M34.546,42.107c1.066,0.13,1.834,3.729,1.166,4.68c-0.096,0.133-0.645,0.345-1.051-0.494
	c-0.227-0.464-0.877-0.852-1.078-1.809C33.325,43.257,33.487,41.979,34.546,42.107z"/>
<path id="Path_1081_" fill="#F0A429" d="M34.575,42.798c0.277,0.087,0.582,0.516,0.746,1.226c-0.973-0.211-0.729,1.422,0.115,1.453
	c-0.008,0.164-0.018,0.333-0.039,0.51c-0.406-0.596-0.82-0.355-1.229-1.243C33.8,43.943,33.888,42.58,34.575,42.798z"/>
<path id="Path_1080_" fill="#FFC940" d="M51.661,42.107c-1.064,0.13-1.834,3.729-1.164,4.68c0.094,0.133,0.643,0.345,1.051-0.494
	c0.225-0.464,0.875-0.852,1.076-1.809C52.884,43.257,52.722,41.978,51.661,42.107z"/>
<path id="Path_1079_" fill="#F0A429" d="M50.888,44.021c0.164-0.709,0.467-1.137,0.744-1.224c0.689-0.219,0.777,1.146,0.408,1.945
	c-0.41,0.888-0.822,0.647-1.23,1.243c-0.02-0.178-0.031-0.347-0.037-0.512C51.606,45.436,51.847,43.822,50.888,44.021z"/>
<path fill="#FFC940" d="M43.104,32.857c-5.822,0-8.627,4.404-8.275,10.529c0.07,1.231,0.834,4.047,1.557,5.488
	c1.273,2.545,4.6,4.443,6.719,4.443c2.117,0,5.447-1.898,6.719-4.443c0.723-1.441,1.486-4.257,1.557-5.488
	C51.731,37.262,48.927,32.857,43.104,32.857z"/>
<path id="Path_1078_" fill="#F0A429" d="M44.462,46.828c-0.145-0.102-0.482,0.054-1.357,0.054c-0.877,0-1.215-0.155-1.359-0.054
	c-0.17,0.121,0.104,0.668,1.359,0.668C44.358,47.496,44.634,46.949,44.462,46.828z"/>
<path id="Path_1077_" fill="#F0A429" d="M43.104,48.779c-1.313-0.387-3.258,0.184-3.258,0.184c0.74,0.807,1.283,1.854,3.258,1.854
	c2.262,0,2.646-1.189,3.258-1.854C46.362,48.963,44.415,48.392,43.104,48.779z"/>
<path id="Path_1076_" fill="#FFFFFF" d="M40.335,49.1c1.375,1.154,4.154,1.162,5.539,0C44.407,49.162,41.812,49.162,40.335,49.1z"/>
<path id="Path_1075_" fill="#FFFFFF" d="M41.849,43.831c0.047,0.374-0.205,0.816-0.908,1.147c-0.445,0.213-1.373,0.461-2.592-0.053
	c-0.545-0.23-1.078-0.949-1.029-1.346C37.979,42.336,41.229,42.152,41.849,43.831z"/>
<linearGradient id="Oval_5_" gradientUnits="userSpaceOnUse" x1="-422.3887" y1="475.4023" x2="-422.3887" y2="475.791" gradientTransform="matrix(6.5701 0 0 -6.5701 2814.7805 3168.5281)">
	<stop  offset="0" style="stop-color:#A6694A"/>
	<stop  offset="1" style="stop-color:#4F2A1E"/>
	<a:midPointStop  offset="0" style="stop-color:#A6694A"/>
	<a:midPointStop  offset="0.5" style="stop-color:#A6694A"/>
	<a:midPointStop  offset="1" style="stop-color:#4F2A1E"/>
</linearGradient>
<circle id="Oval_140_" fill="url(#Oval_5_)" cx="39.644" cy="43.807" r="1.277"/>
<path id="Path_1074_" fill="#1A1626" d="M39.005,43.783c0,0.883,1.277,0.883,1.277,0C40.282,42.963,39.005,42.963,39.005,43.783z"/>
<path id="Path_1073_" fill="#AB968C" d="M38.812,43.426c0,0.369,0.535,0.369,0.535,0C39.347,43.082,38.812,43.082,38.812,43.426z"/>
<path id="Path_1072_" fill="#F0A429" d="M41.854,43.881c-0.518-1.668-4.055-1.422-4.535-0.301
	C37.497,42.146,41.413,41.767,41.854,43.881z"/>
<path id="Path_1071_" fill="#FFFFFF" d="M44.36,43.831c-0.049,0.374,0.205,0.816,0.906,1.147c0.445,0.213,1.373,0.461,2.594-0.053
	c0.545-0.23,1.078-0.949,1.029-1.346C48.229,42.336,44.978,42.152,44.36,43.831z"/>
<linearGradient id="Oval_6_" gradientUnits="userSpaceOnUse" x1="-424.0386" y1="475.4023" x2="-424.0386" y2="475.791" gradientTransform="matrix(6.5701 0 0 -6.5701 2832.511 3168.5281)">
	<stop  offset="0" style="stop-color:#A6694A"/>
	<stop  offset="1" style="stop-color:#4F2A1E"/>
	<a:midPointStop  offset="0" style="stop-color:#A6694A"/>
	<a:midPointStop  offset="0.5" style="stop-color:#A6694A"/>
	<a:midPointStop  offset="1" style="stop-color:#4F2A1E"/>
</linearGradient>
<circle id="Oval_139_" fill="url(#Oval_6_)" cx="46.536" cy="43.807" r="1.277"/>
<path id="Path_1070_" fill="#1A1626" d="M45.899,43.783c0,0.883,1.277,0.883,1.277,0C47.177,42.963,45.899,42.963,45.899,43.783z"/>
<path id="Path_1069_" fill="#AB968C" d="M45.704,43.426c0,0.369,0.535,0.369,0.535,0C46.239,43.082,45.704,43.082,45.704,43.426z"/>
<path id="Path_1068_" fill="#F0A429" d="M44.354,43.881c0.518-1.667,4.051-1.428,4.535-0.301
	C48.71,42.146,44.796,41.767,44.354,43.881z"/>
<path id="Path_1067_" fill="#F0A429" d="M48.972,41.841c-1.098-0.693-3.311-0.895-4.178-0.54c-0.186,0.068-0.125,0.648,0.029,0.605
	c1.195-0.357,3.051-0.223,4.078,0.356C49.04,42.338,49.14,41.938,48.972,41.841z"/>
<path id="Path_1066_" fill="#F0A429" d="M37.235,41.841c1.1-0.693,3.311-0.895,4.178-0.54c0.186,0.068,0.125,0.648-0.029,0.605
	c-1.195-0.357-3.049-0.223-4.08,0.357C37.167,42.338,37.067,41.938,37.235,41.841z"/>
<linearGradient id="SVGID_3_" gradientUnits="userSpaceOnUse" x1="43.1035" y1="45.4199" x2="43.1035" y2="31.6548">
	<stop  offset="0" style="stop-color:#473834"/>
	<stop  offset="0.2717" style="stop-color:#594640"/>
	<stop  offset="0.7226" style="stop-color:#715950"/>
	<stop  offset="1" style="stop-color:#7A6056"/>
	<a:midPointStop  offset="0" style="stop-color:#473834"/>
	<a:midPointStop  offset="0.4" style="stop-color:#473834"/>
	<a:midPointStop  offset="1" style="stop-color:#7A6056"/>
</linearGradient>
<path fill="url(#SVGID_3_)" d="M43.095,32.456c-0.525,0-1.012,0.034-1.48,0.083c0.195-0.204,0.438-0.361,0.773-0.424
	c-0.689-0.187-1.467-0.101-2.072,0.347c-0.127-0.216-0.18-0.494-0.053-0.808c-0.846,0.513-1.006,1.132-1.006,1.132
	c-0.242-0.391-0.254-0.903-0.254-0.903s-0.912,0.644-0.779,1.585c-0.814-0.354-1.498,0.058-1.498,0.058s0.4,0.172,0.592,0.53
	c-4.555,3.307-2.996,10.657-2.131,11.364c0,0,0.256-5.493,2.574-7.133c-0.125,1.037-0.402,1.769-0.402,1.769
	s2.275-0.359,4.279-1.638c-0.232,1.145-0.859,1.964-0.859,1.964s4.137-0.577,5.365-2.524c0,0,0.811,1.705,2.816,2.934
	c0,0,0.125-1.278-0.15-2.184c1.967,1.936,2.197,6.804,2.197,6.804C52.157,44.381,54.409,32.456,43.095,32.456z"/>
<path fill="#473834" d="M48.673,37.749l0.203,1.132c0,0,1.676,2.194,2.131,6.53C51.218,40.725,48.673,37.749,48.673,37.749z"/>
<path fill="#473834" d="M48.446,37.326c0,0,1.229,1.53,0.514,3.465C49.052,39.276,48.446,37.326,48.446,37.326z"/>
<path fill="#473834" d="M46.417,36.787c0.273,3.928-5.686,3.598-5.639,3.595C40.778,40.382,45.897,39.402,46.417,36.787z"/>
<path fill="#473834" d="M42.829,37.139c-1.119,3.168-5.229,2.895-5.471,2.917C37.358,40.056,41.032,38.992,42.829,37.139z"/>
<path fill="#473834" d="M38.103,37.879c-2.676,3.134-2.916,7.541-2.916,7.541S34.479,40.688,38.103,37.879z"/>
<path fill="#473834" d="M28.841,42.626c6.455,4.266,0.781,8.151,2.619,9.989C27.89,55.098,19.149,50.82,28.841,42.626z"/>
<path fill="#473834" d="M13.542,42.626c-6.455,4.266-0.779,8.151-2.617,9.989C14.495,55.098,23.235,50.82,13.542,42.626z"/>
<linearGradient id="SVGID_4_" gradientUnits="userSpaceOnUse" x1="21.1914" y1="45.2939" x2="21.1914" y2="31.6548">
	<stop  offset="0" style="stop-color:#473834"/>
	<stop  offset="0.2717" style="stop-color:#594640"/>
	<stop  offset="0.7226" style="stop-color:#715950"/>
	<stop  offset="1" style="stop-color:#7A6056"/>
	<a:midPointStop  offset="0" style="stop-color:#473834"/>
	<a:midPointStop  offset="0.4" style="stop-color:#473834"/>
	<a:midPointStop  offset="1" style="stop-color:#7A6056"/>
</linearGradient>
<path fill="url(#SVGID_4_)" d="M21.192,31.654c-6.787,0.004-11.082,5.973-8.439,13.64H29.63
	C32.272,37.627,27.978,31.658,21.192,31.654z"/>
<path id="Path_1065_" fill="#FFC940" d="M12.634,42.107c1.066,0.13,1.834,3.729,1.166,4.68c-0.096,0.133-0.645,0.345-1.051-0.494
	c-0.227-0.464-0.877-0.852-1.078-1.809C11.413,43.257,11.575,41.979,12.634,42.107z"/>
<path id="Path_1064_" fill="#F0A429" d="M12.663,42.798c0.277,0.087,0.582,0.516,0.746,1.226c-0.973-0.211-0.729,1.422,0.115,1.453
	c-0.008,0.164-0.018,0.333-0.039,0.51c-0.406-0.596-0.82-0.355-1.229-1.243C11.888,43.943,11.976,42.58,12.663,42.798z"/>
<path id="Path_1063_" fill="#FFC940" d="M29.749,42.107c-1.064,0.13-1.834,3.729-1.164,4.68c0.094,0.133,0.643,0.345,1.051-0.494
	c0.225-0.464,0.875-0.852,1.076-1.809C30.972,43.257,30.81,41.978,29.749,42.107z"/>
<path id="Path_1062_" fill="#F0A429" d="M28.976,44.021c0.164-0.709,0.467-1.137,0.744-1.224c0.689-0.219,0.777,1.146,0.408,1.945
	c-0.41,0.888-0.822,0.647-1.23,1.243c-0.02-0.178-0.031-0.347-0.037-0.512C29.694,45.436,29.935,43.822,28.976,44.021z"/>
<path fill="#FFC940" d="M21.192,32.857c-5.822,0-8.627,4.404-8.275,10.529c0.07,1.231,0.834,4.047,1.557,5.488
	c1.273,2.545,4.6,4.443,6.719,4.443c2.117,0,5.447-1.898,6.719-4.443c0.723-1.441,1.486-4.257,1.557-5.488
	C29.819,37.262,27.015,32.857,21.192,32.857z"/>
<path id="Path_1061_" fill="#F0A429" d="M22.55,46.828c-0.145-0.102-0.482,0.054-1.357,0.054c-0.877,0-1.215-0.155-1.359-0.054
	c-0.17,0.121,0.104,0.668,1.359,0.668C22.446,47.496,22.722,46.949,22.55,46.828z"/>
<path id="Path_1060_" fill="#F0A429" d="M21.192,48.779c-1.313-0.387-3.258,0.184-3.258,0.184c0.74,0.807,1.283,1.854,3.258,1.854
	c2.262,0,2.646-1.189,3.258-1.854C24.45,48.963,22.503,48.392,21.192,48.779z"/>
<path id="Path_1059_" fill="#FFFFFF" d="M18.423,49.1c1.375,1.154,4.154,1.162,5.539,0C22.495,49.162,19.899,49.162,18.423,49.1z"/>
<path id="Path_1058_" fill="#FFFFFF" d="M19.937,43.831c0.047,0.374-0.205,0.816-0.908,1.147c-0.445,0.213-1.373,0.461-2.592-0.053
	c-0.545-0.23-1.078-0.949-1.029-1.346C16.067,42.336,19.317,42.152,19.937,43.831z"/>
<linearGradient id="Oval_7_" gradientUnits="userSpaceOnUse" x1="-425.7241" y1="475.4023" x2="-425.7241" y2="475.791" gradientTransform="matrix(6.5701 0 0 -6.5701 2814.7805 3168.5281)">
	<stop  offset="0" style="stop-color:#A6694A"/>
	<stop  offset="1" style="stop-color:#4F2A1E"/>
	<a:midPointStop  offset="0" style="stop-color:#A6694A"/>
	<a:midPointStop  offset="0.5" style="stop-color:#A6694A"/>
	<a:midPointStop  offset="1" style="stop-color:#4F2A1E"/>
</linearGradient>
<circle id="Oval_128_" fill="url(#Oval_7_)" cx="17.731" cy="43.807" r="1.277"/>
<path id="Path_1057_" fill="#1A1626" d="M17.093,43.783c0,0.883,1.277,0.883,1.277,0C18.37,42.963,17.093,42.963,17.093,43.783z"/>
<path id="Path_1056_" fill="#AB968C" d="M16.899,43.426c0,0.369,0.535,0.369,0.535,0C17.435,43.082,16.899,43.082,16.899,43.426z"/>
<path id="Path_1002_" fill="#F0A429" d="M19.942,43.881c-0.518-1.668-4.055-1.422-4.535-0.301
	C15.585,42.146,19.501,41.767,19.942,43.881z"/>
<path id="Path_1001_" fill="#FFFFFF" d="M22.448,43.831c-0.049,0.374,0.205,0.816,0.906,1.147c0.445,0.213,1.373,0.461,2.594-0.053
	c0.545-0.23,1.078-0.949,1.029-1.346C26.317,42.336,23.065,42.152,22.448,43.831z"/>
<linearGradient id="Oval_8_" gradientUnits="userSpaceOnUse" x1="-427.3735" y1="475.4023" x2="-427.3735" y2="475.791" gradientTransform="matrix(6.5701 0 0 -6.5701 2832.511 3168.5281)">
	<stop  offset="0" style="stop-color:#A6694A"/>
	<stop  offset="1" style="stop-color:#4F2A1E"/>
	<a:midPointStop  offset="0" style="stop-color:#A6694A"/>
	<a:midPointStop  offset="0.5" style="stop-color:#A6694A"/>
	<a:midPointStop  offset="1" style="stop-color:#4F2A1E"/>
</linearGradient>
<circle id="Oval_127_" fill="url(#Oval_8_)" cx="24.624" cy="43.807" r="1.277"/>
<path id="Path_1000_" fill="#1A1626" d="M23.987,43.783c0,0.883,1.277,0.883,1.277,0C25.265,42.963,23.987,42.963,23.987,43.783z"/>
<path id="Path_999_" fill="#AB968C" d="M23.792,43.426c0,0.369,0.535,0.369,0.535,0C24.327,43.082,23.792,43.082,23.792,43.426z"/>
<path id="Path_998_" fill="#F0A429" d="M22.442,43.881c0.518-1.667,4.051-1.428,4.535-0.301
	C26.798,42.146,22.884,41.767,22.442,43.881z"/>
<path id="Path_997_" fill="#F0A429" d="M27.06,41.841c-1.098-0.693-3.311-0.895-4.178-0.54c-0.186,0.068-0.125,0.648,0.029,0.605
	c1.195-0.357,3.051-0.223,4.078,0.356C27.128,42.338,27.228,41.938,27.06,41.841z"/>
<path id="Path_996_" fill="#F0A429" d="M15.323,41.841c1.1-0.693,3.311-0.895,4.178-0.54c0.186,0.068,0.125,0.648-0.029,0.605
	c-1.195-0.357-3.049-0.223-4.08,0.356C15.255,42.338,15.155,41.938,15.323,41.841z"/>
<linearGradient id="SVGID_5_" gradientUnits="userSpaceOnUse" x1="21.1919" y1="44.832" x2="21.1919" y2="31.855">
	<stop  offset="0" style="stop-color:#473834"/>
	<stop  offset="0.2717" style="stop-color:#594640"/>
	<stop  offset="0.7226" style="stop-color:#715950"/>
	<stop  offset="1" style="stop-color:#7A6056"/>
	<a:midPointStop  offset="0" style="stop-color:#473834"/>
	<a:midPointStop  offset="0.4" style="stop-color:#473834"/>
	<a:midPointStop  offset="1" style="stop-color:#7A6056"/>
</linearGradient>
<path fill="url(#SVGID_5_)" d="M21.19,31.854c-3.414-0.001-6.467,1.895-7.131,4.451c-1.719,1.685-1.979,5.509-0.896,8.526
	c0.141-2.896,1.746-4.354,1.646-7.541c9.592,0,13.893,3.129,14.406,7.541C31.394,38.753,27.964,31.854,21.19,31.854z"/>
<path fill="#473834" d="M29.216,44.832c-1.795-7.715-15.166-7.5-15.166-7.5C14.122,37.325,28.384,35.026,29.216,44.832z"/>
<path fill="#473834" d="M13.163,44.832c-0.123-3.424,1.689-4.967,1.494-8.502C15.407,39.689,13.792,41.357,13.163,44.832z"/>
<path fill="#CFD8DD" d="M29.366,42.215c0.766-11.572-17.117-11.572-16.352,0C13.683,32.496,28.698,32.496,29.366,42.215z"/>
<path fill="#FFFFFF" d="M29.366,41.841c0.766-11.573-17.117-11.573-16.352,0C13.683,32.121,28.698,32.121,29.366,41.841z"/>
<path fill="#F5BB51" d="M49.919,53.97c0,0-0.234-0.192-1.016-0.552c1-0.969,2.113,0.155,3.215-1.332
	c1.934-2.611,3.066-4.16,3.934-6.66c0,0-0.357-1.323-0.08-3.33c2.521-0.514,4.875-1.807,4.875-1.807s0.135,5.006,0.135,5.111
	c0,3.313-4.775,6.47-6.055,8.639c-0.629,1.064-1.52,2.764-1.76,3.02c-2.084,2.206-4.223,2.02-4.797,1.449
	C46.081,58.266,50.888,55.152,49.919,53.97z"/>
<path fill="#F0A429" d="M50.536,56.685c0,0-1.209,1.523-2.166,1.823C49.489,58.434,50.536,56.685,50.536,56.685z"/>
<path fill="#F0A429" d="M51.849,56.732c0,0-1.506,1.84-2.463,2.141C50.505,58.799,51.849,56.732,51.849,56.732z"/>
<path fill="#F0A429" d="M52.577,56.977c0,0-1.047,1.461-2.006,1.762C51.69,58.664,52.577,56.977,52.577,56.977z"/>
<path fill="#F5BB51" d="M14.034,54.041c0,0,0.361-0.16,1.143-0.52c-1-0.97-2.193,0.052-3.295-1.436
	c-1.934-2.611-3.066-4.16-3.934-6.66c0,0,0.357-1.323,0.08-3.33c-2.521-0.514-4.875-1.807-4.875-1.807S3.019,45.295,3.019,45.4
	c0,3.313,4.775,6.47,6.055,8.639c0.629,1.064,1.52,2.764,1.76,3.02c2.084,2.206,4.223,2.02,4.797,1.449
	C17.919,58.266,13.065,55.225,14.034,54.041z"/>
<path fill="#F0A429" d="M13.464,56.685c0,0,1.209,1.523,2.166,1.823C14.511,58.434,13.464,56.685,13.464,56.685z"/>
<path fill="#F0A429" d="M12.151,56.732c0,0,1.506,1.84,2.463,2.141C13.495,58.799,12.151,56.732,12.151,56.732z"/>
<path fill="#F0A429" d="M11.423,56.977c0,0,1.047,1.461,2.006,1.762C12.31,58.664,11.423,56.977,11.423,56.977z"/>
</svg>
