<?xml version="1.0" encoding="utf-8"?>
<!-- Generator: Adobe Illustrator 15.0.0, SVG Export Plug-In . SVG Version: 6.00 Build 0)  -->
<!DOCTYPE svg PUBLIC "-//W3C//DTD SVG 1.1//EN" "http://www.w3.org/Graphics/SVG/1.1/DTD/svg11.dtd" [
	<!ENTITY ns_flows "http://ns.adobe.com/Flows/1.0/">
	<!ENTITY ns_extend "http://ns.adobe.com/Extensibility/1.0/">
	<!ENTITY ns_ai "http://ns.adobe.com/AdobeIllustrator/10.0/">
	<!ENTITY ns_graphs "http://ns.adobe.com/Graphs/1.0/">
]>
<svg version="1.1" id="Layer_1" xmlns:x="&ns_extend;" xmlns:i="&ns_ai;" xmlns:graph="&ns_graphs;"
	 xmlns="http://www.w3.org/2000/svg" xmlns:xlink="http://www.w3.org/1999/xlink" xmlns:a="http://ns.adobe.com/AdobeSVGViewerExtensions/3.0/"
	 x="0px" y="0px" width="64px" height="64px" viewBox="0 0 64 64" enable-background="new 0 0 64 64" xml:space="preserve">
<path fill="#473834" d="M58.249,52.844c0.787,0.519,1.691,0.907,2.75,1.105c-1.877-4.283,0.954-13.264-4.85-19.863
	c-8.182,0.245-9.313,26.708,2.092,23.189c-0.726-0.314-1.182-0.957-1.448-1.768c0.879,0.252,1.906,0.26,3.104-0.107
	C58.945,54.987,58.46,54.017,58.249,52.844z"/>
<path fill="#473834" d="M37.712,34.086c-5.803,6.6-2.421,15.58-4.298,19.863c1.056-0.198,1.964-0.587,2.75-1.105
	c-0.209,1.173-0.696,2.144-1.646,2.557c1.196,0.367,2.224,0.359,3.103,0.107c-0.269,0.811-0.721,1.453-1.448,1.768
	C47.576,60.794,45.895,34.331,37.712,34.086z"/>
<path id="Path_285_" fill="#FFC940" d="M59.143,43.102c-1.848,0.226-3.181,6.413-2.021,8.047c0.162,0.228,1.116,0.592,1.823-0.851
	c0.39-0.798,1.519-1.462,1.868-3.11C61.26,45.079,60.982,42.879,59.143,43.102z"/>
<path id="Path_284_" fill="#FFC940" d="M35.272,43.102c1.848,0.226,3.181,6.413,2.019,8.047c-0.163,0.228-1.115,0.592-1.821-0.851
	c-0.392-0.798-1.519-1.462-1.868-3.11C33.153,45.079,33.433,42.879,35.272,43.102z"/>
<path id="Path_283_" fill="#F0A429" d="M59.093,44.289c-0.481,0.152-1.008,0.886-1.294,2.107c1.686-0.363,1.265,2.445-0.2,2.497
	c0.013,0.282,0.034,0.573,0.067,0.88c0.706-1.026,1.423-0.615,2.133-2.141C60.438,46.258,60.286,43.914,59.093,44.289z"/>
<path id="Path_282_" fill="#F0A429" d="M36.613,46.393c-0.285-1.218-0.81-1.953-1.291-2.104c-1.194-0.375-1.349,1.969-0.706,3.344
	c0.71,1.525,1.427,1.114,2.133,2.141c0.035-0.307,0.055-0.599,0.066-0.881C35.366,48.824,34.951,46.051,36.613,46.393z"/>
<path fill="#FFC940" d="M47.207,31.206c-8.006,0-11.862,6.521-11.381,14.904c0.1,1.686,0.566,4.116,1.146,6.2
	C38.172,56.64,44.51,61,47.207,61c2.698,0,9.034-4.36,10.233-8.689c0.579-2.084,1.048-4.515,1.148-6.2
	C59.07,37.727,55.214,31.206,47.207,31.206z"/>
<path id="Path_281_" fill="#966F42" d="M55.905,42.485c-1.831-0.97-5.335-1.017-6.64-0.342c-0.281,0.13-0.096,1.05,0.14,0.963
	c1.818-0.72,4.752-0.737,6.456,0.06C56.089,43.271,56.183,42.619,55.905,42.485z"/>
<path id="Path_280_" fill="#966F42" d="M38.51,42.485c1.831-0.97,5.331-1.017,6.64-0.342c0.279,0.13,0.094,1.05-0.14,0.963
	c-1.823-0.72-4.755-0.737-6.459,0.06C38.326,43.271,38.23,42.619,38.51,42.485z"/>
<path id="Path_279_" fill="#F0A429" d="M49.368,50.896c-0.229-0.16-0.765,0.086-2.161,0.086c-1.396,0-1.931-0.246-2.16-0.086
	c-0.272,0.193,0.163,1.064,2.16,1.064C49.207,51.961,49.643,51.09,49.368,50.896z"/>
<path id="Path_278_" fill="#F0A429" d="M47.207,54.195c-1.8-0.529-4.469,0.252-4.469,0.252c1.015,1.107,1.761,2.543,4.469,2.543
	c3.103,0,3.63-1.63,4.469-2.543C51.676,54.447,49.008,53.662,47.207,54.195z"/>
<path id="Path_277_" fill="#FFFFFF" d="M43.407,54.635c1.89,1.584,5.7,1.594,7.598,0C48.995,54.721,45.435,54.721,43.407,54.635z"/>
<path id="Path_276_" fill="#FFFFFF" d="M45.426,45.789c0.069,0.529-0.291,1.158-1.287,1.63c-0.634,0.299-1.95,0.651-3.677-0.078
	c-0.775-0.326-1.531-1.345-1.463-1.907C39.937,43.666,44.549,43.407,45.426,45.789z"/>
<linearGradient id="Oval_1_" gradientUnits="userSpaceOnUse" x1="-421.9854" y1="475.0244" x2="-421.9854" y2="475.5762" gradientTransform="matrix(6.5701 0 0 -6.5701 2814.7805 3168.5281)">
	<stop  offset="0" style="stop-color:#A6694A"/>
	<stop  offset="1" style="stop-color:#4F2A1E"/>
	<a:midPointStop  offset="0" style="stop-color:#A6694A"/>
	<a:midPointStop  offset="0.5" style="stop-color:#A6694A"/>
	<a:midPointStop  offset="1" style="stop-color:#4F2A1E"/>
</linearGradient>
<circle id="Oval_38_" fill="url(#Oval_1_)" cx="42.295" cy="45.754" r="1.813"/>
<path id="Path_275_" fill="#1A1626" d="M41.391,45.721c0,1.254,1.813,1.254,1.813,0C43.203,44.557,41.391,44.557,41.391,45.721z"/>
<path id="Path_274_" fill="#AB968C" d="M41.113,45.213c0,0.525,0.761,0.525,0.761,0C41.874,44.725,41.113,44.725,41.113,45.213z"/>
<path id="Path_273_" fill="#F0A429" d="M45.435,45.859c-0.735-2.365-5.754-2.016-6.436-0.426
	C39.251,43.396,44.808,42.859,45.435,45.859z"/>
<path id="Path_272_" fill="#FFFFFF" d="M48.988,45.789c-0.068,0.529,0.292,1.158,1.288,1.63c0.633,0.299,1.947,0.651,3.677-0.078
	c0.777-0.326,1.531-1.345,1.463-1.907C54.48,43.666,49.866,43.407,48.988,45.789z"/>
<linearGradient id="Oval_2_" gradientUnits="userSpaceOnUse" x1="-423.1948" y1="475.0244" x2="-423.1948" y2="475.5762" gradientTransform="matrix(6.5701 0 0 -6.5701 2832.511 3168.5281)">
	<stop  offset="0" style="stop-color:#A6694A"/>
	<stop  offset="1" style="stop-color:#4F2A1E"/>
	<a:midPointStop  offset="0" style="stop-color:#A6694A"/>
	<a:midPointStop  offset="0.5" style="stop-color:#A6694A"/>
	<a:midPointStop  offset="1" style="stop-color:#4F2A1E"/>
</linearGradient>
<circle id="Oval_37_" fill="url(#Oval_2_)" cx="52.078" cy="45.754" r="1.813"/>
<path id="Path_271_" fill="#1A1626" d="M51.172,45.721c0,1.254,1.813,1.254,1.813,0C52.984,44.557,51.172,44.557,51.172,45.721z"/>
<path id="Path_270_" fill="#AB968C" d="M50.897,45.213c0,0.525,0.758,0.525,0.758,0C51.655,44.725,50.897,44.725,50.897,45.213z"/>
<path id="Path_269_" fill="#F0A429" d="M48.98,45.859c0.735-2.363,5.75-2.025,6.436-0.426C55.161,43.396,49.607,42.859,48.98,45.859
	z"/>
<linearGradient id="SVGID_1_" gradientUnits="userSpaceOnUse" x1="47.0879" y1="47.7754" x2="47.0879" y2="29.0005">
	<stop  offset="0" style="stop-color:#473834"/>
	<stop  offset="0.2717" style="stop-color:#594640"/>
	<stop  offset="0.7226" style="stop-color:#715950"/>
	<stop  offset="1" style="stop-color:#7A6056"/>
	<a:midPointStop  offset="0" style="stop-color:#473834"/>
	<a:midPointStop  offset="0.4" style="stop-color:#473834"/>
	<a:midPointStop  offset="1" style="stop-color:#7A6056"/>
</linearGradient>
<path fill="url(#SVGID_1_)" d="M47.207,29c-4.87,0-7.306,2.206-7.8,3.252c-5.89,1.348-7.781,11.285-3.375,15.523
	c0.548-4.518,1.075-7.419,4.077-10.476c1.752,2.347,5.39,3.667,8.648,3.667c-1.542-1.121-2.594-2.219-3.419-3.242
	c5.439,2.496,11.531,4.094,13.044,10.051C63.616,39.441,59.27,29,47.207,29z"/>
<path fill="#473834" d="M39.395,32.252c-0.074,4.16,1.606,7.273,9.367,8.715C43.199,41.342,37.488,37.98,39.395,32.252z"/>
<path fill="#473834" d="M39.883,37.034c-2.025,1.998-4.301,5.458-3.869,10.741c0.404-4.367,2.408-7.963,4.225-10.292
	C40.111,37.344,39.993,37.194,39.883,37.034z"/>
<path fill="#473834" d="M43.357,35.717c4.068,3.885,14.068,3.632,15.046,12.059C55.795,39.58,46.951,41.418,43.357,35.717z"/>
<path fill="#473834" d="M27.835,52.844c0.788,0.519,1.694,0.907,2.753,1.105c-1.88-4.283,0.951-13.264-4.851-19.863
	c-8.184,0.245-9.314,26.708,2.09,23.189c-0.726-0.314-1.18-0.957-1.448-1.768c0.879,0.252,1.906,0.26,3.104-0.107
	C28.531,54.987,28.046,54.017,27.835,52.844z"/>
<path fill="#473834" d="M7.3,34.086c-5.804,6.6-2.421,15.58-4.3,19.863c1.059-0.198,1.965-0.587,2.75-1.105
	c-0.208,1.173-0.696,2.144-1.646,2.557c1.195,0.367,2.223,0.359,3.102,0.107c-0.267,0.811-0.721,1.453-1.448,1.768
	C17.162,60.794,15.481,34.331,7.3,34.086z"/>
<path id="Path_268_" fill="#FFC940" d="M28.731,43.102c-1.851,0.226-3.184,6.413-2.023,8.047c0.165,0.228,1.117,0.592,1.823-0.851
	c0.392-0.798,1.519-1.462,1.869-3.11C30.848,45.079,30.568,42.879,28.731,43.102z"/>
<path id="Path_267_" fill="#FFC940" d="M4.858,43.102c1.848,0.226,3.184,6.413,2.019,8.047c-0.162,0.228-1.114,0.592-1.82-0.851
	c-0.39-0.798-1.52-1.462-1.869-3.11C2.739,45.079,3.019,42.879,4.858,43.102z"/>
<path id="Path_266_" fill="#F0A429" d="M28.679,44.289c-0.48,0.152-1.006,0.886-1.293,2.107c1.685-0.363,1.265,2.445-0.2,2.497
	c0.015,0.282,0.033,0.573,0.066,0.88c0.706-1.026,1.423-0.615,2.134-2.141C30.025,46.258,29.873,43.914,28.679,44.289z"/>
<path id="Path_265_" fill="#F0A429" d="M6.2,46.393c-0.283-1.218-0.811-1.953-1.292-2.104c-1.193-0.375-1.346,1.969-0.706,3.344
	c0.71,1.525,1.427,1.114,2.133,2.141c0.036-0.307,0.055-0.599,0.067-0.881C4.952,48.824,4.537,46.051,6.2,46.393z"/>
<path fill="#FFC940" d="M16.794,31.206c-8.007,0-11.862,6.521-11.382,14.904c0.101,1.686,0.567,4.116,1.146,6.2
	C7.761,56.64,14.096,61,16.794,61c2.697,0,9.033-4.36,10.233-8.689c0.579-2.084,1.05-4.515,1.147-6.2
	C28.656,37.727,24.802,31.206,16.794,31.206z"/>
<path id="Path_264_" fill="#966F42" d="M25.491,42.485c-1.831-0.97-5.335-1.017-6.64-0.342c-0.281,0.13-0.096,1.05,0.14,0.963
	c1.819-0.72,4.755-0.737,6.457,0.06C25.675,43.271,25.771,42.619,25.491,42.485z"/>
<path id="Path_263_" fill="#966F42" d="M8.096,42.485c1.831-0.97,5.331-1.017,6.64-0.342c0.279,0.13,0.096,1.05-0.14,0.963
	c-1.823-0.72-4.752-0.737-6.458,0.06C7.912,43.271,7.818,42.619,8.096,42.485z"/>
<path id="Path_262_" fill="#F0A429" d="M18.954,50.896c-0.229-0.16-0.765,0.086-2.16,0.086c-1.396,0-1.932-0.246-2.161-0.086
	c-0.272,0.193,0.163,1.064,2.161,1.064C18.794,51.961,19.229,51.09,18.954,50.896z"/>
<path id="Path_261_" fill="#F0A429" d="M16.794,54.195c-1.8-0.529-4.469,0.252-4.469,0.252c1.015,1.107,1.76,2.543,4.469,2.543
	c3.102,0,3.631-1.63,4.469-2.543C21.263,54.447,18.594,53.662,16.794,54.195z"/>
<path id="Path_260_" fill="#FFFFFF" d="M12.996,54.635c1.887,1.584,5.697,1.594,7.598,0C18.581,54.721,15.021,54.721,12.996,54.635z
	"/>
<path id="Path_259_" fill="#FFFFFF" d="M15.013,45.789c0.068,0.529-0.292,1.158-1.288,1.63c-0.633,0.299-1.949,0.651-3.677-0.078
	c-0.775-0.326-1.531-1.345-1.463-1.907C9.522,43.666,14.136,43.407,15.013,45.789z"/>
<linearGradient id="Oval_3_" gradientUnits="userSpaceOnUse" x1="-444.8169" y1="475.0244" x2="-444.8169" y2="475.5762" gradientTransform="matrix(6.5701 0 0 -6.5701 2934.3743 3168.5281)">
	<stop  offset="0" style="stop-color:#A6694A"/>
	<stop  offset="1" style="stop-color:#4F2A1E"/>
	<a:midPointStop  offset="0" style="stop-color:#A6694A"/>
	<a:midPointStop  offset="0.5" style="stop-color:#A6694A"/>
	<a:midPointStop  offset="1" style="stop-color:#4F2A1E"/>
</linearGradient>
<circle id="Oval_36_" fill="url(#Oval_3_)" cx="11.881" cy="45.754" r="1.813"/>
<path id="Path_258_" fill="#1A1626" d="M10.977,45.721c0,1.254,1.813,1.254,1.813,0C12.789,44.557,10.977,44.557,10.977,45.721z"/>
<path id="Path_257_" fill="#AB968C" d="M10.7,45.213c0,0.525,0.76,0.525,0.76,0C11.46,44.725,10.7,44.725,10.7,45.213z"/>
<path id="Path_256_" fill="#F0A429" d="M15.021,45.859c-0.735-2.365-5.752-2.016-6.436-0.426
	C8.838,43.396,14.394,42.859,15.021,45.859z"/>
<path id="Path_255_" fill="#FFFFFF" d="M18.575,45.789c-0.069,0.529,0.291,1.158,1.287,1.63c0.634,0.299,1.948,0.651,3.68-0.078
	c0.774-0.326,1.528-1.345,1.462-1.907C24.066,43.666,19.452,43.407,18.575,45.789z"/>
<linearGradient id="Oval_4_" gradientUnits="userSpaceOnUse" x1="-446.0269" y1="475.0244" x2="-446.0269" y2="475.5762" gradientTransform="matrix(6.5701 0 0 -6.5701 2952.1047 3168.5281)">
	<stop  offset="0" style="stop-color:#A6694A"/>
	<stop  offset="1" style="stop-color:#4F2A1E"/>
	<a:midPointStop  offset="0" style="stop-color:#A6694A"/>
	<a:midPointStop  offset="0.5" style="stop-color:#A6694A"/>
	<a:midPointStop  offset="1" style="stop-color:#4F2A1E"/>
</linearGradient>
<circle id="Oval_35_" fill="url(#Oval_4_)" cx="21.664" cy="45.754" r="1.813"/>
<path id="Path_254_" fill="#1A1626" d="M20.758,45.721c0,1.254,1.815,1.254,1.815,0C22.573,44.557,20.758,44.557,20.758,45.721z"/>
<path id="Path_253_" fill="#AB968C" d="M20.483,45.213c0,0.525,0.758,0.525,0.758,0C21.241,44.725,20.483,44.725,20.483,45.213z"/>
<path id="Path_252_" fill="#F0A429" d="M18.566,45.859c0.735-2.363,5.75-2.025,6.438-0.426
	C24.748,43.396,19.193,42.859,18.566,45.859z"/>
<linearGradient id="SVGID_2_" gradientUnits="userSpaceOnUse" x1="-102.9165" y1="47.7754" x2="-102.9165" y2="29.0005" gradientTransform="matrix(1 0 0 1 119.5918 0)">
	<stop  offset="0" style="stop-color:#473834"/>
	<stop  offset="0.2717" style="stop-color:#594640"/>
	<stop  offset="0.7226" style="stop-color:#715950"/>
	<stop  offset="1" style="stop-color:#7A6056"/>
	<a:midPointStop  offset="0" style="stop-color:#473834"/>
	<a:midPointStop  offset="0.4" style="stop-color:#473834"/>
	<a:midPointStop  offset="1" style="stop-color:#7A6056"/>
</linearGradient>
<path fill="url(#SVGID_2_)" d="M16.794,29c-4.871,0-7.307,2.206-7.8,3.252C3.104,33.6,1.213,43.537,5.619,47.775
	c0.548-4.518,1.074-7.419,4.079-10.476c1.75,2.347,5.387,3.667,8.646,3.667c-1.542-1.121-2.592-2.219-3.419-3.242
	c5.439,2.496,11.531,4.094,13.044,10.051C33.202,39.441,28.856,29,16.794,29z"/>
<path fill="#473834" d="M8.981,32.252c-0.075,4.16,1.606,7.273,9.366,8.715C12.785,41.342,7.075,37.98,8.981,32.252z"/>
<path fill="#473834" d="M9.469,37.034c-2.025,1.998-4.3,5.458-3.869,10.741c0.404-4.367,2.408-7.963,4.226-10.292
	C9.698,37.344,9.579,37.194,9.469,37.034z"/>
<path fill="#473834" d="M12.943,35.717c4.069,3.885,14.069,3.632,15.046,12.059C25.381,39.58,16.537,41.418,12.943,35.717z"/>
<linearGradient id="SVGID_3_" gradientUnits="userSpaceOnUse" x1="-96.8574" y1="-214.9829" x2="-102.1217" y2="-186.8978" gradientTransform="matrix(1 0 0 1 130.9756 214.9409)">
	<stop  offset="0" style="stop-color:#FF666B"/>
	<stop  offset="0.1751" style="stop-color:#FB5B5F"/>
	<stop  offset="0.4917" style="stop-color:#F03D3F"/>
	<stop  offset="0.9112" style="stop-color:#DF0C0C"/>
	<stop  offset="1" style="stop-color:#DB0100"/>
	<a:midPointStop  offset="0" style="stop-color:#FF666B"/>
	<a:midPointStop  offset="0.5758" style="stop-color:#FF666B"/>
	<a:midPointStop  offset="1" style="stop-color:#DB0100"/>
</linearGradient>
<path fill="url(#SVGID_3_)" d="M31.999,6.864c-4.196-6.819-15.804-4.157-15.807,4.41c0,5.148,4.319,8.785,12.746,15.594
	c2.858,2.309,3.265,2.31,6.125,0c8.421-6.811,12.742-10.444,12.744-15.597C47.808,2.708,36.195,0.045,31.999,6.864z"/>
</svg>
