<?xml version="1.0" encoding="utf-8"?>
<!-- Generator: Adobe Illustrator 15.0.0, SVG Export Plug-In . SVG Version: 6.00 Build 0)  -->
<!DOCTYPE svg PUBLIC "-//W3C//DTD SVG 1.1//EN" "http://www.w3.org/Graphics/SVG/1.1/DTD/svg11.dtd" [
	<!ENTITY ns_flows "http://ns.adobe.com/Flows/1.0/">
	<!ENTITY ns_extend "http://ns.adobe.com/Extensibility/1.0/">
	<!ENTITY ns_ai "http://ns.adobe.com/AdobeIllustrator/10.0/">
	<!ENTITY ns_graphs "http://ns.adobe.com/Graphs/1.0/">
]>
<svg version="1.1" id="Layer_1" xmlns:x="&ns_extend;" xmlns:i="&ns_ai;" xmlns:graph="&ns_graphs;"
	 xmlns="http://www.w3.org/2000/svg" xmlns:xlink="http://www.w3.org/1999/xlink" xmlns:a="http://ns.adobe.com/AdobeSVGViewerExtensions/3.0/"
	 x="0px" y="0px" width="64px" height="64px" viewBox="0 0 64 64" enable-background="new 0 0 64 64" xml:space="preserve">
<path fill="#B00505" d="M31.438,39.829c0,1.231,0,5.705,0,6.71c0,0.766-1.015,0.766-1.015,0c0-1.229,0-5.703,0-6.71
	C30.424,39,31.438,39,31.438,39.829L31.438,39.829z"/>
<linearGradient id="SVGID_1_" gradientUnits="userSpaceOnUse" x1="28.7974" y1="53.8203" x2="33.0654" y2="53.8203">
	<stop  offset="0" style="stop-color:#FF3641"/>
	<stop  offset="0.2731" style="stop-color:#FC343F"/>
	<stop  offset="0.4766" style="stop-color:#F22E39"/>
	<stop  offset="0.6575" style="stop-color:#E2242E"/>
	<stop  offset="0.8253" style="stop-color:#CC151F"/>
	<stop  offset="0.9828" style="stop-color:#AF020B"/>
	<stop  offset="1" style="stop-color:#AB0009"/>
	<a:midPointStop  offset="0" style="stop-color:#FF3641"/>
	<a:midPointStop  offset="0.7636" style="stop-color:#FF3641"/>
	<a:midPointStop  offset="1" style="stop-color:#AB0009"/>
</linearGradient>
<path fill="url(#SVGID_1_)" d="M30.933,47.864c-1.856-0.872-2.274,6.711-2.099,9.422c0.02-0.186,0.066-1.783,0.216-2.845
	c-0.111,2.017-0.06,4.233-0.06,4.453c0,0.219,0.289,0.331,0.289,0.331c-0.049-1.241,0.065-2.491,0.065-2.491
	s-0.095,1.597,0.025,2.599c0.368,0.268,0.689,0.33,0.689,0.33c-0.073-1.499,0.207-5.777,0.207-5.777s-0.195,3.93-0.04,5.872
	c0.258,0.078,0.706,0.088,0.706,0.088s0.445-0.01,0.704-0.088c0.155-1.942-0.041-5.872-0.041-5.872s0.279,4.278,0.207,5.777
	c0,0,0.321-0.063,0.69-0.33c0.119-1.002,0.024-2.599,0.024-2.599s0.115,1.25,0.065,2.491c0,0,0.289-0.112,0.289-0.331
	c0-0.22,0.052-2.437-0.06-4.453c0.15,1.062,0.199,2.659,0.216,2.845C33.204,54.575,32.786,46.992,30.933,47.864z"/>
<path fill="#B00505" d="M31.584,47.864c0,0.343-1.306,0.343-1.306,0S31.584,47.521,31.584,47.864z"/>
<linearGradient id="SVGID_2_" gradientUnits="userSpaceOnUse" x1="30.0244" y1="46.9922" x2="31.8389" y2="46.9922">
	<stop  offset="0" style="stop-color:#FF3641"/>
	<stop  offset="0.2731" style="stop-color:#FC343F"/>
	<stop  offset="0.4766" style="stop-color:#F22E39"/>
	<stop  offset="0.6575" style="stop-color:#E2242E"/>
	<stop  offset="0.8253" style="stop-color:#CC151F"/>
	<stop  offset="0.9828" style="stop-color:#AF020B"/>
	<stop  offset="1" style="stop-color:#AB0009"/>
	<a:midPointStop  offset="0" style="stop-color:#FF3641"/>
	<a:midPointStop  offset="0.7636" style="stop-color:#FF3641"/>
	<a:midPointStop  offset="1" style="stop-color:#AB0009"/>
</linearGradient>
<path fill="url(#SVGID_2_)" d="M31.839,46.992c0,1.243-1.814,1.243-1.814,0C30.024,45.748,31.839,45.748,31.839,46.992z"/>
<path fill="#B00505" d="M25.498,41.982c0,1.231,0,5.706,0,6.71c0,0.767-1.015,0.767-1.015,0c0-1.228,0-5.702,0-6.71
	C24.483,41.154,25.498,41.154,25.498,41.982L25.498,41.982z"/>
<linearGradient id="SVGID_3_" gradientUnits="userSpaceOnUse" x1="22.8569" y1="55.9746" x2="27.1245" y2="55.9746">
	<stop  offset="0" style="stop-color:#FF3641"/>
	<stop  offset="0.2731" style="stop-color:#FC343F"/>
	<stop  offset="0.4766" style="stop-color:#F22E39"/>
	<stop  offset="0.6575" style="stop-color:#E2242E"/>
	<stop  offset="0.8253" style="stop-color:#CC151F"/>
	<stop  offset="0.9828" style="stop-color:#AF020B"/>
	<stop  offset="1" style="stop-color:#AB0009"/>
	<a:midPointStop  offset="0" style="stop-color:#FF3641"/>
	<a:midPointStop  offset="0.7636" style="stop-color:#FF3641"/>
	<a:midPointStop  offset="1" style="stop-color:#AB0009"/>
</linearGradient>
<path fill="url(#SVGID_3_)" d="M24.992,50.018c-1.856-0.872-2.274,6.712-2.099,9.423c0.019-0.186,0.065-1.783,0.216-2.846
	c-0.111,2.017-0.06,4.234-0.06,4.454c0,0.219,0.289,0.331,0.289,0.331c-0.049-1.241,0.065-2.491,0.065-2.491
	s-0.095,1.597,0.025,2.598c0.368,0.268,0.689,0.33,0.689,0.33c-0.073-1.499,0.207-5.777,0.207-5.777s-0.196,3.93-0.041,5.872
	C24.544,61.989,24.992,62,24.992,62s0.445-0.011,0.704-0.089c0.155-1.942-0.041-5.872-0.041-5.872s0.279,4.278,0.207,5.777
	c0,0,0.321-0.063,0.689-0.33c0.12-1.001,0.025-2.598,0.025-2.598s0.114,1.25,0.065,2.491c0,0,0.289-0.112,0.289-0.331
	c0-0.22,0.052-2.438-0.06-4.454c0.149,1.063,0.199,2.66,0.216,2.846C27.264,56.729,26.846,49.146,24.992,50.018z"/>
<path fill="#B00505" d="M25.644,50.018c0,0.342-1.306,0.342-1.306,0S25.644,49.676,25.644,50.018z"/>
<linearGradient id="SVGID_4_" gradientUnits="userSpaceOnUse" x1="24.083" y1="49.1455" x2="25.8984" y2="49.1455">
	<stop  offset="0" style="stop-color:#FF3641"/>
	<stop  offset="0.2731" style="stop-color:#FC343F"/>
	<stop  offset="0.4766" style="stop-color:#F22E39"/>
	<stop  offset="0.6575" style="stop-color:#E2242E"/>
	<stop  offset="0.8253" style="stop-color:#CC151F"/>
	<stop  offset="0.9828" style="stop-color:#AF020B"/>
	<stop  offset="1" style="stop-color:#AB0009"/>
	<a:midPointStop  offset="0" style="stop-color:#FF3641"/>
	<a:midPointStop  offset="0.7636" style="stop-color:#FF3641"/>
	<a:midPointStop  offset="1" style="stop-color:#AB0009"/>
</linearGradient>
<path fill="url(#SVGID_4_)" d="M25.898,49.146c0,1.244-1.815,1.244-1.815,0C24.083,47.902,25.898,47.902,25.898,49.146z"/>
<linearGradient id="SVGID_5_" gradientUnits="userSpaceOnUse" x1="-444.457" y1="958.583" x2="-444.457" y2="936.3057" gradientTransform="matrix(-0.7071 0.7071 -0.7071 -0.7071 401.2321 1016.5215)">
	<stop  offset="0" style="stop-color:#FFD500"/>
	<stop  offset="0.3446" style="stop-color:#FFCE00"/>
	<stop  offset="0.8489" style="stop-color:#FFBA00"/>
	<stop  offset="1" style="stop-color:#FFB300"/>
	<a:midPointStop  offset="0" style="stop-color:#FFD500"/>
	<a:midPointStop  offset="0.6242" style="stop-color:#FFD500"/>
	<a:midPointStop  offset="1" style="stop-color:#FFB300"/>
</linearGradient>
<path fill="url(#SVGID_5_)" d="M47.967,14.158c-0.509,1.608,0.767,7.295-0.923,10.992c-1.8,3.938-6.729,8.75-12.821,11.654v4.705
	c7.564-3.35,15.584-8.57,19.349-9.782c2.265-0.729,8.41-1.07,10.07-1.74L47.967,14.158z"/>
<path fill="#F9C802" d="M48.044,13.848c-1.523,1.541,14.377,17.605,15.901,16.064C65.051,28.793,49.152,12.729,48.044,13.848z"/>
<linearGradient id="SVGID_6_" gradientUnits="userSpaceOnUse" x1="-460.3853" y1="947.4473" x2="-457.7705" y2="947.4473" gradientTransform="matrix(-0.7071 0.7071 -0.7071 -0.7071 401.2321 1016.5215)">
	<stop  offset="0" style="stop-color:#E69800"/>
	<stop  offset="0.1454" style="stop-color:#E19500"/>
	<stop  offset="0.3075" style="stop-color:#D48C00"/>
	<stop  offset="0.4775" style="stop-color:#BE7D00"/>
	<stop  offset="0.6531" style="stop-color:#9E6800"/>
	<stop  offset="0.8312" style="stop-color:#774E00"/>
	<stop  offset="1" style="stop-color:#4A3000"/>
	<a:midPointStop  offset="0" style="stop-color:#E69800"/>
	<a:midPointStop  offset="0.6848" style="stop-color:#E69800"/>
	<a:midPointStop  offset="1" style="stop-color:#4A3000"/>
</linearGradient>
<path fill="url(#SVGID_6_)" d="M48.196,13.883c-1.419,1.433,14.291,17.311,15.712,15.876C64.939,28.719,49.228,12.844,48.196,13.883
	z"/>
<linearGradient id="SVGID_7_" gradientUnits="userSpaceOnUse" x1="-172.8594" y1="75.7148" x2="-172.8594" y2="66.4346" gradientTransform="matrix(0.9505 0.3106 -0.3106 0.9505 199.8022 20.7294)">
	<stop  offset="0" style="stop-color:#FFB300"/>
	<stop  offset="0.0661" style="stop-color:#FFB800"/>
	<stop  offset="0.3225" style="stop-color:#FFC900"/>
	<stop  offset="0.6118" style="stop-color:#FFD200"/>
	<stop  offset="1" style="stop-color:#FFD500"/>
	<a:midPointStop  offset="0" style="stop-color:#FFB300"/>
	<a:midPointStop  offset="0.2364" style="stop-color:#FFB300"/>
	<a:midPointStop  offset="1" style="stop-color:#FFD500"/>
</linearGradient>
<path fill="url(#SVGID_7_)" d="M22.778,41.972C10.467,40.798,3.541,29.641,2.898,29.061l2.915-1.833
	c0.657,0.582,5.04,9.28,17.366,10.457C24.383,37.799,23.981,42.088,22.778,41.972z"/>
<linearGradient id="SVGID_8_" gradientUnits="userSpaceOnUse" x1="-948.189" y1="343.1816" x2="-948.189" y2="336.3535" gradientTransform="matrix(0.2856 0.4588 -0.8489 0.5285 562.8355 282.3783)">
	<stop  offset="0" style="stop-color:#FFB300"/>
	<stop  offset="0.1511" style="stop-color:#FFBA00"/>
	<stop  offset="0.6554" style="stop-color:#FFCE00"/>
	<stop  offset="1" style="stop-color:#FFD500"/>
	<a:midPointStop  offset="0" style="stop-color:#FFB300"/>
	<a:midPointStop  offset="0.3758" style="stop-color:#FFB300"/>
	<a:midPointStop  offset="1" style="stop-color:#FFD500"/>
</linearGradient>
<path fill="url(#SVGID_8_)" d="M6.369,26.488c-0.03-0.406-0.567-1.563-0.567-1.563s0.169-0.874-0.05-0.988
	C4.936,23.505-0.022,26.621,0,27.554c0.006,0.249,0.857,0.481,0.857,0.481s0.791,0.997,1.137,1.202
	c0.285,0.168,1.213,0.257,1.213,0.257L6.062,27.7C6.062,27.7,6.393,26.819,6.369,26.488z"/>
<radialGradient id="SVGID_9_" cx="22.6553" cy="-0.7954" r="18.9641" gradientTransform="matrix(0.9557 0 0 0.9649 5.789 25.066)" gradientUnits="userSpaceOnUse">
	<stop  offset="0" style="stop-color:#FFD500"/>
	<stop  offset="0.3882" style="stop-color:#FFD200"/>
	<stop  offset="0.6775" style="stop-color:#FFC900"/>
	<stop  offset="0.9339" style="stop-color:#FFB800"/>
	<stop  offset="1" style="stop-color:#FFB300"/>
	<a:midPointStop  offset="0" style="stop-color:#FFD500"/>
	<a:midPointStop  offset="0.7636" style="stop-color:#FFD500"/>
	<a:midPointStop  offset="1" style="stop-color:#FFB300"/>
</radialGradient>
<path fill="url(#SVGID_9_)" d="M27.441,6C17.433,6,9.317,14.192,9.317,24.298c0,10.106,8.115,18.299,18.124,18.299
	c10.01,0,18.123-8.192,18.123-18.299C45.564,14.192,37.451,6,27.441,6z M27.441,37.68c-7.319,0-13.254-5.99-13.254-13.382
	c0-7.39,5.935-13.381,13.254-13.381c7.318,0,13.251,5.991,13.251,13.381C40.692,31.689,34.76,37.68,27.441,37.68z"/>
<linearGradient id="SVGID_10_" gradientUnits="userSpaceOnUse" x1="20.5342" y1="38.7598" x2="22.0195" y2="38.7598">
	<stop  offset="0" style="stop-color:#FF3641"/>
	<stop  offset="0.2731" style="stop-color:#FC343F"/>
	<stop  offset="0.4766" style="stop-color:#F22E39"/>
	<stop  offset="0.6575" style="stop-color:#E2242E"/>
	<stop  offset="0.8253" style="stop-color:#CC151F"/>
	<stop  offset="0.9828" style="stop-color:#AF020B"/>
	<stop  offset="1" style="stop-color:#AB0009"/>
	<a:midPointStop  offset="0" style="stop-color:#FF3641"/>
	<a:midPointStop  offset="0.7636" style="stop-color:#FF3641"/>
	<a:midPointStop  offset="1" style="stop-color:#AB0009"/>
</linearGradient>
<path fill="url(#SVGID_10_)" d="M20.534,35.429c0,1.231,0,5.704,0,6.71c0,0.765,1.485,0.765,1.485,0c0-1.229,0-5.703,0-6.71
	C22.02,34.599,20.534,34.599,20.534,35.429L20.534,35.429z"/>
<linearGradient id="SVGID_11_" gradientUnits="userSpaceOnUse" x1="22.0195" y1="39.1953" x2="23.5049" y2="39.1953">
	<stop  offset="0" style="stop-color:#FF3641"/>
	<stop  offset="0.2731" style="stop-color:#FC343F"/>
	<stop  offset="0.4766" style="stop-color:#F22E39"/>
	<stop  offset="0.6575" style="stop-color:#E2242E"/>
	<stop  offset="0.8253" style="stop-color:#CC151F"/>
	<stop  offset="0.9828" style="stop-color:#AF020B"/>
	<stop  offset="1" style="stop-color:#AB0009"/>
	<a:midPointStop  offset="0" style="stop-color:#FF3641"/>
	<a:midPointStop  offset="0.7636" style="stop-color:#FF3641"/>
	<a:midPointStop  offset="1" style="stop-color:#AB0009"/>
</linearGradient>
<path fill="url(#SVGID_11_)" d="M22.02,35.865c0,1.229,0,5.704,0,6.712c0,0.763,1.485,0.763,1.485,0c0-1.23,0-5.705,0-6.712
	C23.505,35.034,22.02,35.034,22.02,35.865L22.02,35.865z"/>
<linearGradient id="SVGID_12_" gradientUnits="userSpaceOnUse" x1="23.5049" y1="39.3857" x2="24.9902" y2="39.3857">
	<stop  offset="0" style="stop-color:#FF3641"/>
	<stop  offset="0.2731" style="stop-color:#FC343F"/>
	<stop  offset="0.4766" style="stop-color:#F22E39"/>
	<stop  offset="0.6575" style="stop-color:#E2242E"/>
	<stop  offset="0.8253" style="stop-color:#CC151F"/>
	<stop  offset="0.9828" style="stop-color:#AF020B"/>
	<stop  offset="1" style="stop-color:#AB0009"/>
	<a:midPointStop  offset="0" style="stop-color:#FF3641"/>
	<a:midPointStop  offset="0.7636" style="stop-color:#FF3641"/>
	<a:midPointStop  offset="1" style="stop-color:#AB0009"/>
</linearGradient>
<path fill="url(#SVGID_12_)" d="M23.505,36.054c0,1.231,0,5.707,0,6.711c0,0.766,1.485,0.766,1.485,0c0-1.229,0-5.703,0-6.711
	C24.99,35.226,23.505,35.226,23.505,36.054L23.505,36.054z"/>
<linearGradient id="SVGID_13_" gradientUnits="userSpaceOnUse" x1="24.9902" y1="39.749" x2="26.4766" y2="39.749">
	<stop  offset="0" style="stop-color:#FF3641"/>
	<stop  offset="0.2731" style="stop-color:#FC343F"/>
	<stop  offset="0.4766" style="stop-color:#F22E39"/>
	<stop  offset="0.6575" style="stop-color:#E2242E"/>
	<stop  offset="0.8253" style="stop-color:#CC151F"/>
	<stop  offset="0.9828" style="stop-color:#AF020B"/>
	<stop  offset="1" style="stop-color:#AB0009"/>
	<a:midPointStop  offset="0" style="stop-color:#FF3641"/>
	<a:midPointStop  offset="0.7636" style="stop-color:#FF3641"/>
	<a:midPointStop  offset="1" style="stop-color:#AB0009"/>
</linearGradient>
<path fill="url(#SVGID_13_)" d="M24.99,36.419c0,1.231,0,5.704,0,6.71c0,0.765,1.486,0.765,1.486,0c0-1.229,0-5.704,0-6.71
	C26.477,35.588,24.99,35.588,24.99,36.419L24.99,36.419z"/>
<linearGradient id="SVGID_14_" gradientUnits="userSpaceOnUse" x1="26.4766" y1="39.918" x2="27.9619" y2="39.918">
	<stop  offset="0" style="stop-color:#FF3641"/>
	<stop  offset="0.2731" style="stop-color:#FC343F"/>
	<stop  offset="0.4766" style="stop-color:#F22E39"/>
	<stop  offset="0.6575" style="stop-color:#E2242E"/>
	<stop  offset="0.8253" style="stop-color:#CC151F"/>
	<stop  offset="0.9828" style="stop-color:#AF020B"/>
	<stop  offset="1" style="stop-color:#AB0009"/>
	<a:midPointStop  offset="0" style="stop-color:#FF3641"/>
	<a:midPointStop  offset="0.7636" style="stop-color:#FF3641"/>
	<a:midPointStop  offset="1" style="stop-color:#AB0009"/>
</linearGradient>
<path fill="url(#SVGID_14_)" d="M26.477,36.587c0,1.23,0,5.706,0,6.71c0,0.766,1.485,0.766,1.485,0c0-1.229,0-5.704,0-6.71
	C27.962,35.756,26.477,35.756,26.477,36.587L26.477,36.587z"/>
<linearGradient id="SVGID_15_" gradientUnits="userSpaceOnUse" x1="33.9023" y1="38.3223" x2="35.3877" y2="38.3223">
	<stop  offset="0" style="stop-color:#FF3641"/>
	<stop  offset="0.2731" style="stop-color:#FC343F"/>
	<stop  offset="0.4766" style="stop-color:#F22E39"/>
	<stop  offset="0.6575" style="stop-color:#E2242E"/>
	<stop  offset="0.8253" style="stop-color:#CC151F"/>
	<stop  offset="0.9828" style="stop-color:#AF020B"/>
	<stop  offset="1" style="stop-color:#AB0009"/>
	<a:midPointStop  offset="0" style="stop-color:#FF3641"/>
	<a:midPointStop  offset="0.7636" style="stop-color:#FF3641"/>
	<a:midPointStop  offset="1" style="stop-color:#AB0009"/>
</linearGradient>
<path fill="url(#SVGID_15_)" d="M35.388,34.991c0,1.231,0,5.705,0,6.71c0,0.766-1.485,0.766-1.485,0c0-1.229,0-5.703,0-6.71
	C33.902,34.161,35.388,34.161,35.388,34.991L35.388,34.991z"/>
<linearGradient id="SVGID_16_" gradientUnits="userSpaceOnUse" x1="32.417" y1="38.9092" x2="33.9023" y2="38.9092">
	<stop  offset="0" style="stop-color:#FF3641"/>
	<stop  offset="0.2731" style="stop-color:#FC343F"/>
	<stop  offset="0.4766" style="stop-color:#F22E39"/>
	<stop  offset="0.6575" style="stop-color:#E2242E"/>
	<stop  offset="0.8253" style="stop-color:#CC151F"/>
	<stop  offset="0.9828" style="stop-color:#AF020B"/>
	<stop  offset="1" style="stop-color:#AB0009"/>
	<a:midPointStop  offset="0" style="stop-color:#FF3641"/>
	<a:midPointStop  offset="0.7636" style="stop-color:#FF3641"/>
	<a:midPointStop  offset="1" style="stop-color:#AB0009"/>
</linearGradient>
<path fill="url(#SVGID_16_)" d="M33.902,35.579c0,1.229,0,5.704,0,6.712c0,0.763-1.485,0.763-1.485,0c0-1.23,0-5.705,0-6.712
	C32.417,34.747,33.902,34.747,33.902,35.579L33.902,35.579z"/>
<linearGradient id="SVGID_17_" gradientUnits="userSpaceOnUse" x1="30.9316" y1="39.3857" x2="32.417" y2="39.3857">
	<stop  offset="0" style="stop-color:#FF3641"/>
	<stop  offset="0.2731" style="stop-color:#FC343F"/>
	<stop  offset="0.4766" style="stop-color:#F22E39"/>
	<stop  offset="0.6575" style="stop-color:#E2242E"/>
	<stop  offset="0.8253" style="stop-color:#CC151F"/>
	<stop  offset="0.9828" style="stop-color:#AF020B"/>
	<stop  offset="1" style="stop-color:#AB0009"/>
	<a:midPointStop  offset="0" style="stop-color:#FF3641"/>
	<a:midPointStop  offset="0.7636" style="stop-color:#FF3641"/>
	<a:midPointStop  offset="1" style="stop-color:#AB0009"/>
</linearGradient>
<path fill="url(#SVGID_17_)" d="M32.417,36.054c0,1.231,0,5.707,0,6.711c0,0.766-1.485,0.766-1.485,0c0-1.229,0-5.703,0-6.711
	C30.932,35.226,32.417,35.226,32.417,36.054L32.417,36.054z"/>
<linearGradient id="SVGID_18_" gradientUnits="userSpaceOnUse" x1="29.4473" y1="39.749" x2="30.9316" y2="39.749">
	<stop  offset="0" style="stop-color:#FF3641"/>
	<stop  offset="0.2731" style="stop-color:#FC343F"/>
	<stop  offset="0.4766" style="stop-color:#F22E39"/>
	<stop  offset="0.6575" style="stop-color:#E2242E"/>
	<stop  offset="0.8253" style="stop-color:#CC151F"/>
	<stop  offset="0.9828" style="stop-color:#AF020B"/>
	<stop  offset="1" style="stop-color:#AB0009"/>
	<a:midPointStop  offset="0" style="stop-color:#FF3641"/>
	<a:midPointStop  offset="0.7636" style="stop-color:#FF3641"/>
	<a:midPointStop  offset="1" style="stop-color:#AB0009"/>
</linearGradient>
<path fill="url(#SVGID_18_)" d="M30.932,36.419c0,1.231,0,5.704,0,6.71c0,0.765-1.484,0.765-1.484,0c0-1.229,0-5.704,0-6.71
	C29.447,35.588,30.932,35.588,30.932,36.419L30.932,36.419z"/>
<linearGradient id="SVGID_19_" gradientUnits="userSpaceOnUse" x1="27.9619" y1="39.918" x2="29.4473" y2="39.918">
	<stop  offset="0" style="stop-color:#FF3641"/>
	<stop  offset="0.2731" style="stop-color:#FC343F"/>
	<stop  offset="0.4766" style="stop-color:#F22E39"/>
	<stop  offset="0.6575" style="stop-color:#E2242E"/>
	<stop  offset="0.8253" style="stop-color:#CC151F"/>
	<stop  offset="0.9828" style="stop-color:#AF020B"/>
	<stop  offset="1" style="stop-color:#AB0009"/>
	<a:midPointStop  offset="0" style="stop-color:#FF3641"/>
	<a:midPointStop  offset="0.7636" style="stop-color:#FF3641"/>
	<a:midPointStop  offset="1" style="stop-color:#AB0009"/>
</linearGradient>
<path fill="url(#SVGID_19_)" d="M29.447,36.587c0,1.23,0,5.706,0,6.71c0,0.766-1.485,0.766-1.485,0c0-1.229,0-5.704,0-6.71
	C27.962,35.756,29.447,35.756,29.447,36.587L29.447,36.587z"/>
</svg>
