<?xml version="1.0" encoding="utf-8"?>
<!-- Generator: Adobe Illustrator 15.0.0, SVG Export Plug-In . SVG Version: 6.00 Build 0)  -->
<!DOCTYPE svg PUBLIC "-//W3C//DTD SVG 1.1//EN" "http://www.w3.org/Graphics/SVG/1.1/DTD/svg11.dtd" [
	<!ENTITY ns_flows "http://ns.adobe.com/Flows/1.0/">
	<!ENTITY ns_extend "http://ns.adobe.com/Extensibility/1.0/">
	<!ENTITY ns_ai "http://ns.adobe.com/AdobeIllustrator/10.0/">
	<!ENTITY ns_graphs "http://ns.adobe.com/Graphs/1.0/">
]>
<svg version="1.1" id="Layer_1" xmlns:x="&ns_extend;" xmlns:i="&ns_ai;" xmlns:graph="&ns_graphs;"
	 xmlns="http://www.w3.org/2000/svg" xmlns:xlink="http://www.w3.org/1999/xlink" xmlns:a="http://ns.adobe.com/AdobeSVGViewerExtensions/3.0/"
	 x="0px" y="0px" width="64px" height="64px" viewBox="0 0 64 64" enable-background="new 0 0 64 64" xml:space="preserve">
<linearGradient id="SVGID_1_" gradientUnits="userSpaceOnUse" x1="3.9316" y1="32.8462" x2="60.54" y2="32.8462">
	<stop  offset="0" style="stop-color:#E0E8ED"/>
	<stop  offset="1" style="stop-color:#ECF1F5"/>
	<a:midPointStop  offset="0" style="stop-color:#E0E8ED"/>
	<a:midPointStop  offset="0.5152" style="stop-color:#E0E8ED"/>
	<a:midPointStop  offset="1" style="stop-color:#ECF1F5"/>
</linearGradient>
<path fill="url(#SVGID_1_)" d="M59.05,33.888c0,0-7.389-2.608-7.703-4.886c-0.475-3.441,9.193-10.328,9.193-10.328
	s-9.197,3.544-11.071,1.453c-1.525-1.701,2.034-8.951,2.034-8.951s-5.024,5.012-6.423,3.293c-1.735-2.131-1.042-10.272-1.042-10.272
	s-2.759,8.517-5.692,8.852c-1.726,0.197-3.667-4.947-3.667-4.947s-0.414,5.772-1.966,6.099c-2.937,0.617-7.96-9.083-7.96-9.083
	s2.001,8.135,0.646,10.038c-2.131,2.992-8.285-5.075-8.285-5.075s2.106,7.234,0.785,8.776c-1.872,2.185-10.268-1.713-10.268-1.713
	s6.581,4.974,6.339,7.995c-0.237,2.969-10.039,5.775-10.039,5.775s13.101-0.396,12.899,2.975c-0.125,2.123-6.078,6.45-6.078,6.45
	s13.548-3.469,10.327,2.216C17.626,48.647,8.035,61.496,8.035,61.496S24.096,49.281,30.25,48.572
	c3.319-0.384,6.363,5.059,6.363,5.059s-0.044-7.232,2.188-7.566c2.324-0.349,8.221,5.938,8.221,5.938s-3.395-7.207-1.791-8.739
	c2.2-2.103,11.697,3.167,11.697,3.167s-8.414-7.599-7.233-10.584C50.584,33.602,59.05,33.888,59.05,33.888z"/>
<path fill="#CFD8DD" d="M5.554,64l2.091-2.803c0.097-0.127,9.612-12.893,13.012-18.891c0.295-0.519,0.591-1.234,0.327-1.695
	c-0.306-0.533-1.365-0.827-2.985-0.827c-3.056,0-7.085,1.022-7.124,1.034l-2.493,0.637l2.088-1.518
	c2.229-1.621,5.794-4.705,5.876-6.08c0.014-0.221-0.066-0.416-0.251-0.613c-1.079-1.16-5.161-1.852-10.921-1.852
	c-0.755,0-1.224,0.014-1.229,0.015L0,31.526l3.798-1.088c3.664-1.049,9.533-3.427,9.688-5.34c0.181-2.255-4.375-6.221-6.145-7.559
	l-3.687-2.786l4.18,1.94c0.052,0.024,5.063,2.334,8.054,2.334c0.798,0,1.365-0.171,1.643-0.495c0.792-0.922-0.041-5.416-0.884-8.313
	l-0.734-2.522l1.589,2.081c1.394,1.827,6.06,7.109,7.503,5.087c0.89-1.25,0.028-6.57-0.725-9.629l-0.981-3.993l1.888,3.645
	c1.771,3.42,5.306,8.846,7.25,8.846c0.063,0,0.121-0.006,0.178-0.019c0.713-0.149,1.392-3.042,1.579-5.651l0.158-2.214l0.785,2.074
	c0.706,1.869,2.183,4.635,3.113,4.635c1.951-0.22,4.296-5.34,5.326-8.517L44.885,0l-0.36,4.239
	c-0.188,2.208-0.387,8.296,0.932,9.916c0.068,0.083,0.18,0.179,0.444,0.179c1.427,0,4.281-2.535,5.261-3.511l2.075-2.068
	l-1.296,2.641c-1.416,2.886-3.008,7.399-2.111,8.399c0.293,0.326,0.938,0.499,1.865,0.498c3.232,0,8.618-2.06,8.672-2.081L64,16.813
	l-3.179,2.265c-2.621,1.868-9.347,7.28-8.991,9.856c0.188,1.365,4.43,3.446,7.382,4.487l3.023,1.067l-3.201-0.107
	c-0.004,0-0.345-0.012-0.894-0.012c-4.455,0-7.593,0.652-7.993,1.66c-0.769,1.94,3.95,7.184,7.105,10.031l3.191,2.883l-3.752-2.081
	c-0.064-0.036-6.53-3.602-9.836-3.602c-0.606,0-1.041,0.122-1.291,0.362c-0.928,0.885,0.55,5.309,1.896,8.166l1.323,2.811
	l-2.117-2.258c-1.549-1.65-6.054-6.027-7.796-5.789c-1.235,0.186-1.787,4.331-1.771,7.076l0.012,1.896l-0.923-1.649
	c-0.029-0.05-2.887-5.139-5.884-4.813C24.354,49.749,8.487,61.77,8.328,61.891L5.554,64z M17.998,38.797
	c2.068,0,3.321,0.432,3.83,1.32c0.397,0.696,0.288,1.599-0.325,2.683c-2.478,4.371-8.15,12.272-11.146,16.371
	c4.84-3.499,15.08-10.542,19.837-11.09c2.495-0.288,4.779,2.286,5.972,3.956c0.127-2.35,0.631-6.172,2.563-6.461
	c1.705-0.258,4.84,2.375,6.85,4.285c-0.922-2.402-1.906-5.79-0.685-6.957c0.438-0.42,1.099-0.631,1.962-0.631
	c2.085,0,5.175,1.229,7.429,2.274c-2.494-2.577-5.923-6.665-5.042-8.886c0.637-1.609,4.016-2.133,7.259-2.252
	c-2.328-1.016-5.406-2.661-5.639-4.34c-0.357-2.591,4.05-6.605,6.98-8.961c-1.872,0.568-4.299,1.172-6.149,1.172
	c-1.244,0-2.091-0.268-2.587-0.822c-1.185-1.32-0.007-4.932,0.996-7.361c-1.276,1.048-2.98,2.224-4.203,2.224
	c-0.496,0-0.91-0.187-1.197-0.539c-1.14-1.398-1.329-4.909-1.295-7.532c-1.117,2.622-2.957,6.055-5.008,6.288l-0.151,0.009
	c-1.303,0-2.523-1.983-3.283-3.551c-0.28,1.927-0.886,4.421-2.153,4.688c-2.158,0.456-5.146-3.642-6.941-6.597
	c0.457,2.609,0.834,6.079-0.076,7.357c-0.405,0.569-0.977,0.87-1.652,0.871c-1.908,0-4.435-2.461-6.002-4.228
	c0.554,2.396,1.137,5.916,0.127,7.094c-0.474,0.555-1.274,0.835-2.379,0.835c-1.67,0-3.838-0.631-5.563-1.25
	c1.94,1.789,4.294,4.398,4.132,6.411c-0.175,2.189-4.441,4.136-7.478,5.252c3.599,0.098,8.342,0.543,9.824,2.137
	c0.371,0.398,0.544,0.854,0.515,1.35c-0.093,1.566-2.697,3.965-4.538,5.473C14.255,39.104,16.254,38.797,17.998,38.797z"/>
</svg>
