<?xml version="1.0" encoding="utf-8"?>
<!-- Generator: Adobe Illustrator 15.0.0, SVG Export Plug-In . SVG Version: 6.00 Build 0)  -->
<!DOCTYPE svg PUBLIC "-//W3C//DTD SVG 1.1//EN" "http://www.w3.org/Graphics/SVG/1.1/DTD/svg11.dtd" [
	<!ENTITY ns_flows "http://ns.adobe.com/Flows/1.0/">
	<!ENTITY ns_extend "http://ns.adobe.com/Extensibility/1.0/">
	<!ENTITY ns_ai "http://ns.adobe.com/AdobeIllustrator/10.0/">
	<!ENTITY ns_graphs "http://ns.adobe.com/Graphs/1.0/">
]>
<svg version="1.1" id="Layer_1" xmlns:x="&ns_extend;" xmlns:i="&ns_ai;" xmlns:graph="&ns_graphs;"
	 xmlns="http://www.w3.org/2000/svg" xmlns:xlink="http://www.w3.org/1999/xlink" xmlns:a="http://ns.adobe.com/AdobeSVGViewerExtensions/3.0/"
	 x="0px" y="0px" width="64px" height="64px" viewBox="0 0 64 64" enable-background="new 0 0 64 64" xml:space="preserve">
<linearGradient id="SVGID_1_" gradientUnits="userSpaceOnUse" x1="32.0005" y1="62" x2="32.0005" y2="2.0005">
	<stop  offset="0" style="stop-color:#FF7B00"/>
	<stop  offset="0.3236" style="stop-color:#FFAE00"/>
	<stop  offset="0.6205" style="stop-color:#FFD600"/>
	<stop  offset="0.8558" style="stop-color:#FFEE00"/>
	<stop  offset="1" style="stop-color:#FFF700"/>
	<a:midPointStop  offset="0" style="stop-color:#FF7B00"/>
	<a:midPointStop  offset="0.4" style="stop-color:#FF7B00"/>
	<a:midPointStop  offset="1" style="stop-color:#FFF700"/>
</linearGradient>
<circle fill="url(#SVGID_1_)" cx="32" cy="32" r="30"/>
<path fill="#1A1626" d="M47.244,36.328C43.604,35.647,38.473,35,32.002,35c-6.469,0-11.605,0.646-15.246,1.328
	c-1.836,0.344-2.838,1.865-2.75,3.406C14.451,47.489,20.402,54,32.002,54s17.547-6.511,17.992-14.266
	C50.084,38.193,49.082,36.672,47.244,36.328z"/>
<path fill="#FD7383" d="M23.475,50c0,0,3.789,2,8.525,2s8.525-2,8.525-2S37.684,47,32,48C26.316,47,23.475,50,23.475,50z"/>
<linearGradient id="SVGID_2_" gradientUnits="userSpaceOnUse" x1="16.0122" y1="39.498" x2="47.9893" y2="39.498">
	<stop  offset="0" style="stop-color:#CFD7E6"/>
	<stop  offset="0.0368" style="stop-color:#DAE0EC"/>
	<stop  offset="0.1263" style="stop-color:#EEF1F6"/>
	<stop  offset="0.2147" style="stop-color:#FBFCFD"/>
	<stop  offset="0.3" style="stop-color:#FFFFFF"/>
	<stop  offset="0.7" style="stop-color:#FFFFFF"/>
	<stop  offset="0.7853" style="stop-color:#FBFCFD"/>
	<stop  offset="0.8737" style="stop-color:#EEF1F6"/>
	<stop  offset="0.9632" style="stop-color:#DAE0EC"/>
	<stop  offset="1" style="stop-color:#CFD7E6"/>
	<a:midPointStop  offset="0" style="stop-color:#CFD7E6"/>
	<a:midPointStop  offset="0.3" style="stop-color:#CFD7E6"/>
	<a:midPointStop  offset="0.3" style="stop-color:#FFFFFF"/>
	<a:midPointStop  offset="0.5" style="stop-color:#FFFFFF"/>
	<a:midPointStop  offset="0.7" style="stop-color:#FFFFFF"/>
	<a:midPointStop  offset="0.7" style="stop-color:#FFFFFF"/>
	<a:midPointStop  offset="1" style="stop-color:#CFD7E6"/>
</linearGradient>
<path fill="url(#SVGID_2_)" d="M46.506,38.242C43.996,37.793,38.689,37,32,37s-11.994,0.793-14.506,1.242
	c-1.568,0.284-1.6,0.967-1.391,2.277c0.182,1.146,0.305,1.452,1.521,1.469c1.115,0.016,14.375,0,14.375,0s13.262,0.016,14.377,0
	c1.215-0.017,1.338-0.322,1.521-1.469C48.105,39.209,48.074,38.526,46.506,38.242z"/>
<path fill="#1A1626" d="M15.736,29.104c4.273-5.522,7.258-5.522,11.529,0c0.648,0.835,1.973,0.213,1.697-0.597
	c-3.627-10.676-11.299-10.676-14.926,0C13.762,29.317,15.088,29.938,15.736,29.104z"/>
<path fill="#1A1626" d="M36.736,29.104c4.273-5.522,7.258-5.522,11.529,0c0.648,0.835,1.973,0.213,1.697-0.597
	c-3.627-10.676-11.299-10.676-14.926,0C34.762,29.317,36.088,29.938,36.736,29.104z"/>
<radialGradient id="SVGID_3_" cx="54.6191" cy="13.4082" r="10.702" gradientTransform="matrix(0.0149 0.9999 -0.6745 0.0101 62.8486 -41.3398)" gradientUnits="userSpaceOnUse">
	<stop  offset="0.4303" style="stop-color:#66E4FF"/>
	<stop  offset="0.5507" style="stop-color:#61E0FF"/>
	<stop  offset="0.6944" style="stop-color:#52D5FF"/>
	<stop  offset="0.8493" style="stop-color:#3BC2FF"/>
	<stop  offset="1" style="stop-color:#1CAAFF"/>
	<a:midPointStop  offset="0.4303" style="stop-color:#66E4FF"/>
	<a:midPointStop  offset="0.6702" style="stop-color:#66E4FF"/>
	<a:midPointStop  offset="1" style="stop-color:#1CAAFF"/>
</radialGradient>
<path fill="url(#SVGID_3_)" d="M55.996,5.649c-3.807,5.209-5.999,10.004-5.999,13.94c0,3.346,2.688,6.06,6.001,6.06
	c3.313,0,6-2.714,6-6.06C61.998,15.653,59.746,10.773,55.996,5.649z"/>
<radialGradient id="SVGID_4_" cx="-395.4707" cy="65.0703" r="4.3367" gradientTransform="matrix(0.53 0.0805 -0.1698 1.1169 274.0093 -24.357)" gradientUnits="userSpaceOnUse">
	<stop  offset="0" style="stop-color:#D4F2FF"/>
	<stop  offset="0.5519" style="stop-color:#D1F1FF;stop-opacity:0.4481"/>
	<stop  offset="0.8834" style="stop-color:#C9EFFF;stop-opacity:0.1166"/>
	<stop  offset="1" style="stop-color:#C4EEFF;stop-opacity:0"/>
	<a:midPointStop  offset="0" style="stop-color:#D4F2FF"/>
	<a:midPointStop  offset="0.8" style="stop-color:#D4F2FF"/>
	<a:midPointStop  offset="1" style="stop-color:#C4EEFF;stop-opacity:0"/>
</radialGradient>
<path fill="url(#SVGID_4_)" d="M55.659,16.835c-0.407,2.674-1.767,4.686-3.035,4.494c-1.27-0.193-1.97-2.52-1.562-5.193
	c0.406-2.676,1.765-4.688,3.036-4.495C55.367,11.835,56.064,14.159,55.659,16.835z"/>
</svg>
