<?xml version="1.0" encoding="utf-8"?>
<!-- Generator: Adobe Illustrator 15.0.0, SVG Export Plug-In . SVG Version: 6.00 Build 0)  -->
<!DOCTYPE svg PUBLIC "-//W3C//DTD SVG 1.1//EN" "http://www.w3.org/Graphics/SVG/1.1/DTD/svg11.dtd" [
	<!ENTITY ns_flows "http://ns.adobe.com/Flows/1.0/">
	<!ENTITY ns_extend "http://ns.adobe.com/Extensibility/1.0/">
	<!ENTITY ns_ai "http://ns.adobe.com/AdobeIllustrator/10.0/">
	<!ENTITY ns_graphs "http://ns.adobe.com/Graphs/1.0/">
]>
<svg version="1.1" id="Layer_1" xmlns:x="&ns_extend;" xmlns:i="&ns_ai;" xmlns:graph="&ns_graphs;"
	 xmlns="http://www.w3.org/2000/svg" xmlns:xlink="http://www.w3.org/1999/xlink" xmlns:a="http://ns.adobe.com/AdobeSVGViewerExtensions/3.0/"
	 x="0px" y="0px" width="64px" height="64px" viewBox="0 0 64 64" enable-background="new 0 0 64 64" xml:space="preserve">
<linearGradient id="SVGID_1_" gradientUnits="userSpaceOnUse" x1="32.0005" y1="62" x2="32.0005" y2="2.0005">
	<stop  offset="0" style="stop-color:#FF7B00"/>
	<stop  offset="0.3236" style="stop-color:#FFAE00"/>
	<stop  offset="0.6205" style="stop-color:#FFD600"/>
	<stop  offset="0.8558" style="stop-color:#FFEE00"/>
	<stop  offset="1" style="stop-color:#FFF700"/>
	<a:midPointStop  offset="0" style="stop-color:#FF7B00"/>
	<a:midPointStop  offset="0.4" style="stop-color:#FF7B00"/>
	<a:midPointStop  offset="1" style="stop-color:#FFF700"/>
</linearGradient>
<circle fill="url(#SVGID_1_)" cx="32.001" cy="32" r="30"/>
<path fill="#1A1626" d="M27.267,34.952c-2.971,2.192-8.32,2.338-11.53,0c-0.742-0.54-1.973-0.165-1.697,0.465
	c2.805,6.422,12.127,6.408,14.926,0C29.24,34.787,28.005,34.407,27.267,34.952z"/>
<path fill="#1A1626" d="M36.737,34.952c2.971,2.192,8.32,2.338,11.53,0c0.742-0.54,1.973-0.165,1.697,0.465
	c-2.805,6.422-12.127,6.408-14.926,0C34.764,34.787,35.999,34.407,36.737,34.952z"/>
<path fill="#1A1626" d="M24.894,52.995c3.662-2.573,10.258-2.744,14.215,0c0.916,0.634,2.434,0.194,2.094-0.546
	c-3.459-7.537-14.953-7.521-18.403,0C22.459,53.189,23.981,53.635,24.894,52.995z"/>
<path fill="#D69600" d="M15.05,22.437c-9.788,5.789-3.547,7.042,5.318,3.161C25.37,23.408,21.491,18.623,15.05,22.437z"/>
<path fill="#D69600" d="M48.947,22.452c-6.442-3.812-10.32,0.972-5.316,3.161C52.498,29.495,58.739,28.24,48.947,22.452z"/>
</svg>
