<?xml version="1.0" encoding="utf-8"?>
<!-- Generator: Adobe Illustrator 15.0.0, SVG Export Plug-In . SVG Version: 6.00 Build 0)  -->
<!DOCTYPE svg PUBLIC "-//W3C//DTD SVG 1.1//EN" "http://www.w3.org/Graphics/SVG/1.1/DTD/svg11.dtd" [
	<!ENTITY ns_flows "http://ns.adobe.com/Flows/1.0/">
	<!ENTITY ns_extend "http://ns.adobe.com/Extensibility/1.0/">
	<!ENTITY ns_ai "http://ns.adobe.com/AdobeIllustrator/10.0/">
	<!ENTITY ns_graphs "http://ns.adobe.com/Graphs/1.0/">
]>
<svg version="1.1" id="Layer_1" xmlns:x="&ns_extend;" xmlns:i="&ns_ai;" xmlns:graph="&ns_graphs;"
	 xmlns="http://www.w3.org/2000/svg" xmlns:xlink="http://www.w3.org/1999/xlink" xmlns:a="http://ns.adobe.com/AdobeSVGViewerExtensions/3.0/"
	 x="0px" y="0px" width="64px" height="64px" viewBox="0 0 64 64" enable-background="new 0 0 64 64" xml:space="preserve">
<linearGradient id="SVGID_1_" gradientUnits="userSpaceOnUse" x1="31.9819" y1="62.1855" x2="31.9819" y2="2.1875" gradientTransform="matrix(1 0 0 1 0.0186 -0.186)">
	<stop  offset="0" style="stop-color:#FF7B00"/>
	<stop  offset="0.3236" style="stop-color:#FFAE00"/>
	<stop  offset="0.6205" style="stop-color:#FFD600"/>
	<stop  offset="0.8558" style="stop-color:#FFEE00"/>
	<stop  offset="1" style="stop-color:#FFF700"/>
	<a:midPointStop  offset="0" style="stop-color:#FF7B00"/>
	<a:midPointStop  offset="0.4" style="stop-color:#FF7B00"/>
	<a:midPointStop  offset="1" style="stop-color:#FFF700"/>
</linearGradient>
<circle fill="url(#SVGID_1_)" cx="32" cy="32" r="29.999"/>
<ellipse fill="#1A1626" cx="22" cy="25" rx="4" ry="5"/>
<ellipse fill="#1A1626" cx="42" cy="25" rx="4" ry="5"/>
<path fill="#1A1626" d="M34.892,52.36h-1.518c-0.79,0.001-1.429-0.639-1.43-1.43c0-0.789,0.64-1.43,1.43-1.43l1.518,0.001
	c1.059,0,1.893-0.202,2.345-0.571c0.272-0.221,0.403-0.5,0.403-0.855c-0.002-1.883-2.351-2.862-2.351-2.862s2.342-0.938,2.343-2.87
	c-0.001-0.354-0.133-0.633-0.4-0.852c-0.453-0.367-1.283-0.568-2.339-0.568h-1.519c-0.792,0-1.429-0.641-1.43-1.43
	c0-0.79,0.639-1.431,1.43-1.43h1.518c1.762,0,3.156,0.407,4.143,1.211c0.938,0.762,1.456,1.854,1.455,3.069
	c-0.001,1.075-0.388,2.091-1.012,2.864c0.627,0.772,1.021,1.789,1.021,2.867c0.001,1.217-0.519,2.309-1.458,3.072
	C38.052,51.952,36.655,52.36,34.892,52.36z"/>
</svg>
