<?xml version="1.0" encoding="utf-8"?>
<!-- Generator: Adobe Illustrator 15.0.0, SVG Export Plug-In . SVG Version: 6.00 Build 0)  -->
<!DOCTYPE svg PUBLIC "-//W3C//DTD SVG 1.1//EN" "http://www.w3.org/Graphics/SVG/1.1/DTD/svg11.dtd" [
	<!ENTITY ns_flows "http://ns.adobe.com/Flows/1.0/">
	<!ENTITY ns_extend "http://ns.adobe.com/Extensibility/1.0/">
	<!ENTITY ns_ai "http://ns.adobe.com/AdobeIllustrator/10.0/">
	<!ENTITY ns_graphs "http://ns.adobe.com/Graphs/1.0/">
]>
<svg version="1.1" id="Layer_1" xmlns:x="&ns_extend;" xmlns:i="&ns_ai;" xmlns:graph="&ns_graphs;"
	 xmlns="http://www.w3.org/2000/svg" xmlns:xlink="http://www.w3.org/1999/xlink" xmlns:a="http://ns.adobe.com/AdobeSVGViewerExtensions/3.0/"
	 x="0px" y="0px" width="64px" height="64px" viewBox="0 0 64 64" enable-background="new 0 0 64 64" xml:space="preserve">
<linearGradient id="SVGID_1_" gradientUnits="userSpaceOnUse" x1="32.0005" y1="62" x2="32.0005" y2="2.001">
	<stop  offset="0" style="stop-color:#FF7B00"/>
	<stop  offset="0.3236" style="stop-color:#FFAE00"/>
	<stop  offset="0.6205" style="stop-color:#FFD600"/>
	<stop  offset="0.8558" style="stop-color:#FFEE00"/>
	<stop  offset="1" style="stop-color:#FFF700"/>
	<a:midPointStop  offset="0" style="stop-color:#FF7B00"/>
	<a:midPointStop  offset="0.4" style="stop-color:#FF7B00"/>
	<a:midPointStop  offset="1" style="stop-color:#FFF700"/>
</linearGradient>
<circle fill="url(#SVGID_1_)" cx="32" cy="32" r="30"/>
<path fill="#1A1626" d="M36.735,34.969c2.971-2.194,8.32-2.338,11.53,0c0.742,0.539,1.973,0.164,1.697-0.465
	c-2.805-6.423-12.127-6.409-14.926,0C34.762,35.133,35.997,35.514,36.735,34.969z"/>
<path fill="#1A1626" d="M27.265,34.969c-2.971-2.194-8.32-2.338-11.53,0c-0.742,0.539-1.973,0.164-1.697-0.465
	c2.805-6.423,12.127-6.409,14.926,0C29.238,35.133,28.003,35.514,27.265,34.969z"/>
<path fill="#1A1626" d="M24.893,50.996c3.663-2.574,10.259-2.744,14.215,0c0.916,0.633,2.434,0.193,2.094-0.547
	c-3.458-7.537-14.952-7.521-18.402,0C22.459,51.189,23.981,51.635,24.893,50.996z"/>
<radialGradient id="SVGID_2_" cx="11.104" cy="12.0874" r="13.913" gradientTransform="matrix(0.0149 0.9999 -0.6745 0.0101 19.0915 0.863)" gradientUnits="userSpaceOnUse">
	<stop  offset="0.4303" style="stop-color:#66E4FF"/>
	<stop  offset="0.5507" style="stop-color:#61E0FF"/>
	<stop  offset="0.6944" style="stop-color:#52D5FF"/>
	<stop  offset="0.8493" style="stop-color:#3BC2FF"/>
	<stop  offset="1" style="stop-color:#1CAAFF"/>
	<a:midPointStop  offset="0.4303" style="stop-color:#66E4FF"/>
	<a:midPointStop  offset="0.6702" style="stop-color:#66E4FF"/>
	<a:midPointStop  offset="1" style="stop-color:#1CAAFF"/>
</radialGradient>
<path fill="url(#SVGID_2_)" d="M12.894,2C7.945,8.772,5.096,15.005,5.096,20.122c0,4.35,3.496,7.879,7.801,7.879
	c4.308,0,7.801-3.529,7.801-7.879C20.697,15.005,17.769,8.662,12.894,2z"/>
<radialGradient id="SVGID_3_" cx="-476.5283" cy="70.5566" r="5.6375" gradientTransform="matrix(0.53 0.0805 -0.1698 1.1169 274.0093 -24.357)" gradientUnits="userSpaceOnUse">
	<stop  offset="0" style="stop-color:#D4F2FF"/>
	<stop  offset="0.5519" style="stop-color:#D1F1FF;stop-opacity:0.4481"/>
	<stop  offset="0.8834" style="stop-color:#C9EFFF;stop-opacity:0.1166"/>
	<stop  offset="1" style="stop-color:#C4EEFF;stop-opacity:0"/>
	<a:midPointStop  offset="0" style="stop-color:#D4F2FF"/>
	<a:midPointStop  offset="0.8" style="stop-color:#D4F2FF"/>
	<a:midPointStop  offset="1" style="stop-color:#C4EEFF;stop-opacity:0"/>
</radialGradient>
<path fill="url(#SVGID_3_)" d="M12.457,16.542c-0.529,3.477-2.296,6.092-3.946,5.843c-1.65-0.251-2.56-3.275-2.03-6.751
	c0.527-3.479,2.294-6.094,3.947-5.843C12.077,10.042,12.984,13.063,12.457,16.542z"/>
</svg>
