<?xml version="1.0" encoding="utf-8"?>
<!-- Generator: Adobe Illustrator 15.0.0, SVG Export Plug-In . SVG Version: 6.00 Build 0)  -->
<!DOCTYPE svg PUBLIC "-//W3C//DTD SVG 1.1//EN" "http://www.w3.org/Graphics/SVG/1.1/DTD/svg11.dtd" [
	<!ENTITY ns_flows "http://ns.adobe.com/Flows/1.0/">
	<!ENTITY ns_extend "http://ns.adobe.com/Extensibility/1.0/">
	<!ENTITY ns_ai "http://ns.adobe.com/AdobeIllustrator/10.0/">
	<!ENTITY ns_graphs "http://ns.adobe.com/Graphs/1.0/">
]>
<svg version="1.1" id="Layer_1" xmlns:x="&ns_extend;" xmlns:i="&ns_ai;" xmlns:graph="&ns_graphs;"
	 xmlns="http://www.w3.org/2000/svg" xmlns:xlink="http://www.w3.org/1999/xlink" xmlns:a="http://ns.adobe.com/AdobeSVGViewerExtensions/3.0/"
	 x="0px" y="0px" width="64px" height="64px" viewBox="0 0 64 64" enable-background="new 0 0 64 64" xml:space="preserve">
<linearGradient id="SVGID_1_" gradientUnits="userSpaceOnUse" x1="37.79" y1="61.6777" x2="37.79" y2="1.6777" gradientTransform="matrix(1 0 0 1 -5.79 0.3228)">
	<stop  offset="0" style="stop-color:#FF7B00"/>
	<stop  offset="0.3236" style="stop-color:#FFAE00"/>
	<stop  offset="0.6205" style="stop-color:#FFD600"/>
	<stop  offset="0.8558" style="stop-color:#FFEE00"/>
	<stop  offset="1" style="stop-color:#FFF700"/>
	<a:midPointStop  offset="0" style="stop-color:#FF7B00"/>
	<a:midPointStop  offset="0.4" style="stop-color:#FF7B00"/>
	<a:midPointStop  offset="1" style="stop-color:#FFF700"/>
</linearGradient>
<circle fill="url(#SVGID_1_)" cx="32" cy="32" r="30"/>
<radialGradient id="SVGID_2_" cx="-7.2422" cy="-21.1709" r="9.9998" gradientTransform="matrix(1.0832 -0.191 0.191 1.0834 27.3325 62.2376)" gradientUnits="userSpaceOnUse">
	<stop  offset="0.1" style="stop-color:#FF6399"/>
	<stop  offset="0.2424" style="stop-color:#FF6595;stop-opacity:0.8417"/>
	<stop  offset="0.3901" style="stop-color:#FF6C88;stop-opacity:0.6777"/>
	<stop  offset="0.5401" style="stop-color:#FF7874;stop-opacity:0.511"/>
	<stop  offset="0.6918" style="stop-color:#FF8857;stop-opacity:0.3424"/>
	<stop  offset="0.8449" style="stop-color:#FF9D31;stop-opacity:0.1724"/>
	<stop  offset="0.997" style="stop-color:#FFB604;stop-opacity:0.0034"/>
	<stop  offset="1" style="stop-color:#FFB703;stop-opacity:0"/>
	<a:midPointStop  offset="0.1" style="stop-color:#FF6399"/>
	<a:midPointStop  offset="0.7" style="stop-color:#FF6399"/>
	<a:midPointStop  offset="1" style="stop-color:#FFB703;stop-opacity:0"/>
</radialGradient>
<path opacity="0.6" fill="url(#SVGID_2_)" d="M13.535,29.851c5.98-1.055,11.686,2.94,12.74,8.923
	c1.059,5.984-2.939,11.689-8.92,12.744c-5.984,1.055-11.688-2.939-12.742-8.924C3.559,36.613,7.551,30.905,13.535,29.851z"/>
<radialGradient id="SVGID_3_" cx="28.251" cy="-20.8291" r="10.0005" gradientTransform="matrix(1.0832 -0.191 0.191 1.0833 23.9009 62.4572)" gradientUnits="userSpaceOnUse">
	<stop  offset="0.1" style="stop-color:#FF6399"/>
	<stop  offset="0.2424" style="stop-color:#FF6595;stop-opacity:0.8417"/>
	<stop  offset="0.3901" style="stop-color:#FF6C88;stop-opacity:0.6777"/>
	<stop  offset="0.5401" style="stop-color:#FF7874;stop-opacity:0.511"/>
	<stop  offset="0.6918" style="stop-color:#FF8857;stop-opacity:0.3424"/>
	<stop  offset="0.8449" style="stop-color:#FF9D31;stop-opacity:0.1724"/>
	<stop  offset="0.997" style="stop-color:#FFB604;stop-opacity:0.0034"/>
	<stop  offset="1" style="stop-color:#FFB703;stop-opacity:0"/>
	<a:midPointStop  offset="0.1" style="stop-color:#FF6399"/>
	<a:midPointStop  offset="0.7" style="stop-color:#FF6399"/>
	<a:midPointStop  offset="1" style="stop-color:#FFB703;stop-opacity:0"/>
</radialGradient>
<path opacity="0.6" fill="url(#SVGID_3_)" d="M48.613,23.665c5.982-1.054,11.689,2.941,12.744,8.923
	c1.055,5.987-2.941,11.688-8.922,12.743c-5.982,1.057-11.688-2.936-12.744-8.922C38.64,30.426,42.633,24.72,48.613,23.665z"/>
<path fill="#1A1626" d="M36.055,27.737c2.545-2.675,7.789-3.747,11.357-2.002c0.824,0.402,1.971-0.181,1.59-0.752
	c-3.876-5.837-13.055-4.205-14.699,2.592C34.141,28.242,35.424,28.403,36.055,27.737z"/>
<path fill="#1A1626" d="M26.729,29.382c-3.307-1.643-8.6-0.857-11.354,2.002c-0.639,0.661-1.914,0.505-1.752-0.163
	c1.646-6.811,10.83-8.417,14.697-2.592C28.701,29.202,27.551,29.791,26.729,29.382z"/>
<path fill="#1A1626" d="M38.384,51.555l-1.494,0.264c-0.778,0.137-1.52-0.383-1.656-1.16s0.381-1.52,1.159-1.656l1.495-0.264
	c1.042-0.184,1.828-0.527,2.21-0.969c0.229-0.266,0.31-0.563,0.247-0.912c-0.327-1.854-2.811-2.412-2.811-2.412
	s2.143-1.33,1.808-3.232c-0.062-0.348-0.24-0.6-0.542-0.77c-0.509-0.281-1.362-0.338-2.402-0.154l-1.494,0.264
	c-0.78,0.139-1.52-0.381-1.656-1.158c-0.138-0.779,0.381-1.52,1.159-1.656l1.495-0.264c1.734-0.307,3.179-0.148,4.29,0.473
	c1.057,0.588,1.755,1.572,1.966,2.77c0.187,1.061-0.02,2.127-0.499,2.996c0.752,0.652,1.315,1.586,1.504,2.648
	c0.212,1.197-0.109,2.363-0.902,3.277C41.426,50.604,40.121,51.248,38.384,51.555z"/>
<path fill="#D69600" d="M12.114,16.991c-8.634,7.4-2.271,7.55,5.786,2.19C22.447,16.156,17.797,12.117,12.114,16.991z"/>
<path fill="#D69600" d="M45.538,11.113c-7.007-2.636-9.995,2.75-4.687,4.037C50.257,17.432,56.185,15.114,45.538,11.113z"/>
</svg>
