<?xml version="1.0" encoding="utf-8"?>
<!-- Generator: Adobe Illustrator 15.0.0, SVG Export Plug-In . SVG Version: 6.00 Build 0)  -->
<!DOCTYPE svg PUBLIC "-//W3C//DTD SVG 1.1//EN" "http://www.w3.org/Graphics/SVG/1.1/DTD/svg11.dtd" [
	<!ENTITY ns_flows "http://ns.adobe.com/Flows/1.0/">
	<!ENTITY ns_extend "http://ns.adobe.com/Extensibility/1.0/">
	<!ENTITY ns_ai "http://ns.adobe.com/AdobeIllustrator/10.0/">
	<!ENTITY ns_graphs "http://ns.adobe.com/Graphs/1.0/">
]>
<svg version="1.1" id="Layer_1" xmlns:x="&ns_extend;" xmlns:i="&ns_ai;" xmlns:graph="&ns_graphs;"
	 xmlns="http://www.w3.org/2000/svg" xmlns:xlink="http://www.w3.org/1999/xlink" xmlns:a="http://ns.adobe.com/AdobeSVGViewerExtensions/3.0/"
	 x="0px" y="0px" width="64px" height="64px" viewBox="0 0 64 64" enable-background="new 0 0 64 64" xml:space="preserve">
<linearGradient id="SVGID_1_" gradientUnits="userSpaceOnUse" x1="31.9819" y1="62.1865" x2="31.9819" y2="2.187" gradientTransform="matrix(1 0 0 1 0.0181 -0.186)">
	<stop  offset="0" style="stop-color:#FF7B00"/>
	<stop  offset="0.3236" style="stop-color:#FFAE00"/>
	<stop  offset="0.6205" style="stop-color:#FFD600"/>
	<stop  offset="0.8558" style="stop-color:#FFEE00"/>
	<stop  offset="1" style="stop-color:#FFF700"/>
	<a:midPointStop  offset="0" style="stop-color:#FF7B00"/>
	<a:midPointStop  offset="0.4" style="stop-color:#FF7B00"/>
	<a:midPointStop  offset="1" style="stop-color:#FFF700"/>
</linearGradient>
<circle fill="url(#SVGID_1_)" cx="32" cy="32" r="30"/>
<path fill="#1A1626" d="M15.479,31.971c3.25-6.18,6.188-6.698,11.355-2.002c0.783,0.71,1.979-0.132,1.567-0.882
	c-5.426-9.884-12.98-8.552-14.699,2.592C13.573,32.525,14.986,32.907,15.479,31.971z"/>
<path fill="#1A1626" d="M36.16,28.325c3.25-6.18,6.188-6.698,11.355-2.002c0.783,0.71,1.979-0.133,1.567-0.883
	c-5.426-9.883-12.98-8.551-14.698,2.593C34.254,28.877,35.667,29.26,36.16,28.325z"/>
<path fill="#1A1626" d="M38.384,51.555l-1.494,0.264c-0.778,0.137-1.518-0.383-1.656-1.16c-0.137-0.777,0.382-1.52,1.16-1.656
	l1.494-0.264c1.043-0.184,1.829-0.527,2.21-0.969c0.23-0.266,0.311-0.563,0.249-0.912c-0.329-1.855-2.813-2.412-2.813-2.412
	s2.144-1.33,1.81-3.232c-0.063-0.348-0.241-0.6-0.543-0.77c-0.51-0.283-1.362-0.338-2.401-0.154l-1.496,0.264
	c-0.78,0.137-1.518-0.381-1.656-1.158c-0.137-0.779,0.381-1.521,1.16-1.658l1.494-0.262c1.735-0.307,3.179-0.148,4.29,0.473
	c1.057,0.588,1.756,1.572,1.966,2.77c0.186,1.061-0.019,2.127-0.499,2.996c0.752,0.652,1.316,1.586,1.504,2.646
	c0.213,1.199-0.109,2.365-0.902,3.279C41.426,50.604,40.121,51.248,38.384,51.555z"/>
</svg>
