<?xml version="1.0" encoding="utf-8"?>
<!-- Generator: Adobe Illustrator 15.0.0, SVG Export Plug-In . SVG Version: 6.00 Build 0)  -->
<!DOCTYPE svg PUBLIC "-//W3C//DTD SVG 1.1//EN" "http://www.w3.org/Graphics/SVG/1.1/DTD/svg11.dtd" [
	<!ENTITY ns_flows "http://ns.adobe.com/Flows/1.0/">
	<!ENTITY ns_extend "http://ns.adobe.com/Extensibility/1.0/">
	<!ENTITY ns_ai "http://ns.adobe.com/AdobeIllustrator/10.0/">
	<!ENTITY ns_graphs "http://ns.adobe.com/Graphs/1.0/">
]>
<svg version="1.1" id="Layer_1" xmlns:x="&ns_extend;" xmlns:i="&ns_ai;" xmlns:graph="&ns_graphs;"
	 xmlns="http://www.w3.org/2000/svg" xmlns:xlink="http://www.w3.org/1999/xlink" xmlns:a="http://ns.adobe.com/AdobeSVGViewerExtensions/3.0/"
	 x="0px" y="0px" width="64px" height="64px" viewBox="0 0 64 64" enable-background="new 0 0 64 64" xml:space="preserve">
<linearGradient id="SVGID_1_" gradientUnits="userSpaceOnUse" x1="88" y1="-142" x2="88" y2="-82" gradientTransform="matrix(1 0 0 -1 -56 -80)">
	<stop  offset="0" style="stop-color:#FF7B00"/>
	<stop  offset="0.3236" style="stop-color:#FFAE00"/>
	<stop  offset="0.6205" style="stop-color:#FFD600"/>
	<stop  offset="0.8558" style="stop-color:#FFEE00"/>
	<stop  offset="1" style="stop-color:#FFF700"/>
	<a:midPointStop  offset="0" style="stop-color:#FF7B00"/>
	<a:midPointStop  offset="0.4" style="stop-color:#FF7B00"/>
	<a:midPointStop  offset="1" style="stop-color:#FFF700"/>
</linearGradient>
<circle fill="url(#SVGID_1_)" cx="32" cy="32" r="30"/>
<path fill="#1A1626" d="M42.592,52.641c-1.811,0-2.938-1.424-3.844-2.568c-0.453-0.57-1.135-1.432-1.494-1.432
	c-0.346,0-1.006,0.854-1.443,1.418c-0.891,1.15-1.998,2.582-3.818,2.582c-1.818,0-2.926-1.432-3.816-2.582
	c-0.436-0.564-1.096-1.418-1.441-1.418c-0.358,0-1.04,0.861-1.49,1.432c-0.906,1.145-2.033,2.568-3.842,2.568
	c-3.122,0-4.647-3.896-4.811-4.34c-0.287-0.777,0.111-1.641,0.889-1.926c0.773-0.289,1.637,0.107,1.925,0.885
	c0.365,0.973,1.286,2.381,1.997,2.381c0.356,0,1.038-0.861,1.488-1.43c0.906-1.145,2.033-2.57,3.843-2.57
	c1.818,0,2.926,1.432,3.814,2.582c0.438,0.564,1.098,1.418,1.443,1.418c0.348,0,1.007-0.854,1.445-1.418
	c0.891-1.15,1.998-2.582,3.816-2.582c1.811,0,2.939,1.426,3.846,2.568c0.451,0.57,1.133,1.432,1.492,1.432
	c0.711,0,1.635-1.408,2.002-2.383c0.291-0.773,1.154-1.168,1.928-0.879c0.775,0.289,1.172,1.146,0.885,1.922
	C47.242,48.746,45.715,52.641,42.592,52.641z"/>
<path fill="#1A1626" d="M48.559,41.162c-3.203-1.645-9.604-4.279-13.063-5.322c-0.639-0.191-0.668-0.855-0.051-1.146
	c4.156-1.922,8.002-3.887,12.543-6.346c0.836-0.451,1.672,0.813,0.977,1.516c-1.855,1.884-4.502,3.643-6.436,4.941
	c2.207,1.152,5.246,3.18,7.215,4.992C50.521,40.514,49.348,41.568,48.559,41.162z"/>
<path fill="#1A1626" d="M14.257,39.797c1.969-1.813,5.006-3.84,7.213-4.992c-1.932-1.299-4.58-3.058-6.436-4.941
	c-0.695-0.703,0.143-1.967,0.977-1.516c4.541,2.459,8.387,4.424,12.542,6.346c0.619,0.291,0.59,0.955-0.051,1.146
	c-3.457,1.043-9.859,3.678-13.06,5.322C14.653,41.568,13.478,40.514,14.257,39.797z"/>
</svg>
