<?xml version="1.0" encoding="utf-8"?>
<!-- Generator: Adobe Illustrator 15.0.0, SVG Export Plug-In . SVG Version: 6.00 Build 0)  -->
<!DOCTYPE svg PUBLIC "-//W3C//DTD SVG 1.1//EN" "http://www.w3.org/Graphics/SVG/1.1/DTD/svg11.dtd" [
	<!ENTITY ns_flows "http://ns.adobe.com/Flows/1.0/">
	<!ENTITY ns_extend "http://ns.adobe.com/Extensibility/1.0/">
	<!ENTITY ns_ai "http://ns.adobe.com/AdobeIllustrator/10.0/">
	<!ENTITY ns_graphs "http://ns.adobe.com/Graphs/1.0/">
]>
<svg version="1.1" id="Layer_1" xmlns:x="&ns_extend;" xmlns:i="&ns_ai;" xmlns:graph="&ns_graphs;"
	 xmlns="http://www.w3.org/2000/svg" xmlns:xlink="http://www.w3.org/1999/xlink" xmlns:a="http://ns.adobe.com/AdobeSVGViewerExtensions/3.0/"
	 x="0px" y="0px" width="64px" height="64px" viewBox="0 0 64 64" enable-background="new 0 0 64 64" xml:space="preserve">
<linearGradient id="SVGID_1_" gradientUnits="userSpaceOnUse" x1="32.0005" y1="62" x2="32.0005" y2="2.0005">
	<stop  offset="0" style="stop-color:#FF7B00"/>
	<stop  offset="0.3236" style="stop-color:#FFAE00"/>
	<stop  offset="0.6205" style="stop-color:#FFD600"/>
	<stop  offset="0.8558" style="stop-color:#FFEE00"/>
	<stop  offset="1" style="stop-color:#FFF700"/>
	<a:midPointStop  offset="0" style="stop-color:#FF7B00"/>
	<a:midPointStop  offset="0.4" style="stop-color:#FF7B00"/>
	<a:midPointStop  offset="1" style="stop-color:#FFF700"/>
</linearGradient>
<circle fill="url(#SVGID_1_)" cx="32" cy="32" r="30"/>
<path fill="#1A1626" d="M48.559,41.337c-3.203-1.645-9.604-4.279-13.063-5.322c-0.639-0.192-0.668-0.856-0.051-1.146
	c4.156-1.923,8.002-3.888,12.543-6.347c0.836-0.451,1.672,0.813,0.977,1.516c-1.855,1.884-4.502,3.644-6.436,4.942
	c2.207,1.151,5.246,3.179,7.215,4.992C50.521,40.688,49.348,41.743,48.559,41.337z"/>
<path fill="#1A1626" d="M14.256,39.972c1.969-1.813,5.006-3.841,7.213-4.992c-1.932-1.299-4.58-3.059-6.436-4.942
	c-0.695-0.703,0.143-1.967,0.977-1.516c4.541,2.459,8.387,4.424,12.543,6.347c0.619,0.29,0.59,0.954-0.051,1.146
	c-3.457,1.043-9.859,3.678-13.061,5.322C14.652,41.743,13.477,40.688,14.256,39.972z"/>
<path fill="#1A1626" d="M24.893,51.535c3.663-2.573,10.259-2.744,14.215,0c0.916,0.634,2.434,0.193,2.094-0.546
	c-3.458-7.537-14.952-7.521-18.402,0C22.459,51.729,23.981,52.175,24.893,51.535z"/>
<path fill="#D69600" d="M16.05,19.361c-9.788,5.789-3.548,7.042,5.317,3.161C26.369,20.333,22.491,15.547,16.05,19.361z"/>
<path fill="#D69600" d="M47.946,19.376c-6.441-3.813-10.319,0.972-5.315,3.161C51.498,26.418,57.738,25.165,47.946,19.376z"/>
</svg>
