<?xml version="1.0" encoding="utf-8"?>
<!-- Generator: Adobe Illustrator 15.0.0, SVG Export Plug-In . SVG Version: 6.00 Build 0)  -->
<!DOCTYPE svg PUBLIC "-//W3C//DTD SVG 1.1//EN" "http://www.w3.org/Graphics/SVG/1.1/DTD/svg11.dtd" [
	<!ENTITY ns_flows "http://ns.adobe.com/Flows/1.0/">
	<!ENTITY ns_extend "http://ns.adobe.com/Extensibility/1.0/">
	<!ENTITY ns_ai "http://ns.adobe.com/AdobeIllustrator/10.0/">
	<!ENTITY ns_graphs "http://ns.adobe.com/Graphs/1.0/">
]>
<svg version="1.1" id="Layer_1" xmlns:x="&ns_extend;" xmlns:i="&ns_ai;" xmlns:graph="&ns_graphs;"
	 xmlns="http://www.w3.org/2000/svg" xmlns:xlink="http://www.w3.org/1999/xlink" xmlns:a="http://ns.adobe.com/AdobeSVGViewerExtensions/3.0/"
	 x="0px" y="0px" width="64px" height="64px" viewBox="0 0 64 64" enable-background="new 0 0 64 64" xml:space="preserve">
<linearGradient id="SVGID_1_" gradientUnits="userSpaceOnUse" x1="32.0005" y1="62" x2="32.0005" y2="2.0005">
	<stop  offset="0" style="stop-color:#FF7B00"/>
	<stop  offset="0.3236" style="stop-color:#FFAE00"/>
	<stop  offset="0.6205" style="stop-color:#FFD600"/>
	<stop  offset="0.8558" style="stop-color:#FFEE00"/>
	<stop  offset="1" style="stop-color:#FFF700"/>
	<a:midPointStop  offset="0" style="stop-color:#FF7B00"/>
	<a:midPointStop  offset="0.4" style="stop-color:#FF7B00"/>
	<a:midPointStop  offset="1" style="stop-color:#FFF700"/>
</linearGradient>
<circle fill="url(#SVGID_1_)" cx="32" cy="32" r="30"/>
<path fill="#1A1626" d="M39.67,50.475c-1.93-4.023-13.408-4.023-15.338,0c-1.539,3.209,2.492,1.559,7.67,1.559
	C37.17,52.033,41.207,53.684,39.67,50.475z"/>
<path fill="#1A1626" d="M27.265,31.491c-2.971,2.193-8.32,2.337-11.53,0c-0.742-0.54-1.973-0.165-1.697,0.465
	c2.805,6.421,12.127,6.408,14.926,0C29.238,31.326,28.003,30.946,27.265,31.491z"/>
<path fill="#1A1626" d="M36.734,31.491c2.971,2.193,8.32,2.337,11.531,0c0.742-0.54,1.973-0.165,1.697,0.465
	c-2.805,6.421-12.127,6.408-14.926,0C34.762,31.326,35.996,30.946,36.734,31.491z"/>
<radialGradient id="SVGID_2_" cx="-242.8315" cy="49.2715" r="7.7294" gradientTransform="matrix(0.456 -0.89 1.4042 0.7195 86.319 -204.7747)" gradientUnits="userSpaceOnUse">
	<stop  offset="0.4303" style="stop-color:#66E4FF"/>
	<stop  offset="0.5507" style="stop-color:#61E0FF"/>
	<stop  offset="0.6944" style="stop-color:#52D5FF"/>
	<stop  offset="0.8493" style="stop-color:#3BC2FF"/>
	<stop  offset="1" style="stop-color:#1CAAFF"/>
	<a:midPointStop  offset="0.4303" style="stop-color:#66E4FF"/>
	<a:midPointStop  offset="0.6702" style="stop-color:#66E4FF"/>
	<a:midPointStop  offset="1" style="stop-color:#1CAAFF"/>
</radialGradient>
<path fill="url(#SVGID_2_)" d="M51.352,41.812c-6.072-2.732-15.543,0.229-16.316,0.903c-1.014,0.884,3.068-0.279,8.645,9.676
	C51.545,66.451,67.193,48.943,51.352,41.812z"/>
<radialGradient id="SVGID_3_" cx="190.0273" cy="4.71" r="5.0042" gradientTransform="matrix(-0.1707 0.5081 1.071 0.3596 76.2184 -54.0132)" gradientUnits="userSpaceOnUse">
	<stop  offset="0" style="stop-color:#D4F2FF"/>
	<stop  offset="0.5519" style="stop-color:#D1F1FF;stop-opacity:0.4481"/>
	<stop  offset="0.8834" style="stop-color:#C9EFFF;stop-opacity:0.1166"/>
	<stop  offset="1" style="stop-color:#C4EEFF;stop-opacity:0"/>
	<a:midPointStop  offset="0" style="stop-color:#D4F2FF"/>
	<a:midPointStop  offset="0.8" style="stop-color:#D4F2FF"/>
	<a:midPointStop  offset="1" style="stop-color:#C4EEFF;stop-opacity:0"/>
</radialGradient>
<path fill="url(#SVGID_3_)" d="M47.973,46.775c2.959,0.994,5.742,0.66,6.213-0.742c0.473-1.406-1.545-3.351-4.506-4.342
	c-2.961-0.995-5.744-0.662-6.215,0.742C42.996,43.839,45.012,45.783,47.973,46.775z"/>
<path fill="#D69600" d="M15.228,19.902c-10.255,4.914-4.148,6.706,5.022,3.612C25.423,21.77,21.978,16.665,15.228,19.902z"/>
<path fill="#D69600" d="M48.77,19.918c-6.75-3.237-10.195,1.868-5.021,3.612C52.92,26.624,59.027,24.831,48.77,19.918z"/>
</svg>
