<?xml version="1.0" encoding="utf-8"?>
<!-- Generator: Adobe Illustrator 15.0.0, SVG Export Plug-In . SVG Version: 6.00 Build 0)  -->
<!DOCTYPE svg PUBLIC "-//W3C//DTD SVG 1.1//EN" "http://www.w3.org/Graphics/SVG/1.1/DTD/svg11.dtd" [
	<!ENTITY ns_flows "http://ns.adobe.com/Flows/1.0/">
	<!ENTITY ns_extend "http://ns.adobe.com/Extensibility/1.0/">
	<!ENTITY ns_ai "http://ns.adobe.com/AdobeIllustrator/10.0/">
	<!ENTITY ns_graphs "http://ns.adobe.com/Graphs/1.0/">
]>
<svg version="1.1" id="Layer_1" xmlns:x="&ns_extend;" xmlns:i="&ns_ai;" xmlns:graph="&ns_graphs;"
	 xmlns="http://www.w3.org/2000/svg" xmlns:xlink="http://www.w3.org/1999/xlink" xmlns:a="http://ns.adobe.com/AdobeSVGViewerExtensions/3.0/"
	 x="0px" y="0px" width="64px" height="64px" viewBox="0 0 64 64" enable-background="new 0 0 64 64" xml:space="preserve">
<linearGradient id="SVGID_1_" gradientUnits="userSpaceOnUse" x1="32.0005" y1="62" x2="32.0005" y2="2.001">
	<stop  offset="0" style="stop-color:#FF7B00"/>
	<stop  offset="0.3236" style="stop-color:#FFAE00"/>
	<stop  offset="0.6205" style="stop-color:#FFD600"/>
	<stop  offset="0.8558" style="stop-color:#FFEE00"/>
	<stop  offset="1" style="stop-color:#FFF700"/>
	<a:midPointStop  offset="0" style="stop-color:#FF7B00"/>
	<a:midPointStop  offset="0.4" style="stop-color:#FF7B00"/>
	<a:midPointStop  offset="1" style="stop-color:#FFF700"/>
</linearGradient>
<circle fill="url(#SVGID_1_)" cx="32" cy="32" r="30"/>
<path fill="#FFFFFF" d="M29.5,29c0,5.246-4.258,9.5-9.5,9.5c-5.246,0-9.5-4.254-9.5-9.5c0-5.244,4.254-9.5,9.5-9.5
	C25.242,19.5,29.5,23.756,29.5,29z"/>
<path fill="#FFFFFF" d="M53.5,29c0,5.246-4.258,9.5-9.5,9.5c-5.246,0-9.5-4.254-9.5-9.5c0-5.244,4.254-9.5,9.5-9.5
	C49.242,19.5,53.5,23.756,53.5,29z"/>
<path fill="#1A1626" d="M24.5,29c0,2.486-2.018,4.5-4.5,4.5c-2.488,0-4.5-2.013-4.5-4.5s2.012-4.5,4.5-4.5
	C22.482,24.5,24.5,26.514,24.5,29z"/>
<path fill="#1A1626" d="M48.5,29c0,2.486-2.018,4.5-4.5,4.5c-2.488,0-4.5-2.013-4.5-4.5s2.012-4.5,4.5-4.5
	C46.482,24.5,48.5,26.514,48.5,29z"/>
<path fill="#1A1626" d="M39,50.119c0,9.674-14,9.674-14,0v-1.238c0-9.674,14-9.674,14,0V50.119z"/>
<linearGradient id="SVGID_2_" gradientUnits="userSpaceOnUse" x1="27.332" y1="44.4824" x2="36.668" y2="44.4824">
	<stop  offset="0" style="stop-color:#CFD7E6"/>
	<stop  offset="0.0368" style="stop-color:#DAE0EC"/>
	<stop  offset="0.1263" style="stop-color:#EEF1F6"/>
	<stop  offset="0.2147" style="stop-color:#FBFCFD"/>
	<stop  offset="0.3" style="stop-color:#FFFFFF"/>
	<stop  offset="0.7" style="stop-color:#FFFFFF"/>
	<stop  offset="0.7853" style="stop-color:#FBFCFD"/>
	<stop  offset="0.8737" style="stop-color:#EEF1F6"/>
	<stop  offset="0.9632" style="stop-color:#DAE0EC"/>
	<stop  offset="1" style="stop-color:#CFD7E6"/>
	<a:midPointStop  offset="0" style="stop-color:#CFD7E6"/>
	<a:midPointStop  offset="0.3" style="stop-color:#CFD7E6"/>
	<a:midPointStop  offset="0.3" style="stop-color:#FFFFFF"/>
	<a:midPointStop  offset="0.5" style="stop-color:#FFFFFF"/>
	<a:midPointStop  offset="0.7" style="stop-color:#FFFFFF"/>
	<a:midPointStop  offset="0.7" style="stop-color:#FFFFFF"/>
	<a:midPointStop  offset="1" style="stop-color:#CFD7E6"/>
</linearGradient>
<path fill="url(#SVGID_2_)" d="M27.332,46c0.932-1.813,2.674-3.035,4.666-3.035c1.996,0,3.736,1.221,4.67,3.035H27.332z"/>
<path fill="#FD7383" d="M32,53.771c-2.563-0.75-3.668,0.82-3.668,0.82c1.061,0.799,2.283,1.266,3.668,1.266s2.607-0.467,3.668-1.266
	C35.668,54.592,34.563,53.021,32,53.771z"/>
<path fill="#D69600" d="M15.049,11.187c-9.787,5.789-3.547,7.042,5.318,3.161C25.369,12.159,21.49,7.374,15.049,11.187z"/>
<path fill="#D69600" d="M48.946,11.203c-6.442-3.812-10.32,0.972-5.316,3.161C52.497,18.245,58.738,16.991,48.946,11.203z"/>
</svg>
