<?xml version="1.0" encoding="utf-8"?>
<!-- Generator: Adobe Illustrator 15.0.0, SVG Export Plug-In . SVG Version: 6.00 Build 0)  -->
<!DOCTYPE svg PUBLIC "-//W3C//DTD SVG 1.1//EN" "http://www.w3.org/Graphics/SVG/1.1/DTD/svg11.dtd" [
	<!ENTITY ns_flows "http://ns.adobe.com/Flows/1.0/">
	<!ENTITY ns_extend "http://ns.adobe.com/Extensibility/1.0/">
	<!ENTITY ns_ai "http://ns.adobe.com/AdobeIllustrator/10.0/">
	<!ENTITY ns_graphs "http://ns.adobe.com/Graphs/1.0/">
]>
<svg version="1.1" id="Layer_1" xmlns:x="&ns_extend;" xmlns:i="&ns_ai;" xmlns:graph="&ns_graphs;"
	 xmlns="http://www.w3.org/2000/svg" xmlns:xlink="http://www.w3.org/1999/xlink" xmlns:a="http://ns.adobe.com/AdobeSVGViewerExtensions/3.0/"
	 x="0px" y="0px" width="64px" height="64px" viewBox="0 0 64 64" enable-background="new 0 0 64 64" xml:space="preserve">
<path fill="#FFE600" d="M7.982,3.212c6.331,1.782,16.591,8.37,16.591,8.37L7.768,26.773c0,0-4.875-9.437-3.529-21.812
	C4.426,3.241,5.931,2.635,7.982,3.212z"/>
<linearGradient id="SVGID_1_" gradientUnits="userSpaceOnUse" x1="608.5107" y1="15.5425" x2="627.4115" y2="15.5425" gradientTransform="matrix(-1 0 0 1 631.2734 0.123)">
	<stop  offset="0" style="stop-color:#BA0085;stop-opacity:0.7"/>
	<stop  offset="1" style="stop-color:#FF87F3;stop-opacity:0.5"/>
	<a:midPointStop  offset="0" style="stop-color:#BA0085;stop-opacity:0.7"/>
	<a:midPointStop  offset="0.5" style="stop-color:#BA0085;stop-opacity:0.7"/>
	<a:midPointStop  offset="1" style="stop-color:#FF87F3;stop-opacity:0.5"/>
</linearGradient>
<path fill="url(#SVGID_1_)" d="M8.231,5.169c4.521,2.68,8.463,7.59,11.098,11.463L8.328,26.824c0,0-4.182-8.129-3.514-20.193
	C4.921,4.65,5.954,3.817,8.231,5.169z"/>
<path fill="#FFE600" d="M55.968,3.212c-6.333,1.782-16.593,8.37-16.593,8.37l16.807,15.191c0,0,4.876-9.437,3.529-21.812
	C59.524,3.241,58.018,2.635,55.968,3.212z"/>
<linearGradient id="SVGID_2_" gradientUnits="userSpaceOnUse" x1="-35.2979" y1="15.5425" x2="-16.3958" y2="15.5425" gradientTransform="matrix(1 0 0 1 76.4844 0.123)">
	<stop  offset="0" style="stop-color:#BA0085;stop-opacity:0.7"/>
	<stop  offset="1" style="stop-color:#FF87F3;stop-opacity:0.5"/>
	<a:midPointStop  offset="0" style="stop-color:#BA0085;stop-opacity:0.7"/>
	<a:midPointStop  offset="0.5" style="stop-color:#BA0085;stop-opacity:0.7"/>
	<a:midPointStop  offset="1" style="stop-color:#FF87F3;stop-opacity:0.5"/>
</linearGradient>
<path fill="url(#SVGID_2_)" d="M55.717,5.169c-4.52,2.68-8.463,7.59-11.098,11.463l11.002,10.191c0,0,4.183-8.129,3.516-20.193
	C59.029,4.65,57.995,3.817,55.717,5.169z"/>
<path fill="#FFE600" d="M27.48,18.891c-5.631-4.563-12.624-3.769-16.094-2.964c-1.569,0.362-1.805,0.699-0.667,1.45
	c1.673,1.106,3.479,2.917,4.979,5.66C17.564,26.444,29.888,20.848,27.48,18.891z"/>
<path fill="#FFE600" d="M25.536,18.987c-6.57-3.068-13.159-0.599-16.331,1.018c-1.43,0.732-1.581,1.114-0.291,1.569
	c1.888,0.668,4.079,1.986,6.201,4.286C17.755,28.716,28.345,20.299,25.536,18.987z"/>
<path fill="#FFE600" d="M36.52,18.891c5.631-4.563,12.623-3.769,16.094-2.964c1.568,0.362,1.805,0.699,0.668,1.45
	c-1.674,1.106-3.48,2.917-4.979,5.66C46.436,26.444,34.111,20.848,36.52,18.891z"/>
<path fill="#FFE600" d="M38.464,18.987c6.569-3.068,13.159-0.599,16.331,1.018c1.43,0.732,1.58,1.114,0.291,1.569
	c-1.889,0.668-4.08,1.986-6.201,4.286C46.244,28.716,35.654,20.299,38.464,18.987z"/>
<linearGradient id="SVGID_3_" gradientUnits="userSpaceOnUse" x1="32.0005" y1="61" x2="32.0005" y2="9.2622">
	<stop  offset="0" style="stop-color:#FF9900"/>
	<stop  offset="0.7212" style="stop-color:#FFE600"/>
	<a:midPointStop  offset="0" style="stop-color:#FF9900"/>
	<a:midPointStop  offset="0.5" style="stop-color:#FF9900"/>
	<a:midPointStop  offset="0.7212" style="stop-color:#FFE600"/>
</linearGradient>
<path fill="url(#SVGID_3_)" d="M32,9.262c-22.47,0-30.951,27.395-27.108,37.971C7.809,55.261,26.134,61,32,61
	c5.865,0,24.192-5.739,27.107-13.768C62.951,36.656,54.469,9.262,32,9.262z"/>
<linearGradient id="SVGID_4_" gradientUnits="userSpaceOnUse" x1="32" y1="21.1113" x2="32" y2="9.2373">
	<stop  offset="0" style="stop-color:#DE9400;stop-opacity:0.5"/>
	<stop  offset="1" style="stop-color:#DE9400"/>
	<a:midPointStop  offset="0" style="stop-color:#DE9400;stop-opacity:0.5"/>
	<a:midPointStop  offset="0.5" style="stop-color:#DE9400;stop-opacity:0.5"/>
	<a:midPointStop  offset="1" style="stop-color:#DE9400"/>
</linearGradient>
<path fill="url(#SVGID_4_)" d="M30.169,9.343c0,0,1.831-0.237,3.661,0C33.83,25.034,30.169,25.034,30.169,9.343z"/>
<linearGradient id="SVGID_5_" gradientUnits="userSpaceOnUse" x1="26.3599" y1="17.1152" x2="26.3599" y2="9.5723">
	<stop  offset="0" style="stop-color:#DE9400;stop-opacity:0.5"/>
	<stop  offset="1" style="stop-color:#DE9400"/>
	<a:midPointStop  offset="0" style="stop-color:#DE9400;stop-opacity:0.5"/>
	<a:midPointStop  offset="0.5" style="stop-color:#DE9400;stop-opacity:0.5"/>
	<a:midPointStop  offset="1" style="stop-color:#DE9400"/>
</linearGradient>
<path fill="url(#SVGID_5_)" d="M27.956,9.572c0,0-1.632,0.207-3.001,0.665C24.091,19.71,26.349,19.313,27.956,9.572z"/>
<linearGradient id="SVGID_6_" gradientUnits="userSpaceOnUse" x1="654.959" y1="17.1152" x2="654.959" y2="9.5723" gradientTransform="matrix(-1 0 0 1 692.5996 0)">
	<stop  offset="0" style="stop-color:#DE9400;stop-opacity:0.5"/>
	<stop  offset="1" style="stop-color:#DE9400"/>
	<a:midPointStop  offset="0" style="stop-color:#DE9400;stop-opacity:0.5"/>
	<a:midPointStop  offset="0.5" style="stop-color:#DE9400;stop-opacity:0.5"/>
	<a:midPointStop  offset="1" style="stop-color:#DE9400"/>
</linearGradient>
<path fill="url(#SVGID_6_)" d="M36.046,9.572c0,0,1.632,0.207,3.001,0.665C39.908,19.71,37.652,19.313,36.046,9.572z"/>
<linearGradient id="SVGID_7_" gradientUnits="userSpaceOnUse" x1="53.21" y1="45.5234" x2="59.8477" y2="45.5234">
	<stop  offset="0" style="stop-color:#DE9400;stop-opacity:0.5"/>
	<stop  offset="1" style="stop-color:#DE9400"/>
	<a:midPointStop  offset="0" style="stop-color:#DE9400;stop-opacity:0.5"/>
	<a:midPointStop  offset="0.5" style="stop-color:#DE9400;stop-opacity:0.5"/>
	<a:midPointStop  offset="1" style="stop-color:#DE9400"/>
</linearGradient>
<path fill="url(#SVGID_7_)" d="M59.848,43.977c0,0-0.16,1.826-0.684,3.094C50.769,46.28,51.483,44.241,59.848,43.977z"/>
<linearGradient id="SVGID_8_" gradientUnits="userSpaceOnUse" x1="53.3848" y1="49.8477" x2="58.6006" y2="49.8477">
	<stop  offset="0" style="stop-color:#DE9400;stop-opacity:0.5"/>
	<stop  offset="1" style="stop-color:#DE9400"/>
	<a:midPointStop  offset="0" style="stop-color:#DE9400;stop-opacity:0.5"/>
	<a:midPointStop  offset="0.5" style="stop-color:#DE9400;stop-opacity:0.5"/>
	<a:midPointStop  offset="1" style="stop-color:#DE9400"/>
</linearGradient>
<path fill="url(#SVGID_8_)" d="M58.601,48.343c0,0-1.088,1.95-2.459,3.034C51.589,49.104,52.856,48.152,58.601,48.343z"/>
<linearGradient id="SVGID_9_" gradientUnits="userSpaceOnUse" x1="56.1582" y1="41.2021" x2="59.9795" y2="41.2021">
	<stop  offset="0" style="stop-color:#DE9400;stop-opacity:0.5"/>
	<stop  offset="1" style="stop-color:#DE9400"/>
	<a:midPointStop  offset="0" style="stop-color:#DE9400;stop-opacity:0.5"/>
	<a:midPointStop  offset="0.5" style="stop-color:#DE9400;stop-opacity:0.5"/>
	<a:midPointStop  offset="1" style="stop-color:#DE9400"/>
</linearGradient>
<path fill="url(#SVGID_9_)" d="M59.966,42.592c0,0,0.034-2.087-0.005-2.779C54.516,40.994,55.279,42.34,59.966,42.592z"/>
<linearGradient id="SVGID_10_" gradientUnits="userSpaceOnUse" x1="682.3936" y1="45.5234" x2="689.0303" y2="45.5234" gradientTransform="matrix(-1 0 0 1 693.1836 0)">
	<stop  offset="0" style="stop-color:#DE9400;stop-opacity:0.5"/>
	<stop  offset="1" style="stop-color:#DE9400"/>
	<a:midPointStop  offset="0" style="stop-color:#DE9400;stop-opacity:0.5"/>
	<a:midPointStop  offset="0.5" style="stop-color:#DE9400;stop-opacity:0.5"/>
	<a:midPointStop  offset="1" style="stop-color:#DE9400"/>
</linearGradient>
<path fill="url(#SVGID_10_)" d="M4.153,43.977c0,0,0.16,1.826,0.683,3.094C13.233,46.28,12.516,44.241,4.153,43.977z"/>
<linearGradient id="SVGID_11_" gradientUnits="userSpaceOnUse" x1="682.5684" y1="49.8477" x2="687.7852" y2="49.8477" gradientTransform="matrix(-1 0 0 1 693.1836 0)">
	<stop  offset="0" style="stop-color:#DE9400;stop-opacity:0.5"/>
	<stop  offset="1" style="stop-color:#DE9400"/>
	<a:midPointStop  offset="0" style="stop-color:#DE9400;stop-opacity:0.5"/>
	<a:midPointStop  offset="0.5" style="stop-color:#DE9400;stop-opacity:0.5"/>
	<a:midPointStop  offset="1" style="stop-color:#DE9400"/>
</linearGradient>
<path fill="url(#SVGID_11_)" d="M5.399,48.343c0,0,1.09,1.95,2.461,3.034C12.411,49.104,11.143,48.152,5.399,48.343z"/>
<linearGradient id="SVGID_12_" gradientUnits="userSpaceOnUse" x1="685.3418" y1="41.2021" x2="689.1621" y2="41.2021" gradientTransform="matrix(-1 0 0 1 693.1836 0)">
	<stop  offset="0" style="stop-color:#DE9400;stop-opacity:0.5"/>
	<stop  offset="1" style="stop-color:#DE9400"/>
	<a:midPointStop  offset="0" style="stop-color:#DE9400;stop-opacity:0.5"/>
	<a:midPointStop  offset="0.5" style="stop-color:#DE9400;stop-opacity:0.5"/>
	<a:midPointStop  offset="1" style="stop-color:#DE9400"/>
</linearGradient>
<path fill="url(#SVGID_12_)" d="M4.035,42.592c0,0-0.034-2.087,0.006-2.779C9.484,40.994,8.722,42.34,4.035,42.592z"/>
<path fill="#C4810A" d="M36.546,38.182c-0.911-0.965-8.183-0.965-9.094,0C26.06,39.65,30.198,42.27,32,42.27
	C33.802,42.27,37.939,39.65,36.546,38.182z"/>
<linearGradient id="SVGID_13_" gradientUnits="userSpaceOnUse" x1="45.3066" y1="27.938" x2="41.5314" y2="48.0788" gradientTransform="matrix(0.9659 0.2588 -0.2588 0.9659 12.0619 -18.3787)">
	<stop  offset="0" style="stop-color:#FF666B"/>
	<stop  offset="0.1751" style="stop-color:#FB5B5F"/>
	<stop  offset="0.4917" style="stop-color:#F03D3F"/>
	<stop  offset="0.9112" style="stop-color:#DF0C0C"/>
	<stop  offset="1" style="stop-color:#DB0100"/>
	<a:midPointStop  offset="0" style="stop-color:#FF666B"/>
	<a:midPointStop  offset="0.5758" style="stop-color:#FF666B"/>
	<a:midPointStop  offset="1" style="stop-color:#DB0100"/>
</linearGradient>
<path fill="url(#SVGID_13_)" d="M45.843,24.72c-1.64-5.503-10.167-5.814-11.756,0.121c-0.954,3.567,1.359,6.888,5.929,13.171
	c1.551,2.131,1.831,2.206,4.238,1.137c7.091-3.155,10.756-4.871,11.712-8.44C57.555,24.774,50.013,20.775,45.843,24.72z"/>
<linearGradient id="SVGID_14_" gradientUnits="userSpaceOnUse" x1="31.2764" y1="1.5986" x2="27.5002" y2="21.7446" gradientTransform="matrix(0.9659 -0.2588 0.2588 0.9659 -12.283 26.0912)">
	<stop  offset="0" style="stop-color:#FF666B"/>
	<stop  offset="0.1751" style="stop-color:#FB5B5F"/>
	<stop  offset="0.4917" style="stop-color:#F03D3F"/>
	<stop  offset="0.9112" style="stop-color:#DF0C0C"/>
	<stop  offset="1" style="stop-color:#DB0100"/>
	<a:midPointStop  offset="0" style="stop-color:#FF666B"/>
	<a:midPointStop  offset="0.5758" style="stop-color:#FF666B"/>
	<a:midPointStop  offset="1" style="stop-color:#DB0100"/>
</linearGradient>
<path fill="url(#SVGID_14_)" d="M18.157,24.722c-4.168-3.946-11.709,0.053-10.123,5.99c0.956,3.566,4.62,5.284,11.713,8.437
	c2.407,1.069,2.688,0.994,4.239-1.137c4.564-6.281,6.883-9.602,5.927-13.172C28.326,18.906,19.796,19.217,18.157,24.722z"/>
<path fill="#1A1626" d="M43.587,43.535c0,8.365-5.188,11.601-11.587,11.601c-6.396,0-11.586-3.235-11.586-11.601
	c0,0,8.66,1.615,11.586,1.615C34.926,45.15,43.587,43.535,43.587,43.535z"/>
<path fill="#FFFFFF" d="M26.062,46.063c2.109,1.703,9.768,1.703,11.879,0c0.522-0.424,0.024-1.057,0.024-1.057H26.037
	C26.037,45.006,25.539,45.639,26.062,46.063z"/>
<path fill="#ED7196" d="M39.851,53.486c-3.251-2.664-12.447-2.664-15.703,0c2.065,1.273,4.82,1.648,7.852,1.648
	C35.033,55.135,37.785,54.76,39.851,53.486z"/>
<path fill="#FFFFFF" d="M24.863,45.969c0.217,1.556,1,1.556,1.217,0c0.053-0.387,0.002-0.963,0.002-0.963h-1.221
	C24.861,45.006,24.81,45.582,24.863,45.969z"/>
<path fill="#FFFFFF" d="M37.921,45.969c0.216,1.556,1,1.556,1.216,0c0.053-0.387,0.002-0.963,0.002-0.963h-1.22
	C37.919,45.006,37.867,45.582,37.921,45.969z"/>
<path fill="#8F5D08" d="M32,55.74c-7.746,0-12.189-4.448-12.189-12.205c0-0.203,0.103-0.393,0.272-0.504
	c0.17-0.113,0.385-0.131,0.571-0.049c0.036,0.015,3.707,1.563,11.346,1.563c7.64,0,11.311-1.549,11.347-1.563
	c0.186-0.082,0.4-0.064,0.571,0.049c0.17,0.111,0.272,0.301,0.272,0.504C44.19,51.292,39.748,55.74,32,55.74z M21.036,44.398
	C21.439,53.189,28.025,54.531,32,54.531c3.976,0,10.561-1.342,10.965-10.133C41.436,44.881,37.86,45.754,32,45.754
	C26.14,45.754,22.565,44.881,21.036,44.398z"/>
</svg>
