<?xml version="1.0" encoding="utf-8"?>
<!-- Generator: Adobe Illustrator 15.0.0, SVG Export Plug-In . SVG Version: 6.00 Build 0)  -->
<!DOCTYPE svg PUBLIC "-//W3C//DTD SVG 1.1//EN" "http://www.w3.org/Graphics/SVG/1.1/DTD/svg11.dtd" [
	<!ENTITY ns_flows "http://ns.adobe.com/Flows/1.0/">
	<!ENTITY ns_extend "http://ns.adobe.com/Extensibility/1.0/">
	<!ENTITY ns_ai "http://ns.adobe.com/AdobeIllustrator/10.0/">
	<!ENTITY ns_graphs "http://ns.adobe.com/Graphs/1.0/">
]>
<svg version="1.1" id="Layer_1" xmlns:x="&ns_extend;" xmlns:i="&ns_ai;" xmlns:graph="&ns_graphs;"
	 xmlns="http://www.w3.org/2000/svg" xmlns:xlink="http://www.w3.org/1999/xlink" xmlns:a="http://ns.adobe.com/AdobeSVGViewerExtensions/3.0/"
	 x="0px" y="0px" width="64px" height="64px" viewBox="0 0 64 64" enable-background="new 0 0 64 64" xml:space="preserve">
<linearGradient id="SVGID_1_" gradientUnits="userSpaceOnUse" x1="32.0005" y1="62" x2="32.0005" y2="2.0005">
	<stop  offset="0.3" style="stop-color:#FFAA00"/>
	<stop  offset="0.85" style="stop-color:#26B0FF"/>
	<a:midPointStop  offset="0.3" style="stop-color:#FFAA00"/>
	<a:midPointStop  offset="0.5" style="stop-color:#FFAA00"/>
	<a:midPointStop  offset="0.85" style="stop-color:#26B0FF"/>
</linearGradient>
<circle fill="url(#SVGID_1_)" cx="32" cy="32" r="30"/>
<ellipse fill="#1A1626" cx="22" cy="33" rx="4" ry="5"/>
<ellipse fill="#1A1626" cx="42" cy="33" rx="4" ry="5"/>
<path fill="#1A1626" d="M42.926,51.771C43.613,47.621,38.828,43,31.998,43c-6.824,0-11.697,4.652-10.926,8.771
	c0.732,3.906,5.732,1.457,10.928,1.463C37.383,53.238,42.277,55.701,42.926,51.771z"/>
<path fill="#016ABD" d="M18.051,19.892c-9.788,5.788-3.548,7.041,5.317,3.16C28.37,20.862,24.492,16.077,18.051,19.892z"/>
<path fill="#016ABD" d="M45.947,19.907c-6.441-3.813-10.319,0.972-5.315,3.16C49.499,26.948,55.739,25.694,45.947,19.907z"/>
<radialGradient id="SVGID_2_" cx="8.6211" cy="43.1963" r="10.7025" gradientTransform="matrix(0.0149 0.9999 -0.6745 0.0101 37.6289 34.1416)" gradientUnits="userSpaceOnUse">
	<stop  offset="0.4303" style="stop-color:#66E4FF"/>
	<stop  offset="0.5507" style="stop-color:#61E0FF"/>
	<stop  offset="0.6944" style="stop-color:#52D5FF"/>
	<stop  offset="0.8493" style="stop-color:#3BC2FF"/>
	<stop  offset="1" style="stop-color:#1CAAFF"/>
	<a:midPointStop  offset="0.4303" style="stop-color:#66E4FF"/>
	<a:midPointStop  offset="0.6702" style="stop-color:#66E4FF"/>
	<a:midPointStop  offset="1" style="stop-color:#1CAAFF"/>
</radialGradient>
<path fill="url(#SVGID_2_)" d="M9.998,35.438C6.191,40.647,4,45.442,4,49.378c0,3.346,2.689,6.06,6,6.06c3.314,0,6-2.714,6-6.06
	C16,45.442,13.748,40.562,9.998,35.438z"/>
<radialGradient id="SVGID_3_" cx="-471.9482" cy="97.2529" r="4.3369" gradientTransform="matrix(0.53 0.0805 -0.1698 1.1169 274.0093 -24.357)" gradientUnits="userSpaceOnUse">
	<stop  offset="0" style="stop-color:#D4F2FF"/>
	<stop  offset="0.5519" style="stop-color:#D1F1FF;stop-opacity:0.4481"/>
	<stop  offset="0.8834" style="stop-color:#C9EFFF;stop-opacity:0.1166"/>
	<stop  offset="1" style="stop-color:#C4EEFF;stop-opacity:0"/>
	<a:midPointStop  offset="0" style="stop-color:#D4F2FF"/>
	<a:midPointStop  offset="0.8" style="stop-color:#D4F2FF"/>
	<a:midPointStop  offset="1" style="stop-color:#C4EEFF;stop-opacity:0"/>
</radialGradient>
<path fill="url(#SVGID_3_)" d="M9.662,46.624c-0.407,2.674-1.767,4.686-3.035,4.494c-1.27-0.193-1.969-2.52-1.562-5.193
	c0.406-2.676,1.765-4.688,3.036-4.494C9.37,41.624,10.067,43.948,9.662,46.624z"/>
</svg>
