<?xml version="1.0" encoding="utf-8"?>
<!-- Generator: Adobe Illustrator 15.0.0, SVG Export Plug-In . SVG Version: 6.00 Build 0)  -->
<!DOCTYPE svg PUBLIC "-//W3C//DTD SVG 1.1//EN" "http://www.w3.org/Graphics/SVG/1.1/DTD/svg11.dtd" [
	<!ENTITY ns_flows "http://ns.adobe.com/Flows/1.0/">
	<!ENTITY ns_extend "http://ns.adobe.com/Extensibility/1.0/">
	<!ENTITY ns_ai "http://ns.adobe.com/AdobeIllustrator/10.0/">
	<!ENTITY ns_graphs "http://ns.adobe.com/Graphs/1.0/">
]>
<svg version="1.1" id="Layer_1" xmlns:x="&ns_extend;" xmlns:i="&ns_ai;" xmlns:graph="&ns_graphs;"
	 xmlns="http://www.w3.org/2000/svg" xmlns:xlink="http://www.w3.org/1999/xlink" xmlns:a="http://ns.adobe.com/AdobeSVGViewerExtensions/3.0/"
	 x="0px" y="0px" width="64px" height="64px" viewBox="0 0 64 64" enable-background="new 0 0 64 64" xml:space="preserve">
<rect x="21.513" y="18.54" fill="#99A8AE" width="1.377" height="5.643"/>
<path fill="#CFD8DD" d="M7.342,23.596c0,0,4.559-3.397,14.171-5.056v5.056H7.342z"/>
<linearGradient id="SVGID_1_" gradientUnits="userSpaceOnUse" x1="11.7334" y1="55.5" x2="11.7334" y2="23.002">
	<stop  offset="0" style="stop-color:#C6CFD4"/>
	<stop  offset="0.2285" style="stop-color:#D4DBE0"/>
	<stop  offset="0.5643" style="stop-color:#E1E7EB"/>
	<stop  offset="0.8606" style="stop-color:#E6EBEF"/>
	<a:midPointStop  offset="0" style="stop-color:#C6CFD4"/>
	<a:midPointStop  offset="0.3191" style="stop-color:#C6CFD4"/>
	<a:midPointStop  offset="0.8606" style="stop-color:#E6EBEF"/>
</linearGradient>
<path fill="url(#SVGID_1_)" d="M22.4,55.5V24.084c0-0.596-0.481-1.083-1.067-1.083H6.4c-0.588,0-1.2,0.469-1.36,1.041
	c0,0-0.117,0.419-0.311,1.126l0.07,5.416l-3.183,7.584c0,0-0.551,2.348-0.551,4.332v13H22.4z"/>
<path opacity="0.1" fill="#1A1626" d="M9.081,52.754H5.646c-0.515,0-0.933-0.426-0.933-0.947V38.98c0-0.457,0.077-1.189,0.173-1.635
	l2.635-12.264c0.106-0.497,0.603-0.9,1.103-0.9h11.956c0.515,0,0.934,0.425,0.934,0.948v18.183c0,0.494-0.309,1.109-0.702,1.4
	L10.606,52.25C10.233,52.527,9.548,52.754,9.081,52.754z M8.623,24.453c-0.377,0-0.761,0.314-0.842,0.687L5.146,37.402
	c-0.091,0.432-0.166,1.139-0.166,1.578v12.826c0,0.373,0.298,0.676,0.666,0.676h3.436c0.413,0,1.038-0.207,1.369-0.451l10.204-7.537
	c0.32-0.236,0.592-0.777,0.592-1.182V25.13c0-0.374-0.3-0.677-0.667-0.677H8.623z"/>
<path fill="#F59E01" d="M63.467,10H22.934c-0.294,0-0.533,0.244-0.533,0.542V45.75H64V10.542C64,10.244,63.761,10,63.467,10z"/>
<linearGradient id="SVGID_2_" gradientUnits="userSpaceOnUse" x1="43.2002" y1="44.125" x2="43.2002" y2="11.6265">
	<stop  offset="0" style="stop-color:#FFC800"/>
	<stop  offset="1" style="stop-color:#FFE600"/>
	<a:midPointStop  offset="0" style="stop-color:#FFC800"/>
	<a:midPointStop  offset="0.497" style="stop-color:#FFC800"/>
	<a:midPointStop  offset="1" style="stop-color:#FFE600"/>
</linearGradient>
<rect x="24" y="11.626" fill="url(#SVGID_2_)" width="38.4" height="32.499"/>
<rect x="27" y="42.66" fill="#E81C27" width="1.066" height="0.541"/>
<rect x="58.333" y="42.66" fill="#E81C27" width="1.067" height="0.541"/>
<path fill="#4E5E67" d="M12.8,51.168H1.066C0.479,51.168,0,51.654,0,52.25v2.168C0,55.014,0.479,55.5,1.066,55.5H12.8V51.168z"/>
<linearGradient id="SVGID_3_" gradientUnits="userSpaceOnUse" x1="3.9106" y1="38.168" x2="3.9106" y2="25.1685">
	<stop  offset="0" style="stop-color:#302C3B"/>
	<stop  offset="0.2926" style="stop-color:#454754"/>
	<stop  offset="0.7557" style="stop-color:#636D78"/>
	<stop  offset="1" style="stop-color:#6E7B85"/>
	<a:midPointStop  offset="0" style="stop-color:#302C3B"/>
	<a:midPointStop  offset="0.4364" style="stop-color:#302C3B"/>
	<a:midPointStop  offset="1" style="stop-color:#6E7B85"/>
</linearGradient>
<path fill="url(#SVGID_3_)" d="M5.333,25.168H4.729l-3.112,13h1.05c0.585,0,1.164-0.477,1.283-1.061l2.231-10.88
	C6.302,25.644,5.919,25.168,5.333,25.168z"/>
<linearGradient id="SVGID_4_" gradientUnits="userSpaceOnUse" x1="13.1641" y1="38.168" x2="13.1641" y2="25.1685">
	<stop  offset="0" style="stop-color:#302C3B"/>
	<stop  offset="0.2926" style="stop-color:#454754"/>
	<stop  offset="0.7557" style="stop-color:#636D78"/>
	<stop  offset="1" style="stop-color:#6E7B85"/>
	<a:midPointStop  offset="0" style="stop-color:#302C3B"/>
	<a:midPointStop  offset="0.4364" style="stop-color:#302C3B"/>
	<a:midPointStop  offset="1" style="stop-color:#6E7B85"/>
</linearGradient>
<path fill="url(#SVGID_4_)" d="M19.2,25.168H9.6c-0.587,0-1.164,0.476-1.285,1.06l-2.231,10.88
	c-0.118,0.584,0.263,1.061,0.851,1.061H19.2c0.585,0,1.066-0.488,1.066-1.084V26.251C20.267,25.655,19.785,25.168,19.2,25.168z"/>
<path fill="#E6EBEF" d="M1.332,44.668H3.2v4.334H1.332V44.668z"/>
<path fill="#F59E01" d="M3.2,44.668v4.334l1.066-1.084v-3.25H3.2z"/>
<path fill="#99A8AE" d="M19.704,40.367c0-0.396,0-0.717-1.258-0.717h-1.323c-1.263,0-1.263,0.32-1.263,0.717
	C15.86,40.604,19.704,40.604,19.704,40.367z"/>
<path fill="#4E5E67" d="M17.066,45.75c-5.23,0-9.473,4.436-9.473,9.75h55.34c0.587,0,1.066-0.486,1.066-1.082V45.75H17.066z"/>
<path fill="#1A1626" d="M54.4,47.916c-4.123,0-7.467,3.395-7.467,7.584h14.934C61.867,51.311,58.523,47.916,54.4,47.916z"/>
<radialGradient id="SVGID_5_" cx="54.4004" cy="49.5645" r="6.3999" gradientTransform="matrix(1 0 0 1.0155 0 5.1682)" gradientUnits="userSpaceOnUse">
	<stop  offset="0.4909" style="stop-color:#5B666E"/>
	<stop  offset="0.6437" style="stop-color:#525A64"/>
	<stop  offset="0.9181" style="stop-color:#3C3B49"/>
	<stop  offset="1" style="stop-color:#343040"/>
	<a:midPointStop  offset="0.4909" style="stop-color:#5B666E"/>
	<a:midPointStop  offset="0.5765" style="stop-color:#5B666E"/>
	<a:midPointStop  offset="1" style="stop-color:#343040"/>
</radialGradient>
<ellipse fill="url(#SVGID_5_)" cx="54.4" cy="55.5" rx="6.399" ry="6.5"/>
<path fill="#E6EBEF" d="M58.239,55.5c0,2.156-1.719,3.898-3.839,3.898c-2.121,0-3.84-1.742-3.84-3.898s1.721-3.9,3.84-3.9
	C56.523,51.6,58.239,53.344,58.239,55.5z"/>
<ellipse fill="#99A8AE" cx="54.4" cy="55.501" rx="3.142" ry="3.19"/>
<path fill="#4E5E67" d="M54.706,53.313c0,0.408-0.61,0.408-0.61,0C54.096,52.896,54.706,52.896,54.706,53.313z"/>
<path fill="#4E5E67" d="M54.706,57.688c0,0.416-0.61,0.416-0.61,0C54.096,57.279,54.706,57.279,54.706,57.688z"/>
<path fill="#4E5E67" d="M56.421,54.67c-0.35,0.207-0.654-0.326-0.304-0.531C56.465,53.934,56.767,54.467,56.421,54.67z"/>
<path fill="#4E5E67" d="M52.684,56.859c-0.346,0.205-0.65-0.326-0.303-0.531C52.731,56.123,53.033,56.656,52.684,56.859z"/>
<path fill="#4E5E67" d="M56.114,56.859c-0.344-0.203-0.043-0.736,0.303-0.531C56.767,56.533,56.463,57.064,56.114,56.859z"/>
<path fill="#4E5E67" d="M52.381,54.67c-0.348-0.203-0.043-0.734,0.303-0.529C53.033,54.344,52.731,54.875,52.381,54.67z"/>
<ellipse fill="#4E5E67" cx="54.398" cy="55.5" rx="0.885" ry="0.9"/>
<path fill="#1A1626" d="M17.066,47.916c-4.123,0-7.467,3.395-7.467,7.584h14.934C24.533,51.311,21.191,47.916,17.066,47.916z"/>
<radialGradient id="SVGID_6_" cx="76.2754" cy="111.6455" r="5.3335" gradientTransform="matrix(1.2 0 0 1.2186 -74.4633 -80.5517)" gradientUnits="userSpaceOnUse">
	<stop  offset="0.4909" style="stop-color:#5B666E"/>
	<stop  offset="0.6437" style="stop-color:#525A64"/>
	<stop  offset="0.9181" style="stop-color:#3C3B49"/>
	<stop  offset="1" style="stop-color:#343040"/>
	<a:midPointStop  offset="0.4909" style="stop-color:#5B666E"/>
	<a:midPointStop  offset="0.5765" style="stop-color:#5B666E"/>
	<a:midPointStop  offset="1" style="stop-color:#343040"/>
</radialGradient>
<ellipse fill="url(#SVGID_6_)" cx="17.066" cy="55.5" rx="6.4" ry="6.5"/>
<path fill="#99A8AE" d="M20.906,55.5c-0.002,2.154-1.719,3.898-3.84,3.898c-2.123,0-3.839-1.744-3.839-3.898s1.719-3.9,3.839-3.9
	C19.188,51.6,20.906,53.346,20.906,55.5z"/>
<ellipse fill="#E6EBEF" cx="17.066" cy="55.5" rx="3.29" ry="3.342"/>
<path fill="#4E5E67" d="M17.412,53.008c0,0.467-0.693,0.467-0.693,0C16.719,52.539,17.412,52.539,17.412,53.008z"/>
<path fill="#4E5E67" d="M17.412,57.99c0,0.473-0.693,0.473-0.693,0C16.719,57.525,17.412,57.525,17.412,57.99z"/>
<path fill="#4E5E67" d="M19.364,54.553c-0.397,0.236-0.741-0.367-0.341-0.604C19.417,53.717,19.761,54.322,19.364,54.553z"/>
<path fill="#4E5E67" d="M15.112,57.049c-0.394,0.23-0.739-0.373-0.344-0.604C15.167,56.211,15.511,56.814,15.112,57.049z"/>
<path fill="#4E5E67" d="M19.017,57.049c-0.392-0.234-0.05-0.838,0.346-0.604C19.761,56.676,19.415,57.279,19.017,57.049z"/>
<path fill="#4E5E67" d="M14.769,54.553c-0.396-0.23-0.05-0.832,0.344-0.6C15.511,54.186,15.167,54.789,14.769,54.553z"/>
<path fill="#99A8AE" d="M18.985,55.5c0,1.078-0.856,1.949-1.921,1.949c-1.061,0-1.919-0.871-1.919-1.949s0.858-1.949,1.919-1.949
	C18.129,53.551,18.985,54.422,18.985,55.5z"/>
<path fill="#E6EBEF" d="M18.603,55.5c0,0.861-0.692,1.561-1.54,1.561c-0.846,0-1.531-0.699-1.531-1.561
	c0-0.863,0.686-1.561,1.531-1.561C17.91,53.939,18.603,54.637,18.603,55.5z"/>
</svg>
