<?xml version="1.0" encoding="utf-8"?>
<!-- Generator: Adobe Illustrator 15.0.0, SVG Export Plug-In . SVG Version: 6.00 Build 0)  -->
<!DOCTYPE svg PUBLIC "-//W3C//DTD SVG 1.1//EN" "http://www.w3.org/Graphics/SVG/1.1/DTD/svg11.dtd" [
	<!ENTITY ns_flows "http://ns.adobe.com/Flows/1.0/">
	<!ENTITY ns_extend "http://ns.adobe.com/Extensibility/1.0/">
	<!ENTITY ns_ai "http://ns.adobe.com/AdobeIllustrator/10.0/">
	<!ENTITY ns_graphs "http://ns.adobe.com/Graphs/1.0/">
]>
<svg version="1.1" id="Layer_1" xmlns:x="&ns_extend;" xmlns:i="&ns_ai;" xmlns:graph="&ns_graphs;"
	 xmlns="http://www.w3.org/2000/svg" xmlns:xlink="http://www.w3.org/1999/xlink" xmlns:a="http://ns.adobe.com/AdobeSVGViewerExtensions/3.0/"
	 x="0px" y="0px" width="64px" height="64px" viewBox="0 0 64 64" enable-background="new 0 0 64 64" xml:space="preserve">
<linearGradient id="SVGID_1_" gradientUnits="userSpaceOnUse" x1="32.0024" y1="45.1484" x2="32.0024" y2="28.6079">
	<stop  offset="0" style="stop-color:#C40000"/>
	<stop  offset="0.0315" style="stop-color:#C70001"/>
	<stop  offset="0.4274" style="stop-color:#E50008"/>
	<stop  offset="0.7642" style="stop-color:#F8000C"/>
	<stop  offset="1" style="stop-color:#FF000E"/>
	<a:midPointStop  offset="0" style="stop-color:#C40000"/>
	<a:midPointStop  offset="0.3697" style="stop-color:#C40000"/>
	<a:midPointStop  offset="1" style="stop-color:#FF000E"/>
</linearGradient>
<path fill="url(#SVGID_1_)" d="M63.373,28.641c0,0-13.94,3.33-31.308,3.336c-17.431,0.008-31.434-3.336-31.434-3.336
	s0-1.091,0.515,9.213c0.231,4.666,3.207,5.748,5.143,6.01c12.747,1.715,38.679,1.713,51.427,0c1.936-0.26,4.91-1.344,5.143-6.01
	C63.373,27.549,63.373,28.641,63.373,28.641z"/>
<linearGradient id="SVGID_2_" gradientUnits="userSpaceOnUse" x1="36.085" y1="31.5713" x2="50" y2="40.3894">
	<stop  offset="0" style="stop-color:#960000"/>
	<stop  offset="0.3576" style="stop-color:#960000;stop-opacity:0"/>
	<a:midPointStop  offset="0" style="stop-color:#960000"/>
	<a:midPointStop  offset="0.3051" style="stop-color:#960000"/>
	<a:midPointStop  offset="0.3576" style="stop-color:#960000;stop-opacity:0"/>
</linearGradient>
<path fill="url(#SVGID_2_)" d="M57.726,43.826c1.936-0.258,4.91-1.342,5.143-6.008c0.379-7.595,0.479-8.997,0.505-9.21
	c-0.177,0.041-10.949,2.588-25.297,3.202L25.384,45.045C37.063,45.287,49.886,44.881,57.726,43.826z"/>
<path fill="#302C3B" d="M32.065,32.846c-22.827,0-31.35-3.281-31.7-3.421c-0.401-0.16-0.517-1.728-0.119-1.566
	c0.084,0.032,9.334,3.319,31.819,3.319c22.477,0,31.605-3.285,31.688-3.319c0.395-0.158,0.287,1.402-0.111,1.563
	C63.296,29.563,54.892,32.846,32.065,32.846z"/>
<linearGradient id="SVGID_3_" gradientUnits="userSpaceOnUse" x1="41.585" y1="289.9512" x2="50.626" y2="289.9512" gradientTransform="matrix(0.7071 0.7071 -0.7071 0.7071 191.4658 -186.2633)">
	<stop  offset="0" style="stop-color:#DB9442"/>
	<stop  offset="0.3947" style="stop-color:#CF843D"/>
	<stop  offset="1" style="stop-color:#B86432"/>
	<a:midPointStop  offset="0" style="stop-color:#DB9442"/>
	<a:midPointStop  offset="0.5576" style="stop-color:#DB9442"/>
	<a:midPointStop  offset="1" style="stop-color:#B86432"/>
</linearGradient>
<path fill="url(#SVGID_3_)" d="M20.476,44.736C16.852,46.832,8.348,55.221,8.538,56.604c0.385,2.813,2.555,4.988,5.27,5.393
	c1.368,0.205,9.613-8.424,11.656-12.156c3.059-5.598,2.238-7.402,2.238-7.402S25.899,41.602,20.476,44.736z"/>
<linearGradient id="SVGID_4_" gradientUnits="userSpaceOnUse" x1="43.2539" y1="242.3535" x2="47.6826" y2="242.3535" gradientTransform="matrix(0.7071 0.7071 -0.7071 0.7071 191.4658 -186.2633)">
	<stop  offset="0" style="stop-color:#DB9442"/>
	<stop  offset="0.3947" style="stop-color:#CF843D"/>
	<stop  offset="1" style="stop-color:#B86432"/>
	<a:midPointStop  offset="0" style="stop-color:#DB9442"/>
	<a:midPointStop  offset="0.5576" style="stop-color:#DB9442"/>
	<a:midPointStop  offset="1" style="stop-color:#B86432"/>
</linearGradient>
<path fill="url(#SVGID_4_)" d="M55.468,17.168L52.373,14c-1.078,1.104-1.774,4.988-1.774,4.988S54.392,18.272,55.468,17.168z"/>
<linearGradient id="SVGID_5_" gradientUnits="userSpaceOnUse" x1="44.6895" y1="271.1934" x2="46.9717" y2="271.1934" gradientTransform="matrix(0.7071 0.7071 -0.7071 0.7071 191.4658 -186.2633)">
	<stop  offset="0" style="stop-color:#F5A54A"/>
	<stop  offset="0.3395" style="stop-color:#EB9E47"/>
	<stop  offset="1" style="stop-color:#DB9442"/>
	<a:midPointStop  offset="0" style="stop-color:#F5A54A"/>
	<a:midPointStop  offset="0.4424" style="stop-color:#F5A54A"/>
	<a:midPointStop  offset="1" style="stop-color:#DB9442"/>
</linearGradient>
<path fill="url(#SVGID_5_)" d="M10.895,60.736c0,0-0.607-0.383-1.094-1.105l43.577-44.605l1.086,1.114L10.895,60.736z"/>
</svg>
