<?xml version="1.0" encoding="utf-8"?>
<!-- Generator: Adobe Illustrator 15.0.0, SVG Export Plug-In . SVG Version: 6.00 Build 0)  -->
<!DOCTYPE svg PUBLIC "-//W3C//DTD SVG 1.1//EN" "http://www.w3.org/Graphics/SVG/1.1/DTD/svg11.dtd" [
	<!ENTITY ns_flows "http://ns.adobe.com/Flows/1.0/">
	<!ENTITY ns_extend "http://ns.adobe.com/Extensibility/1.0/">
	<!ENTITY ns_ai "http://ns.adobe.com/AdobeIllustrator/10.0/">
	<!ENTITY ns_graphs "http://ns.adobe.com/Graphs/1.0/">
]>
<svg version="1.1" id="Layer_1" xmlns:x="&ns_extend;" xmlns:i="&ns_ai;" xmlns:graph="&ns_graphs;"
	 xmlns="http://www.w3.org/2000/svg" xmlns:xlink="http://www.w3.org/1999/xlink" xmlns:a="http://ns.adobe.com/AdobeSVGViewerExtensions/3.0/"
	 x="0px" y="0px" width="64px" height="64px" viewBox="0 0 64 64" enable-background="new 0 0 64 64" xml:space="preserve">
<linearGradient id="SVGID_1_" gradientUnits="userSpaceOnUse" x1="32.0034" y1="60.2686" x2="32.0034" y2="3.7319">
	<stop  offset="0" style="stop-color:#4A3728"/>
	<stop  offset="0.1158" style="stop-color:#594534"/>
	<stop  offset="0.2805" style="stop-color:#68523F"/>
	<stop  offset="0.4791" style="stop-color:#705A46"/>
	<stop  offset="0.8" style="stop-color:#735C48"/>
	<a:midPointStop  offset="0" style="stop-color:#4A3728"/>
	<a:midPointStop  offset="0.2045" style="stop-color:#4A3728"/>
	<a:midPointStop  offset="0.8" style="stop-color:#735C48"/>
</linearGradient>
<path fill="url(#SVGID_1_)" d="M59.758,22.482c-1.651-3.778-11.255-8.454-14.986-17.465c-1.205-2.909-8.861-0.792-7.052,5.427
	c0.218,0.749-2.853,0.589-3.161,3.339c-1.616,14.439-13.662,16.979-14.73,26.126c-5.507,0.16-6.406-0.748-10.988-1.328
	c-3.512-0.445-7.41,18.358-3.434,19.587c3.765,1.164,21.794,2.521,26.506,1.977c5.201-0.599,23.504-13.487,25.266-16.885
	C59.686,38.42,61.104,25.567,59.758,22.482z M36.84,37.93c1.767-4.565,6.011-18.172,6.011-18.172s2.627,7,3.838,12.695
	C43.913,33.216,36.84,37.93,36.84,37.93z"/>
<path fill="#241B13" d="M28.823,61L28.823,61C21.91,61,8.521,59.896,5.19,58.866c-2.864-0.884-2.24-7.163-1.839-9.822
	c0.598-3.97,2.592-11.552,5.58-11.188c1.641,0.207,2.832,0.46,3.885,0.683c1.789,0.379,3.313,0.697,6.377,0.653
	c0.687-3.947,3.328-6.722,6.115-9.649c3.586-3.766,7.649-8.034,8.522-15.839c0.245-2.177,1.926-2.903,2.829-3.293
	c0.083-0.034,0.178-0.076,0.263-0.116c-0.58-2.37,0.138-4.005,0.865-4.974C38.845,3.911,40.656,3,42.401,3
	c1.455,0,2.595,0.649,3.045,1.737c2.214,5.345,6.566,9.129,10.063,12.171c2.352,2.045,4.209,3.66,4.918,5.281
	c1.487,3.408-0.117,16.613-2.601,21.407c-1.928,3.716-20.511,16.661-25.831,17.275C31.257,60.958,30.19,61,28.823,61z M8.747,39.307
	c-0.994,0-3.046,3.972-3.95,9.956c-0.753,4.987-0.155,7.903,0.825,8.207c2.939,0.909,15.947,2.068,23.201,2.068l0,0
	c1.311,0,2.321-0.04,3.005-0.119c4.781-0.551,23.009-13.23,24.7-16.495c2.478-4.784,3.8-17.306,2.56-20.148
	c-0.577-1.32-2.413-2.916-4.538-4.764c-3.613-3.143-8.108-7.053-10.454-12.715c-0.312-0.753-1.289-0.835-1.694-0.835
	c-1.3,0-2.652,0.682-3.444,1.735c-0.807,1.076-0.991,2.474-0.535,4.042c0.26,0.892-0.643,1.28-1.182,1.514
	c-1.023,0.441-1.816,0.878-1.956,2.112c-0.928,8.294-5.171,12.752-8.916,16.685c-2.88,3.026-5.37,5.64-5.814,9.444l-0.072,0.627
	l-0.633,0.019c-3.653,0.102-5.343-0.249-7.335-0.671C11.438,39.741,10.328,39.506,8.747,39.307L8.747,39.307z M35.118,39.956
	l1.057-2.328c2.248-4.958,5.936-17.938,5.973-18.069l0.605-2.141l0.783,2.083c0.026,0.07,2.659,7.116,3.867,12.8l0.145,0.675
	l-0.665,0.183c-2.632,0.724-9.567,5.333-9.637,5.38L35.118,39.956z M42.924,22.136c-0.973,3.318-2.893,9.672-4.518,13.911
	c2.095-1.322,5.373-3.298,7.428-4.078C45.032,28.436,43.74,24.494,42.924,22.136z"/>
<path fill="#241B13" d="M48.114,9.456c0.723,1.759,1.473,3.495,2.302,5.194c0.816,1.706,1.782,3.32,2.738,4.989
	c0.234,0.42,0.463,0.843,0.68,1.271c0.23,0.424,0.426,0.905,0.538,1.38c0.231,0.954,0.307,1.911,0.387,2.862
	c0.15,1.897,0.296,3.801,0.814,5.641c-0.612-1.811-0.857-3.726-1.102-5.609c-0.13-0.942-0.255-1.889-0.521-2.777
	c-0.242-0.879-0.826-1.639-1.328-2.443c-1.056-1.567-2.17-3.151-3.125-4.822c-0.97-1.661-1.859-3.367-2.713-5.078L48.114,9.456z"/>
<path fill="#241B13" d="M43.303,21.729l-1.422-0.343c0.994-4.127,0.565-7.655-1.117-9.208c-0.857-0.788-1.965-0.969-3.293-0.531
	l-0.455-1.39c1.816-0.595,3.498-0.298,4.739,0.847C43.858,13.044,44.438,17.016,43.303,21.729z"/>
</svg>
