<?xml version="1.0" encoding="utf-8"?>
<!-- Generator: Adobe Illustrator 15.0.0, SVG Export Plug-In . SVG Version: 6.00 Build 0)  -->
<!DOCTYPE svg PUBLIC "-//W3C//DTD SVG 1.1//EN" "http://www.w3.org/Graphics/SVG/1.1/DTD/svg11.dtd" [
	<!ENTITY ns_flows "http://ns.adobe.com/Flows/1.0/">
	<!ENTITY ns_extend "http://ns.adobe.com/Extensibility/1.0/">
	<!ENTITY ns_ai "http://ns.adobe.com/AdobeIllustrator/10.0/">
	<!ENTITY ns_graphs "http://ns.adobe.com/Graphs/1.0/">
]>
<svg version="1.1" id="Layer_1" xmlns:x="&ns_extend;" xmlns:i="&ns_ai;" xmlns:graph="&ns_graphs;"
	 xmlns="http://www.w3.org/2000/svg" xmlns:xlink="http://www.w3.org/1999/xlink" xmlns:a="http://ns.adobe.com/AdobeSVGViewerExtensions/3.0/"
	 x="0px" y="0px" width="64px" height="64px" viewBox="0 0 64 64" enable-background="new 0 0 64 64" xml:space="preserve">
<polygon fill="#99A8AE" points="32.686,28.772 30.616,20.269 20.042,10.667 11.612,12.164 7,24.587 10.915,33.578 32.686,41.864 
	54.228,32.437 57,22.56 51.834,13.133 43.9,11.987 35.781,18.154 "/>
<path fill="#302C3B" d="M40.195,0c0,0,0,0-9.006,56.1c-0.141,0.894,1.343,1.184,1.52,0.292C43.776,0.734,43.784,0.686,43.784,0.686
	L40.195,0z"/>
<polygon fill="#E81C27" points="39.961,1.458 43.5,2.118 42.119,9.066 38.852,8.369 "/>
<polygon opacity="0.3" fill="#FFFFFF" enable-background="new    " points="40.539,0.066 41.748,0.296 31.189,56.101 "/>
<path fill="#302C3B" d="M48.965,1.67c0,0,0,0-13.858,55.043c-0.221,0.876,1.236,1.295,1.491,0.422
	C52.475,2.713,52.485,2.668,52.485,2.668L48.965,1.67z"/>
<polygon fill="#E81C27" points="48.592,3.156 52.048,4.173 50.102,10.842 46.891,9.914 "/>
<polygon opacity="0.3" fill="#FFFFFF" enable-background="new    " points="49.304,1.766 50.49,2.103 35.105,56.712 "/>
<path fill="#E6EBEF" d="M32.686,64c9.042-2.058,16.104-5.344,16.104-5.344l5.812-25.078c0,0-9.812-1.882-21.916,5.693V64z"/>
<polygon fill="#E6EBEF" points="29.786,27.991 20.902,19.887 12.812,18.595 7.522,25.291 9.633,34.881 32.686,39.271 "/>
<path fill="#CFD8DD" d="M32.686,39.271c9.979-4.057,21.916-5.693,21.916-5.693l1.476-10.49l-1.567-3.699c0,0-2.984,0.646-2.431-3.29
	c0.18-1.274-1.673-3.596-3.411-0.997c-1.2,1.791-3.692,5.901-3.692,5.901l1.876-0.323l0.554,1.44l-6.61,1.29l-5.689,6.286
	L32.686,39.271z"/>
<polygon fill="#B3C2C6" points="54.602,33.578 49.229,35.513 44.615,43.765 48.79,58.656 "/>
<path fill="#F2F5F7" d="M9.633,34.881l5.763,25.75C22.914,63.054,32.686,64,32.686,64V39.271
	C32.686,39.271,21.16,35.646,9.633,34.881z"/>
<path fill-rule="evenodd" clip-rule="evenodd" fill="#E81C27" d="M26.253,57.574c-0.329-1.322,1.422-0.892,1.434-2.162
	c-1.516-0.18-1.826-1.493-2.493-2.472c0.342-0.451,0.972-0.6,1.221-1.15c-1.521-0.442-1.929-1.676-2.319-2.636
	c0.549-0.295,0.861-0.84,1.427-1.113c-1.2-0.399-1.785-1.38-2.292-2.432c0.081-0.614,0.449-0.922,0.819-1.232
	c-1.429-0.718-3.006-3.364-3.006-3.364s-0.937,2.156-2.245,2.344c0.475,0.473,0.946,0.945,1.198,1.624
	c-0.245,0.906-0.59,1.705-1.747,1.646c0.674,0.516,1.15,1.213,1.808,1.742c-0.148,0.856-0.237,1.993-1.721,1.85
	c0.414,0.68,1.117,1.09,1.605,1.702c-0.44,0.763-0.404,2.021-1.951,1.607c0.359,1.341,2.085,1.585,2.101,2.848l-3.147-0.612
	l0.207,1.541l12.455,2.426l-0.207-1.543L26.253,57.574z M23.709,47.729c-0.401,0.755-3.009,0.241-3.637-0.708
	C20.291,46.362,23.3,46.948,23.709,47.729z M24.394,51.383c-0.44,0.72-3.393,0.131-4.039-0.786
	C20.547,49.845,23.984,50.514,24.394,51.383z M24.932,54.479c-0.634,0.712-3.492,0.099-4.298-0.836
	C20.903,52.655,24.377,53.331,24.932,54.479z M21.01,55.504c0.559-0.106,3.419,0.45,4.038,0.785
	c0.048,0.359,0.096,0.719,0.144,1.078l-4.037-0.786C21.105,56.222,21.057,55.863,21.01,55.504z"/>
<polygon fill="#E6EBEF" points="54.602,33.578 49.436,35.686 45.146,43.923 48.79,58.656 "/>
<polygon fill="#B3C2C6" points="32.686,64 50.662,40.155 44.292,36.442 32.686,39.271 "/>
<polygon fill="#E6EBEF" points="32.686,64 49.896,40.268 44.32,36.743 32.686,39.271 "/>
</svg>
