<?xml version="1.0" encoding="utf-8"?>
<!-- Generator: Adobe Illustrator 15.0.0, SVG Export Plug-In . SVG Version: 6.00 Build 0)  -->
<!DOCTYPE svg PUBLIC "-//W3C//DTD SVG 1.1//EN" "http://www.w3.org/Graphics/SVG/1.1/DTD/svg11.dtd" [
	<!ENTITY ns_flows "http://ns.adobe.com/Flows/1.0/">
	<!ENTITY ns_extend "http://ns.adobe.com/Extensibility/1.0/">
	<!ENTITY ns_ai "http://ns.adobe.com/AdobeIllustrator/10.0/">
	<!ENTITY ns_graphs "http://ns.adobe.com/Graphs/1.0/">
]>
<svg version="1.1" id="Layer_1" xmlns:x="&ns_extend;" xmlns:i="&ns_ai;" xmlns:graph="&ns_graphs;"
	 xmlns="http://www.w3.org/2000/svg" xmlns:xlink="http://www.w3.org/1999/xlink" xmlns:a="http://ns.adobe.com/AdobeSVGViewerExtensions/3.0/"
	 x="0px" y="0px" width="64px" height="64px" viewBox="0 0 64 64" enable-background="new 0 0 64 64" xml:space="preserve">
<linearGradient id="SVGID_1_" gradientUnits="userSpaceOnUse" x1="-161.9995" y1="1108" x2="-161.9995" y2="1168" gradientTransform="matrix(1 0 0 -1 194 1170)">
	<stop  offset="0" style="stop-color:#FF7B00"/>
	<stop  offset="0.3236" style="stop-color:#FFAE00"/>
	<stop  offset="0.6205" style="stop-color:#FFD600"/>
	<stop  offset="0.8558" style="stop-color:#FFEE00"/>
	<stop  offset="1" style="stop-color:#FFF700"/>
	<a:midPointStop  offset="0" style="stop-color:#FF7B00"/>
	<a:midPointStop  offset="0.4" style="stop-color:#FF7B00"/>
	<a:midPointStop  offset="1" style="stop-color:#FFF700"/>
</linearGradient>
<circle fill="url(#SVGID_1_)" cx="32" cy="32" r="30"/>
<ellipse id="Oval_48_" fill="#1A1626" cx="20" cy="26" rx="4" ry="5"/>
<ellipse id="Oval_47_" fill="#1A1626" cx="43.999" cy="26" rx="4" ry="5"/>
<path fill="#1A1626" d="M42.688,49.506c-2.266-1.719-3.293-7.734-10.689-7.734c-7.395,0-8.424,6.017-10.688,7.734
	c0.078,0.422,1.422,0.609,1.422,0.609s-0.078,0.297-0.018,0.625c0,0,1.484,0.266,2.664-0.094c-0.113,0.486-0.061,0.594-0.061,0.594
	c1.016,0.129,2.725-0.563,2.725-0.563s-0.078,0.345-0.029,0.667c0.93-0.078,1.85-0.73,2.578-1.478c0,0,0.5,0.332,0.576,0.248
	c0.566-0.627,0.83-1.617,0.83-1.617s0.268,0.99,0.83,1.617c0.076,0.084,0.578-0.248,0.578-0.248c0.73,0.746,1.648,1.399,2.578,1.478
	c0.047-0.322-0.031-0.667-0.031-0.667s1.709,0.691,2.729,0.563c0,0,0.055-0.106-0.064-0.594c1.18,0.358,2.664,0.094,2.664,0.094
	c0.064-0.328-0.016-0.625-0.016-0.625S42.609,49.928,42.688,49.506z"/>
<path fill="#1A1626" d="M22.633,7.436c-0.643,3.582-5.969,4.877-3.372,9.152C24.992,14.699,24.57,9.48,22.633,7.436z"/>
<path fill="#1A1626" d="M6.199,12.682c2.322,1.672,5.922,0.131,6.879,3.539c-2.846-0.034-6.486-0.178-6.486-0.178
	S6.013,14.661,6.199,12.682z"/>
<path fill="#1A1626" d="M8.392,10.586c2.234,2.414,6.822,1.359,7,5.518C10.21,16.871,7.958,12.838,8.392,10.586z"/>
<path fill="#1A1626" d="M11.859,8.666c1.26,2.9,5.988,3.117,4.668,7.13C11.337,15.146,10.646,10.699,11.859,8.666z"/>
<path fill="#1A1626" d="M15.041,7.419c0.719,3.399,5.852,4.438,3.498,8.624C13.001,14.452,13.25,9.446,15.041,7.419z"/>
<path fill="#1A1626" d="M19.037,6.871c-0.271,3.529,4.497,5.671,0.959,9.314C14.986,13.409,16.677,8.495,19.037,6.871z"/>
<path fill="#1A1626" d="M26.916,10.768c-2.242,2.445-6.83,1.452-7.014,5.611C25.08,17.077,27.342,13.013,26.916,10.768z"/>
<path fill="#1A1626" d="M28.736,13.428c-3.105,1.586-6.953-0.772-8.866,3.061c3.237,0.794,8.424,0.794,8.424,0.794
	S28.92,15.796,28.736,13.428z"/>
<path fill="#1A1626" d="M44.7,16.588c2.598-4.275-2.729-5.57-3.372-9.152C39.391,9.48,38.969,14.699,44.7,16.588z"/>
<path fill="#1A1626" d="M57.37,16.043c0,0-3.641,0.144-6.486,0.178c0.957-3.408,4.557-1.867,6.879-3.539
	C57.948,14.661,57.37,16.043,57.37,16.043z"/>
<path fill="#1A1626" d="M48.571,16.104c0.176-4.158,4.764-3.104,6.998-5.518C56.003,12.838,53.751,16.871,48.571,16.104z"/>
<path fill="#1A1626" d="M47.435,15.796c-1.32-4.013,3.408-4.229,4.668-7.13C53.317,10.699,52.624,15.146,47.435,15.796z"/>
<path fill="#1A1626" d="M45.423,16.043c-2.354-4.186,2.779-5.225,3.498-8.624C50.712,9.446,50.96,14.452,45.423,16.043z"/>
<path fill="#1A1626" d="M43.966,16.186c-3.538-3.644,1.232-5.785,0.959-9.314C47.284,8.495,48.978,13.409,43.966,16.186z"/>
<path fill="#1A1626" d="M44.062,16.379c-0.186-4.159-4.774-3.166-7.017-5.611C36.619,13.013,38.881,17.077,44.062,16.379z"/>
<path fill="#1A1626" d="M35.666,17.282c0,0,5.188,0,8.425-0.794c-1.913-3.833-5.761-1.475-8.866-3.061
	C35.041,15.796,35.666,17.282,35.666,17.282z"/>
<path fill="#DE8762" d="M37.184,43.98c-2.334,1.216-2.32,2.291-5.182,2.291c-2.863,0-2.85-1.075-5.186-2.291
	C22.438,41.699,41.561,41.701,37.184,43.98z"/>
<radialGradient id="SVGID_2_" cx="-59.793" cy="1182.3975" r="7.7444" gradientTransform="matrix(0.8697 0 0 -1.0808 93.1787 1312.9232)" gradientUnits="userSpaceOnUse">
	<stop  offset="0" style="stop-color:#FFA680"/>
	<stop  offset="0.3723" style="stop-color:#F79E78"/>
	<stop  offset="0.9622" style="stop-color:#E08964"/>
	<stop  offset="1" style="stop-color:#DE8762"/>
	<a:midPointStop  offset="0" style="stop-color:#FFA680"/>
	<a:midPointStop  offset="0.6061" style="stop-color:#FFA680"/>
	<a:midPointStop  offset="1" style="stop-color:#DE8762"/>
</radialGradient>
<path fill="url(#SVGID_2_)" d="M42.785,40.852c0.152,2.36-1.947,4.285-4.35,4.285c-1.514,0-1.5-0.988-3.145-0.175
	c-2.146,1.063,1.152-14.739,1.152-14.739C37.977,36.896,42.473,36.003,42.785,40.852z"/>
<radialGradient id="SVGID_3_" cx="-200.6934" cy="1182.3975" r="7.7443" gradientTransform="matrix(-0.8697 0 0 -1.0808 -151.706 1312.9232)" gradientUnits="userSpaceOnUse">
	<stop  offset="0" style="stop-color:#FFA680"/>
	<stop  offset="0.3723" style="stop-color:#F79E78"/>
	<stop  offset="0.9622" style="stop-color:#E08964"/>
	<stop  offset="1" style="stop-color:#DE8762"/>
	<a:midPointStop  offset="0" style="stop-color:#FFA680"/>
	<a:midPointStop  offset="0.6061" style="stop-color:#FFA680"/>
	<a:midPointStop  offset="1" style="stop-color:#DE8762"/>
</radialGradient>
<path fill="url(#SVGID_3_)" d="M21.213,40.852c-0.15,2.36,1.947,4.285,4.35,4.285c1.514,0,1.502-0.988,3.145-0.175
	c2.146,1.063-1.15-14.739-1.15-14.739C26.023,36.896,21.527,36.003,21.213,40.852z"/>
<linearGradient id="SVGID_4_" gradientUnits="userSpaceOnUse" x1="-147.7539" y1="1004.2441" x2="-148.1453" y2="1002.9136" gradientTransform="matrix(0.9956 0.0936 0.0777 -0.8265 96.1424 887.2621)">
	<stop  offset="0" style="stop-color:#874A37"/>
	<stop  offset="0.0305" style="stop-color:#8E4F3A"/>
	<stop  offset="0.1858" style="stop-color:#AB6349"/>
	<stop  offset="0.3514" style="stop-color:#C17354"/>
	<stop  offset="0.5299" style="stop-color:#D17E5C"/>
	<stop  offset="0.7306" style="stop-color:#DB8561"/>
	<stop  offset="1" style="stop-color:#DE8762"/>
	<a:midPointStop  offset="0" style="stop-color:#874A37"/>
	<a:midPointStop  offset="0.2364" style="stop-color:#874A37"/>
	<a:midPointStop  offset="1" style="stop-color:#DE8762"/>
</linearGradient>
<path fill="url(#SVGID_4_)" d="M24.955,43.268c-0.768,0.26,0.219,1.851,1.969,1.123c1.031-0.431,2.037,0.77,1.807,0.287
	C28.205,43.579,26.689,42.684,24.955,43.268z"/>
<linearGradient id="SVGID_5_" gradientUnits="userSpaceOnUse" x1="1445.4277" y1="1184.667" x2="1445.0364" y2="1183.3364" gradientTransform="matrix(-0.9956 0.0936 -0.0777 -0.8265 1568.049 887.2621)">
	<stop  offset="0" style="stop-color:#874A37"/>
	<stop  offset="0.0305" style="stop-color:#8E4F3A"/>
	<stop  offset="0.1858" style="stop-color:#AB6349"/>
	<stop  offset="0.3514" style="stop-color:#C17354"/>
	<stop  offset="0.5299" style="stop-color:#D17E5C"/>
	<stop  offset="0.7306" style="stop-color:#DB8561"/>
	<stop  offset="1" style="stop-color:#DE8762"/>
	<a:midPointStop  offset="0" style="stop-color:#874A37"/>
	<a:midPointStop  offset="0.2364" style="stop-color:#874A37"/>
	<a:midPointStop  offset="1" style="stop-color:#DE8762"/>
</linearGradient>
<path fill="url(#SVGID_5_)" d="M39.043,43.268c0.771,0.26-0.217,1.851-1.967,1.123c-1.031-0.431-2.037,0.77-1.807,0.287
	C35.795,43.579,37.313,42.684,39.043,43.268z"/>
<radialGradient id="SVGID_6_" cx="-179.4131" cy="1380.7217" r="5.6211" gradientTransform="matrix(0.8357 0 0 -2.7466 181.977 3821.3857)" gradientUnits="userSpaceOnUse">
	<stop  offset="0" style="stop-color:#FFA680"/>
	<stop  offset="0.3367" style="stop-color:#FAA17B"/>
	<stop  offset="0.7442" style="stop-color:#EB936E"/>
	<stop  offset="1" style="stop-color:#DE8762"/>
	<a:midPointStop  offset="0" style="stop-color:#FFA680"/>
	<a:midPointStop  offset="0.6667" style="stop-color:#FFA680"/>
	<a:midPointStop  offset="1" style="stop-color:#DE8762"/>
</radialGradient>
<path fill="url(#SVGID_6_)" d="M35.018,23.305c-1.191-1.266-4.842-1.266-6.035,0c-2.689,2.855-4.529,14.303-2.322,18.592
	c2.006,3.899,8.67,3.899,10.68,0C39.545,37.609,37.707,26.16,35.018,23.305z"/>
<radialGradient id="SVGID_7_" cx="-192.4209" cy="1097.7207" r="7.103" gradientTransform="matrix(0.8222 0 0 -0.8632 190.2106 986.5579)" gradientUnits="userSpaceOnUse">
	<stop  offset="0" style="stop-color:#FFA680"/>
	<stop  offset="0.8281" style="stop-color:#FFA680;stop-opacity:0.0026"/>
	<stop  offset="0.8303" style="stop-color:#FFA680;stop-opacity:0"/>
	<a:midPointStop  offset="0" style="stop-color:#FFA680"/>
	<a:midPointStop  offset="0.708" style="stop-color:#FFA680"/>
	<a:midPointStop  offset="0.8303" style="stop-color:#FFA680;stop-opacity:0"/>
</radialGradient>
<ellipse fill="url(#SVGID_7_)" cx="32" cy="39.005" rx="5.838" ry="6.132"/>
<linearGradient id="SVGID_8_" gradientUnits="userSpaceOnUse" x1="-724.6831" y1="1656.7422" x2="-724.6831" y2="1638.3398" gradientTransform="matrix(1 0 0 1 772.4707 -1621.7852)">
	<stop  offset="0" style="stop-color:#FFFFFF;stop-opacity:0"/>
	<stop  offset="1" style="stop-color:#FFFFFF"/>
	<a:midPointStop  offset="0" style="stop-color:#FFFFFF;stop-opacity:0"/>
	<a:midPointStop  offset="0.5" style="stop-color:#FFFFFF;stop-opacity:0"/>
	<a:midPointStop  offset="1" style="stop-color:#FFFFFF"/>
</linearGradient>
<path opacity="0.5" fill="url(#SVGID_8_)" enable-background="new    " d="M36.865,19.727c-2.234,2.192,0.664,11.106,5.75,13.911
	c2.604,1.429,11.034,2.529,13.731-1.331c2.678-3.813,4.371-11.602,1.984-13.764C55.063,15.579,40.783,15.889,36.865,19.727z"/>
<linearGradient id="SVGID_9_" gradientUnits="userSpaceOnUse" x1="-558.8345" y1="1657.4414" x2="-558.8345" y2="1639.0381" gradientTransform="matrix(-1 0 0 1 -542.6221 -1622.4141)">
	<stop  offset="0" style="stop-color:#FFFFFF;stop-opacity:0"/>
	<stop  offset="1" style="stop-color:#FFFFFF"/>
	<a:midPointStop  offset="0" style="stop-color:#FFFFFF;stop-opacity:0"/>
	<a:midPointStop  offset="0.5" style="stop-color:#FFFFFF;stop-opacity:0"/>
	<a:midPointStop  offset="1" style="stop-color:#FFFFFF"/>
</linearGradient>
<path opacity="0.5" fill="url(#SVGID_9_)" enable-background="new    " d="M27.133,19.727c2.234,2.192-0.66,11.108-5.75,13.916
	c-2.6,1.426-11.032,2.522-13.729-1.336c-2.68-3.813-4.369-11.602-1.986-13.764C8.937,15.579,23.215,15.889,27.133,19.727z"/>
<path fill="#1A1626" d="M63.8,17.104c-2.15-0.076-4.982-1.646-11.014-1.996c-8.307-0.496-11.065,0.867-16.239,1.736
	c-1.604,0.27-3.098,0.409-4.547,0.398c-1.451,0.013-2.939-0.133-4.547-0.396c-5.17-0.873-7.936-2.234-16.237-1.74
	c-6.033,0.352-8.865,1.918-11.016,1.998c-0.131,1.088-0.377,2.718,0,3.834c0.293,0.871,1.104,1.076,1.623,1.679
	C4.48,25.669,2.982,36.1,12.884,36.904c9.282,0.754,13.403-3.082,15.68-9.356c0.643-1.772,1.709-4.842,3.438-4.844
	c1.727,0,2.789,3.069,3.434,4.844c2.279,6.274,6.398,10.11,15.685,9.359c9.898-0.808,8.398-11.238,11.053-14.291
	c0.527-0.603,1.338-0.808,1.629-1.677C64.173,19.821,63.935,18.189,63.8,17.104z M21.383,33.641
	c-2.6,1.428-11.032,2.522-13.729-1.334c-2.68-3.813-4.369-11.602-1.986-13.764c3.27-2.964,17.549-2.654,21.467,1.184
	C29.371,21.916,26.473,30.833,21.383,33.641z M56.347,32.305c-2.697,3.86-11.129,2.762-13.729,1.333
	c-5.086-2.805-7.986-11.719-5.752-13.911c3.92-3.838,18.198-4.148,21.468-1.186C60.718,20.705,59.024,28.493,56.347,32.305z"/>
</svg>
