<?xml version="1.0" encoding="utf-8"?>
<!-- Generator: Adobe Illustrator 15.0.0, SVG Export Plug-In . SVG Version: 6.00 Build 0)  -->
<!DOCTYPE svg PUBLIC "-//W3C//DTD SVG 1.1//EN" "http://www.w3.org/Graphics/SVG/1.1/DTD/svg11.dtd" [
	<!ENTITY ns_flows "http://ns.adobe.com/Flows/1.0/">
	<!ENTITY ns_extend "http://ns.adobe.com/Extensibility/1.0/">
	<!ENTITY ns_ai "http://ns.adobe.com/AdobeIllustrator/10.0/">
	<!ENTITY ns_graphs "http://ns.adobe.com/Graphs/1.0/">
]>
<svg version="1.1" id="Layer_1" xmlns:x="&ns_extend;" xmlns:i="&ns_ai;" xmlns:graph="&ns_graphs;"
	 xmlns="http://www.w3.org/2000/svg" xmlns:xlink="http://www.w3.org/1999/xlink" xmlns:a="http://ns.adobe.com/AdobeSVGViewerExtensions/3.0/"
	 x="0px" y="0px" width="64px" height="64px" viewBox="0 0 64 64" enable-background="new 0 0 64 64" xml:space="preserve">
<path fill="#A3765A" d="M7.421,18.624c5.197-1.233,5.507-1.027,5.614-4.792c0.782-0.65,5.024-0.65,5.803,0
	c0.107,3.765,0.419,3.559,5.618,4.792c0.198-0.077,4.205,0.037,3.277,4.485c-0.412,1.979-4.063,3.385-4.521,6.727H8.662
	c-0.459-3.342-4.11-4.748-4.522-6.727C3.21,18.661,7.213,18.542,7.421,18.624z"/>
<linearGradient id="SVGID_1_" gradientUnits="userSpaceOnUse" x1="-1787.9312" y1="50.3779" x2="-1787.9312" y2="21.1421" gradientTransform="matrix(-1 -0.0013 -0.0013 1 -1741.2678 0.8938)">
	<stop  offset="0.2303" style="stop-color:#FFAA00"/>
	<stop  offset="0.2354" style="stop-color:#FFAA00"/>
	<stop  offset="0.7101" style="stop-color:#FF9100"/>
	<stop  offset="1" style="stop-color:#FF8800"/>
	<a:midPointStop  offset="0.2303" style="stop-color:#FFAA00"/>
	<a:midPointStop  offset="0.4016" style="stop-color:#FFAA00"/>
	<a:midPointStop  offset="1" style="stop-color:#FF8800"/>
</linearGradient>
<path fill="url(#SVGID_1_)" d="M57.073,24.374c9.354,25.599-6.346,21.987-10.409,29.222c-0.333-7.173-21.692-6.42-9.856-26.243
	c0.452,6.335,7.164,7.017,10.519,16.254C48.09,32.994,56.085,33.761,57.073,24.374z"/>
<linearGradient id="SVGID_2_" gradientUnits="userSpaceOnUse" x1="-1789.1147" y1="47.3809" x2="-1749.8311" y2="47.3809" gradientTransform="matrix(-1 -0.0013 -0.0013 1 -1741.2678 0.8938)">
	<stop  offset="0.1394" style="stop-color:#FFAA00"/>
	<stop  offset="0.8727" style="stop-color:#FF8800"/>
	<a:midPointStop  offset="0.1394" style="stop-color:#FFAA00"/>
	<a:midPointStop  offset="0.5175" style="stop-color:#FFAA00"/>
	<a:midPointStop  offset="0.8727" style="stop-color:#FF8800"/>
</linearGradient>
<path fill="url(#SVGID_2_)" d="M10.107,37.127c-0.804,1.861-2.02,4.719-1.451,8.904c3.325,24.542,33.523,20.992,38.67,6.924
	c0.518-1.42,1.187-2.44-1.697-0.994c-7.74,3.869-13.477,4.061-18.603-7.476c-1.176-2.647-3.334-5.827-5.225-7.333
	C17.04,37.488,15.824,38.148,10.107,37.127z"/>
<path fill="#A3765A" d="M10.057,37.502c0,2.844,11.758,2.844,11.758,0c0,0,0.926-6.666,2.747-9.956H7.31
	C9.133,30.836,10.057,37.502,10.057,37.502z"/>
<path fill="#8C5F44" d="M9.165,32.88c-0.648-1.913-1.923-7.759-1.031-9.25c1.839,1.421,1.507,3.455,2.26,3.338
	c4.057-0.619,8.446-1.129,10.701,0.633c0.304,0.237,1.01-2.567,1.894-3.971c0.871,1.7,0.454,7.438-0.337,9.354
	C16.422,32.567,13.227,31.417,9.165,32.88z"/>
<path fill="#8C5F44" d="M15.216,36.225c0.39,1.382-0.338,1.226-0.145,1.682C15.256,38.344,16.464,37.579,15.216,36.225z"/>
<path fill="#FF4C00" d="M21.975,12.884c0.427,0.281,0.923,0.489,1.502,0.598c-1.027-2.314,0.521-7.167-2.65-10.733
	c-4.475,0.133-5.091,14.432,1.142,12.529c-0.396-0.168-0.646-0.517-0.791-0.954c0.479,0.135,1.042,0.142,1.695-0.058
	C22.353,14.042,22.086,13.519,21.975,12.884z"/>
<path fill="#FF4C00" d="M10.749,2.748c-3.172,3.567-1.323,8.419-2.35,10.733c0.578-0.108,1.072-0.316,1.504-0.598
	c-0.116,0.635-0.381,1.158-0.9,1.381c0.652,0.2,1.214,0.193,1.695,0.058c-0.147,0.438-0.396,0.786-0.791,0.954
	C16.14,17.18,15.221,2.881,10.749,2.748z"/>
<path id="Path_569_" fill="#B88A6F" d="M22.46,7.621c-1.01,0.121-1.737,3.465-1.104,4.346c0.091,0.123,0.61,0.319,0.997-0.458
	c0.213-0.431,0.829-0.792,1.021-1.681C23.617,8.688,23.468,7.5,22.46,7.621z"/>
<path id="Path_568_" fill="#B88A6F" d="M9.415,7.621c1.01,0.121,1.737,3.465,1.103,4.346c-0.089,0.123-0.608,0.319-0.995-0.458
	c-0.215-0.431-0.831-0.792-1.021-1.681C8.256,8.688,8.41,7.5,9.415,7.621z"/>
<path id="Path_567_" fill="#8C5F44" d="M22.433,8.261C22.17,8.344,21.882,8.74,21.727,9.4c0.921-0.196,0.691,1.321-0.109,1.35
	c0.008,0.152,0.017,0.308,0.035,0.475c0.387-0.554,0.778-0.333,1.168-1.156C23.169,9.325,23.085,8.059,22.433,8.261z"/>
<path id="Path_566_" fill="#8C5F44" d="M10.149,9.398C9.991,8.74,9.705,8.342,9.442,8.261C8.79,8.059,8.706,9.325,9.056,10.069
	c0.387,0.823,0.78,0.603,1.165,1.156c0.019-0.167,0.029-0.325,0.038-0.477C9.466,10.711,9.238,9.213,10.149,9.398z"/>
<path fill="#B88A6F" d="M15.938,1.192c-4.377,0-6.484,3.523-6.222,8.054c0.055,0.911,0.312,2.223,0.629,3.35
	c0.656,2.339,4.118,4.696,5.593,4.696s4.937-2.356,5.593-4.696c0.317-1.127,0.572-2.439,0.627-3.35
	C22.42,4.715,20.313,1.192,15.938,1.192z"/>
<path id="Path_565_" fill="#78513A" d="M20.691,7.288c-1.001-0.525-2.915-0.55-3.631-0.185c-0.151,0.071-0.05,0.566,0.078,0.521
	c0.995-0.39,2.598-0.398,3.527,0.034C20.79,7.711,20.843,7.358,20.691,7.288z"/>
<path id="Path_564_" fill="#78513A" d="M11.184,7.288c1-0.525,2.914-0.55,3.629-0.185c0.153,0.071,0.051,0.566-0.076,0.521
	c-0.997-0.39-2.598-0.398-3.529,0.034C11.083,7.711,11.032,7.358,11.184,7.288z"/>
<path id="Path_563_" fill="#8C5F44" d="M17.117,11.832c-0.124-0.085-0.418,0.046-1.18,0.046c-0.764,0-1.056-0.131-1.182-0.046
	c-0.149,0.104,0.088,0.575,1.182,0.575C17.029,12.407,17.27,11.936,17.117,11.832z"/>
<path id="Path_562_" fill="#8C5F44" d="M15.938,13.615c-0.984-0.285-2.441,0.136-2.441,0.136c0.555,0.598,0.961,1.373,2.441,1.373
	c1.695,0,1.983-0.879,2.444-1.373C18.382,13.75,16.922,13.328,15.938,13.615z"/>
<path id="Path_561_" fill="#FFFFFF" d="M13.861,13.853c1.031,0.854,3.115,0.86,4.152,0C16.914,13.898,14.968,13.898,13.861,13.853z"
	/>
<path id="Path_560_" fill="#FFFFFF" d="M14.964,9.071c0.038,0.288-0.16,0.627-0.702,0.881c-0.348,0.162-1.066,0.352-2.012-0.042
	c-0.422-0.177-0.837-0.727-0.799-1.031C11.965,7.925,14.484,7.786,14.964,9.071z"/>
<linearGradient id="Oval_1_" gradientUnits="userSpaceOnUse" x1="-420.6479" y1="480.7373" x2="-420.6479" y2="481.0352" gradientTransform="matrix(6.5701 0 0 -6.5701 2776.9524 3168.5281)">
	<stop  offset="0" style="stop-color:#A6694A"/>
	<stop  offset="1" style="stop-color:#4F2A1E"/>
	<a:midPointStop  offset="0" style="stop-color:#A6694A"/>
	<a:midPointStop  offset="0.5" style="stop-color:#A6694A"/>
	<a:midPointStop  offset="1" style="stop-color:#4F2A1E"/>
</linearGradient>
<ellipse id="Oval_46_" fill="url(#Oval_1_)" cx="13.252" cy="9.052" rx="0.992" ry="0.979"/>
<path id="Path_559_" fill="#1A1626" d="M12.758,9.034c0,0.679,0.992,0.679,0.992,0C13.75,8.407,12.758,8.407,12.758,9.034z"/>
<path id="Path_558_" fill="#AB968C" d="M12.605,8.761c0,0.283,0.417,0.283,0.417,0C13.022,8.498,12.605,8.498,12.605,8.761z"/>
<path id="Path_557_" fill="#8C5F44" d="M14.968,9.111c-0.401-1.279-3.143-1.09-3.517-0.231C11.59,7.779,14.625,7.488,14.968,9.111z"
	/>
<path id="Path_556_" fill="#FFFFFF" d="M16.911,9.071c-0.037,0.288,0.16,0.627,0.705,0.881c0.345,0.162,1.064,0.352,2.009-0.042
	c0.423-0.177,0.835-0.727,0.799-1.031C19.913,7.925,17.391,7.786,16.911,9.071z"/>
<linearGradient id="Oval_2_" gradientUnits="userSpaceOnUse" x1="-422.5327" y1="480.7373" x2="-422.5327" y2="481.0352" gradientTransform="matrix(6.5701 0 0 -6.5701 2794.6829 3168.5281)">
	<stop  offset="0" style="stop-color:#A6694A"/>
	<stop  offset="1" style="stop-color:#4F2A1E"/>
	<a:midPointStop  offset="0" style="stop-color:#A6694A"/>
	<a:midPointStop  offset="0.5" style="stop-color:#A6694A"/>
	<a:midPointStop  offset="1" style="stop-color:#4F2A1E"/>
</linearGradient>
<path id="Oval_45_" fill="url(#Oval_2_)" d="M18.601,8.073c0.547,0,0.988,0.439,0.988,0.979c0,0.542-0.441,0.979-0.988,0.979
	c-0.549,0-0.993-0.438-0.993-0.979C17.607,8.513,18.052,8.073,18.601,8.073z"/>
<path id="Path_555_" fill="#1A1626" d="M18.106,9.034c0,0.679,0.988,0.679,0.988,0C19.095,8.407,18.106,8.407,18.106,9.034z"/>
<path id="Path_548_" fill="#AB968C" d="M17.955,8.761c0,0.283,0.414,0.283,0.414,0C18.369,8.498,17.955,8.498,17.955,8.761z"/>
<path id="Path_510_" fill="#8C5F44" d="M16.905,9.111c0.403-1.279,3.143-1.096,3.519-0.231C20.283,7.779,17.248,7.488,16.905,9.111z
	"/>
<linearGradient id="SVGID_3_" gradientUnits="userSpaceOnUse" x1="53.7002" y1="10.146" x2="53.7002" y2="0" gradientTransform="matrix(1 0 0 1 -37.8281 0)">
	<stop  offset="0" style="stop-color:#FF1E00"/>
	<stop  offset="0.0246" style="stop-color:#FF2400"/>
	<stop  offset="0.1526" style="stop-color:#FF3D00"/>
	<stop  offset="0.2948" style="stop-color:#FF5100"/>
	<stop  offset="0.4569" style="stop-color:#FF5F00"/>
	<stop  offset="0.656" style="stop-color:#FF6800"/>
	<stop  offset="1" style="stop-color:#FF6A00"/>
	<a:midPointStop  offset="0" style="stop-color:#FF1E00"/>
	<a:midPointStop  offset="0.1939" style="stop-color:#FF1E00"/>
	<a:midPointStop  offset="1" style="stop-color:#FF6A00"/>
</linearGradient>
<path fill="url(#SVGID_3_)" d="M15.938,0c-2.66,0-3.992,1.192-4.262,1.759c-3.22,0.727-4.255,6.096-1.844,8.387
	c0.298-2.441,0.586-4.01,2.227-5.663c0.957,1.269,2.947,1.983,4.727,1.983c-0.844-0.606-1.418-1.2-1.87-1.752
	c2.973,1.348,6.304,2.212,7.129,5.431C24.904,5.642,22.529,0,15.938,0z"/>
<linearGradient id="SVGID_4_" gradientUnits="userSpaceOnUse" x1="59.0527" y1="11.043" x2="48.8192" y2="2.561" gradientTransform="matrix(1 0 0 1 -37.8281 0)">
	<stop  offset="0" style="stop-color:#FF1E00"/>
	<stop  offset="0.1291" style="stop-color:#FF2300"/>
	<stop  offset="0.2858" style="stop-color:#FF3200"/>
	<stop  offset="0.4567" style="stop-color:#FF4B00"/>
	<stop  offset="0.6379" style="stop-color:#FF6D00"/>
	<stop  offset="0.825" style="stop-color:#FF9800"/>
	<stop  offset="1" style="stop-color:#FFC800"/>
	<a:midPointStop  offset="0" style="stop-color:#FF1E00"/>
	<a:midPointStop  offset="0.6667" style="stop-color:#FF1E00"/>
	<a:midPointStop  offset="1" style="stop-color:#FFC800"/>
</linearGradient>
<path fill="url(#SVGID_4_)" d="M11.676,1.759c-0.027,1.498,1.183,3.985,5.109,4.708C13.75,6.669,10.635,4.853,11.676,1.759z"/>
<linearGradient id="SVGID_5_" gradientUnits="userSpaceOnUse" x1="46.8682" y1="9.9365" x2="48.6051" y2="2.3726" gradientTransform="matrix(1 0 0 1 -37.8281 0)">
	<stop  offset="0" style="stop-color:#FF1E00"/>
	<stop  offset="0.1946" style="stop-color:#FF3A00"/>
	<stop  offset="0.6118" style="stop-color:#FF8100"/>
	<stop  offset="1" style="stop-color:#FFC800"/>
	<a:midPointStop  offset="0" style="stop-color:#FF1E00"/>
	<a:midPointStop  offset="0.5333" style="stop-color:#FF1E00"/>
	<a:midPointStop  offset="1" style="stop-color:#FFC800"/>
</linearGradient>
<path fill="url(#SVGID_5_)" d="M11.548,2.577c-0.896,0.642-2.736,3.792-1.716,7.569C7.383,4.425,11.548,2.577,11.548,2.577z"/>
<linearGradient id="SVGID_6_" gradientUnits="userSpaceOnUse" x1="61.6348" y1="6.022" x2="50.1796" y2="0.4166" gradientTransform="matrix(1 0 0 1 -37.8281 0)">
	<stop  offset="0" style="stop-color:#FF1E00"/>
	<stop  offset="0.1572" style="stop-color:#FF4100"/>
	<stop  offset="0.4454" style="stop-color:#FF7A00"/>
	<stop  offset="0.6921" style="stop-color:#FFA500"/>
	<stop  offset="0.8849" style="stop-color:#FFBE00"/>
	<stop  offset="1" style="stop-color:#FFC800"/>
	<a:midPointStop  offset="0" style="stop-color:#FF1E00"/>
	<a:midPointStop  offset="0.4061" style="stop-color:#FF1E00"/>
	<a:midPointStop  offset="1" style="stop-color:#FFC800"/>
</linearGradient>
<path fill="url(#SVGID_6_)" d="M11.676,1.759c0,0,9.014-3.192,11.46,5.633C20.908,2.015,14.186,1.256,11.676,1.759z"/>
<linearGradient id="SVGID_7_" gradientUnits="userSpaceOnUse" x1="60.0176" y1="9.8843" x2="49.7814" y2="1.4002" gradientTransform="matrix(1 0 0 1 -37.8281 0)">
	<stop  offset="0" style="stop-color:#FF1E00"/>
	<stop  offset="0.1291" style="stop-color:#FF2300"/>
	<stop  offset="0.2858" style="stop-color:#FF3200"/>
	<stop  offset="0.4567" style="stop-color:#FF4B00"/>
	<stop  offset="0.6379" style="stop-color:#FF6D00"/>
	<stop  offset="0.825" style="stop-color:#FF9800"/>
	<stop  offset="1" style="stop-color:#FFC800"/>
	<a:midPointStop  offset="0" style="stop-color:#FF1E00"/>
	<a:midPointStop  offset="0.6667" style="stop-color:#FF1E00"/>
	<a:midPointStop  offset="1" style="stop-color:#FFC800"/>
</linearGradient>
<path fill="url(#SVGID_7_)" d="M11.676,1.759c0.696,2.514,10.195,2.489,10.368,8.387C21.12,5.604,10.259,4.615,11.676,1.759z"/>
<path fill="#A3765A" d="M27.653,22.59c-0.915-1.269-3.978-0.244-4.505,0.627c-0.949,2.15-1.313,5.206-1.801,5.716
	c-3.963-1.043-11.621-0.298-10.658,2.205c9.432,1.415,12.213,1.66,14.082,1.591C25.409,32.709,27.438,28.701,27.653,22.59z"/>
<path fill="#8C5F44" d="M21.348,28.934c-3.963-1.043-11.621-0.298-10.658,2.205c0,0,2.293,0.464,4.354,0.637
	C17.294,29.988,20.05,28.988,21.348,28.934z"/>
<path fill="#A3765A" d="M4.224,22.59c0.915-1.269,3.706-0.21,4.234,0.661c0.951,2.15,1.043,3.923,1.531,4.431
	c6.681-0.936,10.753-1.436,11.785,1.309c-4.604-0.702-8.056,3.498-14.764,3.994C6.374,33.031,4.224,27.851,4.224,22.59z"/>
</svg>
