<?xml version="1.0" encoding="utf-8"?>
<!-- Generator: Adobe Illustrator 15.0.0, SVG Export Plug-In . SVG Version: 6.00 Build 0)  -->
<!DOCTYPE svg PUBLIC "-//W3C//DTD SVG 1.1//EN" "http://www.w3.org/Graphics/SVG/1.1/DTD/svg11.dtd" [
	<!ENTITY ns_flows "http://ns.adobe.com/Flows/1.0/">
	<!ENTITY ns_extend "http://ns.adobe.com/Extensibility/1.0/">
	<!ENTITY ns_ai "http://ns.adobe.com/AdobeIllustrator/10.0/">
	<!ENTITY ns_graphs "http://ns.adobe.com/Graphs/1.0/">
]>
<svg version="1.1" id="Layer_1" xmlns:x="&ns_extend;" xmlns:i="&ns_ai;" xmlns:graph="&ns_graphs;"
	 xmlns="http://www.w3.org/2000/svg" xmlns:xlink="http://www.w3.org/1999/xlink" xmlns:a="http://ns.adobe.com/AdobeSVGViewerExtensions/3.0/"
	 x="0px" y="0px" width="64px" height="64px" viewBox="0 0 64 64" enable-background="new 0 0 64 64" xml:space="preserve">
<polygon fill="#E6EBEF" points="50.26,3.662 48.617,2.947 45.498,3.662 42.854,2.309 36.748,3.662 32.836,2.492 31.498,3.539 
	24.172,2.385 20.141,3.098 15.863,2 11,2.947 11,61.053 13.74,60.338 15.383,61.053 18.502,60.338 21.146,61.691 27.252,60.338 
	31.164,61.508 32.502,60.461 39.828,61.615 43.859,60.902 48.137,62 53,61.053 53,2.947 "/>
<rect x="14" y="16.518" fill="#4E5E67" width="36" height="1"/>
<rect x="14" y="40.768" fill="#4E5E67" width="36" height="0.5"/>
<path id="Shape_18_" fill="#4E5E67" d="M16.799,9.389c1.158,0,2.096,0.939,2.096,2.102c0,1.158-0.938,2.098-2.096,2.098
	c-1.16,0-2.102-0.939-2.102-2.098C14.697,10.328,15.639,9.389,16.799,9.389z M16.799,8.689C15.254,8.689,14,9.941,14,11.49
	c0,1.545,1.254,2.797,2.799,2.797s2.799-1.252,2.799-2.797c0-0.746-0.297-1.459-0.818-1.982C18.252,8.984,17.541,8.689,16.799,8.689
	z"/>
<path id="Combined-Shape_11_" fill="#4E5E67" d="M17.355,11.766c-0.037,0.008-0.074-0.004-0.104-0.033
	c-0.027-0.027-0.039-0.064-0.035-0.105v-0.281c-0.004-0.035,0.008-0.074,0.035-0.102c0.029-0.027,0.066-0.043,0.104-0.035h0.914
	c0.033-0.008,0.076,0.008,0.104,0.035s0.037,0.066,0.035,0.102v0.145c0,0.648-0.395,1.238-0.996,1.484
	c-0.602,0.25-1.291,0.111-1.752-0.35c-0.033-0.021-0.049-0.059-0.049-0.1c0-0.039,0.016-0.074,0.049-0.096l0.297-0.301
	c0.021-0.031,0.063-0.047,0.1-0.047c0.039,0,0.076,0.016,0.098,0.047c0.225,0.225,0.549,0.314,0.855,0.24
	c0.309-0.072,0.557-0.299,0.652-0.604H17.355z"/>
<path fill="#4E5E67" d="M21.748,13.98V8.996h2.135c0.564,0,0.994,0.124,1.288,0.371c0.294,0.248,0.441,0.603,0.441,1.064
	c0,0.438-0.152,0.787-0.455,1.046c-0.304,0.26-0.726,0.389-1.268,0.389l0.561-0.111c0.173,0,0.326,0.051,0.462,0.153
	c0.135,0.103,0.242,0.262,0.322,0.477l0.615,1.596h-0.951l-0.631-1.659c-0.065-0.163-0.157-0.272-0.276-0.329
	c-0.119-0.056-0.267-0.084-0.444-0.084h-0.91v2.072H21.748z M22.63,11.208h1.127c0.346,0,0.598-0.063,0.756-0.188
	c0.159-0.126,0.238-0.315,0.238-0.567c0-0.256-0.079-0.445-0.238-0.566c-0.158-0.121-0.41-0.183-0.756-0.183H22.63V11.208z"/>
<path fill="#4E5E67" d="M26.662,13.98V8.996h3.332v0.707h-2.45v1.387h2.311v0.714h-2.311v1.47h2.45v0.707H26.662z"/>
<path fill="#4E5E67" d="M33.073,14.036c-0.494,0-0.924-0.104-1.288-0.312c-0.363-0.207-0.643-0.502-0.836-0.885
	c-0.194-0.383-0.291-0.836-0.291-1.358c0-0.518,0.097-0.967,0.291-1.348c0.193-0.38,0.473-0.674,0.836-0.882
	c0.364-0.208,0.794-0.312,1.288-0.312c0.336,0,0.652,0.05,0.948,0.15c0.297,0.101,0.543,0.246,0.739,0.438l-0.294,0.658
	c-0.229-0.182-0.453-0.313-0.672-0.396c-0.22-0.082-0.455-0.122-0.707-0.122c-0.481,0-0.854,0.154-1.117,0.465
	s-0.396,0.76-0.396,1.348s0.132,1.039,0.396,1.354s0.636,0.473,1.117,0.473c0.252,0,0.487-0.041,0.707-0.123
	c0.219-0.081,0.442-0.213,0.672-0.396l0.294,0.658c-0.196,0.191-0.442,0.338-0.739,0.438C33.726,13.986,33.409,14.036,33.073,14.036
	z"/>
<path fill="#4E5E67" d="M35.601,13.98V8.996h3.332v0.707h-2.45v1.387h2.311v0.714h-2.311v1.47h2.45v0.707H35.601z"/>
<path fill="#4E5E67" d="M39.766,13.98V8.996h0.903v4.984H39.766z"/>
<path fill="#4E5E67" d="M41.754,13.98V8.996h2.163c0.541,0,0.96,0.13,1.257,0.389c0.296,0.259,0.444,0.612,0.444,1.061
	c0,0.443-0.15,0.796-0.452,1.058c-0.301,0.261-0.717,0.392-1.249,0.392h-1.26v2.086H41.754z M42.657,11.201h1.154
	c0.317,0,0.555-0.065,0.711-0.195c0.156-0.131,0.234-0.315,0.234-0.554c0-0.242-0.077-0.428-0.231-0.557
	c-0.153-0.128-0.392-0.192-0.714-0.192h-1.154V11.201z"/>
<path fill="#4E5E67" d="M47.466,13.98V9.738h-1.624V8.996H50v0.742h-1.624v4.242H47.466z"/>
<path fill="#99A8AE" d="M21.259,54.896c-0.147,0-0.287-0.013-0.421-0.038c-0.133-0.025-0.258-0.063-0.374-0.114
	c-0.115-0.051-0.218-0.112-0.306-0.184l0.172-0.376c0.145,0.106,0.291,0.184,0.44,0.231s0.313,0.072,0.492,0.072
	c0.197,0,0.35-0.034,0.458-0.104c0.107-0.068,0.162-0.166,0.162-0.292c0-0.074-0.024-0.136-0.072-0.186
	c-0.048-0.049-0.12-0.091-0.216-0.126c-0.097-0.034-0.215-0.068-0.356-0.1c-0.168-0.032-0.316-0.071-0.444-0.118
	s-0.234-0.103-0.319-0.166c-0.086-0.064-0.15-0.141-0.194-0.23c-0.044-0.089-0.066-0.195-0.066-0.317
	c0-0.168,0.046-0.317,0.137-0.448s0.218-0.232,0.382-0.306c0.164-0.074,0.356-0.11,0.578-0.11c0.133,0,0.263,0.014,0.39,0.04
	s0.243,0.064,0.351,0.114c0.106,0.049,0.198,0.109,0.275,0.182l-0.176,0.376c-0.128-0.104-0.262-0.181-0.4-0.23
	c-0.139-0.049-0.283-0.073-0.436-0.073c-0.185,0-0.329,0.037-0.437,0.111c-0.106,0.075-0.159,0.179-0.159,0.313
	c0,0.077,0.021,0.142,0.065,0.191c0.044,0.051,0.112,0.094,0.204,0.129c0.092,0.034,0.21,0.069,0.354,0.104
	c0.165,0.035,0.313,0.075,0.441,0.12c0.13,0.045,0.239,0.1,0.33,0.162s0.159,0.137,0.206,0.224s0.07,0.19,0.07,0.311
	c0,0.17-0.046,0.319-0.137,0.445c-0.09,0.127-0.221,0.225-0.39,0.292C21.695,54.862,21.493,54.896,21.259,54.896z"/>
<path fill="#99A8AE" d="M24.57,54.641c-0.096,0.08-0.214,0.142-0.354,0.186c-0.141,0.044-0.282,0.066-0.427,0.066
	c-0.219,0-0.407-0.042-0.565-0.124c-0.159-0.083-0.281-0.203-0.366-0.36s-0.128-0.344-0.128-0.56c0-0.208,0.041-0.392,0.124-0.551
	c0.083-0.158,0.197-0.282,0.344-0.372c0.146-0.089,0.316-0.134,0.508-0.134c0.187,0,0.347,0.041,0.48,0.122
	c0.133,0.082,0.236,0.198,0.31,0.351c0.073,0.151,0.11,0.332,0.11,0.54v0.075H23.17l0.005-0.268h1.136l-0.136,0.136
	c0.002-0.194-0.036-0.343-0.114-0.443c-0.079-0.102-0.192-0.152-0.342-0.152c-0.16,0-0.284,0.057-0.372,0.17
	s-0.132,0.275-0.132,0.486c0,0.239,0.049,0.416,0.147,0.529s0.248,0.17,0.448,0.17c0.109,0,0.217-0.018,0.322-0.054
	c0.104-0.036,0.203-0.089,0.294-0.158L24.57,54.641z"/>
<path fill="#99A8AE" d="M25.025,55.729v-2.313c0-0.093-0.002-0.188-0.006-0.286c-0.004-0.097-0.013-0.192-0.025-0.285h0.472
	l0.044,0.399l-0.028,0.024c0.043-0.149,0.127-0.267,0.252-0.351c0.126-0.084,0.273-0.126,0.444-0.126
	c0.176,0,0.331,0.045,0.466,0.134c0.135,0.09,0.241,0.214,0.318,0.372c0.077,0.159,0.116,0.345,0.116,0.559
	c0,0.211-0.039,0.394-0.116,0.55s-0.183,0.276-0.316,0.36c-0.133,0.084-0.289,0.126-0.468,0.126c-0.171,0-0.318-0.041-0.444-0.122
	c-0.125-0.082-0.209-0.197-0.252-0.347l0.044-0.063v1.368H25.025z M26.05,54.508c0.165,0,0.293-0.057,0.384-0.17
	s0.136-0.273,0.136-0.481c0-0.214-0.045-0.379-0.136-0.496s-0.219-0.176-0.384-0.176c-0.171,0-0.301,0.057-0.39,0.17
	c-0.09,0.113-0.135,0.277-0.135,0.494c0,0.21,0.045,0.373,0.135,0.487C25.749,54.451,25.879,54.508,26.05,54.508z"/>
<path fill="#99A8AE" d="M27.246,53.221v-0.376h1.425v0.376H27.246z M28.671,54.448v0.396c-0.054,0.019-0.106,0.031-0.158,0.037
	c-0.052,0.007-0.107,0.011-0.166,0.011c-0.227,0-0.402-0.064-0.526-0.192s-0.186-0.312-0.186-0.552v-1.796l0.5-0.168v1.939
	c0,0.091,0.015,0.162,0.044,0.214c0.029,0.053,0.068,0.089,0.118,0.11c0.049,0.021,0.104,0.032,0.166,0.032
	c0.034,0,0.067-0.003,0.1-0.008C28.595,54.467,28.631,54.459,28.671,54.448z"/>
<path fill="#99A8AE" d="M30.286,54.864v-0.416h1.76v0.416H30.286z M30.906,54.628v-2.231l0.26,0.056l-0.836,0.504v-0.46l0.792-0.479
	h0.3v2.611H30.906z"/>
<path fill="#99A8AE" d="M32.458,54.305h0.564v0.56h-0.564V54.305z"/>
<path fill="#99A8AE" d="M34.626,54.864v-0.38l0.964-1.044c0.112-0.125,0.194-0.24,0.248-0.344c0.054-0.104,0.08-0.207,0.08-0.309
	c0-0.131-0.037-0.229-0.112-0.296c-0.074-0.066-0.183-0.1-0.324-0.1c-0.128,0-0.256,0.024-0.386,0.073
	c-0.129,0.05-0.258,0.124-0.386,0.223l-0.176-0.376c0.114-0.102,0.26-0.182,0.436-0.24s0.354-0.088,0.536-0.088
	c0.187,0,0.35,0.03,0.488,0.092s0.245,0.15,0.319,0.266c0.075,0.116,0.112,0.255,0.112,0.414c0,0.166-0.034,0.319-0.104,0.462
	c-0.069,0.144-0.188,0.304-0.353,0.482l-0.868,0.92l-0.06-0.172h1.492v0.416H34.626z"/>
<path fill="#99A8AE" d="M37.938,54.896c-0.336,0-0.594-0.124-0.772-0.372s-0.268-0.609-0.268-1.084s0.089-0.836,0.266-1.084
	c0.178-0.248,0.436-0.372,0.774-0.372s0.597,0.124,0.773,0.372c0.178,0.248,0.267,0.607,0.267,1.08c0,0.478-0.09,0.84-0.269,1.088
	S38.274,54.896,37.938,54.896z M37.938,54.496c0.184,0,0.318-0.084,0.403-0.254c0.086-0.169,0.129-0.438,0.129-0.806
	c0-0.365-0.043-0.631-0.129-0.796c-0.085-0.166-0.22-0.248-0.403-0.248c-0.185,0-0.319,0.083-0.404,0.25
	c-0.085,0.166-0.128,0.431-0.128,0.794c0,0.368,0.043,0.637,0.128,0.806C37.619,54.412,37.754,54.496,37.938,54.496z"/>
<path fill="#99A8AE" d="M39.586,54.864v-0.416h1.76v0.416H39.586z M40.206,54.628v-2.231l0.26,0.056l-0.836,0.504v-0.46l0.792-0.479
	h0.3v2.611H40.206z"/>
<path fill="#99A8AE" d="M42.93,54.864v-2.212h0.12l-0.983,1.412L42.07,53.9h1.771v0.404h-2.147v-0.381l1.332-1.907h0.412v2.848
	H42.93z"/>
<path fill="#99A8AE" d="M14.071,25.225v-0.42c0.168,0.025,0.297,0.031,0.387,0.018c0.092-0.012,0.154-0.051,0.189-0.117
	c0.033-0.066,0.051-0.17,0.051-0.309v-2.73h0.516v2.727c0,0.234-0.035,0.422-0.107,0.561s-0.191,0.23-0.357,0.273
	C14.581,25.271,14.356,25.27,14.071,25.225z"/>
<path fill="#99A8AE" d="M16.716,24.541c-0.211,0-0.395-0.043-0.547-0.127c-0.154-0.086-0.271-0.207-0.354-0.363
	c-0.084-0.156-0.125-0.342-0.125-0.557s0.041-0.4,0.125-0.559c0.082-0.158,0.199-0.281,0.354-0.367
	c0.152-0.084,0.336-0.127,0.547-0.127c0.205,0,0.383,0.043,0.537,0.127c0.152,0.086,0.271,0.209,0.355,0.367
	s0.127,0.344,0.127,0.559s-0.043,0.4-0.127,0.557s-0.203,0.277-0.355,0.363C17.099,24.498,16.921,24.541,16.716,24.541z
	 M16.716,24.156c0.164,0,0.291-0.055,0.381-0.166c0.09-0.109,0.135-0.275,0.135-0.496c0-0.219-0.045-0.385-0.135-0.494
	c-0.09-0.111-0.217-0.166-0.381-0.166c-0.17,0-0.299,0.055-0.391,0.166c-0.092,0.109-0.139,0.275-0.139,0.494
	c0,0.221,0.045,0.387,0.137,0.496C16.413,24.102,16.544,24.156,16.716,24.156z"/>
<path fill="#99A8AE" d="M18.786,24.645l-0.932-2.15h0.523l0.637,1.584L18.786,24.645z M18.087,25.422l-0.111-0.385
	c0.125-0.027,0.229-0.059,0.311-0.094c0.084-0.037,0.152-0.082,0.207-0.139c0.055-0.055,0.1-0.127,0.137-0.215l0.145-0.328
	l0.129-0.184l0.648-1.584h0.494l-0.936,2.154c-0.076,0.176-0.166,0.316-0.268,0.422s-0.215,0.186-0.342,0.238
	C18.374,25.363,18.235,25.4,18.087,25.422z"/>
<path fill="#99A8AE" d="M43.085,25c-0.336,0-0.594-0.125-0.772-0.373s-0.268-0.609-0.268-1.084s0.089-0.836,0.266-1.084
	c0.178-0.248,0.436-0.371,0.774-0.371s0.597,0.123,0.773,0.371c0.178,0.248,0.267,0.607,0.267,1.08c0,0.479-0.09,0.84-0.269,1.088
	S43.421,25,43.085,25z M43.085,24.6c0.184,0,0.318-0.084,0.403-0.254c0.086-0.17,0.129-0.438,0.129-0.807
	c0-0.365-0.043-0.631-0.129-0.795c-0.085-0.166-0.22-0.248-0.403-0.248c-0.185,0-0.319,0.082-0.404,0.25
	c-0.085,0.166-0.128,0.43-0.128,0.793c0,0.369,0.043,0.637,0.128,0.807S42.9,24.6,43.085,24.6z"/>
<path fill="#99A8AE" d="M44.505,24.408h0.564v0.559h-0.564V24.408z"/>
<path fill="#99A8AE" d="M46.489,25c-0.336,0-0.594-0.125-0.772-0.373s-0.268-0.609-0.268-1.084s0.089-0.836,0.266-1.084
	c0.178-0.248,0.436-0.371,0.774-0.371s0.597,0.123,0.773,0.371c0.178,0.248,0.267,0.607,0.267,1.08c0,0.479-0.09,0.84-0.269,1.088
	S46.825,25,46.489,25z M46.489,24.6c0.184,0,0.318-0.084,0.403-0.254c0.086-0.17,0.129-0.438,0.129-0.807
	c0-0.365-0.043-0.631-0.129-0.795c-0.085-0.166-0.22-0.248-0.403-0.248c-0.185,0-0.319,0.082-0.404,0.25
	c-0.085,0.166-0.128,0.43-0.128,0.793c0,0.369,0.043,0.637,0.128,0.807S46.305,24.6,46.489,24.6z"/>
<path fill="#99A8AE" d="M48.889,25c-0.336,0-0.594-0.125-0.772-0.373s-0.268-0.609-0.268-1.084s0.089-0.836,0.266-1.084
	c0.178-0.248,0.436-0.371,0.774-0.371s0.597,0.123,0.773,0.371c0.178,0.248,0.267,0.607,0.267,1.08c0,0.479-0.09,0.84-0.269,1.088
	S49.225,25,48.889,25z M48.889,24.6c0.184,0,0.318-0.084,0.403-0.254c0.086-0.17,0.129-0.438,0.129-0.807
	c0-0.365-0.043-0.631-0.129-0.795c-0.085-0.166-0.22-0.248-0.403-0.248c-0.185,0-0.319,0.082-0.404,0.25
	c-0.085,0.166-0.128,0.43-0.128,0.793c0,0.369,0.043,0.637,0.128,0.807S48.704,24.6,48.889,24.6z"/>
<path fill="#99A8AE" d="M15.264,30.389c-0.393,0-0.689-0.1-0.891-0.299c-0.201-0.201-0.302-0.496-0.302-0.885V27.51h0.504v1.723
	c0,0.246,0.058,0.432,0.174,0.559s0.287,0.189,0.515,0.189c0.218,0,0.386-0.064,0.502-0.191c0.115-0.129,0.174-0.313,0.174-0.557
	V27.51h0.512v1.695c0,0.387-0.102,0.68-0.306,0.883C15.941,30.289,15.647,30.389,15.264,30.389z"/>
<path fill="#99A8AE" d="M17.007,30.357v-1.449c0-0.096-0.002-0.191-0.006-0.287s-0.013-0.191-0.025-0.283h0.472l0.044,0.398
	l-0.044,0.012c0.064-0.15,0.159-0.266,0.286-0.346c0.127-0.078,0.272-0.117,0.438-0.117c0.48,0,0.721,0.277,0.721,0.832v1.24h-0.5
	v-1.221c0-0.156-0.031-0.271-0.093-0.346c-0.061-0.074-0.155-0.109-0.283-0.109c-0.155,0-0.278,0.049-0.37,0.145
	c-0.092,0.098-0.139,0.227-0.139,0.387v1.145H17.007z"/>
<path fill="#99A8AE" d="M19.392,27.422h0.556v0.49h-0.556V27.422z M19.415,30.357v-2.02h0.5v2.02H19.415z"/>
<path fill="#99A8AE" d="M21.371,30.385c-0.21,0-0.393-0.041-0.546-0.125s-0.271-0.205-0.352-0.361s-0.122-0.338-0.122-0.549
	c0-0.215,0.043-0.4,0.128-0.561s0.207-0.283,0.364-0.373c0.157-0.088,0.341-0.131,0.552-0.131c0.142,0,0.279,0.023,0.414,0.068
	s0.244,0.107,0.33,0.188l-0.145,0.352c-0.085-0.068-0.176-0.121-0.271-0.158c-0.096-0.035-0.192-0.053-0.288-0.053
	c-0.176,0-0.315,0.055-0.418,0.168c-0.103,0.111-0.154,0.275-0.154,0.492c0,0.213,0.051,0.375,0.152,0.486
	c0.102,0.113,0.242,0.168,0.424,0.168c0.094,0,0.188-0.018,0.284-0.053c0.096-0.037,0.187-0.09,0.271-0.162l0.145,0.352
	c-0.088,0.08-0.201,0.143-0.338,0.186C21.664,30.363,21.521,30.385,21.371,30.385z"/>
<path fill="#99A8AE" d="M23.392,30.385c-0.211,0-0.394-0.043-0.547-0.127c-0.153-0.086-0.271-0.207-0.354-0.363
	s-0.124-0.342-0.124-0.557s0.041-0.4,0.124-0.559s0.2-0.281,0.354-0.367c0.153-0.084,0.336-0.127,0.547-0.127
	c0.205,0,0.384,0.043,0.537,0.127c0.153,0.086,0.272,0.209,0.356,0.367s0.126,0.344,0.126,0.559s-0.042,0.4-0.126,0.557
	s-0.203,0.277-0.356,0.363C23.775,30.342,23.597,30.385,23.392,30.385z M23.392,30c0.165,0,0.292-0.055,0.382-0.166
	c0.089-0.109,0.134-0.275,0.134-0.496c0-0.219-0.045-0.385-0.134-0.494c-0.09-0.111-0.217-0.166-0.382-0.166
	c-0.169,0-0.299,0.055-0.391,0.166c-0.092,0.109-0.138,0.275-0.138,0.494c0,0.221,0.045,0.387,0.136,0.496
	C23.09,29.945,23.221,30,23.392,30z"/>
<path fill="#99A8AE" d="M24.839,30.357v-1.449c0-0.092-0.002-0.188-0.006-0.285s-0.013-0.193-0.025-0.285h0.472l0.056,0.52
	l-0.056-0.029c0.034-0.178,0.113-0.313,0.236-0.402c0.122-0.092,0.261-0.137,0.416-0.137c0.04,0,0.077,0.002,0.111,0.008
	c0.035,0.006,0.065,0.014,0.093,0.023l-0.009,0.457c-0.082-0.035-0.17-0.053-0.264-0.053c-0.12,0-0.218,0.023-0.294,0.072
	s-0.134,0.113-0.172,0.193c-0.039,0.082-0.059,0.174-0.059,0.275v1.092H24.839z"/>
<path fill="#99A8AE" d="M26.406,30.357v-1.449c0-0.096-0.002-0.191-0.006-0.287s-0.013-0.191-0.025-0.283h0.472l0.044,0.398
	l-0.044,0.012c0.064-0.15,0.159-0.266,0.286-0.346c0.127-0.078,0.272-0.117,0.438-0.117c0.48,0,0.721,0.277,0.721,0.832v1.24h-0.5
	v-1.221c0-0.156-0.031-0.271-0.093-0.346c-0.061-0.074-0.155-0.109-0.283-0.109c-0.155,0-0.278,0.049-0.37,0.145
	c-0.092,0.098-0.139,0.227-0.139,0.387v1.145H26.406z"/>
<path fill="#99A8AE" d="M29.95,30.357V27.51h0.517v2.424h1.328v0.424H29.95z"/>
<path fill="#99A8AE" d="M32.127,27.422h0.556v0.49h-0.556V27.422z M32.15,30.357v-2.02h0.5v2.02H32.15z"/>
<path fill="#99A8AE" d="M32.942,28.713v-0.375h1.332v0.375H32.942z M34.347,27.842c-0.074-0.021-0.142-0.033-0.2-0.033
	s-0.112,0.012-0.162,0.035c-0.049,0.021-0.088,0.059-0.115,0.111c-0.028,0.053-0.042,0.121-0.042,0.209v2.193h-0.5v-2.217
	c0-0.24,0.061-0.424,0.182-0.551c0.121-0.129,0.295-0.193,0.522-0.193c0.056,0,0.11,0.004,0.164,0.008
	c0.053,0.006,0.104,0.018,0.151,0.037V27.842z"/>
<path fill="#99A8AE" d="M36.375,30.133c-0.096,0.08-0.214,0.143-0.354,0.186c-0.141,0.045-0.282,0.066-0.427,0.066
	c-0.219,0-0.407-0.041-0.565-0.123c-0.159-0.084-0.281-0.203-0.366-0.361c-0.085-0.156-0.128-0.344-0.128-0.559
	c0-0.209,0.041-0.393,0.124-0.551s0.197-0.283,0.344-0.373c0.146-0.088,0.316-0.133,0.508-0.133c0.187,0,0.347,0.041,0.48,0.121
	c0.133,0.082,0.236,0.199,0.31,0.352c0.073,0.15,0.11,0.332,0.11,0.539v0.076h-1.437l0.005-0.268h1.136l-0.136,0.135
	c0.002-0.193-0.036-0.342-0.114-0.443c-0.079-0.102-0.192-0.152-0.342-0.152c-0.16,0-0.284,0.057-0.372,0.17
	s-0.132,0.275-0.132,0.486c0,0.24,0.049,0.416,0.147,0.529S35.415,30,35.615,30c0.109,0,0.217-0.018,0.322-0.053
	c0.104-0.037,0.203-0.09,0.294-0.158L36.375,30.133z"/>
<path fill="#99A8AE" d="M42.158,30.316v-0.379l0.964-1.045c0.112-0.125,0.194-0.24,0.248-0.344s0.08-0.207,0.08-0.309
	c0-0.131-0.037-0.229-0.112-0.295c-0.074-0.066-0.183-0.1-0.324-0.1c-0.128,0-0.256,0.023-0.386,0.072
	c-0.129,0.051-0.258,0.125-0.386,0.223l-0.176-0.375c0.114-0.102,0.26-0.182,0.436-0.24s0.354-0.088,0.536-0.088
	c0.187,0,0.35,0.029,0.488,0.092c0.139,0.061,0.245,0.15,0.319,0.266c0.075,0.115,0.112,0.254,0.112,0.414
	c0,0.166-0.034,0.318-0.104,0.461c-0.069,0.145-0.188,0.305-0.353,0.482l-0.868,0.92l-0.06-0.172h1.492v0.416H42.158z"/>
<path fill="#99A8AE" d="M44.49,29.758h0.564v0.559H44.49V29.758z"/>
<path fill="#99A8AE" d="M46.383,27.438c0.359,0,0.637,0.119,0.832,0.361c0.194,0.242,0.292,0.588,0.292,1.043
	c0,0.316-0.047,0.588-0.139,0.813c-0.092,0.227-0.225,0.398-0.397,0.516c-0.174,0.119-0.382,0.18-0.624,0.18
	c-0.171,0-0.337-0.029-0.498-0.084c-0.161-0.057-0.302-0.139-0.422-0.244l0.176-0.377c0.133,0.104,0.26,0.18,0.38,0.227
	s0.236,0.07,0.348,0.07c0.217,0,0.382-0.094,0.496-0.283c0.115-0.188,0.172-0.457,0.172-0.809v-0.217l0.057,0.1
	c-0.024,0.115-0.072,0.215-0.145,0.299c-0.071,0.084-0.16,0.148-0.266,0.195s-0.221,0.07-0.346,0.07
	c-0.168,0-0.318-0.039-0.45-0.117c-0.132-0.08-0.235-0.188-0.311-0.324c-0.074-0.139-0.111-0.295-0.111-0.475
	c0-0.184,0.041-0.348,0.124-0.49c0.082-0.143,0.195-0.254,0.34-0.334C46.034,27.477,46.198,27.438,46.383,27.438z M46.41,27.846
	c-0.149,0-0.269,0.047-0.357,0.141c-0.09,0.096-0.135,0.221-0.135,0.379c0,0.156,0.045,0.283,0.135,0.377
	c0.089,0.096,0.208,0.143,0.357,0.143c0.099,0,0.187-0.021,0.265-0.066c0.077-0.043,0.137-0.105,0.178-0.184s0.062-0.168,0.062-0.27
	c0-0.104-0.021-0.195-0.062-0.271c-0.041-0.078-0.101-0.139-0.178-0.184C46.597,27.867,46.509,27.846,46.41,27.846z"/>
<path fill="#99A8AE" d="M48.782,27.438c0.359,0,0.637,0.119,0.832,0.361c0.194,0.242,0.292,0.588,0.292,1.043
	c0,0.316-0.047,0.588-0.139,0.813c-0.092,0.227-0.225,0.398-0.397,0.516c-0.174,0.119-0.382,0.18-0.624,0.18
	c-0.171,0-0.337-0.029-0.498-0.084c-0.161-0.057-0.302-0.139-0.422-0.244l0.176-0.377c0.133,0.104,0.26,0.18,0.38,0.227
	s0.236,0.07,0.348,0.07c0.217,0,0.382-0.094,0.496-0.283c0.115-0.188,0.172-0.457,0.172-0.809v-0.217l0.057,0.1
	c-0.024,0.115-0.072,0.215-0.145,0.299c-0.071,0.084-0.16,0.148-0.266,0.195s-0.221,0.07-0.346,0.07
	c-0.168,0-0.318-0.039-0.45-0.117c-0.132-0.08-0.235-0.188-0.311-0.324c-0.074-0.139-0.111-0.295-0.111-0.475
	c0-0.184,0.041-0.348,0.124-0.49c0.082-0.143,0.195-0.254,0.34-0.334C48.434,27.477,48.598,27.438,48.782,27.438z M48.81,27.846
	c-0.149,0-0.269,0.047-0.357,0.141c-0.09,0.096-0.135,0.221-0.135,0.379c0,0.156,0.045,0.283,0.135,0.377
	c0.089,0.096,0.208,0.143,0.357,0.143c0.099,0,0.187-0.021,0.265-0.066c0.077-0.043,0.137-0.105,0.178-0.184s0.062-0.168,0.062-0.27
	c0-0.104-0.021-0.195-0.062-0.271c-0.041-0.078-0.101-0.139-0.178-0.184C48.996,27.867,48.908,27.846,48.81,27.846z"/>
<path fill="#99A8AE" d="M14.071,35.211v-2.848h0.509v2.848H14.071z M14.256,33.971v-0.412h2.084v0.412H14.256z M16.044,35.211
	v-2.848h0.504v2.848H16.044z"/>
<path fill="#99A8AE" d="M17.915,35.238c-0.176,0-0.332-0.041-0.468-0.125s-0.24-0.205-0.313-0.361
	c-0.074-0.156-0.11-0.338-0.11-0.549c0-0.215,0.037-0.4,0.112-0.559c0.074-0.158,0.179-0.283,0.313-0.373
	c0.135-0.088,0.29-0.133,0.466-0.133c0.171,0,0.319,0.041,0.446,0.125s0.213,0.201,0.258,0.352l-0.048,0.027v-0.451h0.492v2.02
	h-0.492v-0.457l0.048,0.016c-0.045,0.15-0.131,0.266-0.258,0.348C18.234,35.197,18.086,35.238,17.915,35.238z M18.052,34.854
	c0.165,0,0.293-0.057,0.384-0.172c0.091-0.113,0.136-0.277,0.136-0.486c0-0.217-0.045-0.381-0.136-0.494s-0.219-0.17-0.384-0.17
	c-0.168,0-0.299,0.059-0.393,0.176c-0.093,0.117-0.14,0.281-0.14,0.496c0,0.207,0.047,0.367,0.14,0.48
	C17.753,34.797,17.884,34.854,18.052,34.854z"/>
<path fill="#99A8AE" d="M19.604,36.074v-2.313c0-0.092-0.002-0.188-0.006-0.285s-0.013-0.193-0.025-0.285h0.472l0.044,0.398
	l-0.028,0.025c0.043-0.15,0.127-0.268,0.252-0.352c0.126-0.084,0.273-0.125,0.444-0.125c0.176,0,0.331,0.045,0.466,0.133
	c0.135,0.09,0.241,0.215,0.318,0.373s0.116,0.344,0.116,0.559c0,0.211-0.039,0.393-0.116,0.549s-0.183,0.277-0.316,0.361
	c-0.133,0.084-0.289,0.125-0.468,0.125c-0.171,0-0.318-0.041-0.444-0.121c-0.125-0.082-0.209-0.197-0.252-0.348l0.044-0.063v1.367
	H19.604z M20.628,34.854c0.165,0,0.293-0.057,0.384-0.17s0.136-0.273,0.136-0.48c0-0.215-0.045-0.379-0.136-0.496
	s-0.219-0.176-0.384-0.176c-0.171,0-0.301,0.057-0.39,0.17c-0.09,0.113-0.135,0.277-0.135,0.494c0,0.209,0.045,0.373,0.135,0.486
	C20.327,34.797,20.457,34.854,20.628,34.854z"/>
<path fill="#99A8AE" d="M22.083,36.074v-2.313c0-0.092-0.002-0.188-0.006-0.285s-0.013-0.193-0.025-0.285h0.472l0.044,0.398
	l-0.028,0.025c0.043-0.15,0.127-0.268,0.252-0.352c0.126-0.084,0.273-0.125,0.444-0.125c0.176,0,0.331,0.045,0.466,0.133
	c0.135,0.09,0.241,0.215,0.318,0.373s0.116,0.344,0.116,0.559c0,0.211-0.039,0.393-0.116,0.549s-0.183,0.277-0.316,0.361
	c-0.133,0.084-0.289,0.125-0.468,0.125c-0.171,0-0.318-0.041-0.444-0.121c-0.125-0.082-0.209-0.197-0.252-0.348l0.044-0.063v1.367
	H22.083z M23.107,34.854c0.165,0,0.293-0.057,0.384-0.17s0.136-0.273,0.136-0.48c0-0.215-0.045-0.379-0.136-0.496
	s-0.219-0.176-0.384-0.176c-0.171,0-0.301,0.057-0.39,0.17c-0.09,0.113-0.135,0.277-0.135,0.494c0,0.209,0.045,0.373,0.135,0.486
	C22.807,34.797,22.937,34.854,23.107,34.854z"/>
<path fill="#99A8AE" d="M25.188,35.342l-0.932-2.15h0.523l0.637,1.584L25.188,35.342z M24.487,36.119l-0.111-0.385
	c0.125-0.027,0.229-0.059,0.312-0.094c0.083-0.037,0.151-0.082,0.206-0.139c0.055-0.055,0.101-0.127,0.138-0.215l0.145-0.328
	l0.128-0.184l0.648-1.584h0.495l-0.936,2.154c-0.077,0.176-0.167,0.316-0.268,0.422c-0.102,0.105-0.216,0.186-0.343,0.238
	C24.775,36.061,24.637,36.098,24.487,36.119z"/>
<path fill="#99A8AE" d="M27.839,35.211v-2.848h1.236c0.31,0,0.549,0.072,0.718,0.221c0.17,0.148,0.254,0.35,0.254,0.607
	c0,0.252-0.086,0.453-0.258,0.604c-0.172,0.148-0.41,0.223-0.714,0.223h-0.72v1.193H27.839z M28.355,33.623h0.66
	c0.181,0,0.316-0.037,0.405-0.113c0.09-0.074,0.135-0.18,0.135-0.314c0-0.139-0.044-0.246-0.133-0.318
	c-0.088-0.074-0.224-0.111-0.407-0.111h-0.66V33.623z"/>
<path fill="#99A8AE" d="M31.308,35.238c-0.211,0-0.394-0.043-0.547-0.127c-0.153-0.086-0.271-0.207-0.354-0.363
	s-0.124-0.342-0.124-0.557s0.041-0.4,0.124-0.559s0.2-0.281,0.354-0.367c0.153-0.084,0.336-0.127,0.547-0.127
	c0.205,0,0.384,0.043,0.537,0.127c0.153,0.086,0.272,0.209,0.356,0.367s0.126,0.344,0.126,0.559s-0.042,0.4-0.126,0.557
	s-0.203,0.277-0.356,0.363C31.691,35.195,31.513,35.238,31.308,35.238z M31.308,34.854c0.165,0,0.292-0.055,0.382-0.166
	c0.089-0.109,0.134-0.275,0.134-0.496c0-0.219-0.045-0.385-0.134-0.494c-0.09-0.111-0.217-0.166-0.382-0.166
	c-0.169,0-0.299,0.055-0.391,0.166c-0.092,0.109-0.138,0.275-0.138,0.494c0,0.221,0.045,0.387,0.136,0.496
	C31.006,34.799,31.137,34.854,31.308,34.854z"/>
<path fill="#99A8AE" d="M33.676,35.238c-0.211,0-0.394-0.043-0.547-0.127c-0.153-0.086-0.271-0.207-0.354-0.363
	s-0.124-0.342-0.124-0.557s0.041-0.4,0.124-0.559s0.2-0.281,0.354-0.367c0.153-0.084,0.336-0.127,0.547-0.127
	c0.205,0,0.384,0.043,0.537,0.127c0.153,0.086,0.272,0.209,0.356,0.367s0.126,0.344,0.126,0.559s-0.042,0.4-0.126,0.557
	s-0.203,0.277-0.356,0.363C34.06,35.195,33.881,35.238,33.676,35.238z M33.676,34.854c0.165,0,0.292-0.055,0.382-0.166
	c0.089-0.109,0.134-0.275,0.134-0.496c0-0.219-0.045-0.385-0.134-0.494c-0.09-0.111-0.217-0.166-0.382-0.166
	c-0.169,0-0.299,0.055-0.391,0.166c-0.092,0.109-0.138,0.275-0.138,0.494c0,0.221,0.045,0.387,0.136,0.496
	C33.374,34.799,33.505,34.854,33.676,34.854z"/>
<path fill="#99A8AE" d="M43.047,35.693c-0.176,0-0.352-0.029-0.526-0.088s-0.317-0.139-0.43-0.24l0.172-0.377
	c0.128,0.096,0.258,0.17,0.39,0.221c0.133,0.051,0.267,0.076,0.402,0.076c0.176,0,0.312-0.045,0.408-0.135
	c0.096-0.09,0.144-0.217,0.144-0.383c0-0.105-0.021-0.197-0.065-0.275c-0.044-0.076-0.106-0.137-0.187-0.18
	s-0.175-0.064-0.284-0.064s-0.213,0.021-0.312,0.063s-0.188,0.102-0.269,0.182h-0.308v-1.676h1.784v0.404h-1.28v0.939l-0.156-0.023
	c0.08-0.096,0.177-0.17,0.288-0.221c0.112-0.051,0.239-0.076,0.38-0.076c0.179,0,0.336,0.039,0.471,0.117
	c0.135,0.076,0.239,0.184,0.315,0.32c0.076,0.135,0.114,0.293,0.114,0.475c0,0.188-0.043,0.352-0.13,0.494s-0.208,0.254-0.364,0.33
	C43.448,35.654,43.263,35.693,43.047,35.693z"/>
<path fill="#99A8AE" d="M44.467,35.105h0.564v0.559h-0.564V35.105z"/>
<path fill="#99A8AE" d="M46.359,32.785c0.359,0,0.637,0.119,0.832,0.361c0.194,0.242,0.292,0.588,0.292,1.043
	c0,0.316-0.047,0.588-0.139,0.813c-0.092,0.227-0.225,0.398-0.397,0.516c-0.174,0.119-0.382,0.18-0.624,0.18
	c-0.171,0-0.337-0.029-0.498-0.084c-0.161-0.057-0.302-0.139-0.422-0.244l0.176-0.377c0.133,0.104,0.26,0.18,0.38,0.227
	s0.236,0.07,0.348,0.07c0.217,0,0.382-0.094,0.496-0.283c0.115-0.188,0.172-0.457,0.172-0.809V33.98l0.057,0.1
	c-0.024,0.115-0.072,0.215-0.145,0.299c-0.071,0.084-0.16,0.148-0.266,0.195s-0.221,0.07-0.346,0.07
	c-0.168,0-0.318-0.039-0.45-0.117c-0.132-0.08-0.235-0.188-0.311-0.324c-0.074-0.139-0.111-0.295-0.111-0.475
	c0-0.184,0.041-0.348,0.124-0.49c0.082-0.143,0.195-0.254,0.34-0.334C46.011,32.824,46.175,32.785,46.359,32.785z M46.387,33.193
	c-0.149,0-0.269,0.047-0.357,0.141c-0.09,0.096-0.135,0.221-0.135,0.379c0,0.156,0.045,0.283,0.135,0.377
	c0.089,0.096,0.208,0.143,0.357,0.143c0.099,0,0.187-0.021,0.265-0.066c0.077-0.043,0.137-0.105,0.178-0.184s0.062-0.168,0.062-0.27
	c0-0.104-0.021-0.195-0.062-0.271c-0.041-0.078-0.101-0.139-0.178-0.184C46.573,33.215,46.485,33.193,46.387,33.193z"/>
<path fill="#99A8AE" d="M48.759,32.785c0.359,0,0.637,0.119,0.832,0.361c0.194,0.242,0.292,0.588,0.292,1.043
	c0,0.316-0.047,0.588-0.139,0.813c-0.092,0.227-0.225,0.398-0.397,0.516c-0.174,0.119-0.382,0.18-0.624,0.18
	c-0.171,0-0.337-0.029-0.498-0.084c-0.161-0.057-0.302-0.139-0.422-0.244l0.176-0.377c0.133,0.104,0.26,0.18,0.38,0.227
	s0.236,0.07,0.348,0.07c0.217,0,0.382-0.094,0.496-0.283c0.115-0.188,0.172-0.457,0.172-0.809V33.98l0.057,0.1
	c-0.024,0.115-0.072,0.215-0.145,0.299c-0.071,0.084-0.16,0.148-0.266,0.195s-0.221,0.07-0.346,0.07
	c-0.168,0-0.318-0.039-0.45-0.117c-0.132-0.08-0.235-0.188-0.311-0.324c-0.074-0.139-0.111-0.295-0.111-0.475
	c0-0.184,0.041-0.348,0.124-0.49c0.082-0.143,0.195-0.254,0.34-0.334C48.41,32.824,48.574,32.785,48.759,32.785z M48.786,33.193
	c-0.149,0-0.269,0.047-0.357,0.141c-0.09,0.096-0.135,0.221-0.135,0.379c0,0.156,0.045,0.283,0.135,0.377
	c0.089,0.096,0.208,0.143,0.357,0.143c0.099,0,0.187-0.021,0.265-0.066c0.077-0.043,0.137-0.105,0.178-0.184s0.062-0.168,0.062-0.27
	c0-0.104-0.021-0.195-0.062-0.271c-0.041-0.078-0.101-0.139-0.178-0.184C48.973,33.215,48.885,33.193,48.786,33.193z"/>
<path fill="#99A8AE" d="M27.532,46.253v-2.424h-0.928v-0.424h2.376v0.424h-0.928v2.424H27.532z"/>
<path fill="#99A8AE" d="M30.433,46.285c-0.277,0-0.518-0.059-0.721-0.176c-0.202-0.118-0.358-0.286-0.468-0.505
	c-0.109-0.218-0.164-0.477-0.164-0.775c0-0.302,0.055-0.561,0.164-0.778c0.109-0.217,0.266-0.385,0.468-0.502
	c0.203-0.117,0.443-0.176,0.721-0.176c0.279,0,0.521,0.059,0.724,0.176c0.203,0.117,0.358,0.285,0.468,0.502
	c0.109,0.218,0.164,0.476,0.164,0.774c0,0.301-0.055,0.562-0.166,0.779c-0.11,0.219-0.267,0.387-0.468,0.505
	C30.953,46.227,30.712,46.285,30.433,46.285z M30.433,45.877c0.261,0,0.467-0.09,0.616-0.271c0.148-0.18,0.224-0.44,0.224-0.781
	c0-0.342-0.075-0.601-0.224-0.778c-0.149-0.178-0.355-0.266-0.616-0.266c-0.259,0-0.463,0.088-0.612,0.266s-0.224,0.437-0.224,0.778
	c0,0.341,0.074,0.602,0.224,0.781C29.97,45.787,30.174,45.877,30.433,45.877z"/>
<path fill="#99A8AE" d="M32.816,46.253v-2.424h-0.928v-0.424h2.376v0.424h-0.928v2.424H32.816z"/>
<path fill="#99A8AE" d="M34.48,46.253h-0.52l1.288-2.848h0.42l1.288,2.848h-0.512l-1.049-2.448h0.141L34.48,46.253z M34.529,45.585
	l0.195-0.4h1.452l0.188,0.4H34.529z"/>
<path fill="#99A8AE" d="M37.265,46.253v-2.848h0.517v2.424h1.328v0.424H37.265z"/>
<path fill="#99A8AE" d="M43.062,46.281c-0.211,0-0.396-0.031-0.557-0.095c-0.159-0.063-0.284-0.153-0.374-0.273
	c-0.089-0.12-0.134-0.263-0.134-0.428c0-0.2,0.065-0.363,0.196-0.49s0.31-0.205,0.536-0.234l-0.017,0.061
	c-0.199-0.04-0.358-0.121-0.476-0.242s-0.176-0.269-0.176-0.442c0-0.157,0.043-0.293,0.13-0.408
	c0.087-0.114,0.205-0.202,0.355-0.264c0.151-0.062,0.322-0.092,0.515-0.092c0.191,0,0.363,0.03,0.514,0.092s0.27,0.149,0.356,0.264
	c0.086,0.115,0.13,0.251,0.13,0.408c0,0.176-0.059,0.325-0.176,0.448c-0.118,0.123-0.275,0.201-0.473,0.236l-0.016-0.061
	c0.227,0.032,0.404,0.112,0.534,0.24c0.129,0.128,0.193,0.289,0.193,0.484c0,0.165-0.044,0.308-0.134,0.428
	c-0.089,0.12-0.214,0.211-0.374,0.273C43.457,46.25,43.271,46.281,43.062,46.281z M43.062,45.881c0.179,0,0.319-0.036,0.424-0.11
	c0.104-0.073,0.156-0.181,0.156-0.321c0-0.137-0.055-0.243-0.162-0.322c-0.108-0.079-0.247-0.129-0.418-0.15
	c-0.171,0.021-0.311,0.071-0.418,0.15c-0.108,0.079-0.162,0.186-0.162,0.322c0,0.141,0.052,0.248,0.156,0.321
	C42.741,45.845,42.883,45.881,43.062,45.881z M43.062,44.649c0.146-0.024,0.268-0.074,0.364-0.15
	c0.096-0.076,0.144-0.18,0.144-0.311c0-0.136-0.046-0.239-0.138-0.31c-0.093-0.07-0.216-0.106-0.37-0.106
	c-0.155,0-0.278,0.036-0.37,0.106s-0.138,0.174-0.138,0.31c0,0.131,0.048,0.234,0.144,0.311S42.915,44.625,43.062,44.649z"/>
<path fill="#99A8AE" d="M44.481,45.693h0.564v0.56h-0.564V45.693z"/>
<path fill="#99A8AE" d="M46.374,43.373c0.359,0,0.637,0.12,0.832,0.362c0.194,0.241,0.292,0.588,0.292,1.042
	c0,0.317-0.047,0.588-0.139,0.813s-0.225,0.397-0.397,0.516c-0.174,0.119-0.382,0.179-0.624,0.179c-0.171,0-0.337-0.028-0.498-0.084
	c-0.161-0.057-0.302-0.138-0.422-0.244l0.176-0.376c0.133,0.104,0.26,0.18,0.38,0.226c0.12,0.047,0.236,0.07,0.348,0.07
	c0.217,0,0.382-0.094,0.496-0.282c0.115-0.188,0.172-0.458,0.172-0.81v-0.216l0.057,0.1c-0.024,0.114-0.072,0.214-0.145,0.298
	c-0.071,0.084-0.16,0.149-0.266,0.196s-0.221,0.07-0.346,0.07c-0.168,0-0.318-0.04-0.45-0.118c-0.132-0.079-0.235-0.187-0.311-0.324
	c-0.074-0.138-0.111-0.295-0.111-0.474c0-0.185,0.041-0.348,0.124-0.49c0.082-0.143,0.195-0.254,0.34-0.334
	C46.025,43.413,46.189,43.373,46.374,43.373z M46.401,43.781c-0.149,0-0.269,0.047-0.357,0.142c-0.09,0.095-0.135,0.221-0.135,0.378
	s0.045,0.283,0.135,0.378c0.089,0.095,0.208,0.143,0.357,0.143c0.099,0,0.187-0.022,0.265-0.066
	c0.077-0.044,0.137-0.105,0.178-0.184c0.041-0.079,0.062-0.169,0.062-0.271c0-0.104-0.021-0.194-0.062-0.271
	c-0.041-0.078-0.101-0.139-0.178-0.183C46.588,43.803,46.5,43.781,46.401,43.781z"/>
<path fill="#99A8AE" d="M48.865,46.281c-0.211,0-0.396-0.031-0.557-0.095c-0.159-0.063-0.284-0.153-0.374-0.273
	c-0.089-0.12-0.134-0.263-0.134-0.428c0-0.2,0.065-0.363,0.196-0.49s0.31-0.205,0.536-0.234l-0.017,0.061
	c-0.199-0.04-0.358-0.121-0.476-0.242s-0.176-0.269-0.176-0.442c0-0.157,0.043-0.293,0.13-0.408
	c0.087-0.114,0.205-0.202,0.355-0.264c0.151-0.062,0.322-0.092,0.515-0.092c0.191,0,0.363,0.03,0.514,0.092s0.27,0.149,0.356,0.264
	c0.086,0.115,0.13,0.251,0.13,0.408c0,0.176-0.059,0.325-0.176,0.448c-0.118,0.123-0.275,0.201-0.473,0.236l-0.016-0.061
	c0.227,0.032,0.404,0.112,0.534,0.24c0.129,0.128,0.193,0.289,0.193,0.484c0,0.165-0.044,0.308-0.134,0.428
	c-0.089,0.12-0.214,0.211-0.374,0.273C49.261,46.25,49.075,46.281,48.865,46.281z M48.865,45.881c0.179,0,0.319-0.036,0.424-0.11
	c0.104-0.073,0.156-0.181,0.156-0.321c0-0.137-0.055-0.243-0.162-0.322c-0.108-0.079-0.247-0.129-0.418-0.15
	c-0.171,0.021-0.311,0.071-0.418,0.15c-0.108,0.079-0.162,0.186-0.162,0.322c0,0.141,0.052,0.248,0.156,0.321
	C48.545,45.845,48.687,45.881,48.865,45.881z M48.865,44.649c0.146-0.024,0.268-0.074,0.364-0.15
	c0.096-0.076,0.144-0.18,0.144-0.311c0-0.136-0.046-0.239-0.138-0.31c-0.093-0.07-0.216-0.106-0.37-0.106
	c-0.155,0-0.278,0.036-0.37,0.106s-0.138,0.174-0.138,0.31c0,0.131,0.048,0.234,0.144,0.311S48.719,44.625,48.865,44.649z"/>
</svg>
