<?xml version="1.0" encoding="utf-8"?>
<!-- Generator: Adobe Illustrator 15.0.0, SVG Export Plug-In . SVG Version: 6.00 Build 0)  -->
<!DOCTYPE svg PUBLIC "-//W3C//DTD SVG 1.1//EN" "http://www.w3.org/Graphics/SVG/1.1/DTD/svg11.dtd" [
	<!ENTITY ns_flows "http://ns.adobe.com/Flows/1.0/">
	<!ENTITY ns_extend "http://ns.adobe.com/Extensibility/1.0/">
	<!ENTITY ns_ai "http://ns.adobe.com/AdobeIllustrator/10.0/">
	<!ENTITY ns_graphs "http://ns.adobe.com/Graphs/1.0/">
]>
<svg version="1.1" id="Layer_1" xmlns:x="&ns_extend;" xmlns:i="&ns_ai;" xmlns:graph="&ns_graphs;"
	 xmlns="http://www.w3.org/2000/svg" xmlns:xlink="http://www.w3.org/1999/xlink" xmlns:a="http://ns.adobe.com/AdobeSVGViewerExtensions/3.0/"
	 x="0px" y="0px" width="64px" height="64px" viewBox="0 0 64 64" enable-background="new 0 0 64 64" xml:space="preserve">
<polygon fill="#785C4F" points="53,58.814 50.55,59.84 49.036,60.148 25.965,1.835 27.764,0 "/>
<polygon fill="#AB8372" points="51.548,59.123 53,58.814 29.03,0 27.764,0 "/>
<polygon fill="#AB8970" points="47.219,50.886 46.417,51.38 31.712,54.118 30.757,52.285 "/>
<polygon fill="#EBC6A9" points="46.292,48.646 47.219,50.886 32.521,53.688 31.63,51.277 "/>
<polygon fill="#AB8970" points="43.299,41.16 42.498,41.656 27.657,44 26.703,42.169 "/>
<polygon fill="#EBC6A9" points="42.373,38.921 43.299,41.16 28.467,43.571 27.576,41.16 "/>
<polygon fill="#AB8970" points="39.38,31.265 38.578,31.761 24.255,33.521 23.3,31.689 "/>
<polygon fill="#EBC6A9" points="38.454,29.027 39.38,31.265 25.064,33.091 24.173,30.682 "/>
<polygon fill="#AB8970" points="35.39,21.147 34.587,21.644 20.255,22.856 19.301,21.025 "/>
<polygon fill="#EBC6A9" points="34.463,18.908 35.39,21.147 21.064,22.427 20.173,20.017 "/>
<polygon fill="#AB8970" points="31.167,10.825 30.508,11.373 16.594,12.175 15.426,10.189 "/>
<polygon fill="#EBC6A9" points="30.24,8.587 31.167,10.825 17.189,11.592 16.298,9.182 "/>
<polygon fill="#785C4F" points="35.897,62.667 33.447,63.691 31.933,64 11,2.144 12.586,0.307 "/>
<polygon fill="#AB8372" points="34.444,62.974 35.897,62.667 13.851,0.307 12.586,0.307 "/>
</svg>
