<?xml version="1.0" encoding="utf-8"?>
<!-- Generator: Adobe Illustrator 15.0.0, SVG Export Plug-In . SVG Version: 6.00 Build 0)  -->
<!DOCTYPE svg PUBLIC "-//W3C//DTD SVG 1.1//EN" "http://www.w3.org/Graphics/SVG/1.1/DTD/svg11.dtd" [
	<!ENTITY ns_flows "http://ns.adobe.com/Flows/1.0/">
	<!ENTITY ns_extend "http://ns.adobe.com/Extensibility/1.0/">
	<!ENTITY ns_ai "http://ns.adobe.com/AdobeIllustrator/10.0/">
	<!ENTITY ns_graphs "http://ns.adobe.com/Graphs/1.0/">
]>
<svg version="1.1" id="Layer_1" xmlns:x="&ns_extend;" xmlns:i="&ns_ai;" xmlns:graph="&ns_graphs;"
	 xmlns="http://www.w3.org/2000/svg" xmlns:xlink="http://www.w3.org/1999/xlink" xmlns:a="http://ns.adobe.com/AdobeSVGViewerExtensions/3.0/"
	 x="0px" y="0px" width="64px" height="64px" viewBox="0 0 64 64" enable-background="new 0 0 64 64" xml:space="preserve">
<linearGradient id="SVGID_1_" gradientUnits="userSpaceOnUse" x1="31.0005" y1="48.3926" x2="31.0005" y2="4.332">
	<stop  offset="0" style="stop-color:#A8F1FF"/>
	<stop  offset="1" style="stop-color:#4ECEE6"/>
	<a:midPointStop  offset="0" style="stop-color:#A8F1FF"/>
	<a:midPointStop  offset="0.5" style="stop-color:#A8F1FF"/>
	<a:midPointStop  offset="1" style="stop-color:#4ECEE6"/>
</linearGradient>
<rect x="10.799" y="4.332" fill="url(#SVGID_1_)" width="40.402" height="44.061"/>
<radialGradient id="SVGID_2_" cx="-102.2617" cy="-3.0244" r="4.9282" gradientTransform="matrix(0.9 0 0 0.9509 116.9284 23.5295)" gradientUnits="userSpaceOnUse">
	<stop  offset="0.5939" style="stop-color:#C9F9FF"/>
	<stop  offset="1" style="stop-color:#C9F9FF;stop-opacity:0"/>
	<a:midPointStop  offset="0.5939" style="stop-color:#C9F9FF"/>
	<a:midPointStop  offset="0.4468" style="stop-color:#C9F9FF"/>
	<a:midPointStop  offset="1" style="stop-color:#C9F9FF;stop-opacity:0"/>
</radialGradient>
<ellipse fill="url(#SVGID_2_)" cx="24.893" cy="20.653" rx="4.435" ry="4.687"/>
<radialGradient id="SVGID_3_" cx="126.376" cy="71.3535" r="4.6055" gradientTransform="matrix(0.7409 0 0 0.672 -64.2471 -25.2004)" gradientUnits="userSpaceOnUse">
	<stop  offset="0.5939" style="stop-color:#C9F9FF"/>
	<stop  offset="1" style="stop-color:#C9F9FF;stop-opacity:0"/>
	<a:midPointStop  offset="0.5939" style="stop-color:#C9F9FF"/>
	<a:midPointStop  offset="0.4468" style="stop-color:#C9F9FF"/>
	<a:midPointStop  offset="1" style="stop-color:#C9F9FF;stop-opacity:0"/>
</radialGradient>
<ellipse fill="url(#SVGID_3_)" cx="29.385" cy="22.75" rx="3.412" ry="3.095"/>
<radialGradient id="SVGID_4_" cx="-107.0547" cy="-0.5054" r="4.4124" gradientTransform="matrix(0.9 0 0 0.9509 116.9284 23.5295)" gradientUnits="userSpaceOnUse">
	<stop  offset="0.5939" style="stop-color:#C9F9FF"/>
	<stop  offset="1" style="stop-color:#C9F9FF;stop-opacity:0"/>
	<a:midPointStop  offset="0.5939" style="stop-color:#C9F9FF"/>
	<a:midPointStop  offset="0.4468" style="stop-color:#C9F9FF"/>
	<a:midPointStop  offset="1" style="stop-color:#C9F9FF;stop-opacity:0"/>
</radialGradient>
<ellipse fill="url(#SVGID_4_)" cx="20.58" cy="23.048" rx="3.971" ry="4.195"/>
<radialGradient id="SVGID_5_" cx="-111.0088" cy="46.1729" r="3.1958" gradientTransform="matrix(0.9 0 0 0.7301 116.9284 -9.7495)" gradientUnits="userSpaceOnUse">
	<stop  offset="0.5939" style="stop-color:#C9F9FF"/>
	<stop  offset="1" style="stop-color:#C9F9FF;stop-opacity:0"/>
	<a:midPointStop  offset="0.5939" style="stop-color:#C9F9FF"/>
	<a:midPointStop  offset="0.4468" style="stop-color:#C9F9FF"/>
	<a:midPointStop  offset="1" style="stop-color:#C9F9FF;stop-opacity:0"/>
</radialGradient>
<ellipse fill="url(#SVGID_5_)" cx="17.021" cy="23.96" rx="2.876" ry="2.334"/>
<radialGradient id="SVGID_6_" cx="-27.1113" cy="-418.2051" r="3.1963" gradientTransform="matrix(1.1267 0 0 0.6419 56.191 293.7465)" gradientUnits="userSpaceOnUse">
	<stop  offset="0.5939" style="stop-color:#C9F9FF"/>
	<stop  offset="1" style="stop-color:#C9F9FF;stop-opacity:0"/>
	<a:midPointStop  offset="0.5939" style="stop-color:#C9F9FF"/>
	<a:midPointStop  offset="0.4468" style="stop-color:#C9F9FF"/>
	<a:midPointStop  offset="1" style="stop-color:#C9F9FF;stop-opacity:0"/>
</radialGradient>
<ellipse fill="url(#SVGID_6_)" cx="25.645" cy="25.299" rx="3.601" ry="2.053"/>
<radialGradient id="SVGID_7_" cx="-2203.9385" cy="56.5645" r="3.7737" gradientTransform="matrix(-0.9 0 0 0.7857 -1943.9187 -13.9213)" gradientUnits="userSpaceOnUse">
	<stop  offset="0.5939" style="stop-color:#C9F9FF"/>
	<stop  offset="1" style="stop-color:#C9F9FF;stop-opacity:0"/>
	<a:midPointStop  offset="0.5939" style="stop-color:#C9F9FF"/>
	<a:midPointStop  offset="0.4468" style="stop-color:#C9F9FF"/>
	<a:midPointStop  offset="1" style="stop-color:#C9F9FF;stop-opacity:0"/>
</radialGradient>
<ellipse fill="url(#SVGID_7_)" cx="39.626" cy="30.521" rx="3.396" ry="2.965"/>
<radialGradient id="SVGID_8_" cx="-2428.0313" cy="156.0488" r="3.5269" gradientTransform="matrix(-0.7409 0 0 0.5552 -1762.7432 -54.7913)" gradientUnits="userSpaceOnUse">
	<stop  offset="0.5939" style="stop-color:#C9F9FF"/>
	<stop  offset="1" style="stop-color:#C9F9FF;stop-opacity:0"/>
	<a:midPointStop  offset="0.5939" style="stop-color:#C9F9FF"/>
	<a:midPointStop  offset="0.4468" style="stop-color:#C9F9FF"/>
	<a:midPointStop  offset="1" style="stop-color:#C9F9FF;stop-opacity:0"/>
</radialGradient>
<ellipse fill="url(#SVGID_8_)" cx="36.186" cy="31.847" rx="2.613" ry="1.958"/>
<radialGradient id="SVGID_9_" cx="-2207.6069" cy="58.4922" r="3.3784" gradientTransform="matrix(-0.9 0 0 0.7857 -1943.9187 -13.9213)" gradientUnits="userSpaceOnUse">
	<stop  offset="0.5939" style="stop-color:#C9F9FF"/>
	<stop  offset="1" style="stop-color:#C9F9FF;stop-opacity:0"/>
	<a:midPointStop  offset="0.5939" style="stop-color:#C9F9FF"/>
	<a:midPointStop  offset="0.4468" style="stop-color:#C9F9FF"/>
	<a:midPointStop  offset="1" style="stop-color:#C9F9FF;stop-opacity:0"/>
</radialGradient>
<ellipse fill="url(#SVGID_9_)" cx="42.928" cy="32.037" rx="3.041" ry="2.652"/>
<radialGradient id="SVGID_10_" cx="-2210.6353" cy="123.7637" r="2.447" gradientTransform="matrix(-0.9 0 0 0.6032 -1943.9187 -42.0409)" gradientUnits="userSpaceOnUse">
	<stop  offset="0.5939" style="stop-color:#C9F9FF"/>
	<stop  offset="1" style="stop-color:#C9F9FF;stop-opacity:0"/>
	<a:midPointStop  offset="0.5939" style="stop-color:#C9F9FF"/>
	<a:midPointStop  offset="0.4468" style="stop-color:#C9F9FF"/>
	<a:midPointStop  offset="1" style="stop-color:#C9F9FF;stop-opacity:0"/>
</radialGradient>
<ellipse fill="url(#SVGID_10_)" cx="45.653" cy="32.613" rx="2.202" ry="1.477"/>
<radialGradient id="SVGID_11_" cx="-1706.0718" cy="-330.0068" r="2.447" gradientTransform="matrix(-1.1267 0 0 0.5303 -1883.1812 208.4625)" gradientUnits="userSpaceOnUse">
	<stop  offset="0.5939" style="stop-color:#C9F9FF"/>
	<stop  offset="1" style="stop-color:#C9F9FF;stop-opacity:0"/>
	<a:midPointStop  offset="0.5939" style="stop-color:#C9F9FF"/>
	<a:midPointStop  offset="0.4468" style="stop-color:#C9F9FF"/>
	<a:midPointStop  offset="1" style="stop-color:#C9F9FF;stop-opacity:0"/>
</radialGradient>
<ellipse fill="url(#SVGID_11_)" cx="39.05" cy="33.461" rx="2.757" ry="1.297"/>
<linearGradient id="SVGID_12_" gradientUnits="userSpaceOnUse" x1="31.0005" y1="55.668" x2="31.0005" y2="44.8389">
	<stop  offset="0" style="stop-color:#86C400"/>
	<stop  offset="1" style="stop-color:#88DE00"/>
	<a:midPointStop  offset="0" style="stop-color:#86C400"/>
	<a:midPointStop  offset="0.5" style="stop-color:#86C400"/>
	<a:midPointStop  offset="1" style="stop-color:#88DE00"/>
</linearGradient>
<path fill="url(#SVGID_12_)" d="M51.201,55.668H10.799V45.152c16.809-1.688,29.057,4.178,40.402,0V55.668z"/>
<path fill="#7A6056" d="M8,2v57h46V2H8z M30.1,55.301H12.6V30.964h17.5V55.301z M30.1,30.193H12.6V6.626h17.5V30.193z
	 M49.133,55.301H30.867V30.964h18.266V55.301z M49.133,30.193H30.867V6.626h18.266V30.193z"/>
<path fill="#57443D" d="M51.893,60.338H10.108V4.121h41.785V60.338z M10.492,59.951h41.016V4.506H10.492V59.951z"/>
<path fill="#6B544C" d="M12.907,6.935v22.949L12.6,30.193V6.626L12.907,6.935z"/>
<path fill="#57443D" d="M29.793,6.935H12.907L12.6,6.626h17.5L29.793,6.935z"/>
<path fill="#9C7A6E" d="M29.793,29.884V6.935L30.1,6.626v23.566L29.793,29.884z"/>
<path fill="#B08A7C" d="M12.907,29.884h16.887l0.307,0.309H12.6L12.907,29.884z"/>
<path fill="#6B544C" d="M31.174,6.935v22.949l-0.308,0.309V6.626L31.174,6.935z"/>
<path fill="#57443D" d="M48.826,6.935H31.174l-0.308-0.309h18.266L48.826,6.935z"/>
<path fill="#9C7A6E" d="M48.826,29.884V6.935l0.307-0.309v23.566L48.826,29.884z"/>
<path fill="#B08A7C" d="M31.174,29.884h17.652l0.307,0.309H30.867L31.174,29.884z"/>
<path fill="#6B544C" d="M12.907,31.272v23.72L12.6,55.301V30.964L12.907,31.272z"/>
<path fill="#57443D" d="M29.793,31.272H12.907L12.6,30.964h17.5L29.793,31.272z"/>
<path fill="#9C7A6E" d="M29.793,54.992v-23.72l0.307-0.308v24.337L29.793,54.992z"/>
<path fill="#B08A7C" d="M12.907,54.992h16.887l0.307,0.309H12.6L12.907,54.992z"/>
<path fill="#6B544C" d="M31.174,31.272v23.72l-0.308,0.309V30.964L31.174,31.272z"/>
<path fill="#57443D" d="M48.826,31.272H31.174l-0.308-0.308h18.266L48.826,31.272z"/>
<path fill="#9C7A6E" d="M48.826,54.992v-23.72l0.307-0.308v24.337L48.826,54.992z"/>
<path fill="#B08A7C" d="M31.174,54.992h17.652l0.307,0.309H30.867L31.174,54.992z"/>
<path fill="#57443D" d="M58,60c-30.879,2.516-54,0-54,0l6.108-2h41.785L58,60z"/>
<rect x="4" y="60" fill="#7A6056" width="54" height="2"/>
<linearGradient id="SVGID_13_" gradientUnits="userSpaceOnUse" x1="43.2773" y1="56.0605" x2="51.5918" y2="56.0605">
	<stop  offset="0" style="stop-color:#ABBDC4"/>
	<stop  offset="0.2666" style="stop-color:#A8BAC1"/>
	<stop  offset="0.4932" style="stop-color:#9EAFB7"/>
	<stop  offset="0.7051" style="stop-color:#8E9EA6"/>
	<stop  offset="0.9069" style="stop-color:#77858E"/>
	<stop  offset="1" style="stop-color:#6A7780"/>
	<a:midPointStop  offset="0" style="stop-color:#ABBDC4"/>
	<a:midPointStop  offset="0.7394" style="stop-color:#ABBDC4"/>
	<a:midPointStop  offset="1" style="stop-color:#6A7780"/>
</linearGradient>
<path fill="url(#SVGID_13_)" d="M51.592,52.469c-0.092-0.006-8.225-0.006-8.314,0c0.326,2.734,0.9,6.36,0.906,6.434
	c0.064,1.004,6.443,1.004,6.508,0C50.697,58.82,51.266,55.196,51.592,52.469z"/>
<linearGradient id="SVGID_14_" gradientUnits="userSpaceOnUse" x1="42.832" y1="52.5439" x2="52.043" y2="52.5439">
	<stop  offset="0" style="stop-color:#ABBDC4"/>
	<stop  offset="0.1537" style="stop-color:#9FB0B8"/>
	<stop  offset="0.7126" style="stop-color:#79878F"/>
	<stop  offset="1" style="stop-color:#6A7780"/>
	<a:midPointStop  offset="0" style="stop-color:#ABBDC4"/>
	<a:midPointStop  offset="0.4424" style="stop-color:#ABBDC4"/>
	<a:midPointStop  offset="1" style="stop-color:#6A7780"/>
</linearGradient>
<path fill="url(#SVGID_14_)" d="M42.832,52.465c0-1.033,9.211-1.033,9.211,0C52.043,53.709,42.832,53.709,42.832,52.465z"/>
<linearGradient id="SVGID_15_" gradientUnits="userSpaceOnUse" x1="43.3164" y1="52.3633" x2="51.5605" y2="52.3633">
	<stop  offset="0" style="stop-color:#8A653C"/>
	<stop  offset="0.2032" style="stop-color:#835F38"/>
	<stop  offset="0.5012" style="stop-color:#6F502D"/>
	<stop  offset="0.856" style="stop-color:#4F361B"/>
	<stop  offset="1" style="stop-color:#402A12"/>
	<a:midPointStop  offset="0" style="stop-color:#8A653C"/>
	<a:midPointStop  offset="0.6242" style="stop-color:#8A653C"/>
	<a:midPointStop  offset="1" style="stop-color:#402A12"/>
</linearGradient>
<path fill="url(#SVGID_15_)" d="M43.316,52.363c0-0.805,8.244-0.805,8.244,0S43.316,53.168,43.316,52.363z"/>
<linearGradient id="SVGID_16_" gradientUnits="userSpaceOnUse" x1="43.3164" y1="52.0762" x2="51.5605" y2="52.0762">
	<stop  offset="0" style="stop-color:#525C63"/>
	<stop  offset="0.4702" style="stop-color:#616C72"/>
	<stop  offset="1" style="stop-color:#778387"/>
	<a:midPointStop  offset="0" style="stop-color:#525C63"/>
	<a:midPointStop  offset="0.5576" style="stop-color:#525C63"/>
	<a:midPointStop  offset="1" style="stop-color:#778387"/>
</linearGradient>
<path fill="url(#SVGID_16_)" d="M51.549,52.412c0.008-0.016,0.012-0.031,0.012-0.049c0-0.831-8.244-0.831-8.244,0
	c0,0.018,0.004,0.033,0.01,0.049C43.654,51.674,51.221,51.674,51.549,52.412z"/>
<path fill="#62A100" d="M47.111,52.139c0.027,0.182-1.307,0.158-1.256-0.021c0.287-0.983,0-4.388,0-4.388h0.969
	C46.824,47.73,46.959,51.135,47.111,52.139z"/>
<path fill="#529320" d="M49.02,52.175c0.029,0.181-1.307,0.157-1.254-0.021c0.287-0.983,0-4.424,0-4.424h0.969
	C48.734,47.73,48.867,51.171,49.02,52.175z"/>
<path fill="#62A100" d="M48.393,52.391c0.027,0.181-1.307,0.158-1.254-0.021c0.285-0.983,0-4.64,0-4.64h0.967
	C48.105,47.73,48.24,51.387,48.393,52.391z"/>
<path fill="#529320" d="M47.592,52.513c0.027,0.18-1.307,0.157-1.254-0.021c0.285-0.983,0-4.762,0-4.762h0.967
	C47.305,47.73,47.439,51.509,47.592,52.513z"/>
<path fill="#529320" d="M38.383,50.366c3.291-1.527,3.361-8.298,8.654-1.155C43.559,47.117,41.113,51.793,38.383,50.366z"/>
<path fill="#529320" d="M36.295,44.514c1.412-2.602,3.928-6.258,7.303,2.268C40.805,43.682,38.135,45.621,36.295,44.514z"/>
<path fill="#529320" d="M43.543,32.096c2.691,0.748,6.492,4.799-0.393,10.975C40.73,38.336,45.143,35.785,43.543,32.096z"/>
<path fill="#529320" d="M38.918,35.605c-0.813,2.084-0.559,6.775,5.316,6.174C43.061,37.533,39.955,38.742,38.918,35.605z"/>
<path fill="#62A100" d="M39.758,35.247c3.262-0.57,9.664,2.025,6.172,12.671C40.563,43.818,43.645,38.594,39.758,35.247z"/>
<path fill="#71AD15" d="M39.758,35.247c2.803-0.489,7.934,7.302,6.172,12.671C40.563,43.818,43.645,38.594,39.758,35.247z"/>
<path fill="#7AB51D" d="M34.875,41.724c1.412-2.601,7.777-5.579,11.152,2.945C41.25,46.066,38.518,40.928,34.875,41.724z"/>
<path fill="#80BA1A" d="M34.875,41.724c1.568-2.886,9.785-0.507,11.152,2.945C41.25,46.066,38.518,40.928,34.875,41.724z"/>
<path fill="#92C932" d="M35.748,46.375c4.871-0.107,7.826-9.719,11.6,3.795C43.766,44.998,38.648,50.127,35.748,46.375z"/>
<path fill="#80BA1A" d="M35.748,46.375c6.445-0.143,9.109-5.124,11.6,3.795C43.766,44.998,38.648,50.127,35.748,46.375z"/>
<path fill="#7AB51D" d="M40.41,51.559c2.727-1.268,2.77-6.934,7.182-0.938C44.697,48.857,42.68,52.762,40.41,51.559z"/>
<path fill="#71AD15" d="M40.41,51.559c3.143-1.46,4.451-4.648,7.182-0.938C44.697,48.857,42.68,52.762,40.41,51.559z"/>
<path fill="#529320" d="M55.844,50.567c-3.291-1.526-3.359-8.298-8.654-1.155C50.668,47.32,53.115,51.995,55.844,50.567z"/>
<path fill="#529320" d="M58.557,45.254c-1.412-2.602-3.928-6.258-7.305,2.268C54.047,44.424,56.717,46.362,58.557,45.254z"/>
<path fill="#529320" d="M51.188,33.053c-2.691,0.75-6.492,4.8,0.393,10.975C54,39.294,49.586,36.744,51.188,33.053z"/>
<path fill="#529320" d="M55.816,36.354c0.813,2.084,0.559,6.775-5.316,6.174C51.674,38.281,54.779,39.489,55.816,36.354z"/>
<path fill="#62A100" d="M55.443,34.043c-3.262-0.571-9.664,2.024-6.172,12.671C54.639,42.613,51.559,37.389,55.443,34.043z"/>
<path fill="#71AD15" d="M55.443,34.043c-2.801-0.49-7.932,7.301-6.172,12.671C54.639,42.613,51.559,37.389,55.443,34.043z"/>
<path fill="#7AB51D" d="M60,41.632c-1.412-2.602-7.775-5.579-11.152,2.945C53.625,45.975,56.357,40.836,60,41.632z"/>
<path fill="#80BA1A" d="M60,41.632c-1.566-2.886-9.785-0.507-11.152,2.945C53.625,45.975,56.357,40.836,60,41.632z"/>
<path fill="#92C932" d="M58.787,46.59c-4.869-0.107-7.824-9.719-11.598,3.795C50.771,45.213,55.887,50.342,58.787,46.59z"/>
<path fill="#80BA1A" d="M58.787,46.59c-6.445-0.143-9.107-5.124-11.598,3.795C50.771,45.213,55.887,50.342,58.787,46.59z"/>
<path fill="#7AB51D" d="M53.494,52.947c-2.453-2.154-0.725-8.566-7.203-2.966C49.861,48.759,50.748,53.705,53.494,52.947z"/>
<path fill="#71AD15" d="M53.494,52.947c-2.826-2.482-3.193-6.432-7.203-2.966C49.861,48.759,50.748,53.705,53.494,52.947z"/>
<path fill="#7AB51D" d="M47.438,30.671c-0.738,3.97-4.977,7.784,0,12.146C48.369,37.463,47.438,30.671,47.438,30.671z"/>
<path fill="#62A100" d="M47.438,30.671c0.738,3.97,4.977,7.784,0,12.146C46.506,37.463,47.438,30.671,47.438,30.671z"/>
<path fill="#92C932" d="M51.285,37.186c-3.598,4.433-10.605,6.066-3.77,13.846C45.107,44.496,51.381,43.446,51.285,37.186z"/>
<path fill="#80BA1A" d="M51.285,37.186c-1.615,5.338-7.082,7.656-4.182,13.311c0.201,0.394,0.119,1.355,0.033,2.139
	c-0.01,0.084,0.617,0.055,0.627-0.119c0.021-0.35-0.09-1.248-0.002-1.784C48.434,46.682,51.953,44.088,51.285,37.186z"/>
</svg>
