<?xml version="1.0" encoding="utf-8"?>
<!-- Generator: Adobe Illustrator 15.0.0, SVG Export Plug-In . SVG Version: 6.00 Build 0)  -->
<!DOCTYPE svg PUBLIC "-//W3C//DTD SVG 1.1//EN" "http://www.w3.org/Graphics/SVG/1.1/DTD/svg11.dtd" [
	<!ENTITY ns_flows "http://ns.adobe.com/Flows/1.0/">
	<!ENTITY ns_extend "http://ns.adobe.com/Extensibility/1.0/">
	<!ENTITY ns_ai "http://ns.adobe.com/AdobeIllustrator/10.0/">
	<!ENTITY ns_graphs "http://ns.adobe.com/Graphs/1.0/">
]>
<svg version="1.1" id="Layer_1" xmlns:x="&ns_extend;" xmlns:i="&ns_ai;" xmlns:graph="&ns_graphs;"
	 xmlns="http://www.w3.org/2000/svg" xmlns:xlink="http://www.w3.org/1999/xlink" xmlns:a="http://ns.adobe.com/AdobeSVGViewerExtensions/3.0/"
	 x="0px" y="0px" width="64px" height="64px" viewBox="0 0 64 64" enable-background="new 0 0 64 64" xml:space="preserve">
<polygon fill="#45332C" points="49.928,11.055 13.712,45.258 18.742,50.287 52.946,14.072 "/>
<circle fill="#45332C" cx="16.227" cy="47.772" r="14.228"/>
<path fill="#FFFFFF" d="M3.423,47.773c0,7.07,5.732,12.803,12.804,12.803s12.805-5.732,12.805-12.805
	c0-7.07-5.733-12.803-12.804-12.803C9.155,34.969,3.423,40.701,3.423,47.773z M28.32,47.773
	c-0.001,6.678-5.415,12.092-12.093,12.094c-6.68,0-12.093-5.414-12.093-12.094c0-6.678,5.414-12.094,12.093-12.094
	S28.32,41.094,28.32,47.773z"/>
<path fill="#BDC2CE" d="M16.757,34.98c-0.098-0.193-0.297-0.33-0.53-0.33c-0.232,0-0.432,0.137-0.529,0.33
	c-0.536-0.52-1.471-0.215-1.471,0.488c0.523-0.176,1.399,0.438,0.935,1.693h2.131c-0.465-1.256,0.412-1.869,0.935-1.693
	C18.227,34.766,17.292,34.461,16.757,34.98z"/>
<path fill="#E5EAEE" d="M16.702,36.225c0,0.633-0.951,0.633-0.951,0C15.751,35.59,16.702,35.59,16.702,36.225z"/>
<path fill="#BDC2CE" d="M15.697,60.566c0.098,0.195,0.297,0.33,0.529,0.33c0.233,0,0.433-0.135,0.53-0.33
	c0.535,0.52,1.47,0.217,1.47-0.488c-0.522,0.176-1.399-0.436-0.935-1.691h-2.131c0.466,1.256-0.411,1.867-0.935,1.691
	C14.227,60.783,15.161,61.086,15.697,60.566z"/>
<path fill="#E5EAEE" d="M15.751,59.324c0-0.635,0.951-0.635,0.951,0S15.751,59.959,15.751,59.324z"/>
<path fill="#BDC2CE" d="M29.02,48.303c0.193-0.098,0.33-0.297,0.33-0.529s-0.137-0.432-0.33-0.529
	c0.52-0.537,0.215-1.471-0.488-1.471c0.175,0.523-0.438,1.398-1.693,0.934v2.131c1.256-0.465,1.868,0.412,1.693,0.936
	C29.234,49.773,29.539,48.838,29.02,48.303z"/>
<path fill="#E5EAEE" d="M27.775,48.248c-0.633,0-0.633-0.951,0-0.951C28.41,47.297,28.41,48.248,27.775,48.248z"/>
<path fill="#BDC2CE" d="M3.433,47.244c-0.194,0.098-0.329,0.297-0.329,0.529s0.135,0.432,0.329,0.529
	c-0.52,0.535-0.216,1.471,0.488,1.471c-0.176-0.523,0.437-1.4,1.692-0.936v-2.131c-1.256,0.467-1.868-0.41-1.692-0.934
	C3.217,45.773,2.913,46.707,3.433,47.244z"/>
<path fill="#E5EAEE" d="M4.676,47.297c0.634,0,0.634,0.951,0,0.951C4.041,48.248,4.041,47.297,4.676,47.297z"/>
<path fill="#BDC2CE" d="M25.647,39.102c0.068-0.205,0.024-0.443-0.141-0.607c-0.164-0.164-0.402-0.209-0.608-0.141
	c-0.012-0.746-0.888-1.193-1.385-0.695c0.494,0.246,0.681,1.299-0.536,1.857l1.507,1.508c0.559-1.217,1.612-1.029,1.857-0.537
	C26.84,39.988,26.394,39.113,25.647,39.102z"/>
<path fill="#E5EAEE" d="M24.729,39.943c-0.447,0.447-1.12-0.225-0.672-0.674C24.506,38.822,25.179,39.494,24.729,39.943z"/>
<path fill="#BDC2CE" d="M6.807,56.445c-0.068,0.207-0.023,0.443,0.142,0.607s0.4,0.211,0.607,0.143
	c0.011,0.744,0.887,1.191,1.385,0.693c-0.494-0.246-0.682-1.299,0.535-1.857l-1.507-1.508c-0.559,1.219-1.611,1.031-1.857,0.537
	C5.614,55.559,6.06,56.434,6.807,56.445z"/>
<path fill="#E5EAEE" d="M7.724,55.604c0.448-0.447,1.12,0.225,0.672,0.674S7.274,56.053,7.724,55.604z"/>
<path fill="#BDC2CE" d="M24.897,57.193c0.207,0.068,0.444,0.023,0.609-0.141c0.164-0.164,0.208-0.402,0.14-0.609
	c0.747-0.012,1.193-0.887,0.695-1.385c-0.246,0.494-1.299,0.682-1.857-0.535l-1.507,1.506c1.217,0.561,1.029,1.613,0.536,1.859
	C24.011,58.385,24.887,57.939,24.897,57.193z"/>
<path fill="#E5EAEE" d="M24.058,56.275c-0.448-0.447,0.225-1.119,0.672-0.672C25.179,56.051,24.506,56.725,24.058,56.275z"/>
<path fill="#BDC2CE" d="M7.555,38.352c-0.206-0.068-0.442-0.021-0.606,0.143c-0.165,0.164-0.211,0.4-0.143,0.607
	c-0.746,0.01-1.191,0.887-0.694,1.385c0.245-0.494,1.299-0.682,1.857,0.535l1.507-1.506c-1.217-0.559-1.03-1.613-0.535-1.857
	C8.442,37.16,7.566,37.605,7.555,38.352z"/>
<path fill="#E5EAEE" d="M8.396,39.27c0.448,0.447-0.224,1.121-0.672,0.672C7.274,39.492,7.947,38.82,8.396,39.27z"/>
<path fill="#BDC2CE" d="M11.821,35.752c-0.164-0.143-0.4-0.191-0.616-0.104c-0.215,0.09-0.347,0.291-0.362,0.51
	c-0.694-0.275-1.441,0.363-1.173,1.012c0.417-0.361,1.461-0.131,1.512,1.207l1.969-0.814c-0.91-0.982-0.334-1.885,0.216-1.924
	C13.097,34.99,12.117,35.066,11.821,35.752z"/>
<path fill="#E5EAEE" d="M12.247,36.922c0.242,0.584-0.637,0.947-0.879,0.363C11.125,36.699,12.004,36.334,12.247,36.922z"/>
<path fill="#BDC2CE" d="M20.634,59.795c0.165,0.143,0.4,0.191,0.615,0.102c0.216-0.088,0.348-0.289,0.364-0.506
	c0.692,0.275,1.44-0.363,1.171-1.014c-0.416,0.361-1.46,0.133-1.512-1.207l-1.969,0.816c0.911,0.982,0.336,1.883-0.216,1.922
	C19.357,60.559,20.338,60.48,20.634,59.795z"/>
<path fill="#E5EAEE" d="M20.208,58.627c-0.243-0.586,0.636-0.949,0.879-0.365C21.329,58.85,20.451,59.213,20.208,58.627z"/>
<path fill="#BDC2CE" d="M28.248,43.367c0.143-0.164,0.192-0.4,0.103-0.615c-0.089-0.215-0.291-0.348-0.508-0.363
	c0.274-0.693-0.363-1.441-1.014-1.172c0.362,0.416,0.132,1.461-1.206,1.512l0.815,1.969c0.982-0.91,1.884-0.334,1.922,0.215
	C29.01,44.643,28.933,43.664,28.248,43.367z"/>
<path fill="#E5EAEE" d="M27.079,43.793c-0.585,0.242-0.949-0.637-0.364-0.879C27.301,42.672,27.665,43.551,27.079,43.793z"/>
<path fill="#BDC2CE" d="M4.204,52.18c-0.142,0.164-0.19,0.4-0.102,0.615c0.09,0.215,0.29,0.348,0.507,0.363
	C4.335,53.852,4.973,54.6,5.623,54.33c-0.362-0.416-0.132-1.461,1.206-1.512L6.014,50.85c-0.981,0.912-1.883,0.336-1.921-0.215
	C3.442,50.904,3.52,51.883,4.204,52.18z"/>
<path fill="#E5EAEE" d="M5.373,51.754c0.586-0.242,0.95,0.637,0.364,0.879S4.787,51.996,5.373,51.754z"/>
<path fill="#BDC2CE" d="M21.612,36.156c-0.016-0.217-0.147-0.418-0.363-0.508c-0.214-0.088-0.451-0.039-0.615,0.104
	c-0.297-0.686-1.276-0.762-1.545-0.113c0.55,0.039,1.125,0.939,0.215,1.922l1.969,0.816c0.051-1.338,1.096-1.568,1.512-1.207
	C23.053,36.52,22.306,35.883,21.612,36.156z"/>
<path fill="#E5EAEE" d="M21.086,37.285c-0.242,0.584-1.12,0.221-0.879-0.365C20.45,36.334,21.329,36.699,21.086,37.285z"/>
<path fill="#BDC2CE" d="M10.843,59.391c0.016,0.217,0.147,0.418,0.362,0.506c0.216,0.09,0.451,0.041,0.616-0.1
	c0.296,0.684,1.275,0.76,1.545,0.109c-0.55-0.037-1.126-0.938-0.216-1.92l-1.969-0.816c-0.051,1.34-1.095,1.568-1.512,1.207
	C9.401,59.027,10.148,59.666,10.843,59.391z"/>
<path fill="#E5EAEE" d="M11.367,58.262c0.243-0.586,1.122-0.221,0.879,0.365C12.004,59.213,11.125,58.85,11.367,58.262z"/>
<path fill="#BDC2CE" d="M27.843,53.158c0.217-0.016,0.419-0.148,0.509-0.363c0.089-0.215,0.039-0.451-0.104-0.615
	c0.686-0.297,0.763-1.277,0.112-1.547c-0.039,0.551-0.939,1.127-1.922,0.217l-0.815,1.969c1.339,0.051,1.568,1.096,1.207,1.512
	C27.479,54.598,28.118,53.852,27.843,53.158z"/>
<path fill="#E5EAEE" d="M26.715,52.633c-0.585-0.244-0.22-1.121,0.364-0.879C27.665,51.996,27.302,52.875,26.715,52.633z"/>
<path fill="#BDC2CE" d="M4.61,42.389c-0.218,0.016-0.418,0.148-0.507,0.361c-0.09,0.217-0.041,0.453,0.101,0.617
	c-0.685,0.295-0.762,1.275-0.111,1.545c0.037-0.551,0.939-1.127,1.922-0.217l0.815-1.969c-1.339-0.049-1.569-1.094-1.206-1.51
	C4.974,40.947,4.335,41.693,4.61,42.389z"/>
<path fill="#E5EAEE" d="M5.737,42.914c0.586,0.242,0.223,1.121-0.363,0.879C4.787,43.549,5.151,42.67,5.737,42.914z"/>
<radialGradient id="SVGID_1_" cx="16.2271" cy="47.7734" r="10.6702" gradientUnits="userSpaceOnUse">
	<stop  offset="0" style="stop-color:#E6EBF0"/>
	<stop  offset="0.6347" style="stop-color:#E6EAEE"/>
	<stop  offset="0.8631" style="stop-color:#E7E7E7"/>
	<stop  offset="1" style="stop-color:#E8E3DE"/>
	<a:midPointStop  offset="0" style="stop-color:#E6EBF0"/>
	<a:midPointStop  offset="0.87" style="stop-color:#E6EBF0"/>
	<a:midPointStop  offset="1" style="stop-color:#E8E3DE"/>
</radialGradient>
<circle fill="url(#SVGID_1_)" cx="16.227" cy="47.773" r="10.67"/>
<path fill="#BDC2CE" d="M26.363,47.773c0,5.588-4.547,10.137-10.136,10.137c-5.59,0-10.138-4.549-10.137-10.137
	c-0.001-5.59,4.547-10.137,10.137-10.137C21.815,37.637,26.363,42.184,26.363,47.773z M6.446,47.773
	c-0.001,5.393,4.387,9.779,9.781,9.781c5.392-0.002,9.78-4.389,9.781-9.781c-0.001-5.395-4.389-9.781-9.781-9.781
	C10.833,37.992,6.445,42.379,6.446,47.773z"/>
<rect x="54.771" y="12.584" transform="matrix(-0.7069 -0.7073 0.7073 -0.7069 86.1559 61.5822)" fill="#BDC2CE" width="2.134" height="0.711"/>
<rect x="55.526" y="13.339" transform="matrix(-0.7073 0.7069 -0.7069 -0.7073 106.3031 -16.6233)" fill="#BDC2CE" width="2.133" height="0.711"/>
<rect x="56.783" y="10.572" transform="matrix(-0.7069 -0.7073 0.7073 -0.7069 91.0143 59.5721)" fill="#BDC2CE" width="2.134" height="0.711"/>
<rect x="57.537" y="11.327" transform="matrix(-0.7069 0.7073 -0.7073 -0.7069 108.2943 -21.5122)" fill="#BDC2CE" width="2.134" height="0.712"/>
<rect x="58.795" y="8.561" transform="matrix(-0.7069 -0.7073 0.7073 -0.7069 95.871 57.5613)" fill="#BDC2CE" width="2.134" height="0.711"/>
<rect x="59.549" y="9.315" transform="matrix(-0.7071 0.7071 -0.7071 -0.7071 110.3175 -26.3532)" fill="#BDC2CE" width="2.135" height="0.712"/>
<rect x="54.017" y="3.781" transform="matrix(0.7073 0.7069 -0.7069 0.7073 19.0453 -37.727)" fill="#BDC2CE" width="2.133" height="0.712"/>
<rect x="53.263" y="3.029" transform="matrix(0.7073 -0.7069 0.7069 0.7073 13.5083 39.3944)" fill="#BDC2CE" width="2.133" height="0.711"/>
<rect x="52.004" y="5.793" transform="matrix(0.7069 0.7073 -0.7073 0.7069 19.9061 -35.7367)" fill="#BDC2CE" width="2.134" height="0.712"/>
<rect x="51.251" y="5.04" transform="matrix(0.7073 -0.7069 0.7069 0.7073 11.4975 38.5611)" fill="#BDC2CE" width="2.133" height="0.711"/>
<rect x="49.992" y="7.807" transform="matrix(0.7069 0.7073 -0.7073 0.7069 20.74 -33.7238)" fill="#BDC2CE" width="2.134" height="0.711"/>
<rect x="50.629" y="5.191" transform="matrix(0.7071 -0.7071 0.7071 0.7071 10.709 41.9262)" fill="#BDC2CE" width="10.67" height="5.69"/>
<linearGradient id="SVGID_2_" gradientUnits="userSpaceOnUse" x1="307.9092" y1="213.2285" x2="344.9004" y2="213.2285" gradientTransform="matrix(0.7071 -0.7071 0.7071 0.7071 -343.2174 105.668)">
	<stop  offset="0" style="stop-color:#1A1626"/>
	<stop  offset="0.0896" style="stop-color:#1A1626;stop-opacity:0.9104"/>
	<stop  offset="1" style="stop-color:#1A1626;stop-opacity:0"/>
	<a:midPointStop  offset="0" style="stop-color:#1A1626"/>
	<a:midPointStop  offset="0.25" style="stop-color:#1A1626"/>
	<a:midPointStop  offset="1" style="stop-color:#1A1626;stop-opacity:0"/>
</linearGradient>
<polygon opacity="0.5" fill="url(#SVGID_2_)" points="23.024,36.463 27.537,40.975 52.946,14.072 49.928,11.055 "/>
<rect x="53.093" y="7.705" transform="matrix(0.7064 -0.7078 0.7078 0.7064 8.2238 40.9284)" fill="#6E8088" width="0.712" height="5.691"/>
<rect x="57.117" y="3.681" transform="matrix(0.7064 -0.7078 0.7078 0.7064 12.2536 42.5951)" fill="#6E8088" width="0.712" height="5.691"/>
<rect x="55.105" y="5.692" transform="matrix(0.7064 -0.7078 0.7078 0.7064 10.239 41.7614)" fill="#6E8088" width="0.712" height="5.692"/>
<path fill="#A6AAB5" d="M8.682,40.229c-4.167,4.166-4.167,10.922,0,15.089c0.34,0.339,0.701,0.642,1.072,0.925
	c0.482-0.559,0.465-1.4-0.065-1.931c-3.606-3.604-3.606-9.472,0-13.077c0.53-0.531,0.548-1.373,0.065-1.932
	C9.383,39.588,9.021,39.889,8.682,40.229z"/>
<path fill="#45332C" d="M56.97,2l-7.042,7.041v2.014l3.019,3.018h2.012L62,7.029V5.018L58.982,2H56.97z M59.485,7.533l-5.03,5.029
	c-0.278,0.277-0.729,0.277-1.006,0c-0.278-0.277-0.278-0.729,0-1.006l5.029-5.029c0.278-0.279,0.729-0.279,1.007,0
	C59.763,6.805,59.763,7.256,59.485,7.533z M57.473,5.521l-5.029,5.029c-0.278,0.277-0.729,0.277-1.006,0
	c-0.278-0.277-0.278-0.729,0-1.006l5.029-5.029c0.278-0.279,0.729-0.279,1.006,0C57.751,4.793,57.751,5.242,57.473,5.521z"/>
<linearGradient id="SVGID_3_" gradientUnits="userSpaceOnUse" x1="344.8994" y1="213.2285" x2="357.7051" y2="213.2285" gradientTransform="matrix(0.7071 -0.7071 0.7071 0.7071 -343.2174 105.668)">
	<stop  offset="0" style="stop-color:#1A1626"/>
	<stop  offset="0.1413" style="stop-color:#1A1626;stop-opacity:0.8587"/>
	<stop  offset="1" style="stop-color:#1A1626;stop-opacity:0"/>
	<a:midPointStop  offset="0" style="stop-color:#1A1626"/>
	<a:midPointStop  offset="0.13" style="stop-color:#1A1626"/>
	<a:midPointStop  offset="1" style="stop-color:#1A1626;stop-opacity:0"/>
</linearGradient>
<path opacity="0.5" fill="url(#SVGID_3_)" d="M56.97,2l-7.042,7.041v2.014l3.019,3.018h2.012L62,7.029V5.018L58.982,2H56.97z
	 M59.485,7.533l-5.03,5.029c-0.278,0.277-0.729,0.277-1.006,0c-0.278-0.277-0.278-0.729,0-1.006l5.029-5.029
	c0.278-0.279,0.729-0.279,1.007,0C59.763,6.805,59.763,7.256,59.485,7.533z M57.473,5.521l-5.029,5.029
	c-0.278,0.277-0.729,0.277-1.006,0c-0.278-0.277-0.278-0.729,0-1.006l5.029-5.029c0.278-0.279,0.729-0.279,1.006,0
	C57.751,4.793,57.751,5.242,57.473,5.521z"/>
<rect x="49.238" y="7.052" transform="matrix(0.7076 -0.7066 0.7066 0.7076 9.4767 37.7142)" fill="#BDC2CE" width="2.134" height="0.711"/>
<path fill="#BDC2CE" d="M23.646,55.443l-1-1c-0.167-0.166,0.085-0.418,0.251-0.252l1,1C24.064,55.357,23.813,55.609,23.646,55.443z"
	/>
<path fill="#BDC2CE" d="M25.823,52.443l-1.282-0.598c-0.214-0.1-0.063-0.422,0.149-0.322l1.282,0.598
	C26.188,52.221,26.035,52.542,25.823,52.443z"/>
<path fill="#BDC2CE" d="M26.841,48.881l-1.408-0.125c-0.235-0.02-0.203-0.373,0.03-0.354l1.408,0.123
	C27.107,48.547,27.072,48.9,26.841,48.881z"/>
<path fill="#BDC2CE" d="M26.58,45.184l-1.366,0.365c-0.227,0.061-0.319-0.281-0.093-0.344l1.366-0.365
	C26.712,44.779,26.809,45.119,26.58,45.184z"/>
<path fill="#BDC2CE" d="M25.094,41.777c-0.018,0.018-1.162,0.818-1.183,0.832c-0.197,0.139-0.396-0.168-0.204-0.291l1.158-0.811
	C25.041,41.383,25.246,41.625,25.094,41.777z"/>
<path fill="#BDC2CE" d="M21.661,40.316c-0.152,0.152-0.395-0.053-0.271-0.229l0.811-1.158c0.13-0.191,0.429,0.01,0.292,0.205
	C22.479,39.154,21.679,40.299,21.661,40.316z"/>
<path fill="#BDC2CE" d="M18.451,38.785l0.365-1.365c0.06-0.227,0.404-0.135,0.344,0.092l-0.365,1.367
	C18.731,39.107,18.391,39.01,18.451,38.785z"/>
<path fill="#BDC2CE" d="M15.243,38.566l-0.123-1.408c-0.02-0.232,0.333-0.266,0.354-0.029l0.123,1.408
	C15.617,38.768,15.265,38.803,15.243,38.566z"/>
<path fill="#BDC2CE" d="M12.153,39.459l-0.598-1.281c-0.097-0.211,0.223-0.365,0.323-0.15l0.598,1.281
	C12.575,39.521,12.254,39.674,12.153,39.459z"/>
<path fill="#BDC2CE" d="M13.294,58.033l0.365-1.366c0.061-0.225,0.404-0.136,0.344,0.093l-0.365,1.365
	C13.574,58.354,13.233,58.258,13.294,58.033z"/>
<path fill="#BDC2CE" d="M16.979,58.417l-0.123-1.408c-0.019-0.234,0.333-0.265,0.354-0.03l0.123,1.408
	C17.354,58.617,17.001,58.653,16.979,58.417z"/>
<path fill="#BDC2CE" d="M20.575,57.518l-0.598-1.281c-0.098-0.213,0.224-0.363,0.323-0.15l0.597,1.282
	C20.996,57.58,20.675,57.732,20.575,57.518z"/>
<circle fill="#FFFFFF" cx="28.299" cy="35.701" r="0.356"/>
<circle fill="#FFFFFF" cx="34.335" cy="29.665" r="0.355"/>
<circle fill="#FFFFFF" cx="40.371" cy="23.629" r="0.356"/>
<circle fill="#FFFFFF" cx="46.407" cy="17.593" r="0.355"/>
<polygon fill="#FFFFFF" points="28.759,39.682 29.247,39.164 24.836,34.752 24.318,35.24 "/>
<polygon fill="#FFFFFF" points="27.939,31.82 27.422,32.309 31.69,36.578 32.18,36.061 "/>
<polygon fill="#FFFFFF" points="31.044,28.889 30.526,29.377 34.622,33.473 35.111,32.955 "/>
<polygon fill="#FFFFFF" points="34.148,25.957 33.631,26.445 37.555,30.369 38.043,29.852 "/>
<polygon fill="#FFFFFF" points="46.565,14.23 46.048,14.719 49.281,17.951 49.77,17.436 "/>
<polygon fill="#FFFFFF" points="37.252,23.025 36.735,23.514 40.486,27.266 40.975,26.748 "/>
<polygon fill="#FFFFFF" points="43.461,17.162 42.943,17.65 46.35,21.057 46.838,20.539 "/>
<polygon fill="#FFFFFF" points="49.669,11.299 49.152,11.787 52.213,14.848 52.702,14.33 "/>
<polygon fill="#FFFFFF" points="40.356,20.094 39.839,20.582 43.418,24.16 43.906,23.643 "/>
<path fill="#BDC2CE" d="M8.179,52.803l-1.006,1.006c-0.277,0.277-0.277,0.729,0,1.006l2.012,2.012c0.278,0.278,0.729,0.278,1.007,0
	l1.006-1.006c0.277-0.277,0.277-0.729,0-1.006l-2.013-2.012C8.907,52.525,8.457,52.525,8.179,52.803z"/>
<path fill="#98A7AD" d="M8.179,52.803l-1.006,1.006c-0.277,0.277-0.277,0.729,0,1.006l2.012,2.012c0.278,0.278,0.729,0.278,1.007,0
	l1.006-1.006c0.277-0.277,0.277-0.729,0-1.006l-2.013-2.012C8.907,52.525,8.457,52.525,8.179,52.803z"/>
<rect x="13.445" y="46.731" transform="matrix(0.7071 -0.7071 0.7071 0.7071 -31.5421 24.4249)" fill="#45332C" width="0.534" height="7.113"/>
<polygon fill="#BDC2CE" points="49.989,12.125 11.771,48.33 9.263,52.846 9.107,52.76 11.639,48.211 49.867,11.996 "/>
<polygon fill="#BDC2CE" points="50.493,12.627 12.769,49.346 9.759,53.359 9.617,53.252 12.635,49.229 50.369,12.5 "/>
<rect x="1.753" y="33.349" transform="matrix(0.7071 -0.7071 0.7071 0.7071 -14.6923 31.404)" fill="#BDC2CE" width="57.619" height="0.177"/>
<polygon fill="#BDC2CE" points="14.781,51.355 10.747,54.383 10.641,54.24 14.664,51.223 51.373,13.506 51.501,13.631 "/>
<polygon fill="#BDC2CE" points="15.779,52.37 15.768,52.377 11.24,54.893 11.153,54.736 15.669,52.229 51.875,14.01 52.005,14.133 
	"/>
</svg>
