<?xml version="1.0" encoding="utf-8"?>
<!-- Generator: Adobe Illustrator 15.0.0, SVG Export Plug-In . SVG Version: 6.00 Build 0)  -->
<!DOCTYPE svg PUBLIC "-//W3C//DTD SVG 1.1//EN" "http://www.w3.org/Graphics/SVG/1.1/DTD/svg11.dtd" [
	<!ENTITY ns_flows "http://ns.adobe.com/Flows/1.0/">
	<!ENTITY ns_extend "http://ns.adobe.com/Extensibility/1.0/">
	<!ENTITY ns_ai "http://ns.adobe.com/AdobeIllustrator/10.0/">
	<!ENTITY ns_graphs "http://ns.adobe.com/Graphs/1.0/">
]>
<svg version="1.1" id="Layer_1" xmlns:x="&ns_extend;" xmlns:i="&ns_ai;" xmlns:graph="&ns_graphs;"
	 xmlns="http://www.w3.org/2000/svg" xmlns:xlink="http://www.w3.org/1999/xlink" xmlns:a="http://ns.adobe.com/AdobeSVGViewerExtensions/3.0/"
	 x="0px" y="0px" width="64px" height="64px" viewBox="0 0 64 64" enable-background="new 0 0 64 64" xml:space="preserve">
<linearGradient id="SVGID_1_" gradientUnits="userSpaceOnUse" x1="27.9995" y1="32" x2="36" y2="32">
	<stop  offset="0" style="stop-color:#BA8F7B"/>
	<stop  offset="1" style="stop-color:#785C4F"/>
	<a:midPointStop  offset="0" style="stop-color:#BA8F7B"/>
	<a:midPointStop  offset="0.5" style="stop-color:#BA8F7B"/>
	<a:midPointStop  offset="1" style="stop-color:#785C4F"/>
</linearGradient>
<path fill="url(#SVGID_1_)" d="M28,2v60h8V2H28z"/>
<linearGradient id="SVGID_2_" gradientUnits="userSpaceOnUse" x1="7.7944" y1="0.7939" x2="56.2071" y2="49.2066">
	<stop  offset="0" style="stop-color:#FFD699"/>
	<stop  offset="0.2506" style="stop-color:#FBCF8E"/>
	<stop  offset="0.6908" style="stop-color:#F1BC71"/>
	<stop  offset="1" style="stop-color:#E8AD58"/>
	<a:midPointStop  offset="0" style="stop-color:#FFD699"/>
	<a:midPointStop  offset="0.5818" style="stop-color:#FFD699"/>
	<a:midPointStop  offset="1" style="stop-color:#E8AD58"/>
</linearGradient>
<path fill="url(#SVGID_2_)" d="M62,43c0,0.55-0.449,1-1,1H3c-0.55,0-1-0.45-1-1V7c0-0.55,0.45-1,1-1h58c0.551,0,1,0.45,1,1V43z"/>
<path opacity="0.5" fill="#69410B" d="M25.81,15.884c2.819-0.135,6.209-0.324,8.263-1.473c0.492,1.177,3.299,1.394,4.814,1.195
	c0.652-0.071,1.186-0.254,1.602-0.55c1.514,0.031,3.051,0.034,4.514-0.164c1.475-0.199,8.672,1.146,8.998-0.381
	c-1.113-0.176-8.527,1.064-6.43-0.742c-2.42,0.848-5.057,0.696-7.605,0.95c-1.496,1.613-5.912,0.183-4.898-1.647
	c-0.873,0.665-4.807,1.905-6.381,2.125c-2.669,0.375-5.5,0.362-8.27,0.04c2.438-1.033,4.142-2.409,5.973-3.787
	c1.993-1.492,2.946-2.731-1.209-2.518c-2.753,0.143-14.393,1.476-13.764,3.901c1.142-0.131,2.505-1.332,3.941-1.723
	c3.435-0.939,8.117-2.063,12.09-1.73c-0.098,1.765-4.865,4.305-6.931,5.255c-2.56,1.18-7.841-1.799-10.038-0.477
	c-0.812,0.489-0.52,1.792,0.363,2.272c1.327,0.72,3.508,0.393,4.906,0.137c1.109-0.199,2.209-0.46,3.221-0.789
	C20.529,15.275,23.854,15.98,25.81,15.884z M11.854,16.319c0.293,0.061,1.506,0.329,0-0.001c-0.082-0.018-0.067-0.016-0.005,0
	c-2.095-0.468-1.237-2.172,0.989-1.847c1.905,0.275,3.777,0.664,5.682,0.949C16.789,15.968,13.957,16.776,11.854,16.319z"/>
<path opacity="0.5" fill="#69410B" d="M28.654,23.099c-0.025,0.88,1.518,1.448,4.131,0.99c4.217-0.791,6.19-2.321,7.528-4.193
	c6.139,1.364,11.875,1.422,16.883,0.534c0,0,0.359,0.552-0.406,0.77c-3.83,1.086-10.348,0.659-15.756-0.463
	c-1.6,1.749-4.418,3.129-7.916,3.766c-3.071,0.557-5.153-0.144-5.508-1.032c-0.338-0.709,0.096-1.335,0.707-1.939
	c-3.618,0.776-7.303,1.213-11.267,0.622c-0.081,0.526-0.487,1.029-1.028,1.428c-1.08,0.822-1.123,0.659-2.032,1.636
	c-1.411-0.574-2.348-1.02-2.75-2.409c-0.672,0.274-2.621,1.016-3.516,0.973c-0.787-0.038-1.003-0.47-1.003-0.47
	c2.437-0.353,4.023-1.153,5.666-1.948l0.004,0.798c0.008,0.709,0.37,1.529,1.214,2.048c1.594-1.13,2.49-1.156,2.675-2.611
	c5.014,0.772,8.417,0.116,13.405-1.121C30.285,21.418,28.681,22.004,28.654,23.099z"/>
<path opacity="0.5" fill="#69410B" d="M57.053,35.732c-3.746,2.188-9.066,2.986-13.283,1.4c2.67-0.92,1.41-2.443-0.643-2.433
	c-1.813,0.04-2.764,1.188-0.828,2.318c-4.686,1.025-11.112,1.882-18.587,2.255c0.805-0.781,1.28-1.768,0.571-2.654
	c-0.962-1.223-3.636-1.379-5.223-0.536c-2.631,1.347-3.508,4.564-6.324,4.292c-1.711-0.168-2.487-1.697-4.781-1.921
	c-1.104-0.108-1.521,0.526-1.033,0.893c0,0,0.575-0.318,1.423-0.235c1.049,0.1,2.67,1.617,4.242,1.77
	c5.159,0.505,5.473-5.824,9.848-4.643c2.633,0.67,0.068,2.893,0.033,3.756c10.448-0.63,17.991-1.953,20.53-2.621
	c3.826,1.646,10.533,1.473,13.943-0.854C57.631,36.049,57.053,35.732,57.053,35.732z M43.063,36.828
	c-1.695-0.848-1.193-1.705,0.18-1.692C44.674,35.136,45.318,36.156,43.063,36.828z"/>
<path opacity="0.5" fill="#69410B" d="M55.121,28.901c-5.797-0.621-9.26,3.234-14.002,1.795c-2.652-0.815-4.746-3.404-7.914-3.287
	c-3.09,0.21-3.852,3.552-6.421,3.496c-1.458,0.002-2.137-1.265-3.46-1.714c-2.086-0.711-4.08,1.457-5.012,2.787
	c-1.89-2.494-5.776-3.605-11.593,0.251c0,0,0.354,0.273,0.877,0.328c1.512,0.163,6.625-5.295,10.729,0.48
	c0.754-1.078,2.975-3.936,4.667-3.333c1.289,0.438,1.771,1.774,3.837,1.813c3.256,0.036,4.163-3.328,6.544-3.486
	c2.467-0.188,4.785,2.228,7.508,3.069c5.719,1.604,12.158-4.389,16.027-0.532c0,0,0.33-0.14,0.369-0.448
	C57.334,29.69,56.248,29.021,55.121,28.901z"/>
</svg>
