<?xml version="1.0" encoding="utf-8"?>
<!-- Generator: Adobe Illustrator 15.0.0, SVG Export Plug-In . SVG Version: 6.00 Build 0)  -->
<!DOCTYPE svg PUBLIC "-//W3C//DTD SVG 1.1//EN" "http://www.w3.org/Graphics/SVG/1.1/DTD/svg11.dtd" [
	<!ENTITY ns_flows "http://ns.adobe.com/Flows/1.0/">
	<!ENTITY ns_extend "http://ns.adobe.com/Extensibility/1.0/">
	<!ENTITY ns_ai "http://ns.adobe.com/AdobeIllustrator/10.0/">
	<!ENTITY ns_graphs "http://ns.adobe.com/Graphs/1.0/">
]>
<svg version="1.1" id="Layer_1" xmlns:x="&ns_extend;" xmlns:i="&ns_ai;" xmlns:graph="&ns_graphs;"
	 xmlns="http://www.w3.org/2000/svg" xmlns:xlink="http://www.w3.org/1999/xlink" xmlns:a="http://ns.adobe.com/AdobeSVGViewerExtensions/3.0/"
	 x="0px" y="0px" width="64px" height="64px" viewBox="0 0 64 64" enable-background="new 0 0 64 64" xml:space="preserve">
<polygon fill="#D99F5C" points="0,35.916 27.01,50.449 64,19.335 41.713,10.806 "/>
<polygon fill="#B87E4F" points="0,41.784 27.01,57 27.01,50.449 0,35.916 "/>
<polygon fill="#945F38" points="64,23.702 64,19.335 27.01,50.449 27.01,57 "/>
<path opacity="0.15" fill="#805543" d="M36.488,16.795c2.584-1.801,5.225-3.453,7.869-4.979l-2.645-1.011l-13.786,8.3
	c0.261,0.048,0.461,0.148,0.58,0.316c1.437,2.021-9.059,11.564-20.708,19.459c-0.351,0.238-0.682,0.451-1.025,0.68l2.959,1.592
	l10.818-6.949C19.888,31.154,26.007,24.117,36.488,16.795z"/>
<path opacity="0.15" fill="#805543" d="M54.998,15.89l-1.344-0.515c-1.199,1.104-2.461,2.248-3.797,3.436
	C35.924,31.182,20.914,42.289,19.603,40.715c-1.31-1.572,12.025-14.69,26.411-26.521c0.5-0.41,0.973-0.789,1.461-1.184l-2.629-1.006
	L30.88,23.133c0.253,2.613-6.391,10.445-17.396,20.039l5.669,3.051c3.263-2.998,6.566-5.984,9.855-8.902
	C40.555,27.072,49.723,19.589,54.998,15.89z"/>
<path opacity="0.15" fill="#805543" d="M45.021,35.3c-4.59,3.354-8.055,5.341-8.645,4.632c-1.064-1.275,7.975-10.379,17.867-18.438
	c1.822-1.486,3.512-2.796,5.066-3.953l-2.178-0.835L43.621,27.311c0.381,2.193-4.965,8.617-13.877,16.034
	c-2.151,1.787-4.34,3.467-6.525,5.064l3.792,2.04L45.021,35.3z"/>
<linearGradient id="SVGID_1_" gradientUnits="userSpaceOnUse" x1="27.8608" y1="25.2275" x2="52.8853" y2="9.5999">
	<stop  offset="0" style="stop-color:#667680"/>
	<stop  offset="0.7878" style="stop-color:#A4ADB3"/>
	<stop  offset="1" style="stop-color:#B5BDC2"/>
	<a:midPointStop  offset="0" style="stop-color:#667680"/>
	<a:midPointStop  offset="0.5152" style="stop-color:#667680"/>
	<a:midPointStop  offset="1" style="stop-color:#B5BDC2"/>
</linearGradient>
<path fill="url(#SVGID_1_)" d="M51.248,9.812c-0.209,0.364-0.553,0.726-1.076,1.007c-0.262,0.14,0.229,1.108,0.492,0.969
	c0.434-0.233,0.781-0.512,1.055-0.813L51.248,9.812z"/>
<linearGradient id="SVGID_2_" gradientUnits="userSpaceOnUse" x1="20.1631" y1="25.0088" x2="35.5305" y2="14.9131">
	<stop  offset="0" style="stop-color:#667680"/>
	<stop  offset="0.7878" style="stop-color:#A4ADB3"/>
	<stop  offset="1" style="stop-color:#B5BDC2"/>
	<a:midPointStop  offset="0" style="stop-color:#667680"/>
	<a:midPointStop  offset="0.5152" style="stop-color:#667680"/>
	<a:midPointStop  offset="1" style="stop-color:#B5BDC2"/>
</linearGradient>
<path fill="url(#SVGID_2_)" d="M23.906,25.188c0.175-2.127,0.585-4.268,0.913-5.245c0.911,0.95,2.28,1.38,4.017,1.251
	c3.381-0.254,7.249-2.541,8.042-4.237c0.23-0.491-0.73-0.962-0.961-0.472c-0.574,1.232-4.086,3.39-7.158,3.619
	c-1.655,0.123-2.836-0.32-3.496-1.324c-0.188-0.283-0.521-0.376-0.809-0.223c-0.667,0.352-1.308,3.131-1.558,5.996
	C23.237,24.756,23.574,24.968,23.906,25.188z"/>
<linearGradient id="SVGID_3_" gradientUnits="userSpaceOnUse" x1="46.834" y1="10.2773" x2="52.2941" y2="13.0074">
	<stop  offset="0" style="stop-color:#667680"/>
	<stop  offset="0.7878" style="stop-color:#A4ADB3"/>
	<stop  offset="1" style="stop-color:#B5BDC2"/>
	<a:midPointStop  offset="0" style="stop-color:#667680"/>
	<a:midPointStop  offset="0.5152" style="stop-color:#667680"/>
	<a:midPointStop  offset="1" style="stop-color:#B5BDC2"/>
</linearGradient>
<path fill="url(#SVGID_3_)" d="M51.186,9.162c-0.457-0.259-0.973-0.232-1.451,0.076c-1.09,0.695-1.832,2.727-1.729,4.721
	c0.027,0.527,1.09,0.471,1.063-0.059c-0.088-1.707,0.564-3.311,1.229-3.738c0.213-0.135,0.32-0.074,0.373-0.045
	c0.184,0.104,1.104,0.863,1.104,5.496c0,0.53,1.064,0.53,1.064,0C52.838,11.956,52.283,9.786,51.186,9.162z"/>
<linearGradient id="SVGID_4_" gradientUnits="userSpaceOnUse" x1="24.5605" y1="22.3037" x2="28.9751" y2="22.3037">
	<stop  offset="0" style="stop-color:#B5BDC2"/>
	<stop  offset="0.2122" style="stop-color:#A4ADB3"/>
	<stop  offset="1" style="stop-color:#667680"/>
	<a:midPointStop  offset="0" style="stop-color:#B5BDC2"/>
	<a:midPointStop  offset="0.4848" style="stop-color:#B5BDC2"/>
	<a:midPointStop  offset="1" style="stop-color:#667680"/>
</linearGradient>
<path fill="url(#SVGID_4_)" d="M26.768,26.35c-1.258,0-2.207-1.739-2.207-4.045c0-2.307,0.949-4.047,2.207-4.047
	s2.208,1.74,2.208,4.047C28.975,24.61,28.026,26.35,26.768,26.35z M26.768,19.307c-0.483,0-1.185,1.168-1.185,2.998
	c0,1.829,0.702,2.998,1.185,2.998s1.186-1.169,1.186-2.998C27.953,20.475,27.251,19.307,26.768,19.307z"/>
<linearGradient id="SVGID_5_" gradientUnits="userSpaceOnUse" x1="25.8677" y1="22.8809" x2="30.2827" y2="22.8809">
	<stop  offset="0" style="stop-color:#B5BDC2"/>
	<stop  offset="0.2122" style="stop-color:#A4ADB3"/>
	<stop  offset="1" style="stop-color:#667680"/>
	<a:midPointStop  offset="0" style="stop-color:#B5BDC2"/>
	<a:midPointStop  offset="0.4848" style="stop-color:#B5BDC2"/>
	<a:midPointStop  offset="1" style="stop-color:#667680"/>
</linearGradient>
<path fill="url(#SVGID_5_)" d="M28.076,26.927c-1.258,0-2.208-1.739-2.208-4.046s0.95-4.046,2.208-4.046s2.207,1.739,2.207,4.046
	S29.334,26.927,28.076,26.927z M28.076,19.883c-0.483,0-1.187,1.168-1.187,2.998s0.703,2.998,1.187,2.998s1.185-1.168,1.185-2.998
	S28.56,19.883,28.076,19.883z"/>
<linearGradient id="SVGID_6_" gradientUnits="userSpaceOnUse" x1="27.1763" y1="23.458" x2="31.5913" y2="23.458">
	<stop  offset="0" style="stop-color:#B5BDC2"/>
	<stop  offset="0.2122" style="stop-color:#A4ADB3"/>
	<stop  offset="1" style="stop-color:#667680"/>
	<a:midPointStop  offset="0" style="stop-color:#B5BDC2"/>
	<a:midPointStop  offset="0.4848" style="stop-color:#B5BDC2"/>
	<a:midPointStop  offset="1" style="stop-color:#667680"/>
</linearGradient>
<path fill="url(#SVGID_6_)" d="M29.383,27.504c-1.258,0-2.207-1.74-2.207-4.047s0.949-4.045,2.207-4.045
	c1.259,0,2.208,1.738,2.208,4.045S30.642,27.504,29.383,27.504z M29.383,20.459c-0.483,0-1.186,1.168-1.186,2.998
	s0.702,2.998,1.186,2.998s1.187-1.168,1.187-2.998S29.867,20.459,29.383,20.459z"/>
<linearGradient id="SVGID_7_" gradientUnits="userSpaceOnUse" x1="28.4844" y1="24.0342" x2="32.8989" y2="24.0342">
	<stop  offset="0" style="stop-color:#B5BDC2"/>
	<stop  offset="0.2122" style="stop-color:#A4ADB3"/>
	<stop  offset="1" style="stop-color:#667680"/>
	<a:midPointStop  offset="0" style="stop-color:#B5BDC2"/>
	<a:midPointStop  offset="0.4848" style="stop-color:#B5BDC2"/>
	<a:midPointStop  offset="1" style="stop-color:#667680"/>
</linearGradient>
<path fill="url(#SVGID_7_)" d="M30.692,28.08c-1.259,0-2.208-1.74-2.208-4.047c0-2.306,0.949-4.045,2.208-4.045
	s2.207,1.739,2.207,4.045C32.899,26.34,31.951,28.08,30.692,28.08z M30.692,21.036c-0.483,0-1.186,1.167-1.186,2.997
	s0.702,2.998,1.186,2.998s1.185-1.168,1.185-2.998S31.175,21.036,30.692,21.036z"/>
<linearGradient id="SVGID_8_" gradientUnits="userSpaceOnUse" x1="29.7925" y1="24.6104" x2="34.207" y2="24.6104">
	<stop  offset="0" style="stop-color:#B5BDC2"/>
	<stop  offset="0.2122" style="stop-color:#A4ADB3"/>
	<stop  offset="1" style="stop-color:#667680"/>
	<a:midPointStop  offset="0" style="stop-color:#B5BDC2"/>
	<a:midPointStop  offset="0.4848" style="stop-color:#B5BDC2"/>
	<a:midPointStop  offset="1" style="stop-color:#667680"/>
</linearGradient>
<path fill="url(#SVGID_8_)" d="M32,28.656c-1.258,0-2.207-1.739-2.207-4.045c0-2.307,0.949-4.047,2.207-4.047
	c1.258,0,2.208,1.74,2.208,4.047C34.207,26.917,33.258,28.656,32,28.656z M32,21.613c-0.482,0-1.186,1.168-1.186,2.998
	c0,1.829,0.703,2.997,1.186,2.997c0.484,0,1.186-1.168,1.186-2.997C33.186,22.781,32.484,21.613,32,21.613z"/>
<linearGradient id="SVGID_9_" gradientUnits="userSpaceOnUse" x1="31.1011" y1="25.187" x2="35.5156" y2="25.187">
	<stop  offset="0" style="stop-color:#B5BDC2"/>
	<stop  offset="0.2122" style="stop-color:#A4ADB3"/>
	<stop  offset="1" style="stop-color:#667680"/>
	<a:midPointStop  offset="0" style="stop-color:#B5BDC2"/>
	<a:midPointStop  offset="0.4848" style="stop-color:#B5BDC2"/>
	<a:midPointStop  offset="1" style="stop-color:#667680"/>
</linearGradient>
<path fill="url(#SVGID_9_)" d="M33.309,29.232c-1.258,0-2.208-1.738-2.208-4.045s0.949-4.046,2.208-4.046
	c1.258,0,2.207,1.739,2.207,4.046S34.566,29.232,33.309,29.232z M33.309,22.189c-0.483,0-1.186,1.168-1.186,2.998
	s0.703,2.998,1.186,2.998c0.482,0,1.186-1.168,1.186-2.998S33.791,22.189,33.309,22.189z"/>
<linearGradient id="SVGID_10_" gradientUnits="userSpaceOnUse" x1="32.4097" y1="25.7646" x2="36.8262" y2="25.7646">
	<stop  offset="0" style="stop-color:#B5BDC2"/>
	<stop  offset="0.2122" style="stop-color:#A4ADB3"/>
	<stop  offset="1" style="stop-color:#667680"/>
	<a:midPointStop  offset="0" style="stop-color:#B5BDC2"/>
	<a:midPointStop  offset="0.4848" style="stop-color:#B5BDC2"/>
	<a:midPointStop  offset="1" style="stop-color:#667680"/>
</linearGradient>
<path fill="url(#SVGID_10_)" d="M34.617,29.811c-1.258,0-2.208-1.74-2.208-4.046c0-2.308,0.95-4.046,2.208-4.046
	s2.209,1.738,2.209,4.046C36.826,28.07,35.875,29.811,34.617,29.811z M34.617,22.767c-0.484,0-1.186,1.168-1.186,2.998
	c0,1.829,0.701,2.997,1.186,2.997s1.186-1.168,1.186-2.997C35.803,23.935,35.102,22.767,34.617,22.767z"/>
<linearGradient id="SVGID_11_" gradientUnits="userSpaceOnUse" x1="33.7188" y1="26.3408" x2="38.1328" y2="26.3408">
	<stop  offset="0" style="stop-color:#B5BDC2"/>
	<stop  offset="0.2122" style="stop-color:#A4ADB3"/>
	<stop  offset="1" style="stop-color:#667680"/>
	<a:midPointStop  offset="0" style="stop-color:#B5BDC2"/>
	<a:midPointStop  offset="0.4848" style="stop-color:#B5BDC2"/>
	<a:midPointStop  offset="1" style="stop-color:#667680"/>
</linearGradient>
<path fill="url(#SVGID_11_)" d="M35.926,30.387c-1.26,0-2.207-1.739-2.207-4.045c0-2.308,0.947-4.047,2.207-4.047
	c1.258,0,2.207,1.739,2.207,4.047C38.133,28.647,37.184,30.387,35.926,30.387z M35.926,23.344c-0.484,0-1.186,1.168-1.186,2.998
	c0,1.829,0.701,2.997,1.186,2.997c0.482,0,1.186-1.168,1.186-2.997C37.111,24.512,36.408,23.344,35.926,23.344z"/>
<linearGradient id="SVGID_12_" gradientUnits="userSpaceOnUse" x1="35.0254" y1="26.917" x2="39.4414" y2="26.917">
	<stop  offset="0" style="stop-color:#B5BDC2"/>
	<stop  offset="0.2122" style="stop-color:#A4ADB3"/>
	<stop  offset="1" style="stop-color:#667680"/>
	<a:midPointStop  offset="0" style="stop-color:#B5BDC2"/>
	<a:midPointStop  offset="0.4848" style="stop-color:#B5BDC2"/>
	<a:midPointStop  offset="1" style="stop-color:#667680"/>
</linearGradient>
<path fill="url(#SVGID_12_)" d="M37.234,30.963c-1.26,0-2.209-1.738-2.209-4.045s0.949-4.047,2.209-4.047
	c1.258,0,2.207,1.74,2.207,4.047S38.492,30.963,37.234,30.963z M37.234,23.92c-0.484,0-1.186,1.168-1.186,2.998
	s0.701,2.998,1.186,2.998c0.482,0,1.186-1.168,1.186-2.998S37.717,23.92,37.234,23.92z"/>
<linearGradient id="SVGID_13_" gradientUnits="userSpaceOnUse" x1="36.334" y1="27.4937" x2="40.75" y2="27.4937">
	<stop  offset="0" style="stop-color:#B5BDC2"/>
	<stop  offset="0.2122" style="stop-color:#A4ADB3"/>
	<stop  offset="1" style="stop-color:#667680"/>
	<a:midPointStop  offset="0" style="stop-color:#B5BDC2"/>
	<a:midPointStop  offset="0.4848" style="stop-color:#B5BDC2"/>
	<a:midPointStop  offset="1" style="stop-color:#667680"/>
</linearGradient>
<path fill="url(#SVGID_13_)" d="M38.541,31.539c-1.258,0-2.207-1.738-2.207-4.045s0.949-4.046,2.207-4.046
	c1.26,0,2.209,1.739,2.209,4.046S39.801,31.539,38.541,31.539z M38.541,24.496c-0.482,0-1.184,1.168-1.184,2.998
	s0.701,2.997,1.184,2.997c0.484,0,1.186-1.167,1.186-2.997S39.025,24.496,38.541,24.496z"/>
<linearGradient id="SVGID_14_" gradientUnits="userSpaceOnUse" x1="37.6426" y1="28.0713" x2="42.0566" y2="28.0713">
	<stop  offset="0" style="stop-color:#B5BDC2"/>
	<stop  offset="0.2122" style="stop-color:#A4ADB3"/>
	<stop  offset="1" style="stop-color:#667680"/>
	<a:midPointStop  offset="0" style="stop-color:#B5BDC2"/>
	<a:midPointStop  offset="0.4848" style="stop-color:#B5BDC2"/>
	<a:midPointStop  offset="1" style="stop-color:#667680"/>
</linearGradient>
<path fill="url(#SVGID_14_)" d="M39.85,32.117c-1.258,0-2.207-1.74-2.207-4.047c0-2.306,0.949-4.045,2.207-4.045
	c1.26,0,2.207,1.739,2.207,4.045C42.057,30.377,41.109,32.117,39.85,32.117z M39.85,25.073c-0.482,0-1.186,1.168-1.186,2.997
	c0,1.83,0.703,2.998,1.186,2.998c0.484,0,1.186-1.168,1.186-2.998C41.035,26.241,40.334,25.073,39.85,25.073z"/>
<linearGradient id="SVGID_15_" gradientUnits="userSpaceOnUse" x1="38.9512" y1="28.6475" x2="43.3652" y2="28.6475">
	<stop  offset="0" style="stop-color:#B5BDC2"/>
	<stop  offset="0.2122" style="stop-color:#A4ADB3"/>
	<stop  offset="1" style="stop-color:#667680"/>
	<a:midPointStop  offset="0" style="stop-color:#B5BDC2"/>
	<a:midPointStop  offset="0.4848" style="stop-color:#B5BDC2"/>
	<a:midPointStop  offset="1" style="stop-color:#667680"/>
</linearGradient>
<path fill="url(#SVGID_15_)" d="M41.158,32.693c-1.258,0-2.207-1.739-2.207-4.045c0-2.307,0.949-4.047,2.207-4.047
	s2.207,1.74,2.207,4.047C43.365,30.954,42.416,32.693,41.158,32.693z M41.158,25.649c-0.482,0-1.186,1.169-1.186,2.999
	c0,1.829,0.703,2.996,1.186,2.996c0.484,0,1.186-1.167,1.186-2.996C42.344,26.818,41.643,25.649,41.158,25.649z"/>
<linearGradient id="SVGID_16_" gradientUnits="userSpaceOnUse" x1="41.2314" y1="32.5996" x2="47.337" y2="29.884">
	<stop  offset="0" style="stop-color:#B5BDC2"/>
	<stop  offset="0.2122" style="stop-color:#A4ADB3"/>
	<stop  offset="1" style="stop-color:#667680"/>
	<a:midPointStop  offset="0" style="stop-color:#B5BDC2"/>
	<a:midPointStop  offset="0.4848" style="stop-color:#B5BDC2"/>
	<a:midPointStop  offset="1" style="stop-color:#667680"/>
</linearGradient>
<path fill="url(#SVGID_16_)" d="M45.404,29.811h-1.039c0.061,0.54,0.121,1.216,0.18,2.029c0.041,0.568,1.102,0.487,1.061-0.082
	C45.551,30.992,45.482,30.351,45.404,29.811z"/>
<linearGradient id="SVGID_17_" gradientUnits="userSpaceOnUse" x1="22.0825" y1="19.5034" x2="62.1094" y2="19.5034">
	<stop  offset="0" style="stop-color:#B5BDC2"/>
	<stop  offset="0.2122" style="stop-color:#A4ADB3"/>
	<stop  offset="1" style="stop-color:#667680"/>
	<a:midPointStop  offset="0" style="stop-color:#B5BDC2"/>
	<a:midPointStop  offset="0.4848" style="stop-color:#B5BDC2"/>
	<a:midPointStop  offset="1" style="stop-color:#667680"/>
</linearGradient>
<path fill="url(#SVGID_17_)" d="M62.092,17.185c-0.145-1.007-1.109-1.813-3.037-2.539c-0.594-0.223-3.359-1.22-6.35-2.299
	c-3.65-1.315-7.789-2.808-8.461-3.067c-2.664-1.031-4.156-1.021-5.912,0.041c-1.689,1.022-12.972,7.263-13.816,7.721
	c-1.769,0.957-2.56,1.877-2.417,2.811c0.093,0.604,0.358,1.094,1.254,1.49l0.282-1.164c-0.486-0.27-0.479-0.455-0.485-0.496
	c-0.034-0.229,0.318-0.84,1.863-1.676c0.846-0.457,12.099-6.681,13.86-7.746c1.445-0.874,2.658-0.864,4.996,0.041
	c0.684,0.265,4.648,1.693,8.482,3.076c2.986,1.076,5.744,2.071,6.336,2.294c1.844,0.694,2.297,1.292,2.35,1.673
	c0.074,0.504-0.449,1.203-1.51,2.018c-0.539,0.416-1.59,1.293-2.92,2.403c-2.055,1.714-4.865,4.063-7.104,5.785
	c-3.635,2.798-5.998,1.888-9.393-0.24c-0.174,0.474-0.137,1.198-0.137,1.198c1.865,1.17,3.418,1.984,5.201,1.984
	c1.459,0,3.037-0.584,4.967-2.069c2.254-1.735,5.076-4.091,7.137-5.812c1.32-1.104,2.363-1.975,2.887-2.377
	C61.598,19.134,62.227,18.137,62.092,17.185z"/>
<linearGradient id="SVGID_18_" gradientUnits="userSpaceOnUse" x1="40.792" y1="31.5703" x2="46.8918" y2="28.8573">
	<stop  offset="0" style="stop-color:#B5BDC2"/>
	<stop  offset="0.2122" style="stop-color:#A4ADB3"/>
	<stop  offset="1" style="stop-color:#667680"/>
	<a:midPointStop  offset="0" style="stop-color:#B5BDC2"/>
	<a:midPointStop  offset="0.4848" style="stop-color:#B5BDC2"/>
	<a:midPointStop  offset="1" style="stop-color:#667680"/>
</linearGradient>
<path fill="url(#SVGID_18_)" d="M44.248,26.935c-0.287-0.142-0.609-0.111-0.887,0.085c-1.055,0.738-1.625,4.191-1.432,6.786
	c0.043,0.569,1.105,0.499,1.063-0.084c-0.205-2.725,0.43-5.125,0.92-5.519c0.143-0.115,0.334,0.445,0.381,1.029
	c0.568,0.164,1.029,0.068,1.029,0.068C45.018,27.567,44.604,27.111,44.248,26.935z"/>
<linearGradient id="SVGID_19_" gradientUnits="userSpaceOnUse" x1="28.1812" y1="25.541" x2="53.1158" y2="9.9694">
	<stop  offset="0" style="stop-color:#667680"/>
	<stop  offset="0.7878" style="stop-color:#A4ADB3"/>
	<stop  offset="1" style="stop-color:#B5BDC2"/>
	<a:midPointStop  offset="0" style="stop-color:#667680"/>
	<a:midPointStop  offset="0.5152" style="stop-color:#667680"/>
	<a:midPointStop  offset="1" style="stop-color:#B5BDC2"/>
</linearGradient>
<path fill="url(#SVGID_19_)" d="M49.291,7.837c-4.777,5.54-9.816,9.214-13.775,11.686c-1.922,1.199-3.879,1.485-4.824,2.368
	c-1.095,1.027-1.192,2.666-1.338,3.896c-0.19,1.6-0.379,2.861-2.412,3.912c-0.193,0.1-0.181,1.358,0.234,1.127
	c2.716-1.516,3.026-3.16,3.234-4.907c0.134-1.126,0.194-2.468,0.999-3.22c0.869-0.814,2.786-1.076,4.661-2.245
	c4.016-2.506,9.135-6.231,14.018-11.894c0.717-0.831,1.947-0.524,1.414,0.84c0,0,0.453,0.609,0.668,1.063
	C53.803,7.881,51.078,5.767,49.291,7.837z"/>
<linearGradient id="SVGID_20_" gradientUnits="userSpaceOnUse" x1="18.2734" y1="37.4492" x2="31.9995" y2="37.4492">
	<stop  offset="0" style="stop-color:#B5BDC2"/>
	<stop  offset="0.2122" style="stop-color:#A4ADB3"/>
	<stop  offset="1" style="stop-color:#667680"/>
	<a:midPointStop  offset="0" style="stop-color:#B5BDC2"/>
	<a:midPointStop  offset="0.4848" style="stop-color:#B5BDC2"/>
	<a:midPointStop  offset="1" style="stop-color:#667680"/>
</linearGradient>
<path fill="url(#SVGID_20_)" d="M18.273,37.799c0,0,5.735,2.967,8.025,3.852L32,35.33c0,0-2.279-0.758-7.439-2.082
	C20.36,35.625,18.273,37.799,18.273,37.799z"/>
<path fill="#F9D32A" d="M32.781,36.066c0.225-2.911,0.059-5.043,0.059-5.043s-5.814,3.207-6.541,5.014
	c-0.61,1.516,1.053,5.277,1.053,5.277S30.339,38.811,32.781,36.066z"/>
<path fill="#FFF94F" d="M17.242,31.633c0,0,6.586,4.846,9.057,4.404l6.541-5.014c0,0-4.15-2.618-9.31-3.943
	C19.329,29.459,17.242,31.633,17.242,31.633z"/>
<path fill="#F7E32C" d="M18.295,36.711c4.25,3.029,9.057,4.604,9.057,4.604l-1.053-5.277l-9.057-4.404
	C17.242,31.633,17.242,33.967,18.295,36.711z"/>
<path fill="#F9D32A" d="M20.519,33.227c0.323,1.021-1.585,0.507-1.571-0.765C19.568,31.759,21.552,31.979,20.519,33.227z"/>
<path fill="#F7E32C" d="M29.966,30.865c0.229,0.723-1.323,0.711-1.179-0.086C28.857,30.394,29.671,29.928,29.966,30.865z"/>
<path fill="#F7E32C" d="M24.501,33.104c-1.463,0.021,0.063-2.26,1.55-1.712C26.773,31.658,26.396,33.078,24.501,33.104z"/>
<path fill="#F9D32A" d="M22.258,36.357c-0.354,0.676-1.65-1.139-0.929-1.422C21.68,34.797,22.716,35.482,22.258,36.357z"/>
<path fill="#EDB034" d="M28.647,34.237c0.131,1.07,1.554-0.04,1.401-1.074C29.532,32.777,27.535,33.578,28.647,34.237z"/>
<path fill="#EDB034" d="M28.72,38.105c0.223,0.427,1.043-0.721,0.586-0.898C29.085,37.119,28.43,37.553,28.72,38.105z"/>
<path fill="#EDB034" d="M30.99,36.098c0.485,0.927,2.262-1.561,1.273-1.948C31.783,33.961,30.363,34.9,30.99,36.098z"/>
<path fill="#F9D32A" d="M19.74,36.515c-0.199,0.38-0.929-0.641-0.523-0.801C19.415,35.637,19.998,36.021,19.74,36.515z"/>
<path fill="#F9D32A" d="M24.162,39.167c-0.139,0.267-0.65-0.448-0.366-0.56C23.934,38.553,24.342,38.822,24.162,39.167z"/>
<path fill="#F7E32C" d="M23.896,28.819c-0.49,0.007-0.321-0.741,0.177-0.558C24.315,28.352,24.531,28.811,23.896,28.819z"/>
<path fill="#F7E32C" d="M23.318,31.381c-0.49,0.007,0.197-0.872,0.695-0.689C24.255,30.781,23.953,31.372,23.318,31.381z"/>
<path fill="#F7E32C" d="M19.483,30.963c-0.49,0.008,0.197-0.871,0.695-0.688C20.735,30.48,20.68,30.947,19.483,30.963z"/>
<path fill="#F9D32A" d="M24.979,37.894c-0.489,0.007-0.321-0.741,0.177-0.558C25.398,37.426,25.614,37.885,24.979,37.894z"/>
</svg>
