<?xml version="1.0" encoding="utf-8"?>
<!-- Generator: Adobe Illustrator 15.0.0, SVG Export Plug-In . SVG Version: 6.00 Build 0)  -->
<!DOCTYPE svg PUBLIC "-//W3C//DTD SVG 1.1//EN" "http://www.w3.org/Graphics/SVG/1.1/DTD/svg11.dtd" [
	<!ENTITY ns_flows "http://ns.adobe.com/Flows/1.0/">
	<!ENTITY ns_extend "http://ns.adobe.com/Extensibility/1.0/">
	<!ENTITY ns_ai "http://ns.adobe.com/AdobeIllustrator/10.0/">
	<!ENTITY ns_graphs "http://ns.adobe.com/Graphs/1.0/">
]>
<svg version="1.1" id="Layer_1" xmlns:x="&ns_extend;" xmlns:i="&ns_ai;" xmlns:graph="&ns_graphs;"
	 xmlns="http://www.w3.org/2000/svg" xmlns:xlink="http://www.w3.org/1999/xlink" xmlns:a="http://ns.adobe.com/AdobeSVGViewerExtensions/3.0/"
	 x="0px" y="0px" width="64px" height="64px" viewBox="0 0 64 64" enable-background="new 0 0 64 64" xml:space="preserve">
<linearGradient id="SVGID_1_" gradientUnits="userSpaceOnUse" x1="33" y1="50.791" x2="33" y2="2.209">
	<stop  offset="0" style="stop-color:#8D9CA3"/>
	<stop  offset="0.2809" style="stop-color:#9CABB1"/>
	<stop  offset="0.6747" style="stop-color:#ABB9BF"/>
	<stop  offset="1" style="stop-color:#B0BEC4"/>
	<a:midPointStop  offset="0" style="stop-color:#8D9CA3"/>
	<a:midPointStop  offset="0.3333" style="stop-color:#8D9CA3"/>
	<a:midPointStop  offset="1" style="stop-color:#B0BEC4"/>
</linearGradient>
<path fill="url(#SVGID_1_)" d="M13.75,20.64c0,12.919,0,30.151,0,30.151h38.5c0,0,0-17.461,0-30.151
	C52.25-3.935,13.75-3.935,13.75,20.64z"/>
<linearGradient id="SVGID_2_" gradientUnits="userSpaceOnUse" x1="33" y1="51" x2="33" y2="4.882813e-004">
	<stop  offset="0" style="stop-color:#64737A"/>
	<stop  offset="0.8176" style="stop-color:#A2B0B6"/>
	<stop  offset="1" style="stop-color:#B0BEC4"/>
	<a:midPointStop  offset="0" style="stop-color:#64737A"/>
	<a:midPointStop  offset="0.5152" style="stop-color:#64737A"/>
	<a:midPointStop  offset="1" style="stop-color:#B0BEC4"/>
</linearGradient>
<path fill="url(#SVGID_2_)" d="M33,4c8.462,0,17,4.98,17,16.107V50H16V20.107C16,8.98,24.538,4,33,4 M33,0
	C22.5,0,12,6.703,12,20.107C12,34.201,12,51,12,51h42c0,0,0-17.049,0-30.893C54,6.703,43.5,0,33,0L33,0z"/>
<path fill="#778991" d="M49.25,49.25h-32.5V20.107C16.75,9.499,24.912,4.75,33,4.75c8.088,0,16.25,4.749,16.25,15.357V49.25z
	 M17.25,48.75h31.5V20.107C48.75,9.844,40.84,5.25,33,5.25S17.25,9.844,17.25,20.107V48.75z"/>
<linearGradient id="SVGID_3_" gradientUnits="userSpaceOnUse" x1="33" y1="56" x2="33" y2="50">
	<stop  offset="0" style="stop-color:#7B8A91"/>
	<stop  offset="1" style="stop-color:#A3AFB5"/>
	<a:midPointStop  offset="0" style="stop-color:#7B8A91"/>
	<a:midPointStop  offset="0.5152" style="stop-color:#7B8A91"/>
	<a:midPointStop  offset="1" style="stop-color:#A3AFB5"/>
</linearGradient>
<path fill="url(#SVGID_3_)" d="M57.029,50H8.971C8.435,50,8,50.5,8,51.117V56h50v-4.883C58,50.5,57.565,50,57.029,50z"/>
<path fill="#6D7D85" d="M58.991,55H7.009C6.452,55,6,55.355,6,55.795V60h54v-4.205C60,55.355,59.549,55,58.991,55z"/>
<path fill="#778991" d="M32.999,25.07c-2.315-3.762-8.719-2.292-8.72,2.433c0,2.84,2.382,4.847,7.031,8.604
	c1.578,1.274,1.801,1.274,3.379,0.001c4.646-3.759,7.031-5.763,7.031-8.605C41.721,22.777,35.315,21.308,32.999,25.07z"/>
<path fill="#778991" d="M29.547,12.554c-0.072-0.053-0.156-0.07-0.242-0.08c0.155-0.042,0.293-0.104,0.4-0.199
	C29.902,12.104,30,11.877,30,11.594c0-0.298-0.095-0.527-0.285-0.69c-0.19-0.162-0.472-0.243-0.844-0.243h-1.416v3.179h0.688v-1.281
	h0.451c0.093,0,0.174,0.016,0.246,0.047c0.071,0.031,0.123,0.09,0.156,0.176l0.406,1.058h0.736l-0.384-0.987
	C29.704,12.719,29.635,12.62,29.547,12.554z M28.768,12.027h-0.629v-0.831h0.629c0.203,0,0.35,0.034,0.44,0.101
	s0.136,0.172,0.136,0.314c0,0.14-0.046,0.244-0.139,0.313C29.113,11.993,28.968,12.027,28.768,12.027z"/>
<polygon fill="#778991" points="30.616,13.84 32.809,13.84 32.809,13.3 31.299,13.3 31.299,12.496 32.715,12.496 32.715,11.951 
	31.299,11.951 31.299,11.201 32.809,11.201 32.809,10.661 30.616,10.661 "/>
<path fill="#778991" d="M35.4,12.324c-0.094-0.073-0.214-0.138-0.359-0.194c-0.146-0.057-0.319-0.105-0.519-0.147
	c-0.169-0.039-0.303-0.076-0.399-0.114c-0.097-0.037-0.166-0.08-0.207-0.127c-0.042-0.048-0.063-0.106-0.063-0.174
	c0-0.125,0.053-0.224,0.16-0.297s0.252-0.109,0.434-0.109c0.16,0,0.318,0.027,0.473,0.081c0.155,0.053,0.304,0.135,0.446,0.245
	l0.224-0.5c-0.083-0.077-0.187-0.143-0.308-0.196c-0.122-0.054-0.256-0.095-0.4-0.125s-0.292-0.044-0.444-0.044
	c-0.253,0-0.474,0.043-0.662,0.129c-0.189,0.086-0.337,0.205-0.442,0.355s-0.158,0.319-0.158,0.506c0,0.131,0.021,0.247,0.063,0.346
	c0.041,0.1,0.107,0.187,0.198,0.261s0.209,0.14,0.355,0.196c0.146,0.057,0.321,0.106,0.526,0.147
	c0.164,0.036,0.295,0.071,0.393,0.107c0.099,0.036,0.17,0.078,0.215,0.125c0.045,0.048,0.066,0.106,0.066,0.174
	c0,0.116-0.054,0.207-0.163,0.272c-0.108,0.065-0.264,0.098-0.466,0.098c-0.188,0-0.366-0.027-0.536-0.081
	c-0.17-0.053-0.333-0.135-0.491-0.246l-0.228,0.5c0.099,0.077,0.215,0.144,0.349,0.198c0.134,0.055,0.277,0.097,0.431,0.125
	c0.153,0.028,0.311,0.042,0.471,0.042c0.277,0,0.514-0.04,0.71-0.118s0.347-0.19,0.451-0.335c0.104-0.144,0.156-0.316,0.156-0.516
	c0-0.125-0.022-0.236-0.067-0.333C35.563,12.482,35.494,12.397,35.4,12.324z"/>
<polygon fill="#778991" points="35.849,10.661 35.849,11.228 36.845,11.228 36.845,13.84 37.55,13.84 37.55,11.228 38.545,11.228 
	38.545,10.661 "/>
<rect x="22.912" y="14.341" fill="#778991" width="0.697" height="3.179"/>
<polygon fill="#778991" points="26.346,16.363 24.761,14.341 24.247,14.341 24.247,17.52 24.899,17.52 24.899,15.496 26.484,17.52 
	27.002,17.52 27.002,14.341 26.346,14.341 "/>
<path fill="#778991" d="M30.337,14.341h-1.442v3.179h0.697v-1.286h0.745c0.352,0,0.624-0.085,0.819-0.257
	c0.194-0.171,0.292-0.401,0.292-0.69c0-0.292-0.096-0.522-0.288-0.692C30.969,14.426,30.694,14.341,30.337,14.341z M30.658,15.596
	c-0.089,0.072-0.227,0.107-0.41,0.107h-0.656v-0.826h0.656c0.188,0,0.325,0.036,0.412,0.107c0.088,0.071,0.132,0.174,0.132,0.308
	C30.792,15.423,30.748,15.524,30.658,15.596z"/>
<polygon fill="#778991" points="31.908,17.52 34.101,17.52 34.101,16.98 32.591,16.98 32.591,16.176 34.007,16.176 34.007,15.631 
	32.591,15.631 32.591,14.881 34.101,14.881 34.101,14.341 31.908,14.341 "/>
<path fill="#778991" d="M35.632,14.341l-1.46,3.179h0.701l0.305-0.706h1.482l0.302,0.706h0.692l-1.46-3.179H35.632z M35.407,16.283
	l0.515-1.191l0.51,1.191H35.407z"/>
<path fill="#778991" d="M39.342,14.859c0.148,0,0.291,0.024,0.427,0.073c0.135,0.049,0.274,0.127,0.417,0.234l0.219-0.5
	c-0.125-0.116-0.283-0.206-0.474-0.27s-0.391-0.096-0.603-0.096c-0.324,0-0.605,0.067-0.844,0.201s-0.421,0.323-0.549,0.567
	c-0.128,0.244-0.192,0.53-0.192,0.857c0,0.33,0.064,0.618,0.192,0.864s0.311,0.436,0.549,0.569s0.52,0.201,0.844,0.201
	c0.212,0,0.412-0.032,0.603-0.096s0.349-0.154,0.474-0.27l-0.219-0.5c-0.143,0.107-0.282,0.186-0.417,0.235
	c-0.136,0.049-0.278,0.073-0.427,0.073c-0.283,0-0.502-0.091-0.656-0.274c-0.155-0.183-0.232-0.45-0.232-0.801
	s0.077-0.617,0.232-0.797C38.84,14.949,39.059,14.859,39.342,14.859z"/>
<polygon fill="#778991" points="43.088,14.881 43.088,14.341 40.896,14.341 40.896,17.52 43.088,17.52 43.088,16.98 41.578,16.98 
	41.578,16.176 42.994,16.176 42.994,15.631 41.578,15.631 41.578,14.881 "/>
<rect x="21" y="40" fill="#778991" width="24" height="1"/>
<rect x="21" y="44" fill="#778991" width="24" height="1"/>
<path fill="#88DE00" d="M47.943,60c0.784-1.228,1.244-5.706-0.102-9.889c0.086,3.669-2.248,8.553-1.682,9.889H47.943z"/>
<path fill="#88DE00" d="M34.018,60c0.846-1.228,1.166-6.311-0.285-10.494c0.092,3.669-2.256,9.158-1.643,10.494H34.018z"/>
<path fill="#86C400" d="M27.19,60c0.609-1.336-1.736-4.999-1.644-8.668c-1.454,4.184-1.129,7.44-0.282,8.668H27.19z"/>
<path fill="#86C400" d="M42.527,60c0.609-1.336-2.402-4.304-2.311-7.973c-1.451,4.184-0.463,6.745,0.385,7.973H42.527z"/>
<path fill="#86C400" d="M46.521,60c0.567-1.336-1.609-4.999-1.522-8.668c-1.345,4.184-1.046,7.44-0.261,8.668H46.521z"/>
<path fill="#88DE00" d="M43.669,60c0.991-1.385,1.405-5.36-0.243-10.494C43.53,53.996,40.8,58.487,41.641,60H43.669z"/>
<path fill="#88DE00" d="M61.132,60c0.989-1.385,1.404-5.36-0.245-10.494c0.105,4.49-2.625,8.981-1.784,10.494H61.132z"/>
<path fill="#88DE00" d="M52.838,60c1.185-1.525,1.707-6.172-0.23-12.193c0.127,5.279-3.132,10.547-1.986,12.193H52.838z"/>
<path fill="#86C400" d="M35.027,60c-0.848-1.228-1.172-4.482,0.282-8.666c-0.094,3.671,2.255,7.33,1.642,8.666H35.027z"/>
<path fill="#86C400" d="M31.576,60c0.846-1.228,1.118-3.255-0.334-7.438c0.092,3.668-2.203,6.102-1.592,7.438H31.576z"/>
<path fill="#86C400" d="M57.293,60c-0.783-1.228,0.523-3.574,1.867-7.757c-0.087,3.669,0.485,6.421-0.083,7.757H57.293z"/>
<path fill="#88DE00" d="M55.907,60c-0.784-1.228-0.908-6.531,0.436-10.715c-0.085,3.668,1.915,9.379,1.349,10.715H55.907z"/>
<path fill="#86C400" d="M53.112,60c-0.565-1.336,1.608-4.999,1.521-8.668c1.346,4.184,1.046,7.44,0.261,8.668H53.112z"/>
<path fill="#86C400" d="M48.104,60c-0.565-1.336,1.607-4.999,1.522-8.668c1.344,4.184,1.044,7.44,0.259,8.668H48.104z"/>
<path fill="#88DE00" d="M27.418,60c-1.068-1.385-0.17-4.301,1.612-9.434c-0.114,4.489,1.489,7.921,0.581,9.434H27.418z"/>
<path fill="#88DE00" d="M37.283,60c-1.279-1.525-1.844-6.172,0.25-12.193C37.396,53.086,40.915,58.354,39.68,60H37.283z"/>
<path fill="#449C00" d="M17.561,53.03c2.259-5.354,7.979-1.302,7.979-1.302C21.293,56.516,17.561,53.03,17.561,53.03z"/>
<path fill="#56AB15" d="M25.54,51.729L25.54,51.729c-4.163,5.287-7.979,1.302-7.979,1.302S20.998,51.17,25.54,51.729z"/>
<path fill="#449C00" d="M31.071,62.926c0.179,0.408-0.413,0.852-0.899,1.06c-2.461-2.011-8.475-6.615-18.803-4.208
	c-3.601,0.84,7.44-16.002,8.068-12.37c1.595,9.216,8.766,12.452,12.279,13.556C32.018,61.568,31.255,62.088,31.071,62.926z"/>
<path fill="#449C00" d="M18.375,58.165C11.729,55.504,7.608,63.72,7.608,63.72C16.292,64.243,18.375,58.165,18.375,58.165z"/>
<path fill="#56AB15" d="M7.608,63.72L7.608,63.72c8.941,1.017,10.767-5.555,10.767-5.555S12.799,59.455,7.608,63.72z"/>
<path fill="#449C00" d="M16.842,54.871C11.787,47.992,2,54.197,2,54.197C10.599,60.049,16.842,54.871,16.842,54.871z"/>
<path fill="#56AB15" d="M2,54.197L2,54.197c8.531,6.535,14.842,0.674,14.842,0.674S10.222,52.836,2,54.197z"/>
<path fill="#449C00" d="M16.485,52.533c-7.152-1.032-5.826-10.007-5.826-10.007C18.28,46.371,16.485,52.533,16.485,52.533z"/>
<path fill="#56AB15" d="M10.659,42.526L10.659,42.526c8.13,3.555,5.826,10.007,5.826,10.007S12.54,48.69,10.659,42.526z"/>
<path fill="#D47706" d="M7.884,46.469c-0.617,0.079-1.275,0.16-2.074,0.037c-0.007,0.443-0.214,1.418-0.106,2.516
	c-1.337,0.447-2.037,1.256-2.349,1.608c5.238,0.673,7.84-1.61,5.908-6.661C8.962,44.31,8.196,45.154,7.884,46.469z"/>
<path fill="#EA8800" d="M7.79,52.498c2.33,1.863,6.542-2.889,4.216-4.75c-2.332-1.862-5.298-1.404-6.196-1.242
	C7.923,48.246,5.461,50.637,7.79,52.498z"/>
<linearGradient id="SVGID_4_" gradientUnits="userSpaceOnUse" x1="-112.8179" y1="192.9307" x2="-112.8179" y2="183.8125" gradientTransform="matrix(-0.6445 0.7647 0.7647 0.6445 -208.1014 16.2796)">
	<stop  offset="0" style="stop-color:#FFE600"/>
	<stop  offset="0.3258" style="stop-color:#FFDA00"/>
	<stop  offset="0.9131" style="stop-color:#FFBA00"/>
	<stop  offset="1" style="stop-color:#FFB500"/>
	<a:midPointStop  offset="0" style="stop-color:#FFE600"/>
	<a:midPointStop  offset="0.5758" style="stop-color:#FFE600"/>
	<a:midPointStop  offset="1" style="stop-color:#FFB500"/>
</linearGradient>
<path fill="url(#SVGID_4_)" d="M11.125,50.137c2.188,0.938,2.578,2.392,2.144,2.881c-1.205,1.359-3.532,2.014-5.497,0.297
	c-2.335-2.045-3.402-1.913-4.42-2.681C3.897,50.018,6.271,48.055,11.125,50.137z"/>
<linearGradient id="SVGID_5_" gradientUnits="userSpaceOnUse" x1="245.0039" y1="192.21" x2="245.0039" y2="183.3135" gradientTransform="matrix(0.6445 -0.7647 0.7647 0.6445 -290.61 115.2996)">
	<stop  offset="0" style="stop-color:#FFB500"/>
	<stop  offset="0.0869" style="stop-color:#FFBA00"/>
	<stop  offset="0.6742" style="stop-color:#FFDA00"/>
	<stop  offset="1" style="stop-color:#FFE600"/>
	<a:midPointStop  offset="0" style="stop-color:#FFB500"/>
	<a:midPointStop  offset="0.4242" style="stop-color:#FFB500"/>
	<a:midPointStop  offset="1" style="stop-color:#FFE600"/>
</linearGradient>
<path fill="url(#SVGID_5_)" d="M9.893,51.527c1.347,1.887,2.918,2.008,3.354,1.518c1.204-1.359,1.489-3.648-0.629-5.195
	c-2.518-1.836-2.38-3.064-3.352-3.885C8.721,44.582,6.904,47.342,9.893,51.527z"/>
<path fill="#449C00" d="M20.106,53.229c-4.544-4.141,1.081-10.107,1.081-10.107C24.596,49.553,20.106,53.229,20.106,53.229z"/>
<path fill="#56AB15" d="M21.187,43.121L21.187,43.121c3.917,6.459-1.081,10.107-1.081,10.107S19.309,48.537,21.187,43.121z"/>
<path fill="#449C00" d="M17.911,49.014c-5.779-2.396-2.559-7.779-2.559-7.779C20.869,46.133,17.911,49.014,17.911,49.014z"/>
<path fill="#56AB15" d="M15.352,41.234L15.352,41.234c6.011,4.76,2.559,7.779,2.559,7.779S15.489,46.896,15.352,41.234z"/>
<path fill="#449C00" d="M19.735,54.382c-2.134-5.664-10.05-3.063-10.05-3.063C14.452,56.893,19.735,54.382,19.735,54.382z"/>
<path fill="#56AB15" d="M9.685,51.318L9.685,51.318c4.587,6.038,10.05,3.063,10.05,3.063S15.589,51.811,9.685,51.318z"/>
<path fill="#56AB15" d="M7.939,56.215c0,0,6.453-0.049,19.422,5.631c1.169,0.512,2.479,1.107,3.67,1.989l0.63-0.858
	c-1.292-0.725-2.541-1.375-3.741-1.957C15.339,54.919,7.939,56.215,7.939,56.215z"/>
<path fill="#56AB15" d="M14.205,48.108c0,0,5.105,5.825,14.215,11.577c1.145,0.725,2.436,1.15,3.779,1.705l-0.11,0.93
	c-1.367-0.461-2.804-1.017-3.974-1.721C19.196,55.225,14.205,48.108,14.205,48.108z"/>
<path fill="#56AB15" d="M16.979,53.792c-0.154,0.255-0.309,0.506-0.469,0.755c2.948,2.256,6.855,4.344,11.266,6.08l-0.008-0.417
	C23.506,58.193,19.875,55.771,16.979,53.792z"/>
<path fill="#7A107A" d="M5.616,56.594c-0.426,0.439-0.88,0.906-1.588,1.309c0.3,0.333,0.807,1.186,1.642,1.936
	c-0.735,1.158-0.725,2.188-0.725,2.645c4.531-2.738,4.989-6.041,0.03-8.598C4.974,54.326,4.959,55.426,5.616,56.594z"/>
<path fill="#AB11A7" d="M9.67,61.128c3.087-0.057,3.107-6.188,0.023-6.133c-3.084,0.058-5.079,2.232-5.666,2.907
	C6.863,57.889,6.586,61.186,9.67,61.128z"/>
<linearGradient id="SVGID_6_" gradientUnits="userSpaceOnUse" x1="-413.502" y1="299.7461" x2="-413.502" y2="290.374" gradientTransform="matrix(0.0077 1 1 -0.0077 -282.2646 475.5468)">
	<stop  offset="0" style="stop-color:#AB11A7"/>
	<stop  offset="0.0906" style="stop-color:#B512B1"/>
	<stop  offset="0.2944" style="stop-color:#C613C2"/>
	<stop  offset="0.5152" style="stop-color:#D114CC"/>
	<stop  offset="0.7818" style="stop-color:#D414CF"/>
	<a:midPointStop  offset="0" style="stop-color:#AB11A7"/>
	<a:midPointStop  offset="0.2558" style="stop-color:#AB11A7"/>
	<a:midPointStop  offset="0.7818" style="stop-color:#D414CF"/>
</linearGradient>
<path fill="url(#SVGID_6_)" d="M10.647,57.313c2.342-0.655,3.639,0.182,3.637,0.813c-0.005,1.755-1.365,3.679-4.068,3.618
	c-3.213-0.075-3.953,0.683-5.27,0.741C4.948,61.691,5.448,58.768,10.647,57.313z"/>
<linearGradient id="SVGID_7_" gradientUnits="userSpaceOnUse" x1="546.292" y1="299.9756" x2="546.292" y2="290.6992" gradientTransform="matrix(-0.0077 -1 1 -0.0077 -281.4942 605.1425)">
	<stop  offset="0.2182" style="stop-color:#D414CF"/>
	<stop  offset="0.4848" style="stop-color:#D114CC"/>
	<stop  offset="0.7056" style="stop-color:#C613C2"/>
	<stop  offset="0.9094" style="stop-color:#B512B1"/>
	<stop  offset="1" style="stop-color:#AB11A7"/>
	<a:midPointStop  offset="0.2182" style="stop-color:#D414CF"/>
	<a:midPointStop  offset="0.7442" style="stop-color:#D414CF"/>
	<a:midPointStop  offset="1" style="stop-color:#AB11A7"/>
</linearGradient>
<path fill="url(#SVGID_7_)" d="M10.641,59.107c2.34,0.568,3.641-0.313,3.646-0.947c0.003-1.752-1.341-3.627-4.045-3.467
	c-3.212,0.193-3.947-0.805-5.264-0.813C4.974,54.676,5.454,57.846,10.641,59.107z"/>
<path fill="#B81D4B" d="M17.275,43.82c-0.578-0.141-1.19-0.289-1.851-0.67c-0.173,0.396-0.717,1.205-1.032,2.229
	c-1.35-0.05-2.271,0.442-2.681,0.651c4.389,2.384,7.547,1.207,7.719-3.996C19.034,42.24,18.042,42.742,17.275,43.82z"/>
<linearGradient id="SVGID_8_" gradientUnits="userSpaceOnUse" x1="59.3281" y1="111.5762" x2="59.3281" y2="104.2949" gradientTransform="matrix(-0.8815 0.4722 0.4722 0.8815 18.3052 -76.7097)">
	<stop  offset="0" style="stop-color:#7A0032"/>
	<stop  offset="0.1403" style="stop-color:#8B0539"/>
	<stop  offset="1" style="stop-color:#F22462"/>
	<a:midPointStop  offset="0" style="stop-color:#7A0032"/>
	<a:midPointStop  offset="0.4909" style="stop-color:#7A0032"/>
	<a:midPointStop  offset="1" style="stop-color:#F22462"/>
</linearGradient>
<path fill="url(#SVGID_8_)" d="M14.943,49.219c1.37,2.467,6.872-0.384,5.504-2.851c-1.37-2.466-4.166-3.06-5.023-3.218
	C16.648,45.434,13.574,46.752,14.943,49.219z"/>
<linearGradient id="SVGID_9_" gradientUnits="userSpaceOnUse" x1="48.2344" y1="113.668" x2="48.2344" y2="105.082" gradientTransform="matrix(-0.8815 0.4722 0.4722 0.8815 7.0015 -70.654)">
	<stop  offset="0" style="stop-color:#FF70AB"/>
	<stop  offset="1" style="stop-color:#FF3672"/>
	<a:midPointStop  offset="0" style="stop-color:#FF70AB"/>
	<a:midPointStop  offset="0.4909" style="stop-color:#FF70AB"/>
	<a:midPointStop  offset="1" style="stop-color:#FF3672"/>
</linearGradient>
<path fill="url(#SVGID_9_)" d="M18.78,48.223c1.587,1.587,1.392,3.027,0.826,3.321c-1.575,0.814-3.879,0.614-4.98-1.599
	c-1.306-2.631-2.303-2.874-2.917-3.912C12.424,45.666,15.256,44.703,18.78,48.223z"/>
<linearGradient id="SVGID_10_" gradientUnits="userSpaceOnUse" x1="84.9531" y1="112.4541" x2="84.9531" y2="103.9932" gradientTransform="matrix(0.8815 -0.4722 0.4722 0.8815 -106.9861 -8.2222)">
	<stop  offset="0" style="stop-color:#FF99C3"/>
	<stop  offset="1" style="stop-color:#FF3672"/>
	<a:midPointStop  offset="0" style="stop-color:#FF99C3"/>
	<a:midPointStop  offset="0.4909" style="stop-color:#FF99C3"/>
	<a:midPointStop  offset="1" style="stop-color:#FF3672"/>
</linearGradient>
<path fill="url(#SVGID_10_)" d="M17.17,49.057c0.486,2.156,1.836,2.795,2.401,2.501c1.576-0.813,2.681-2.78,1.38-4.888
	c-1.543-2.509-0.966-3.567-1.52-4.637C18.72,42.404,16.082,44.277,17.17,49.057z"/>
<linearGradient id="SVGID_11_" gradientUnits="userSpaceOnUse" x1="-125.9771" y1="-419.2373" x2="-122.5303" y2="-419.2373" gradientTransform="matrix(0.5187 -0.855 0.855 0.5187 450.1806 171.6614)">
	<stop  offset="0.2182" style="stop-color:#D414CF"/>
	<stop  offset="0.4848" style="stop-color:#D114CC"/>
	<stop  offset="0.7056" style="stop-color:#C613C2"/>
	<stop  offset="0.9094" style="stop-color:#B512B1"/>
	<stop  offset="1" style="stop-color:#AB11A7"/>
	<a:midPointStop  offset="0.2182" style="stop-color:#D414CF"/>
	<a:midPointStop  offset="0.7442" style="stop-color:#D414CF"/>
	<a:midPointStop  offset="1" style="stop-color:#AB11A7"/>
</linearGradient>
<path fill="url(#SVGID_11_)" d="M27.197,58.641c-0.857,0.278-0.575,1.852-1.618,2.585c-0.309,0.217,1.367,0.941,1.748,0.862
	c1.024-0.209,1.096-2.184,1.322-2.521C28.855,59.26,27.567,58.523,27.197,58.641z"/>
<path fill="#AB11A7" d="M27.684,58.899c-0.859,0.278-0.578,1.852-1.619,2.585C27.051,61.221,27.056,59.486,27.684,58.899z"/>
<path fill="#AB11A7" d="M28.402,59.27c-0.859,0.279-0.577,1.852-1.62,2.586C27.77,61.592,27.775,59.857,28.402,59.27z"/>
<path fill="#449C00" d="M19.112,54.66c3.052-3.385,6.237,1.081,6.237,1.081C20.974,58.198,19.112,54.66,19.112,54.66z"/>
<path fill="#56AB15" d="M25.35,55.741L25.35,55.741c-4.442,2.849-6.237-1.081-6.237-1.081S22.135,54.164,25.35,55.741z"/>
<path fill="#449C00" d="M16.671,56.299C12.859,60.693,19.043,64,19.043,64C21.465,58.082,16.671,56.299,16.671,56.299z"/>
<path fill="#56AB15" d="M19.043,64L19.043,64c2.908-6.065-2.373-7.701-2.373-7.701S16.524,60.193,19.043,64z"/>
<path fill="#D47706" d="M12.695,53.402c-0.479,0.311-0.99,0.641-1.701,0.854c0.172,0.37,0.389,1.257,0.918,2.122
	c-0.928,0.9-1.185,1.846-1.301,2.261c4.602-1.524,5.844-4.444,2.227-7.849C12.725,51.19,12.43,52.193,12.695,53.402z"/>
<path fill="#EA8800" d="M15.027,58.422c2.671,0.613,4.258-4.984,1.589-5.6c-2.672-0.612-4.944,0.945-5.622,1.435
	C13.438,54.855,12.356,57.809,15.027,58.422z"/>
<linearGradient id="SVGID_12_" gradientUnits="userSpaceOnUse" x1="-227.4204" y1="-149.8804" x2="-227.4204" y2="-158.2617" gradientTransform="matrix(-0.2486 0.9686 0.9686 0.2486 108.0072 315.7625)">
	<stop  offset="0" style="stop-color:#FFE600"/>
	<stop  offset="0.3258" style="stop-color:#FFDA00"/>
	<stop  offset="0.9131" style="stop-color:#FFBA00"/>
	<stop  offset="1" style="stop-color:#FFB500"/>
	<a:midPointStop  offset="0" style="stop-color:#FFE600"/>
	<a:midPointStop  offset="0.5758" style="stop-color:#FFE600"/>
	<a:midPointStop  offset="1" style="stop-color:#FFB500"/>
</linearGradient>
<path fill="url(#SVGID_12_)" d="M16.843,55.146c2.186-0.094,3.088,0.951,2.925,1.527c-0.453,1.6-2.117,3.066-4.429,2.428
	c-2.749-0.762-3.58-0.229-4.729-0.457C10.815,57.918,11.996,55.354,16.843,55.146z"/>
<linearGradient id="SVGID_13_" gradientUnits="userSpaceOnUse" x1="360.6309" y1="-150.4116" x2="360.6309" y2="-158.5894" gradientTransform="matrix(0.2486 -0.9686 0.9686 0.2486 76.1609 441.9869)">
	<stop  offset="0" style="stop-color:#FFB500"/>
	<stop  offset="0.0869" style="stop-color:#FFBA00"/>
	<stop  offset="0.6742" style="stop-color:#FFDA00"/>
	<stop  offset="1" style="stop-color:#FFE600"/>
	<a:midPointStop  offset="0" style="stop-color:#FFB500"/>
	<a:midPointStop  offset="0.4242" style="stop-color:#FFB500"/>
	<a:midPointStop  offset="1" style="stop-color:#FFE600"/>
</linearGradient>
<path fill="url(#SVGID_13_)" d="M16.379,56.784c1.869,1.024,3.215,0.499,3.381-0.079c0.454-1.6-0.226-3.604-2.596-4.041
	c-2.817-0.517-3.193-1.586-4.326-1.878C12.632,51.513,12.234,54.513,16.379,56.784z"/>
<path fill="#449C00" d="M19.282,55.365c5.129,0.48,3.203,6.375,3.203,6.375C17.311,59.436,19.282,55.365,19.282,55.365z"/>
<path fill="#56AB15" d="M22.485,61.74L22.485,61.74c-5.577-2.101-3.203-6.375-3.203-6.375S21.764,57.766,22.485,61.74z"/>
</svg>
