<?xml version="1.0" encoding="utf-8"?>
<!-- Generator: Adobe Illustrator 15.0.0, SVG Export Plug-In . SVG Version: 6.00 Build 0)  -->
<!DOCTYPE svg PUBLIC "-//W3C//DTD SVG 1.1//EN" "http://www.w3.org/Graphics/SVG/1.1/DTD/svg11.dtd" [
	<!ENTITY ns_flows "http://ns.adobe.com/Flows/1.0/">
	<!ENTITY ns_extend "http://ns.adobe.com/Extensibility/1.0/">
	<!ENTITY ns_ai "http://ns.adobe.com/AdobeIllustrator/10.0/">
	<!ENTITY ns_graphs "http://ns.adobe.com/Graphs/1.0/">
]>
<svg version="1.1" id="Layer_1" xmlns:x="&ns_extend;" xmlns:i="&ns_ai;" xmlns:graph="&ns_graphs;"
	 xmlns="http://www.w3.org/2000/svg" xmlns:xlink="http://www.w3.org/1999/xlink" xmlns:a="http://ns.adobe.com/AdobeSVGViewerExtensions/3.0/"
	 x="0px" y="0px" width="64px" height="64px" viewBox="0 0 64 64" enable-background="new 0 0 64 64" xml:space="preserve">
<linearGradient id="SVGID_1_" gradientUnits="userSpaceOnUse" x1="21.7314" y1="54.707" x2="42.2529" y2="54.707">
	<stop  offset="0" style="stop-color:#ABBDC4"/>
	<stop  offset="0.2666" style="stop-color:#A8BAC1"/>
	<stop  offset="0.4932" style="stop-color:#9EAFB7"/>
	<stop  offset="0.7051" style="stop-color:#8E9EA6"/>
	<stop  offset="0.9069" style="stop-color:#77858E"/>
	<stop  offset="1" style="stop-color:#6A7780"/>
	<a:midPointStop  offset="0" style="stop-color:#ABBDC4"/>
	<a:midPointStop  offset="0.7394" style="stop-color:#ABBDC4"/>
	<a:midPointStop  offset="1" style="stop-color:#6A7780"/>
</linearGradient>
<path fill="url(#SVGID_1_)" d="M42.253,46.423c-0.226-0.013-20.298-0.013-20.521,0c0.807,5.697,2.227,13.252,2.239,13.405
	C24.129,61.911,28.139,63,32.001,63c3.86-0.001,7.872-1.089,8.029-3.172C40.044,59.657,41.445,52.104,42.253,46.423z"/>
<linearGradient id="SVGID_2_" gradientUnits="userSpaceOnUse" x1="20.6338" y1="45.5576" x2="43.3662" y2="45.5576">
	<stop  offset="0" style="stop-color:#ABBDC4"/>
	<stop  offset="0.1537" style="stop-color:#9FB0B8"/>
	<stop  offset="0.7126" style="stop-color:#79878F"/>
	<stop  offset="1" style="stop-color:#6A7780"/>
	<a:midPointStop  offset="0" style="stop-color:#ABBDC4"/>
	<a:midPointStop  offset="0.4424" style="stop-color:#ABBDC4"/>
	<a:midPointStop  offset="1" style="stop-color:#6A7780"/>
</linearGradient>
<path fill="url(#SVGID_2_)" d="M20.634,45.558c0-4.299,22.732-4.299,22.732,0S20.634,49.856,20.634,45.558z"/>
<linearGradient id="SVGID_3_" gradientUnits="userSpaceOnUse" x1="21.8291" y1="45.1338" x2="42.1729" y2="45.1338">
	<stop  offset="0" style="stop-color:#8A653C"/>
	<stop  offset="0.2032" style="stop-color:#835F38"/>
	<stop  offset="0.5012" style="stop-color:#6F502D"/>
	<stop  offset="0.856" style="stop-color:#4F361B"/>
	<stop  offset="1" style="stop-color:#402A12"/>
	<a:midPointStop  offset="0" style="stop-color:#8A653C"/>
	<a:midPointStop  offset="0.6242" style="stop-color:#8A653C"/>
	<a:midPointStop  offset="1" style="stop-color:#402A12"/>
</linearGradient>
<path fill="url(#SVGID_3_)" d="M21.829,45.134c0-3.348,20.344-3.348,20.344,0S21.829,48.481,21.829,45.134z"/>
<linearGradient id="SVGID_4_" gradientUnits="userSpaceOnUse" x1="21.8291" y1="43.9414" x2="42.1729" y2="43.9414">
	<stop  offset="0" style="stop-color:#525C63"/>
	<stop  offset="0.4702" style="stop-color:#616C72"/>
	<stop  offset="1" style="stop-color:#778387"/>
	<a:midPointStop  offset="0" style="stop-color:#525C63"/>
	<a:midPointStop  offset="0.5576" style="stop-color:#525C63"/>
	<a:midPointStop  offset="1" style="stop-color:#778387"/>
</linearGradient>
<path fill="url(#SVGID_4_)" d="M42.146,45.341c0.02-0.068,0.027-0.135,0.027-0.207c0-3.454-20.344-3.454-20.344,0
	c0,0.072,0.009,0.139,0.025,0.207C22.664,42.27,41.337,42.27,42.146,45.341z"/>
<path fill="#62A100" d="M31.192,45.733c0.069,0.377-3.223,0.328-3.096-0.043c0.708-2.049,0-9.145,0-9.145h2.39
	C30.486,36.546,30.817,43.642,31.192,45.733z"/>
<path fill="#529320" d="M35.906,45.809c0.067,0.376-3.224,0.328-3.096-0.042c0.707-2.05,0-9.221,0-9.221h2.389
	C35.199,36.546,35.53,43.717,35.906,45.809z"/>
<path fill="#62A100" d="M34.356,46.258c0.067,0.376-3.225,0.329-3.096-0.042c0.707-2.049,0-9.67,0-9.67h2.388
	C33.648,36.546,33.979,44.167,34.356,46.258z"/>
<path fill="#529320" d="M32.381,46.513c0.067,0.375-3.225,0.326-3.097-0.043c0.708-2.049,0-9.924,0-9.924h2.389
	C31.673,36.546,32.004,44.421,32.381,46.513z"/>
<path fill="#529320" d="M9.657,42.04c8.12-3.184,8.293-17.292,21.355-2.408C22.428,35.271,16.393,45.014,9.657,42.04z"/>
<path fill="#529320" d="M4.502,29.844c3.485-5.421,9.695-13.04,18.023,4.725C15.63,28.112,9.043,32.152,4.502,29.844z"/>
<path fill="#529320" d="M22.389,3.968c6.643,1.56,16.02,10.001-0.971,22.869C15.448,16.971,26.338,11.657,22.389,3.968z"/>
<path fill="#529320" d="M10.979,11.282C8.97,15.625,9.599,25.4,24.095,24.146C21.2,15.299,13.537,17.817,10.979,11.282z"/>
<path fill="#62A100" d="M13.048,10.535c8.052-1.188,23.85,4.22,15.232,26.402C15.034,28.396,22.64,17.508,13.048,10.535z"/>
<path fill="#71AD15" d="M13.048,10.535C19.963,9.514,32.626,25.75,28.28,36.938C15.034,28.396,22.64,17.508,13.048,10.535z"/>
<path fill="#7AB51D" d="M1,24.031c3.485-5.421,19.19-11.627,27.519,6.137C16.732,33.081,9.99,22.373,1,24.031z"/>
<path fill="#80BA1A" d="M1,24.031c3.867-6.015,24.146-1.056,27.519,6.137C16.732,33.081,9.99,22.373,1,24.031z"/>
<path fill="#92C932" d="M3.155,33.723c12.017-0.224,19.31-20.25,28.621,7.909C22.938,30.854,10.312,41.542,3.155,33.723z"/>
<path fill="#80BA1A" d="M3.155,33.723c15.905-0.297,22.476-10.677,28.621,7.909C22.938,30.854,10.312,41.542,3.155,33.723z"/>
<path fill="#7AB51D" d="M14.658,44.522c6.73-2.639,6.832-14.446,17.724-1.953C25.24,38.896,20.259,47.03,14.658,44.522z"/>
<path fill="#71AD15" d="M14.658,44.522c7.754-3.04,10.983-9.684,17.724-1.953C25.24,38.896,20.259,47.03,14.658,44.522z"/>
<path fill="#529320" d="M52.745,42.46c-8.12-3.182-8.293-17.291-21.356-2.408C39.974,35.691,46.009,45.435,52.745,42.46z"/>
<path fill="#529320" d="M59.438,31.388c-3.485-5.421-9.693-13.04-18.022,4.725C48.31,29.656,54.897,33.696,59.438,31.388z"/>
<path fill="#529320" d="M41.252,5.963c-6.643,1.561-16.02,10.001,0.971,22.869C48.192,18.967,37.303,13.653,41.252,5.963z"/>
<path fill="#529320" d="M52.676,12.84c2.007,4.344,1.38,14.12-13.116,12.865C42.453,16.858,50.115,19.375,52.676,12.84z"/>
<path fill="#62A100" d="M51.759,8.024c-8.052-1.188-23.85,4.22-15.231,26.404C49.772,25.886,42.168,14.998,51.759,8.024z"/>
<path fill="#71AD15" d="M51.759,8.024c-6.917-1.02-19.578,15.215-15.231,26.404C49.772,25.886,42.168,14.998,51.759,8.024z"/>
<path fill="#7AB51D" d="M63,23.839c-3.485-5.421-19.189-11.627-27.519,6.137C47.269,32.89,54.011,22.181,63,23.839z"/>
<path fill="#80BA1A" d="M63,23.839c-3.867-6.014-24.146-1.056-27.519,6.137C47.269,32.89,54.011,22.181,63,23.839z"/>
<path fill="#92C932" d="M60.008,34.171c-12.017-0.225-19.31-20.251-28.619,7.908C40.226,31.303,52.853,41.989,60.008,34.171z"/>
<path fill="#80BA1A" d="M60.008,34.171c-15.904-0.298-22.474-10.678-28.619,7.908C40.226,31.303,52.853,41.989,60.008,34.171z"/>
<path fill="#7AB51D" d="M46.944,47.419c-6.05-4.491-1.785-17.85-17.776-6.181C37.982,38.69,40.17,48.997,46.944,47.419z"/>
<path fill="#71AD15" d="M46.944,47.419c-6.971-5.174-7.881-13.402-17.776-6.181C37.982,38.69,40.17,48.997,46.944,47.419z"/>
<path fill="#7AB51D" d="M32,1c-1.822,8.274-12.282,16.22,0,25.31C34.301,15.152,32,1,32,1z"/>
<path fill="#62A100" d="M32,1c1.823,8.274,12.283,16.22,0,25.31C29.7,15.152,32,1,32,1z"/>
<path fill="#92C932" d="M41.496,14.575c-8.878,9.236-26.172,12.641-9.304,28.852C26.249,29.808,41.731,27.621,41.496,14.575z"/>
<path fill="#80BA1A" d="M41.496,14.575c-3.986,11.123-17.48,15.953-10.32,27.735c0.498,0.82,0.297,2.824,0.08,4.457
	c-0.022,0.174,1.525,0.115,1.552-0.248c0.051-0.729-0.225-2.602-0.005-3.718C34.459,34.362,43.143,28.958,41.496,14.575z"/>
</svg>
