<?xml version="1.0" encoding="utf-8"?>
<!-- Generator: Adobe Illustrator 15.0.0, SVG Export Plug-In . SVG Version: 6.00 Build 0)  -->
<!DOCTYPE svg PUBLIC "-//W3C//DTD SVG 1.1//EN" "http://www.w3.org/Graphics/SVG/1.1/DTD/svg11.dtd" [
	<!ENTITY ns_flows "http://ns.adobe.com/Flows/1.0/">
	<!ENTITY ns_extend "http://ns.adobe.com/Extensibility/1.0/">
	<!ENTITY ns_ai "http://ns.adobe.com/AdobeIllustrator/10.0/">
	<!ENTITY ns_graphs "http://ns.adobe.com/Graphs/1.0/">
]>
<svg version="1.1" id="Layer_1" xmlns:x="&ns_extend;" xmlns:i="&ns_ai;" xmlns:graph="&ns_graphs;"
	 xmlns="http://www.w3.org/2000/svg" xmlns:xlink="http://www.w3.org/1999/xlink" xmlns:a="http://ns.adobe.com/AdobeSVGViewerExtensions/3.0/"
	 x="0px" y="0px" width="64px" height="64px" viewBox="0 0 64 64" enable-background="new 0 0 64 64" xml:space="preserve">
<path fill="#AB805F" d="M41.016,23.251c2.513-0.799,9.406-2.079,12.634-5.514c0.86-0.917,2.147,1.315,1.589,1.658
	c-2.45,1.505-0.91,1.686-0.91,1.686L41.016,23.251z"/>
<path fill="#7D5638" d="M16.093,53.981c2.564-0.568,9.177-2.928,13.596-1.547c1.181,0.366,1.263-2.236,0.615-2.254
	c-2.842-0.084-1.583-1.017-1.583-1.017L16.093,53.981z"/>
<linearGradient id="SVGID_1_" gradientUnits="userSpaceOnUse" x1="38.0156" y1="46.2061" x2="31.4638" y2="25.2404">
	<stop  offset="0" style="stop-color:#7D5638"/>
	<stop  offset="0.1806" style="stop-color:#886041"/>
	<stop  offset="0.6929" style="stop-color:#A17757"/>
	<stop  offset="1" style="stop-color:#AB805F"/>
	<a:midPointStop  offset="0" style="stop-color:#7D5638"/>
	<a:midPointStop  offset="0.4061" style="stop-color:#7D5638"/>
	<a:midPointStop  offset="1" style="stop-color:#AB805F"/>
</linearGradient>
<path fill="url(#SVGID_1_)" d="M10.701,56.89c0,0,23.333-10.773,51.963-18.451c2.039-4.102,1.475-9.26,0.1-13.081l-2.529-0.145
	l1.854-1.487c-0.934-1.983-2.057-3.375-3-3.683C26.201,23.624,3.386,35.499,3.386,35.499L10.701,56.89z"/>
<path fill="#DBB471" d="M13.491,43.658c-2.161-5.861-6.686-9.512-10.104-8.159c-2.658,1.055-3.837,4.835-3.229,9.216l3.577,1.8
	L0.81,47.569c0.102,0.336,0.179,0.669,0.304,1.005c1.221,3.313,3.205,5.877,5.309,7.275l1.314-1.431l0.413,2.297
	c1.059,0.349,2.11,0.4,3.071,0.019C14.636,55.374,15.653,49.525,13.491,43.658z"/>
<path opacity="0.2" fill="#1A1626" d="M58.632,24.898c0,0-23.541,6.25-43.797,14.703C35.766,28.851,58.632,24.898,58.632,24.898z"/>
<path opacity="0.2" fill="#1A1626" d="M60.709,37.251c0,0-23.539,6.249-43.797,14.705C37.845,41.205,60.709,37.251,60.709,37.251z"
	/>
<path opacity="0.2" fill="#1A1626" d="M48.194,25.618c0,0-21.927,5.759-35.883,11.964C26.551,29.221,48.194,25.618,48.194,25.618z"
	/>
<path opacity="0.2" fill="#1A1626" d="M62.27,34.503c0,0-22.638,5.403-36.593,11.606C39.916,37.749,62.27,34.503,62.27,34.503z"/>
<path opacity="0.2" fill="#1A1626" d="M53.505,32.999c0,0-22.637,5.402-36.593,11.606C31.151,36.244,53.505,32.999,53.505,32.999z"
	/>
<path opacity="0.2" fill="#1A1626" d="M61.058,28.313c0,0-23.954,5.087-37.909,11.289C37.387,31.244,61.058,28.313,61.058,28.313z"
	/>
<path opacity="0.2" fill="#1A1626" d="M57.203,21.395c0,0-27.561,6.15-42.05,10.855C30.134,25.43,57.203,21.395,57.203,21.395z"/>
<path fill="#BF9D63" d="M8.003,51.765c-1.985,0-3.883-3.314-4.41-6.411c-0.394-2.305,0.081-3.893,1.302-4.355
	c0.208-0.077,0.421-0.117,0.638-0.117c1.988,0,3.885,3.317,4.413,6.416c0.392,2.304-0.083,3.891-1.304,4.352
	C8.432,51.727,8.22,51.765,8.003,51.765z M5.532,41.42c-0.154,0-0.311,0.028-0.458,0.085c-0.948,0.358-1.31,1.763-0.969,3.756
	c0.523,3.079,2.619,6.538,4.356,5.881c0.948-0.357,1.311-1.76,0.973-3.75C8.955,44.572,7.185,41.42,5.532,41.42z"/>
<path fill="#BF9D63" d="M7.63,49.512c-1.131,0-2.248-2.483-2.55-4.265c-0.208-1.229-0.012-2.023,0.554-2.237
	c0.087-0.033,0.179-0.051,0.273-0.051c1.131,0,2.25,2.485,2.552,4.268c0.208,1.228,0.01,2.021-0.559,2.236
	C7.815,49.495,7.722,49.512,7.63,49.512z M5.907,43.498c-0.033,0-0.064,0.007-0.094,0.017c-0.285,0.108-0.373,0.752-0.223,1.64
	c0.325,1.91,1.502,4.022,2.133,3.801c0.285-0.107,0.373-0.748,0.223-1.635C7.639,45.5,6.57,43.498,5.907,43.498z"/>
<path fill="#BF9D63" d="M7.126,47.164c-0.392,0.149-1.108-1.884-0.714-2.03C6.803,44.985,7.518,47.018,7.126,47.164z"/>
<path fill="#BF9D63" d="M2.745,45.243c-0.521-3.049,0.167-5.247,1.84-5.881c0.296-0.112,0.598-0.167,0.902-0.167
	c2.636,0,5.113,4.152,5.775,8.031c0.519,3.049-0.168,5.249-1.844,5.883c-0.293,0.11-0.598,0.166-0.9,0.166
	c-2.296,0-4.471-3.151-5.429-6.53l-0.492,0.178c1.011,3.554,3.317,6.892,5.921,6.892c0.365,0,0.727-0.066,1.079-0.199
	c1.929-0.73,2.742-3.154,2.177-6.482c-0.696-4.078-3.296-8.478-6.288-8.478c-0.364,0-0.727,0.068-1.079,0.201
	c-1.929,0.729-2.742,3.152-2.175,6.481c0.025,0.157,0.075,0.316,0.106,0.473l0.602,0.303C2.872,45.824,2.792,45.533,2.745,45.243z"
	/>
<path fill="#BF9D63" d="M6.524,54.854l0.063-0.607c-1.919-1.392-3.546-4.198-4.429-7.165L1.666,47.26
	C2.607,50.435,4.372,53.441,6.524,54.854z"/>
<path fill="#BF9D63" d="M13.32,47.193c-0.869-5.097-4.156-10.599-7.954-10.599c-0.473,0-0.946,0.089-1.404,0.262
	c-2.483,0.939-3.536,4.023-2.817,8.248c0.009,0.04,0.019,0.08,0.027,0.12l0.594,0.3c-0.033-0.172-0.079-0.343-0.108-0.514
	c-0.673-3.946,0.256-6.805,2.483-7.647c0.4-0.153,0.813-0.23,1.225-0.23c3.417,0,6.606,5.251,7.441,10.154
	c0.671,3.947-0.258,6.805-2.485,7.647c-0.4,0.153-0.813,0.229-1.223,0.229c-0.427,0-0.85-0.083-1.267-0.234l0.104,0.589
	c0.381,0.112,0.769,0.185,1.163,0.185c0.471,0,0.943-0.088,1.402-0.262C12.984,54.501,14.039,51.419,13.32,47.193z"/>
<polygon fill="#45332E" points="6.417,55.888 7.833,54.962 7.001,49.876 "/>
<polygon fill="#45332E" points="7.301,35.836 7.301,46.116 9.284,37.218 17.324,33.312 "/>
<path fill="#AB805F" d="M50.24,29.667c-2.094-1.786-8.26-5.902-9.829-10.278c-0.418-1.169-2.717,0.198-2.327,0.739
	c1.702,2.368,0.11,1.854,0.11,1.854L50.24,29.667z"/>
<path fill="#7D5638" d="M20.628,35.808c-2.519-1.243-8.75-5.273-13.781-5.233c-1.344,0.009-0.667-2.422,0.017-2.258
	c3,0.72,1.954-0.496,1.954-0.496L20.628,35.808z"/>
<linearGradient id="SVGID_2_" gradientUnits="userSpaceOnUse" x1="-1809.584" y1="-275.5342" x2="-1816.1117" y2="-296.4227" gradientTransform="matrix(-0.945 -0.3269 -0.3269 0.945 -1776.1768 -293.5487)">
	<stop  offset="0" style="stop-color:#7D5638"/>
	<stop  offset="0.1806" style="stop-color:#886041"/>
	<stop  offset="0.6929" style="stop-color:#A17757"/>
	<stop  offset="1" style="stop-color:#AB805F"/>
	<a:midPointStop  offset="0" style="stop-color:#7D5638"/>
	<a:midPointStop  offset="0.4061" style="stop-color:#7D5638"/>
	<a:midPointStop  offset="1" style="stop-color:#AB805F"/>
</linearGradient>
<path fill="url(#SVGID_2_)" d="M47.337,56.325c0,0-20.346-17.421-47.215-33.753c-0.692-4.399,1.665-8.908,4.396-11.934l2.656,0.694
	l-1.4-1.959c1.644-1.5,3.279-2.4,4.356-2.372C42.797,20.997,62.229,39.25,62.229,39.25L47.337,56.325z"/>
<path fill="#DBB471" d="M49.012,43.376c4.239-4.628,10.158-6.473,13.217-4.126c2.377,1.83,2.293,5.653,0.16,9.44l-4.305,0.468
	l2.652,1.916c-0.223,0.272-0.417,0.548-0.66,0.815c-2.398,2.615-5.321,4.302-7.973,4.887l-0.863-1.731L50.028,57
	c-1.213-0.027-2.313-0.323-3.173-0.985C43.799,53.66,44.764,48.008,49.012,43.376z"/>
<path opacity="0.2" fill="#1A1626" d="M8.935,11.567c0,0,22.114,13.374,40.085,27.681C31.141,22.631,8.935,11.567,8.935,11.567z"/>
<path opacity="0.2" fill="#1A1626" d="M2.545,22.128c0,0,22.114,13.373,40.085,27.68C24.751,33.191,2.545,22.128,2.545,22.128z"/>
<path opacity="0.2" fill="#1A1626" d="M19.443,15.63c0,0,20.619,12.399,32.871,22.6C40.512,25.977,19.443,15.63,19.443,15.63z"/>
<path opacity="0.2" fill="#1A1626" d="M1.882,19.119c0,0,21.475,12.306,33.725,22.508C23.805,29.372,1.882,19.119,1.882,19.119z"/>
<path opacity="0.2" fill="#1A1626" d="M11.432,20.611c0,0,21.475,12.307,33.725,22.509C33.355,30.864,11.432,20.611,11.432,20.611z"
	/>
<path opacity="0.2" fill="#1A1626" d="M5.259,13.882c0,0,22.939,12.45,35.192,22.652C28.647,24.278,5.259,13.882,5.259,13.882z"/>
<path opacity="0.2" fill="#1A1626" d="M11.609,8.847c0,0,26.292,14.595,39.608,23.606C38.122,21.355,11.609,8.847,11.609,8.847z"/>
<path fill="#BF9D63" d="M51.264,52.23c-1.103-0.819-1.048-2.417,0.149-4.387c1.606-2.646,4.707-5.044,6.753-4.396
	c0.223,0.068,0.431,0.175,0.616,0.314c1.1,0.818,1.044,2.418-0.154,4.387c-1.606,2.645-4.704,5.042-6.75,4.395
	C51.655,52.474,51.449,52.368,51.264,52.23z M51.907,48.097c-1.031,1.7-1.14,3.095-0.287,3.73c1.566,1.165,4.914-1.3,6.512-3.93
	c1.036-1.7,1.146-3.098,0.294-3.732c-0.135-0.1-0.285-0.177-0.443-0.227C56.28,43.399,53.37,45.689,51.907,48.097z"/>
<path fill="#BF9D63" d="M52.776,50.48c-0.513-0.38-0.442-1.166,0.193-2.214c0.925-1.522,2.93-3.42,4.096-3.05
	c0.098,0.029,0.188,0.075,0.265,0.133c0.511,0.381,0.439,1.17-0.198,2.22c-0.923,1.519-2.929,3.415-4.094,3.045
	C52.942,50.584,52.854,50.539,52.776,50.48z M53.464,48.519c-0.459,0.757-0.59,1.369-0.332,1.559
	c0.575,0.409,2.513-1.127,3.505-2.762c0.462-0.759,0.592-1.371,0.335-1.563c-0.027-0.021-0.056-0.037-0.092-0.045
	C56.197,45.489,54.409,46.961,53.464,48.519z"/>
<path fill="#BF9D63" d="M54.363,48.644c0.354,0.264,1.79-1.353,1.436-1.614C55.447,46.766,54.01,48.383,54.363,48.644z"/>
<path fill="#BF9D63" d="M59.541,48.327c1.583-2.604,1.629-4.83,0.125-5.953c-0.267-0.196-0.559-0.347-0.873-0.444
	c-2.717-0.863-6.696,2.107-8.711,5.421c-1.585,2.604-1.631,4.83-0.125,5.953c0.265,0.197,0.559,0.348,0.871,0.446
	c2.369,0.75,5.691-1.407,7.842-4.168l0.445,0.32c-2.265,2.905-5.789,5.189-8.473,4.338c-0.375-0.119-0.725-0.298-1.042-0.533
	c-1.737-1.296-1.743-3.766-0.014-6.608c2.116-3.484,6.31-6.639,9.394-5.66c0.375,0.117,0.725,0.299,1.044,0.533
	c1.735,1.296,1.739,3.766,0.012,6.607c-0.081,0.136-0.186,0.265-0.272,0.397l-0.726,0.077
	C59.209,48.814,59.391,48.574,59.541,48.327z"/>
<path fill="#BF9D63" d="M52.341,55.837l0.146-0.573c2.456-0.639,5.096-2.662,7.027-5.071l0.445,0.322
	C57.896,53.094,55.045,55.253,52.341,55.837z"/>
<path fill="#BF9D63" d="M47.972,46.647c2.646-4.353,7.928-8.285,11.84-7.047c0.487,0.155,0.943,0.391,1.356,0.698
	c2.237,1.666,2.263,4.815,0.068,8.423c-0.021,0.034-0.048,0.067-0.068,0.102L60.451,48.9c0.096-0.145,0.202-0.286,0.289-0.43
	c2.051-3.371,2.077-6.277,0.069-7.769c-0.36-0.27-0.759-0.476-1.184-0.61c-3.521-1.115-8.614,2.62-11.158,6.81
	c-2.05,3.372-2.075,6.275-0.068,7.769c0.36,0.271,0.76,0.475,1.183,0.609c0.439,0.139,0.904,0.202,1.384,0.199l-0.309,0.503
	c-0.432-0.022-0.854-0.085-1.261-0.211c-0.487-0.154-0.941-0.391-1.355-0.698C45.806,53.405,45.778,50.258,47.972,46.647z"/>
<polygon fill="#45332E" points="52.097,56.813 50.955,55.508 53.562,51.15 "/>
<polygon fill="#45332E" points="58.078,38.278 54.545,47.634 55.558,38.89 48.615,32.711 "/>
</svg>
