<?xml version="1.0" encoding="utf-8"?>
<!-- Generator: Adobe Illustrator 15.0.0, SVG Export Plug-In . SVG Version: 6.00 Build 0)  -->
<!DOCTYPE svg PUBLIC "-//W3C//DTD SVG 1.1//EN" "http://www.w3.org/Graphics/SVG/1.1/DTD/svg11.dtd" [
	<!ENTITY ns_flows "http://ns.adobe.com/Flows/1.0/">
	<!ENTITY ns_extend "http://ns.adobe.com/Extensibility/1.0/">
	<!ENTITY ns_ai "http://ns.adobe.com/AdobeIllustrator/10.0/">
	<!ENTITY ns_graphs "http://ns.adobe.com/Graphs/1.0/">
]>
<svg version="1.1" id="Layer_1" xmlns:x="&ns_extend;" xmlns:i="&ns_ai;" xmlns:graph="&ns_graphs;"
	 xmlns="http://www.w3.org/2000/svg" xmlns:xlink="http://www.w3.org/1999/xlink" xmlns:a="http://ns.adobe.com/AdobeSVGViewerExtensions/3.0/"
	 x="0px" y="0px" width="64px" height="64px" viewBox="0 0 64 64" enable-background="new 0 0 64 64" xml:space="preserve">
<linearGradient id="SVGID_1_" gradientUnits="userSpaceOnUse" x1="175.5586" y1="-1111.7603" x2="175.5586" y2="-1183.1626" gradientTransform="matrix(0.7071 0.7071 -0.7071 0.7071 -906.4956 711.1215)">
	<stop  offset="0.2424" style="stop-color:#A3A9AD"/>
	<stop  offset="0.4104" style="stop-color:#9FB4C2"/>
	<stop  offset="0.6952" style="stop-color:#9AC4E1"/>
	<stop  offset="0.8545" style="stop-color:#98CAED"/>
	<a:midPointStop  offset="0.2424" style="stop-color:#A3A9AD"/>
	<a:midPointStop  offset="0.4224" style="stop-color:#A3A9AD"/>
	<a:midPointStop  offset="0.8545" style="stop-color:#98CAED"/>
</linearGradient>
<path fill="url(#SVGID_1_)" d="M47.978,3.744c-1.272,2.102-2.42,4.222-3.442,6.352c0.608-2.013,1.312-4.029,2.111-6.044
	c-4.564,1.13-9.802,3.243-14.931,6.302c-0.748,2.035-1.398,4.071-1.954,6.097c0.202-1.786,0.47-3.587,0.806-5.397
	c-0.86,0.536-1.716,1.098-2.563,1.684c-0.812,2.603-1.471,5.198-1.984,7.771c0.093-2.232,0.284-4.493,0.58-6.775
	c-4.97,3.614-9.565,8.062-13.274,12.827c-0.188,2.73-0.23,5.422-0.137,8.063c-0.417-2.15-0.747-4.344-0.989-6.577
	c-0.446,0.607-0.879,1.218-1.297,1.831c-0.062,2.983,0.048,5.915,0.318,8.777c-0.585-2.294-1.071-4.646-1.457-7.048
	c-0.957,1.512-1.825,3.028-2.599,4.527c0.206,3.094,0.59,6.117,1.142,9.055c-0.774-2.186-1.462-4.436-2.055-6.74
	C5.773,41.26,6.616,45.986,6.54,51.906c9.875-22.271,29.742-39.34,54.352-46.184C60.14,3.101,55.122,2.227,47.978,3.744z"/>
<linearGradient id="SVGID_2_" gradientUnits="userSpaceOnUse" x1="180.5801" y1="-1111.7603" x2="180.5801" y2="-1182.8501" gradientTransform="matrix(0.7071 0.7071 -0.7071 0.7071 -906.4956 711.1215)">
	<stop  offset="0.1333" style="stop-color:#736B65"/>
	<stop  offset="0.2859" style="stop-color:#6F7C85"/>
	<stop  offset="0.4998" style="stop-color:#6990AB"/>
	<stop  offset="0.6972" style="stop-color:#659EC7"/>
	<stop  offset="0.8702" style="stop-color:#63A7D8"/>
	<stop  offset="1" style="stop-color:#62AADE"/>
	<a:midPointStop  offset="0.1333" style="stop-color:#736B65"/>
	<a:midPointStop  offset="0.3542" style="stop-color:#736B65"/>
	<a:midPointStop  offset="1" style="stop-color:#62AADE"/>
</linearGradient>
<path fill="url(#SVGID_2_)" d="M10.376,48.003c2.103-0.913,4.212-1.716,6.318-2.413c0.825-0.429,1.466-0.83,1.862-1.283
	c0.723-0.828,1.469-1.67,2.237-2.516c-2.266,0.221-4.553,0.542-6.854,0.971c2.682-0.914,5.362-1.66,8.023-2.247
	c1.18-1.272,2.403-2.551,3.67-3.819c-1.553,0.003-3.121,0.053-4.701,0.151c1.841-0.384,3.671-0.695,5.487-0.934
	c2.931-2.895,6.066-5.713,9.267-8.334c-2.204-0.387-4.458-0.686-6.751-0.89c2.673-0.146,5.305-0.152,7.883-0.027
	c2.051-1.647,4.116-3.211,6.142-4.684c-1.48-0.437-2.988-0.835-4.521-1.19c1.792,0.152,3.557,0.363,5.29,0.634
	c2.448-1.766,4.824-3.391,7.001-4.893c-2.078-0.868-4.224-1.661-6.429-2.371c2.563,0.435,5.062,0.983,7.484,1.639
	c5.744-3.988,9.951-7.174,9.105-10.074C36.282,12.566,16.415,29.635,6.54,51.906c2.317-2.189,4.699-3.594,6.72-4.628
	C12.3,47.5,11.339,47.741,10.376,48.003z"/>
<path opacity="0.25" fill="#3D2B21" d="M21.936,39.419c-3.255,0.45-6.552,1.122-9.864,2.028c-0.129,0.202-0.256,0.404-0.383,0.608
	C15.12,40.917,18.547,40.043,21.936,39.419z"/>
<path opacity="0.25" fill="#3D2B21" d="M17.967,44.354c-3.215,0.725-6.453,1.678-9.687,2.868c-0.112,0.214-0.222,0.427-0.331,0.643
	C11.282,46.432,14.633,45.265,17.967,44.354z"/>
<path opacity="0.25" fill="#3D2B21" d="M26.885,33.629c-3.282,0.132-6.627,0.479-10.012,1.051c-0.148,0.188-0.295,0.376-0.442,0.565
	C19.957,34.454,23.452,33.92,26.885,33.629z"/>
<path opacity="0.25" fill="#3D2B21" d="M28.451,32.341c-3.278,0.044-6.627,0.299-10.021,0.78c-0.152,0.184-0.304,0.367-0.456,0.552
	C21.515,32.979,25.019,32.54,28.451,32.341z"/>
<path opacity="0.25" fill="#3D2B21" d="M32.272,28.767c-3.274-0.173-6.633-0.139-10.052,0.115c-0.165,0.173-0.33,0.347-0.493,0.521
	C25.307,28.946,28.833,28.739,32.272,28.767z"/>
<path opacity="0.25" fill="#3D2B21" d="M38.522,24.429c-3.528-0.562-7.182-0.891-10.93-0.968c-0.196,0.17-0.394,0.342-0.589,0.515
	C30.948,23.848,34.8,24.006,38.522,24.429z"/>
<path opacity="0.25" fill="#3D2B21" d="M39.578,22.713c-3.24-0.55-6.589-0.905-10.022-1.052c-0.187,0.153-0.374,0.306-0.561,0.46
	C32.616,22.084,36.152,22.288,39.578,22.713z"/>
<path opacity="0.25" fill="#3D2B21" d="M43.667,19.807c-3.21-0.743-6.54-1.299-9.966-1.649c-0.198,0.14-0.396,0.282-0.593,0.425
	C36.734,18.763,40.263,19.178,43.667,19.807z"/>
<path opacity="0.25" fill="#3D2B21" d="M47.618,18.327c-3.154-0.912-6.438-1.645-9.828-2.179c-0.204,0.13-0.409,0.262-0.612,0.393
	C40.775,16.917,44.265,17.518,47.618,18.327z"/>
<path opacity="0.25" fill="#3D2B21" d="M50.162,16.693c-3.131-1.021-6.396-1.868-9.774-2.521c-0.212,0.124-0.423,0.248-0.633,0.372
	C43.35,15.045,46.826,15.769,50.162,16.693z"/>
<path opacity="0.25" fill="#3D2B21" d="M55.945,12.073c-2.919-0.544-5.924-0.934-8.997-1.157c-0.232,0.11-0.463,0.22-0.694,0.333
	C49.558,11.335,52.796,11.613,55.945,12.073z"/>
<path opacity="0.25" fill="#3D2B21" d="M53.36,14.074c-3.054-0.783-6.222-1.398-9.481-1.828c-0.228,0.118-0.454,0.237-0.68,0.358
	C46.688,12.886,50.083,13.382,53.36,14.074z"/>
<path opacity="0.25" fill="#3D2B21" d="M58.585,9.935c-2.257-0.454-4.563-0.817-6.912-1.087c-0.185,0.075-0.37,0.149-0.554,0.227
	C53.652,9.251,56.145,9.54,58.585,9.935z"/>
<path opacity="0.25" fill="#3D2B21" d="M11.902,29.421c0.165,3.439,0.552,6.795,1.145,10.047c-0.134,0.199-0.268,0.399-0.4,0.6
	C12.158,36.62,11.903,33.061,11.902,29.421z"/>
<path opacity="0.25" fill="#3D2B21" d="M9.243,33.692c0.372,3.418,0.961,6.741,1.748,9.949c-0.122,0.206-0.243,0.411-0.362,0.619
	C9.932,40.852,9.464,37.319,9.243,33.692z"/>
<path opacity="0.25" fill="#3D2B21" d="M14.385,26.647c0.02,3.438,0.266,6.803,0.721,10.069c-0.143,0.192-0.284,0.386-0.425,0.58
	C14.337,33.84,14.231,30.28,14.385,26.647z"/>
<path opacity="0.25" fill="#3D2B21" d="M20.454,20.126c-0.34,3.428-0.444,6.8-0.329,10.094c-0.162,0.179-0.322,0.357-0.483,0.538
	C19.657,27.285,19.922,23.731,20.454,20.126z"/>
<path opacity="0.25" fill="#3D2B21" d="M22.82,18.013c-0.465,3.414-0.693,6.78-0.697,10.075c-0.168,0.174-0.336,0.348-0.503,0.521
	C21.762,25.141,22.157,21.599,22.82,18.013z"/>
<path opacity="0.25" fill="#3D2B21" d="M28.393,12.995c-0.812,3.691-1.335,7.347-1.586,10.93c-0.196,0.174-0.391,0.348-0.585,0.523
	C26.632,20.688,27.349,16.856,28.393,12.995z"/>
<path opacity="0.25" fill="#3D2B21" d="M34.01,10.023c-1.003,3.312-1.76,6.607-2.28,9.861c-0.193,0.147-0.386,0.294-0.577,0.441
	C31.835,16.92,32.782,13.476,34.01,10.023z"/>
<path opacity="0.25" fill="#3D2B21" d="M35.962,8.694c-1.206,3.485-2.13,6.963-2.785,10.401c-0.195,0.142-0.39,0.285-0.584,0.43
	C33.411,15.938,34.529,12.315,35.962,8.694z"/>
<path opacity="0.25" fill="#3D2B21" d="M39.239,7.032c-1.237,3.244-2.225,6.488-2.972,9.703c-0.204,0.135-0.405,0.271-0.607,0.406
	C36.579,13.783,37.769,10.403,39.239,7.032z"/>
<path opacity="0.25" fill="#3D2B21" d="M42.829,5.379c-1.387,3.19-2.521,6.391-3.412,9.574c-0.209,0.125-0.417,0.252-0.625,0.38
	C39.86,12.016,41.203,8.687,42.829,5.379z"/>
<path opacity="0.25" fill="#3D2B21" d="M45.666,4.456c-1.49,3.146-2.726,6.306-3.719,9.456c-0.213,0.119-0.424,0.238-0.635,0.359
	C42.485,10.993,43.934,7.71,45.666,4.456z"/>
<path opacity="0.25" fill="#3D2B21" d="M53.341,3.236c-2.104,2.354-4.008,4.774-5.716,7.234c-0.233,0.108-0.467,0.218-0.699,0.328
	C48.84,8.213,50.978,5.683,53.341,3.236z"/>
<path opacity="0.25" fill="#3D2B21" d="M49.562,3.481c-1.879,2.78-3.523,5.605-4.94,8.45c-0.229,0.116-0.456,0.233-0.683,0.352
	C45.553,9.31,47.425,6.364,49.562,3.481z"/>
<path opacity="0.25" fill="#3D2B21" d="M55.574,3.821c-1.653,1.733-3.191,3.51-4.614,5.317c-0.185,0.076-0.367,0.152-0.552,0.229
	C52.001,7.475,53.722,5.621,55.574,3.821z"/>
<path opacity="0.25" fill="#3D2B21" d="M58.832,4.09c-1.721,1.285-3.358,2.618-4.914,3.99c-0.18,0.066-0.358,0.134-0.537,0.201
	C55.104,6.832,56.921,5.432,58.832,4.09z"/>
<linearGradient id="SVGID_3_" gradientUnits="userSpaceOnUse" x1="163.8633" y1="-1122.3696" x2="204.7995" y2="-1163.3059" gradientTransform="matrix(0.7071 0.7071 -0.7071 0.7071 -906.4956 711.1215)">
	<stop  offset="0" style="stop-color:#B3ACA1"/>
	<stop  offset="0.0478" style="stop-color:#ACA69D"/>
	<stop  offset="0.5021" style="stop-color:#697378"/>
	<stop  offset="0.8314" style="stop-color:#3F5362"/>
	<stop  offset="1" style="stop-color:#2F4759"/>
	<a:midPointStop  offset="0" style="stop-color:#B3ACA1"/>
	<a:midPointStop  offset="0.4424" style="stop-color:#B3ACA1"/>
	<a:midPointStop  offset="1" style="stop-color:#2F4759"/>
</linearGradient>
<path fill="url(#SVGID_3_)" d="M60.892,5.723c-19.953,5.475-31.957,14.893-39.946,23.081c-7.929,8.364-11.842,15.498-14.24,20.474
	C2.4,59.263,2.902,61.018,3.167,60.974c0.492,0.263,0.781-1.311,5.255-10.956c2.42-4.813,6.177-11.787,13.735-20.168
	C29.797,21.635,41.239,12.014,60.892,5.723z"/>
</svg>
