<?xml version="1.0" encoding="utf-8"?>
<!-- Generator: Adobe Illustrator 15.0.0, SVG Export Plug-In . SVG Version: 6.00 Build 0)  -->
<!DOCTYPE svg PUBLIC "-//W3C//DTD SVG 1.1//EN" "http://www.w3.org/Graphics/SVG/1.1/DTD/svg11.dtd" [
	<!ENTITY ns_flows "http://ns.adobe.com/Flows/1.0/">
	<!ENTITY ns_extend "http://ns.adobe.com/Extensibility/1.0/">
	<!ENTITY ns_ai "http://ns.adobe.com/AdobeIllustrator/10.0/">
	<!ENTITY ns_graphs "http://ns.adobe.com/Graphs/1.0/">
]>
<svg version="1.1" id="Layer_1" xmlns:x="&ns_extend;" xmlns:i="&ns_ai;" xmlns:graph="&ns_graphs;"
	 xmlns="http://www.w3.org/2000/svg" xmlns:xlink="http://www.w3.org/1999/xlink" xmlns:a="http://ns.adobe.com/AdobeSVGViewerExtensions/3.0/"
	 x="0px" y="0px" width="64px" height="64px" viewBox="0 0 64 64" enable-background="new 0 0 64 64" xml:space="preserve">
<linearGradient id="SVGID_1_" gradientUnits="userSpaceOnUse" x1="40.8311" y1="27.6929" x2="40.8311" y2="2.0552">
	<stop  offset="0" style="stop-color:#0094EB"/>
	<stop  offset="0.158" style="stop-color:#0C9BEF"/>
	<stop  offset="0.7093" style="stop-color:#32AFFB"/>
	<stop  offset="1" style="stop-color:#40B7FF"/>
	<a:midPointStop  offset="0" style="stop-color:#0094EB"/>
	<a:midPointStop  offset="0.4364" style="stop-color:#0094EB"/>
	<a:midPointStop  offset="1" style="stop-color:#40B7FF"/>
</linearGradient>
<path fill="url(#SVGID_1_)" d="M52.471,16.771c-1.451,7.001-7.842,11.827-14.27,10.779c-6.428-1.047-10.463-7.571-9.009-14.572
	c1.452-7.001,7.843-11.827,14.272-10.779C49.893,3.245,53.924,9.77,52.471,16.771z"/>
<linearGradient id="SVGID_2_" gradientUnits="userSpaceOnUse" x1="34.6484" y1="62" x2="34.6484" y2="19.3525">
	<stop  offset="0" style="stop-color:#0094EB"/>
	<stop  offset="0.158" style="stop-color:#0C9BEF"/>
	<stop  offset="0.7093" style="stop-color:#32AFFB"/>
	<stop  offset="1" style="stop-color:#40B7FF"/>
	<a:midPointStop  offset="0" style="stop-color:#0094EB"/>
	<a:midPointStop  offset="0.4364" style="stop-color:#0094EB"/>
	<a:midPointStop  offset="1" style="stop-color:#40B7FF"/>
</linearGradient>
<path fill="url(#SVGID_2_)" d="M35.27,24.689c-4.374,0.362-20.691-3.869-21.5-4.79c-2.17-2.471-8.748,4-3.466,7.929
	c0,0,5.521,20.52,17.301,34.119C29.038,61.982,30.505,62,32,62c16.018,0,29-2.066,29-4.615C61,26.636,54.842,23.067,35.27,24.689z"
	/>
<linearGradient id="SVGID_3_" gradientUnits="userSpaceOnUse" x1="24.8433" y1="29.1597" x2="24.8433" y2="2">
	<stop  offset="0" style="stop-color:#004F7D"/>
	<stop  offset="0.2634" style="stop-color:#005688"/>
	<stop  offset="0.7261" style="stop-color:#0068A5"/>
	<stop  offset="1" style="stop-color:#0075BA"/>
	<a:midPointStop  offset="0" style="stop-color:#004F7D"/>
	<a:midPointStop  offset="0.5818" style="stop-color:#004F7D"/>
	<a:midPointStop  offset="1" style="stop-color:#0075BA"/>
</linearGradient>
<path fill="url(#SVGID_3_)" d="M36.588,12.591c2.373,7.314-0.963,14.582-7.45,16.233c-6.486,1.651-13.667-2.94-16.041-10.254
	c-2.371-7.314,0.965-14.583,7.451-16.233C27.034,0.685,34.217,5.276,36.588,12.591z"/>
<linearGradient id="SVGID_4_" gradientUnits="userSpaceOnUse" x1="49.9297" y1="29.1597" x2="49.9297" y2="21.5508">
	<stop  offset="0" style="stop-color:#004F7D"/>
	<stop  offset="0.2634" style="stop-color:#005688"/>
	<stop  offset="0.7261" style="stop-color:#0068A5"/>
	<stop  offset="1" style="stop-color:#0075BA"/>
	<a:midPointStop  offset="0" style="stop-color:#004F7D"/>
	<a:midPointStop  offset="0.5818" style="stop-color:#004F7D"/>
	<a:midPointStop  offset="1" style="stop-color:#0075BA"/>
</linearGradient>
<path fill="url(#SVGID_4_)" d="M53.846,27.993c-7.684,3.021-11.131-0.455-8.545-3.289C52.607,16.7,58.275,26.25,53.846,27.993z"/>
<linearGradient id="SVGID_5_" gradientUnits="userSpaceOnUse" x1="24.6255" y1="61.9473" x2="24.6255" y2="27.8286">
	<stop  offset="0" style="stop-color:#004F7D"/>
	<stop  offset="0.2634" style="stop-color:#005688"/>
	<stop  offset="0.7261" style="stop-color:#0068A5"/>
	<stop  offset="1" style="stop-color:#0075BA"/>
	<a:midPointStop  offset="0" style="stop-color:#004F7D"/>
	<a:midPointStop  offset="0.5818" style="stop-color:#004F7D"/>
	<a:midPointStop  offset="1" style="stop-color:#0075BA"/>
</linearGradient>
<path fill="url(#SVGID_5_)" d="M39.379,32.391c-3.652,3.622-9.995,8.961-13.484,6.594c-2.569-1.742-15.591-11.156-15.591-11.156
	C3.172,30.79,3,49.797,3,57.385c0,2.311,10.677,4.227,24.606,4.563c0,0-2.801-12.875-0.949-12
	c6.432,3.043,17.608-8.258,19.297-13.474C47.547,31.563,42.307,29.487,39.379,32.391z"/>
</svg>
