<?xml version="1.0" encoding="utf-8"?>
<!-- Generator: Adobe Illustrator 15.0.0, SVG Export Plug-In . SVG Version: 6.00 Build 0)  -->
<!DOCTYPE svg PUBLIC "-//W3C//DTD SVG 1.1//EN" "http://www.w3.org/Graphics/SVG/1.1/DTD/svg11.dtd" [
	<!ENTITY ns_flows "http://ns.adobe.com/Flows/1.0/">
	<!ENTITY ns_extend "http://ns.adobe.com/Extensibility/1.0/">
	<!ENTITY ns_ai "http://ns.adobe.com/AdobeIllustrator/10.0/">
	<!ENTITY ns_graphs "http://ns.adobe.com/Graphs/1.0/">
]>
<svg version="1.1" id="Layer_1" xmlns:x="&ns_extend;" xmlns:i="&ns_ai;" xmlns:graph="&ns_graphs;"
	 xmlns="http://www.w3.org/2000/svg" xmlns:xlink="http://www.w3.org/1999/xlink" xmlns:a="http://ns.adobe.com/AdobeSVGViewerExtensions/3.0/"
	 x="0px" y="0px" width="64px" height="64px" viewBox="0 0 64 64" enable-background="new 0 0 64 64" xml:space="preserve">
<radialGradient id="SVGID_1_" cx="276.083" cy="-295.2617" r="16.6938" gradientTransform="matrix(0.9776 0 0 -0.9652 -253.3497 -268.4082)" gradientUnits="userSpaceOnUse">
	<stop  offset="0" style="stop-color:#5782D9"/>
	<stop  offset="0.3982" style="stop-color:#3C6DBD"/>
	<stop  offset="1" style="stop-color:#0D488C"/>
	<a:midPointStop  offset="0" style="stop-color:#5782D9"/>
	<a:midPointStop  offset="0.5333" style="stop-color:#5782D9"/>
	<a:midPointStop  offset="1" style="stop-color:#0D488C"/>
</radialGradient>
<path fill="url(#SVGID_1_)" d="M36.638,20.114c0,21.484-32.638,21.484-32.638,0C4-1.372,36.638-1.372,36.638,20.114z"/>
<radialGradient id="SVGID_2_" cx="295.5879" cy="-296.0923" r="16.6947" gradientTransform="matrix(0.9776 0 0 -0.9652 -249.0567 -262.2051)" gradientUnits="userSpaceOnUse">
	<stop  offset="0" style="stop-color:#5782D9"/>
	<stop  offset="0.3982" style="stop-color:#3C6DBD"/>
	<stop  offset="1" style="stop-color:#0D488C"/>
	<a:midPointStop  offset="0" style="stop-color:#5782D9"/>
	<a:midPointStop  offset="0.5333" style="stop-color:#5782D9"/>
	<a:midPointStop  offset="1" style="stop-color:#0D488C"/>
</radialGradient>
<path fill="url(#SVGID_2_)" d="M60,27.118c0,21.484-32.64,21.484-32.64,0S60,5.634,60,27.118z"/>
<radialGradient id="SVGID_3_" cx="282.5215" cy="-317.5479" r="18.6165" gradientTransform="matrix(0.9776 0 0 -0.9652 -253.3487 -268.4073)" gradientUnits="userSpaceOnUse">
	<stop  offset="0" style="stop-color:#5782D9"/>
	<stop  offset="0.3982" style="stop-color:#3C6DBD"/>
	<stop  offset="1" style="stop-color:#0D488C"/>
	<a:midPointStop  offset="0" style="stop-color:#5782D9"/>
	<a:midPointStop  offset="0.5333" style="stop-color:#5782D9"/>
	<a:midPointStop  offset="1" style="stop-color:#0D488C"/>
</radialGradient>
<path fill="url(#SVGID_3_)" d="M45.247,42.032c0,23.957-36.396,23.957-36.396,0C8.851,18.073,45.247,18.073,45.247,42.032z"/>
<path opacity="0.2" fill="#FFFFFF" d="M18.778,54.666c0.149-1.407-2.558-3.267-1.001-5.372c0.357-0.487-4.655-1.941-4.123-3.041
	c0.698-1.446,4.814-1.474,4.338-2.518c-0.782-1.723,0.832-4.777,1.347-4.654c1.832,0.439,5.58-0.48,5.58,3.256
	c0,0.797,4.969-1.994,5.372-0.904c1.852,5.015-2.514,6.117-1.595,6.705c1.479,0.947,0.922,4.264,1.239,5.477
	c0.343,1.305-5.347,0.502-6.041-1.839C23.414,50.15,18.494,57.323,18.778,54.666z"/>
<radialGradient id="SVGID_4_" cx="24.3057" cy="27.6216" r="7.1206" gradientTransform="matrix(0.9655 0 0 0.9655 -1.051 20.1164)" gradientUnits="userSpaceOnUse">
	<stop  offset="0" style="stop-color:#76A0F7"/>
	<stop  offset="0.2687" style="stop-color:#749DF4"/>
	<stop  offset="0.4556" style="stop-color:#6D95EB"/>
	<stop  offset="0.6177" style="stop-color:#6187DC"/>
	<stop  offset="0.7656" style="stop-color:#4F74C6"/>
	<stop  offset="0.9027" style="stop-color:#3A5AAA"/>
	<stop  offset="1" style="stop-color:#264491"/>
	<a:midPointStop  offset="0" style="stop-color:#76A0F7"/>
	<a:midPointStop  offset="0.7758" style="stop-color:#76A0F7"/>
	<a:midPointStop  offset="1" style="stop-color:#264491"/>
</radialGradient>
<path fill="url(#SVGID_4_)" d="M19.815,53.528c-0.844-0.795-1.538-2.217-1.441-4.557c0.025-0.619-2.965-1.143-2.886-2.232
	c0.156-2.226,2.969-2.002,2.758-3.004c-0.341-1.627,1.054-3.578,1.519-3.675c2.22-0.456,4.271,0.738,5.239,3.149
	c0.264,0.66,3.286-1.492,3.877-0.641c1.455,2.102-1.019,4.877-0.488,5.694c0.713,1.103,0.634,3.144,0.278,4.327
	c-0.344,1.156-2.619,0.068-4.502-1.03C22.608,50.649,20.49,54.163,19.815,53.528z"/>
<path opacity="0.5" fill="#013366" d="M26.483,48.427c-1.509,4.518-9.26,2.008-7.751-2.515
	C20.24,41.397,27.993,43.907,26.483,48.427z"/>
<path fill="#4567B0" d="M25.82,48.212c-1.251,3.743-7.675,1.662-6.422-2.084C20.646,42.386,27.071,44.467,25.82,48.212z"/>
<path opacity="0.2" fill="#FFFFFF" d="M23.093,47.327c-0.188,0.566-1.157,0.251-0.968-0.313
	C22.313,46.45,23.283,46.763,23.093,47.327z"/>
<path opacity="0.5" fill="#013366" d="M21.599,42.171c-0.166,0.502-1.026,0.223-0.858-0.279
	C20.907,41.392,21.766,41.67,21.599,42.171z"/>
<path opacity="0.5" fill="#013366" d="M27.736,44.968c-0.093,0.275-0.565,0.121-0.473-0.154
	C27.355,44.538,27.827,44.692,27.736,44.968z"/>
<path opacity="0.5" fill="#013366" d="M27.036,50.04c-0.091,0.275-0.563,0.123-0.472-0.152
	C26.655,49.612,27.129,49.765,27.036,50.04z"/>
<path opacity="0.5" fill="#013366" d="M27.598,48.213c-0.093,0.275-0.565,0.123-0.472-0.152
	C27.217,47.785,27.688,47.938,27.598,48.213z"/>
<path opacity="0.5" fill="#013366" d="M20.248,51.713c-0.094,0.275-0.565,0.123-0.473-0.152
	C19.866,51.285,20.339,51.438,20.248,51.713z"/>
<path opacity="0.5" fill="#013366" d="M17.623,47.024c-0.094,0.275-0.565,0.123-0.473-0.152
	C17.241,46.597,17.714,46.751,17.623,47.024z"/>
<path opacity="0.2" fill="#FFFFFF" d="M52.367,14.47c-0.238,0.92,1.874,2.883,0.406,3.916c-0.339,0.236,3.73,2.518,3.198,3.129
	c-0.698,0.806-4.137-0.235-3.825,0.598c0.517,1.373-1.077,3.037-1.496,2.818c-1.495-0.769-4.698-1.109-4.398-3.652
	c0.063-0.541-4.307,0.078-4.556-0.768c-1.146-3.891,2.587-3.516,1.868-4.152c-1.161-1.025-0.429-3.139-0.596-4.047
	c-0.183-0.975,4.502,1.035,4.896,2.807C48.137,16.349,52.817,12.735,52.367,14.47z"/>
<radialGradient id="SVGID_5_" cx="-2986.4526" cy="-1565.9941" r="7.3491" gradientTransform="matrix(-0.781 -0.241 0.0749 -0.6367 -2166.4094 -1697.8267)" gradientUnits="userSpaceOnUse">
	<stop  offset="0" style="stop-color:#76A0F7"/>
	<stop  offset="0.2687" style="stop-color:#749DF4"/>
	<stop  offset="0.4556" style="stop-color:#6D95EB"/>
	<stop  offset="0.6177" style="stop-color:#6187DC"/>
	<stop  offset="0.7656" style="stop-color:#4F74C6"/>
	<stop  offset="0.9027" style="stop-color:#3A5AAA"/>
	<stop  offset="1" style="stop-color:#264491"/>
	<a:midPointStop  offset="0" style="stop-color:#76A0F7"/>
	<a:midPointStop  offset="0.7758" style="stop-color:#76A0F7"/>
	<a:midPointStop  offset="1" style="stop-color:#264491"/>
</radialGradient>
<path fill="url(#SVGID_5_)" d="M51.41,14.978c0.642,0.76,1.106,1.906,0.841,3.473c-0.073,0.414,2.381,1.54,2.229,2.262
	c-0.311,1.475-2.64,0.598-2.545,1.334c0.154,1.194-1.165,2.164-1.563,2.109c-1.891-0.262-3.506-1.602-4.12-3.491
	c-0.169-0.519-2.863,0.167-3.288-0.564c-1.048-1.804,1.239-3.056,0.864-3.749c-0.509-0.934-0.277-2.303,0.112-3.016
	c0.382-0.698,2.193,0.627,3.678,1.861C48.848,16.218,50.898,14.373,51.41,14.978z"/>
<path opacity="0.5" fill="#013366" d="M45.435,16.729c1.621-2.682,7.892,1.021,6.27,3.71C50.083,23.124,43.813,19.418,45.435,16.729
	z"/>
<path fill="#4567B0" d="M45.973,17.049c1.342-2.226,6.539,0.845,5.193,3.071C49.824,22.345,44.627,19.274,45.973,17.049z"/>
<path opacity="0.2" fill="#FFFFFF" d="M48.177,18.353c0.202-0.336,0.986,0.127,0.783,0.463
	C48.758,19.151,47.975,18.688,48.177,18.353z"/>
<path opacity="0.5" fill="#013366" d="M49.012,22.247c0.18-0.297,0.875,0.113,0.694,0.412
	C49.527,22.956,48.831,22.544,49.012,22.247z"/>
<path opacity="0.5" fill="#013366" d="M44.111,18.763c0.099-0.162,0.481,0.064,0.383,0.228S44.013,18.927,44.111,18.763z"/>
<path opacity="0.5" fill="#013366" d="M45.104,15.491c0.098-0.164,0.479,0.063,0.381,0.225
	C45.386,15.882,45.003,15.655,45.104,15.491z"/>
<path opacity="0.5" fill="#013366" d="M44.487,16.591c0.1-0.164,0.48,0.061,0.383,0.225C44.771,16.979,44.389,16.755,44.487,16.591z
	"/>
<path opacity="0.5" fill="#013366" d="M50.903,16.101c0.101-0.163,0.481,0.063,0.383,0.227S50.805,16.265,50.903,16.101z"/>
<path opacity="0.5" fill="#013366" d="M52.721,19.968c0.099-0.164,0.481,0.063,0.381,0.227
	C53.004,20.358,52.621,20.132,52.721,19.968z"/>
<path opacity="0.2" fill="#FFFFFF" d="M16.349,15.817c-0.525-0.738-3.26-0.404-3.11-2.113c0.033-0.393-4.138,1.175-4.258,0.41
	c-0.157-1.006,2.72-2.879,1.919-3.162C9.578,10.483,9.343,8.295,9.761,8.12c1.483-0.616,3.704-2.748,5.377-0.963
	c0.357,0.381,2.596-3.197,3.369-2.858c3.546,1.559,0.976,4.058,1.883,3.924c1.466-0.216,2.56,1.618,3.325,2.054
	c0.826,0.469-3.529,2.654-5.066,1.852C17.583,11.567,17.34,17.218,16.349,15.817z"/>
<radialGradient id="SVGID_6_" cx="-799.7793" cy="1358.7266" r="7.0242" gradientTransform="matrix(0.6874 -0.442 0.4385 0.4675 -30.6724 -978.3112)" gradientUnits="userSpaceOnUse">
	<stop  offset="0" style="stop-color:#76A0F7"/>
	<stop  offset="0.2687" style="stop-color:#749DF4"/>
	<stop  offset="0.4556" style="stop-color:#6D95EB"/>
	<stop  offset="0.6177" style="stop-color:#6187DC"/>
	<stop  offset="0.7656" style="stop-color:#4F74C6"/>
	<stop  offset="0.9027" style="stop-color:#3A5AAA"/>
	<stop  offset="1" style="stop-color:#264491"/>
	<a:midPointStop  offset="0" style="stop-color:#76A0F7"/>
	<a:midPointStop  offset="0.7758" style="stop-color:#76A0F7"/>
	<a:midPointStop  offset="1" style="stop-color:#264491"/>
</radialGradient>
<path fill="url(#SVGID_6_)" d="M16.567,14.807c-0.95,0.001-2.075-0.364-3.054-1.524c-0.261-0.309-2.594,0.793-3.027,0.236
	c-0.887-1.135,1.188-2.297,0.592-2.682c-0.97-0.621-0.864-2.184-0.579-2.44c1.354-1.22,3.33-1.575,5.089-0.86
	c0.483,0.195,1.639-2.197,2.438-2.057c1.963,0.346,1.47,2.788,2.208,2.939c0.995,0.204,1.854,1.217,2.134,1.939
	c0.275,0.711-1.808,1.217-3.625,1.543C17.24,12.169,17.325,14.806,16.567,14.807z"/>
<path opacity="0.5" fill="#013366" d="M18.966,9.358c0.965,2.838-5.605,5.141-6.571,2.301C11.432,8.821,18.002,6.52,18.966,9.358z"
	/>
<path fill="#4567B0" d="M18.403,9.558c0.8,2.352-4.645,4.257-5.443,1.902C12.159,9.11,17.604,7.202,18.403,9.558z"/>
<path opacity="0.2" fill="#FFFFFF" d="M16.092,10.364c0.12,0.355-0.7,0.644-0.82,0.288C15.15,10.298,15.971,10.009,16.092,10.364z"
	/>
<path opacity="0.5" fill="#013366" d="M12.733,8.578c0.105,0.313-0.621,0.569-0.73,0.253C11.896,8.519,12.626,8.262,12.733,8.578z"
	/>
<path opacity="0.5" fill="#013366" d="M18.295,7.141c0.059,0.173-0.343,0.313-0.4,0.14C17.836,7.107,18.237,6.968,18.295,7.141z"/>
<path opacity="0.5" fill="#013366" d="M20.078,9.881c0.057,0.173-0.343,0.313-0.401,0.141C19.617,9.847,20.018,9.706,20.078,9.881z"
	/>
<path opacity="0.5" fill="#013366" d="M19.651,8.754c0.059,0.173-0.341,0.313-0.399,0.141C19.192,8.721,19.593,8.579,19.651,8.754z"
	/>
<path opacity="0.5" fill="#013366" d="M16.059,13.745c0.059,0.172-0.343,0.313-0.401,0.139C15.6,13.712,15.998,13.571,16.059,13.745
	z"/>
<path opacity="0.5" fill="#013366" d="M12.114,12.69c0.058,0.174-0.341,0.314-0.399,0.141C11.654,12.657,12.056,12.519,12.114,12.69
	z"/>
</svg>
