<?xml version="1.0" encoding="utf-8"?>
<!-- Generator: Adobe Illustrator 15.0.0, SVG Export Plug-In . SVG Version: 6.00 Build 0)  -->
<!DOCTYPE svg PUBLIC "-//W3C//DTD SVG 1.1//EN" "http://www.w3.org/Graphics/SVG/1.1/DTD/svg11.dtd" [
	<!ENTITY ns_flows "http://ns.adobe.com/Flows/1.0/">
	<!ENTITY ns_extend "http://ns.adobe.com/Extensibility/1.0/">
	<!ENTITY ns_ai "http://ns.adobe.com/AdobeIllustrator/10.0/">
	<!ENTITY ns_graphs "http://ns.adobe.com/Graphs/1.0/">
]>
<svg version="1.1" id="Layer_1" xmlns:x="&ns_extend;" xmlns:i="&ns_ai;" xmlns:graph="&ns_graphs;"
	 xmlns="http://www.w3.org/2000/svg" xmlns:xlink="http://www.w3.org/1999/xlink" xmlns:a="http://ns.adobe.com/AdobeSVGViewerExtensions/3.0/"
	 x="0px" y="0px" width="64px" height="64px" viewBox="0 0 64 64" enable-background="new 0 0 64 64" xml:space="preserve">
<path fill="#B3C2C6" d="M63.718,41.04c0.423,1.921,0.854,4.96-2.582,4.96c-19.425,0-38.847,0-58.271,0
	c-3.436,0-3.005-3.039-2.582-4.96C21.427,41.04,42.573,41.04,63.718,41.04z"/>
<path fill="#CFD8DD" d="M55.839,18c-15.892,0-31.786,0-47.678,0c-1.863,0-3.01,0.962-3.438,2.88c-1.48,6.72-2.96,13.44-4.44,20.16
	c-0.429,1.919,0.497,2.882,2.771,2.881c19.298,0,38.596,0,57.895,0c2.273,0,3.199-0.961,2.771-2.881
	c-1.479-6.72-2.96-13.44-4.44-20.16C58.85,18.961,57.702,18,55.839,18z"/>
<path fill="#B3C2C6" d="M10.478,32.881c-2.099,0-4.199,0-6.299,0C4.441,31.6,4.704,30.32,4.965,29.04c2.041,0,4.08,0,6.122,0
	C10.883,30.32,10.681,31.6,10.478,32.881z"/>
<path fill="#B3C2C6" d="M8.958,42.479c-2.249,0-4.498,0-6.746,0C2.475,41.2,2.737,39.92,3,38.64c2.189,0,4.377,0,6.566,0
	C9.362,39.92,9.16,41.2,8.958,42.479z"/>
<path fill="#B3C2C6" d="M9.213,28.081c-1.351,0-2.701,0-4.051,0c0.263-1.281,0.524-2.56,0.786-3.84c1.313,0,2.623,0,3.933,0
	C9.658,25.521,9.435,26.8,9.213,28.081z"/>
<path fill="#B3C2C6" d="M14.277,28.081c-1.35,0-2.7,0-4.051,0c0.212-1.281,0.426-2.56,0.638-3.84c1.311,0,2.621,0,3.932,0
	C14.623,25.521,14.45,26.8,14.277,28.081z"/>
<path fill="#B3C2C6" d="M15.727,32.881c-1.4,0-2.799,0-4.199,0c0.193-1.281,0.387-2.561,0.578-3.841c1.36,0,2.721,0,4.082,0
	C16.034,30.32,15.881,31.6,15.727,32.881z"/>
<path fill="#B3C2C6" d="M14.577,42.479c-1.498,0-2.997,0-4.496,0c0.194-1.278,0.385-2.559,0.579-3.839c1.458,0,2.918,0,4.377,0
	C14.884,39.92,14.731,41.2,14.577,42.479z"/>
<path fill="#B3C2C6" d="M20.198,42.479c-1.5,0-2.998,0-4.497,0c0.144-1.278,0.287-2.559,0.431-3.839c1.46,0,2.918,0,4.378,0
	C20.406,39.92,20.302,41.2,20.198,42.479z"/>
<path fill="#B3C2C6" d="M43.803,42.479c-7.493,0-14.988,0-22.481,0c0.094-1.278,0.188-2.559,0.282-3.839c7.295,0,14.591,0,21.886,0
	C43.594,39.92,43.699,41.2,43.803,42.479z"/>
<path fill="#B3C2C6" d="M20.977,32.881c-1.4,0-2.8,0-4.2,0c0.144-1.281,0.288-2.561,0.43-3.841c1.36,0,2.721,0,4.082,0
	C21.184,30.32,21.08,31.6,20.977,32.881z"/>
<path fill="#B3C2C6" d="M26.226,32.881c-1.4,0-2.799,0-4.199,0c0.094-1.281,0.188-2.561,0.281-3.841c1.36,0,2.721,0,4.082,0
	C26.334,30.32,26.28,31.6,26.226,32.881z"/>
<path fill="#B3C2C6" d="M31.477,32.881c-1.4,0-2.801,0-4.201,0c0.045-1.281,0.09-2.561,0.133-3.841c1.359,0,2.72,0,4.081,0
	C31.485,30.32,31.479,31.6,31.477,32.881z"/>
<path fill="#B3C2C6" d="M36.725,32.881c-1.4,0-2.801,0-4.201,0c-0.002-1.281-0.009-2.561-0.014-3.841c1.361,0,2.721,0,4.081,0
	C36.635,30.32,36.68,31.6,36.725,32.881z"/>
<path fill="#B3C2C6" d="M41.973,32.881c-1.4,0-2.799,0-4.199,0C37.72,31.6,37.666,30.32,37.61,29.04c1.36,0,2.722,0,4.081,0
	C41.785,30.32,41.881,31.6,41.973,32.881z"/>
<path fill="#B3C2C6" d="M44.5,37.68c-1.449,0-2.898,0-4.348,0c-0.075-1.279-0.148-2.56-0.223-3.84c1.41,0,2.819,0,4.229,0
	C44.273,35.12,44.387,36.4,44.5,37.68z"/>
<path fill="#B3C2C6" d="M49.423,42.479c-1.499,0-2.997,0-4.497,0c-0.113-1.278-0.227-2.559-0.34-3.839c1.458,0,2.918,0,4.377,0
	C49.115,39.92,49.27,41.2,49.423,42.479z"/>
<path fill="#B3C2C6" d="M39.064,37.68c-1.449,0-2.898,0-4.347,0c-0.026-1.279-0.05-2.56-0.074-3.84c1.409,0,2.819,0,4.229,0
	C38.937,35.12,39,36.4,39.064,37.68z"/>
<path fill="#B3C2C6" d="M33.631,37.68c-1.449,0-2.898,0-4.349,0c0.026-1.279,0.05-2.56,0.074-3.84c1.41,0,2.819,0,4.229,0
	C33.602,35.12,33.615,36.4,33.631,37.68z"/>
<path fill="#B3C2C6" d="M28.195,37.68c-1.448,0-2.898,0-4.347,0c0.075-1.279,0.149-2.56,0.223-3.84c1.408,0,2.819,0,4.229,0
	C28.266,35.12,28.23,36.4,28.195,37.68z"/>
<path fill="#B3C2C6" d="M22.761,37.68c-1.45,0-2.899,0-4.348,0c0.124-1.279,0.247-2.56,0.371-3.84c1.41,0,2.82,0,4.229,0
	C22.929,35.12,22.846,36.4,22.761,37.68z"/>
<path fill="#B3C2C6" d="M17.326,37.68c-1.449,0-2.899,0-4.347,0c0.173-1.279,0.346-2.56,0.519-3.84c1.41,0,2.819,0,4.229,0
	C17.594,35.12,17.46,36.4,17.326,37.68z"/>
<path fill="#B3C2C6" d="M11.892,37.68c-2.898,0-5.797,0-8.696,0c0.262-1.279,0.525-2.56,0.786-3.84c2.82,0,5.639,0,8.458,0
	C12.258,35.12,12.075,36.4,11.892,37.68z"/>
<path fill="#B3C2C6" d="M19.34,28.081c-1.35,0-2.7,0-4.051,0c0.163-1.281,0.327-2.56,0.489-3.84c1.311,0,2.623,0,3.934,0
	C19.587,25.521,19.464,26.8,19.34,28.081z"/>
<path fill="#B3C2C6" d="M24.404,28.081c-1.35,0-2.7,0-4.05,0c0.113-1.281,0.227-2.56,0.341-3.84c1.31,0,2.621,0,3.932,0
	C24.552,25.521,24.478,26.8,24.404,28.081z"/>
<path fill="#B3C2C6" d="M29.468,28.081c-1.35,0-2.7,0-4.051,0c0.064-1.281,0.129-2.56,0.194-3.84c1.311,0,2.621,0,3.933,0
	C29.518,25.521,29.494,26.8,29.468,28.081z"/>
<path fill="#B3C2C6" d="M34.532,28.081c-1.351,0-2.701,0-4.052,0c0.016-1.281,0.029-2.56,0.045-3.84c1.311,0,2.621,0,3.932,0
	C34.482,25.521,34.506,26.8,34.532,28.081z"/>
<path fill="#B3C2C6" d="M39.596,28.081c-1.35,0-2.701,0-4.051,0c-0.035-1.281-0.07-2.56-0.104-3.84c1.312,0,2.621,0,3.934,0
	C39.447,25.521,39.521,26.8,39.596,28.081z"/>
<path fill="#B3C2C6" d="M36.391,23.28c-1.301,0-2.602,0-3.903,0c-0.004-1.28-0.009-2.56-0.015-3.84c1.262,0,2.523,0,3.785,0
	C36.303,20.721,36.347,22,36.391,23.28z"/>
<path fill="#B3C2C6" d="M47.223,32.881c-1.399,0-2.8,0-4.199,0c-0.104-1.281-0.207-2.561-0.313-3.841c1.361,0,2.722,0,4.082,0
	C46.936,30.32,47.079,31.6,47.223,32.881z"/>
<path fill="#B3C2C6" d="M52.473,32.881c-1.4,0-2.801,0-4.201,0c-0.151-1.281-0.306-2.561-0.459-3.841c1.359,0,2.721,0,4.08,0
	C52.086,30.32,52.279,31.6,52.473,32.881z"/>
<path fill="#B3C2C6" d="M49.935,37.68c-1.449,0-2.897,0-4.349,0c-0.123-1.279-0.247-2.56-0.37-3.84c1.409,0,2.819,0,4.229,0
	C49.608,35.12,49.771,36.4,49.935,37.68z"/>
<path fill="#B3C2C6" d="M55.043,42.479c-1.499,0-2.998,0-4.496,0c-0.164-1.278-0.327-2.559-0.49-3.839c1.46,0,2.918,0,4.378,0
	C54.638,39.92,54.84,41.2,55.043,42.479z"/>
<path fill="#B3C2C6" d="M59.821,32.881c-2.101,0-4.199,0-6.3,0c-0.203-1.281-0.406-2.561-0.607-3.841c2.04,0,4.08,0,6.119,0
	C59.297,30.32,59.56,31.6,59.821,32.881z"/>
<path fill="#B3C2C6" d="M60.805,37.68c-3.262,0-6.522,0-9.783,0c-0.174-1.279-0.346-2.56-0.52-3.84c3.172,0,6.344,0,9.516,0
	C60.279,35.12,60.543,36.4,60.805,37.68z"/>
<path fill="#B3C2C6" d="M44.66,28.081c-1.351,0-2.701,0-4.052,0c-0.085-1.281-0.167-2.56-0.252-3.84c1.31,0,2.62,0,3.933,0
	C44.412,25.521,44.535,26.8,44.66,28.081z"/>
<path fill="#B3C2C6" d="M49.723,28.081c-1.35,0-2.699,0-4.051,0c-0.133-1.281-0.267-2.56-0.4-3.84c1.311,0,2.62,0,3.932,0
	C49.377,25.521,49.549,26.8,49.723,28.081z"/>
<path fill="#B3C2C6" d="M58.839,28.081c-2.702,0-5.402,0-8.103,0c-0.184-1.281-0.367-2.56-0.55-3.84c2.621,0,5.243,0,7.864,0
	C58.314,25.521,58.575,26.8,58.839,28.081z"/>
<path fill="#B3C2C6" d="M61.787,42.479c-1.873,0-3.748,0-5.619,0c-0.213-1.278-0.426-2.559-0.64-3.839c1.825,0,3.649,0,5.474,0
	C61.263,39.92,61.525,41.2,61.787,42.479z"/>
<path fill="#B3C2C6" d="M57.855,23.28c-1.952,0-3.903,0-5.855,0c-0.203-1.28-0.405-2.56-0.607-3.84c1.893,0,3.783,0,5.676,0
	C57.33,20.721,57.593,22,57.855,23.28z"/>
<path fill="#B3C2C6" d="M51.025,23.28c-1.301,0-2.602,0-3.903,0c-0.153-1.28-0.306-2.56-0.46-3.84c1.262,0,2.523,0,3.783,0
	C50.639,20.721,50.832,22,51.025,23.28z"/>
<path fill="#B3C2C6" d="M46.146,23.28c-1.301,0-2.601,0-3.902,0c-0.104-1.28-0.207-2.56-0.313-3.84c1.262,0,2.523,0,3.785,0
	C45.86,20.721,46.004,22,46.146,23.28z"/>
<path fill="#B3C2C6" d="M41.268,23.28c-1.3,0-2.602,0-3.902,0c-0.054-1.28-0.107-2.56-0.162-3.84c1.262,0,2.521,0,3.783,0
	C41.08,20.721,41.176,22,41.268,23.28z"/>
<path fill="#B3C2C6" d="M31.513,23.28c-1.302,0-2.603,0-3.903,0c0.044-1.28,0.088-2.56,0.133-3.84c1.261,0,2.523,0,3.785,0
	C31.521,20.721,31.517,22,31.513,23.28z"/>
<path fill="#B3C2C6" d="M26.634,23.28c-1.301,0-2.602,0-3.903,0c0.094-1.28,0.189-2.56,0.283-3.84c1.261,0,2.521,0,3.783,0
	C26.743,20.721,26.688,22,26.634,23.28z"/>
<path fill="#B3C2C6" d="M21.756,23.28c-1.302,0-2.602,0-3.903,0c0.143-1.28,0.287-2.56,0.43-3.84c1.262,0,2.523,0,3.784,0
	C21.963,20.721,21.859,22,21.756,23.28z"/>
<path fill="#B3C2C6" d="M16.878,23.28c-1.301,0-2.602,0-3.903,0c0.193-1.28,0.386-2.56,0.58-3.84c1.26,0,2.523,0,3.783,0
	C17.184,20.721,17.031,22,16.878,23.28z"/>
<path fill="#B3C2C6" d="M12,23.28c-1.952,0-3.904,0-5.854,0c0.263-1.28,0.523-2.56,0.786-3.84c1.893,0,3.784,0,5.677,0
	C12.405,20.721,12.202,22,12,23.28z"/>
<path fill="#FFFFFF" d="M10.478,32.554c-2.099,0-4.199,0-6.299,0c0.263-1.28,0.525-2.561,0.787-3.841c2.041,0,4.08,0,6.122,0
	C10.883,29.993,10.681,31.273,10.478,32.554z"/>
<path fill="#FFFFFF" d="M8.958,42.152c-2.249,0-4.498,0-6.746,0C2.475,40.873,2.737,39.594,3,38.313c2.189,0,4.377,0,6.566,0
	C9.362,39.594,9.16,40.873,8.958,42.152z"/>
<path fill="#FFFFFF" d="M9.213,27.754c-1.351,0-2.701,0-4.051,0c0.263-1.281,0.524-2.561,0.786-3.841c1.313,0,2.623,0,3.933,0
	C9.658,25.193,9.435,26.473,9.213,27.754z"/>
<path fill="#FFFFFF" d="M14.277,27.754c-1.35,0-2.7,0-4.051,0c0.212-1.281,0.426-2.561,0.638-3.841c1.311,0,2.621,0,3.932,0
	C14.623,25.193,14.45,26.473,14.277,27.754z"/>
<path fill="#FFFFFF" d="M15.727,32.554c-1.4,0-2.799,0-4.199,0c0.193-1.28,0.387-2.561,0.578-3.841c1.36,0,2.721,0,4.082,0
	C16.034,29.993,15.881,31.273,15.727,32.554z"/>
<path fill="#FFFFFF" d="M14.577,42.152c-1.498,0-2.997,0-4.496,0c0.194-1.279,0.385-2.559,0.579-3.839c1.458,0,2.918,0,4.377,0
	C14.884,39.594,14.731,40.873,14.577,42.152z"/>
<path fill="#FFFFFF" d="M20.198,42.152c-1.5,0-2.998,0-4.497,0c0.144-1.279,0.287-2.559,0.431-3.839c1.46,0,2.918,0,4.378,0
	C20.406,39.594,20.302,40.873,20.198,42.152z"/>
<path fill="#FFFFFF" d="M43.803,42.152c-7.493,0-14.988,0-22.481,0c0.094-1.279,0.188-2.559,0.282-3.839c7.295,0,14.591,0,21.886,0
	C43.594,39.594,43.699,40.873,43.803,42.152z"/>
<path fill="#FFFFFF" d="M20.977,32.554c-1.4,0-2.8,0-4.2,0c0.144-1.28,0.288-2.561,0.43-3.841c1.36,0,2.721,0,4.082,0
	C21.184,29.993,21.08,31.273,20.977,32.554z"/>
<path fill="#FFFFFF" d="M26.226,32.554c-1.4,0-2.799,0-4.199,0c0.094-1.28,0.188-2.561,0.281-3.841c1.36,0,2.721,0,4.082,0
	C26.334,29.993,26.28,31.273,26.226,32.554z"/>
<path fill="#FFFFFF" d="M31.477,32.554c-1.4,0-2.801,0-4.201,0c0.045-1.28,0.09-2.561,0.133-3.841c1.359,0,2.72,0,4.081,0
	C31.485,29.993,31.479,31.273,31.477,32.554z"/>
<path fill="#FFFFFF" d="M36.725,32.554c-1.4,0-2.801,0-4.201,0c-0.002-1.28-0.009-2.561-0.014-3.841c1.361,0,2.721,0,4.081,0
	C36.635,29.993,36.68,31.273,36.725,32.554z"/>
<path fill="#FFFFFF" d="M41.973,32.554c-1.4,0-2.799,0-4.199,0c-0.054-1.28-0.107-2.561-0.163-3.841c1.36,0,2.722,0,4.081,0
	C41.785,29.993,41.881,31.273,41.973,32.554z"/>
<path fill="#FFFFFF" d="M44.5,37.353c-1.449,0-2.898,0-4.348,0c-0.075-1.279-0.148-2.559-0.223-3.84c1.41,0,2.819,0,4.229,0
	C44.273,34.794,44.387,36.073,44.5,37.353z"/>
<path fill="#FFFFFF" d="M49.423,42.152c-1.499,0-2.997,0-4.497,0c-0.113-1.279-0.227-2.559-0.34-3.839c1.458,0,2.918,0,4.377,0
	C49.115,39.594,49.27,40.873,49.423,42.152z"/>
<path fill="#FFFFFF" d="M39.064,37.353c-1.449,0-2.898,0-4.347,0c-0.026-1.279-0.05-2.559-0.074-3.84c1.409,0,2.819,0,4.229,0
	C38.937,34.794,39,36.073,39.064,37.353z"/>
<path fill="#FFFFFF" d="M33.631,37.353c-1.449,0-2.898,0-4.349,0c0.026-1.279,0.05-2.559,0.074-3.84c1.41,0,2.819,0,4.229,0
	C33.602,34.794,33.615,36.073,33.631,37.353z"/>
<path fill="#FFFFFF" d="M28.195,37.353c-1.448,0-2.898,0-4.347,0c0.075-1.279,0.149-2.559,0.223-3.84c1.408,0,2.819,0,4.229,0
	C28.266,34.794,28.23,36.073,28.195,37.353z"/>
<path fill="#FFFFFF" d="M22.761,37.353c-1.45,0-2.899,0-4.348,0c0.124-1.279,0.247-2.559,0.371-3.84c1.41,0,2.82,0,4.229,0
	C22.929,34.794,22.846,36.073,22.761,37.353z"/>
<path fill="#FFFFFF" d="M17.326,37.353c-1.449,0-2.899,0-4.347,0c0.173-1.279,0.346-2.559,0.519-3.84c1.41,0,2.819,0,4.229,0
	C17.594,34.794,17.46,36.073,17.326,37.353z"/>
<path fill="#FFFFFF" d="M11.892,37.353c-2.898,0-5.797,0-8.696,0c0.262-1.279,0.525-2.559,0.786-3.84c2.82,0,5.639,0,8.458,0
	C12.258,34.794,12.075,36.073,11.892,37.353z"/>
<path fill="#FFFFFF" d="M19.34,27.754c-1.35,0-2.7,0-4.051,0c0.163-1.281,0.327-2.561,0.489-3.841c1.311,0,2.623,0,3.934,0
	C19.587,25.193,19.464,26.473,19.34,27.754z"/>
<path fill="#FFFFFF" d="M24.404,27.754c-1.35,0-2.7,0-4.05,0c0.113-1.281,0.227-2.561,0.341-3.841c1.31,0,2.621,0,3.932,0
	C24.552,25.193,24.478,26.473,24.404,27.754z"/>
<path fill="#FFFFFF" d="M29.468,27.754c-1.35,0-2.7,0-4.051,0c0.064-1.281,0.129-2.561,0.194-3.841c1.311,0,2.621,0,3.933,0
	C29.518,25.193,29.494,26.473,29.468,27.754z"/>
<path fill="#FFFFFF" d="M34.532,27.754c-1.351,0-2.701,0-4.052,0c0.016-1.281,0.029-2.561,0.045-3.841c1.311,0,2.621,0,3.932,0
	C34.482,25.193,34.506,26.473,34.532,27.754z"/>
<path fill="#FFFFFF" d="M39.596,27.754c-1.35,0-2.701,0-4.051,0c-0.035-1.281-0.07-2.561-0.104-3.841c1.312,0,2.621,0,3.934,0
	C39.447,25.193,39.521,26.473,39.596,27.754z"/>
<path fill="#FFFFFF" d="M36.391,22.954c-1.301,0-2.602,0-3.903,0c-0.004-1.281-0.009-2.56-0.015-3.84c1.262,0,2.523,0,3.785,0
	C36.303,20.394,36.347,21.673,36.391,22.954z"/>
<path fill="#FFFFFF" d="M47.223,32.554c-1.399,0-2.8,0-4.199,0c-0.104-1.28-0.207-2.561-0.313-3.841c1.361,0,2.722,0,4.082,0
	C46.936,29.993,47.079,31.273,47.223,32.554z"/>
<path fill="#FFFFFF" d="M52.473,32.554c-1.4,0-2.801,0-4.201,0c-0.151-1.28-0.306-2.561-0.459-3.841c1.359,0,2.721,0,4.08,0
	C52.086,29.993,52.279,31.273,52.473,32.554z"/>
<path fill="#FFFFFF" d="M49.935,37.353c-1.449,0-2.897,0-4.349,0c-0.123-1.279-0.247-2.559-0.37-3.84c1.409,0,2.819,0,4.229,0
	C49.608,34.794,49.771,36.073,49.935,37.353z"/>
<path fill="#FFFFFF" d="M55.043,42.152c-1.499,0-2.998,0-4.496,0c-0.164-1.279-0.327-2.559-0.49-3.839c1.46,0,2.918,0,4.378,0
	C54.638,39.594,54.84,40.873,55.043,42.152z"/>
<path fill="#FFFFFF" d="M59.821,32.554c-2.101,0-4.199,0-6.3,0c-0.203-1.28-0.406-2.561-0.607-3.841c2.04,0,4.08,0,6.119,0
	C59.297,29.993,59.56,31.273,59.821,32.554z"/>
<path fill="#FFFFFF" d="M60.805,37.353c-3.262,0-6.522,0-9.783,0c-0.174-1.279-0.346-2.559-0.52-3.84c3.172,0,6.344,0,9.516,0
	C60.279,34.794,60.543,36.073,60.805,37.353z"/>
<path fill="#FFFFFF" d="M44.66,27.754c-1.351,0-2.701,0-4.052,0c-0.085-1.281-0.167-2.561-0.252-3.841c1.31,0,2.62,0,3.933,0
	C44.412,25.193,44.535,26.473,44.66,27.754z"/>
<path fill="#FFFFFF" d="M49.723,27.754c-1.35,0-2.699,0-4.051,0c-0.133-1.281-0.267-2.561-0.4-3.841c1.311,0,2.62,0,3.932,0
	C49.377,25.193,49.549,26.473,49.723,27.754z"/>
<path fill="#FFFFFF" d="M58.839,27.754c-2.702,0-5.402,0-8.103,0c-0.184-1.281-0.367-2.561-0.55-3.841c2.621,0,5.243,0,7.864,0
	C58.314,25.193,58.575,26.473,58.839,27.754z"/>
<path fill="#FFFFFF" d="M61.787,42.152c-1.873,0-3.748,0-5.619,0c-0.213-1.279-0.426-2.559-0.64-3.839c1.825,0,3.649,0,5.474,0
	C61.263,39.594,61.525,40.873,61.787,42.152z"/>
<path fill="#FFFFFF" d="M57.855,22.954c-1.952,0-3.903,0-5.855,0c-0.203-1.281-0.405-2.56-0.607-3.84c1.893,0,3.783,0,5.676,0
	C57.33,20.394,57.593,21.673,57.855,22.954z"/>
<path fill="#FFFFFF" d="M51.025,22.954c-1.301,0-2.602,0-3.903,0c-0.153-1.281-0.306-2.56-0.46-3.84c1.262,0,2.523,0,3.783,0
	C50.639,20.394,50.832,21.673,51.025,22.954z"/>
<path fill="#FFFFFF" d="M46.146,22.954c-1.301,0-2.601,0-3.902,0c-0.104-1.281-0.207-2.56-0.313-3.84c1.262,0,2.523,0,3.785,0
	C45.86,20.394,46.004,21.673,46.146,22.954z"/>
<path fill="#FFFFFF" d="M41.268,22.954c-1.3,0-2.602,0-3.902,0c-0.054-1.281-0.107-2.56-0.162-3.84c1.262,0,2.521,0,3.783,0
	C41.08,20.394,41.176,21.673,41.268,22.954z"/>
<path fill="#FFFFFF" d="M31.513,22.954c-1.302,0-2.603,0-3.903,0c0.044-1.281,0.088-2.56,0.133-3.84c1.261,0,2.523,0,3.785,0
	C31.521,20.394,31.517,21.673,31.513,22.954z"/>
<path fill="#FFFFFF" d="M26.634,22.954c-1.301,0-2.602,0-3.903,0c0.094-1.281,0.189-2.56,0.283-3.84c1.261,0,2.521,0,3.783,0
	C26.743,20.394,26.688,21.673,26.634,22.954z"/>
<path fill="#FFFFFF" d="M21.756,22.954c-1.302,0-2.602,0-3.903,0c0.143-1.281,0.287-2.56,0.43-3.84c1.262,0,2.523,0,3.784,0
	C21.963,20.394,21.859,21.673,21.756,22.954z"/>
<path fill="#FFFFFF" d="M16.878,22.954c-1.301,0-2.602,0-3.903,0c0.193-1.281,0.386-2.56,0.58-3.84c1.26,0,2.523,0,3.783,0
	C17.184,20.394,17.031,21.673,16.878,22.954z"/>
<path fill="#FFFFFF" d="M12,22.954c-1.952,0-3.904,0-5.854,0c0.263-1.281,0.523-2.56,0.786-3.84c1.893,0,3.784,0,5.677,0
	C12.405,20.394,12.202,21.673,12,22.954z"/>
</svg>
