<?xml version="1.0" encoding="utf-8"?>
<!-- Generator: Adobe Illustrator 15.0.0, SVG Export Plug-In . SVG Version: 6.00 Build 0)  -->
<!DOCTYPE svg PUBLIC "-//W3C//DTD SVG 1.1//EN" "http://www.w3.org/Graphics/SVG/1.1/DTD/svg11.dtd" [
	<!ENTITY ns_flows "http://ns.adobe.com/Flows/1.0/">
	<!ENTITY ns_extend "http://ns.adobe.com/Extensibility/1.0/">
	<!ENTITY ns_ai "http://ns.adobe.com/AdobeIllustrator/10.0/">
	<!ENTITY ns_graphs "http://ns.adobe.com/Graphs/1.0/">
]>
<svg version="1.1" id="Layer_1" xmlns:x="&ns_extend;" xmlns:i="&ns_ai;" xmlns:graph="&ns_graphs;"
	 xmlns="http://www.w3.org/2000/svg" xmlns:xlink="http://www.w3.org/1999/xlink" xmlns:a="http://ns.adobe.com/AdobeSVGViewerExtensions/3.0/"
	 x="0px" y="0px" width="64px" height="64px" viewBox="0 0 64 64" enable-background="new 0 0 64 64" xml:space="preserve">
<polygon fill="#FFC400" points="41.424,43.049 31.678,43.049 33.818,37.25 25.444,37.25 20.308,48.464 30.596,48.464 26.264,62 "/>
<radialGradient id="SVGID_1_" cx="30.5952" cy="45.2627" r="10.8066" gradientUnits="userSpaceOnUse">
	<stop  offset="0" style="stop-color:#FFF5BF"/>
	<stop  offset="0.1612" style="stop-color:#FFF4BA"/>
	<stop  offset="0.3513" style="stop-color:#FFF1AC"/>
	<stop  offset="0.556" style="stop-color:#FFEB94"/>
	<stop  offset="0.7711" style="stop-color:#FFE373"/>
	<stop  offset="0.9922" style="stop-color:#FFD949"/>
	<stop  offset="1" style="stop-color:#FFD947"/>
	<a:midPointStop  offset="0" style="stop-color:#FFF5BF"/>
	<a:midPointStop  offset="0.6727" style="stop-color:#FFF5BF"/>
	<a:midPointStop  offset="1" style="stop-color:#FFD947"/>
</radialGradient>
<polygon fill="url(#SVGID_1_)" points="38.717,44.133 30.053,44.133 32.725,37.25 26.764,37.25 22.474,47.381 32.219,47.381 
	28.43,58.209 "/>
<radialGradient id="SVGID_2_" cx="-63.0801" cy="376.1045" r="6.104" gradientTransform="matrix(-0.2874 0.657 -0.4432 -0.1939 193.7156 158.8379)" gradientUnits="userSpaceOnUse">
	<stop  offset="0.4303" style="stop-color:#66E4FF"/>
	<stop  offset="0.5507" style="stop-color:#61E0FF"/>
	<stop  offset="0.6944" style="stop-color:#52D5FF"/>
	<stop  offset="0.8493" style="stop-color:#3BC2FF"/>
	<stop  offset="1" style="stop-color:#1CAAFF"/>
	<a:midPointStop  offset="0.4303" style="stop-color:#66E4FF"/>
	<a:midPointStop  offset="0.6702" style="stop-color:#66E4FF"/>
	<a:midPointStop  offset="1" style="stop-color:#1CAAFF"/>
</radialGradient>
<path fill="url(#SVGID_2_)" d="M46.994,41.815c-2.3,1.293-3.928,2.706-4.595,4.171c-0.568,1.246-0.027,2.711,1.205,3.273
	c1.233,0.562,2.693,0.008,3.262-1.239C47.532,46.556,47.521,44.357,46.994,41.815z"/>
<radialGradient id="SVGID_3_" cx="-510.7637" cy="396.6328" r="2.4731" gradientTransform="matrix(0.322 0.2101 -0.4428 0.6784 384.272 -116.3625)" gradientUnits="userSpaceOnUse">
	<stop  offset="0" style="stop-color:#D4F2FF"/>
	<stop  offset="0.5519" style="stop-color:#D1F1FF;stop-opacity:0.4481"/>
	<stop  offset="0.8834" style="stop-color:#C9EFFF;stop-opacity:0.1166"/>
	<stop  offset="1" style="stop-color:#C4EEFF;stop-opacity:0"/>
	<a:midPointStop  offset="0" style="stop-color:#D4F2FF"/>
	<a:midPointStop  offset="0.8" style="stop-color:#D4F2FF"/>
	<a:midPointStop  offset="1" style="stop-color:#C4EEFF;stop-opacity:0"/>
</radialGradient>
<path fill="url(#SVGID_3_)" d="M44.973,45.922c-0.605,0.926-1.451,1.443-1.892,1.158c-0.439-0.287-0.305-1.271,0.3-2.198
	s1.451-1.444,1.891-1.158C45.712,44.011,45.577,44.995,44.973,45.922z"/>
<radialGradient id="SVGID_4_" cx="-65.7725" cy="401.9297" r="6.1028" gradientTransform="matrix(-0.2953 0.6535 -0.4408 -0.1992 194.6695 177.9854)" gradientUnits="userSpaceOnUse">
	<stop  offset="0.4303" style="stop-color:#66E4FF"/>
	<stop  offset="0.5507" style="stop-color:#61E0FF"/>
	<stop  offset="0.6944" style="stop-color:#52D5FF"/>
	<stop  offset="0.8493" style="stop-color:#3BC2FF"/>
	<stop  offset="1" style="stop-color:#1CAAFF"/>
	<a:midPointStop  offset="0.4303" style="stop-color:#66E4FF"/>
	<a:midPointStop  offset="0.6702" style="stop-color:#66E4FF"/>
	<a:midPointStop  offset="1" style="stop-color:#1CAAFF"/>
</radialGradient>
<path fill="url(#SVGID_4_)" d="M38.77,52.309c-2.314,1.266-3.96,2.658-4.645,4.116c-0.582,1.238-0.059,2.711,1.167,3.286
	c1.227,0.576,2.693,0.039,3.275-1.199C39.251,57.055,39.267,54.857,38.77,52.309z"/>
<radialGradient id="SVGID_5_" cx="-508.9736" cy="420.0566" r="2.4709" gradientTransform="matrix(0.3194 0.2139 -0.4508 0.6731 387.8369 -118.009)" gradientUnits="userSpaceOnUse">
	<stop  offset="0" style="stop-color:#D4F2FF"/>
	<stop  offset="0.5519" style="stop-color:#D1F1FF;stop-opacity:0.4481"/>
	<stop  offset="0.8834" style="stop-color:#C9EFFF;stop-opacity:0.1166"/>
	<stop  offset="1" style="stop-color:#C4EEFF;stop-opacity:0"/>
	<a:midPointStop  offset="0" style="stop-color:#D4F2FF"/>
	<a:midPointStop  offset="0.8" style="stop-color:#D4F2FF"/>
	<a:midPointStop  offset="1" style="stop-color:#C4EEFF;stop-opacity:0"/>
</radialGradient>
<path fill="url(#SVGID_5_)" d="M36.699,56.389c-0.615,0.92-1.469,1.428-1.904,1.137c-0.437-0.293-0.291-1.275,0.326-2.193
	c0.614-0.92,1.468-1.428,1.903-1.135C37.462,54.488,37.315,55.47,36.699,56.389z"/>
<radialGradient id="SVGID_6_" cx="-82.0669" cy="408.2969" r="6.1019" gradientTransform="matrix(-0.2992 0.6517 -0.4397 -0.2018 179.3495 189.0742)" gradientUnits="userSpaceOnUse">
	<stop  offset="0.4303" style="stop-color:#66E4FF"/>
	<stop  offset="0.5507" style="stop-color:#61E0FF"/>
	<stop  offset="0.6944" style="stop-color:#52D5FF"/>
	<stop  offset="0.8493" style="stop-color:#3BC2FF"/>
	<stop  offset="1" style="stop-color:#1CAAFF"/>
	<a:midPointStop  offset="0.4303" style="stop-color:#66E4FF"/>
	<a:midPointStop  offset="0.6702" style="stop-color:#66E4FF"/>
	<a:midPointStop  offset="1" style="stop-color:#1CAAFF"/>
</radialGradient>
<path fill="url(#SVGID_6_)" d="M26.271,50.555c-2.322,1.251-3.976,2.635-4.669,4.088c-0.59,1.236-0.076,2.711,1.147,3.293
	c1.222,0.584,2.693,0.056,3.282-1.179C26.725,55.305,26.755,53.106,26.271,50.555z"/>
<radialGradient id="SVGID_7_" cx="-535.0137" cy="427.2334" r="2.4724" gradientTransform="matrix(0.3181 0.2158 -0.4549 0.6704 387.927 -116.8716)" gradientUnits="userSpaceOnUse">
	<stop  offset="0" style="stop-color:#D4F2FF"/>
	<stop  offset="0.5519" style="stop-color:#D1F1FF;stop-opacity:0.4481"/>
	<stop  offset="0.8834" style="stop-color:#C9EFFF;stop-opacity:0.1166"/>
	<stop  offset="1" style="stop-color:#C4EEFF;stop-opacity:0"/>
	<a:midPointStop  offset="0" style="stop-color:#D4F2FF"/>
	<a:midPointStop  offset="0.8" style="stop-color:#D4F2FF"/>
	<a:midPointStop  offset="1" style="stop-color:#C4EEFF;stop-opacity:0"/>
</radialGradient>
<path fill="url(#SVGID_7_)" d="M24.177,54.623c-0.622,0.916-1.478,1.418-1.911,1.123c-0.436-0.295-0.283-1.276,0.338-2.19
	c0.621-0.915,1.477-1.419,1.911-1.124C24.951,52.727,24.799,53.707,24.177,54.623z"/>
<radialGradient id="SVGID_8_" cx="-74.7036" cy="443.8965" r="6.1024" gradientTransform="matrix(-0.3251 0.6392 -0.4312 -0.2193 183.5681 199.9574)" gradientUnits="userSpaceOnUse">
	<stop  offset="0.4303" style="stop-color:#66E4FF"/>
	<stop  offset="0.5507" style="stop-color:#61E0FF"/>
	<stop  offset="0.6944" style="stop-color:#52D5FF"/>
	<stop  offset="0.8493" style="stop-color:#3BC2FF"/>
	<stop  offset="1" style="stop-color:#1CAAFF"/>
	<a:midPointStop  offset="0.4303" style="stop-color:#66E4FF"/>
	<a:midPointStop  offset="0.6702" style="stop-color:#66E4FF"/>
	<a:midPointStop  offset="1" style="stop-color:#1CAAFF"/>
</radialGradient>
<path fill="url(#SVGID_8_)" d="M18.422,52.311c-2.37,1.157-4.078,2.473-4.829,3.896c-0.64,1.211-0.184,2.705,1.014,3.338
	c1.198,0.632,2.688,0.164,3.327-1.048C18.684,57.073,18.801,54.879,18.422,52.311z"/>
<radialGradient id="SVGID_9_" cx="-511.3916" cy="457.7793" r="2.4731" gradientTransform="matrix(0.3092 0.2284 -0.4814 0.6516 393.8991 -125.7602)" gradientUnits="userSpaceOnUse">
	<stop  offset="0" style="stop-color:#D4F2FF"/>
	<stop  offset="0.5519" style="stop-color:#D1F1FF;stop-opacity:0.4481"/>
	<stop  offset="0.8834" style="stop-color:#C9EFFF;stop-opacity:0.1166"/>
	<stop  offset="1" style="stop-color:#C4EEFF;stop-opacity:0"/>
	<a:midPointStop  offset="0" style="stop-color:#D4F2FF"/>
	<a:midPointStop  offset="0.8" style="stop-color:#D4F2FF"/>
	<a:midPointStop  offset="1" style="stop-color:#C4EEFF;stop-opacity:0"/>
</radialGradient>
<path fill="url(#SVGID_9_)" d="M16.166,56.293c-0.658,0.889-1.533,1.356-1.956,1.045c-0.422-0.311-0.23-1.286,0.428-2.176
	c0.656-0.891,1.532-1.359,1.954-1.047C17.016,54.428,16.822,55.402,16.166,56.293z"/>
<radialGradient id="SVGID_10_" cx="-33.4639" cy="492.6025" r="6.1022" gradientTransform="matrix(-0.3796 0.6084 -0.4104 -0.2561 207.2651 188.8609)" gradientUnits="userSpaceOnUse">
	<stop  offset="0.4303" style="stop-color:#66E4FF"/>
	<stop  offset="0.5507" style="stop-color:#61E0FF"/>
	<stop  offset="0.6944" style="stop-color:#52D5FF"/>
	<stop  offset="0.8493" style="stop-color:#3BC2FF"/>
	<stop  offset="1" style="stop-color:#1CAAFF"/>
	<a:midPointStop  offset="0.4303" style="stop-color:#66E4FF"/>
	<a:midPointStop  offset="0.6702" style="stop-color:#66E4FF"/>
	<a:midPointStop  offset="1" style="stop-color:#1CAAFF"/>
</radialGradient>
<path fill="url(#SVGID_10_)" d="M19.978,40.007c-2.462,0.946-4.279,2.108-5.15,3.462c-0.743,1.15-0.421,2.679,0.719,3.412
	c1.138,0.735,2.664,0.398,3.405-0.753C19.823,44.775,20.131,42.6,19.978,40.007z"/>
<radialGradient id="SVGID_11_" cx="-420.8955" cy="494.5791" r="2.4731" gradientTransform="matrix(0.2881 0.2545 -0.5364 0.6071 403.2222 -149.9941)" gradientUnits="userSpaceOnUse">
	<stop  offset="0" style="stop-color:#D4F2FF"/>
	<stop  offset="0.5519" style="stop-color:#D1F1FF;stop-opacity:0.4481"/>
	<stop  offset="0.8834" style="stop-color:#C9EFFF;stop-opacity:0.1166"/>
	<stop  offset="1" style="stop-color:#C4EEFF;stop-opacity:0"/>
	<a:midPointStop  offset="0" style="stop-color:#D4F2FF"/>
	<a:midPointStop  offset="0.8" style="stop-color:#D4F2FF"/>
	<a:midPointStop  offset="1" style="stop-color:#C4EEFF;stop-opacity:0"/>
</radialGradient>
<path fill="url(#SVGID_11_)" d="M17.382,43.777c-0.733,0.828-1.645,1.218-2.039,0.871c-0.394-0.348-0.117-1.302,0.615-2.131
	c0.732-0.83,1.646-1.22,2.039-0.872C18.392,41.993,18.114,42.947,17.382,43.777z"/>
<linearGradient id="Path_1_" gradientUnits="userSpaceOnUse" x1="-501.5986" y1="697.001" x2="-501.5986" y2="697.9336" gradientTransform="matrix(55.999 0 0 -36.19 28121.0332 25262.0195)">
	<stop  offset="0" style="stop-color:#DADADA"/>
	<stop  offset="0.9993" style="stop-color:#FDFDFD"/>
	<a:midPointStop  offset="0" style="stop-color:#DADADA"/>
	<a:midPointStop  offset="0.5" style="stop-color:#DADADA"/>
	<a:midPointStop  offset="0.9993" style="stop-color:#FDFDFD"/>
</linearGradient>
<path id="Path_25_" fill="url(#Path_1_)" d="M12.265,37.105C8.439,35.9,5.866,32.51,5.866,28.669c0-2.563,1.17-5.004,3.198-6.695
	c0.528-0.439,1.097-0.814,1.707-1.127l-0.028-0.004l0.618-2.057c1.543-5.134,6.531-8.717,12.131-8.717
	c0.56,0,1.135,0.042,1.805,0.134c0.514,0.07,1.021,0.168,1.518,0.298l0.245-0.426c2.261-3.883,6.558-6.298,11.208-6.298
	c7.064,0,12.812,5.478,12.812,12.209c0,0.332-0.021,0.651-0.053,0.974l-0.017,0.237c0.542,0.197,1.07,0.44,1.586,0.724
	c3.414,1.873,5.538,5.367,5.538,9.109c0,4.933-3.521,9.149-8.563,10.25c-0.825,0.182-1.659,0.276-2.478,0.276H15.194
	C14.2,37.557,13.214,37.407,12.265,37.105z"/>
<linearGradient id="Shape_1_" gradientUnits="userSpaceOnUse" x1="-501.9238" y1="698.8877" x2="-501.9238" y2="697.9551" gradientTransform="matrix(60 0 0 -40 30147.4688 27957.5)">
	<stop  offset="0" style="stop-color:#B2B2B2"/>
	<stop  offset="1" style="stop-color:#6B6B6B"/>
	<a:midPointStop  offset="0" style="stop-color:#B2B2B2"/>
	<a:midPointStop  offset="0.5" style="stop-color:#B2B2B2"/>
	<a:midPointStop  offset="1" style="stop-color:#6B6B6B"/>
</linearGradient>
<path id="Shape_4_" fill="url(#Shape_1_)" d="M38.268,5.555c6.044,0,10.942,4.672,10.942,10.432c0,0.283-0.021,0.555-0.045,0.827
	c-2.527,0.187-4.827,1.147-6.634,2.642c1.346-0.735,2.898-1.162,4.561-1.162c0.615,0,1.215,0.058,1.8,0.166
	c0.989,0.189,1.923,0.534,2.77,1.002c2.754,1.509,4.605,4.33,4.605,7.569c0,4.153-3.041,7.628-7.113,8.519
	c-0.664,0.146-1.351,0.232-2.06,0.232h-0.002H15.194l0,0c-0.815,0-1.605-0.133-2.34-0.367c-2.975-0.933-5.119-3.598-5.119-6.746
	c0-2.143,0.991-4.055,2.559-5.356c0.711-0.591,1.536-1.052,2.444-1.357c0.771-0.252,1.596-0.399,2.456-0.399
	c2.406,0,4.539,1.088,5.904,2.773h0.068c-1.583-2.778-4.546-4.739-8.013-5.054c1.291-4.286,5.426-7.429,10.338-7.429
	c0.525,0,1.034,0.049,1.536,0.116c1.001,0.139,1.95,0.398,2.839,0.775c3.311,1.407,5.729,4.356,6.268,7.891
	c0-0.021,0.003-0.041,0.003-0.062c0-4.022-2.169-7.564-5.45-9.629C30.562,7.73,34.143,5.555,38.268,5.555 M38.268,2
	c-5.031,0-9.703,2.465-12.391,6.488c-0.102-0.018-0.204-0.031-0.312-0.047c-0.768-0.104-1.424-0.15-2.073-0.15
	c-6.424,0-12.152,4.112-13.924,10.005l-0.426,1.403c-0.456,0.278-0.894,0.593-1.305,0.938C5.4,22.663,4,25.589,4,28.668
	c0,4.61,3.089,8.679,7.685,10.125c1.13,0.358,2.313,0.541,3.51,0.541h31.897c0.96,0,1.938-0.106,2.902-0.32
	C55.884,37.723,60,32.799,60,27.03c0-4.378-2.479-8.462-6.472-10.654c-0.193-0.104-0.388-0.205-0.585-0.301c0-0.03,0-0.056,0-0.09
	C52.943,8.275,46.356,2,38.268,2L38.268,2z"/>
</svg>
