<svg id="Layer_2" data-name="Layer 2" xmlns="http://www.w3.org/2000/svg" viewBox="0 0 32 32"><defs><style>.cls-1{fill:#737373;}</style></defs><title>attachment</title><path class="cls-1" d="M18.95,29.68a1.75,1.75,0,0,1-1.24-3L25.2,19.2A7.84,7.84,0,1,0,14.12,8.11L5.91,16.32a4.81,4.81,0,0,0,6.8,6.8l6.42-6.42a1.78,1.78,0,0,0,0-2.52,1.82,1.82,0,0,0-2.52,0l-5.71,5.71a1.75,1.75,0,0,1-2.47-2.47l5.71-5.71a5.28,5.28,0,1,1,7.47,7.47L15.19,25.6A8.31,8.31,0,0,1,3.43,13.85l8.21-8.21a11.34,11.34,0,0,1,16,16l-7.49,7.49A1.74,1.74,0,0,1,18.95,29.68Z"/></svg>