<svg id="Layer_2" data-name="Layer 2" xmlns="http://www.w3.org/2000/svg" viewBox="0 0 32 32"><defs><style></style></defs><title>calendar</title><path fill="#737373" d="M1,26a4,4,0,0,0,4,4H27a4,4,0,0,0,4-4V11H1ZM22.68,14.68A2.32,2.32,0,1,1,20.35,17,2.32,2.32,0,0,1,22.68,14.68Zm0,6.68a2.32,2.32,0,1,1-2.32,2.32A2.32,2.32,0,0,1,22.68,21.35ZM16,14.68A2.32,2.32,0,1,1,13.68,17,2.32,2.32,0,0,1,16,14.68Zm0,6.68a2.32,2.32,0,1,1-2.32,2.32A2.32,2.32,0,0,1,16,21.35ZM9.32,14.68A2.32,2.32,0,1,1,7,17,2.32,2.32,0,0,1,9.32,14.68Zm0,6.68A2.32,2.32,0,1,1,7,23.68,2.32,2.32,0,0,1,9.32,21.35ZM27,2H5A4,4,0,0,0,1,6V9H31V6A4,4,0,0,0,27,2Z"/></svg>
