<svg id="Layer_2" data-name="Layer 2" xmlns="http://www.w3.org/2000/svg" viewBox="0 0 32 32"><defs><style>.cls-1{fill:#737373;}</style></defs><title>chat-quote</title><path class="cls-1" d="M16,1C7.72,1,1,7,1,14.5A12.82,12.82,0,0,0,5.39,24L5,30.16a.79.79,0,0,0,1.22.7l5.25-3.5A16.52,16.52,0,0,0,16,28c8.28,0,15-6,15-13.5S24.28,1,16,1ZM11.5,20c-2.25,0-3.71-1.66-3.71-4.22A6.75,6.75,0,0,1,13,9.06a1.15,1.15,0,0,1,1.42.55c.2.55-.27,1-.83,1.22a4.46,4.46,0,0,0-3,2.75,3.13,3.13,0,0,1,4.6,2.92A3.37,3.37,0,0,1,11.5,20Zm9,0c-2.26,0-3.72-1.66-3.72-4.22a6.76,6.76,0,0,1,5.24-6.72,1.14,1.14,0,0,1,1.42.55c.2.53-.26,1-.83,1.22a4.45,4.45,0,0,0-3,2.75,3.13,3.13,0,0,1,4.6,2.92A3.36,3.36,0,0,1,20.53,20Z"/></svg>