<svg xmlns="http://www.w3.org/2000/svg" viewBox="0 0 32 32"><defs><style>.cls-1{fill:#737373;}</style></defs><title>email</title><g id="Layer_2" data-name="Layer 2"><path class="cls-1" d="M25.23,5H6.77A5.79,5.79,0,0,0,1,10.77V23.23A5.79,5.79,0,0,0,6.77,29H25.23A5.79,5.79,0,0,0,31,23.23V10.77A5.79,5.79,0,0,0,25.23,5ZM8.88,22.88,6,25.8A3,3,0,0,1,4.2,24l2.92-2.92a1.25,1.25,0,0,1,1.77,1.77ZM26,25.8l-2.92-2.92a1.25,1.25,0,0,1,1.77-1.77L27.8,24A3,3,0,0,1,26,25.8Zm2-14.29-7.06,6.76a7.4,7.4,0,0,1-10.44,0L4,11.66V11A3,3,0,0,1,5.21,8.61l7.43,7.53a4.4,4.4,0,0,0,6.21,0l7.89-7.57A3,3,0,0,1,28,11Z"/></g></svg>