<svg xmlns="http://www.w3.org/2000/svg" viewBox="0 0 32 32"><defs><style>.cls-1{fill:#737373;}</style></defs><title>globe</title><g id="Layer_2" data-name="Layer 2"><path class="cls-1" d="M16,1A15,15,0,1,0,31,16,15,15,0,0,0,16,1ZM27.29,13.82a24.31,24.31,0,0,1-5.07,1.1,25,25,0,0,0-2.15-9.66A11.53,11.53,0,0,1,27.29,13.82Zm-14,1.4c.11-3.84,1-7.6,2.76-10,1.73,2.45,2.65,6.2,2.76,10C16.94,15.31,15.06,15.31,13.24,15.22Zm5.39,3.49A17.42,17.42,0,0,1,16,26.83a17.42,17.42,0,0,1-2.63-8.12c.87,0,1.75.07,2.63.07S17.76,18.74,18.63,18.7ZM11.94,5.26a25,25,0,0,0-2.15,9.66,24.32,24.32,0,0,1-5.07-1.1A11.53,11.53,0,0,1,11.94,5.26ZM4.6,17.44a32.81,32.81,0,0,0,5.27,1,24.13,24.13,0,0,0,2.07,8.31A11.52,11.52,0,0,1,4.6,17.44Zm15.46,9.31a24.13,24.13,0,0,0,2.07-8.31,32.79,32.79,0,0,0,5.27-1A11.52,11.52,0,0,1,20.06,26.75Z"/></g></svg>