<?xml version="1.0" encoding="UTF-8"?>
<svg width="1002px" height="219px" viewBox="0 0 1002 219" version="1.1" xmlns="http://www.w3.org/2000/svg" xmlns:xlink="http://www.w3.org/1999/xlink">
    <title>helpspot-logo-color</title>
    <g id="Page-1" stroke="none" stroke-width="1" fill="none" fill-rule="evenodd">
        <g id="helpspot-logo-color" fill-rule="nonzero">
            <circle id="Oval" fill="#E00000" cx="981.31" cy="153.72" r="20.13"></circle>
            <path d="M0,10.1 C0,3.61 3.61,0 10.1,0 L20.44,0 C27.17,0 30.54,3.61 30.54,10.1 L30.54,59.64 C30.5574085,63.0997738 30.3167409,66.5560277 29.82,69.98 L30.3,69.98 C36.3,58.2 51.7,45.21 72.86,45.21 C100.03,45.21 115.66,59.4 115.66,91.86 L115.66,160.63 C115.66,167.36 112.05,170.73 105.56,170.73 L95.22,170.73 C88.4866667,170.73 85.12,167.363333 85.12,160.63 L85.12,98.11 C85.12,83.2 81.27,73.11 65.88,73.11 C44.44,73.1 30.54,90.41 30.54,113.74 L30.54,160.63 C30.54,167.363333 27.1733333,170.73 20.44,170.73 L10.1,170.73 C3.61,170.73 0,167.36 0,160.63 L0,10.1 Z" id="Shape" fill="#E00000"></path>
            <path d="M198.86,45.21 C233.73,45.21 253.2,69.98 253.2,103.64 C253.043459,109.377868 248.359949,113.955136 242.62,113.98 L167.84,113.98 C169.76,136.1 186.12,147.64 204.63,147.64 C214.01071,147.495816 223.167282,144.750575 231.08,139.71 C237.08,136.83 241.42,137.55 244.54,143.08 L247.43,147.89 C250.31,153.42 249.35,158.23 244.06,161.36 C231.635154,169.320943 217.196417,173.570691 202.44,173.61 C161.8,173.61 136.56,144.28 136.56,109.41 C136.58,71.66 162.07,45.21 198.86,45.21 Z M222.86,95.47 C222.44,78.41 212.09,68.29 198.14,68.29 C182.51,68.29 171.45,79.11 168.56,95.46 L222.86,95.47 Z" id="Shape" fill="#E00000"></path>
            <path d="M275.08,10.1 C275.08,3.61 278.45,0 284.94,0 L295.52,0 C302.01,0 305.38,3.61 305.38,10.1 L305.38,130.1 C305.38,142.1 310.43,144.29 315,144.77 C319.33,145.25 322.45,147.9 322.45,153.43 L322.45,161.61 C322.45,167.86 319.57,171.95 312.35,171.95 C296,171.95 275.08,167.62 275.08,132.51 L275.08,10.1 Z" id="Shape" fill="#E00000"></path>
            <path d="M342.44,58.19 C342.44,51.7 346.05,48.09 352.54,48.09 L360.23,48.09 C366.72,48.09 370.09,51.7 370.09,56.51 L370.09,62.04 C370.09,64.69 369.85,66.85 369.85,66.85 L370.33,66.85 C370.33,66.85 381.15,45.21 409.76,45.21 C442.94,45.21 464.35,71.42 464.35,109.41 C464.35,148.41 440.35,173.61 408.08,173.61 C382.59,173.61 372.73,154.86 372.73,154.86 L372.25,154.86 C372.752994,158.363831 372.993663,161.900329 372.97,165.44 L372.97,208.72 C372.97,215.453333 369.603333,218.82 362.87,218.82 L352.51,218.82 C346.02,218.82 342.41,215.45 342.41,208.72 L342.44,58.19 Z M402.56,147.88 C419.39,147.88 433.34,134.17 433.34,109.88 C433.34,86.56 420.83,71.41 403.04,71.41 C387.17,71.41 372.039824,82.95 372.039824,110.12 C371.99,129.13 382.57,147.88 402.53,147.88 L402.56,147.88 Z" id="Shape" fill="#E00000"></path>
            <path d="M489.33,151.49 L491.25,149.09 C493.42,146.2 496.06,145.96 499.43,148.09 C508.576012,155.221477 519.832326,159.11194 531.43,159.15 C544.89,159.15 555.95,152.42 555.95,139.67 C555.95,112.5 491.27,120.67 491.27,80.76 C491.27,58.4 510.27,46.86 532.39,46.86 C549.7,46.86 560.53,53.11 565.57,56.72 C568.7,58.64 569.18,61.53 567.25,64.65 L565.57,67.3 C563.65,70.67 560.76,70.91 557.4,68.98 C549.722018,63.8205523 540.649318,61.1336374 531.4,61.28 C518.65,61.28 507.59,66.81 507.59,80.04 C507.59,107.93 572.03,99.04 572.03,139.43 C572.03,159.43 555.2,173.57 531.15,173.57 C509.99,173.57 496.28,164.67 490.27,159.63 C487.44,157.5 487.17,154.62 489.33,151.49 Z" id="Shape" fill="#3A2D23"></path>
            <path d="M600.66,55.79 C600.66,51.94 602.58,49.79 606.43,49.79 L610.28,49.79 C614.13,49.79 616.05,51.96 616.05,55.32 L616.05,63.98 C616.07101,66.7233723 615.829915,69.4624792 615.33,72.16 L615.81,72.16 C615.81,72.16 626.15,46.91 658.13,46.91 C690.59,46.91 710.79,72.91 710.79,110.39 C710.79,148.62 687.95,173.63 656.45,173.63 C627.11,173.63 616.53,149.11 616.53,149.11 L616.05,149.11 C616.732138,152.594956 617.067109,156.138953 617.05,159.69 L617.05,212.81 C617.05,216.66 614.89,218.81 611.05,218.81 L606.44,218.81 C602.59,218.81 600.67,216.64 600.67,212.81 L600.66,55.79 Z M654.76,158.95 C676.4,158.95 693.96,141.16 693.96,110.38 C693.96,80.8 678.09,61.8 655.73,61.8 C635.53,61.8 616.53,76.23 616.53,110.61 C616.53,134.9 630,158.95 654.76,158.95 Z" id="Shape" fill="#3A2D23"></path>
            <path d="M795.44,46.89 C830.79,46.89 859.44,73.82 859.44,109.65 C859.44,146.2 830.82,173.65 795.719997,173.65 C760.37,173.65 731.719997,146.24 731.719997,109.65 C731.71,73.82 760.32,46.89 795.44,46.89 Z M795.68,158.94 C821.41,158.94 842.57,137.78 842.57,109.64 C842.57,82.23 821.41,61.55 795.68,61.55 C769.68,61.55 748.549996,82.23 748.549996,109.64 C748.54,137.78 769.7,158.95 795.67,158.95 L795.68,158.94 Z" id="Shape" fill="#3A2D23"></path>
            <path d="M891.62,64.41 L881.52,64.41 C877.673333,64.41 875.75,62.4866667 875.75,58.64 L875.75,56.72 C875.75,52.87 877.67,50.72 881.52,50.72 L891.86,50.72 L891.86,22.41 C891.86,18.56 894.02,16.41 897.86,16.41 L902.19,16.41 C906.04,16.41 907.96,18.57 907.96,22.41 L907.96,50.78 L932.49,50.78 C936.34,50.78 938.49,52.94 938.49,56.78 L938.49,58.7 C938.49,62.55 936.32,64.47 932.49,64.47 L907.97,64.47 L907.97,125.07 C907.97,152.96 925.04,156.33 934.42,156.81 C939.23,157.29 940.91,158.73 940.91,162.81 L940.91,165.94 C940.91,169.79 938.99,171.71 934.18,171.71 C907.73,171.71 891.62,155.6 891.62,127.23 L891.62,64.41 Z" id="Shape" fill="#3A2D23"></path>
        </g>
    </g>
</svg>