<?xml version="1.0" encoding="UTF-8"?>
<svg width="1000px" height="1000px" viewBox="0 0 1000 1000" version="1.1" xmlns="http://www.w3.org/2000/svg" xmlns:xlink="http://www.w3.org/1999/xlink">
    <title>avatar-hs</title>
    <g id="Page-1" stroke="none" stroke-width="1" fill="none" fill-rule="evenodd">
        <g id="avatar-hs" fill-rule="nonzero">
            <polygon id="Shape" fill="#3A2D23" points="0 0 1000 0 1000 1000 0 1000"></polygon>
            <circle id="Oval" fill="#E00000" cx="701.05" cy="687.59" r="56.54"></circle>
            <path d="M242.41,284.23 C242.41,266 252.54,255.87 270.77,255.87 L299.77,255.87 C318.68,255.87 328.14,266 328.14,284.23 L328.14,423.35 C328.194217,433.052914 327.525701,442.746391 326.14,452.35 L327.49,452.35 C344.38,419.3 387.6,382.83 447,382.83 C523.31,382.83 567.21,422.67 567.21,513.83 L567.21,707 C567.21,725.91 557.08,735.37 538.84,735.37 L509.84,735.37 C490.926667,735.37 481.47,725.913333 481.47,707 L481.47,531.4 C481.47,489.53 470.67,461.17 427.47,461.17 C367.37,461.17 328.2,509.79 328.2,575.29 L328.2,707 C328.2,725.913333 318.743333,735.37 299.83,735.37 L270.83,735.37 C252.6,735.37 242.47,725.91 242.47,707 L242.41,284.23 Z" id="Shape" fill="#FFFFFF"></path>
        </g>
    </g>
</svg>