<?xml version="1.0" encoding="UTF-8"?>
<svg width="171px" height="171px" viewBox="0 0 171 171" version="1.1" xmlns="http://www.w3.org/2000/svg" xmlns:xlink="http://www.w3.org/1999/xlink">
    <title>helpspot-logo-color</title>
    <g id="Page-1" stroke="none" stroke-width="1" fill="none" fill-rule="evenodd">
        <g id="helpspot-logo-color" fill-rule="nonzero">
            <circle id="Oval" fill="#E00000" cx="150.13" cy="150.13" r="20.13"></circle>
            <path d="M0,10.1 C0,3.61 3.61,0 10.1,0 L20.44,0 C27.17,0 30.54,3.61 30.54,10.1 L30.54,59.64 C30.5574085,63.0997738 30.3167409,66.5560277 29.82,69.98 L30.3,69.98 C36.3,58.2 51.7,45.21 72.86,45.21 C100.03,45.21 115.66,59.4 115.66,91.86 L115.66,160.63 C115.66,167.36 112.05,170.73 105.56,170.73 L95.22,170.73 C88.4866667,170.73 85.12,167.363333 85.12,160.63 L85.12,98.11 C85.12,83.2 81.27,73.11 65.88,73.11 C44.44,73.1 30.54,90.41 30.54,113.74 L30.54,160.63 C30.54,167.363333 27.1733333,170.73 20.44,170.73 L10.1,170.73 C3.61,170.73 0,167.36 0,160.63 L0,10.1 Z" id="Shape" fill="#ffffff"></path>
        </g>
    </g>
</svg>