<svg id="Layer_2" data-name="Layer 2" xmlns="http://www.w3.org/2000/svg" viewBox="0 0 32 32"><defs><style>.cls-1{fill:#737373;}</style></defs><title>inbox</title><path class="cls-1" d="M24,19c0,3.31-3.58,6-8,6s-8-2.69-8-6H1v8a4,4,0,0,0,4,4H27a4,4,0,0,0,4-4V19Zm-9.28-.62.82.49a.89.89,0,0,0,.92,0l.82-.49a23,23,0,0,0,7.08-7.08,2.49,2.49,0,0,0-4.27-2.56,17,17,0,0,1-1.19,1.63l-.56-7.2a2.34,2.34,0,0,0-4.67,0l-.57,7.23a13.61,13.61,0,0,1-1.19-1.66,2.49,2.49,0,1,0-4.27,2.56A23,23,0,0,0,14.72,18.38Z"/></svg>