<svg id="Layer_2" data-name="Layer 2" xmlns="http://www.w3.org/2000/svg" viewBox="0 0 32 32"><defs></defs><style>.cls-1{fill:#737373;}</style><title>profile</title><path class="cls-1" d="M28,27.91v0c-.39-1.86-2.79-3.84-5.06-4.16l-.46,0a9.59,9.59,0,0,1-6.55,2.81h0a9.68,9.68,0,0,1-6.57-2.81l-.44,0C6.6,24.05,4.2,26,3.81,27.89l0,.18A1.86,1.86,0,0,0,5.3,30.24,62.9,62.9,0,0,0,15.39,31a60.9,60.9,0,0,0,11.1-.94A1.85,1.85,0,0,0,28,27.91ZM8.09,17.06a2.19,2.19,0,0,0,.33,0c1.52,3.87,4.44,6.47,7.47,6.48S21.77,20.89,23.3,17a2.2,2.2,0,0,0,.39,0,2.83,2.83,0,0,0,2.58-3,3,3,0,0,0-1.83-2.88C24.51,4.38,20.87,1,15.89,1S7.26,4.38,7.33,11.17A3,3,0,0,0,5.5,14,2.83,2.83,0,0,0,8.09,17.06Z"/></svg>
