<svg xmlns="http://www.w3.org/2000/svg" viewBox="0 0 32 32"><defs><style>.cls-1{fill:#737373;}</style></defs><title>sat-dish</title><g id="Layer_2" data-name="Layer 2"><path class="cls-1" d="M16.9,20A3.48,3.48,0,0,0,12,15.1L7.7,10.81a3,3,0,0,0-4.78.72A13,13,0,0,0,20.46,29.08a3,3,0,0,0,.72-4.78ZM14.06,1.44a1.5,1.5,0,0,0,0,3,13.52,13.52,0,0,1,13.5,13.5,1.5,1.5,0,0,0,3,0A16.52,16.52,0,0,0,14.06,1.44Zm0,6a1.5,1.5,0,0,0,0,3,7.51,7.51,0,0,1,7.5,7.5,1.5,1.5,0,0,0,3,0A10.51,10.51,0,0,0,14.06,7.44Z"/></g></svg>