<svg id="Layer_2" data-name="Layer 2" xmlns="http://www.w3.org/2000/svg" viewBox="0 0 32 32"><defs><style>.cls-1{fill:#737373;}</style></defs><title>settings</title><path class="cls-1" d="M28.84,14.75h0a3.07,3.07,0,0,1-2.53-2L26,11.91a3.07,3.07,0,0,1,.59-3.14,2.42,2.42,0,0,0-.14-3.39,14.51,14.51,0,0,0-1.48-1.22,2.42,2.42,0,0,0-3.36.53h0a3.07,3.07,0,0,1-3,1.21l-.93-.15a3.07,3.07,0,0,1-2.43-2.08h0a2.42,2.42,0,0,0-3-1.57,14.51,14.51,0,0,0-1.79.69A2.42,2.42,0,0,0,9.24,6,3.07,3.07,0,0,1,8.8,9.14l-.6.73a3.07,3.07,0,0,1-3,1.06h0a2.42,2.42,0,0,0-2.86,1.82q-.11.47-.19,1t-.12,1a2.42,2.42,0,0,0,2.15,2.62h0a3.07,3.07,0,0,1,2.53,2l.34.88a3.07,3.07,0,0,1-.59,3.14l0,0a2.38,2.38,0,0,0,.14,3.33,14.51,14.51,0,0,0,1.51,1.25,2.42,2.42,0,0,0,3.36-.53h0a3.07,3.07,0,0,1,3-1.21l.93.15a3.07,3.07,0,0,1,2.43,2.08h0a2.42,2.42,0,0,0,3,1.57,14.51,14.51,0,0,0,1.79-.69,2.42,2.42,0,0,0,1.2-3.17,3.07,3.07,0,0,1,.43-3.17l.6-.73a3.07,3.07,0,0,1,3-1.06h0a2.42,2.42,0,0,0,2.86-1.82q.11-.47.19-1t.12-1A2.42,2.42,0,0,0,28.84,14.75Zm-8.3,1.83a4.08,4.08,0,1,1-3.38-4.68A4.08,4.08,0,0,1,20.55,16.59Z"/></svg>