<svg id="Layer_2" data-name="Layer 2" xmlns="http://www.w3.org/2000/svg" viewBox="0 0 32 32"><defs><style>.cls-1{fill:#737373;}</style></defs><title>steps</title><path class="cls-1" d="M8.45,7C4.63,7.13.72,10.7,3.24,21.23,7,19.36,11.68,19.61,13,19.73A11.14,11.14,0,0,0,14.41,14C13.89,8.41,10.79,6.86,8.45,7Zm4.29,16.5c-1.77-.18-6-.16-8.68,1.61.08.52.18,1.15.3,2A4.34,4.34,0,0,0,9.5,31c3.43-.37,4.18-2.17,3.79-4.78A14.66,14.66,0,0,1,12.74,23.47Zm7.84-6A14.67,14.67,0,0,1,20,20.23c-.39,2.6.37,4.41,3.79,4.78A4.34,4.34,0,0,0,29,21.1c.12-.82.22-1.46.3-2C26.63,17.34,22.35,17.32,20.59,17.51ZM24.88,1c-2.34-.1-5.44,1.44-6,7a11.14,11.14,0,0,0,1.41,5.75c1.32-.12,6-.36,9.76,1.51C32.58,4.87,28.72,1.17,24.88,1Z"/></svg>