<svg id="Layer_2" data-name="Layer 2" xmlns="http://www.w3.org/2000/svg" viewBox="0 0 32 32"><defs><style>.cls-1{fill:#737373;}</style></defs><title>volume-high</title><path class="cls-1" d="M21.4,10.82a1.5,1.5,0,1,0-1.81,2.39,3.46,3.46,0,0,1,0,5.56,1.5,1.5,0,1,0,1.81,2.39,6.46,6.46,0,0,0,0-10.35Zm4-5.75A1.5,1.5,0,1,0,23.62,7.5a10.43,10.43,0,0,1,0,17,1.5,1.5,0,0,0,1.75,2.43,13.43,13.43,0,0,0,0-21.86Zm-9.61-.59a2,2,0,0,0-2.18.43L9.83,8.67A9.66,9.66,0,0,1,3,11.5a2,2,0,0,0-2,2v5a2,2,0,0,0,2,2,9.65,9.65,0,0,1,6.83,2.83l3.76,3.76A2,2,0,0,0,17,25.67V6.33A2,2,0,0,0,15.77,4.48Z"/></svg>